<?xml version="1.0" encoding="UTF-8"?>
<svg id="a" data-name="layer1" xmlns="http://www.w3.org/2000/svg" viewBox="0 0 500 500">
  <path d="M78.35,144.72c34.46,0,62.5-28.04,62.5-62.5s-28.04-62.5-62.5-62.5S15.85,47.76,15.85,82.22s28.04,62.5,62.5,62.5ZM78.35,44.72c20.68,0,37.5,16.82,37.5,37.5s-16.82,37.5-37.5,37.5-37.5-16.82-37.5-37.5,16.82-37.5,37.5-37.5Z"/>
  <path d="M250,144.72c34.46,0,62.5-28.04,62.5-62.5s-28.04-62.5-62.5-62.5-62.5,28.04-62.5,62.5,28.04,62.5,62.5,62.5ZM250,44.72c20.68,0,37.5,16.82,37.5,37.5s-16.82,37.5-37.5,37.5-37.5-16.82-37.5-37.5,16.82-37.5,37.5-37.5Z"/>
  <path d="M434.61,188.86c.72-14.27,1.08-29.52,1.07-45.74,27.73-6.38,48.48-31.25,48.48-60.89,0-34.46-28.04-62.5-62.5-62.5s-62.5,28.04-62.5,62.5c0,30.72,22.29,56.32,51.54,61.52,0,15.99-.36,30.99-1.08,44.94-28.72,5.63-50.46,30.98-50.46,61.32,0,21.2,10.62,39.96,26.81,51.27-5.09,8.54-11.45,15.3-19.35,18.02-19.19,6.61-44.99-10.74-66.92-31.44,8.02-10.51,12.8-23.63,12.8-37.84,0-34.46-28.04-62.5-62.5-62.5s-62.5,28.04-62.5,62.5,28.04,62.5,62.5,62.5c11.17,0,21.65-2.96,30.73-8.11.63.61,1.27,1.22,1.91,1.82,27.84,26.29,53.03,39.51,75.15,39.51,5.87,0,11.52-.93,16.94-2.8,13.74-4.72,25.2-15.35,34.3-31.71,4.08.84,8.3,1.28,12.62,1.28,34.46,0,62.5-28.04,62.5-62.5,0-30.02-21.28-55.16-49.55-61.14ZM212.5,250c0-20.68,16.82-37.5,37.5-37.5s37.5,16.82,37.5,37.5c0,7.18-2.03,13.9-5.55,19.61-9.4-10.44-17.08-20.23-21.75-26.82-3.98-5.63-11.78-6.97-17.42-2.99-5.64,3.98-6.98,11.78-2.99,17.42.52.73,9.23,12.99,22.69,28.14-3.91,1.38-8.11,2.15-12.49,2.15-20.68,0-37.5-16.82-37.5-37.5ZM384.15,82.22c0-20.68,16.82-37.5,37.5-37.5s37.5,16.82,37.5,37.5c0,15.83-9.87,29.4-23.78,34.89-.25-11.41-.66-23.23-1.24-35.47-.32-6.9-6.18-12.22-13.07-11.9-6.9.32-12.22,6.18-11.9,13.07.57,12.17.98,23.89,1.23,35.19-15.19-4.79-26.24-19.01-26.24-35.77ZM384.15,250c0-15.74,9.75-29.24,23.53-34.79-1.82,19-4.47,35.61-7.95,49.74-1,4.05-2.16,8.3-3.52,12.56-7.41-6.85-12.06-16.65-12.06-27.52ZM421.65,287.5c-.8,0-1.59-.03-2.38-.08,1.72-5.16,3.3-10.65,4.74-16.48,3.95-16.07,6.9-35.01,8.85-56.73,15.22,4.77,26.3,19.01,26.3,35.79,0,20.68-16.82,37.5-37.5,37.5Z"/>
  <path d="M250,355.28c-34.46,0-62.5,28.04-62.5,62.5,0,2.38.15,4.73.41,7.05-15.73,1.21-29.52-1.84-41.26-9.18-2.13-1.33-4.17-2.8-6.14-4.37-2.15-20.71-14.46-38.44-31.83-48.12-5.4-14.2-9.06-28.99-11.54-42.15-.69-3.67-1.3-7.29-1.85-10.85,26.26-7.4,45.56-31.56,45.56-60.15,0-34.46-28.04-62.5-62.5-62.5s-62.5,28.04-62.5,62.5c0,31.71,23.74,57.96,54.38,61.96,2.06,13.76,5.07,28.63,9.45,43.36-.44,0-.88-.03-1.33-.03-34.46,0-62.5,28.04-62.5,62.5s28.04,62.5,62.5,62.5c27,0,50.05-17.21,58.77-41.24,13.27,7.42,27.98,11.13,44.07,11.13,4.81,0,9.74-.35,14.79-1.01,10.84,18.59,30.99,31.12,54.02,31.12,34.46,0,62.5-28.04,62.5-62.5s-28.04-62.5-62.5-62.5ZM40.85,250c0-20.68,16.82-37.5,37.5-37.5s37.5,16.82,37.5,37.5c0,15.76-9.78,29.27-23.58,34.81-1.73-20.15-1.43-34.29-1.42-34.5.17-6.9-5.28-12.63-12.18-12.81-.11,0-.21,0-.32,0-6.76,0-12.32,5.39-12.49,12.18-.05,1.79-.32,16.02,1.35,36.12-15.25-4.76-26.35-19.01-26.35-35.81ZM78.35,455.28c-20.68,0-37.5-16.82-37.5-37.5s16.82-37.5,37.5-37.5c3.84,0,7.55.58,11.05,1.66,6.67,15.05,15.22,29.02,26.17,40.36-2.24,18.55-18.07,32.98-37.22,32.98ZM250,455.28c-10.94,0-20.8-4.71-27.66-12.21,10.69-3.47,21.83-8.19,33.41-14.2,6.13-3.18,8.52-10.72,5.34-16.85-3.18-6.13-10.72-8.52-16.85-5.34-11.15,5.78-21.71,10.2-31.68,13.26-.04-.72-.07-1.44-.07-2.16,0-20.68,16.82-37.5,37.5-37.5s37.5,16.82,37.5,37.5-16.82,37.5-37.5,37.5Z"/>
  <path d="M421.65,355.28c-34.46,0-62.5,28.04-62.5,62.5s28.04,62.5,62.5,62.5,62.5-28.04,62.5-62.5-28.04-62.5-62.5-62.5ZM421.65,455.28c-20.68,0-37.5-16.82-37.5-37.5s16.82-37.5,37.5-37.5,37.5,16.82,37.5,37.5-16.82,37.5-37.5,37.5Z"/>
</svg>