<?xml version="1.0" encoding="UTF-8"?>
<svg id="a" data-name="layer1" xmlns="http://www.w3.org/2000/svg" viewBox="0 0 500 500">
  <path d="M494.32,226.77s.05-.07.08-.11c0,0,0-.02.01-.02.05-.08.09-.17.14-.25.1-.17.19-.35.28-.52.02-.05.05-.09.08-.14.03-.07.07-.13.11-.19.04-.09.07-.17.11-.26.07-.15.13-.31.2-.47.03-.08.07-.15.1-.23.02-.06.06-.13.08-.19.03-.08.05-.16.08-.24.05-.15.1-.31.15-.47.01-.04.03-.09.04-.13.03-.11.08-.22.1-.34.02-.07.03-.14.04-.21.04-.17.07-.35.11-.52.04-.21.08-.43.11-.64.03-.2.05-.4.06-.6.02-.19.04-.38.05-.58.01-.23,0-.45,0-.68,0-.17,0-.34,0-.51-.01-.24-.04-.47-.06-.71,0-.08-.01-.17-.02-.25,0-.03,0-.06,0-.09,0-.06-.02-.11-.03-.17-.03-.22-.08-.44-.12-.66-.04-.19-.08-.39-.13-.58-.05-.19-.1-.37-.16-.56-.07-.22-.14-.45-.22-.67-.03-.08-.05-.15-.07-.23-.03-.09-.08-.17-.11-.25-.09-.23-.2-.46-.31-.68-.07-.15-.15-.3-.23-.45-.11-.21-.23-.41-.35-.62-.1-.16-.19-.31-.3-.47-.05-.08-.1-.16-.15-.24-.07-.1-.15-.19-.22-.28-.12-.16-.24-.31-.37-.47-.06-.07-.12-.15-.18-.23-.06-.07-.13-.13-.19-.2-.01-.01-.02-.02-.03-.03-.14-.15-.28-.31-.43-.45-.07-.07-.14-.15-.21-.22-.07-.06-.15-.12-.22-.18-.16-.15-.33-.29-.5-.43-.08-.07-.16-.14-.24-.2,0,0-.02-.01-.02-.02-.07-.05-.14-.09-.2-.14-.18-.13-.36-.25-.54-.37-.08-.05-.16-.12-.25-.17-.02-.01-.04-.02-.05-.03h-.02c-25.75-16-52.38-32.53-81.37-47.7-17.77-9.3-37.62-18.26-62.29-20.84-8.33-.87-16.07-.86-23,.04-6.63.86-13.35,2.64-19.95,5.3-12.08,4.85-20.97,11.33-28.81,17.05l-24.87,18.13-24.87-18.13c-7.84-5.72-16.73-12.2-28.81-17.05-6.61-2.66-13.32-4.44-19.95-5.3-6.93-.9-14.67-.91-23-.04-24.67,2.59-44.51,11.55-62.29,20.84-28.99,15.17-55.62,31.7-81.37,47.68,0,0-.01,0-.02.01-.02.01-.04.02-.05.03-.08.05-.16.11-.24.17-.19.12-.37.25-.56.38-.06.05-.13.09-.2.13,0,0-.02.01-.02.02-.08.06-.16.13-.24.2-.18.14-.35.29-.52.44-.07.06-.14.12-.21.18-.07.07-.14.14-.21.21-.15.15-.3.31-.45.47,0,0-.02.02-.02.02-.06.07-.13.13-.19.2-.06.07-.11.15-.18.22-.13.16-.25.32-.37.48-.07.09-.15.18-.22.28-.05.08-.1.16-.15.24-.11.16-.21.32-.3.48-.12.2-.24.4-.35.6-.08.15-.16.31-.24.47-.11.22-.21.44-.3.67-.04.09-.08.17-.11.26-.03.08-.05.15-.08.23-.08.22-.15.44-.22.66-.06.19-.11.38-.16.56-.05.19-.09.38-.13.57-.05.22-.09.44-.12.66,0,.06-.02.11-.03.16,0,.03,0,.06,0,.09-.01.08-.01.17-.02.25-.03.24-.05.47-.06.71,0,.17,0,.34,0,.51,0,.23,0,.45,0,.68,0,.19.03.38.05.58.02.2.04.41.06.61.03.21.07.43.11.64.03.18.07.35.11.53.02.07.03.14.04.21.03.12.07.23.11.35.01.04.02.08.04.12.05.16.09.31.15.47.03.08.05.16.08.24.02.06.06.13.08.19.03.08.07.15.1.23.06.16.13.31.2.47.04.09.07.17.11.26.03.07.07.13.11.19.02.05.05.09.07.14.09.18.19.35.29.52.05.08.09.17.14.25,0,0,0,.02.01.02.05.08.11.16.17.24.12.19.25.37.38.56.05.06.09.13.13.2l.04.05s.02.02.02.03c32.72,42.87,70.89,76.1,113.45,98.77,41.43,22.07,85.23,33.27,130.19,33.27h0c44.96,0,88.77-11.19,130.2-33.27,42.59-22.69,80.78-55.95,113.52-98.85.05-.06.09-.13.13-.2.14-.19.27-.38.4-.58.02-.03.05-.07.07-.1ZM102.67,183.87c14.51-7.59,31.79-15.88,53.31-18.13,6.39-.67,12.17-.68,17.18-.03,4.54.59,9.2,1.83,13.85,3.7,9.18,3.69,16.09,8.72,23.4,14.05l32.24,23.5c4.39,3.2,10.34,3.2,14.73,0l32.24-23.5c7.31-5.33,14.22-10.37,23.4-14.05,4.65-1.87,9.31-3.11,13.85-3.7,5-.65,10.78-.64,17.18.03,21.52,2.26,38.8,10.54,53.31,18.13,20.05,10.49,39.11,21.76,57.58,33.07-118.84,37.58-290.99,37.58-409.82,0,18.47-11.3,37.52-22.58,57.58-33.07ZM249.99,334.77c-71.4,0-139.43-31.26-195.16-88.88,56.82,15.76,124.43,24.26,195.18,24.26,70.75,0,138.34-8.5,195.16-24.26-55.73,57.62-123.77,88.88-195.18,88.88Z"/>
</svg>