<?xml version="1.0" encoding="UTF-8"?>
<svg id="a" data-name="layer1" xmlns="http://www.w3.org/2000/svg" viewBox="0 0 500 500">
  <path d="M311.68,226.88c26.16-19.09,43.19-49.97,43.19-84.76,0-57.83-47.05-104.87-104.87-104.87s-104.87,47.05-104.87,104.87c0,34.79,17.03,65.67,43.19,84.76-38.02,12.68-65.52,48.6-65.52,90.83v132.55c0,6.9,5.6,12.5,12.5,12.5h229.4c6.9,0,12.5-5.6,12.5-12.5v-132.55c0-42.23-27.49-78.16-65.52-90.83ZM170.13,142.12c0-44.04,35.83-79.87,79.87-79.87s79.87,35.83,79.87,79.87-35.83,79.87-79.87,79.87-79.87-35.83-79.87-79.87ZM352.2,437.76h-204.4v-120.05c0-39,31.72-70.72,70.72-70.72h62.96c38.99,0,70.72,31.72,70.72,70.72v120.05Z"/>
</svg>