<?xml version="1.0" encoding="UTF-8"?>
<svg id="a" data-name="layer1" xmlns="http://www.w3.org/2000/svg" width="1000" height="1000" viewBox="0 0 1000 1000">
  <path d="M500,210.172c39.144,0,77.096,7.657,112.802,22.76,34.508,14.595,65.507,35.499,92.137,62.129,26.63,26.63,47.533,57.63,62.129,92.137,15.103,35.706,22.76,73.658,22.76,112.802s-7.657,77.096-22.76,112.802c-14.596,34.508-35.499,65.507-62.129,92.137-26.63,26.63-57.629,47.533-92.137,62.129-35.706,15.102-73.658,22.76-112.802,22.76s-77.096-7.657-112.802-22.76c-34.508-14.595-65.507-35.499-92.137-62.129-26.63-26.63-47.533-57.63-62.129-92.137-15.103-35.706-22.76-73.658-22.76-112.802s7.657-77.096,22.76-112.802c14.596-34.508,35.499-65.507,62.129-92.137,26.63-26.63,57.629-47.533,92.137-62.129,35.706-15.102,73.658-22.76,112.802-22.76M500,170.172c-182.159,0-329.828,147.669-329.828,329.828s147.669,329.828,329.828,329.828,329.828-147.669,329.828-329.828-147.669-329.828-329.828-329.828h0Z" fill="#000" stroke-width="0"/>
</svg>