<?xml version="1.0" encoding="UTF-8"?>
<svg id="a" data-name="layer1" xmlns="http://www.w3.org/2000/svg" viewBox="0 0 500 500">
  <path d="M394.47,367.71V78.46c0-10.19-8.27-18.46-18.46-18.46H86.76c-14.78,0-26.76,11.98-26.76,26.76v280.96c0,14.78,11.98,26.76,26.76,26.76h280.96c14.78,0,26.76-11.98,26.76-26.76ZM85,367.71V86.76c0-.97.79-1.76,1.76-1.76h282.71v282.71c0,.97-.79,1.76-1.76,1.76H86.76c-.97,0-1.76-.79-1.76-1.76Z"/>
  <path d="M423.1,121.25c-6.9,0-12.5,5.6-12.5,12.5s5.6,12.5,12.5,12.5c2.43,0,4.4,1.97,4.4,4.4v264.85c0,6.62-5.38,12-12,12H158.25c-6.62,0-12-5.38-12-12s-5.6-12.5-12.5-12.5-12.5,5.6-12.5,12.5c0,20.4,16.6,37,37,37h257.25c20.4,0,37-16.6,37-37V150.65c0-16.21-13.19-29.4-29.4-29.4Z"/>
  <path d="M319.65,214.74h-79.91v-79.91c0-6.9-5.6-12.5-12.5-12.5s-12.5,5.6-12.5,12.5v79.91h-79.91c-6.9,0-12.5,5.6-12.5,12.5s5.6,12.5,12.5,12.5h79.91v79.91c0,6.9,5.6,12.5,12.5,12.5s12.5-5.6,12.5-12.5v-79.91h79.91c6.9,0,12.5-5.6,12.5-12.5s-5.6-12.5-12.5-12.5Z"/>
</svg>