<?xml version="1.0" encoding="UTF-8"?>
<svg id="a" data-name="layer1" xmlns="http://www.w3.org/2000/svg" viewBox="0 0 1000 1000">
  <path d="M653,635v28h-315v-28h315M682.95,585h-374.91c-11.07,0-20.04,8.97-20.04,20.04v87.92c0,11.07,8.97,20.04,20.04,20.04h374.92c11.07,0,20.04-8.97,20.04-20.04v-87.88c0-11.09-8.98-20.08-20.05-20.08h0Z"/>
  <path d="M522,308h.09-.09M498.17,340.05l133.16,176.95h-266.33l133.17-176.95M498.17,270.2c-6.29,0-12.24,2.96-16.02,7.98l-193.21,256.72c-4.54,6.09-5.27,14.22-1.9,21,3.39,6.8,10.33,11.09,17.93,11.09h386.4c7.59,0,14.53-4.29,17.93-11.09,1.41-2.83,2.11-5.9,2.11-8.95,0-4.27-1.36-8.51-4.02-12.05l-193.19-256.72c-3.78-5.02-9.73-7.98-16.02-7.98h0Z"/>
</svg>