<?xml version="1.0" encoding="UTF-8"?>
<svg id="a" data-name="layer1" xmlns="http://www.w3.org/2000/svg" viewBox="0 0 1000 1000">
  <path d="M598.15,696.09c9.96,8.72,25.13,7.82,34.49-1.54l176.4-176.4c.52-.52,1.01-1.06,1.48-1.62.24-.29.6-.78.83-1.08.27-.36.55-.72.81-1.1.24-.35.44-.72.66-1.09.2-.34.41-.67.6-1.01.2-.37.37-.75.54-1.13.17-.36.35-.72.51-1.09.15-.37.27-.74.41-1.12.14-.4.29-.79.42-1.19.11-.37.2-.75.29-1.13.1-.41.22-.82.3-1.24.09-.44.14-.89.2-1.33.05-.37.15-.97.18-1.34.13-1.48.13-2.96,0-4.44-.03-.37-.13-.97-.18-1.34-.06-.44-.12-.89-.2-1.33-.08-.42-.2-.83-.3-1.24-.09-.38-.18-.76-.29-1.13-.12-.41-.27-.8-.42-1.19-.13-.37-.26-.75-.41-1.11-.15-.37-.33-.73-.51-1.09-.18-.38-.35-.76-.54-1.13-.19-.35-.4-.68-.6-1.01-.22-.36-.42-.73-.66-1.09-.25-.38-.53-.73-.8-1.09-.22-.3-.59-.79-.83-1.08-.47-.56-.96-1.1-1.48-1.62l-176.41-176.41c-9.04-9.04-24.69-9.99-34.36-1.62-11.1,9.61-11.55,26.42-1.36,36.62l134.1,134.1s-509.2-.41-523.01-.41-25,11.19-25,25v.41c0,13.81,11.19,25,25,25h523.01s-134.1,134.1-134.1,134.1c-4.88,4.88-7.32,11.28-7.32,17.68,0,6.92,2.86,13.84,8.57,18.84Z"/>
</svg>