<?xml version="1.0" encoding="UTF-8"?>
<svg id="a" data-name="layer1" xmlns="http://www.w3.org/2000/svg" width="1000" height="1000" viewBox="0 0 1000 1000">
  <path d="M426.071,340v319.975h-60.711v-319.975h60.711M443.999,300h-96.566c-12.186,0-22.073,9.887-22.073,22.072v355.83c0,12.186,9.887,22.072,22.073,22.072h96.566c12.186,0,22.072-9.886,22.072-22.072v-355.83c0-12.186-9.887-22.072-22.072-22.072h0Z" fill="#000" stroke-width="0"/>
  <path d="M634.695,340v319.975h-60.711v-319.975h60.711M652.623,300h-96.566c-12.186,0-22.072,9.887-22.072,22.072v355.83c0,12.186,9.886,22.072,22.072,22.072h96.566c12.186,0,22.072-9.886,22.072-22.072v-355.83c0-12.186-9.887-22.072-22.072-22.072h0Z" fill="#000" stroke-width="0"/>
</svg>