<?xml version="1.0" encoding="UTF-8"?>
<svg id="a" data-name="layer1" xmlns="http://www.w3.org/2000/svg" viewBox="0 0 500 500">
  <path d="M88.77,237.24h240.24l-67.05-66.79c-4.88-4.88-4.88-12.8,0-17.68,4.88-4.88,12.8-4.88,17.68,0l88.39,88.39c.29.29.57.6.83.92.12.14.22.29.33.44.14.18.27.36.4.54.12.18.22.36.33.54.1.17.21.33.3.51.1.19.18.38.27.56.09.18.18.36.25.54.08.18.14.37.2.56.07.2.15.39.21.6.06.19.1.38.15.57.05.21.11.41.15.62.04.22.07.44.1.66.03.18.06.36.08.55.08.82.08,1.65,0,2.47-.02.19-.05.37-.08.55-.03.22-.06.44-.1.66-.04.21-.1.41-.15.62-.05.19-.09.38-.15.57-.06.2-.14.4-.21.6-.07.19-.13.37-.2.56-.08.19-.17.36-.25.54-.09.19-.17.38-.27.56-.09.17-.2.34-.3.51-.11.18-.21.37-.33.54-.13.19-.26.36-.4.54-.11.15-.21.3-.33.44-.26.32-.54.63-.83.92l-88.39,88.39c-4.88,4.88-12.8,4.88-17.68,0-2.44-2.44-3.66-5.64-3.66-8.84s1.22-6.4,3.66-8.84l67.05-67.31H88.77c-6.9.26-12.5-5.33-12.41-12.24v-.2c-.09-6.9,5.51-12.5,12.41-12.56Z"/>
  <rect x="398.86" y="149.24" width="25" height="202" rx="12.5" ry="12.5"/>
</svg>