<?xml version="1.0" encoding="UTF-8"?>
<svg id="a" data-name="layer1" xmlns="http://www.w3.org/2000/svg" width="1000" height="1000" viewBox="0 0 1000 1000">
  <path d="M265.311,361.251l184.385,138.718-184.385,138.752v-277.47M536.3,361.261l184.342,138.74-184.342,138.72v-123.768c0-5.231-1.021-10.307-2.914-14.989,1.894-4.683,2.914-9.759,2.914-14.989v-123.714M515.093,299.998c-2.86,0-5.733.648-8.392,1.965-6.375,3.181-10.401,9.691-10.401,16.813v166.199l-240.887-181.226c-3.332-2.483-7.309-3.751-11.31-3.751-2.861,0-5.733.648-8.392,1.965-6.375,3.181-10.401,9.691-10.401,16.813v362.427c0,7.122,4.026,13.632,10.401,16.813,2.655,1.322,5.531,1.982,8.395,1.982,4.001,0,7.978-1.272,11.307-3.769l240.794-181.201c.032-.024.062-.051.093-.075v166.25c0,7.122,4.026,13.632,10.401,16.813,2.655,1.322,5.531,1.982,8.395,1.982,4.001,0,7.978-1.272,11.307-3.769l240.794-181.201c4.711-3.549,7.489-9.129,7.489-15.027s-2.778-11.478-7.489-15.027l-240.794-181.226c-3.332-2.483-7.309-3.751-11.31-3.751h0Z" fill="#000" stroke-width="0"/>
</svg>