<?xml version="1.0" encoding="UTF-8"?>
<svg id="a" data-name="layer1" xmlns="http://www.w3.org/2000/svg" viewBox="0 0 500 500">
  <path d="M419.03,60H90.4c-16.79,0-30.4,13.61-30.4,30.4v319.2c0,16.79,13.61,30.4,30.4,30.4h319.2c16.79,0,30.4-13.61,30.4-30.4V80.97c0-11.58-9.39-20.97-20.97-20.97ZM415,409.6c0,2.98-2.42,5.4-5.4,5.4H90.4c-2.98,0-5.4-2.42-5.4-5.4V90.4c0-2.98,2.42-5.4,5.4-5.4h324.6v324.6Z"/>
  <path d="M145.01,262.5h92.49v92.49c0,6.9,5.6,12.5,12.5,12.5s12.5-5.6,12.5-12.5v-92.49h92.49c6.9,0,12.5-5.6,12.5-12.5s-5.6-12.5-12.5-12.5h-92.49v-92.49c0-6.9-5.6-12.5-12.5-12.5s-12.5,5.6-12.5,12.5v92.49h-92.49c-6.9,0-12.5,5.6-12.5,12.5s5.6,12.5,12.5,12.5Z"/>
</svg>