<?xml version="1.0" encoding="UTF-8"?>
<svg id="a" data-name="layer1" xmlns="http://www.w3.org/2000/svg" viewBox="0 0 1000 1000">
  <path d="M206.64,326.56l230.48,173.4-230.48,173.44v-346.84M545.38,326.58l230.43,173.42-230.43,173.4v-154.71c0-6.54-1.28-12.88-3.64-18.74,2.37-5.85,3.64-12.2,3.64-18.74v-154.64M518.87,250c-3.58,0-7.17.81-10.49,2.46-7.97,3.98-13,12.11-13,21.02v207.75L194.27,254.69c-4.17-3.1-9.14-4.69-14.14-4.69-3.58,0-7.17.81-10.49,2.46-7.97,3.98-13,12.11-13,21.02v453.03c0,8.9,5.03,17.04,13,21.02,3.32,1.65,6.91,2.48,10.49,2.48,5,0,9.97-1.59,14.13-4.71l300.99-226.5s.08-.06.12-.09v207.81c0,8.9,5.03,17.04,13,21.02,3.32,1.65,6.91,2.48,10.49,2.48,5,0,9.97-1.59,14.13-4.71l300.99-226.5c5.89-4.44,9.36-11.41,9.36-18.78s-3.47-14.35-9.36-18.78l-300.99-226.53c-4.17-3.1-9.14-4.69-14.14-4.69h0Z"/>
</svg>