<?xml version="1.0" encoding="UTF-8"?>
<svg id="a" data-name="layer1" xmlns="http://www.w3.org/2000/svg" viewBox="0 0 500 500">
  <path d="M385.028,362.421v50H110.809v-50h274.219M394.362,337.421H101.464c-8.646,0-15.655,7.009-15.655,15.655v68.689c0,8.646,7.009,15.655,15.655,15.655h292.908c8.646,0,15.655-7.009,15.655-15.655v-68.658c0-8.66-7.017-15.686-15.666-15.686h0Z"/>
  <path d="M257.456,83.858h.005-.005M250.002,93.762l132.21,175.69H117.775L250.002,93.762M250.003,62.579c-4.913,0-9.56,2.314-12.516,6.238l-150.946,200.562c-3.547,4.76-4.118,11.11-1.488,16.409,2.65,5.31,8.072,8.664,14.004,8.664h301.872c5.932,0,11.354-3.353,14.004-8.664,1.101-2.212,1.651-4.607,1.651-6.992,0-3.333-1.06-6.645-3.139-9.418l-150.926-200.562c-2.956-3.924-7.603-6.238-12.516-6.238h0Z"/>
</svg>