<?xml version="1.0" encoding="UTF-8"?>
<svg id="c" data-name="レイヤー 4" xmlns="http://www.w3.org/2000/svg" viewBox="0 0 500 500">
  <path d="M361.419,101.473c-2.231-.987-4.642-1.473-7.043-1.473-3.357,0-6.694.951-9.491,2.813l-110.032,74.008v-16.881c0-6.903-5.597-12.5-12.5-12.5h-80c-6.903,0-12.5,5.597-12.5,12.5v180c0,6.903,5.597,12.5,12.5,12.5h80c6.903,0,12.5-5.597,12.5-12.5v-16.766l110.032,73.999c2.793,1.872,6.131,2.827,9.489,2.827,2.403,0,4.816-.496,7.045-1.487,5.35-2.386,8.729-7.268,8.729-12.609V114.083c0-5.341-3.379-10.224-8.729-12.61ZM209.853,327.44h-55v-155h55v155ZM345.147,367.222l-110-73.977v-86.493l110-73.987v234.457Z"/>
</svg>