<?xml version="1.0" encoding="UTF-8"?>
<svg id="a" data-name="layer1" xmlns="http://www.w3.org/2000/svg" viewBox="0 0 500 500">
  <path d="M191.67,111.81c-17.94,7.6-34.1,18.6-47.68,32.18-13.58,13.58-24.58,29.75-32.18,47.69-7.6,17.94-11.81,37.66-11.81,58.33s4.21,40.39,11.81,58.33c7.6,17.94,18.6,34.1,32.18,47.68,13.58,13.58,29.74,24.57,47.68,32.17s37.65,11.8,58.33,11.8,40.39-4.2,58.33-11.8,34.11-18.59,47.69-32.17c13.58-13.58,24.58-29.74,32.18-47.68s11.81-37.65,11.81-58.33-4.21-40.39-11.81-58.33c-7.6-17.94-18.6-34.11-32.18-47.69-13.58-13.58-29.75-24.58-47.69-32.18" fill="none" stroke="#000" stroke-linecap="round" stroke-linejoin="round" stroke-width="25"/>
  <line x1="250" y1="250" x2="250" y2="86.39" fill="none" stroke="#000" stroke-linecap="round" stroke-linejoin="round" stroke-width="25"/>
</svg>