<?xml version="1.0" encoding="UTF-8"?>
<svg id="a" data-name="layer1" xmlns="http://www.w3.org/2000/svg" viewBox="0 0 500 500">
  <path d="M60.55,128.95l160.87,121.03-160.87,121.06v-242.09M272.42,128.95l160.84,121.05-160.84,121.03v-109.34c0-4.17-1.04-8.18-2.92-11.72,1.88-3.54,2.92-7.55,2.92-11.72v-109.3M262.12,93.63c-2.24,0-4.48.51-6.56,1.54-4.98,2.49-8.13,7.58-8.13,13.15v129.94L59.08,96.56c-2.6-1.94-5.71-2.93-8.84-2.93-2.24,0-4.48.51-6.56,1.54-4.98,2.49-8.13,7.58-8.13,13.15v283.37c0,5.57,3.15,10.66,8.13,13.15,2.08,1.03,4.32,1.55,6.56,1.55,3.13,0,6.24-.99,8.84-2.95l188.27-141.67s.05-.04.07-.06v129.98c0,5.57,3.15,10.66,8.13,13.15,2.08,1.03,4.32,1.55,6.56,1.55,3.13,0,6.24-.99,8.84-2.95l188.27-141.67c3.68-2.77,5.86-7.14,5.86-11.75s-2.17-8.97-5.86-11.75l-188.27-141.69c-2.6-1.94-5.71-2.93-8.84-2.93h0Z"/>
</svg>