<?xml version="1.0" encoding="UTF-8"?>
<svg id="a" data-name="layer1" xmlns="http://www.w3.org/2000/svg" viewBox="0 0 500 500">
  <path d="M43.679,95.165c4.985-2.468,10.935-1.933,15.403,1.397l188.339,141.692V108.311c0-5.568,3.148-10.658,8.132-13.146,4.985-2.468,10.935-1.933,15.403,1.397l188.266,141.692c3.683,2.775,5.855,7.137,5.855,11.749s-2.172,8.974-5.855,11.749l-188.266,141.673c-2.602,1.952-5.712,2.947-8.84,2.947-2.239,0-4.487-.517-6.563-1.55-4.985-2.487-8.132-7.577-8.132-13.145v-129.983c-.025.019-.048.04-.073.059L59.082,403.425c-2.602,1.952-5.712,2.947-8.84,2.947-2.239,0-4.487-.517-6.563-1.55-4.985-2.487-8.132-7.577-8.132-13.145V108.311c0-5.568,3.148-10.658,8.132-13.146Z" fill="#212121"/>
</svg>