<?xml version="1.0" encoding="UTF-8"?>
<svg id="a" data-name="layer1" xmlns="http://www.w3.org/2000/svg" viewBox="0 0 500 500">
  <path d="M359.195,237.237H118.95l67.05-66.787c4.882-4.882,4.882-12.796,0-17.677-4.882-4.882-12.796-4.882-17.678,0l-88.388,88.388c-.292.292-.568.598-.829.917-.117.142-.218.292-.327.438-.135.18-.275.357-.4.544-.119.177-.221.361-.33.543-.101.168-.206.333-.299.506-.099.185-.183.375-.272.564-.085.181-.176.359-.253.544-.076.184-.137.371-.204.557-.071.198-.147.394-.209.597-.057.187-.098.377-.145.565-.052.207-.11.41-.152.621-.043.219-.069.439-.101.659-.026.183-.061.364-.079.55-.081.82-.081,1.646,0,2.467.018.186.053.366.079.55.032.22.057.441.101.659.042.21.1.414.152.621.047.188.089.378.145.565.061.203.137.398.209.596.067.187.128.374.204.558.077.186.167.364.253.544.089.189.173.379.272.565.093.173.198.338.299.506.109.182.211.366.33.543.125.187.265.364.4.544.109.146.211.295.327.438.262.319.538.626.83.918l88.387,88.387c4.882,4.882,12.796,4.882,17.678,0,2.441-2.441,3.661-5.64,3.661-8.839s-1.22-6.398-3.661-8.839l-67.05-67.312h240.245c6.904.262,12.5-5.334,12.492-12.238v-.203c.008-6.904-5.589-12.5-12.492-12.559Z"/>
  <rect x="398.687" y="149.237" width="25" height="202" rx="12.5" ry="12.5"/>
</svg>