<?xml version="1.0" encoding="UTF-8"?>
<svg id="a" data-name="layer1" xmlns="http://www.w3.org/2000/svg" viewBox="0 0 500 500">
  <path d="M425.5,332.08c-.03-.22-.06-.44-.1-.66-.04-.21-.1-.41-.15-.62-.05-.19-.09-.38-.15-.57-.06-.2-.14-.4-.21-.6-.07-.19-.13-.37-.2-.56-.08-.19-.17-.36-.25-.54-.09-.19-.17-.38-.27-.56-.09-.17-.2-.34-.3-.51-.11-.18-.21-.37-.33-.54-.13-.19-.27-.37-.4-.55-.11-.15-.3-.4-.42-.54-.23-.28-.48-.55-.74-.8l-52.45-52.45c-5.1-5.1-13.5-4.87-18.31.68-4.19,4.83-3.71,12.66.81,17.18l30.93,30.93h-65.48l-71.25-71.25,71.25-71.25h65.48l-30.93,30.93c-4.52,4.52-5,12.35-.81,17.18,4.8,5.55,13.21,5.78,18.31.68l52.45-52.45c.26-.26.5-.53.74-.8.12-.14.3-.39.42-.54.14-.18.28-.36.4-.55.12-.18.22-.36.33-.54.1-.17.21-.33.3-.51.1-.19.18-.38.27-.56.09-.18.18-.36.25-.54.08-.18.14-.37.2-.56.07-.2.15-.39.21-.6.06-.19.1-.38.15-.57.05-.21.11-.41.15-.62.04-.22.07-.44.1-.66.03-.18.07-.48.09-.67.07-.74.07-1.49,0-2.23-.02-.18-.06-.48-.09-.66-.03-.22-.06-.44-.1-.66-.04-.21-.1-.41-.15-.62-.05-.19-.09-.38-.15-.57-.06-.2-.14-.4-.21-.6-.07-.19-.13-.37-.2-.56-.08-.19-.17-.36-.25-.54-.09-.19-.17-.38-.27-.56-.09-.17-.2-.34-.3-.51-.11-.18-.21-.37-.33-.54-.13-.19-.27-.37-.41-.55-.11-.15-.3-.4-.42-.55-.23-.28-.48-.54-.73-.8l-52.45-52.45c-4.88-4.88-12.8-4.88-17.68,0-2.44,2.44-3.66,5.64-3.66,8.84s1.22,6.4,3.66,8.84l31.11,31.11h-70.39s-.38-.07-.57,0h0c-.11-.07-.22-.07-.32-.06-4.11.11-7.72,2.19-9.92,5.34-4.07,4.07-7.15,7.15-7.15,7.15l-66.04,66.04-68.87-68.87s-3.96-3.96-8.84-8.84c-2.46-2.46-5.69-3.68-8.92-3.66-.02,0-.06-.09-.06-.09h-42.53s-12.24,0-12.24,0c-6.39,0-12.26,5.2-12.72,11.57-.53,7.32,5.26,13.43,12.47,13.43h42.56s3.07,0,7.46,0l74,74-74,74h-50.32c-5.32,0-10.95,4.16-12.3,9.31-2.23,8.53,4.14,16.19,12.3,16.19h55.33c.02-.31.04-.31.06-.31,3.23.02,6.46-1.2,8.92-3.66,4.88-4.88,8.84-8.84,8.84-8.84l68.87-68.87,66.04,66.04s3.08,3.08,7.15,7.15c2.2,3.15,5.81,5.23,9.92,5.34.11,0,.32.16.32.16h0c.19,0,.38,0,.57,0h70.39l-31.11,31.11c-2.44,2.44-3.66,5.64-3.66,8.84s1.22,6.4,3.66,8.84c4.88,4.88,12.8,4.88,17.68,0l52.45-52.45c.26-.26.5-.52.73-.8.12-.15.31-.4.42-.55.14-.18.28-.36.41-.55.12-.18.22-.36.33-.54.1-.17.21-.33.3-.51.1-.19.18-.38.27-.56.09-.18.18-.36.25-.54.08-.18.14-.37.2-.56.07-.2.15-.39.21-.6.06-.19.1-.38.15-.57.05-.21.11-.41.15-.62.04-.22.07-.44.1-.66.03-.18.07-.48.09-.66.07-.74.07-1.49,0-2.23-.02-.18-.06-.48-.09-.67Z"/>
</svg>