<?xml version="1.0" encoding="UTF-8"?>
<svg id="a" data-name="layer1" xmlns="http://www.w3.org/2000/svg" viewBox="0 0 500 500">
  <path d="M408.26,250.24v-.2c0-4.13-2-7.79-5.09-10.07l-86.71-86.76c-4.74-4.74-12.77-5.04-17.63-.43-5.12,4.86-5.19,12.95-.24,17.91l66.83,66.87c-28.55.02-73.06.06-115.42.09-42.36-.03-86.86-.07-115.42-.09l66.65-66.69c4.52-4.52,4.99-12.34.81-17.18-4.8-5.55-13.2-5.78-18.3-.68l-86.91,86.96c-3.09,2.28-5.09,5.94-5.09,10.07v.2s0,.03,0,.04c0,.2,0,.39.01.59,0,.13.02.26.03.39,0,.07,0,.14.02.21,0,0,0,0,0,0,.21,2.1.93,4.04,2.04,5.7,0,0,0,0,0,0h0c.22.33.46.66.71.97,0,0,0,.01.01.02,0,0,0,0,0,0,.25.31.52.6.8.88,0,0,.02.02.03.03l88.14,88.19c4.68,4.69,12.27,5.14,17.25.77,2.85-2.5,4.27-5.96,4.27-9.41,0-3.2-1.22-6.4-3.66-8.84l-67.01-67.05h231.2l-67.01,67.05c-2.44,2.44-3.66,5.64-3.66,8.84,0,3.46,1.42,6.91,4.27,9.41,4.98,4.37,12.57,3.91,17.25-.77l88.14-88.19s.02-.02.03-.03c.28-.28.55-.58.8-.88,0,0,0,0,0,0,0,0,0-.01.01-.02.25-.31.49-.63.71-.97h0s0,0,0,0c1.11-1.66,1.83-3.6,2.04-5.7,0,0,0,0,0,0,0-.07.01-.14.02-.21.01-.13.02-.26.03-.39.01-.21.02-.42.02-.63Z"/>
</svg>