<?xml version="1.0" encoding="UTF-8"?>
<svg id="a" data-name="layer1" xmlns="http://www.w3.org/2000/svg" viewBox="0 0 500 500">
  <path d="M200.71,348.05c-4.98,4.36-12.56,3.91-17.24-.77l-88.2-88.2c-.26-.26-.51-.53-.74-.81-.12-.14-.3-.39-.41-.54-.14-.18-.28-.36-.4-.55-.12-.18-.22-.36-.33-.54-.1-.17-.21-.33-.3-.51-.1-.19-.18-.38-.27-.56-.09-.18-.18-.36-.25-.54-.08-.18-.14-.37-.2-.56-.07-.2-.15-.39-.21-.6-.06-.19-.1-.38-.15-.57-.05-.21-.11-.41-.15-.62-.04-.22-.07-.44-.1-.67-.03-.18-.07-.48-.09-.67-.07-.74-.07-1.48,0-2.22.02-.18.06-.48.09-.67.03-.22.06-.44.1-.67.04-.21.1-.41.15-.62.05-.19.09-.38.15-.57.06-.2.14-.4.21-.6.07-.19.13-.37.2-.56.08-.19.17-.36.25-.54.09-.19.17-.38.27-.56.09-.17.2-.34.3-.51.11-.18.21-.37.33-.54.13-.19.27-.37.4-.55.11-.15.29-.4.41-.54.24-.28.48-.55.74-.81l88.21-88.21c4.52-4.52,12.35-5,17.18-.81,5.55,4.8,5.78,13.21.68,18.31l-67.05,67.05s254.6-.2,261.5-.2,12.5,5.6,12.5,12.5v.2c0,6.9-5.6,12.5-12.5,12.5H134.28s67.05,67.05,67.05,67.05c2.44,2.44,3.66,5.64,3.66,8.84,0,3.46-1.43,6.92-4.28,9.42Z"/>
</svg>