<?xml version="1.0" encoding="UTF-8"?>
<svg id="a" data-name="layer1" xmlns="http://www.w3.org/2000/svg" viewBox="0 0 500 500">
  <path d="M250,362.5c-20.678,0-37.5,16.823-37.5,37.501s16.822,37.499,37.5,37.499,37.5-16.822,37.5-37.5-16.822-37.5-37.5-37.5Z"/>
  <path d="M250,212.5c-20.678,0-37.5,16.823-37.5,37.501s16.822,37.499,37.5,37.499,37.5-16.822,37.5-37.5-16.822-37.5-37.5-37.5Z"/>
  <path d="M250,137.5c20.678,0,37.5-16.822,37.5-37.5s-16.822-37.5-37.5-37.5-37.5,16.823-37.5,37.501,16.822,37.499,37.5,37.499Z"/>
</svg>