<?xml version="1.0" encoding="UTF-8"?>
<svg id="a" data-name="layer1" xmlns="http://www.w3.org/2000/svg" viewBox="0 0 1000 1000">
  <path d="M816.52,500.47v-.41c0-8.26-4-15.58-10.17-20.13l-173.42-173.52c-9.47-9.48-25.54-10.09-35.25-.86-10.23,9.72-10.39,25.9-.47,35.82l133.66,133.74c-57.1.04-146.12.11-230.83.18-84.72-.07-173.73-.14-230.83-.18l133.3-133.38c9.04-9.04,9.98-24.68,1.62-34.35-9.6-11.1-26.41-11.56-36.6-1.36l-173.82,173.92c-6.17,4.55-10.18,11.87-10.18,20.13v.41s0,.05,0,.08c0,.39.01.78.03,1.17.01.26.04.52.06.79.01.14.02.29.03.43,0,0,0,0,0,.01.41,4.19,1.86,8.08,4.08,11.4,0,0,0,0,0,0h0c.45.67.92,1.31,1.43,1.93,0,.01.02.02.02.03,0,0,0,0,0,.01.5.61,1.04,1.2,1.59,1.76.02.02.04.04.05.06l176.28,176.38c9.37,9.37,24.54,10.28,34.5,1.54,5.7-5,8.55-11.91,8.55-18.83,0-6.4-2.44-12.8-7.32-17.68l-134.02-134.1h462.39l-134.02,134.1c-4.88,4.88-7.32,11.28-7.32,17.68,0,6.91,2.85,13.83,8.54,18.83,9.96,8.74,25.13,7.83,34.5-1.54l176.28-176.38s.03-.04.05-.06c.56-.56,1.09-1.15,1.6-1.77,0,0,0,0,0-.01,0-.01.02-.02.02-.03.51-.62.98-1.26,1.43-1.93h0s0,0,0,0c2.22-3.32,3.67-7.21,4.08-11.4,0,0,0,0,0-.01.01-.14.02-.29.03-.43.02-.26.04-.52.06-.79.02-.42.03-.83.03-1.25Z"/>
</svg>