<?xml version="1.0" encoding="UTF-8"?>
<svg id="a" data-name="layer1" xmlns="http://www.w3.org/2000/svg" viewBox="0 0 500 500">
  <path d="M385.03,362.42v50H110.81v-50h274.22M394.36,337.42H101.46c-8.65,0-15.66,7.01-15.66,15.66v68.69c0,8.65,7.01,15.66,15.66,15.66h292.91c8.65,0,15.66-7.01,15.66-15.66v-68.66c0-8.66-7.02-15.69-15.67-15.69h0Z"/>
  <path d="M257.46,83.86h0,0M250,93.76l132.21,175.69H117.77L250,93.76M250,62.58c-4.91,0-9.56,2.31-12.52,6.24l-150.95,200.56c-3.55,4.76-4.12,11.11-1.49,16.41,2.65,5.31,8.07,8.66,14,8.66h301.87c5.93,0,11.35-3.35,14-8.66,1.1-2.21,1.65-4.61,1.65-6.99,0-3.33-1.06-6.65-3.14-9.42l-150.93-200.56c-2.96-3.92-7.6-6.24-12.52-6.24h0Z"/>
</svg>