<?xml version="1.0" encoding="UTF-8"?>
<svg id="a" data-name="layer1" xmlns="http://www.w3.org/2000/svg" viewBox="0 0 1000 1000">
  <path d="M170.01,252.26c7.98-3.95,17.5-3.09,24.65,2.23l301.34,226.71v-207.91c0-8.91,5.04-17.05,13.01-21.03,7.98-3.95,17.5-3.09,24.65,2.23l301.23,226.71c5.89,4.44,9.37,11.42,9.37,18.8s-3.47,14.36-9.37,18.8l-301.23,226.68c-4.16,3.12-9.14,4.71-14.14,4.71-3.58,0-7.18-.83-10.5-2.48-7.98-3.98-13.01-12.12-13.01-21.03v-207.97s-.08.06-.12.09l-301.23,226.68c-4.16,3.12-9.14,4.71-14.14,4.71-3.58,0-7.18-.83-10.5-2.48-7.98-3.98-13.01-12.12-13.01-21.03v-453.38c0-8.91,5.04-17.05,13.01-21.03Z" fill="#212121"/>
</svg>