<?xml version="1.0" encoding="UTF-8"?>
<svg id="a" data-name="layer1" xmlns="http://www.w3.org/2000/svg" width="1000" height="1000" viewBox="0 0 1000 1000">
  <path d="M400.071,361.263l184.342,138.739-184.342,138.72v-277.459M378.863,300c-2.86,0-5.734.648-8.391,1.964-6.375,3.182-10.401,9.692-10.401,16.813v362.427c0,7.122,4.026,13.631,10.401,16.813,2.655,1.322,5.531,1.982,8.394,1.982,4.001,0,7.978-1.272,11.307-3.769l240.794-181.201c4.711-3.549,7.489-9.129,7.489-15.027s-2.778-11.478-7.489-15.027l-240.794-181.226c-3.332-2.483-7.308-3.751-11.31-3.751h0Z" fill="#000" stroke-width="0"/>
</svg>