<?xml version="1.0" encoding="UTF-8"?>
<svg id="a" data-name="layer1" xmlns="http://www.w3.org/2000/svg" viewBox="0 0 500 500">
  <path d="M394.04,301.92c0-11.27-3.44-20.4-10.32-27.41-6.88-7-15.47-10.5-25.78-10.5s-18.67,3.5-25.6,10.5c-6.92,7-10.38,16.1-10.38,27.29s3.48,19.94,10.44,26.74c6.96,6.8,15.68,10.2,26.14,10.2s19.1-3.4,25.66-10.2c6.56-6.8,9.84-15.68,9.84-26.62ZM389.33,193.13c0-9.74-2.9-17.47-8.69-23.18-5.8-5.71-13.36-8.57-22.7-8.57s-16.4,2.78-22.16,8.33c-5.76,5.55-8.63,13.32-8.63,23.3s2.92,18.05,8.75,24.21c5.84,6.16,13.38,9.24,22.64,9.24s16.7-3.08,22.34-9.24c5.63-6.16,8.45-14.19,8.45-24.09ZM439.92,304.94c0,15.45-3.56,28.55-10.69,39.3-7.12,10.75-16.8,18.9-29.04,24.45-12.23,5.55-26.12,8.33-41.65,8.33s-29.5-2.78-41.9-8.33c-12.4-5.55-22.24-13.68-29.52-24.39-7.28-10.71-10.93-23.83-10.93-39.36,0-14.01,3.4-26.1,10.2-36.28,6.8-10.18,15.92-18.09,27.35-23.72-9.9-5.39-17.71-12.68-23.42-21.85-5.72-9.18-8.57-19.92-8.57-32.24,0-14.81,3.3-27.25,9.9-37.31,6.6-10.06,15.68-17.67,27.23-22.82,11.55-5.15,24.69-7.73,39.42-7.73s28.09,2.58,39.6,7.73c11.51,5.15,20.55,12.76,27.11,22.82,6.56,10.06,9.84,22.5,9.84,37.31,0,12.32-2.88,23.08-8.63,32.3-5.76,9.22-13.58,16.52-23.48,21.91,11.43,5.63,20.49,13.54,27.17,23.72,6.68,10.18,10.02,22.24,10.02,36.16ZM109.82,285.98h58.44v-100.7l-5.43,10.5-53,90.19ZM246.38,285.98v39.96h-35.74v47.69h-42.38v-47.69H60.08v-31.27l102.75-168.31h47.81v159.62h35.74Z" fill-rule="evenodd"/>
</svg>