<?xml version="1.0" encoding="UTF-8"?>
<svg id="a" data-name="layer1" xmlns="http://www.w3.org/2000/svg" viewBox="0 0 500 500">
  <path d="M410.341,302.237H148.836l67.05-67.026c4.882-4.882,4.882-12.796,0-17.678-4.882-4.882-12.796-4.882-17.677,0l-88.388,88.388c-.292.291-.568.598-.829.917-.117.142-.218.292-.327.438-.135.18-.275.357-.4.544-.119.177-.221.361-.33.543-.1.168-.206.333-.299.506-.099.185-.183.375-.272.564-.085.181-.176.359-.253.544-.076.184-.137.371-.204.557-.071.198-.147.394-.209.597-.057.187-.098.377-.145.565-.052.207-.11.41-.152.621-.043.219-.069.439-.1.659-.026.183-.061.364-.079.55-.081.82-.081,1.646,0,2.467.018.186.053.366.079.55.031.22.057.44.1.659.042.21.1.414.152.621.047.188.089.378.145.565.062.203.137.399.209.597.067.186.128.374.204.558.077.186.167.363.253.544.089.189.173.379.272.565.093.173.199.338.299.506.109.182.211.365.33.543.125.188.265.364.4.544.109.146.211.295.327.438.262.319.538.626.83.918l88.387,88.387c4.882,4.882,12.796,4.882,17.677,0,2.441-2.441,3.661-5.64,3.661-8.839s-1.22-6.398-3.661-8.839l-67.05-67.073h261.505c6.904.024,12.5-5.573,12.306-12.476v-.203c.194-6.904-5.403-12.5-12.306-12.32Z"/>
  <path d="M284.102,264.787c-2.441,2.441-3.661,5.64-3.661,8.839,0,3.46,1.427,6.92,4.283,9.421,4.981,4.363,12.563,3.911,17.245-.771l88.198-88.198c.258-.258.503-.527.737-.806.121-.144.303-.392.415-.543.136-.182.278-.361.405-.55.119-.177.221-.361.33-.543.101-.168.206-.333.299-.506.099-.185.183-.376.272-.565.085-.181.176-.359.253-.544.076-.184.137-.371.204-.558.071-.198.147-.394.209-.596.056-.187.098-.377.145-.565.052-.207.11-.41.152-.621.044-.221.07-.444.102-.667.026-.184.074-.484.09-.669.065-.736.065-1.477,0-2.213-.016-.185-.064-.485-.09-.669-.032-.223-.058-.446-.102-.667-.042-.21-.1-.414-.152-.621-.047-.188-.089-.378-.145-.565-.062-.203-.137-.399-.209-.597-.067-.186-.128-.374-.204-.557-.077-.186-.167-.363-.253-.544-.089-.189-.173-.379-.272-.564-.093-.173-.198-.338-.299-.506-.109-.182-.211-.365-.33-.543-.126-.188-.265-.364-.4-.545-.112-.149-.292-.396-.411-.539-.237-.283-.485-.555-.745-.816l-88.207-88.207c-4.522-4.522-12.346-4.997-17.181-.811-5.55,4.805-5.775,13.21-.677,18.308l67.05,67.05s-254.601-.203-261.505-.203-12.5,5.596-12.5,12.5v.203c0,6.904,5.596,12.5,12.5,12.5h261.505l-67.05,67.05Z"/>
</svg>