<?xml version="1.0" encoding="UTF-8"?>
<svg id="a" data-name="layer1" xmlns="http://www.w3.org/2000/svg" viewBox="0 0 500 500">
  <path d="M456.32,94.72c-4.98-2.47-10.94-1.93-15.4,1.4l-188.34,141.69V107.86c0-5.57-3.15-10.66-8.13-13.15-4.98-2.47-10.94-1.93-15.4,1.4L40.78,237.81c-3.68,2.77-5.86,7.14-5.86,11.75s2.17,8.97,5.86,11.75l188.27,141.67c2.6,1.95,5.71,2.95,8.84,2.95,2.24,0,4.49-.52,6.56-1.55,4.98-2.49,8.13-7.58,8.13-13.15v-129.98s.05.04.07.06l188.27,141.67c2.6,1.95,5.71,2.95,8.84,2.95,2.24,0,4.49-.52,6.56-1.55,4.98-2.49,8.13-7.58,8.13-13.15V107.86c0-5.57-3.15-10.66-8.13-13.15Z" fill="#212121"/>
</svg>