<?xml version="1.0" encoding="UTF-8"?>
<svg id="c" data-name="レイヤー 4" xmlns="http://www.w3.org/2000/svg" viewBox="0 0 500 500">
  <path d="M276.381,101.473c-2.231-.987-4.642-1.473-7.043-1.473-3.357,0-6.694.951-9.491,2.813l-110.032,74.008v-16.881c0-6.903-5.597-12.5-12.5-12.5H57.315c-6.903,0-12.5,5.597-12.5,12.5v180c0,6.903,5.597,12.5,12.5,12.5h80c6.903,0,12.5-5.597,12.5-12.5v-16.766l110.032,73.999c2.793,1.872,6.13,2.827,9.489,2.827,2.403,0,4.816-.496,7.045-1.487,5.35-2.386,8.729-7.268,8.729-12.609V114.083c0-5.341-3.378-10.224-8.729-12.61ZM124.815,327.44h-55v-155h55v155ZM260.109,367.222l-110-73.977v-86.493l110-73.987v234.457Z"/>
  <path d="M339.129,200.367c-2.69-6.358-10.023-9.334-16.382-6.644-6.358,2.689-9.333,10.023-6.644,16.382,5.342,12.629,8.05,26.052,8.05,39.895s-2.708,27.266-8.05,39.894c-2.689,6.357.285,13.692,6.644,16.382,1.59.672,3.239.99,4.863.99,4.871,0,9.501-2.865,11.519-7.634,6.651-15.726,10.024-32.424,10.024-49.632s-3.373-33.906-10.024-49.633Z"/>
</svg>