<?xml version="1.0" encoding="UTF-8"?>
<svg id="a" data-name="layer1" xmlns="http://www.w3.org/2000/svg" viewBox="0 0 500 500">
  <path d="M198.75,118.75v262.5h-60V118.75h60M206.5,93.75h-75.5c-9.52,0-17.24,7.72-17.24,17.24v278.01c0,9.52,7.72,17.24,17.24,17.24h75.51c9.52,0,17.24-7.72,17.24-17.24V110.99c0-9.52-7.73-17.24-17.25-17.24h0Z"/>
  <path d="M361.25,118.75v262.5h-60V118.75h60M369,93.75h-75.5c-9.52,0-17.24,7.72-17.24,17.24v278.01c0,9.52,7.72,17.24,17.24,17.24h75.51c9.52,0,17.24-7.72,17.24-17.24V110.99c0-9.52-7.73-17.24-17.25-17.24h0Z"/>
</svg>