<?xml version="1.0" encoding="UTF-8"?>
<svg id="a" data-name="layer1" xmlns="http://www.w3.org/2000/svg" width="1000" height="1000" viewBox="0 0 1000 1000">
  <path d="M599.193,360.369v277.459l-184.342-138.72,184.342-138.739M620.4,299.105c-4.001,0-7.977,1.268-11.31,3.751l-240.794,181.226c-4.711,3.549-7.489,9.128-7.489,15.027s2.778,11.478,7.489,15.027l240.794,181.201c3.328,2.496,7.305,3.769,11.307,3.769,2.863,0,5.739-.661,8.394-1.982,6.375-3.182,10.401-9.692,10.401-16.813v-362.427c0-7.122-4.026-13.632-10.401-16.813-2.658-1.316-5.531-1.965-8.391-1.965h0Z" fill="#000" stroke-width="0"/>
</svg>