<?xml version="1.0" encoding="UTF-8"?>
<svg id="a" data-name="layer1" xmlns="http://www.w3.org/2000/svg" viewBox="0 0 500 500">
  <path d="M202.42,247.92c14.25-6.85,25.12-16.29,32.62-28.31,7.5-12.03,11.24-24.15,11.24-36.36,0-17.21-3.96-31.69-11.87-43.44-7.91-11.75-18.92-20.66-33.03-26.72-14.11-6.06-30.42-9.09-48.93-9.09-17.12,0-32.46,3.12-46.01,9.37-13.56,6.25-24.24,15.04-32.06,26.37-7.82,11.34-11.73,24.54-11.73,39.63h52.33c0-9.9,3.79-17.81,11.38-23.73,7.59-5.92,16.75-8.88,27.48-8.88,12.86,0,22.76,3.56,29.7,10.69,6.94,7.12,10.41,16.05,10.41,26.79,0,11.66-3.63,21.56-10.9,29.7-7.26,8.14-17.97,12.21-32.13,12.21h-25.96v46.5h25.96c14.34,0,25.82,3.03,34.42,9.09,8.61,6.06,12.91,16.63,12.91,31.72,0,11.94-4.12,21.44-12.35,28.52-8.24,7.08-19.06,10.62-32.48,10.62-12.03,0-21.88-3.31-29.56-9.92-7.68-6.62-11.52-15.2-11.52-25.75h-53.3c0,18.04,4.46,32.92,13.39,44.62,8.93,11.71,20.5,20.38,34.7,26.02,14.2,5.64,29.22,8.47,45.04,8.47,18.6,0,35.39-3.22,50.38-9.65,14.99-6.43,26.86-15.73,35.6-27.9,8.74-12.17,13.12-26.9,13.12-44.21,0-15.36-4.03-28.89-12.08-40.6-8.05-11.71-20.31-20.29-36.78-25.75Z" fill-rule="evenodd"/>
  <path d="M310.24,255.81l30.76-31.45c11.35-11.76,20.53-22.94,27.54-33.54,7.01-10.6,10.51-21.75,10.51-33.45,0-10.19-2.43-19.2-7.3-27.02-4.87-7.82-11.6-13.94-20.2-18.38-8.6-4.43-18.46-6.65-29.58-6.65-12.69,0-23.4,2.75-32.15,8.25-8.75,5.5-15.39,12.76-19.94,21.76-4.55,9.01-6.82,18.75-6.82,29.24h33.02c0-8.75,2.06-16.28,6.17-22.59,4.11-6.31,10.45-9.47,19.03-9.47,7.82,0,13.96,2.59,18.42,7.78,4.46,5.18,6.69,11.25,6.69,18.2,0,5.91-1.88,12.16-5.65,18.77-3.77,6.6-10.14,14.54-19.11,23.81l-59.25,59.78v24.85h121.38v-28.85h-73.5v-1.04Z" fill-rule="evenodd"/>
  <path d="M421.93,114.68c-.11.25-.51,1.31-1.2,3.16-.69,1.85-1.87,3.93-3.54,6.24-1.67,2.31-4.05,4.33-7.14,6.05-3.09,1.73-7.09,2.59-11.99,2.59v17.28c6.03,0,10.98-.74,14.83-2.21,3.85-1.47,6.36-3.21,7.52-5.21h.87v83.74h19.68v-111.66h-19.03Z" fill-rule="evenodd"/>
</svg>