<?xml version="1.0" encoding="UTF-8"?>
<svg id="a" data-name="layer1" xmlns="http://www.w3.org/2000/svg" viewBox="0 0 1000 1000">
  <path d="M793,327v346.4l-230.48-173.44,230.48-173.4M455,327v154.22c0,6.54,1.28,12.88,3.64,18.74-2.37,5.85-3.64,12.2-3.64,18.74v154.71l-230.43-173.4,230.43-173.42M819.49,249.81c-5,0-9.98,1.59-14.15,4.69l-301.34,226.71v-207.91c0-8.91-5.04-17.05-13.01-21.03-3.33-1.65-6.92-2.46-10.5-2.46-5,0-9.98,1.59-14.15,4.69l-301.23,226.71c-5.89,4.44-9.37,11.42-9.37,18.8s3.47,14.36,9.37,18.8l301.23,226.68c4.16,3.12,9.14,4.71,14.14,4.71,3.58,0,7.18-.83,10.5-2.48,7.98-3.98,13.01-12.12,13.01-21.03v-207.97s.08.06.12.09l301.23,226.68c4.16,3.12,9.14,4.71,14.14,4.71,3.58,0,7.18-.83,10.5-2.48,7.98-3.98,13.01-12.12,13.01-21.03v-453.38c0-8.91-5.04-17.05-13.01-21.03-3.33-1.65-6.92-2.46-10.5-2.46h0Z"/>
</svg>