<?xml version="1.0" encoding="UTF-8"?>
<svg id="a" data-name="layer1" xmlns="http://www.w3.org/2000/svg" viewBox="0 0 500 500">
  <path d="M338.34,294.95c-3.2,0-6.4,1.22-8.84,3.66l-67.05,67.05v-231.33l67.05,67.05c2.44,2.44,5.64,3.66,8.84,3.66,3.46,0,6.92-1.43,9.42-4.28,4.36-4.98,3.91-12.56-.77-17.24l-88.2-88.2c-.26-.26-.53-.51-.81-.74-.01-.01-.03-.02-.04-.04-.05-.04-.1-.08-.16-.12-.12-.09-.25-.19-.34-.26-.05-.04-.1-.07-.15-.11-.13-.09-.25-.19-.38-.28,0,0,0,0-.01-.01-.18-.12-.36-.22-.54-.33-.03-.02-.07-.04-.1-.06-.13-.08-.26-.16-.39-.23,0,0-.01,0-.02,0-.19-.1-.38-.18-.56-.27-.03-.01-.06-.03-.09-.04-.14-.07-.29-.14-.43-.2,0,0-.01,0-.02,0-.18-.08-.37-.14-.56-.2-.03-.01-.07-.02-.1-.04-.16-.06-.31-.12-.48-.17,0,0-.01,0-.02,0-.19-.06-.38-.1-.57-.15-.04-.01-.09-.02-.13-.03-.16-.04-.31-.08-.47-.12,0,0-.01,0-.02,0-.22-.04-.44-.07-.67-.1-.07,0-.16-.02-.25-.04-.11-.01-.21-.03-.32-.04-.03,0-.07,0-.09-.01-.37-.03-.74-.05-1.11-.05h-.2c-4.1,0-7.73,1.98-10.01,5.03l-86.84,86.84c-4.52,4.52-5,12.35-.81,17.18,4.8,5.55,13.21,5.78,18.31.68l66.87-66.87c.02,28.57.06,73.1.09,115.48-.03,42.38-.07,86.91-.09,115.48l-66.87-66.87c-5.1-5.1-13.5-4.87-18.31.68-4.19,4.83-3.71,12.66.81,17.18l86.84,86.84c2.28,3.05,5.91,5.03,10.01,5.03h.2c.37,0,.74-.02,1.11-.05.03,0,.06,0,.1-.01.11-.01.22-.03.32-.04.09-.01.18-.03.25-.04.22-.03.44-.06.67-.1,0,0,.01,0,.02,0,.16-.03.32-.08.48-.12.04-.01.08-.02.12-.03.19-.05.38-.09.56-.15,0,0,.01,0,.02,0,.16-.05.32-.11.48-.17.03-.01.07-.02.1-.03.19-.07.37-.13.56-.2,0,0,.01,0,.02,0,.15-.06.29-.13.43-.2.03-.01.06-.03.09-.04.19-.09.38-.17.56-.27,0,0,.01,0,.02,0,.13-.07.26-.15.39-.23.03-.02.07-.04.1-.06.18-.11.37-.21.54-.33,0,0,0,0,.01,0,.13-.09.26-.19.38-.28.05-.04.1-.07.15-.11.09-.07.22-.16.34-.26.05-.04.11-.08.16-.12.01-.01.03-.02.04-.03.28-.24.55-.48.81-.74l88.2-88.2c4.68-4.68,5.13-12.26.77-17.24-2.5-2.86-5.96-4.28-9.42-4.28Z"/>
</svg>