<?xml version="1.0" encoding="UTF-8"?>
<svg id="a" data-name="layer1" xmlns="http://www.w3.org/2000/svg" viewBox="0 0 500 500">
  <path d="M198.75,118.75v262.5h-60V118.75h60M206.495,93.75h-75.501c-9.524,0-17.244,7.72-17.244,17.244v278.012c0,9.524,7.72,17.244,17.244,17.244h75.512c9.524,0,17.244-7.72,17.244-17.244V110.995c0-9.521-7.729-17.245-17.255-17.245h0Z"/>
  <path d="M361.25,118.75v262.5h-60V118.75h60M368.995,93.75h-75.501c-9.524,0-17.244,7.72-17.244,17.244v278.012c0,9.524,7.72,17.244,17.244,17.244h75.512c9.524,0,17.244-7.72,17.244-17.244V110.995c0-9.521-7.729-17.245-17.255-17.245h0Z"/>
</svg>