<?xml version="1.0" encoding="UTF-8"?>
<svg id="a" data-name="layer1" xmlns="http://www.w3.org/2000/svg" viewBox="0 0 500 500">
  <path d="M414.433,200.838l-30.933,30.932v-19.093s0-12.501,0-12.501c0-39.11-31.705-70.815-70.815-70.815H119.821s-12.245,0-12.245,0c-6.394,0-12.263,5.196-12.722,11.574-.527,7.322,5.257,13.426,12.467,13.426h127.57s5.596,0,12.5,0h65.293c25.263,0,45.816,20.553,45.816,45.815v31.593s-31.113-31.113-31.113-31.113c-2.441-2.441-5.64-3.661-8.839-3.661-3.46,0-6.92,1.428-9.421,4.283-4.362,4.981-3.911,12.562.771,17.244l52.262,52.262c.26.259.531.506.812.742.143.12.391.301.541.413.181.136.358.276.547.402.177.118.361.221.543.33.168.101.333.206.506.299.185.099.376.183.564.272.181.085.359.176.544.252.184.076.371.137.558.204.198.071.394.147.597.209.187.056.376.098.565.145.207.052.41.11.621.152.22.043.442.069.663.101.183.026.482.074.666.09.741.066,1.487.066,2.228,0,.184-.016.482-.063.664-.09.221-.032.443-.058.663-.101.21-.042.414-.1.621-.152.188-.048.378-.089.565-.145.203-.062.399-.137.597-.209.186-.067.374-.128.557-.204.186-.077.364-.167.544-.253.189-.089.379-.173.564-.272.173-.093.338-.198.506-.299.182-.109.365-.211.543-.33.188-.126.365-.266.547-.402.15-.112.397-.293.54-.413.282-.236.553-.483.812-.742l52.452-52.452c5.098-5.098,4.872-13.503-.678-18.308-4.835-4.186-12.659-3.711-17.181.811Z"/>
  <path d="M399.742,346.34c-.551-.542-1.643-.979-2.415-.979h-174.738s-5.596,0-12.5,0h-22.772c-25.263,0-45.816-20.553-45.816-45.815v-31.593s31.113,31.113,31.113,31.113c2.441,2.441,5.64,3.661,8.839,3.661,6.616,0,13.231-5.22,13.142-15.657-.008-.899-.38-1.759-1.016-2.394l-55.738-55.739c-.318-.318-.654-.617-1.004-.9-.04-.032-.107-.081-.149-.111-.254-.177-.49-.375-.746-.547-.177-.118-.361-.221-.543-.33-.168-.101-.333-.206-.506-.299-.185-.099-.376-.183-.564-.272-.181-.085-.359-.176-.544-.252-.184-.076-.371-.137-.558-.204-.198-.071-.394-.147-.597-.209-.187-.056-.376-.098-.565-.145-.207-.052-.41-.11-.621-.152-.3-.059-.604-.085-.905-.14-.049-.009-.131-.022-.181-.027-.903-.098-1.814-.098-2.716,0-.05.005-.131.018-.18.027-.3.054-.604.08-.903.14-.21.042-.414.1-.621.152-.188.048-.378.089-.565.145-.203.062-.399.137-.597.209-.186.067-.374.128-.557.204-.186.077-.364.167-.544.253-.189.089-.379.173-.564.272-.173.093-.338.198-.506.299-.182.109-.365.211-.543.33-.256.172-.492.369-.746.546-.042.029-.109.078-.149.111-.351.283-.686.582-1.004.9l-55.738,55.738c-.546.546-1.009,1.628-1.016,2.4-.13,15.482,14.492,19.479,21.98,11.991l31.113-31.113v19.093s0,13.825,0,13.825c0,38.378,31.112,69.49,69.49,69.49h194.188s5.596,0,12.5,0c10.589,0,18.103-13.167,7.063-24.021Z"/>
</svg>