<?xml version="1.0" encoding="UTF-8"?>
<svg id="a" data-name="layer1" xmlns="http://www.w3.org/2000/svg" viewBox="0 0 500 500">
  <path d="M380.161,216.231c2.447,2.446,5.903,3.884,9.69,3.633,6.607-.437,11.649-6.118,11.649-12.739v-96.262c0-.365-.017-.731-.049-1.095-.016-.187-.064-.49-.09-.676-.032-.225-.059-.45-.103-.673-.042-.209-.099-.412-.151-.617-.048-.19-.089-.381-.146-.569-.061-.201-.136-.395-.207-.592-.067-.188-.129-.378-.206-.563-.076-.184-.166-.36-.25-.539-.09-.19-.174-.383-.274-.57-.092-.172-.197-.335-.297-.502-.109-.183-.212-.368-.332-.546-.125-.186-.264-.361-.398-.541-.111-.148-.289-.393-.407-.535-.474-.567-.998-1.092-1.565-1.567-.143-.12-.389-.299-.538-.411-.181-.135-.358-.276-.546-.401-.178-.119-.363-.222-.546-.332-.167-.1-.33-.205-.502-.297-.187-.1-.379-.185-.57-.274-.179-.084-.354-.174-.538-.25-.186-.077-.375-.139-.563-.206-.197-.071-.391-.146-.591-.207-.188-.057-.379-.098-.569-.146-.206-.052-.408-.109-.617-.151-.223-.044-.448-.07-.673-.103-.186-.027-.489-.074-.676-.09-.364-.032-.73-.049-1.095-.049h-124.745c-6.395,0-12.263,5.196-12.722,11.575-.527,7.322,5.257,13.425,12.467,13.425h94.821l-108.831,108.831-121.325-121.325-8.641-8.641c-4.734-4.734-12.765-5.037-17.622-.429-5.119,4.857-5.2,12.946-.241,17.904l130.159,130.159-121.325,121.325s-3.849,3.849-8.638,8.638c-4.733,4.734-5.039,12.768-.432,17.625,4.857,5.119,12.946,5.2,17.904.242l130.159-130.159,108.831,108.831h-94.821c-3.452,0-6.577,1.399-8.839,3.661-2.447,2.446-3.884,5.903-3.633,9.69.437,6.607,6.118,11.649,12.74,11.649h124.732c.365,0,.729-.017,1.093-.049.187-.016.491-.064.677-.09.225-.032.451-.059.675-.103.209-.042.412-.099.617-.151.19-.048.381-.089.569-.146.201-.061.395-.136.592-.207.188-.067.378-.129.563-.206.184-.076.36-.166.539-.25.19-.09.383-.174.57-.274.172-.092.335-.197.502-.297.183-.109.368-.212.546-.332.186-.125.362-.264.541-.398.148-.111.393-.289.535-.408.569-.476,1.095-1.002,1.571-1.57.119-.142.297-.388.409-.536.134-.18.274-.355.399-.542.119-.178.222-.363.332-.546.1-.167.205-.331.297-.502.1-.187.185-.379.274-.57.084-.179.174-.355.25-.538.077-.186.139-.375.206-.563.071-.197.146-.391.207-.591.057-.188.098-.379.146-.569.052-.205.109-.408.151-.617.044-.223.071-.448.103-.673.027-.186.074-.489.09-.676.032-.364.049-.729.049-1.095v-96.397c0-6.395-5.197-12.264-11.576-12.722-7.322-.526-13.424,5.257-13.424,12.467v66.476l-108.885-108.883,108.885-108.884v66.476c0,3.452,1.399,6.577,3.661,8.839Z"/>
</svg>