<?xml version="1.0" encoding="UTF-8"?>
<svg id="a" data-name="layer1" xmlns="http://www.w3.org/2000/svg" viewBox="0 0 500 500">
  <path d="M206.51,93.75h-75.51c-9.52,0-17.24,7.72-17.24,17.24v278.01c0,9.52,7.72,17.24,17.24,17.24h75.51c9.52,0,17.24-7.72,17.24-17.24V110.99c0-9.52-7.72-17.24-17.24-17.24Z" fill="#212121"/>
  <path d="M369.01,93.75h-75.51c-9.52,0-17.24,7.72-17.24,17.24v278.01c0,9.52,7.72,17.24,17.24,17.24h75.51c9.52,0,17.24-7.72,17.24-17.24V110.99c0-9.52-7.72-17.24-17.24-17.24Z" fill="#212121"/>
</svg>