<?xml version="1.0" encoding="UTF-8"?>
<svg id="a" data-name="layer1" xmlns="http://www.w3.org/2000/svg" viewBox="0 0 500 500">
  <path d="M250,412.5c-21.9,0-43.16-4.3-63.21-12.79-19.34-8.19-36.72-19.92-51.65-34.84-14.93-14.93-26.65-32.3-34.85-51.65-8.49-20.04-12.8-41.31-12.8-63.21s4.31-43.17,12.8-63.21c8.2-19.34,19.92-36.72,34.85-51.65,14.93-14.93,32.3-26.66,51.65-34.85,6.35-2.69,13.69.28,16.39,6.63,2.69,6.36-.28,13.69-6.63,16.39-16.37,6.94-31.08,16.86-43.72,29.51-12.64,12.65-22.57,27.36-29.51,43.73-7.18,16.94-10.82,34.93-10.82,53.46s3.64,36.51,10.82,53.45c6.93,16.37,16.86,31.08,29.5,43.72,12.64,12.64,27.35,22.57,43.72,29.5,16.94,7.18,34.92,10.81,53.45,10.81s36.52-3.64,53.46-10.81c16.37-6.93,31.08-16.86,43.73-29.5,12.65-12.64,22.57-27.35,29.51-43.72,7.18-16.94,10.82-34.92,10.82-53.45s-3.64-36.52-10.82-53.46c-6.94-16.37-16.86-31.08-29.51-43.73-12.64-12.65-27.36-22.57-43.73-29.51-6.36-2.69-9.33-10.03-6.63-16.39,2.69-6.36,10.03-9.33,16.39-6.63,19.34,8.2,36.72,19.92,51.65,34.85s26.65,32.31,34.85,51.65c8.49,20.04,12.8,41.31,12.8,63.21s-4.31,43.17-12.8,63.21c-8.2,19.34-19.92,36.72-34.85,51.64-14.93,14.93-32.31,26.65-51.65,34.84-20.04,8.49-41.31,12.79-63.21,12.79Z"/>
  <path d="M250,262.5c-6.9,0-12.5-5.6-12.5-12.5V86.39c0-6.9,5.6-12.5,12.5-12.5s12.5,5.6,12.5,12.5v163.61c0,6.9-5.6,12.5-12.5,12.5Z"/>
</svg>