<?xml version="1.0" encoding="UTF-8"?>
<svg id="a" data-name="layer1" xmlns="http://www.w3.org/2000/svg" viewBox="0 0 500 500">
  <path d="M408.26,250.237v-.203c0-4.129-2.002-7.79-5.087-10.066l-86.711-86.76c-4.735-4.738-12.771-5.043-17.627-.429-5.115,4.86-5.194,12.949-.237,17.909l66.83,66.868c-28.552.021-73.058.056-115.417.09-42.359-.033-86.864-.068-115.417-.09l66.651-66.69c4.518-4.52,4.991-12.341.811-17.175-4.802-5.552-13.204-5.779-18.3-.68l-86.908,86.958c-3.085,2.276-5.088,5.937-5.088,10.066v.203c0,.013,0,.027.001.04,0,.196.005.391.015.586.006.132.018.262.029.393.006.072.009.143.016.214,0,.002,0,.004,0,.007.206,2.095.93,4.038,2.041,5.7,0,0,0,0,0,0h0c.223.333.461.655.714.965.004.005.008.011.012.017.002.002.003.003.005.005.252.307.518.601.797.882.01.01.018.021.027.03l88.141,88.191c4.683,4.685,12.272,5.141,17.25.771,2.848-2.5,4.273-5.957,4.273-9.414,0-3.199-1.22-6.398-3.659-8.839l-67.011-67.05h231.197l-67.011,67.05c-2.439,2.441-3.659,5.64-3.659,8.839,0,3.457,1.424,6.913,4.272,9.414,4.978,4.37,12.567,3.915,17.25-.771l88.141-88.191c.009-.01.017-.02.027-.03.28-.281.546-.576.798-.883.002-.002.003-.003.005-.005.004-.005.008-.011.012-.017.253-.31.491-.632.714-.965h0s0,0,0,0c1.111-1.662,1.834-3.605,2.041-5.7,0-.002,0-.005,0-.007.007-.071.01-.143.016-.214.01-.131.022-.261.029-.393.01-.209.016-.417.016-.626Z"/>
</svg>