<?xml version="1.0" encoding="UTF-8"?>
<svg id="a" data-name="layer1" xmlns="http://www.w3.org/2000/svg" viewBox="0 0 500 500">
  <path d="M299.077,348.047c4.981,4.362,12.563,3.91,17.245-.772l88.198-88.198c.259-.259.506-.53.741-.811.12-.144.301-.391.414-.541.136-.182.276-.359.403-.548.119-.177.221-.361.33-.543.101-.168.206-.333.299-.506.099-.185.183-.376.272-.565.085-.181.176-.359.253-.544.076-.184.137-.371.204-.558.071-.198.147-.394.209-.597.056-.187.098-.377.145-.565.052-.207.11-.41.152-.621.044-.221.069-.443.101-.665.026-.183.074-.483.09-.668.065-.738.065-1.481,0-2.219-.016-.185-.064-.484-.09-.668-.032-.222-.058-.445-.101-.665-.042-.21-.1-.414-.152-.621-.047-.189-.089-.378-.145-.565-.061-.203-.137-.399-.209-.597-.067-.186-.128-.374-.204-.557-.077-.186-.167-.363-.253-.544-.089-.189-.173-.379-.272-.564-.093-.173-.199-.338-.299-.506-.109-.182-.211-.366-.33-.543-.126-.188-.267-.366-.402-.547-.112-.15-.293-.397-.413-.541-.235-.281-.482-.552-.741-.811l-88.207-88.207c-4.522-4.522-12.346-4.997-17.181-.811-5.55,4.805-5.775,13.21-.678,18.308l67.05,67.05s-254.601-.203-261.505-.203-12.5,5.596-12.5,12.5v.203c0,6.904,5.596,12.5,12.5,12.5h261.505s-67.05,67.05-67.05,67.05c-2.441,2.441-3.661,5.64-3.661,8.839,0,3.46,1.428,6.92,4.284,9.421Z"/>
</svg>