<?xml version="1.0" encoding="UTF-8"?>
<svg id="a" data-name="layer1" xmlns="http://www.w3.org/2000/svg" viewBox="0 0 500 500">
  <path d="M165.751,129.086l160.661,120.917-160.661,120.9v-241.816M155.433,93.75c-2.235,0-4.479.507-6.556,1.535-4.981,2.486-8.126,7.572-8.126,13.135v283.146c0,5.564,3.145,10.65,8.126,13.135,2.074,1.033,4.321,1.549,6.558,1.549,3.126,0,6.233-.994,8.833-2.945l188.12-141.563c3.681-2.773,5.851-7.132,5.851-11.74s-2.17-8.967-5.851-11.74L164.269,96.68c-2.603-1.94-5.71-2.93-8.836-2.93h0Z"/>
</svg>