<?xml version="1.0" encoding="UTF-8"?>
<svg id="a" data-name="layer1" xmlns="http://www.w3.org/2000/svg" viewBox="0 0 500 500">
  <path d="M268.04,120.271c6.904,0,12.5-5.597,12.5-12.5s-5.596-12.5-12.5-12.5H98.65c-6.903,0-12.5,5.597-12.5,12.5v280.7c0,6.903,5.597,12.5,12.5,12.5s12.5-5.597,12.5-12.5v-147.069h109.371c6.903,0,12.5-5.597,12.5-12.5s-5.597-12.5-12.5-12.5h-109.371v-96.131h156.891Z"/>
  <path d="M356.44,309.773l54.993-75.068c4.08-5.568,2.873-13.391-2.696-17.471-5.57-4.078-13.392-2.872-17.471,2.697l-50.321,68.69-50.321-68.69c-4.08-5.569-11.901-6.776-17.471-2.697-5.569,4.08-6.776,11.902-2.696,17.471l54.993,75.068-54.993,75.068c-4.08,5.568-2.873,13.391,2.696,17.471,2.227,1.631,4.813,2.417,7.377,2.417,3.849,0,7.646-1.771,10.094-5.114l50.321-68.69,50.321,68.69c2.449,3.343,6.245,5.114,10.094,5.114,2.563,0,5.15-.786,7.377-2.417,5.569-4.08,6.776-11.902,2.696-17.471l-54.993-75.068Z"/>
</svg>