<?xml version="1.0" encoding="UTF-8"?>
<svg id="c" data-name="レイヤー 4" xmlns="http://www.w3.org/2000/svg" viewBox="0 0 500 500">
  <path d="M361.42,101.47c-2.23-.99-4.64-1.47-7.04-1.47-3.36,0-6.69.95-9.49,2.81l-110.03,74.01v-16.88c0-6.9-5.6-12.5-12.5-12.5h-80c-6.9,0-12.5,5.6-12.5,12.5v180c0,6.9,5.6,12.5,12.5,12.5h80c6.9,0,12.5-5.6,12.5-12.5v-16.77l110.03,74c2.79,1.87,6.13,2.83,9.49,2.83,2.4,0,4.82-.5,7.04-1.49,5.35-2.39,8.73-7.27,8.73-12.61V114.08c0-5.34-3.38-10.22-8.73-12.61ZM209.85,327.44h-55v-155h55v155ZM345.15,367.22l-110-73.98v-86.49l110-73.99v234.46Z"/>
</svg>