<?xml version="1.0" encoding="UTF-8"?>
<svg id="a" data-name="layer1" xmlns="http://www.w3.org/2000/svg" viewBox="0 0 500 500">
  <path d="M419.032,60H90.4c-16.79,0-30.4,13.61-30.4,30.4v319.2c0,16.79,13.61,30.4,30.4,30.4h319.2c16.79,0,30.4-13.611,30.4-30.4V80.97c0-11.577-9.392-20.97-20.968-20.97ZM415,409.6c0,2.978-2.422,5.4-5.4,5.4H90.4c-2.978,0-5.4-2.423-5.4-5.4V90.4c0-2.978,2.422-5.4,5.4-5.4h324.6v324.6Z"/>
  <path d="M145.009,262.5h92.491v92.492c0,6.903,5.597,12.5,12.5,12.5s12.5-5.597,12.5-12.5v-92.492h92.491c6.903,0,12.5-5.597,12.5-12.5s-5.597-12.5-12.5-12.5h-92.491v-92.491c0-6.903-5.597-12.5-12.5-12.5s-12.5,5.597-12.5,12.5v92.491h-92.491c-6.903,0-12.5,5.597-12.5,12.5s5.597,12.5,12.5,12.5Z"/>
</svg>