<?xml version="1.0" encoding="UTF-8"?>
<svg id="a" data-name="layer1" xmlns="http://www.w3.org/2000/svg" viewBox="0 0 500 500">
  <path d="M425.503,332.082c-.032-.222-.058-.443-.101-.663-.042-.21-.1-.414-.152-.621-.047-.188-.089-.378-.145-.565-.062-.203-.138-.399-.209-.597-.067-.186-.128-.374-.204-.557-.077-.186-.167-.363-.253-.544-.089-.189-.173-.379-.271-.564-.093-.173-.199-.338-.299-.506-.108-.182-.211-.366-.33-.543-.127-.189-.268-.367-.404-.55-.113-.151-.295-.4-.416-.545-.234-.279-.479-.548-.736-.805l-52.451-52.451c-5.098-5.098-13.504-4.872-18.308.678-4.185,4.835-3.71,12.659.812,17.181l30.932,30.932h-65.48l-71.25-71.25,71.25-71.25h65.48l-30.932,30.932c-4.522,4.522-4.997,12.346-.812,17.181,4.804,5.55,13.21,5.776,18.308.678l52.451-52.451c.257-.257.502-.526.736-.805.121-.145.303-.394.416-.545.137-.182.277-.36.404-.55.119-.177.221-.361.33-.543.101-.168.207-.333.299-.506.099-.185.183-.375.271-.564.085-.181.176-.359.253-.544.076-.184.137-.371.204-.557.071-.198.147-.394.209-.597.056-.187.098-.377.145-.565.052-.207.11-.41.152-.621.043-.22.069-.442.101-.663.026-.183.073-.482.09-.667.066-.741.066-1.487,0-2.228-.016-.184-.063-.482-.09-.664-.032-.221-.058-.443-.101-.663-.042-.21-.1-.414-.152-.621-.047-.188-.089-.378-.145-.565-.062-.203-.138-.398-.209-.596-.067-.187-.128-.374-.204-.558-.077-.186-.167-.364-.252-.544-.089-.189-.173-.379-.272-.565-.093-.173-.199-.338-.299-.506-.108-.182-.211-.366-.33-.543-.127-.19-.269-.369-.406-.553-.114-.152-.297-.402-.419-.547-.233-.277-.476-.544-.732-.8l-52.451-52.45c-4.881-4.882-12.796-4.882-17.677,0-2.441,2.441-3.662,5.64-3.662,8.839s1.221,6.398,3.662,8.839l31.113,31.113h-70.388s-.377-.073-.565,0h-.002c-.108-.066-.217-.065-.325-.06-4.107.106-7.72,2.19-9.921,5.338-4.072,4.072-7.147,7.147-7.147,7.147l-66.036,66.036-68.875-68.875s-3.957-3.957-8.839-8.839c-2.461-2.461-5.692-3.679-8.917-3.659-.021,0-.064-.088-.064-.088h-42.53s-12.245,0-12.245,0c-6.394,0-12.263,5.196-12.722,11.574-.527,7.322,5.257,13.426,12.467,13.426h42.559s3.068,0,7.46,0l74,74-74,74h-50.319c-5.318,0-10.951,4.161-12.299,9.306-2.234,8.525,4.137,16.194,12.299,16.194h55.33c.021-.309.043-.31.064-.31,3.225.02,6.457-1.199,8.917-3.659,4.882-4.882,8.839-8.839,8.839-8.839l68.875-68.875,66.036,66.036s3.075,3.075,7.147,7.147c2.201,3.148,5.814,5.232,9.921,5.338.108.005.325.162.325.162h.002c.188.004.377.004.565,0h70.388l-31.113,31.113c-2.441,2.441-3.662,5.64-3.662,8.839s1.221,6.398,3.662,8.839c4.881,4.882,12.796,4.882,17.677,0l52.451-52.45c.256-.256.499-.523.732-.8.122-.145.305-.395.419-.547.137-.183.279-.363.406-.553.119-.177.221-.361.33-.543.101-.168.207-.333.299-.506.099-.185.183-.376.272-.565.085-.181.175-.359.252-.544.076-.184.137-.371.204-.558.071-.198.147-.394.209-.596.056-.187.098-.377.145-.565.052-.207.11-.411.152-.621.043-.22.069-.441.101-.663.026-.183.073-.481.09-.664.066-.741.066-1.487,0-2.228-.016-.184-.063-.484-.09-.667Z"/>
</svg>