<?xml version="1.0" encoding="UTF-8"?>
<svg id="a" data-name="layer1" xmlns="http://www.w3.org/2000/svg" width="1000" height="1000" viewBox="0 0 1000 1000">
  <path d="M620.936,637.803v22.197h-251.777v-22.197h251.777M644.905,597.803h-299.715c-8.85,0-16.031,7.18-16.031,16.031v70.135c0,8.85,7.181,16.031,16.031,16.031h299.715c8.85,0,16.031-7.181,16.031-16.031v-70.135c0-8.851-7.181-16.031-16.031-16.031h0Z" fill="#000" stroke-width="0"/>
  <path d="M517.301,330.536h.005-.005M498.166,355.96l106.526,141.559h-213.065l106.54-141.559M498.168,300.082c-5.031,0-9.79,2.369-12.816,6.387l-154.569,205.375c-3.632,4.874-4.216,11.376-1.524,16.803,2.714,5.438,8.266,8.872,14.34,8.872h309.117c6.074,0,11.627-3.434,14.34-8.872,1.127-2.265,1.691-4.717,1.691-7.159,0-3.413-1.085-6.805-3.214-9.644l-154.548-205.375c-3.027-4.018-7.786-6.387-12.816-6.387h0Z" fill="#000" stroke-width="0"/>
</svg>