<?xml version="1.0" encoding="UTF-8"?>
<svg id="a" data-name="layer1" xmlns="http://www.w3.org/2000/svg" viewBox="0 0 1000 1000">
  <defs>
    <style>
      .d {
        fill: #212121;
      }
    </style>
  </defs>
  <path class="d" d="M830.36,251.56c-7.97-3.95-17.48-3.09-24.63,2.23l-301.11,226.53v-207.75c0-8.9-5.03-17.04-13-21.02-7.97-3.95-17.48-3.09-24.63,2.23l-300.99,226.53c-5.89,4.44-9.36,11.41-9.36,18.78s3.47,14.35,9.36,18.78l300.99,226.5c4.16,3.12,9.13,4.71,14.13,4.71,3.58,0,7.17-.83,10.49-2.48,7.97-3.98,13-12.11,13-21.02v-207.81s.08.06.12.09l300.99,226.5c4.16,3.12,9.13,4.71,14.13,4.71,3.58,0,7.17-.83,10.49-2.48,7.97-3.98,13-12.11,13-21.02v-453.03c0-8.9-5.03-17.04-13-21.02Z"/>
</svg>