<?xml version="1.0" encoding="UTF-8"?>
<svg id="a" data-name="layer1" xmlns="http://www.w3.org/2000/svg" viewBox="0 0 1000 1000">
  <path d="M760.32,432.46c4.89,4.89,11.81,7.77,19.38,7.27,13.21-.87,23.3-12.24,23.3-25.48v-192.52c0-.73-.03-1.46-.1-2.19-.03-.37-.13-.98-.18-1.35-.06-.45-.12-.9-.21-1.35-.08-.42-.2-.82-.3-1.23-.1-.38-.18-.76-.29-1.14-.12-.4-.27-.79-.41-1.18-.13-.38-.26-.76-.41-1.13-.15-.37-.33-.72-.5-1.08-.18-.38-.35-.77-.55-1.14-.18-.34-.39-.67-.59-1-.22-.37-.42-.74-.66-1.09-.25-.37-.53-.72-.8-1.08-.22-.3-.58-.79-.81-1.07-.95-1.13-2-2.18-3.13-3.13-.29-.24-.78-.6-1.08-.82-.36-.27-.72-.55-1.09-.8-.36-.24-.73-.44-1.09-.66-.33-.2-.66-.41-1-.59-.37-.2-.76-.37-1.14-.55-.36-.17-.71-.35-1.08-.5-.37-.15-.75-.28-1.13-.41-.39-.14-.78-.29-1.18-.41-.38-.11-.76-.2-1.14-.29-.41-.1-.82-.22-1.23-.3-.45-.09-.9-.14-1.35-.21-.37-.05-.98-.15-1.35-.18-.73-.06-1.46-.1-2.19-.1h-249.49c-12.79,0-24.53,10.39-25.44,23.15-1.05,14.64,10.51,26.85,24.93,26.85h189.64l-217.66,217.66-242.65-242.65-17.28-17.28c-9.47-9.47-25.53-10.07-35.24-.86-10.24,9.71-10.4,25.89-.48,35.81l260.32,260.32-242.65,242.65s-7.7,7.7-17.28,17.28c-9.47,9.47-10.08,25.54-.86,35.25,9.71,10.24,25.89,10.4,35.81.48l260.32-260.32,217.66,217.66h-189.64c-6.9,0-13.15,2.8-17.68,7.32-4.89,4.89-7.77,11.81-7.27,19.38.87,13.21,12.24,23.3,25.48,23.3h249.46c.73,0,1.46-.03,2.19-.1.37-.03.98-.13,1.35-.18.45-.06.9-.12,1.35-.21.42-.08.82-.2,1.23-.3.38-.1.76-.18,1.14-.29.4-.12.79-.27,1.18-.41.38-.13.76-.26,1.13-.41.37-.15.72-.33,1.08-.5.38-.18.77-.35,1.14-.55.34-.18.67-.39,1-.59.37-.22.74-.42,1.09-.66.37-.25.72-.53,1.08-.8.3-.22.79-.58,1.07-.82,1.14-.95,2.19-2,3.14-3.14.24-.28.59-.78.82-1.07.27-.36.55-.71.8-1.08.24-.36.44-.73.66-1.09.2-.33.41-.66.59-1,.2-.37.37-.76.55-1.14.17-.36.35-.71.5-1.08.15-.37.28-.75.41-1.13.14-.39.29-.78.41-1.18.11-.38.2-.76.29-1.14.1-.41.22-.82.3-1.23.09-.45.14-.9.21-1.35.05-.37.15-.98.18-1.35.06-.73.1-1.46.1-2.19v-192.79c0-12.79-10.39-24.53-23.15-25.44-14.64-1.05-26.85,10.51-26.85,24.93v132.95l-217.77-217.77,217.77-217.77v132.95c0,6.9,2.8,13.15,7.32,17.68Z"/>
</svg>