<?xml version="1.0" encoding="UTF-8"?>
<svg id="a" data-name="layer1" xmlns="http://www.w3.org/2000/svg" viewBox="0 0 500 500">
  <path d="M206.506,93.75h-75.512c-9.524,0-17.244,7.72-17.244,17.244v278.012c0,9.524,7.72,17.244,17.244,17.244h75.512c9.524,0,17.244-7.72,17.244-17.244V110.994c0-9.524-7.72-17.244-17.244-17.244Z" fill="#212121"/>
  <path d="M369.006,93.75h-75.512c-9.524,0-17.244,7.72-17.244,17.244v278.012c0,9.524,7.72,17.244,17.244,17.244h75.512c9.524,0,17.244-7.72,17.244-17.244V110.994c0-9.524-7.72-17.244-17.244-17.244Z" fill="#212121"/>
</svg>