<?xml version="1.0" encoding="UTF-8"?>
<svg id="a" data-name="layer1" xmlns="http://www.w3.org/2000/svg" viewBox="0 0 500 500">
  <path d="M456.321,94.718c-4.985-2.468-10.935-1.933-15.403,1.397l-188.339,141.692V107.863c0-5.568-3.148-10.658-8.132-13.146-4.985-2.468-10.935-1.933-15.403,1.397L40.776,237.807c-3.683,2.775-5.855,7.137-5.855,11.749s2.172,8.974,5.855,11.749l188.266,141.673c2.602,1.952,5.712,2.947,8.84,2.947,2.239,0,4.487-.517,6.563-1.55,4.985-2.487,8.132-7.577,8.132-13.145v-129.983c.025.019.048.04.073.059l188.266,141.673c2.602,1.952,5.712,2.947,8.84,2.947,2.239,0,4.487-.517,6.563-1.55,4.985-2.487,8.132-7.577,8.132-13.145V107.863c0-5.568-3.148-10.658-8.132-13.146Z" fill="#212121"/>
</svg>