<?xml version="1.0" encoding="UTF-8"?>
<svg id="a" data-name="layer1" xmlns="http://www.w3.org/2000/svg" viewBox="0 0 500 500">
  <path d="M410.34,302.24H148.84l67.05-67.03c4.88-4.88,4.88-12.8,0-17.68-4.88-4.88-12.8-4.88-17.68,0l-88.39,88.39c-.29.29-.57.6-.83.92-.12.14-.22.29-.33.44-.14.18-.27.36-.4.54-.12.18-.22.36-.33.54-.1.17-.21.33-.3.51-.1.19-.18.38-.27.56-.09.18-.18.36-.25.54-.08.18-.14.37-.2.56-.07.2-.15.39-.21.6-.06.19-.1.38-.15.57-.05.21-.11.41-.15.62-.04.22-.07.44-.1.66-.03.18-.06.36-.08.55-.08.82-.08,1.65,0,2.47.02.19.05.37.08.55.03.22.06.44.1.66.04.21.1.41.15.62.05.19.09.38.15.57.06.2.14.4.21.6.07.19.13.37.2.56.08.19.17.36.25.54.09.19.17.38.27.56.09.17.2.34.3.51.11.18.21.37.33.54.13.19.26.36.4.54.11.15.21.3.33.44.26.32.54.63.83.92l88.39,88.39c4.88,4.88,12.8,4.88,17.68,0,2.44-2.44,3.66-5.64,3.66-8.84s-1.22-6.4-3.66-8.84l-67.05-67.07h261.5c6.9.02,12.5-5.57,12.31-12.48v-.2c.19-6.9-5.4-12.5-12.31-12.32Z"/>
  <path d="M284.1,264.79c-2.44,2.44-3.66,5.64-3.66,8.84,0,3.46,1.43,6.92,4.28,9.42,4.98,4.36,12.56,3.91,17.25-.77l88.2-88.2c.26-.26.5-.53.74-.81.12-.14.3-.39.42-.54.14-.18.28-.36.4-.55.12-.18.22-.36.33-.54.1-.17.21-.33.3-.51.1-.19.18-.38.27-.56.09-.18.18-.36.25-.54.08-.18.14-.37.2-.56.07-.2.15-.39.21-.6.06-.19.1-.38.15-.57.05-.21.11-.41.15-.62.04-.22.07-.44.1-.67.03-.18.07-.48.09-.67.07-.74.07-1.48,0-2.21-.02-.19-.06-.49-.09-.67-.03-.22-.06-.45-.1-.67-.04-.21-.1-.41-.15-.62-.05-.19-.09-.38-.15-.57-.06-.2-.14-.4-.21-.6-.07-.19-.13-.37-.2-.56-.08-.19-.17-.36-.25-.54-.09-.19-.17-.38-.27-.56-.09-.17-.2-.34-.3-.51-.11-.18-.21-.37-.33-.54-.13-.19-.27-.36-.4-.54-.11-.15-.29-.4-.41-.54-.24-.28-.48-.56-.75-.82l-88.21-88.21c-4.52-4.52-12.35-5-17.18-.81-5.55,4.8-5.78,13.21-.68,18.31l67.05,67.05s-254.6-.2-261.5-.2-12.5,5.6-12.5,12.5v.2c0,6.9,5.6,12.5,12.5,12.5h261.5l-67.05,67.05Z"/>
</svg>