<?xml version="1.0" encoding="UTF-8"?>
<svg id="a" data-name="layer1" xmlns="http://www.w3.org/2000/svg" viewBox="0 0 500 500">
  <path d="M333.749,128.639v241.816l-160.661-120.9,160.661-120.916M344.067,93.303c-3.126,0-6.232.991-8.836,2.931l-188.12,141.582c-3.681,2.772-5.851,7.132-5.851,11.74s2.17,8.967,5.851,11.74l188.12,141.563c2.6,1.95,5.707,2.944,8.833,2.944,2.237,0,4.483-.516,6.558-1.549,4.981-2.486,8.126-7.572,8.126-13.135V107.973c0-5.564-3.145-10.65-8.126-13.135-2.076-1.028-4.321-1.535-6.556-1.535h0Z"/>
</svg>