<?xml version="1.0" encoding="UTF-8"?>
<svg id="c" data-name="レイヤー 4" xmlns="http://www.w3.org/2000/svg" viewBox="0 0 500 500">
  <path d="M276.38,101.47c-2.23-.99-4.64-1.47-7.04-1.47-3.36,0-6.69.95-9.49,2.81l-110.03,74.01v-16.88c0-6.9-5.6-12.5-12.5-12.5H57.31c-6.9,0-12.5,5.6-12.5,12.5v180c0,6.9,5.6,12.5,12.5,12.5h80c6.9,0,12.5-5.6,12.5-12.5v-16.77l110.03,74c2.79,1.87,6.13,2.83,9.49,2.83,2.4,0,4.82-.5,7.04-1.49,5.35-2.39,8.73-7.27,8.73-12.61V114.08c0-5.34-3.38-10.22-8.73-12.61ZM124.81,327.44h-55v-155h55v155ZM260.11,367.22l-110-73.98v-86.49l110-73.99v234.46Z"/>
  <path d="M322.75,193.72c-6.36,2.69-9.33,10.02-6.64,16.38,5.34,12.63,8.05,26.05,8.05,39.89s-2.71,27.27-8.05,39.89c-2.69,6.36.29,13.69,6.64,16.38,1.59.67,3.24.99,4.86.99,4.87,0,9.5-2.87,11.52-7.63,6.65-15.73,10.02-32.42,10.02-49.63s-3.37-33.91-10.02-49.63c-2.69-6.36-10.03-9.33-16.38-6.64Z"/>
  <path d="M389.81,178.96c-2.69-6.36-10.02-9.33-16.38-6.64-6.36,2.69-9.33,10.02-6.64,16.38,8.21,19.41,12.37,40.04,12.37,61.3s-4.16,41.89-12.37,61.3c-2.69,6.36.29,13.69,6.64,16.38,1.59.67,3.24.99,4.86.99,4.87,0,9.5-2.87,11.52-7.63,9.52-22.51,14.35-46.41,14.35-71.04s-4.83-48.53-14.35-71.04Z"/>
</svg>