<?xml version="1.0" encoding="UTF-8"?>
<svg id="a" data-name="layer1" xmlns="http://www.w3.org/2000/svg" viewBox="0 0 500 500">
  <path d="M439.45,128.95v242.09l-160.87-121.06,160.87-121.03M227.58,128.95v109.3c0,4.17,1.04,8.18,2.92,11.72-1.88,3.54-2.92,7.55-2.92,11.72v109.34l-160.84-121.03,160.84-121.05M449.76,93.63c-3.13,0-6.24.99-8.84,2.93l-188.34,141.69V108.31c0-5.57-3.15-10.66-8.13-13.15-2.08-1.03-4.32-1.54-6.56-1.54-3.13,0-6.24.99-8.84,2.93L40.78,238.25c-3.68,2.77-5.86,7.14-5.86,11.75s2.17,8.97,5.86,11.75l188.27,141.67c2.6,1.95,5.71,2.95,8.84,2.95,2.24,0,4.49-.52,6.56-1.55,4.98-2.49,8.13-7.58,8.13-13.15v-129.98s.05.04.07.06l188.27,141.67c2.6,1.95,5.71,2.95,8.84,2.95,2.24,0,4.49-.52,6.56-1.55,4.98-2.49,8.13-7.58,8.13-13.15V108.31c0-5.57-3.15-10.66-8.13-13.15-2.08-1.03-4.32-1.54-6.56-1.54h0Z"/>
</svg>