<?xml version="1.0" encoding="UTF-8"?>
<svg id="a" data-name="layer1" xmlns="http://www.w3.org/2000/svg" width="1000" height="1000" viewBox="0 0 1000 1000">
  <path d="M764.286,301.07c-6.375-3.157-13.986-2.472-19.701,1.786l-240.887,181.226v-166.199c0-7.122-4.026-13.632-10.401-16.813-6.375-3.157-13.986-2.472-19.701,1.786l-240.794,181.226c-4.711,3.549-7.489,9.129-7.489,15.027s2.778,11.478,7.489,15.027l240.794,181.201c3.329,2.496,7.305,3.769,11.307,3.769,2.864,0,5.739-.661,8.395-1.982,6.375-3.181,10.401-9.691,10.401-16.813v-166.25c.032.024.062.051.093.075l240.794,181.201c3.328,2.496,7.305,3.769,11.307,3.769,2.864,0,5.739-.661,8.394-1.982,6.375-3.181,10.401-9.691,10.401-16.813v-362.427c0-7.122-4.026-13.632-10.401-16.813Z" fill="#212121" stroke-width="0"/>
</svg>