<?xml version="1.0" encoding="UTF-8"?>
<svg id="a" data-name="layer1" xmlns="http://www.w3.org/2000/svg" viewBox="0 0 500 500">
  <path d="M399.703,186.801c-8.196-19.343-19.921-36.721-34.85-51.65s-32.306-26.655-51.65-34.852c-6.359-2.693-13.693.276-16.386,6.633-2.693,6.356.276,13.693,6.633,16.387,16.369,6.936,31.081,16.864,43.725,29.51,12.645,12.646,22.573,27.357,29.509,43.726,7.178,16.941,10.817,34.928,10.817,53.458s-3.639,36.514-10.816,53.452c-6.935,16.366-16.863,31.076-29.509,43.72-12.644,12.643-27.355,22.568-43.725,29.503-16.94,7.176-34.925,10.814-53.455,10.814s-36.514-3.639-53.453-10.814c-16.369-6.935-31.079-16.86-43.721-29.502-12.644-12.644-22.571-27.354-29.505-43.72-7.177-16.939-10.815-34.923-10.815-53.453s3.639-36.517,10.815-53.458c6.935-16.369,16.862-31.081,29.505-43.727,12.644-12.646,27.354-22.573,43.722-29.509,6.356-2.693,9.326-10.03,6.632-16.387-2.693-6.357-10.031-9.322-16.386-6.633-19.342,8.196-36.719,19.922-51.646,34.853-14.927,14.929-26.651,32.307-34.846,51.65-8.491,20.044-12.796,41.311-12.796,63.21s4.305,43.165,12.796,63.205c8.195,19.342,19.919,36.718,34.847,51.646,14.927,14.927,32.304,26.649,51.646,34.844,20.041,8.49,41.306,12.795,63.205,12.795s43.165-4.305,63.207-12.795c19.344-8.194,36.722-19.917,51.65-34.844,14.93-14.928,26.655-32.304,34.851-51.645,8.492-20.041,12.798-41.307,12.798-63.206s-4.306-43.166-12.798-63.211Z"/>
  <path d="M250,262.5c6.903,0,12.5-5.597,12.5-12.5V86.388c0-6.903-5.597-12.5-12.5-12.5s-12.5,5.597-12.5,12.5v163.612c0,6.903,5.597,12.5,12.5,12.5Z"/>
</svg>