<?xml version="1.0" encoding="UTF-8"?>
<svg id="a" data-name="layer1" xmlns="http://www.w3.org/2000/svg" viewBox="0 0 1000 1000">
  <path d="M207,326.56l230.48,173.4-230.48,173.44v-346.4M545,326.58l230.43,173.42-230.43,173.4v-154.71c0-6.54-1.28-12.88-3.64-18.74,2.37-5.85,3.64-12.2,3.64-18.74v-154.22M519.51,249.8c-3.58,0-7.17.81-10.5,2.46-7.98,3.98-13.01,12.12-13.01,21.03v207.91L194.66,254.5c-4.17-3.11-9.14-4.69-14.15-4.69-3.58,0-7.17.81-10.5,2.46-7.98,3.98-13.01,12.12-13.01,21.03v453.38c0,8.91,5.04,17.05,13.01,21.03,3.32,1.65,6.92,2.48,10.5,2.48,5.01,0,9.98-1.59,14.14-4.71l301.23-226.68s.08-.06.12-.09v207.97c0,8.91,5.04,17.05,13.01,21.03,3.32,1.65,6.92,2.48,10.5,2.48,5.01,0,9.98-1.59,14.14-4.71l301.23-226.68c5.89-4.44,9.37-11.42,9.37-18.8s-3.47-14.36-9.37-18.8l-301.23-226.71c-4.17-3.11-9.14-4.69-14.15-4.69h0Z"/>
</svg>