<?xml version="1.0" encoding="UTF-8"?>
<svg id="a" data-name="layer1" xmlns="http://www.w3.org/2000/svg" viewBox="0 0 1000 1000">
  <path d="M820.68,604.47H297.67l134.1-134.05c9.76-9.76,9.76-25.59,0-35.36s-25.59-9.76-35.35,0l-176.78,176.78c-.58.58-1.14,1.2-1.66,1.83-.23.28-.44.58-.65.88-.27.36-.55.71-.8,1.09-.24.35-.44.72-.66,1.09-.2.34-.41.67-.6,1.01-.2.37-.37.75-.54,1.13-.17.36-.35.72-.51,1.09-.15.37-.27.74-.41,1.11-.14.4-.29.79-.42,1.19-.11.37-.2.75-.29,1.13-.1.41-.22.82-.3,1.24-.09.44-.14.88-.2,1.32-.05.37-.12.73-.16,1.1-.16,1.64-.16,3.29,0,4.93.04.37.11.73.16,1.1.06.44.11.88.2,1.32.08.42.2.83.3,1.24.09.38.18.76.29,1.13.12.41.27.8.42,1.19.13.37.26.75.41,1.12.15.37.33.73.51,1.09.18.38.35.76.54,1.13.19.35.4.68.6,1.01.22.36.42.73.66,1.09.25.38.53.73.8,1.09.22.29.42.59.65.88.52.64,1.08,1.25,1.66,1.84l176.77,176.77c9.76,9.76,25.59,9.76,35.35,0,4.88-4.88,7.32-11.28,7.32-17.68s-2.44-12.8-7.32-17.68l-134.1-134.15h523.01c13.81.05,25-11.15,24.61-24.95v-.41c.39-13.81-10.81-25-24.61-24.64Z"/>
  <path d="M568.2,529.57c-4.88,4.88-7.32,11.28-7.32,17.68,0,6.92,2.85,13.84,8.57,18.84,9.96,8.73,25.13,7.82,34.49-1.54l176.4-176.4c.52-.52,1.01-1.05,1.47-1.61.24-.29.61-.78.83-1.09.27-.36.56-.72.81-1.1.24-.35.44-.72.66-1.09.2-.34.41-.67.6-1.01.2-.37.37-.75.54-1.13.17-.36.35-.72.51-1.09.15-.37.27-.74.41-1.12.14-.4.29-.79.42-1.19.11-.37.2-.75.29-1.13.1-.41.22-.82.3-1.24.09-.44.14-.89.2-1.33.05-.37.15-.97.18-1.34.13-1.47.13-2.95,0-4.43-.03-.37-.13-.97-.18-1.34-.06-.45-.12-.89-.2-1.33-.08-.42-.2-.83-.3-1.24-.09-.38-.18-.76-.29-1.13-.12-.41-.27-.8-.42-1.19-.13-.37-.26-.75-.41-1.11-.15-.37-.33-.73-.51-1.09-.18-.38-.35-.76-.54-1.13-.19-.35-.4-.68-.6-1.01-.22-.36-.42-.73-.66-1.09-.25-.38-.53-.73-.8-1.09-.22-.3-.58-.79-.82-1.08-.47-.57-.97-1.11-1.49-1.63l-176.41-176.41c-9.04-9.04-24.69-9.99-34.36-1.62-11.1,9.61-11.55,26.42-1.35,36.62l134.1,134.1s-509.2-.41-523.01-.41-25,11.19-25,25v.41c0,13.81,11.19,25,25,25h523.01s-134.1,134.1-134.1,134.1Z"/>
</svg>