<?xml version="1.0" encoding="UTF-8"?>
<svg id="a" data-name="layer1" xmlns="http://www.w3.org/2000/svg" viewBox="0 0 500 500">
  <path d="M229.24,218.28h-95.2v-96.13h142.72c6.9,0,12.5-5.6,12.5-12.5s-5.6-12.5-12.5-12.5H121.54c-6.9,0-12.5,5.6-12.5,12.5v280.7c0,6.9,5.6,12.5,12.5,12.5s12.5-5.6,12.5-12.5v-147.07h95.2c6.9,0,12.5-5.6,12.5-12.5s-5.6-12.5-12.5-12.5Z"/>
  <path d="M342.43,310.51l46.57-73.13c3.71-5.82,1.99-13.55-3.83-17.26-5.82-3.71-13.55-2-17.26,3.83l-40.31,63.29-40.31-63.29c-3.71-5.82-11.44-7.54-17.26-3.83-5.82,3.71-7.54,11.43-3.83,17.26l46.57,73.13-46.57,73.13c-3.71,5.82-1.99,13.55,3.83,17.26,2.08,1.33,4.41,1.96,6.7,1.96,4.13,0,8.17-2.05,10.56-5.79l40.31-63.29,40.31,63.29c2.38,3.74,6.43,5.79,10.56,5.79,2.3,0,4.62-.63,6.7-1.96,5.82-3.71,7.54-11.43,3.83-17.26l-46.57-73.13Z"/>
</svg>