<?xml version="1.0" encoding="UTF-8"?>
<svg id="a" data-name="layer1" xmlns="http://www.w3.org/2000/svg" viewBox="0 0 500 500">
  <path d="M350,87.5c-6.9,0-12.5,5.6-12.5,12.5v300c0,6.9,5.6,12.5,12.5,12.5s12.5-5.6,12.5-12.5V100c0-6.9-5.6-12.5-12.5-12.5Z"/>
  <path d="M250,87.5c-6.9,0-12.5,5.6-12.5,12.5v300c0,6.9,5.6,12.5,12.5,12.5s12.5-5.6,12.5-12.5V100c0-6.9-5.6-12.5-12.5-12.5Z"/>
  <path d="M150,87.5c-6.9,0-12.5,5.6-12.5,12.5v300c0,6.9,5.6,12.5,12.5,12.5s12.5-5.6,12.5-12.5V100c0-6.9-5.6-12.5-12.5-12.5Z"/>
</svg>