<?xml version="1.0" encoding="UTF-8"?>
<svg id="a" data-name="layer1" xmlns="http://www.w3.org/2000/svg" viewBox="0 0 1000 1000">
  <path d="M652.41,635.03v27.75h-314.72v-27.75h314.72M682.37,585.03h-374.64c-11.06,0-20.04,8.98-20.04,20.04v87.67c0,11.06,8.98,20.04,20.04,20.04h374.64c11.06,0,20.04-8.98,20.04-20.04v-87.67c0-11.06-8.98-20.04-20.04-20.04h0Z"/>
  <path d="M522.08,308.47h0,0M498.17,340.25l133.16,176.95h-266.33l133.17-176.95M498.17,270.4c-6.29,0-12.24,2.96-16.02,7.98l-193.21,256.72c-4.54,6.09-5.27,14.22-1.9,21,3.39,6.8,10.33,11.09,17.93,11.09h386.4c7.59,0,14.53-4.29,17.93-11.09,1.41-2.83,2.11-5.9,2.11-8.95,0-4.27-1.36-8.51-4.02-12.05l-193.19-256.72c-3.78-5.02-9.73-7.98-16.02-7.98h0Z"/>
</svg>