<?xml version="1.0" encoding="UTF-8"?>
<svg id="a" data-name="layer1" xmlns="http://www.w3.org/2000/svg" viewBox="0 0 500 500">
  <path d="M414.43,200.84l-30.93,30.93v-19.09s0-12.5,0-12.5c0-39.11-31.7-70.81-70.81-70.81H119.82s-12.24,0-12.24,0c-6.39,0-12.26,5.2-12.72,11.57-.53,7.32,5.26,13.43,12.47,13.43h127.57s5.6,0,12.5,0h65.29c25.26,0,45.82,20.55,45.82,45.82v31.59s-31.11-31.11-31.11-31.11c-2.44-2.44-5.64-3.66-8.84-3.66-3.46,0-6.92,1.43-9.42,4.28-4.36,4.98-3.91,12.56.77,17.24l52.26,52.26c.26.26.53.51.81.74.14.12.39.3.54.41.18.14.36.28.55.4.18.12.36.22.54.33.17.1.33.21.51.3.19.1.38.18.56.27.18.09.36.18.54.25.18.08.37.14.56.2.2.07.39.15.6.21.19.06.38.1.57.15.21.05.41.11.62.15.22.04.44.07.66.1.18.03.48.07.67.09.74.07,1.49.07,2.23,0,.18-.02.48-.06.66-.09.22-.03.44-.06.66-.1.21-.04.41-.1.62-.15.19-.05.38-.09.56-.15.2-.06.4-.14.6-.21.19-.07.37-.13.56-.2.19-.08.36-.17.54-.25.19-.09.38-.17.56-.27.17-.09.34-.2.51-.3.18-.11.37-.21.54-.33.19-.13.37-.27.55-.4.15-.11.4-.29.54-.41.28-.24.55-.48.81-.74l52.45-52.45c5.1-5.1,4.87-13.5-.68-18.31-4.83-4.19-12.66-3.71-17.18.81Z"/>
  <path d="M399.74,346.34c-.55-.54-1.64-.98-2.42-.98h-174.74s-5.6,0-12.5,0h-22.77c-25.26,0-45.82-20.55-45.82-45.82v-31.59s31.11,31.11,31.11,31.11c2.44,2.44,5.64,3.66,8.84,3.66,6.62,0,13.23-5.22,13.14-15.66,0-.9-.38-1.76-1.02-2.39l-55.74-55.74c-.32-.32-.65-.62-1-.9-.04-.03-.11-.08-.15-.11-.25-.18-.49-.37-.75-.55-.18-.12-.36-.22-.54-.33-.17-.1-.33-.21-.51-.3-.19-.1-.38-.18-.56-.27-.18-.09-.36-.18-.54-.25-.18-.08-.37-.14-.56-.2-.2-.07-.39-.15-.6-.21-.19-.06-.38-.1-.57-.15-.21-.05-.41-.11-.62-.15-.3-.06-.6-.09-.9-.14-.05,0-.13-.02-.18-.03-.9-.1-1.81-.1-2.72,0-.05,0-.13.02-.18.03-.3.05-.6.08-.9.14-.21.04-.41.1-.62.15-.19.05-.38.09-.56.15-.2.06-.4.14-.6.21-.19.07-.37.13-.56.2-.19.08-.36.17-.54.25-.19.09-.38.17-.56.27-.17.09-.34.2-.51.3-.18.11-.37.21-.54.33-.26.17-.49.37-.75.55-.04.03-.11.08-.15.11-.35.28-.69.58-1,.9l-55.74,55.74c-.55.55-1.01,1.63-1.02,2.4-.13,15.48,14.49,19.48,21.98,11.99l31.11-31.11v19.09s0,13.83,0,13.83c0,38.38,31.11,69.49,69.49,69.49h194.19s5.6,0,12.5,0c10.59,0,18.1-13.17,7.06-24.02Z"/>
</svg>