<?xml version="1.0" encoding="UTF-8"?>
<svg id="a" data-name="layer1" xmlns="http://www.w3.org/2000/svg" viewBox="0 0 500 500">
  <path d="M60.547,128.947l160.872,121.028-160.872,121.059v-242.087M272.422,128.952l160.838,121.049-160.838,121.033v-109.342c0-4.167-1.036-8.176-2.917-11.719,1.882-3.544,2.917-7.553,2.917-11.719v-109.301M262.115,93.628c-2.236,0-4.483.507-6.561,1.536-4.985,2.487-8.132,7.577-8.132,13.146v129.943L59.083,96.561c-2.605-1.941-5.715-2.933-8.842-2.933-2.237,0-4.483.507-6.561,1.536-4.985,2.487-8.132,7.577-8.132,13.146v283.366c0,5.568,3.147,10.658,8.132,13.145,2.076,1.033,4.324,1.55,6.563,1.55,3.129,0,6.238-.995,8.84-2.947l188.266-141.673c.025-.019.048-.04.073-.059v129.983c0,5.568,3.147,10.658,8.132,13.145,2.076,1.033,4.324,1.55,6.563,1.55,3.129,0,6.238-.995,8.84-2.947l188.266-141.673c3.683-2.775,5.855-7.137,5.855-11.749s-2.172-8.974-5.855-11.749l-188.266-141.692c-2.605-1.941-5.714-2.933-8.842-2.933h0Z"/>
</svg>