<?xml version="1.0" encoding="UTF-8"?>
<svg id="a" data-name="layer1" xmlns="http://www.w3.org/2000/svg" viewBox="0 0 500 500">
  <path d="M338.341,294.953c-3.199,0-6.398,1.22-8.839,3.661l-67.05,67.05v-231.328l67.05,67.05c2.44,2.441,5.64,3.661,8.839,3.661,3.46,0,6.92-1.428,9.421-4.284,4.362-4.981,3.91-12.563-.771-17.245l-88.198-88.198c-.259-.259-.53-.505-.811-.741-.012-.01-.031-.024-.044-.035-.051-.042-.104-.081-.156-.122-.121-.093-.247-.187-.341-.257-.05-.038-.102-.073-.151-.111-.128-.093-.251-.193-.382-.281-.005-.003-.009-.007-.014-.01-.177-.119-.361-.221-.543-.33-.033-.02-.067-.039-.101-.059-.13-.076-.256-.159-.39-.23-.005-.003-.01-.006-.016-.009-.186-.099-.376-.183-.564-.272-.032-.015-.063-.029-.095-.044-.145-.067-.285-.139-.433-.201-.006-.002-.011-.006-.017-.008-.184-.076-.371-.137-.558-.204-.034-.012-.068-.023-.102-.036-.159-.056-.315-.118-.477-.167-.006-.002-.012-.004-.018-.006-.187-.056-.376-.098-.565-.145-.042-.011-.085-.02-.128-.031-.158-.038-.313-.084-.474-.116-.006-.001-.013-.003-.019-.005-.221-.044-.443-.07-.666-.102-.068-.01-.16-.023-.25-.036-.108-.013-.214-.031-.323-.042-.03-.003-.068-.009-.095-.012-.369-.033-.739-.049-1.109-.049h-.204c-4.099,0-7.726,1.982-10.005,5.03l-86.837,86.837c-4.522,4.522-4.997,12.346-.811,17.181,4.805,5.55,13.21,5.775,18.308.677l66.868-66.867c.021,28.569.057,73.099.09,115.482-.033,42.383-.068,86.914-.09,115.482l-66.868-66.868c-5.098-5.098-13.503-4.872-18.308.678-4.186,4.835-3.711,12.659.811,17.181l86.837,86.837c2.28,3.048,5.907,5.03,10.006,5.03h.203c.37,0,.74-.016,1.109-.049.026-.002.065-.008.095-.012.109-.01.215-.029.324-.042.089-.013.18-.026.249-.036.222-.032.445-.058.666-.101.006-.001.012-.003.018-.005.163-.032.319-.078.479-.117.041-.011.083-.02.124-.03.188-.047.378-.089.565-.145.006-.002.011-.004.018-.006.163-.05.32-.112.481-.168.032-.012.065-.023.098-.034.187-.067.374-.128.558-.204.006-.002.011-.005.017-.008.148-.062.289-.134.434-.201.031-.015.063-.029.094-.043.189-.089.379-.173.564-.272.005-.003.01-.006.016-.009.133-.072.259-.154.39-.23.033-.02.067-.039.101-.059.182-.109.366-.211.543-.33.005-.003.009-.007.014-.01.132-.089.255-.189.384-.282.05-.037.101-.073.15-.11.094-.07.219-.164.34-.256.052-.042.105-.08.157-.123.013-.011.033-.025.045-.035.281-.235.551-.482.811-.741l88.198-88.198c4.682-4.682,5.134-12.263.771-17.245-2.5-2.856-5.961-4.284-9.421-4.284Z"/>
</svg>