<?xml version="1.0" encoding="UTF-8"?>
<svg id="a" data-name="layer1" xmlns="http://www.w3.org/2000/svg" viewBox="0 0 500 500">
  <path d="M202.419,247.918c14.25-6.847,25.122-16.285,32.617-28.314,7.495-12.029,11.243-24.151,11.243-36.365,0-17.211-3.956-31.692-11.867-43.444-7.911-11.751-18.923-20.657-33.034-26.718-14.111-6.061-30.42-9.091-48.926-9.091-17.118,0-32.455,3.123-46.011,9.369-13.556,6.246-24.243,15.036-32.062,26.371-7.819,11.335-11.728,24.544-11.728,39.626h52.326c0-9.901,3.794-17.812,11.381-23.734,7.588-5.922,16.748-8.883,27.482-8.883,12.862,0,22.763,3.562,29.703,10.687,6.94,7.125,10.41,16.054,10.41,26.788,0,11.659-3.632,21.56-10.896,29.703-7.264,8.143-17.974,12.214-32.131,12.214h-25.955v46.497h25.955c14.342,0,25.816,3.031,34.422,9.091,8.605,6.061,12.908,16.632,12.908,31.715,0,11.937-4.118,21.444-12.353,28.523-8.235,7.079-19.061,10.618-32.478,10.618-12.029,0-21.884-3.308-29.564-9.924-7.68-6.616-11.52-15.198-11.52-25.747h-53.298c0,18.044,4.465,32.918,13.394,44.623,8.929,11.705,20.496,20.38,34.699,26.024,14.204,5.645,29.217,8.467,45.04,8.467,18.599,0,35.393-3.216,50.383-9.646,14.99-6.431,26.857-15.73,35.601-27.898,8.744-12.168,13.116-26.903,13.116-44.207,0-15.36-4.025-28.893-12.075-40.598-8.05-11.705-20.31-20.287-36.781-25.747Z" fill-rule="evenodd"/>
  <path d="M310.235,255.807l30.757-31.452c11.353-11.758,20.533-22.937,27.542-33.537,7.009-10.6,10.513-21.75,10.513-33.45,0-10.194-2.433-19.201-7.298-27.021-4.866-7.82-11.599-13.945-20.2-18.376-8.602-4.431-18.463-6.646-29.584-6.646-12.685,0-23.401,2.751-32.147,8.254-8.746,5.503-15.393,12.757-19.94,21.764-4.547,9.007-6.82,18.752-6.82,29.236h33.016c0-8.746,2.056-16.276,6.169-22.59,4.112-6.313,10.455-9.47,19.027-9.47,7.82,0,13.959,2.592,18.419,7.776,4.46,5.184,6.69,11.251,6.69,18.202,0,5.908-1.882,12.164-5.647,18.767-3.765,6.603-10.136,14.539-19.114,23.806l-59.255,59.776v24.849h121.377v-28.845h-73.504v-1.043Z" fill-rule="evenodd"/>
  <path d="M421.931,114.681c-.109.254-.509,1.309-1.199,3.162-.691,1.854-1.872,3.935-3.544,6.243-1.672,2.308-4.053,4.325-7.142,6.052-3.09,1.727-7.088,2.59-11.995,2.59v17.283c6.034,0,10.977-.736,14.83-2.208,3.853-1.472,6.361-3.208,7.524-5.207h.872v83.743h19.682v-111.658h-19.028Z" fill-rule="evenodd"/>
</svg>