<?xml version="1.0" encoding="UTF-8"?>
<svg id="a" data-name="layer1" xmlns="http://www.w3.org/2000/svg" viewBox="0 0 1000 1000">
  <path d="M408,300v400h-76v-400h76M430.39,250h-120.8c-15.24,0-27.59,12.35-27.59,27.59v444.82c0,15.24,12.35,27.59,27.59,27.59h120.82c15.24,0,27.59-12.35,27.59-27.59v-444.82c0-15.23-12.37-27.59-27.61-27.59h0Z"/>
  <path d="M668,300v400h-76v-400h76M690.39,250h-120.8c-15.24,0-27.59,12.35-27.59,27.59v444.82c0,15.24,12.35,27.59,27.59,27.59h120.82c15.24,0,27.59-12.35,27.59-27.59v-444.82c0-15.23-12.37-27.59-27.61-27.59h0Z"/>
</svg>