<?xml version="1.0" encoding="UTF-8"?>
<svg id="a" data-name="layer1" xmlns="http://www.w3.org/2000/svg" viewBox="0 0 500 500">
  <path d="M394.472,367.714V78.458c0-10.19-8.267-18.458-18.456-18.458H86.758c-14.778,0-26.758,11.979-26.758,26.757v280.957c0,14.778,11.98,26.758,26.758,26.758h280.956c14.778,0,26.758-11.98,26.758-26.758ZM85,367.714V86.758c0-.969.789-1.757,1.758-1.757h282.714v282.714c0,.969-.789,1.758-1.758,1.758H86.758c-.969,0-1.758-.789-1.758-1.758Z"/>
  <path d="M423.101,121.249c-6.903,0-12.5,5.597-12.5,12.5s5.597,12.5,12.5,12.5c2.426,0,4.398,1.974,4.398,4.4v264.851c0,6.617-5.383,12-12,12H158.249c-6.617,0-12-5.383-12-12,0-6.903-5.597-12.5-12.5-12.5s-12.5,5.597-12.5,12.5c0,20.402,16.598,37,37,37h257.251c20.402,0,37-16.598,37-37V150.649c0-16.211-13.188-29.4-29.398-29.4Z"/>
  <path d="M319.648,214.736h-79.912v-79.912c0-6.903-5.597-12.5-12.5-12.5s-12.5,5.597-12.5,12.5v79.912h-79.912c-6.903,0-12.5,5.597-12.5,12.5s5.597,12.5,12.5,12.5h79.912v79.912c0,6.903,5.597,12.5,12.5,12.5s12.5-5.597,12.5-12.5v-79.912h79.912c6.903,0,12.5-5.597,12.5-12.5s-5.597-12.5-12.5-12.5Z"/>
</svg>