<?xml version="1.0" encoding="UTF-8"?>
<svg id="a" data-name="layer1" xmlns="http://www.w3.org/2000/svg" viewBox="0 0 500 500">
  <path d="M394.041,301.917c0-11.269-3.441-20.405-10.323-27.407-6.882-7.003-15.475-10.505-25.778-10.505-10.142,0-18.674,3.502-25.597,10.505-6.922,7.003-10.384,16.098-10.384,27.287,0,11.028,3.481,19.942,10.444,26.743,6.963,6.802,15.676,10.202,26.14,10.202,10.545,0,19.097-3.401,25.657-10.202,6.56-6.801,9.84-15.676,9.84-26.623ZM389.332,193.132c0-9.74-2.898-17.467-8.693-23.182-5.796-5.715-13.362-8.572-22.699-8.572-9.015,0-16.4,2.777-22.156,8.331-5.755,5.554-8.633,13.322-8.633,23.303s2.918,18.05,8.754,24.208c5.836,6.157,13.382,9.236,22.638,9.236s16.702-3.079,22.337-9.236c5.634-6.158,8.452-14.187,8.452-24.088ZM439.922,304.936c0,15.455-3.562,28.555-10.685,39.301-7.124,10.746-16.803,18.895-29.038,24.449-12.235,5.554-26.12,8.331-41.655,8.331s-29.5-2.777-41.896-8.331c-12.396-5.554-22.236-13.683-29.521-24.389-7.285-10.705-10.927-23.826-10.927-39.361,0-14.006,3.401-26.099,10.202-36.282,6.802-10.182,15.917-18.091,27.347-23.725-9.901-5.393-17.708-12.678-23.423-21.854-5.715-9.176-8.572-19.922-8.572-32.237,0-14.81,3.3-27.246,9.901-37.308,6.6-10.061,15.676-17.668,27.227-22.82,11.551-5.152,24.691-7.728,39.421-7.728,14.891,0,28.092,2.576,39.602,7.728,11.511,5.152,20.546,12.758,27.106,22.82,6.56,10.061,9.84,22.497,9.84,37.308,0,12.316-2.878,23.082-8.633,32.298-5.755,9.216-13.583,16.521-23.484,21.915,11.43,5.634,20.485,13.542,27.166,23.725,6.681,10.182,10.021,22.236,10.021,36.161ZM109.822,285.98h58.438v-100.696l-5.433,10.504-53.004,90.191ZM246.378,285.98v39.965h-35.739v47.692h-42.379v-47.692H60.078v-31.271l102.749-168.31h47.812v159.616h35.739Z" fill-rule="evenodd"/>
</svg>