<?xml version="1.0" encoding="UTF-8"?>
<svg id="a" data-name="layer1" xmlns="http://www.w3.org/2000/svg" width="1000" height="1000" viewBox="0 0 1000 1000">
  <path d="M734.688,361.253v277.469l-184.385-138.752,184.385-138.717M463.698,361.263v123.714c0,5.23,1.021,10.307,2.914,14.989-1.894,4.682-2.914,9.758-2.914,14.989v123.768l-184.342-138.72,184.342-138.74M755.895,300c-4,0-7.977,1.268-11.309,3.751l-240.887,181.226v-166.199c0-7.122-4.026-13.632-10.401-16.813-2.658-1.316-5.531-1.965-8.392-1.965-4,0-7.977,1.268-11.309,3.751l-240.794,181.226c-4.711,3.549-7.489,9.129-7.489,15.027s2.778,11.478,7.489,15.027l240.794,181.201c3.329,2.496,7.305,3.769,11.307,3.769,2.864,0,5.739-.661,8.395-1.982,6.375-3.181,10.401-9.691,10.401-16.813v-166.25c.032.024.062.051.093.075l240.794,181.201c3.328,2.496,7.305,3.769,11.307,3.769,2.864,0,5.739-.661,8.394-1.982,6.375-3.181,10.401-9.691,10.401-16.813v-362.427c0-7.122-4.026-13.632-10.401-16.813-2.658-1.316-5.531-1.965-8.392-1.965h0Z" fill="#000" stroke-width="0"/>
</svg>