<?xml version="1.0" encoding="UTF-8"?>
<svg id="a" data-name="layer1" xmlns="http://www.w3.org/2000/svg" viewBox="0 0 1000 1000">
  <path d="M822.45,474.47h-480.49l134.1-133.57c9.76-9.76,9.76-25.59,0-35.35s-25.59-9.76-35.36,0l-176.78,176.78c-.58.58-1.14,1.2-1.66,1.83-.23.28-.44.58-.65.88-.27.36-.55.71-.8,1.09-.24.35-.44.72-.66,1.09-.2.34-.41.67-.6,1.01-.2.37-.37.75-.54,1.13-.17.36-.35.72-.51,1.09-.15.37-.27.74-.41,1.11-.14.4-.29.79-.42,1.19-.11.37-.2.75-.29,1.13-.1.41-.22.82-.3,1.24-.09.44-.14.88-.2,1.32-.05.37-.12.73-.16,1.1-.16,1.64-.16,3.29,0,4.93.04.37.11.73.16,1.1.06.44.11.88.2,1.32.08.42.2.83.3,1.24.09.38.18.76.29,1.13.12.41.27.8.42,1.19.13.37.26.75.41,1.12.15.37.33.73.51,1.09.18.38.35.76.54,1.13.19.35.4.68.6,1.01.22.36.42.73.66,1.09.25.37.53.73.8,1.09.22.29.42.59.65.88.52.64,1.08,1.25,1.66,1.84l176.77,176.77c9.76,9.76,25.59,9.76,35.36,0,4.88-4.88,7.32-11.28,7.32-17.68s-2.44-12.8-7.32-17.68l-134.1-134.62h480.49c13.81.52,25-10.67,24.57-24.48v-.41c.43-13.81-10.76-25-24.57-25.12Z"/>
  <rect x="153.02" y="298.47" width="50" height="404" rx="25" ry="25"/>
</svg>