<?xml version="1.0" encoding="UTF-8"?>
<svg id="a" data-name="layer1" xmlns="http://www.w3.org/2000/svg" viewBox="0 0 500 500">
  <path d="M268.04,120.27c6.9,0,12.5-5.6,12.5-12.5s-5.6-12.5-12.5-12.5H98.65c-6.9,0-12.5,5.6-12.5,12.5v280.7c0,6.9,5.6,12.5,12.5,12.5s12.5-5.6,12.5-12.5v-147.07h109.37c6.9,0,12.5-5.6,12.5-12.5s-5.6-12.5-12.5-12.5h-109.37v-96.13h156.89Z"/>
  <path d="M356.44,309.77l54.99-75.07c4.08-5.57,2.87-13.39-2.7-17.47-5.57-4.08-13.39-2.87-17.47,2.7l-50.32,68.69-50.32-68.69c-4.08-5.57-11.9-6.78-17.47-2.7-5.57,4.08-6.78,11.9-2.7,17.47l54.99,75.07-54.99,75.07c-4.08,5.57-2.87,13.39,2.7,17.47,2.23,1.63,4.81,2.42,7.38,2.42,3.85,0,7.65-1.77,10.09-5.11l50.32-68.69,50.32,68.69c2.45,3.34,6.24,5.11,10.09,5.11,2.56,0,5.15-.79,7.38-2.42,5.57-4.08,6.78-11.9,2.7-17.47l-54.99-75.07Z"/>
</svg>