<?xml version="1.0" encoding="UTF-8"?>
<svg id="a" data-name="layer1" xmlns="http://www.w3.org/2000/svg" viewBox="0 0 500 500">
  <path d="M439.453,128.948v242.087l-160.872-121.059,160.872-121.028M227.578,128.953v109.301c0,4.167,1.035,8.175,2.917,11.719-1.881,3.544-2.917,7.552-2.917,11.719v109.342l-160.837-121.033,160.837-121.049M449.76,93.629c-3.128,0-6.237.991-8.842,2.933l-188.339,141.692V108.31c0-5.568-3.147-10.658-8.132-13.146-2.078-1.029-4.324-1.536-6.561-1.536-3.128,0-6.237.991-8.842,2.933L40.776,238.254c-3.684,2.775-5.855,7.137-5.855,11.749s2.172,8.974,5.855,11.749l188.266,141.673c2.602,1.952,5.711,2.947,8.84,2.947,2.239,0,4.487-.516,6.563-1.55,4.985-2.487,8.132-7.577,8.132-13.145v-129.983c.025.019.048.04.073.059l188.266,141.673c2.602,1.952,5.712,2.947,8.84,2.947,2.239,0,4.487-.516,6.563-1.55,4.985-2.487,8.132-7.577,8.132-13.145V108.31c0-5.568-3.147-10.658-8.132-13.146-2.078-1.029-4.324-1.536-6.561-1.536h0Z"/>
</svg>