<?xml version="1.0" encoding="UTF-8"?>
<svg id="a" data-name="layer1" xmlns="http://www.w3.org/2000/svg" viewBox="0 0 500 500">
  <path d="M100,162.5h300c6.9,0,12.5-5.6,12.5-12.5s-5.6-12.5-12.5-12.5H100c-6.9,0-12.5,5.6-12.5,12.5s5.6,12.5,12.5,12.5Z"/>
  <path d="M400,237.5H100c-6.9,0-12.5,5.6-12.5,12.5s5.6,12.5,12.5,12.5h300c6.9,0,12.5-5.6,12.5-12.5s-5.6-12.5-12.5-12.5Z"/>
  <path d="M400,337.5H100c-6.9,0-12.5,5.6-12.5,12.5s5.6,12.5,12.5,12.5h300c6.9,0,12.5-5.6,12.5-12.5s-5.6-12.5-12.5-12.5Z"/>
</svg>