<?xml version="1.0" encoding="UTF-8"?>
<svg id="a" data-name="layer1" xmlns="http://www.w3.org/2000/svg" viewBox="0 0 500 500">
  <path d="M380.16,216.23c2.45,2.45,5.9,3.88,9.69,3.63,6.61-.44,11.65-6.12,11.65-12.74v-96.26c0-.37-.02-.73-.05-1.09-.02-.19-.06-.49-.09-.68-.03-.22-.06-.45-.1-.67-.04-.21-.1-.41-.15-.62-.05-.19-.09-.38-.15-.57-.06-.2-.14-.39-.21-.59-.07-.19-.13-.38-.21-.56-.08-.18-.17-.36-.25-.54-.09-.19-.17-.38-.27-.57-.09-.17-.2-.34-.3-.5-.11-.18-.21-.37-.33-.55-.12-.19-.26-.36-.4-.54-.11-.15-.29-.39-.41-.53-.47-.57-1-1.09-1.57-1.57-.14-.12-.39-.3-.54-.41-.18-.14-.36-.28-.55-.4-.18-.12-.36-.22-.55-.33-.17-.1-.33-.2-.5-.3-.19-.1-.38-.18-.57-.27-.18-.08-.35-.17-.54-.25-.19-.08-.38-.14-.56-.21-.2-.07-.39-.15-.59-.21-.19-.06-.38-.1-.57-.15-.21-.05-.41-.11-.62-.15-.22-.04-.45-.07-.67-.1-.19-.03-.49-.07-.68-.09-.36-.03-.73-.05-1.1-.05h-124.74c-6.39,0-12.26,5.2-12.72,11.57-.53,7.32,5.26,13.43,12.47,13.43h94.82l-108.83,108.83-121.32-121.32-8.64-8.64c-4.73-4.73-12.77-5.04-17.62-.43-5.12,4.86-5.2,12.95-.24,17.9l130.16,130.16-121.32,121.32s-3.85,3.85-8.64,8.64c-4.73,4.73-5.04,12.77-.43,17.62,4.86,5.12,12.95,5.2,17.9.24l130.16-130.16,108.83,108.83h-94.82c-3.45,0-6.58,1.4-8.84,3.66-2.45,2.45-3.88,5.9-3.63,9.69.44,6.61,6.12,11.65,12.74,11.65h124.73c.36,0,.73-.02,1.09-.05.19-.02.49-.06.68-.09.23-.03.45-.06.67-.1.21-.04.41-.1.62-.15.19-.05.38-.09.57-.15.2-.06.39-.14.59-.21.19-.07.38-.13.56-.21.18-.08.36-.17.54-.25.19-.09.38-.17.57-.27.17-.09.34-.2.5-.3.18-.11.37-.21.55-.33.19-.12.36-.26.54-.4.15-.11.39-.29.53-.41.57-.48,1.09-1,1.57-1.57.12-.14.3-.39.41-.54.13-.18.27-.36.4-.54.12-.18.22-.36.33-.55.1-.17.2-.33.3-.5.1-.19.18-.38.27-.57.08-.18.17-.35.25-.54.08-.19.14-.38.21-.56.07-.2.15-.39.21-.59.06-.19.1-.38.15-.57.05-.21.11-.41.15-.62.04-.22.07-.45.1-.67.03-.19.07-.49.09-.68.03-.36.05-.73.05-1.09v-96.4c0-6.39-5.2-12.26-11.58-12.72-7.32-.53-13.42,5.26-13.42,12.47v66.48l-108.88-108.88,108.88-108.88v66.48c0,3.45,1.4,6.58,3.66,8.84Z"/>
</svg>