<?xml version="1.0" encoding="UTF-8"?>
<svg id="a" data-name="layer1" xmlns="http://www.w3.org/2000/svg" viewBox="0 0 1000 1000">
  <defs>
    <style>
      .d {
        fill: #212121;
      }
    </style>
  </defs>
  <path class="d" d="M429.98,250h-120.71c-15.23,0-27.59,12.36-27.59,27.59v444.79c0,15.23,12.36,27.59,27.59,27.59h120.71c15.23,0,27.59-12.36,27.59-27.59v-444.79c0-15.23-12.36-27.59-27.59-27.59Z"/>
  <path class="d" d="M690.76,250h-120.71c-15.23,0-27.59,12.36-27.59,27.59v444.79c0,15.23,12.36,27.59,27.59,27.59h120.71c15.23,0,27.59-12.36,27.59-27.59v-444.79c0-15.23-12.36-27.59-27.59-27.59Z"/>
</svg>