<?xml version="1.0" encoding="UTF-8"?>
<svg id="a" data-name="layer1" xmlns="http://www.w3.org/2000/svg" viewBox="0 0 1000 1000">
  <path d="M181.13,818.55h-108.15c-13.81,0-25-11.19-25-25s11.19-25,25-25h108.15c8.47,0,32.96-8.61,77.43-88.35,32.93-59.07,66.46-138.16,98.88-214.65,76.9-181.42,123.33-284.09,182.96-284.09h.04c27.65.02,50.75,13.4,68.65,39.77,13.4,19.74,22.44,44.25,31.18,67.96,15.09,40.91,26.28,67.72,43.72,67.72h243.03c13.81,0,25,11.19,25,25s-11.19,25-25,25h-243.03c-24.97,0-45.88-12.56-62.15-37.33-11.88-18.08-20.32-40.96-28.48-63.09-25.74-69.79-37.68-75.02-52.96-75.03-.03,0-6.06.77-18.38,15.25-10.45,12.29-22.48,31.09-35.75,55.87-26.12,48.77-53.65,113.72-82.8,182.48-32.94,77.71-67,158.07-101.25,219.49-19.14,34.33-36.71,59.86-53.71,78.07-22.58,24.18-44.62,35.93-67.38,35.93Z"/>
</svg>