<?xml version="1.0" encoding="UTF-8"?>
<svg id="a" data-name="layer1" xmlns="http://www.w3.org/2000/svg" viewBox="0 0 500 500">
  <path d="M443.07,129.63c-32.15-32.15-74.9-49.86-120.37-49.86-25.52,0-49.96,5.45-72.7,16.22-22.74-10.76-47.18-16.22-72.7-16.22-45.47,0-88.22,17.71-120.37,49.86C24.78,161.78,7.07,204.53,7.07,250s17.71,88.22,49.86,120.37c32.15,32.15,74.9,49.86,120.37,49.86,25.52,0,49.96-5.45,72.7-16.22,22.74,10.76,47.18,16.22,72.7,16.22,45.47,0,88.22-17.71,120.37-49.86,32.15-32.15,49.86-74.9,49.86-120.37s-17.71-88.22-49.86-120.37ZM202.33,129.63c-32.15,32.15-49.86,74.9-49.86,120.37s17.71,88.22,49.86,120.37c4.56,4.56,9.39,8.88,14.44,12.9-12.76,3.79-25.99,5.71-39.46,5.71-76.63,0-138.98-62.35-138.98-138.98S100.67,111.02,177.3,111.02c13.48,0,26.7,1.92,39.46,5.71-5.05,4.03-9.88,8.34-14.44,12.9ZM250,131.59c40.98,25.26,66.29,70.29,66.29,118.41s-25.31,93.14-66.29,118.41c-40.98-25.26-66.29-70.29-66.29-118.41s25.31-93.14,66.29-118.41ZM297.67,370.37c32.15-32.15,49.86-74.9,49.86-120.37s-17.71-88.22-49.86-120.37c-4.56-4.56-9.39-8.88-14.44-12.9,12.76-3.79,25.99-5.71,39.46-5.71,76.63,0,138.98,62.35,138.98,138.98s-62.35,138.98-138.98,138.98c-13.48,0-26.7-1.92-39.46-5.71,5.05-4.03,9.88-8.34,14.44-12.9Z"/>
</svg>