<?xml version="1.0" encoding="UTF-8"?>
<svg id="a" data-name="layer1" xmlns="http://www.w3.org/2000/svg" viewBox="0 0 500 500">
  <path d="M438.958,61.042c-4.881-4.882-12.797-4.882-17.678,0l-51.211,51.211c-33.279-29.092-75.45-44.985-120.069-44.985-48.81,0-94.697,19.007-129.211,53.521-34.514,34.514-53.521,80.402-53.521,129.211,0,44.618,15.893,86.79,44.986,120.069l-51.211,51.211c-4.882,4.881-4.882,12.796,0,17.678,2.44,2.441,5.64,3.661,8.839,3.661s6.398-1.22,8.839-3.661l51.211-51.211c33.279,29.092,75.45,44.985,120.069,44.985,48.81,0,94.697-19.007,129.211-53.521,34.514-34.514,53.521-80.402,53.521-129.211,0-44.618-15.893-86.79-44.986-120.069l51.211-51.211c4.882-4.881,4.882-12.796,0-17.678ZM92.268,250c0-42.131,16.407-81.741,46.199-111.533,29.791-29.792,69.401-46.198,111.533-46.198,37.937,0,73.826,13.309,102.347,37.707l-222.371,222.371c-24.399-28.521-37.708-64.41-37.708-102.346ZM407.732,250c0,42.131-16.407,81.741-46.199,111.533-29.791,29.792-69.401,46.198-111.533,46.198-37.937,0-73.826-13.309-102.347-37.707l222.371-222.371c24.399,28.521,37.708,64.41,37.708,102.346Z"/>
</svg>