<?xml version="1.0" encoding="UTF-8"?>
<svg id="a" data-name="layer1" xmlns="http://www.w3.org/2000/svg" viewBox="0 0 500 500">
  <path d="M441.08,209.35c0-40.18-15.65-77.96-44.06-106.37s-66.19-44.06-106.37-44.06-77.96,15.65-106.37,44.06c-14.18,14.18-25.17,30.68-32.64,48.66-17.97,7.46-34.48,18.46-48.66,32.64-28.41,28.41-44.06,66.19-44.06,106.37s15.65,77.96,44.06,106.37c28.41,28.41,66.19,44.06,106.37,44.06s77.96-15.65,106.37-44.06c14.18-14.18,25.17-30.68,32.64-48.66,17.97-7.46,34.48-18.46,48.66-32.64,28.41-28.41,44.06-66.19,44.06-106.37ZM298.05,379.34c-23.69,23.69-55.19,36.74-88.7,36.74s-65.01-13.05-88.7-36.74c-23.69-23.69-36.74-55.19-36.74-88.7s13.05-65,36.74-88.7c6.62-6.62,13.86-12.41,21.57-17.32-1.33,8.1-2.02,16.35-2.02,24.72,0,40.18,15.65,77.96,44.06,106.37,28.41,28.41,66.19,44.06,106.37,44.06,8.37,0,16.63-.69,24.72-2.02-4.91,7.72-10.7,14.95-17.32,21.57ZM357.77,315.37c1.33-8.1,2.02-16.35,2.02-24.72,0-40.18-15.65-77.96-44.06-106.37-28.41-28.41-66.19-44.06-106.37-44.06-8.37,0-16.63.69-24.72,2.02,4.91-7.72,10.7-14.95,17.32-21.57,23.69-23.69,55.19-36.74,88.7-36.74s65.01,13.05,88.7,36.74c23.69,23.69,36.74,55.19,36.74,88.7s-13.05,65-36.74,88.7c-6.62,6.62-13.86,12.41-21.57,17.32Z"/>
</svg>