<?xml version="1.0" encoding="UTF-8"?>
<svg id="a" data-name="layer1" xmlns="http://www.w3.org/2000/svg" viewBox="0 0 500 500">
  <path d="M418.64,140.62c-29.22-29.21-68.06-45.31-109.38-45.31-20.67,0-40.72,4.03-59.26,11.71-18.54-7.68-38.59-11.71-59.25-11.71-41.32,0-80.16,16.09-109.38,45.31-29.22,29.22-45.31,68.06-45.31,109.38s16.09,80.16,45.31,109.38c29.22,29.22,68.06,45.31,109.38,45.31,20.67,0,40.72-4.03,59.26-11.71,18.54,7.68,38.59,11.71,59.26,11.71,41.32,0,80.16-16.09,109.38-45.31,29.22-29.22,45.31-68.06,45.31-109.38s-16.09-80.16-45.31-109.38ZM190.74,379.69c-34.64,0-67.21-13.49-91.7-37.98-24.5-24.49-37.99-57.06-37.99-91.7s13.49-67.21,37.99-91.7c24.49-24.49,57.06-37.98,91.7-37.98,9.97,0,19.77,1.12,29.26,3.3-7.11,5.04-13.84,10.72-20.13,17-29.22,29.22-45.31,68.06-45.31,109.38s16.09,80.16,45.31,109.38c6.29,6.29,13.02,11.96,20.13,17-9.49,2.18-19.29,3.3-29.26,3.3ZM250,134.58c11.83,6.09,22.77,14.04,32.45,23.72,24.5,24.49,37.99,57.06,37.99,91.7s-13.49,67.21-37.99,91.7c-9.68,9.68-20.62,17.63-32.45,23.72-11.83-6.09-22.77-14.04-32.45-23.72-24.5-24.49-37.99-57.06-37.99-91.7s13.49-67.21,37.99-91.7c9.68-9.68,20.62-17.63,32.45-23.72ZM400.96,341.7c-24.49,24.49-57.06,37.98-91.7,37.98-9.97,0-19.77-1.12-29.26-3.3,7.11-5.04,13.84-10.72,20.13-17,29.22-29.22,45.31-68.06,45.31-109.38s-16.09-80.16-45.31-109.38c-6.29-6.29-13.02-11.96-20.13-17,9.49-2.18,19.29-3.3,29.26-3.3,34.64,0,67.21,13.49,91.7,37.98,24.5,24.49,37.99,57.06,37.99,91.7s-13.49,67.21-37.99,91.7Z"/>
</svg>