<?xml version="1.0" encoding="UTF-8"?>
<svg id="a" data-name="layer1" xmlns="http://www.w3.org/2000/svg" viewBox="0 0 500 500">
  <path d="M512.32,394c-.56-6.44-6.11-11.37-12.58-11.38-16.44-.04-32.37-7.61-47.37-22.49-12.97-12.89-25.22-31.1-36.39-54.14-19.52-40.26-28.83-81.3-28.92-81.71-1.27-5.71-6.35-9.78-12.2-9.78h-181.64c-14.36,0-35.98-9.42-57.39-54.29-13.42-28.13-20.1-56.84-20.66-59.29,0,0,0-.02,0-.03-.02-.08-.03-.14-.03-.15-.02-.1-.05-.19-.08-.29-.07-.3-.15-.59-.24-.88-.04-.14-.1-.27-.15-.41-.09-.25-.18-.49-.28-.73-.08-.18-.16-.34-.25-.51-.09-.19-.18-.38-.28-.56-.11-.2-.23-.38-.35-.57-.09-.15-.18-.3-.28-.45-.13-.2-.28-.38-.42-.57-.1-.13-.2-.26-.31-.39-.15-.18-.31-.34-.47-.51-.12-.13-.24-.26-.36-.38-.15-.15-.31-.29-.47-.43-.15-.13-.29-.26-.44-.38-.15-.12-.3-.23-.45-.34-.18-.13-.35-.26-.53-.38-.14-.09-.29-.18-.43-.26-.2-.12-.4-.24-.61-.35-.14-.07-.29-.14-.43-.21-.22-.1-.43-.21-.66-.3-.16-.06-.32-.12-.48-.18-.21-.08-.43-.16-.64-.22-.2-.06-.4-.11-.6-.15-.19-.05-.37-.1-.56-.13-.25-.05-.51-.08-.77-.12-.15-.02-.29-.05-.44-.06-.3-.03-.6-.04-.91-.05-.1,0-.2-.02-.3-.02-.03,0-.06,0-.09,0-.05,0-.09,0-.14,0-19.42.06-36.86,7.79-51.82,22.99C22.34,142.91,2.85,199.4-7.04,281.8c-7.22,60.12-6.52,111.36-6.48,113.51.11,6.84,5.68,12.31,12.49,12.31.07,0,.13,0,.2,0,6.9-.11,12.41-5.79,12.3-12.69,0-.51-.71-51.68,6.31-110.14,9.09-75.7,26.7-128.72,50.92-153.32,7.66-7.78,15.83-12.58,24.76-14.53,3.32,12.12,9.72,32.78,19.63,53.64,9.12,19.2,19.37,34.64,30.47,45.89,15.07,15.28,31.79,23.03,49.67,23.03h171.87c4.04,15.21,13.18,45.92,28.2,77,12.41,25.67,26.3,46.27,41.3,61.21,19.92,19.85,41.88,29.91,65.27,29.91,7.27,0,13.1-6.21,12.45-13.62Z"/>
</svg>