<?xml version="1.0" encoding="UTF-8"?>
<svg id="a" data-name="layer1" xmlns="http://www.w3.org/2000/svg" viewBox="0 0 500 500">
  <path d="M399.4,100.6c-26.18-26.18-60.99-40.6-98.01-40.6s-71.83,14.42-98.01,40.6c-18.28,18.27-31,41.03-36.88,65.9-24.87,5.88-47.62,18.6-65.89,36.88-26.18,26.18-40.6,60.99-40.6,98.01s14.42,71.83,40.6,98.02c26.18,26.18,60.99,40.6,98.02,40.6s71.83-14.42,98.01-40.6c18.28-18.28,31-41.03,36.88-65.9,24.87-5.88,47.62-18.6,65.89-36.88,26.18-26.18,40.6-60.99,40.6-98.01s-14.42-71.83-40.6-98.02ZM305.2,90.97c.37.01.74.03,1.11.04.52.02,1.03.05,1.54.08l.73.05c25.66,1.69,49.91,12.58,68.3,30.65,18.37,18.05,29.67,42.07,31.83,67.65v.1c.06.61.1,1.21.14,1.83l.05.85c.03.48.05.95.08,1.44.02.46.04.92.05,1.39l.03,1.05c.02.84.03,1.68.03,2.53s-.01,1.69-.03,2.53l-.03,1.04c-.02.46-.03.93-.05,1.4-.02.48-.05.95-.07,1.41l-.06.87c-.04.61-.08,1.22-.14,1.82v.11c-1.83,21.57-10.02,41.87-23.7,58.7-12.62,15.53-29.08,27.13-47.79,33.72-.3-36.59-14.69-70.94-40.59-96.84-25.9-25.9-60.26-40.29-96.84-40.59,14.21-40.23,51.64-68.82,94.41-71.64l.72-.05c.52-.03,1.03-.06,1.55-.08.37-.02.74-.03,1.11-.04l.47-.02c.28,0,.57-.02.85-.03.7-.02,1.41-.02,2.12-.03h.37s.37,0,.37,0c.71,0,1.41.01,2.12.03.29,0,.57.02.85.03l.47.02ZM205.81,408.86l-.72.05c-.52.03-1.03.06-1.55.08-.37.02-.73.03-1.1.04l-.48.02c-.28,0-.57.02-.85.03-.7.02-1.41.02-2.12.03h-.37s-.38,0-.38,0c-.71,0-1.41-.01-2.12-.03-.29,0-.57-.02-.85-.03l-.47-.02c-.37-.01-.74-.03-1.11-.04-.52-.02-1.04-.05-1.54-.08l-.73-.05c-25.66-1.69-49.91-12.58-68.3-30.65-18.37-18.05-29.67-42.07-31.82-67.56v-.18c-.06-.61-.11-1.22-.15-1.82l-.05-.86c-.03-.48-.05-.95-.08-1.43-.02-.46-.04-.93-.05-1.39l-.03-1.05c-.02-.84-.03-1.68-.03-2.53s.01-1.69.03-2.52l.03-1.05c.02-.46.03-.93.05-1.39.02-.48.05-.96.08-1.43l.05-.86c.04-.61.09-1.22.14-1.82v-.1c1.83-21.57,10.02-41.87,23.7-58.7,12.63-15.53,29.08-27.13,47.79-33.72.3,36.59,14.69,70.94,40.6,96.84,25.9,25.9,60.25,40.29,96.84,40.59-14.21,40.23-51.64,68.82-94.4,71.64Z"/>
</svg>