<?xml version="1.0" encoding="UTF-8"?>
<svg id="a" data-name="layer1" xmlns="http://www.w3.org/2000/svg" viewBox="0 0 500 500">
  <path d="M431.208,409.274h-35.476c-17.289,0-26.936-19.945-34.093-39.457-7.254-19.777-14.314-46.796-21.789-75.402-10.795-41.315-23.032-88.142-38.587-123.73-15.939-36.468-32.681-54.958-49.761-54.958h-3.009c-17.077,0-33.819,18.49-49.759,54.958-15.555,35.589-27.791,82.416-38.587,123.73-7.475,28.605-14.535,55.625-21.789,75.402-7.157,19.511-16.804,39.457-34.093,39.457h-35.476c-6.904,0-12.5-5.597-12.5-12.5s5.596-12.5,12.5-12.5h34.307c1.52-1.332,6.381-6.984,13.827-28.834,6.167-18.098,12.418-42.019,19.036-67.345,11.028-42.203,23.527-90.038,39.867-127.422,9.242-21.146,18.792-36.957,29.195-48.336,13.108-14.339,27.734-21.61,43.473-21.61h3.009c15.737,0,30.363,7.271,43.472,21.61,10.402,11.38,19.952,27.191,29.195,48.336,16.34,37.384,28.839,85.219,39.867,127.422,6.618,25.326,12.868,49.247,19.035,67.345,7.446,21.851,12.307,27.503,13.827,28.834h34.307c6.904,0,12.5,5.597,12.5,12.5s-5.596,12.5-12.5,12.5Z"/>
</svg>