<?xml version="1.0" encoding="UTF-8"?>
<svg id="a" data-name="layer1" xmlns="http://www.w3.org/2000/svg" width="1000" height="1000" viewBox="0 0 1000 1000">
  <path d="M833.49,752.068h-269.951c-8.541,0-16.14-5.424-18.915-13.502-18.035-52.497-32.284-109.586-44.855-159.955-6.654-26.66-12.939-51.841-19-73.136-.01-.033-.019-.067-.028-.1-6.166-21.708-12.469-46.956-19.142-73.685-11.339-45.418-24.06-96.372-39.55-143.767h-241.142c-15.456,47.31-28.151,98.178-39.469,143.526-6.701,26.852-13.031,52.215-19.23,74.02-3.021,10.624-14.082,16.789-24.707,13.769-10.624-3.021-16.788-14.083-13.768-24.707,6.021-21.18,12.274-46.238,18.896-72.767,12.599-50.482,26.879-107.7,44.973-160.342,2.776-8.076,10.374-13.499,18.914-13.499h269.924c8.539,0,16.137,5.422,18.913,13.497,18.131,52.731,32.435,110.028,45.055,160.581,6.602,26.443,12.837,51.419,18.835,72.528.009.029.017.058.024.087,6.231,21.903,12.586,47.36,19.312,74.308,11.29,45.235,23.953,95.972,39.355,143.144h241.161c15.395-47.153,28.053-97.863,39.337-143.071,6.745-27.021,13.116-52.543,19.362-74.476,3.024-10.623,14.089-16.782,24.714-13.757,10.623,3.026,16.782,14.09,13.757,24.714-6.066,21.3-12.36,46.513-19.023,73.206-12.566,50.342-26.81,107.4-44.836,159.88-2.774,8.078-10.373,13.503-18.915,13.503Z" fill="#000" stroke-width="0"/>
</svg>