<?xml version="1.0" encoding="UTF-8"?>
<svg id="a" data-name="layer1" xmlns="http://www.w3.org/2000/svg" width="1000" height="1000" viewBox="0 0 1000 1000">
  <path d="M899.548,712.157c-26.374,0-51.939-12.109-75.986-35.992-20.76-20.617-40.348-49.76-58.22-86.619-31.231-64.41-46.129-130.084-46.274-130.733-2.04-9.143-10.152-15.646-19.52-15.646h-290.619c-22.983,0-57.571-15.069-91.822-86.86-21.47-45-32.168-90.948-33.057-94.861-.003-.014-.007-.027-.009-.041-.03-.133-.049-.216-.052-.233-.035-.157-.088-.305-.126-.461-.115-.472-.234-.942-.383-1.401-.072-.223-.16-.436-.24-.655-.143-.394-.284-.788-.451-1.17-.122-.281-.262-.548-.396-.821-.149-.303-.292-.608-.456-.902-.174-.314-.366-.613-.556-.915-.15-.239-.295-.482-.455-.714-.215-.312-.447-.609-.679-.908-.162-.209-.32-.422-.49-.625-.238-.283-.491-.55-.744-.819-.191-.203-.377-.408-.576-.603-.243-.238-.499-.46-.754-.685-.233-.206-.462-.414-.704-.609-.236-.189-.481-.364-.725-.542-.281-.206-.56-.413-.851-.604-.226-.148-.46-.281-.691-.42-.323-.194-.646-.388-.981-.563-.227-.119-.462-.224-.694-.334-.348-.166-.694-.332-1.053-.478-.255-.104-.516-.19-.776-.284-.342-.123-.681-.249-1.031-.353-.317-.095-.64-.168-.963-.248-.3-.073-.597-.154-.902-.214-.406-.08-.818-.133-1.231-.188-.234-.031-.463-.072-.699-.095-.479-.046-.963-.062-1.448-.073-.161-.004-.319-.024-.481-.024-.049,0-.098.002-.147.002-.073,0-.146.001-.219.003-31.079.097-58.974,12.468-82.913,36.781-45.667,46.38-76.849,136.751-92.679,268.603-11.549,96.199-10.429,178.17-10.376,181.613.169,10.939,9.089,19.69,19.991,19.69.105,0,.211,0,.316-.002,11.044-.171,19.859-9.263,19.688-20.307-.013-.816-1.134-82.687,10.096-176.226,14.542-121.122,42.712-205.948,81.466-245.307,12.257-12.448,25.322-20.126,39.612-23.242,5.308,19.394,15.558,52.443,31.415,85.825,14.595,30.725,30.997,55.428,48.75,73.425,24.119,24.449,50.858,36.845,79.475,36.845h274.997c6.463,24.33,21.089,73.479,45.118,123.197,19.853,41.077,42.085,74.026,66.08,97.931,31.877,31.758,67.011,47.861,104.425,47.861,11.046,0,20-8.954,20-20s-8.954-20-20-20Z" fill="#000" stroke-width="0"/>
</svg>