<?xml version="1.0" encoding="UTF-8"?>
<svg id="a" data-name="layer1" xmlns="http://www.w3.org/2000/svg" viewBox="0 0 500 500">
  <path d="M500.11,407.01c-.82,0-1.66-.08-2.5-.25-2.65-.54-65.72-13.7-129.58-57.43-37.76-25.86-67.9-57.09-89.56-92.8-24.57-40.5-38.17-86.74-40.51-137.66-21.75,6.3-64.63,21.21-106.97,50.26-34.77,23.85-62.42,52.48-82.19,85.1-24.64,40.65-37.13,87.85-37.13,140.29,0,6.9-5.6,12.5-12.5,12.5s-12.5-5.6-12.5-12.5c0-57.28,13.8-108.99,41.03-153.71,21.74-35.71,51.99-66.94,89.89-92.8,64.08-43.73,127.37-56.89,130.03-57.42,3.67-.74,7.49.2,10.39,2.58,2.9,2.37,4.59,5.93,4.59,9.68,0,52.45,12.45,99.66,36.99,140.31,19.69,32.61,47.24,61.24,81.88,85.09,59.71,41.12,120.52,53.91,121.12,54.04,6.76,1.39,11.12,7.99,9.74,14.75-1.21,5.92-6.41,10.01-12.23,10.01Z"/>
</svg>