<?xml version="1.0" encoding="UTF-8"?>
<svg id="a" data-name="layer1" xmlns="http://www.w3.org/2000/svg" viewBox="0 0 500 500">
  <path d="M500,408.475c-75.508,0-149.391-15.699-219.594-46.661-56.016-24.705-109.793-59.12-159.838-102.289-50.503-43.564-86.646-86.795-108.069-115.38v251.83c0,6.904-5.596,12.5-12.5,12.5s-12.5-5.596-12.5-12.5V104.144c0-5.609,3.737-10.532,9.14-12.04,5.405-1.506,11.149.768,14.054,5.568.432.713,44.504,72.616,126.826,143.458,48.128,41.417,99.749,74.392,153.428,98.009,66.867,29.419,137.202,44.336,209.052,44.336,6.904,0,12.5,5.596,12.5,12.5s-5.596,12.5-12.5,12.5Z"/>
</svg>