<?xml version="1.0" encoding="UTF-8"?>
<svg id="a" data-name="layer1" xmlns="http://www.w3.org/2000/svg" viewBox="0 0 1000 1000">
  <path d="M505.6,404.6c49.51,0,89.8,40.28,89.8,89.8v10.83c0,49.51-40.28,89.8-89.8,89.8h-10.83c-49.51,0-89.8-40.28-89.8-89.8v-10.83c0-49.51,40.28-89.8,89.8-89.8h10.83M505.6,354.6h-10.83c-77.21,0-139.8,62.59-139.8,139.8v10.83c0,77.21,62.59,139.8,139.8,139.8h10.83c77.21,0,139.8-62.59,139.8-139.8v-10.83c0-77.21-62.59-139.8-139.8-139.8h0Z"/>
  <path d="M763.85,354.6h-10.83c-77.21,0-139.8,62.59-139.8,139.8v10.83c0,77.21,62.59,139.8,139.8,139.8h10.83c77.21,0,139.8-62.59,139.8-139.8v-10.83c0-77.21-62.59-139.8-139.8-139.8h0Z"/>
  <path d="M246.52,354.6h-10.83c-77.21,0-139.8,62.59-139.8,139.8v10.83c0,77.21,62.59,139.8,139.8,139.8h10.83c77.21,0,139.8-62.59,139.8-139.8v-10.83c0-77.21-62.59-139.8-139.8-139.8h0Z"/>
</svg>