<?xml version="1.0" encoding="UTF-8"?>
<svg id="a" data-name="layer1" xmlns="http://www.w3.org/2000/svg" viewBox="0 0 500 500">
  <path d="M438.96,61.04c-4.88-4.88-12.8-4.88-17.68,0l-51.21,51.21c-33.28-29.09-75.45-44.98-120.07-44.98-48.81,0-94.7,19.01-129.21,53.52-34.51,34.51-53.52,80.4-53.52,129.21,0,44.62,15.89,86.79,44.99,120.07l-51.21,51.21c-4.88,4.88-4.88,12.8,0,17.68,2.44,2.44,5.64,3.66,8.84,3.66s6.4-1.22,8.84-3.66l51.21-51.21c33.28,29.09,75.45,44.98,120.07,44.98,48.81,0,94.7-19.01,129.21-53.52,34.51-34.51,53.52-80.4,53.52-129.21,0-44.62-15.89-86.79-44.99-120.07l51.21-51.21c4.88-4.88,4.88-12.8,0-17.68ZM92.27,250c0-42.13,16.41-81.74,46.2-111.53,29.79-29.79,69.4-46.2,111.53-46.2,37.94,0,73.83,13.31,102.35,37.71l-222.37,222.37c-24.4-28.52-37.71-64.41-37.71-102.35ZM407.73,250c0,42.13-16.41,81.74-46.2,111.53-29.79,29.79-69.4,46.2-111.53,46.2-37.94,0-73.83-13.31-102.35-37.71l222.37-222.37c24.4,28.52,37.71,64.41,37.71,102.35Z"/>
</svg>