<?xml version="1.0" encoding="UTF-8"?>
<svg id="a" data-name="layer1" xmlns="http://www.w3.org/2000/svg" viewBox="0 0 500 500">
  <path d="M36.49,409.27h54.08c21.45,0,35.95-21.49,44.99-37.66,11.14-19.93,21.94-47.03,33.37-75.73,16.41-41.19,35-87.87,58.58-123.27,12.39-18.59,24.81-32.23,37.99-41.68,14.25-10.23,28.94-15.2,44.92-15.2h153.09c6.9,0,12.5-5.6,12.5-12.5s-5.6-12.5-12.5-12.5c0,0,0,0,0,0h-153.09c-21.09,0-41.1,6.69-59.49,19.89-15.67,11.24-30.13,26.99-44.22,48.13-25.03,37.58-44.14,85.55-61,127.88-11.12,27.92-21.62,54.28-31.96,72.78-12.09,21.63-19.71,24.86-23.17,24.86h-54.08c-6.9,0-12.5,5.6-12.5,12.5s5.6,12.5,12.5,12.5Z"/>
</svg>