<?xml version="1.0" encoding="UTF-8"?>
<svg id="a" data-name="layer1" xmlns="http://www.w3.org/2000/svg" viewBox="0 0 500 500">
  <path d="M500,408.47c-75.51,0-149.39-15.7-219.59-46.66-56.02-24.71-109.79-59.12-159.84-102.29-50.5-43.56-86.65-86.8-108.07-115.38v251.83c0,6.9-5.6,12.5-12.5,12.5s-12.5-5.6-12.5-12.5V104.14c0-5.61,3.74-10.53,9.14-12.04,5.41-1.51,11.15.77,14.05,5.57.43.71,44.5,72.62,126.83,143.46,48.13,41.42,99.75,74.39,153.43,98.01,66.87,29.42,137.2,44.34,209.05,44.34,6.9,0,12.5,5.6,12.5,12.5s-5.6,12.5-12.5,12.5Z"/>
</svg>