<?xml version="1.0" encoding="UTF-8"?>
<svg id="a" data-name="layer1" xmlns="http://www.w3.org/2000/svg" viewBox="0 0 500 500">
  <path d="M384.97,373.18c30.86-33.74,47.76-77.16,47.76-123.18,0-48.81-19.01-94.7-53.52-129.21-34.51-34.51-80.4-53.52-129.21-53.52-46.02,0-89.44,16.9-123.18,47.76-.57.41-1.13.85-1.64,1.37-.31.31-.6.64-.87.97-1.19,1.13-2.36,2.26-3.52,3.43-34.51,34.51-53.52,80.4-53.52,129.21s19.01,94.7,53.52,129.21c34.51,34.51,80.4,53.52,129.21,53.52s94.7-19.01,129.21-53.52c1.16-1.16,2.3-2.34,3.43-3.52.33-.27.66-.56.97-.87.51-.51.96-1.07,1.36-1.64ZM373.99,347.52l-101.92-101.92,97.95-97.95c24.4,28.52,37.71,64.41,37.71,102.35,0,35.83-11.87,69.83-33.74,97.52ZM352.35,129.98l-97.95,97.95-101.92-101.92c27.69-21.87,61.69-33.74,97.52-33.74,37.94,0,73.83,13.31,102.35,37.71ZM134.12,143.01l102.6,102.6-106.74,106.74c-24.4-28.52-37.71-64.41-37.71-102.35,0-40.03,14.82-77.78,41.85-106.99ZM147.65,370.02l106.74-106.74,102.6,102.6c-29.22,27.03-66.96,41.85-106.99,41.85-37.94,0-73.83-13.31-102.35-37.71Z"/>
</svg>