<?xml version="1.0" encoding="UTF-8"?>
<svg id="a" data-name="layer1" xmlns="http://www.w3.org/2000/svg" viewBox="0 0 1000 1000">
  <path d="M509.41,355h-10.61c-77.21,0-139.8,62.59-139.8,139.8v10.41c0,77.21,62.59,139.8,139.8,139.8h10.41c77.21,0,139.8-62.59,139.8-139.8v-10.61c0-77.1-62.5-139.59-139.59-139.59h0Z"/>
  <path d="M767.4,405c49.4,0,89.6,40.19,89.6,89.6v10.6c0,49.59-40.2,89.8-89.8,89.8h-10.41c-49.59,0-89.8-40.2-89.8-89.8v-10.41c0-49.59,40.2-89.8,89.8-89.8h10.2M767.41,355h-10.61c-77.21,0-139.8,62.59-139.8,139.8v10.41c0,77.21,62.59,139.8,139.8,139.8h10.41c77.21,0,139.8-62.59,139.8-139.8v-10.61c0-77.1-62.5-139.59-139.59-139.59h0Z"/>
  <path d="M250.4,405c49.4,0,89.6,40.19,89.6,89.6v10.6c0,49.59-40.2,89.8-89.8,89.8h-10.41c-49.59,0-89.8-40.2-89.8-89.8v-10.41c0-49.59,40.2-89.8,89.8-89.8h10.2M250.41,355h-10.61c-77.21,0-139.8,62.59-139.8,139.8v10.41c0,77.21,62.59,139.8,139.8,139.8h10.41c77.21,0,139.8-62.59,139.8-139.8v-10.61c0-77.1-62.5-139.59-139.59-139.59h0Z"/>
</svg>