<?xml version="1.0" encoding="UTF-8"?>
<svg id="a" data-name="layer1" xmlns="http://www.w3.org/2000/svg" viewBox="0 0 500 500">
  <path d="M450,437.26c-3.58,0-6.81,1.5-9.09,3.92-2.41,2.28-3.91,5.51-3.91,9.08,0,6.9,5.6,12.5,12.5,12.5h.5c6.9,0,12.5-5.6,12.5-12.5v-.5c0-6.9-5.6-12.5-12.5-12.5Z"/>
  <path d="M290.53,437.76h-1.05c-6.9,0-12.5,5.6-12.5,12.5s5.6,12.5,12.5,12.5h1.05c6.9,0,12.5-5.6,12.5-12.5s-5.6-12.5-12.5-12.5Z"/>
  <path d="M370.54,437.76h-1.05c-6.9,0-12.5,5.6-12.5,12.5s5.6,12.5,12.5,12.5h1.05c6.9,0,12.5-5.6,12.5-12.5s-5.6-12.5-12.5-12.5Z"/>
  <path d="M210.52,437.76h-1.05c-6.9,0-12.5,5.6-12.5,12.5s5.6,12.5,12.5,12.5h1.05c6.9,0,12.5-5.6,12.5-12.5s-5.6-12.5-12.5-12.5Z"/>
  <path d="M130.51,437.76h-1.05c-6.9,0-12.5,5.6-12.5,12.5s5.6,12.5,12.5,12.5h1.05c6.9,0,12.5-5.6,12.5-12.5s-5.6-12.5-12.5-12.5Z"/>
  <path d="M50,143.27c6.9,0,12.5-5.6,12.5-12.5v-1.05c0-6.9-5.6-12.5-12.5-12.5s-12.5,5.6-12.5,12.5v1.05c0,6.9,5.6,12.5,12.5,12.5Z"/>
  <path d="M50,383.31c6.9,0,12.5-5.6,12.5-12.5v-1.05c0-6.9-5.6-12.5-12.5-12.5s-12.5,5.6-12.5,12.5v1.05c0,6.9,5.6,12.5,12.5,12.5Z"/>
  <path d="M50,223.28c6.9,0,12.5-5.6,12.5-12.5v-1.05c0-6.9-5.6-12.5-12.5-12.5s-12.5,5.6-12.5,12.5v1.05c0,6.9,5.6,12.5,12.5,12.5Z"/>
  <path d="M50,303.3c6.9,0,12.5-5.6,12.5-12.5v-1.05c0-6.9-5.6-12.5-12.5-12.5s-12.5,5.6-12.5,12.5v1.05c0,6.9,5.6,12.5,12.5,12.5Z"/>
  <path d="M50,63.26c3.58,0,6.81-1.5,9.09-3.92,2.41-2.28,3.91-5.51,3.91-9.08,0-6.9-5.6-12.5-12.5-12.5h-.5c-6.9,0-12.5,5.6-12.5,12.5v.5c0,6.9,5.6,12.5,12.5,12.5Z"/>
  <path d="M369.49,62.76h1.05c6.9,0,12.5-5.6,12.5-12.5s-5.6-12.5-12.5-12.5h-1.05c-6.9,0-12.5,5.6-12.5,12.5s5.6,12.5,12.5,12.5Z"/>
  <path d="M289.48,62.76h1.05c6.9,0,12.5-5.6,12.5-12.5s-5.6-12.5-12.5-12.5h-1.05c-6.9,0-12.5,5.6-12.5,12.5s5.6,12.5,12.5,12.5Z"/>
  <path d="M209.47,62.76h1.05c6.9,0,12.5-5.6,12.5-12.5s-5.6-12.5-12.5-12.5h-1.05c-6.9,0-12.5,5.6-12.5,12.5s5.6,12.5,12.5,12.5Z"/>
  <path d="M129.46,62.76h1.05c6.9,0,12.5-5.6,12.5-12.5s-5.6-12.5-12.5-12.5h-1.05c-6.9,0-12.5,5.6-12.5,12.5s5.6,12.5,12.5,12.5Z"/>
  <path d="M462.5,50.22c0-.4-.02-.79-.06-1.19-.02-.19-.05-.38-.08-.57-.03-.22-.06-.43-.1-.64-.04-.21-.1-.42-.15-.63-.05-.19-.09-.38-.14-.56-.06-.2-.14-.4-.21-.6-.07-.19-.13-.38-.2-.56-.08-.18-.17-.36-.25-.54-.09-.19-.17-.38-.27-.57-.09-.17-.2-.33-.3-.5-.11-.18-.21-.37-.33-.55-.12-.18-.26-.35-.39-.53-.11-.15-.22-.31-.34-.46-.25-.3-.51-.59-.79-.87-.01-.02-.03-.03-.04-.05s-.03-.03-.05-.04c-.28-.28-.57-.54-.87-.79-.15-.12-.3-.22-.45-.33-.18-.13-.35-.27-.54-.39-.18-.12-.36-.22-.54-.33-.17-.1-.34-.21-.51-.3-.18-.1-.37-.18-.55-.27-.19-.09-.37-.18-.56-.26-.18-.07-.36-.13-.54-.2-.21-.07-.41-.15-.62-.22-.18-.05-.36-.09-.53-.14-.22-.06-.43-.12-.65-.16-.2-.04-.4-.06-.6-.09-.2-.03-.4-.07-.61-.09-.35-.03-.7-.05-1.05-.05-.06,0-.12,0-.18,0h-.5c-4.5,0-8.44,2.39-10.64,5.96L43.46,439.13c-3.57,2.2-5.96,6.14-5.96,10.64v.5c0,.41.02.82.06,1.23.02.18.05.36.08.54.03.22.06.45.1.67.04.21.1.41.15.61.05.19.09.38.15.57.06.2.14.39.21.59.07.19.13.38.21.56.08.18.17.36.25.54.09.19.17.38.27.57.09.17.2.33.3.5.11.18.21.37.33.55.12.18.26.35.39.53.11.15.22.31.34.45.25.31.52.6.8.88.01.01.02.02.03.03.01.01.02.02.03.03.28.28.58.55.88.8.14.12.29.22.44.33.18.13.35.27.54.4.18.12.36.22.54.33.17.1.34.21.51.3.18.1.37.18.56.27.18.09.36.18.55.25.18.08.37.14.55.2.2.07.4.15.6.21.19.06.37.1.56.14.21.05.41.11.62.15.22.04.44.07.65.1.19.03.37.06.55.08.41.04.82.06,1.23.06h.5c4.5,0,8.44-2.39,10.64-5.96L456.54,61.4c3.57-2.2,5.96-6.14,5.96-10.64v-.5s0-.03,0-.04Z"/>
  <path d="M450,357.25c-6.9,0-12.5,5.6-12.5,12.5v1.05c0,6.9,5.6,12.5,12.5,12.5s12.5-5.6,12.5-12.5v-1.05c0-6.9-5.6-12.5-12.5-12.5Z"/>
  <path d="M450,277.24c-6.9,0-12.5,5.6-12.5,12.5v1.05c0,6.9,5.6,12.5,12.5,12.5s12.5-5.6,12.5-12.5v-1.05c0-6.9-5.6-12.5-12.5-12.5Z"/>
  <path d="M450,197.23c-6.9,0-12.5,5.6-12.5,12.5v1.05c0,6.9,5.6,12.5,12.5,12.5s12.5-5.6,12.5-12.5v-1.05c0-6.9-5.6-12.5-12.5-12.5Z"/>
  <path d="M450,117.22c-6.9,0-12.5,5.6-12.5,12.5v1.05c0,6.9,5.6,12.5,12.5,12.5s12.5-5.6,12.5-12.5v-1.05c0-6.9-5.6-12.5-12.5-12.5Z"/>
</svg>