<?xml version="1.0" encoding="UTF-8"?>
<svg id="a" data-name="layer1" xmlns="http://www.w3.org/2000/svg" viewBox="0 0 500 500">
  <path d="M520.096,380.314l-126.025-170.3c-8.212-11.098-23.869-13.437-34.967-5.224-3.703,2.74-6.425,6.312-8.112,10.264h-150.834l-86.552-118.439c-2.732-3.739-7.306-5.659-11.891-4.995-4.583.666-8.422,3.811-9.976,8.173L-12.22,391.474c-2.318,6.503,1.075,13.654,7.578,15.971,1.387.494,2.803.729,4.196.729,5.137,0,9.951-3.191,11.775-8.307L107.359,130.436l76.36,104.493c2.354,3.221,6.103,5.125,10.093,5.125h160.288l125.805,170.003c4.903,6.626,12.46,10.13,20.116,10.13,5.167,0,10.379-1.596,14.851-4.906,11.099-8.213,13.438-23.868,5.225-34.967Z"/>
</svg>