<?xml version="1.0" encoding="UTF-8"?>
<svg id="a" data-name="layer1" xmlns="http://www.w3.org/2000/svg" viewBox="0 0 500 500">
  <path d="M510.48,388.38l-113.75-152.98c1.44-3.15,2.24-6.65,2.24-10.34,0-13.81-11.19-25-25-25h-181.07c-1.24,0-2.45.09-3.64.27l-75.66-103.54c-2.73-3.74-7.31-5.66-11.89-4.99-4.58.67-8.42,3.81-9.98,8.17L-12.22,391.64c-2.32,6.5,1.08,13.65,7.58,15.97,1.39.49,2.8.73,4.2.73,5.14,0,9.95-3.19,11.77-8.31L107.36,130.6l62.3,85.25c-1.13,2.85-1.75,5.95-1.75,9.2,0,13.81,11.19,25,25,25h181.07c.81,0,1.62-.04,2.41-.12l114.03,153.36c4.12,5.54,11.95,6.69,17.49,2.57,5.54-4.12,6.69-11.95,2.57-17.49Z"/>
</svg>