<?xml version="1.0" encoding="UTF-8"?>
<svg id="a" data-name="layer1" xmlns="http://www.w3.org/2000/svg" viewBox="0 0 1000 1000">
  <path d="M-.89,816.69c-2.79,0-5.62-.47-8.39-1.46-13.01-4.64-19.79-18.94-15.16-31.94L183.48,199.92c3.11-8.72,10.79-15.01,19.95-16.35,9.17-1.33,18.32,2.51,23.78,9.99l173.1,236.88h350.58c7.91,0,15.35,3.74,20.06,10.08l250,336.24c8.24,11.08,5.93,26.74-5.15,34.98-11.08,8.24-26.74,5.93-34.98-5.15l-242.5-326.15h-350.71c-7.98,0-15.48-3.81-20.18-10.25l-152.72-208.99L22.66,800.07c-3.65,10.23-13.28,16.61-23.55,16.61Z"/>
</svg>