<?xml version="1.0" encoding="UTF-8"?>
<svg id="a" data-name="layer1" xmlns="http://www.w3.org/2000/svg" viewBox="0 0 500 500">
  <path d="M-.446,408.121c-1.393,0-2.809-.234-4.196-.729-6.503-2.318-9.896-9.468-7.578-15.971L91.74,99.739c1.555-4.362,5.393-7.507,9.976-8.173,4.585-.664,9.158,1.256,11.891,4.995l86.552,118.439h175.29c3.953,0,7.673,1.87,10.031,5.042l125,168.118c4.119,5.54,2.967,13.37-2.573,17.49-5.541,4.118-13.371,2.967-17.49-2.573l-121.252-163.076h-175.354c-3.989,0-7.739-1.904-10.092-5.125l-76.36-104.493L11.329,399.815c-1.823,5.116-6.638,8.307-11.775,8.307Z"/>
</svg>