<?xml version="1.0" encoding="UTF-8"?>
<svg id="a" data-name="layer1" xmlns="http://www.w3.org/2000/svg" viewBox="0 0 500 500">
  <path d="M510.479,388.213l-125-168.118c-2.358-3.172-6.078-5.042-10.031-5.042h-159.555c-.785-1.831-1.798-3.598-3.055-5.258l-89.109-117.7c-8.334-11.008-24.014-13.176-35.022-4.842-10.966,8.302-13.156,23.892-4.934,34.894L-12.22,391.474c-2.318,6.503,1.075,13.654,7.578,15.971,1.387.494,2.803.729,4.196.729,5.137,0,9.951-3.191,11.775-8.307l90.487-253.881,71.158,93.989c4.916,6.494,12.389,9.911,19.951,9.911,5.257,0,10.557-1.652,15.072-5.069,1.848-1.399,3.44-3.008,4.782-4.764h156.388l121.252,163.076c4.119,5.54,11.949,6.691,17.49,2.573,5.54-4.119,6.692-11.949,2.573-17.49Z"/>
</svg>