<?xml version="1.0" encoding="UTF-8"?>
<svg id="a" data-name="layer1" xmlns="http://www.w3.org/2000/svg" viewBox="0 0 1000 1000">
  <path d="M-.03,815.5c-11.64,0-22.07-8.18-24.47-20.03-2.75-13.53,5.99-26.73,19.52-29.48,1.19-.24,122.8-25.83,242.23-108.07,69.27-47.7,124.37-104.96,163.76-170.18,49.1-81.3,73.99-175.71,73.99-280.61,0-13.81,11.19-25,25-25,100.16,0,190.42,32.59,268.27,96.87,61.29,50.61,114.76,120.78,158.93,208.57,74.33,147.72,96.61,293.11,97.53,299.23,2.04,13.66-7.38,26.38-21.04,28.42-13.67,2.03-26.37-7.38-28.41-21.03h0c-.21-1.43-22.27-144.56-93.27-285.19-41.04-81.29-90.18-145.83-146.04-191.82-62.12-51.14-133.14-79.44-211.44-84.29-3.84,104.33-31.13,198.96-81.28,281.64-43.33,71.43-103.59,133.88-179.12,185.61-127.71,87.47-253.85,113.79-259.15,114.87-1.68.34-3.35.5-5,.5Z"/>
</svg>