<?xml version="1.0" encoding="UTF-8"?>
<svg id="a" data-name="layer1" xmlns="http://www.w3.org/2000/svg" viewBox="0 0 500 500">
  <path d="M468.64,250c0-58.4-22.74-113.31-64.04-154.6-38.34-38.34-88.4-60.67-142.1-63.68V0c0-6.9-5.6-12.5-12.5-12.5s-12.5,5.6-12.5,12.5v31.72c-53.7,3.01-103.77,25.34-142.1,63.68C54.1,136.69,31.36,191.6,31.36,250s22.74,113.31,64.04,154.6c38.34,38.34,88.4,60.67,142.1,63.68v31.72c0,6.9,5.6,12.5,12.5,12.5s12.5-5.6,12.5-12.5v-31.72c53.7-3.01,103.77-25.34,142.1-63.68,41.3-41.3,64.04-96.2,64.04-154.6ZM56.36,250c0-102.57,80.17-186.76,181.14-193.23v386.45c-100.97-6.47-181.14-90.65-181.14-193.23ZM262.5,443.23V56.77c100.97,6.47,181.14,90.65,181.14,193.23s-80.17,186.76-181.14,193.23Z"/>
</svg>