<?xml version="1.0" encoding="UTF-8"?>
<svg id="a" data-name="layer1" xmlns="http://www.w3.org/2000/svg" viewBox="0 0 500 500">
  <path d="M508.733,393.392c-.249-1.786-6.32-44.252-25.36-87.381-26.429-59.867-65.166-91.511-112.021-91.511h-171.143c-2.44-12.217-7.498-33.136-16.663-54.258-19.678-45.351-48.777-69.317-84.151-69.307-6.898.002-12.476,5.604-12.476,12.502,0,47.381-5.226,91.693-15.532,131.707-8.217,31.9-19.663,61.158-34.023,86.962-19.532,35.097-40.847,56.556-49.392,63.002-5.513,4.123-6.656,11.933-2.547,17.464,2.453,3.302,6.224,5.047,10.044,5.047,2.591,0,5.205-.803,7.444-2.466,1.148-.853,28.432-21.441,55.416-69.318,15.619-27.712,28.048-59.069,36.943-93.198,10.002-38.378,15.523-80.41,16.481-125.112,19.394,5.109,35.729,22.609,48.673,52.24,12.657,28.973,16.866,58.645,16.906,58.933.848,6.19,6.136,10.803,12.384,10.803h181.637c89.472,0,112.4,155.777,112.621,157.351.874,6.249,6.227,10.769,12.364,10.769.574,0,1.157-.04,1.742-.121,6.837-.953,11.607-7.269,10.654-14.106Z"/>
</svg>