<?xml version="1.0" encoding="UTF-8"?>
<svg id="a" data-name="layer1" xmlns="http://www.w3.org/2000/svg" viewBox="0 0 1000 1000">
  <path d="M731.25,543.75v-250c0-.83-.04-1.65-.12-2.47-.04-.37-.1-.72-.16-1.08-.06-.45-.12-.89-.2-1.34-.08-.42-.2-.82-.3-1.23-.1-.38-.18-.76-.29-1.14-.12-.4-.27-.79-.41-1.18-.13-.38-.26-.76-.41-1.13-.15-.37-.33-.72-.5-1.08-.18-.38-.35-.77-.55-1.14-.18-.34-.39-.67-.59-1-.22-.37-.42-.74-.66-1.09-.25-.37-.52-.72-.79-1.07-.22-.3-.43-.6-.67-.89-1.05-1.27-2.21-2.44-3.49-3.49-.29-.24-.59-.44-.89-.67-.36-.27-.7-.54-1.07-.79-.36-.24-.73-.44-1.09-.66-.33-.2-.66-.41-1-.59-.37-.2-.76-.37-1.14-.55-.36-.17-.71-.35-1.08-.5-.37-.15-.75-.28-1.13-.41-.39-.14-.78-.29-1.18-.41-.38-.11-.76-.2-1.14-.29-.41-.1-.82-.22-1.23-.3-.44-.09-.89-.14-1.34-.2-.36-.05-.72-.12-1.08-.16-.82-.08-1.65-.12-2.47-.12h-250c-13.81,0-25,11.19-25,25,0,13.81,11.19,25,25,25h189.64l-352.15,352.15s-7.91,7.91-17.68,17.68c-9.76,9.76-9.76,25.59,0,35.36h0c9.76,9.76,25.59,9.76,35.36,0l369.82-369.82v189.64c0,6.9,2.8,13.15,7.32,17.68s10.77,7.32,17.68,7.32c13.81,0,25-11.19,25-25Z"/>
</svg>