<?xml version="1.0" encoding="UTF-8"?>
<svg id="a" data-name="layer1" xmlns="http://www.w3.org/2000/svg" viewBox="0 0 1000 1000">
  <path d="M1020.96,776.43l-250-336.24c-4.72-6.34-12.16-10.08-20.06-10.08h-319.11c-1.57-3.66-3.6-7.2-6.11-10.52l-178.22-235.4c-16.67-22.02-48.03-26.35-70.04-9.68-21.93,16.6-26.31,47.78-9.87,69.79L-24.44,782.95c-4.64,13.01,2.15,27.31,15.16,31.94,2.77.99,5.61,1.46,8.39,1.46,10.27,0,19.9-6.38,23.55-16.61l180.97-507.76,142.32,187.98c9.83,12.99,24.78,19.82,39.9,19.82,10.51,0,21.11-3.3,30.14-10.14,3.7-2.8,6.88-6.02,9.56-9.53h312.78l242.5,326.15c8.24,11.08,23.9,13.38,34.98,5.15,11.08-8.24,13.38-23.9,5.15-34.98Z"/>
</svg>