<?xml version="1.0" encoding="UTF-8"?>
<svg id="a" data-name="layer1" xmlns="http://www.w3.org/2000/svg" viewBox="0 0 500 500">
  <path d="M-.013,407.749c-5.822,0-11.033-4.088-12.236-10.015-1.374-6.765,2.997-13.364,9.762-14.738.597-.122,61.4-12.916,121.115-54.034,34.637-23.851,62.186-52.48,81.879-85.091,24.548-40.65,36.995-87.856,36.995-140.307,0-6.904,5.596-12.5,12.5-12.5,50.081,0,95.21,16.296,134.133,48.437,30.645,25.304,57.38,60.39,79.466,104.286,37.163,73.862,48.307,146.557,48.764,149.615,1.019,6.828-3.691,13.189-10.519,14.208-6.833,1.017-13.186-3.689-14.207-10.514h0c-.107-.714-11.135-72.282-46.635-142.596-20.522-40.647-45.089-72.917-73.018-95.912-31.058-25.571-66.571-39.719-105.72-42.147-1.918,52.163-15.565,99.48-40.64,140.818-21.664,35.715-51.797,66.938-89.561,92.803-63.857,43.736-126.923,56.896-129.576,57.435-.839.17-1.677.252-2.501.252Z"/>
</svg>