<?xml version="1.0" encoding="UTF-8"?>
<svg id="a" data-name="layer1" xmlns="http://www.w3.org/2000/svg" viewBox="0 0 500 500">
  <circle cx="62.53" cy="395.84" r="12.32" transform="translate(-62.6 15.13) rotate(-9.22)"/>
  <path d="M125.05,383.52c-6.81,0-12.32,5.52-12.32,12.32s5.52,12.32,12.32,12.32,12.32-5.52,12.32-12.32-5.52-12.32-12.32-12.32Z"/>
  <circle cx="187.57" cy="395.84" r="12.32" transform="translate(-249.92 417.65) rotate(-67.5)"/>
  <path d="M512.51,395.66c0-6.99-5.52-12.66-12.32-12.66-.03,0-.06,0-.09,0-.03,0-.06,0-.09,0-6.9,0-12.5.5-12.5.5h-225V104.5c0-6.9-5.6-12.5-12.5-12.5H-.62c-6.56,0-11.88,5.32-11.88,11.88v293.39c0,6.54,5.35,11.62,11.88,11.27l.62-.03s0,0,0,0c.21,0,.43,0,.64-.02,6.61-.33,11.86-5.8,11.86-12.48V116.5h225v279.5c0,6.9,5.6,12.5,12.5,12.5h250c5.62,0,10.38-3.81,11.95-9.06.36-1.19.56-2.46.56-3.78Z"/>
</svg>