<?xml version="1.0" encoding="UTF-8"?>
<svg id="a" data-name="layer1" xmlns="http://www.w3.org/2000/svg" viewBox="0 0 1000 1000">
  <path d="M292.3,431.16c-13.21.88-23.3,12.24-23.3,25.48v249.46c0,.73.03,1.46.1,2.19.03.37.13.98.18,1.35.06.45.12.9.21,1.34.08.42.2.82.3,1.23.1.38.18.76.29,1.14.12.4.27.79.41,1.18.13.38.26.76.41,1.13.15.37.33.72.5,1.08.18.38.35.77.55,1.14.18.34.39.67.59,1,.22.37.42.74.66,1.09.25.37.53.73.8,1.08.22.3.58.79.82,1.07.95,1.14,2,2.19,3.14,3.14.28.24.77.59,1.07.82.36.27.71.55,1.08.8.36.24.73.44,1.09.66.33.2.66.41,1,.59.37.2.76.37,1.14.55.36.17.71.35,1.08.5.37.15.75.28,1.13.41.39.14.78.29,1.18.41.38.11.76.2,1.14.29.41.1.82.22,1.23.3.44.09.89.14,1.34.21.37.05.98.15,1.35.18.73.06,1.46.1,2.19.1h249.49c12.79,0,24.53-10.39,25.44-23.15,1.05-14.64-10.51-26.85-24.93-26.85h-189.65l352.15-352.15s7.91-7.91,17.68-17.68c9.76-9.76,9.76-25.59,0-35.36h0c-9.76-9.76-25.59-9.76-35.36,0l-369.82,369.83v-189.65c0-6.9-2.8-13.15-7.32-17.68-4.89-4.89-11.81-7.77-19.38-7.27Z"/>
</svg>