<?xml version="1.0" encoding="UTF-8"?>
<svg id="a" data-name="layer1" xmlns="http://www.w3.org/2000/svg" viewBox="0 0 500 500">
  <path d="M384.97,373.178c30.859-33.741,47.762-77.159,47.762-123.178,0-48.809-19.008-94.697-53.521-129.211-34.514-34.513-80.401-53.521-129.211-53.521-46.019,0-89.437,16.903-123.177,47.76-.573.405-1.126.852-1.639,1.366-.311.311-.602.635-.873.969-1.186,1.125-2.361,2.265-3.521,3.425-34.514,34.514-53.521,80.402-53.521,129.211s19.008,94.697,53.521,129.211c34.514,34.513,80.401,53.521,129.211,53.521s94.697-19.007,129.211-53.521c1.16-1.16,2.3-2.336,3.425-3.521.334-.272.658-.562.969-.873.513-.513.96-1.066,1.365-1.639ZM373.989,347.522l-101.917-101.917,97.952-97.952c24.399,28.521,37.708,64.41,37.708,102.346,0,35.828-11.872,69.828-33.743,97.522ZM352.346,129.976l-97.952,97.952-101.917-101.917c27.694-21.871,61.694-33.742,97.522-33.742,37.937,0,73.826,13.309,102.346,37.707ZM134.117,143.006l102.6,102.6-106.741,106.741c-24.399-28.521-37.708-64.41-37.708-102.346,0-40.029,14.82-77.775,41.849-106.994ZM147.654,370.024l106.741-106.741,102.6,102.6c-29.218,27.029-66.965,41.848-106.994,41.848-37.937,0-73.826-13.309-102.346-37.707Z"/>
</svg>