<?xml version="1.0" encoding="UTF-8"?>
<svg id="a" data-name="layer1" xmlns="http://www.w3.org/2000/svg" viewBox="0 0 500 500">
  <path d="M432.369,298.636l-66.869,66.869V104c0-6.904-5.596-12.5-12.5-12.5H58.845c-6.395,0-12.263,5.197-12.722,11.575-.527,7.322,5.257,13.425,12.467,13.425h281.91v249.005l-66.869-66.869c-4.522-4.522-12.346-4.997-17.181-.811-5.55,4.805-5.775,13.21-.678,18.308l88.388,88.388c.292.292.598.568.918.829.142.116.291.217.437.326.181.135.358.275.546.401.177.118.36.221.541.329.169.101.334.207.507.3.185.099.375.183.564.272.181.085.359.176.545.253.184.076.371.137.557.204.198.071.394.147.597.209.186.056.376.098.564.145.207.052.411.11.622.152.221.044.444.07.667.102.184.027.484.074.669.09.368.033.737.05,1.106.05s.738-.018,1.106-.05c.185-.016.485-.064.669-.09.223-.032.446-.058.667-.102.211-.042.415-.1.622-.152.188-.047.378-.089.564-.145.203-.061.398-.137.597-.209.186-.067.374-.128.558-.204.185-.077.363-.167.544-.253.189-.089.379-.173.565-.272.174-.093.339-.199.507-.3.181-.108.365-.211.541-.329.188-.126.365-.266.546-.401.145-.109.295-.21.437-.326.319-.262.626-.538.918-.83l88.387-88.387c5.098-5.098,4.872-13.503-.678-18.308-4.835-4.186-12.659-3.711-17.181.811Z"/>
</svg>