<?xml version="1.0" encoding="UTF-8"?>
<svg id="a" data-name="layer1" xmlns="http://www.w3.org/2000/svg" width="1000" height="1000" viewBox="0 0 1000 1000">
  <path d="M906.207,480.803c-10.45-3.582-21.823,1.987-25.404,12.435-37.041,108.075-75.344,219.83-141.035,219.83-20.981,0-39.165-11.414-55.41-30.454,2.553-4.014,5.079-8.182,7.572-12.546,25.933-45.396,46.574-105.62,66.536-163.86,3.581-10.449-1.986-21.823-12.436-25.405-10.451-3.582-21.821,1.987-25.404,12.435-18.842,54.975-38.014,110.892-60.947,152.578-22.934-41.686-42.105-97.604-60.949-152.582-19.962-58.24-40.603-118.462-66.535-163.857-31.903-55.849-68.65-82.998-112.339-82.998-29.682,0-56.157,12.547-80.088,38.097-23.932-25.55-50.406-38.097-80.088-38.097-43.688,0-80.436,27.149-112.339,82.998-25.933,45.396-46.573,105.618-66.535,163.857l37.839,12.969c37.042-108.073,75.345-219.825,141.035-219.825,20.981,0,39.165,11.414,55.41,30.453-2.553,4.015-5.08,8.183-7.573,12.547-25.933,45.398-46.573,105.62-66.535,163.861-3.581,10.449,1.986,21.823,12.436,25.404,10.452,3.584,21.823-1.987,25.404-12.435,18.842-54.975,38.013-110.893,60.947-152.579,22.934,41.686,42.105,97.604,60.947,152.579,19.962,58.24,40.604,118.464,66.536,163.86,31.904,55.851,68.651,83,112.34,83,29.682,0,56.157-12.547,80.089-38.097,23.932,25.55,50.406,38.097,80.089,38.097,43.689,0,80.436-27.149,112.34-83,25.933-45.398,46.573-105.621,66.535-163.861,3.581-10.449-1.986-21.823-12.436-25.404ZM579.59,713.068c-65.69,0-103.994-111.755-141.036-219.83-19.962-58.24-40.603-118.463-66.535-163.861-2.493-4.365-5.02-8.532-7.573-12.547,16.245-19.039,34.428-30.453,55.41-30.453,65.69,0,103.993,111.752,141.038,219.833,19.961,58.24,40.603,118.462,66.534,163.858,2.493,4.364,5.019,8.531,7.572,12.545-16.245,19.04-34.429,30.453-55.41,30.453Z" fill="#000" stroke-width="0"/>
</svg>