<?xml version="1.0" encoding="UTF-8"?>
<svg id="a" data-name="layer1" xmlns="http://www.w3.org/2000/svg" viewBox="0 0 500 500">
  <path d="M510.479,388.213l-125-168.118c-2.358-3.172-6.078-5.042-10.031-5.042h-175.29l-72.777-99.59c4.535-12.915-2.163-27.102-15.061-31.78-12.98-4.708-27.319,2-32.025,14.979L-23.502,384.88c-4.707,12.98,1.999,27.318,14.979,32.025,2.814,1.021,5.692,1.504,8.521,1.504,10.223,0,19.817-6.318,23.504-16.484L117.116,143.788l66.602,91.141c2.354,3.221,6.103,5.125,10.093,5.125h175.354l121.252,163.076c4.119,5.54,11.949,6.691,17.49,2.573,5.54-4.119,6.692-11.949,2.573-17.49Z"/>
</svg>