<?xml version="1.0" encoding="UTF-8"?>
<svg id="a" data-name="layer1" xmlns="http://www.w3.org/2000/svg" viewBox="0 0 500 500">
  <path d="M432.73,250c0-48.81-19.01-94.7-53.52-129.21-31.55-31.55-72.61-50.13-116.71-53.09V29.39c0-6.9-5.6-12.5-12.5-12.5s-12.5,5.6-12.5,12.5v38.3c-44.1,2.96-85.16,21.54-116.71,53.09-34.51,34.51-53.52,80.4-53.52,129.21s19.01,94.7,53.52,129.21c31.55,31.55,72.61,50.13,116.71,53.09v38.3c0,6.9,5.6,12.5,12.5,12.5s12.5-5.6,12.5-12.5v-38.3c44.1-2.96,85.16-21.54,116.71-53.09,34.51-34.51,53.52-80.4,53.52-129.21ZM138.47,361.53c-29.79-29.79-46.2-69.4-46.2-111.53s16.41-81.74,46.2-111.53c26.83-26.83,61.61-42.79,99.03-45.71v314.48c-37.42-2.91-72.21-18.88-99.03-45.71ZM262.5,407.24V92.76c37.42,2.91,72.21,18.88,99.03,45.71,29.79,29.79,46.2,69.4,46.2,111.53s-16.41,81.74-46.2,111.53c-26.83,26.83-61.61,42.79-99.03,45.71Z"/>
</svg>