<?xml version="1.0" encoding="UTF-8"?>
<svg id="a" data-name="layer1" xmlns="http://www.w3.org/2000/svg" viewBox="0 0 500 500">
  <path d="M450,437.264c-3.579,0-6.807,1.504-9.085,3.915-2.411,2.278-3.915,5.506-3.915,9.085,0,6.903,5.597,12.5,12.5,12.5h.5c6.903,0,12.5-5.597,12.5-12.5v-.5c0-6.903-5.597-12.5-12.5-12.5Z"/>
  <path d="M290.531,437.764h-1.053c-6.903,0-12.5,5.597-12.5,12.5s5.597,12.5,12.5,12.5h1.053c6.903,0,12.5-5.597,12.5-12.5s-5.597-12.5-12.5-12.5Z"/>
  <path d="M370.542,437.764h-1.053c-6.903,0-12.5,5.597-12.5,12.5s5.597,12.5,12.5,12.5h1.053c6.903,0,12.5-5.597,12.5-12.5s-5.597-12.5-12.5-12.5Z"/>
  <path d="M210.521,437.764h-1.053c-6.903,0-12.5,5.597-12.5,12.5s5.597,12.5,12.5,12.5h1.053c6.903,0,12.5-5.597,12.5-12.5s-5.597-12.5-12.5-12.5Z"/>
  <path d="M130.51,437.764h-1.053c-6.903,0-12.5,5.597-12.5,12.5s5.597,12.5,12.5,12.5h1.053c6.904,0,12.5-5.597,12.5-12.5s-5.596-12.5-12.5-12.5Z"/>
  <path d="M50,303.295c6.903,0,12.5-5.597,12.5-12.5v-1.053c0-6.903-5.597-12.5-12.5-12.5s-12.5,5.597-12.5,12.5v1.053c0,6.903,5.597,12.5,12.5,12.5Z"/>
  <path d="M50,223.284c6.903,0,12.5-5.597,12.5-12.5v-1.053c0-6.903-5.597-12.5-12.5-12.5s-12.5,5.597-12.5,12.5v1.053c0,6.903,5.597,12.5,12.5,12.5Z"/>
  <path d="M50,143.275c6.903,0,12.5-5.597,12.5-12.5v-1.053c0-6.903-5.597-12.5-12.5-12.5s-12.5,5.597-12.5,12.5v1.053c0,6.903,5.597,12.5,12.5,12.5Z"/>
  <path d="M50,63.264c3.579,0,6.807-1.504,9.085-3.915,2.411-2.278,3.915-5.506,3.915-9.085,0-6.903-5.597-12.5-12.5-12.5h-.5c-6.903,0-12.5,5.597-12.5,12.5v.5c0,6.903,5.597,12.5,12.5,12.5Z"/>
  <path d="M289.479,62.764h1.053c6.903,0,12.5-5.597,12.5-12.5s-5.597-12.5-12.5-12.5h-1.053c-6.903,0-12.5,5.597-12.5,12.5s5.597,12.5,12.5,12.5Z"/>
  <path d="M209.469,62.764h1.053c6.903,0,12.5-5.597,12.5-12.5s-5.597-12.5-12.5-12.5h-1.053c-6.903,0-12.5,5.597-12.5,12.5s5.597,12.5,12.5,12.5Z"/>
  <path d="M129.458,62.764h1.053c6.903,0,12.5-5.597,12.5-12.5s-5.597-12.5-12.5-12.5h-1.053c-6.903,0-12.5,5.597-12.5,12.5s5.597,12.5,12.5,12.5Z"/>
  <path d="M462.493,50.127c0-.043.006-.084.006-.127,0-6.903-5.596-12.5-12.5-12.5-23.367,0-46.44,1.929-69.112,5.748-2.249-3.31-6.042-5.484-10.345-5.484h-1.053c-6.115,0-11.195,4.393-12.279,10.193-23.104,5.315-45.739,12.642-67.779,21.965-49.122,20.776-93.235,50.518-131.114,88.396-37.879,37.879-67.62,81.992-88.397,131.114-9.353,22.113-16.699,44.825-22.019,68.01-5.903.999-10.403,6.123-10.403,12.311v1.053c0,4.386,2.264,8.238,5.683,10.469-3.762,22.46-5.667,45.314-5.681,68.456,0,.011-.002.021-.002.033v.5c0,6.903,5.597,12.5,12.5,12.5h.5c6.903,0,12.5-5.597,12.5-12.5,0-1.177-.177-2.31-.481-3.39.4-51.212,10.627-100.89,30.427-147.703,19.517-46.142,47.458-87.583,83.05-123.175s77.033-63.533,123.175-83.05c46.485-19.661,95.794-29.887,146.627-30.421,1.315.47,2.725.738,4.201.738,6.903,0,12.5-5.597,12.5-12.5v-.5c0-.046-.006-.091-.007-.137Z"/>
  <path d="M450,277.243c-6.903,0-12.5,5.597-12.5,12.5v1.053c0,6.903,5.597,12.5,12.5,12.5s12.5-5.597,12.5-12.5v-1.053c0-6.903-5.597-12.5-12.5-12.5Z"/>
  <path d="M450,357.253c-6.903,0-12.5,5.597-12.5,12.5v1.053c0,6.903,5.597,12.5,12.5,12.5s12.5-5.597,12.5-12.5v-1.053c0-6.903-5.597-12.5-12.5-12.5Z"/>
  <path d="M450,117.222c-6.903,0-12.5,5.597-12.5,12.5v1.053c0,6.903,5.597,12.5,12.5,12.5s12.5-5.597,12.5-12.5v-1.053c0-6.903-5.597-12.5-12.5-12.5Z"/>
  <path d="M450,197.233c-6.903,0-12.5,5.597-12.5,12.5v1.053c0,6.903,5.597,12.5,12.5,12.5s12.5-5.597,12.5-12.5v-1.053c0-6.903-5.597-12.5-12.5-12.5Z"/>
</svg>