<?xml version="1.0" encoding="UTF-8"?>
<svg id="a" data-name="layer1" xmlns="http://www.w3.org/2000/svg" viewBox="0 0 500 500">
  <path d="M463.51,409.27h-54.08c-11.38,0-22.4-5.88-33.69-17.97-8.5-9.1-17.29-21.87-26.86-39.04-17.12-30.71-34.15-70.89-50.62-109.74-14.57-34.38-28.34-66.86-41.4-91.24-6.63-12.39-12.65-21.79-17.88-27.93-6.16-7.24-9.17-7.62-9.2-7.63-11.75,0-18.11,14.86-26.47,37.52-4.08,11.06-8.3,22.5-14.24,31.54-8.14,12.38-18.59,18.66-31.08,18.66H36.49c-6.9,0-12.5-5.6-12.5-12.5s5.6-12.5,12.5-12.5h121.52c8.72,0,14.32-13.41,21.86-33.86,4.37-11.85,8.89-24.11,15.59-33.98,8.95-13.19,20.5-19.88,34.32-19.89h.02c29.82,0,53.03,51.33,91.48,142.05,16.21,38.25,32.97,77.79,49.44,107.33,22.23,39.87,34.48,44.18,38.71,44.18h54.08c6.9,0,12.5,5.6,12.5,12.5s-5.6,12.5-12.5,12.5Z"/>
</svg>