<?xml version="1.0" encoding="UTF-8"?>
<svg id="a" data-name="layer1" xmlns="http://www.w3.org/2000/svg" viewBox="0 0 500 500">
  <circle cx="62.527" cy="395.84" r="12.323" transform="translate(-62.599 15.127) rotate(-9.217)"/>
  <path d="M125.05,383.517c-6.806,0-12.323,5.517-12.323,12.323s5.518,12.323,12.323,12.323,12.324-5.517,12.324-12.323-5.518-12.323-12.324-12.323Z"/>
  <circle cx="187.572" cy="395.84" r="12.323" transform="translate(-249.918 417.653) rotate(-67.5)"/>
  <path d="M512.508,395.659c0-6.991-5.517-12.659-12.323-12.659-.031,0-.061.002-.092.003-.031,0-.061-.003-.092-.003-6.904,0-12.5.5-12.5.5h-225V104.5c0-6.904-5.596-12.5-12.5-12.5H-.622c-6.56,0-11.878,5.318-11.878,11.878v293.388c0,6.543,5.346,11.615,11.88,11.271l.622-.033s.002,0,.002,0c.214,0,.426-.005.637-.016,6.606-.334,11.859-5.795,11.859-12.484V116.5h225v279.5c0,6.904,5.596,12.5,12.5,12.5h250c5.622,0,10.376-3.813,11.948-9.058.364-1.195.56-2.465.56-3.783Z"/>
</svg>