<?xml version="1.0" encoding="UTF-8"?>
<svg id="a" data-name="layer1" xmlns="http://www.w3.org/2000/svg" viewBox="0 0 1000 1000">
  <path d="M927.02,818.55h-108.15c-42.9,0-71.9-42.99-89.98-75.32-22.28-39.86-43.88-94.07-66.74-151.47-32.81-82.38-70-175.75-117.17-246.54-24.77-37.18-49.63-64.45-75.98-83.37-28.5-20.46-57.89-30.4-89.83-30.4H72.98c-13.81,0-25-11.19-25-25s11.19-25,25-25c0,0,0,0,0,0h306.19c42.17,0,82.21,13.38,118.98,39.78,31.34,22.49,60.27,53.98,88.44,96.27,50.07,75.15,88.29,171.1,122.01,255.76,22.24,55.83,43.24,108.57,63.93,145.57,24.19,43.26,39.42,49.72,46.34,49.72h108.15c13.81,0,25,11.19,25,25s-11.19,25-25,25Z"/>
</svg>