<?xml version="1.0" encoding="UTF-8"?>
<svg id="a" data-name="layer1" xmlns="http://www.w3.org/2000/svg" viewBox="0 0 500 500">
  <path d="M312.464,452.76c-6.903,0-12.5-5.597-12.5-12.5V59.739c0-6.903,5.597-12.5,12.5-12.5s12.5,5.597,12.5,12.5v380.521c0,6.903-5.597,12.5-12.5,12.5Z"/>
  <path d="M178.896,452.76c-6.903,0-12.5-5.597-12.5-12.5V59.739c0-6.903,5.597-12.5,12.5-12.5s12.5,5.597,12.5,12.5v380.521c0,6.903-5.597,12.5-12.5,12.5Z"/>
  <path d="M435.941,195.717H55.419c-6.903,0-12.5-5.597-12.5-12.5s5.597-12.5,12.5-12.5h380.521c6.903,0,12.5,5.597,12.5,12.5s-5.597,12.5-12.5,12.5Z"/>
  <path d="M435.941,329.284H55.419c-6.903,0-12.5-5.597-12.5-12.5s5.597-12.5,12.5-12.5h380.521c6.903,0,12.5,5.597,12.5,12.5s-5.597,12.5-12.5,12.5Z"/>
  <path d="M245.68,275c-13.785,0-25-11.215-25-25s11.215-25,25-25,25,11.215,25,25-11.215,25-25,25ZM245.679,249.984v.016c0-.011,0-.016,0-.016Z"/>
  <path d="M101.739,418.942c-13.785,0-25-11.215-25-25s11.215-25,25-25,25,11.215,25,25-11.215,25-25,25ZM101.738,393.927v.016c0-.011,0-.016,0-.016Z"/>
  <path d="M383.588,137.093c-13.785,0-25-11.215-25-25s11.215-25,25-25,25,11.215,25,25-11.215,25-25,25ZM383.587,112.077v.016c0-.011,0-.016,0-.016Z"/>
</svg>