<?xml version="1.0" encoding="UTF-8"?>
<svg id="a" data-name="layer1" xmlns="http://www.w3.org/2000/svg" width="1000" height="1000" viewBox="0 0 1000 1000">
  <path d="M655.879,346.278c-9.121-9.121-18.907-17.335-29.245-24.603l73.715-128.995c5.48-9.59,2.149-21.808-7.441-27.288-9.588-5.479-21.806-2.147-27.287,7.441l-73.691,128.954c-28.153-12.851-58.979-19.631-90.852-19.631-58.477,0-113.452,22.772-154.801,64.121-41.35,41.349-64.121,96.325-64.121,154.801s22.771,113.453,64.121,154.801c9.121,9.121,18.907,17.335,29.245,24.603l-73.715,128.995c-5.48,9.59-2.149,21.808,7.441,27.288,3.13,1.789,6.54,2.639,9.904,2.639,6.943,0,13.691-3.621,17.383-10.08l73.691-128.954c28.152,12.851,58.978,19.63,90.851,19.63,58.477,0,113.453-22.772,154.802-64.121,41.35-41.349,64.121-96.325,64.121-154.801s-22.771-113.453-64.121-154.801ZM501.077,680.001c-25.155,0-49.108-5.228-70.846-14.638l176.389-308.666c44.455,32.584,73.379,85.165,73.379,144.382,0,98.658-80.265,178.922-178.923,178.922ZM501.077,322.157c25.155,0,49.108,5.228,70.846,14.638l-176.389,308.667c-44.455-32.584-73.379-85.165-73.379-144.383,0-98.658,80.264-178.922,178.922-178.922Z" fill="#000" stroke-width="0"/>
</svg>