<?xml version="1.0" encoding="UTF-8"?>
<svg id="a" data-name="layer1" xmlns="http://www.w3.org/2000/svg" width="1000" height="1000" viewBox="0 0 1000 1000">
  <path d="M900,753.583c-120.813,0-239.025-25.119-351.35-74.658-89.626-39.528-175.669-94.592-255.74-163.662-80.805-69.703-138.633-138.872-172.91-184.607v402.927c0,11.046-8.954,20-20,20s-20-8.954-20-20v-466.928c0-8.975,5.979-16.852,14.624-19.264,8.648-2.41,17.839,1.229,22.486,8.909.691,1.14,71.207,116.185,202.922,229.532,77.005,66.267,159.599,119.027,245.484,156.814,106.987,47.07,219.523,70.937,334.483,70.937,11.046,0,20,8.954,20,20s-8.954,20-20,20Z" fill="#000" stroke-width="0"/>
</svg>