<?xml version="1.0" encoding="UTF-8"?>
<svg id="a" data-name="layer1" xmlns="http://www.w3.org/2000/svg" viewBox="0 0 1000 1000">
  <path d="M1040.19,760.63l-252.05-340.6c-16.42-22.2-47.74-26.87-69.93-10.45-7.41,5.48-12.85,12.62-16.22,20.53h-301.67l-173.1-236.88c-5.46-7.48-14.61-11.32-23.78-9.99-9.17,1.33-16.84,7.62-19.95,16.35L-24.44,782.95c-4.64,13.01,2.15,27.31,15.16,31.94,2.77.99,5.61,1.46,8.39,1.46,10.27,0,19.9-6.38,23.55-16.61L214.72,260.87l152.72,208.99c4.71,6.44,12.21,10.25,20.19,10.25h320.58l251.61,340.01c9.81,13.25,24.92,20.26,40.23,20.26,10.33,0,20.76-3.19,29.7-9.81,22.2-16.43,26.88-47.74,10.45-69.93Z"/>
</svg>