<?xml version="1.0" encoding="UTF-8"?>
<svg id="a" data-name="layer1" xmlns="http://www.w3.org/2000/svg" viewBox="0 0 500 500">
  <path d="M504.92,238.51c-6.35-2.72-13.69.22-16.41,6.57-15.1,35.24-30.72,71.68-49.46,97.92-19.66,27.52-40.01,40.34-64.05,40.34s-44.39-12.82-64.05-40.34c-18.75-26.25-34.36-62.68-49.46-97.92-15.62-36.46-31.78-74.16-52.1-102.61-24.42-34.19-52.02-50.81-84.39-50.81s-59.97,16.62-84.39,50.81c-20.32,28.44-36.47,66.15-52.1,102.61-2.72,6.35.22,13.69,6.57,16.41,6.35,2.72,13.69-.22,16.41-6.57,15.1-35.24,30.72-71.68,49.46-97.92,19.66-27.52,40.01-40.34,64.05-40.34s44.39,12.82,64.05,40.34c18.54,25.96,34.02,61.89,48.97,96.76.31,1.16.78,2.25,1.39,3.25,15.35,35.81,31.27,72.61,51.2,100.51,24.42,34.19,52.02,50.81,84.39,50.81s59.97-16.62,84.39-50.81c20.32-28.44,36.47-66.15,52.1-102.61,2.72-6.35-.22-13.69-6.57-16.41Z"/>
  <circle cx="62.34" cy="250.59" r="12.32"/>
  <circle cx="124.87" cy="250.59" r="12.32"/>
  <path d="M187.39,238.27c-6.81,0-12.32,5.52-12.32,12.32s5.52,12.32,12.32,12.32,12.32-5.52,12.32-12.32-5.52-12.32-12.32-12.32Z"/>
  <circle cx="312.43" cy="250.59" r="12.32"/>
  <circle cx="374.96" cy="250.59" r="12.32"/>
  <path d="M437.48,262.92c6.81,0,12.32-5.52,12.32-12.32s-5.52-12.32-12.32-12.32-12.32,5.52-12.32,12.32,5.52,12.32,12.32,12.32Z"/>
</svg>