<?xml version="1.0" encoding="UTF-8"?>
<svg id="a" data-name="layer1" xmlns="http://www.w3.org/2000/svg" viewBox="0 0 500 500">
  <circle cx="62.343" cy="250.594" r="12.323"/>
  <circle cx="124.865" cy="250.594" r="12.323"/>
  <path d="M187.388,238.27c-6.806,0-12.324,5.517-12.324,12.323s5.518,12.323,12.324,12.323,12.323-5.517,12.323-12.323-5.518-12.323-12.323-12.323Z"/>
  <circle cx="312.433" cy="250.594" r="12.323"/>
  <circle cx="374.955" cy="250.594" r="12.323"/>
  <path d="M437.477,262.917c6.806,0,12.324-5.517,12.324-12.323s-5.518-12.323-12.324-12.323-12.323,5.517-12.323,12.323,5.517,12.323,12.323,12.323Z"/>
  <path d="M500.925,237.193c-7.322-.527-13.425,5.257-13.425,12.467v133.841h-225V104.5c0-6.904-5.596-12.5-12.5-12.5H0c-6.904,0-12.5,5.596-12.5,12.5v145.585c0,6.395,5.197,12.264,11.575,12.722,7.322.527,13.425-5.257,13.425-12.467V116.5h225v279c0,6.904,5.596,12.5,12.5,12.5h250c6.904,0,12.5-5.596,12.5-12.5v-145.585c0-6.395-5.197-12.264-11.575-12.722Z"/>
</svg>