<?xml version="1.0" encoding="UTF-8"?>
<svg id="a" data-name="layer1" xmlns="http://www.w3.org/2000/svg" viewBox="0 0 1000 1000">
  <path d="M916.86,815h-337.47c-10.67,0-20.17-6.78-23.64-16.87-22.54-65.6-40.34-136.94-56.05-199.88-8.32-33.31-16.17-64.78-23.74-91.39-.01-.04-.02-.08-.04-.13-7.71-27.13-15.58-58.68-23.92-92.08-14.17-56.76-30.07-120.43-49.42-179.65H101.13c-19.32,59.14-35.19,122.72-49.34,179.41-8.38,33.57-16.29,65.27-24.04,92.52-3.78,13.28-17.6,20.99-30.88,17.21-13.28-3.78-20.99-17.6-17.21-30.88,7.53-26.48,15.34-57.8,23.62-90.96,15.75-63.1,33.6-134.63,56.22-200.43,3.47-10.1,12.97-16.87,23.64-16.87h337.43c10.67,0,20.16,6.78,23.63,16.87,22.66,65.89,40.53,137.49,56.3,200.66,8.25,33.04,16.04,64.25,23.54,90.63.01.04.02.07.03.11,7.79,27.37,15.73,59.18,24.13,92.86,14.11,56.53,29.93,119.93,49.18,178.87h301.48c19.24-58.94,35.07-122.33,49.17-178.84,8.43-33.78,16.4-65.68,24.2-93.09,3.78-13.28,17.61-20.98,30.89-17.2,13.28,3.78,20.98,17.61,17.2,30.89-7.58,26.62-15.45,58.14-23.78,91.51-15.71,62.93-33.51,134.25-56.04,199.85-3.47,10.1-12.97,16.88-23.64,16.88Z"/>
</svg>