<?xml version="1.0" encoding="UTF-8"?>
<svg id="a" data-name="layer1" xmlns="http://www.w3.org/2000/svg" viewBox="0 0 1000 1000">
  <path d="M901.62,401.85c8.72-9.96,7.82-25.13-1.54-34.49l-176.4-176.4c-.52-.52-1.06-1.01-1.62-1.48-.29-.24-.78-.6-1.08-.83-.36-.27-.72-.55-1.1-.81-.35-.24-.72-.44-1.09-.66-.34-.2-.67-.41-1.01-.6-.37-.2-.75-.37-1.13-.54-.36-.17-.72-.35-1.09-.51-.37-.15-.74-.27-1.12-.41-.4-.14-.79-.29-1.19-.42-.37-.11-.75-.2-1.13-.29-.41-.1-.82-.22-1.24-.3-.44-.09-.89-.14-1.33-.2-.37-.05-.97-.15-1.34-.18-1.48-.13-2.96-.13-4.44,0-.37.03-.97.13-1.34.18-.44.06-.89.12-1.33.2-.42.08-.83.2-1.24.3-.38.09-.76.18-1.13.29-.41.12-.8.27-1.19.42-.37.13-.75.26-1.11.41-.37.15-.73.33-1.09.51-.38.18-.76.35-1.13.54-.35.19-.68.4-1.01.6-.36.22-.73.42-1.09.66-.38.25-.73.53-1.09.8-.3.22-.79.59-1.08.83-.56.47-1.1.96-1.62,1.48l-176.41,176.41c-9.04,9.04-9.99,24.69-1.62,34.36,9.61,11.1,26.42,11.55,36.62,1.36l134.1-134.1v498.01H117.69c-12.79,0-24.53,10.39-25.44,23.15-1.05,14.64,10.51,26.85,24.93,26.85h588.82c13.81,0,25-11.19,25-25V268.99l134.1,134.1c4.88,4.88,11.28,7.32,17.68,7.32,6.92,0,13.84-2.86,18.84-8.57Z"/>
</svg>