<?xml version="1.0" encoding="UTF-8"?>
<svg id="a" data-name="layer1" xmlns="http://www.w3.org/2000/svg" viewBox="0 0 1000 1000">
  <path d="M1020.96,776.43l-250-336.24c-4.72-6.34-12.16-10.08-20.06-10.08h-350.58l-145.55-199.18c9.07-25.83-4.33-54.2-30.12-63.56-25.96-9.42-54.64,4-64.05,29.96L-47,769.76c-9.41,25.96,4,54.64,29.96,64.05,5.63,2.04,11.38,3.01,17.04,3.01,20.45,0,39.63-12.64,47.01-32.97L234.23,287.58l133.2,182.28c4.71,6.44,12.21,10.25,20.19,10.25h350.71l242.5,326.15c8.24,11.08,23.9,13.38,34.98,5.15,11.08-8.24,13.38-23.9,5.15-34.98Z"/>
</svg>