<?xml version="1.0" encoding="UTF-8"?>
<svg id="a" data-name="layer1" xmlns="http://www.w3.org/2000/svg" viewBox="0 0 500 500">
  <path d="M404.6,95.4c-41.3-41.3-96.2-64.04-154.6-64.04s-113.31,22.74-154.6,64.04C54.1,136.69,31.36,191.6,31.36,250s22.74,113.31,64.04,154.6c41.3,41.3,96.2,64.04,154.6,64.04s113.31-22.74,154.6-64.04c41.3-41.3,64.04-96.2,64.04-154.6s-22.74-113.31-64.04-154.6ZM395.41,377.73l-127.73-127.73,127.73-127.73c30.01,34.12,48.23,78.83,48.23,127.73s-18.23,93.61-48.23,127.73ZM377.73,104.59l-127.73,127.73-127.73-127.73c34.12-30.01,78.83-48.23,127.73-48.23s93.61,18.23,127.73,48.23ZM104.59,122.27l127.73,127.73-127.73,127.73c-30.01-34.12-48.23-78.83-48.23-127.73s18.23-93.61,48.23-127.73ZM122.27,395.41l127.73-127.73,127.73,127.73c-34.12,30.01-78.83,48.23-127.73,48.23s-93.61-18.23-127.73-48.23Z"/>
</svg>