<?xml version="1.0" encoding="UTF-8"?>
<svg id="a" data-name="layer1" xmlns="http://www.w3.org/2000/svg" viewBox="0 0 500 500">
  <path d="M503.62,237.96c-6.55-2.11-13.56,1.73-15.79,8.24-23.11,67.43-47.04,137-88.01,137-13.11,0-24.48-7.13-34.63-19.03,1.6-2.51,3.17-5.11,4.73-7.84,16.15-28.27,29.02-65.74,41.45-102.02,2.23-6.51-.95-13.85-7.42-16.19-6.59-2.39-13.83,1.09-16.1,7.7-11.78,34.36-23.76,69.31-38.09,95.36-14.33-26.05-26.32-61-38.09-95.36-12.48-36.4-25.38-74.04-41.58-102.41-19.94-34.91-42.91-51.87-70.21-51.87-18.55,0-35.1,7.84-50.06,23.81-14.96-15.97-31.5-23.81-50.06-23.81-27.31,0-50.27,16.97-70.21,51.87-14.45,25.3-26.28,57.97-37.51,90.56-2.25,6.54,1.22,13.66,7.76,15.91h0c6.52,2.23,13.62-1.23,15.87-7.74,21.94-63.64,45.43-125.6,84.1-125.6,13.11,0,24.48,7.13,34.63,19.03-1.6,2.51-3.17,5.11-4.73,7.84-16.15,28.27-29.01,65.74-41.45,102.02-2.23,6.51.95,13.85,7.42,16.2s13.83-1.09,16.09-7.7c11.78-34.36,23.76-69.31,38.09-95.36,14.33,26.05,26.32,61,38.09,95.36,12.48,36.4,25.38,74.04,41.59,102.41,19.94,34.91,42.91,51.88,70.21,51.88,18.55,0,35.1-7.84,50.06-23.81,14.96,15.97,31.5,23.81,50.06,23.81,27.31,0,50.27-16.97,70.21-51.88,16.21-28.37,29.11-66.01,41.58-102.41,2.26-6.6-1.32-13.8-7.99-15.95ZM299.71,383.2c-41.06,0-65-69.85-88.15-137.39-12.48-36.4-25.38-74.04-41.58-102.41-1.56-2.73-3.14-5.33-4.73-7.84,10.15-11.9,21.52-19.03,34.63-19.03,41.06,0,65,69.85,88.15,137.4,12.48,36.4,25.38,74.04,41.58,102.41,1.56,2.73,3.14,5.33,4.73,7.84-10.15,11.9-21.52,19.03-34.63,19.03Z"/>
</svg>