<?xml version="1.0" encoding="UTF-8"?>
<svg id="a" data-name="layer1" xmlns="http://www.w3.org/2000/svg" width="1000" height="1000" viewBox="0 0 1000 1000">
  <path d="M788.581,346.278c-41.349-41.349-96.325-64.121-154.802-64.121-48.474,0-94.534,15.662-132.428,44.568-37.895-28.906-83.954-44.568-132.428-44.568-58.477,0-113.453,22.772-154.802,64.121-41.35,41.349-64.121,96.325-64.121,154.801s22.771,113.453,64.121,154.801c41.349,41.349,96.325,64.121,154.802,64.121,48.474,0,94.534-15.662,132.428-44.568,37.895,28.906,83.954,44.568,132.428,44.568,58.477,0,113.453-22.772,154.802-64.121,41.35-41.349,64.121-96.325,64.121-154.801s-22.771-113.453-64.121-154.801ZM633.779,680.001c-38.028,0-73.316-11.934-102.335-32.241,36.453-40.294,56.401-91.954,56.401-146.681s-19.948-106.387-56.401-146.681c29.019-20.307,64.307-32.241,102.335-32.241,98.658,0,178.923,80.264,178.923,178.922s-80.265,178.922-178.923,178.922ZM368.923,322.157c38.028,0,73.316,11.934,102.335,32.241-36.453,40.294-56.401,91.954-56.401,146.681s19.948,106.387,56.401,146.681c-29.019,20.307-64.307,32.241-102.335,32.241-98.658,0-178.923-80.264-178.923-178.922s80.265-178.922,178.923-178.922ZM454.857,501.079c0-46.223,17.619-88.408,46.494-120.193,28.875,31.785,46.494,73.97,46.494,120.193s-17.619,88.408-46.494,120.193c-28.875-31.785-46.494-73.97-46.494-120.193Z" fill="#000" stroke-width="0"/>
</svg>