<?xml version="1.0" encoding="UTF-8"?>
<svg id="a" data-name="layer1" xmlns="http://www.w3.org/2000/svg" viewBox="0 0 500 500">
  <path d="M503.625,237.963c-6.55-2.112-13.559,1.726-15.79,8.236-23.109,67.426-47.035,137.003-88.013,137.003-13.113,0-24.478-7.134-34.631-19.034,1.596-2.509,3.175-5.114,4.733-7.841,16.15-28.271,29.016-65.742,41.45-102.02,2.232-6.513-.949-13.845-7.42-16.194-6.591-2.392-13.831,1.093-16.095,7.695-11.776,34.359-23.759,69.307-38.092,95.361-14.334-26.054-26.316-61.003-38.093-95.364-12.476-36.4-25.377-74.039-41.584-102.411-19.94-34.906-42.906-51.874-70.212-51.874-18.551,0-35.098,7.842-50.055,23.811-14.957-15.969-31.504-23.811-50.055-23.811-27.305,0-50.272,16.968-70.212,51.874-14.453,25.301-26.276,57.971-37.514,90.559-2.254,6.538,1.22,13.665,7.762,15.907h0c6.518,2.234,13.62-1.227,15.866-7.741,21.943-63.64,45.428-125.6,84.098-125.6,13.113,0,24.478,7.133,34.631,19.033-1.596,2.509-3.175,5.114-4.733,7.842-16.149,28.271-29.015,65.74-41.449,102.017-2.233,6.514.948,13.848,7.421,16.198,6.591,2.392,13.83-1.094,16.093-7.696,11.776-34.36,23.758-69.308,38.092-95.362,14.334,26.054,26.315,61.002,38.092,95.362,12.476,36.4,25.377,74.04,41.585,102.413,19.94,34.907,42.907,51.875,70.212,51.875,18.551,0,35.098-7.842,50.055-23.811,14.957,15.969,31.504,23.811,50.056,23.811,27.306,0,50.272-16.968,70.212-51.875,16.208-28.374,29.108-66.013,41.584-102.413,2.263-6.604-1.32-13.799-7.994-15.951ZM299.71,383.202c-41.057,0-64.996-69.847-88.148-137.393-12.476-36.4-25.377-74.039-41.584-102.413-1.558-2.728-3.137-5.333-4.733-7.842,10.153-11.9,21.518-19.033,34.631-19.033,41.057,0,64.996,69.845,88.149,137.396,12.476,36.4,25.377,74.039,41.584,102.411,1.558,2.727,3.137,5.332,4.732,7.841-10.153,11.9-21.518,19.033-34.631,19.033Z"/>
</svg>