<?xml version="1.0" encoding="UTF-8"?>
<svg id="a" data-name="layer1" xmlns="http://www.w3.org/2000/svg" viewBox="0 0 500 500">
  <path d="M431.21,409.27h-35.48c-17.29,0-26.94-19.95-34.09-39.46-7.25-19.78-14.31-46.8-21.79-75.4-10.8-41.31-23.03-88.14-38.59-123.73-15.94-36.47-32.68-54.96-49.76-54.96h-3.01c-17.08,0-33.82,18.49-49.76,54.96-15.56,35.59-27.79,82.42-38.59,123.73-7.47,28.61-14.54,55.62-21.79,75.4-7.16,19.51-16.8,39.46-34.09,39.46h-35.48c-6.9,0-12.5-5.6-12.5-12.5s5.6-12.5,12.5-12.5h34.31c1.52-1.33,6.38-6.98,13.83-28.83,6.17-18.1,12.42-42.02,19.04-67.35,11.03-42.2,23.53-90.04,39.87-127.42,9.24-21.15,18.79-36.96,29.19-48.34,13.11-14.34,27.73-21.61,43.47-21.61h3.01c15.74,0,30.36,7.27,43.47,21.61,10.4,11.38,19.95,27.19,29.19,48.34,16.34,37.38,28.84,85.22,39.87,127.42,6.62,25.33,12.87,49.25,19.04,67.34,7.45,21.85,12.31,27.5,13.83,28.83h34.31c6.9,0,12.5,5.6,12.5,12.5s-5.6,12.5-12.5,12.5Z"/>
</svg>