<?xml version="1.0" encoding="UTF-8"?>
<svg id="a" data-name="layer1" xmlns="http://www.w3.org/2000/svg" viewBox="0 0 500 500">
  <path d="M255.41,160.16h-6.57c-47.84,0-86.62,38.78-86.62,86.62v6.45c0,47.84,38.78,86.62,86.62,86.62h6.45c47.84,0,86.62-38.78,86.62-86.62v-6.57c0-47.77-38.72-86.49-86.49-86.49h0Z"/>
  <path d="M415.26,185.16c33.91,0,61.49,27.58,61.49,61.49v6.57c0,33.97-27.64,61.62-61.62,61.62h-6.45c-33.97,0-61.62-27.64-61.62-61.62v-6.45c0-33.97,27.64-61.62,61.62-61.62h6.57M415.26,160.16h-6.57c-47.84,0-86.62,38.78-86.62,86.62v6.45c0,47.84,38.78,86.62,86.62,86.62h6.45c47.84,0,86.62-38.78,86.62-86.62v-6.57c0-47.77-38.72-86.49-86.49-86.49h0Z"/>
  <path d="M94.94,185.16c33.91,0,61.49,27.58,61.49,61.49v6.57c0,33.97-27.64,61.62-61.62,61.62h-6.45c-33.97,0-61.62-27.64-61.62-61.62v-6.45c0-33.97,27.64-61.62,61.62-61.62h6.57M94.94,160.16h-6.57C40.53,160.16,1.75,198.94,1.75,246.78v6.45c0,47.84,38.78,86.62,86.62,86.62h6.45c47.84,0,86.62-38.78,86.62-86.62v-6.57c0-47.77-38.72-86.49-86.49-86.49h0Z"/>
</svg>