<?xml version="1.0" encoding="UTF-8"?>
<svg id="a" data-name="layer1" xmlns="http://www.w3.org/2000/svg" viewBox="0 0 500 500">
  <path d="M458.431,407.5h-168.733c-5.336,0-10.084-3.389-11.818-8.436-11.268-32.8-20.171-68.47-28.026-99.941-4.158-16.657-8.085-32.391-11.871-45.696-.006-.021-.012-.042-.018-.063-3.853-13.564-7.791-29.339-11.96-46.039-7.085-28.378-15.033-60.214-24.711-89.826H50.567c-9.66,29.568-17.595,61.361-24.668,89.704-4.188,16.783-8.145,32.635-12.019,46.262-1.888,6.64-8.801,10.493-15.442,8.605-6.64-1.888-10.493-8.802-8.605-15.442,3.763-13.238,7.672-28.899,11.81-45.479,7.874-31.551,16.799-67.313,28.108-100.214,1.735-5.048,6.484-8.437,11.821-8.437h168.716c5.335,0,10.082,3.388,11.817,8.433,11.328,32.947,20.265,68.746,28.15,100.332,4.125,16.522,8.021,32.127,11.768,45.316.005.018.01.036.015.054,3.893,13.685,7.864,29.591,12.066,46.428,7.054,28.263,14.966,59.964,24.59,89.437h150.739c9.622-29.471,17.533-61.165,24.586-89.419,4.216-16.888,8.198-32.84,12.101-46.547,1.89-6.639,8.806-10.489,15.446-8.598,6.639,1.891,10.489,8.806,8.598,15.446-3.792,13.312-7.725,29.07-11.89,45.754-7.854,31.464-16.756,67.125-28.022,99.925-1.734,5.049-6.483,8.439-11.822,8.439Z"/>
</svg>