<?xml version="1.0" encoding="UTF-8"?>
<svg id="a" data-name="layer1" xmlns="http://www.w3.org/2000/svg" viewBox="0 0 1000 1000">
  <path d="M723.93,276.07c-4.88-4.88-11.29-7.32-17.69-7.32h-249.99c-13.81,0-25,11.19-25,25s11.19,25,25,25h189.65l-327.15,327.15v-189.65c0-6.9-2.8-13.15-7.32-17.68-4.52-4.52-10.77-7.32-17.68-7.32-13.81,0-25,11.19-25,25v250h0c0,6.4,2.44,12.8,7.32,17.68,4.88,4.88,11.29,7.32,17.69,7.32h249.99c13.81,0,25-11.19,25-25s-11.19-25-25-25h-189.65l327.15-327.15v189.64c0,6.9,2.8,13.15,7.32,17.68s10.77,7.32,17.68,7.32c13.81,0,25-11.19,25-25v-250h0c0-6.4-2.44-12.8-7.32-17.68Z"/>
</svg>