<?xml version="1.0" encoding="UTF-8"?>
<svg id="a" data-name="layer1" xmlns="http://www.w3.org/2000/svg" viewBox="0 0 1000 1000">
  <path d="M900.48,597.23c-9.76-9.76-25.59-9.76-35.36,0l-134.1,134.1V208.32c0-13.81-11.19-25-25-25H117.2c-13.81,0-25,11.19-25,25s11.19,25,25,25h563.82v498.01l-134.1-134.1c-9.76-9.76-25.59-9.76-35.36,0s-9.76,25.59,0,35.36l176.78,176.78c.58.58,1.2,1.14,1.84,1.66.28.23.58.43.87.65.36.27.72.55,1.09.8.35.24.72.44,1.08.66.34.2.67.41,1.01.6.37.2.75.37,1.13.54.36.17.72.35,1.09.51.37.15.74.27,1.11.41.4.14.79.29,1.19.42.37.11.75.2,1.13.29.41.1.82.22,1.24.3.44.09.87.14,1.31.2.37.05.73.12,1.1.16.82.08,1.64.12,2.47.12s1.65-.04,2.47-.12c.37-.04.74-.11,1.1-.16.44-.06.88-.11,1.31-.2.42-.08.83-.2,1.24-.3.38-.09.76-.18,1.13-.29.41-.12.8-.27,1.19-.42.37-.13.75-.26,1.12-.41.37-.15.73-.33,1.09-.51.38-.18.76-.35,1.13-.54.35-.19.68-.4,1.01-.6.36-.22.73-.42,1.08-.66.38-.25.73-.53,1.09-.8.29-.22.59-.42.87-.65.64-.52,1.25-1.08,1.84-1.66l176.77-176.77c9.76-9.76,9.76-25.59,0-35.36Z"/>
</svg>