<?xml version="1.0" encoding="UTF-8"?>
<svg id="a" data-name="layer1" xmlns="http://www.w3.org/2000/svg" viewBox="0 0 500 500">
  <path d="M483.74,16.26c-4.88-4.88-12.8-4.88-17.68,0l-70.55,70.55c-40.1-35.85-91.29-55.46-145.51-55.46-58.4,0-113.31,22.74-154.6,64.04C54.1,136.69,31.36,191.6,31.36,250c0,54.21,19.61,105.41,55.46,145.51l-70.55,70.55c-4.88,4.88-4.88,12.8,0,17.68,2.44,2.44,5.64,3.66,8.84,3.66s6.4-1.22,8.84-3.66l70.55-70.55c40.1,35.85,91.29,55.46,145.51,55.46,58.4,0,113.31-22.74,154.6-64.04,41.3-41.3,64.04-96.2,64.04-154.6,0-54.21-19.61-105.41-55.46-145.51l70.55-70.55c4.88-4.88,4.88-12.8,0-17.68ZM56.36,250c0-106.77,86.87-193.64,193.64-193.64,48.9,0,93.61,18.23,127.73,48.23L104.59,377.73c-30.01-34.12-48.23-78.83-48.23-127.73ZM443.64,250c0,106.77-86.87,193.64-193.64,193.64-48.9,0-93.61-18.23-127.73-48.23L395.41,122.27c30.01,34.12,48.23,78.83,48.23,127.73Z"/>
</svg>