<?xml version="1.0" encoding="UTF-8"?>
<svg id="a" data-name="layer1" xmlns="http://www.w3.org/2000/svg" viewBox="0 0 500 500">
  <path d="M481.169,285.519c-2.579,33.909-5.508,60.954-8.704,80.382-3.905,23.73-8.383,43.373-23.695,43.373s-19.79-19.643-23.694-43.373c-2.783-16.911-5.361-39.596-7.684-67.551-4.739,28.72-10.025,52.041-15.747,69.428-5.861,17.813-15.826,41.495-34.595,41.495-8.499,0-16.039-4.844-22.41-14.396-4.34-6.507-8.325-15.371-12.185-27.099-6.493-19.73-12.426-47.093-17.634-81.328-1.949-12.812-3.69-25.854-5.235-38.87-2.584,13.397-5.505,26.825-8.786,40.01-8.599,34.56-18.414,62.218-29.175,82.206-14.101,26.195-30.309,39.478-48.173,39.478s-34.072-13.282-48.173-39.478c-10.76-19.989-20.576-47.647-29.175-82.207-5.25-21.1-9.591-42.825-13.078-64.044-4.348,21.435-9.769,43.391-16.336,64.706-10.691,34.702-22.897,62.478-36.279,82.553-17.015,25.526-35.997,38.47-56.422,38.47-6.903,0-12.5-5.597-12.5-12.5s5.597-12.5,12.5-12.5c23.142,0,48.865-38.647,68.81-103.383,19.951-64.757,29.038-137.49,29.038-177.665,0-6.903,5.597-12.5,12.5-12.5s12.5,5.597,12.5,12.5c0,40.344,7.362,113.356,23.528,178.327,18.864,75.818,40.388,102.721,53.087,102.721,7.618,0,17.153-9.596,26.16-26.327,9.635-17.898,18.946-44.314,26.928-76.393,16.165-64.971,23.528-137.983,23.528-178.327h0c0-6.904,5.597-12.501,12.5-12.501s12.5,5.597,12.5,12.5c0,39.158,4.066,107.08,13.152,170.548,4.546,31.76,9.688,57.793,15.282,77.375,6.121,21.423,11.167,29.303,13.546,32.054,2.379-2.751,7.425-10.631,13.546-32.054,5.595-19.582,10.736-45.614,15.282-77.374,9.086-63.468,13.152-131.39,13.152-170.548,0-6.903,5.597-12.5,12.5-12.5s12.5,5.597,12.5,12.5c0,46.194,2.567,113.847,6.389,168.344,2.826,40.305,5.777,66.741,8.351,84.03,2.574-17.288,5.525-43.726,8.352-84.03,3.821-54.497,6.389-122.148,6.389-168.344,0-6.903,5.597-12.5,12.5-12.5s12.5,5.597,12.5,12.5c0,42.693-2.27,115.617-7.341,182.293Z"/>
</svg>