<?xml version="1.0" encoding="UTF-8"?>
<svg id="a" data-name="layer1" xmlns="http://www.w3.org/2000/svg" viewBox="0 0 500 500">
  <path d="M432.732,250c0-48.809-19.008-94.697-53.521-129.211-31.55-31.55-72.607-50.132-116.711-53.092V29.393c0-6.904-5.597-12.5-12.5-12.5s-12.5,5.596-12.5,12.5v38.304c-44.104,2.96-85.161,21.542-116.711,53.092-34.514,34.514-53.521,80.402-53.521,129.211s19.008,94.697,53.521,129.211c31.55,31.55,72.607,50.132,116.711,53.092v38.304c0,6.904,5.597,12.5,12.5,12.5s12.5-5.596,12.5-12.5v-38.304c44.104-2.96,85.161-21.542,116.711-53.092,34.514-34.514,53.521-80.402,53.521-129.211ZM138.467,361.533c-29.792-29.792-46.199-69.402-46.199-111.533s16.407-81.741,46.199-111.533c26.825-26.826,61.613-42.792,99.033-45.706v314.479c-37.42-2.915-72.208-18.881-99.033-45.706ZM262.5,407.239V92.761c37.42,2.915,72.208,18.881,99.033,45.706,29.792,29.792,46.199,69.402,46.199,111.533s-16.407,81.741-46.199,111.533c-26.825,26.826-61.613,42.792-99.033,45.706Z"/>
</svg>