<?xml version="1.0" encoding="UTF-8"?>
<svg id="a" data-name="layer1" xmlns="http://www.w3.org/2000/svg" viewBox="0 0 500 500">
  <path d="M90.57,409.27h-54.08c-6.9,0-12.5-5.6-12.5-12.5s5.6-12.5,12.5-12.5h54.08c4.23,0,16.48-4.3,38.71-44.18,16.47-29.53,33.23-69.08,49.44-107.33,38.45-90.71,61.66-142.05,91.48-142.05h.02c13.83.01,25.37,6.7,34.33,19.89,6.7,9.87,11.22,22.12,15.59,33.98,7.54,20.45,13.14,33.86,21.86,33.86h121.52c6.9,0,12.5,5.6,12.5,12.5s-5.6,12.5-12.5,12.5h-121.52c-12.48,0-22.94-6.28-31.08-18.66-5.94-9.04-10.16-20.48-14.24-31.54-12.87-34.9-18.84-37.51-26.48-37.52-.02,0-3.03.38-9.19,7.63-5.23,6.15-11.24,15.55-17.88,27.93-13.06,24.39-26.83,56.86-41.4,91.24-16.47,38.85-33.5,79.03-50.62,109.74-9.57,17.16-18.35,29.93-26.86,39.04-11.29,12.09-22.31,17.97-33.69,17.97Z"/>
</svg>