<?xml version="1.0" encoding="UTF-8"?>
<svg id="a" data-name="layer1" xmlns="http://www.w3.org/2000/svg" viewBox="0 0 1000 1000">
  <circle cx="124.69" cy="501.19" r="24.65"/>
  <circle cx="249.73" cy="501.19" r="24.65"/>
  <path d="M374.78,476.54c-13.61,0-24.65,11.03-24.65,24.65s11.04,24.65,24.65,24.65,24.65-11.03,24.65-24.65-11.04-24.65-24.65-24.65Z"/>
  <circle cx="624.87" cy="501.19" r="24.65"/>
  <circle cx="749.91" cy="501.19" r="24.65"/>
  <path d="M874.95,525.83c13.61,0,24.65-11.03,24.65-24.65s-11.04-24.65-24.65-24.65-24.65,11.03-24.65,24.65,11.03,24.65,24.65,24.65Z"/>
  <path d="M1001.85,474.39c-14.64-1.05-26.85,10.51-26.85,24.93v267.68h-450V209c0-13.81-11.19-25-25-25H0c-13.81,0-25,11.19-25,25v291.17c0,12.79,10.39,24.53,23.15,25.44,14.64,1.05,26.85-10.51,26.85-24.93V233h450v558c0,13.81,11.19,25,25,25h500c13.81,0,25-11.19,25-25v-291.17c0-12.79-10.39-24.53-23.15-25.44Z"/>
</svg>