<?xml version="1.0" encoding="UTF-8"?>
<svg id="a" data-name="layer1" xmlns="http://www.w3.org/2000/svg" viewBox="0 0 500 500">
  <path d="M510.479,388.381l-113.746-152.982c1.436-3.153,2.242-6.654,2.242-10.345,0-13.807-11.193-25-25-25h-181.069c-1.236,0-2.449.093-3.637.266l-75.662-103.538c-2.732-3.739-7.306-5.659-11.891-4.995-4.583.666-8.422,3.811-9.976,8.173L-12.22,391.642c-2.318,6.503,1.075,13.654,7.578,15.971,1.387.494,2.803.729,4.196.729,5.137,0,9.951-3.191,11.775-8.307L107.359,130.604l62.301,85.254c-1.127,2.847-1.754,5.948-1.754,9.196,0,13.807,11.193,25,25,25h181.069c.814,0,1.619-.042,2.413-.118l114.029,153.363c4.119,5.54,11.949,6.691,17.49,2.573,5.54-4.119,6.692-11.949,2.573-17.49Z"/>
</svg>