<?xml version="1.0" encoding="UTF-8"?>
<svg id="a" data-name="layer1" xmlns="http://www.w3.org/2000/svg" viewBox="0 0 500 500">
  <path d="M50,462.5c-6.904,0-12.5-5.597-12.5-12.5,0-55.682,10.908-109.704,32.421-160.567,20.777-49.122,50.518-93.235,88.397-131.114,37.879-37.879,81.992-67.62,131.114-88.396,50.863-21.514,104.886-32.422,160.567-32.422,6.904,0,12.5,5.597,12.5,12.5s-5.596,12.5-12.5,12.5c-52.318,0-103.064,10.244-150.829,30.446-46.142,19.517-87.584,47.458-123.175,83.05s-63.533,77.033-83.05,123.175c-20.203,47.766-30.446,98.512-30.446,150.829,0,6.903-5.596,12.5-12.5,12.5Z"/>
</svg>