<?xml version="1.0" encoding="UTF-8"?>
<svg id="a" data-name="layer1" xmlns="http://www.w3.org/2000/svg" width="1000" height="1000" viewBox="0 0 1000 1000">
  <path d="M820.381,393.932l-141.419-141.419c-.467-.467-.958-.909-1.469-1.328-.228-.187-.467-.349-.7-.524-.289-.216-.571-.439-.871-.64-.284-.19-.578-.354-.869-.528-.269-.161-.532-.33-.81-.479-.296-.158-.601-.292-.903-.435-.289-.137-.574-.281-.871-.404-.294-.122-.594-.22-.893-.327-.317-.114-.63-.236-.955-.334-.299-.09-.603-.156-.904-.232-.331-.083-.657-.176-.993-.243-.35-.069-.703-.11-1.055-.161-.293-.042-.583-.098-.88-.127-1.312-.129-2.634-.129-3.946,0-.297.029-.586.085-.88.127-.352.051-.705.092-1.055.161-.336.067-.663.159-.993.243-.302.076-.605.142-.904.232-.325.098-.638.22-.956.334-.298.107-.598.205-.892.326-.297.123-.582.268-.871.404-.302.142-.607.277-.903.435-.277.148-.541.318-.81.479-.291.174-.585.338-.869.528-.3.201-.582.424-.871.64-.233.175-.473.337-.7.524-.511.419-1.001.861-1.468,1.327l-141.42,141.42c-7.811,7.811-7.811,20.474,0,28.284s20.474,7.811,28.284,0l107.279-107.279v398.407H193.761c-11.046,0-20,8.954-20,20s8.954,20,20,20h471.056c11.045,0,20-8.954,20-20v-418.407l107.279,107.279c3.905,3.905,9.024,5.858,14.142,5.858s10.237-1.953,14.142-5.858c7.811-7.811,7.811-20.474,0-28.284Z" fill="#000" stroke-width="0"/>
</svg>