<?xml version="1.0" encoding="UTF-8"?>
<svg id="a" data-name="layer1" xmlns="http://www.w3.org/2000/svg" viewBox="0 0 500 500">
  <path d="M482.95,90.726h-8.484c-21.087,0-41.103,6.692-59.492,19.889-15.669,11.245-30.133,26.989-44.221,48.133-25.035,37.576-44.145,85.552-61.004,127.881-11.12,27.917-21.622,54.284-31.965,72.784-12.095,21.631-19.708,24.861-23.169,24.861h-9.23c-3.461,0-11.075-3.23-23.169-24.861-10.343-18.5-20.846-44.867-31.965-72.784-16.86-42.329-35.969-90.305-61.004-127.881-14.087-21.144-28.552-36.889-44.221-48.133-18.389-13.197-38.405-19.888-59.492-19.888h-8.484c-6.903,0-12.5,5.596-12.5,12.5s5.596,12.5,12.5,12.5h8.484c15.972,0,30.664,4.972,44.916,15.2,13.177,9.457,25.604,23.092,37.992,41.684,23.583,35.397,42.178,82.082,58.584,123.271,11.431,28.698,22.228,55.805,33.37,75.733,8.139,14.557,20.705,33.429,38.787,37.045,1.221.398,2.524.616,3.878.616h13.881c1.354,0,2.657-.218,3.878-.616,18.082-3.615,30.648-22.488,38.787-37.045,11.142-19.928,21.939-47.035,33.37-75.733,16.406-41.189,35.001-87.874,58.584-123.271,12.387-18.592,24.814-32.227,37.992-41.684,14.251-10.228,28.943-15.199,44.916-15.199h8.484c6.903,0,12.5-5.597,12.5-12.5s-5.598-12.5-12.5-12.5Z"/>
</svg>