<?xml version="1.0" encoding="UTF-8"?>
<svg id="a" data-name="layer1" xmlns="http://www.w3.org/2000/svg" viewBox="0 0 500 500">
  <path d="M514.03,95.4c-41.3-41.3-96.2-64.04-154.6-64.04-34.19,0-67.17,7.8-96.93,22.55-29.76-14.74-62.74-22.55-96.93-22.55-58.4,0-113.31,22.74-154.6,64.04-41.3,41.3-64.04,96.2-64.04,154.6s22.74,113.31,64.04,154.6c41.3,41.3,96.2,64.04,154.6,64.04,34.19,0,67.17-7.8,96.93-22.55,29.76,14.74,62.74,22.55,96.93,22.55,58.4,0,113.31-22.74,154.6-64.04,41.3-41.3,64.04-96.2,64.04-154.6s-22.74-113.31-64.04-154.6ZM165.57,443.64c-106.78,0-193.64-86.87-193.64-193.64S58.8,56.36,165.57,56.36c24.78,0,48.49,4.69,70.29,13.21-11,7.57-21.39,16.19-31.04,25.83-41.3,41.3-64.04,96.2-64.04,154.6s22.74,113.31,64.04,154.6c9.64,9.64,20.04,18.26,31.04,25.83-21.8,8.52-45.51,13.21-70.29,13.21ZM262.5,82.42c57.78,33.55,96.71,96.1,96.71,167.58s-38.94,134.04-96.71,167.58c-57.78-33.55-96.71-96.1-96.71-167.58s38.94-134.04,96.71-167.58ZM359.43,443.64c-24.78,0-48.49-4.69-70.29-13.21,11-7.57,21.39-16.19,31.04-25.83,41.3-41.3,64.04-96.2,64.04-154.6s-22.74-113.31-64.04-154.6c-9.64-9.64-20.04-18.26-31.04-25.83,21.8-8.52,45.51-13.21,70.29-13.21,106.78,0,193.64,86.87,193.64,193.64s-86.87,193.64-193.64,193.64Z"/>
</svg>