<?xml version="1.0" encoding="UTF-8"?>
<svg id="a" data-name="layer1" xmlns="http://www.w3.org/2000/svg" viewBox="0 0 1000 1000">
  <path d="M579.81,815.31c-10.59,0-20.26-6.65-23.8-16.88-22.7-65.62-40.64-136.98-56.46-199.94-8.36-33.25-16.25-64.66-23.87-91.25-.02-.06-.04-.13-.06-.19-7.77-27.16-15.72-58.76-24.13-92.21-2.12-8.45-4.29-17.05-6.49-25.77v401.16c0,12.2-8.82,22.62-20.86,24.63-12.04,2.01-23.77-4.97-27.73-16.51-20.93-60.87-42.44-106.05-65.76-138.11-24.98-34.36-50.88-52.17-79.12-54.42-54.51,4.44-101.94,67.45-144.94,192.53-3.97,11.54-15.7,18.53-27.73,16.51-12.04-2.01-20.86-12.43-20.86-24.63v-401.06c-2.16,8.58-4.27,17.05-6.35,25.37-8.32,33.35-16.19,64.86-23.89,92-3.5,12.34-16.72,20.8-29.28,18.17-14.35-3.01-22.9-17.46-18.96-31.32,7.53-26.48,15.34-57.8,23.62-90.96,15.75-63.1,33.6-134.63,56.22-200.43,3.97-11.55,15.7-18.54,27.76-16.53,12.05,2.01,20.88,12.44,20.88,24.66v458.61c7.77-14,15.74-26.61,23.96-37.92,34.25-47.1,73.96-72.35,118.01-75.06,1.01-.06,2.01-.06,3.02,0,44.04,2.63,83.74,27.86,118.01,74.98,8.23,11.32,16.22,23.95,24,37.98V210.44c0-10.8,6.68-20.7,16.92-24.14,13.38-4.5,27.35,2.72,31.76,15.55,22.68,65.97,40.58,137.64,56.36,200.88,8.24,33,16.02,64.17,23.51,90.54.02.06.04.12.05.19,7.81,27.43,15.76,59.32,24.19,93.08,2.03,8.14,4.1,16.41,6.2,24.8V207.77c0-12.24,8.84-22.68,20.91-24.69,12.06-2.02,23.83,4.99,27.8,16.56,43.05,125.32,90.59,188.49,145.29,193.02,54.68-4.48,102.22-67.65,145.28-193.02,3.97-11.57,15.72-18.58,27.8-16.56,12.07,2.02,20.91,12.46,20.91,24.69v403.4c2.1-8.35,4.16-16.6,6.18-24.7,8.43-33.77,16.39-65.68,24.2-93.09,3.78-13.28,17.61-20.98,30.89-17.2,13.28,3.78,20.98,17.61,17.2,30.89-7.58,26.62-15.45,58.14-23.78,91.5-15.71,62.93-33.51,134.25-56.05,199.86-4.28,12.47-17.62,19.62-30.62,15.89-10.8-3.1-18.03-13.29-18.03-24.53v-460.29c-7.76,13.98-15.72,26.57-23.93,37.87-34.25,47.09-73.96,72.35-118.04,75.06-1.03.06-2.06.06-3.09,0-44.07-2.75-83.78-28.02-118.02-75.1-8.21-11.29-16.17-23.87-23.92-37.85v460.36c0,9.96-5.66,19.22-14.77,23.25-3.42,1.51-6.98,2.22-10.42,2.22Z"/>
</svg>