<?xml version="1.0" encoding="UTF-8"?>
<svg id="a" data-name="layer1" xmlns="http://www.w3.org/2000/svg" viewBox="0 0 500 500">
  <path d="M441.08,209.35c0-40.18-15.65-77.96-44.06-106.37s-66.19-44.06-106.37-44.06-77.96,15.65-106.37,44.06c-14.18,14.18-25.17,30.68-32.64,48.66-17.97,7.46-34.48,18.46-48.66,32.64-28.41,28.41-44.06,66.19-44.06,106.37s15.65,77.96,44.06,106.37c28.41,28.41,66.19,44.06,106.37,44.06s77.96-15.65,106.37-44.06c14.18-14.18,25.17-30.68,32.64-48.66,17.97-7.46,34.48-18.46,48.66-32.64,28.41-28.41,44.06-66.19,44.06-106.37ZM333.58,308.16c-1.83,13.18-12.24,23.58-25.42,25.42-5.75.8-11.6,1.21-17.51,1.21-33.5,0-65-13.05-88.7-36.74-23.69-23.69-36.74-55.19-36.74-88.7,0-5.91.41-11.76,1.21-17.52,1.83-13.11,12.13-23.55,25.24-25.39,6.21-.87,12.53-1.29,18.93-1.23,33.56.32,65.78,14.23,89.08,38.38,22.67,23.49,35.12,54.31,35.12,87.05,0,5.91-.41,11.76-1.21,17.51Z"/>
</svg>