<?xml version="1.0" encoding="UTF-8"?>
<svg id="a" data-name="layer1" xmlns="http://www.w3.org/2000/svg" viewBox="0 0 500 500">
  <path d="M353.852,284.526c6.607-.438,11.648-6.118,11.648-12.74v-124.731c0-.366-.017-.732-.049-1.097-.016-.187-.064-.49-.09-.675-.032-.225-.059-.449-.103-.672-.042-.209-.099-.412-.151-.617-.048-.19-.089-.381-.146-.569-.061-.201-.136-.395-.207-.591-.067-.188-.129-.378-.206-.563-.076-.184-.166-.36-.25-.539-.09-.19-.174-.383-.274-.569-.092-.172-.197-.335-.297-.502-.109-.183-.212-.368-.332-.546-.125-.187-.264-.363-.399-.542-.111-.148-.289-.394-.408-.536-.476-.568-1.001-1.093-1.569-1.569-.142-.119-.387-.297-.536-.408-.18-.134-.355-.274-.542-.399-.178-.119-.363-.222-.546-.332-.167-.1-.33-.205-.502-.297-.187-.1-.379-.185-.57-.275-.179-.084-.355-.174-.538-.25-.186-.077-.375-.139-.564-.206-.196-.071-.39-.146-.591-.207-.188-.057-.379-.099-.569-.146-.205-.052-.408-.109-.617-.151-.222-.044-.447-.07-.671-.103-.185-.027-.488-.074-.675-.09-.365-.032-.731-.049-1.097-.049h-124.744c-6.395,0-12.263,5.197-12.722,11.575-.527,7.322,5.257,13.425,12.467,13.425h94.823l-176.073,176.074-8.839,8.839c-4.882,4.882-4.882,12.796,0,17.678h0c4.881,4.881,12.796,4.882,17.678,0l184.912-184.913v94.823c0,3.452,1.399,6.577,3.661,8.839,2.447,2.447,5.903,3.884,9.691,3.633Z"/>
</svg>