<?xml version="1.0" encoding="UTF-8"?>
<svg id="a" data-name="layer1" xmlns="http://www.w3.org/2000/svg" viewBox="0 0 500 500">
  <path d="M450,437.26c-3.58,0-6.81,1.5-9.09,3.92-2.41,2.28-3.91,5.51-3.91,9.08,0,6.9,5.6,12.5,12.5,12.5h.5c6.9,0,12.5-5.6,12.5-12.5v-.5c0-6.9-5.6-12.5-12.5-12.5Z"/>
  <path d="M290.53,437.76h-1.05c-6.9,0-12.5,5.6-12.5,12.5s5.6,12.5,12.5,12.5h1.05c6.9,0,12.5-5.6,12.5-12.5s-5.6-12.5-12.5-12.5Z"/>
  <path d="M370.54,437.76h-1.05c-6.9,0-12.5,5.6-12.5,12.5s5.6,12.5,12.5,12.5h1.05c6.9,0,12.5-5.6,12.5-12.5s-5.6-12.5-12.5-12.5Z"/>
  <path d="M210.52,437.76h-1.05c-6.9,0-12.5,5.6-12.5,12.5s5.6,12.5,12.5,12.5h1.05c6.9,0,12.5-5.6,12.5-12.5s-5.6-12.5-12.5-12.5Z"/>
  <path d="M130.51,437.76h-1.05c-6.9,0-12.5,5.6-12.5,12.5s5.6,12.5,12.5,12.5h1.05c6.9,0,12.5-5.6,12.5-12.5s-5.6-12.5-12.5-12.5Z"/>
  <path d="M50,303.3c6.9,0,12.5-5.6,12.5-12.5v-1.05c0-6.9-5.6-12.5-12.5-12.5s-12.5,5.6-12.5,12.5v1.05c0,6.9,5.6,12.5,12.5,12.5Z"/>
  <path d="M50,223.28c6.9,0,12.5-5.6,12.5-12.5v-1.05c0-6.9-5.6-12.5-12.5-12.5s-12.5,5.6-12.5,12.5v1.05c0,6.9,5.6,12.5,12.5,12.5Z"/>
  <path d="M50,143.27c6.9,0,12.5-5.6,12.5-12.5v-1.05c0-6.9-5.6-12.5-12.5-12.5s-12.5,5.6-12.5,12.5v1.05c0,6.9,5.6,12.5,12.5,12.5Z"/>
  <path d="M50,63.26c3.58,0,6.81-1.5,9.09-3.92,2.41-2.28,3.91-5.51,3.91-9.08,0-6.9-5.6-12.5-12.5-12.5h-.5c-6.9,0-12.5,5.6-12.5,12.5v.5c0,6.9,5.6,12.5,12.5,12.5Z"/>
  <path d="M289.48,62.76h1.05c6.9,0,12.5-5.6,12.5-12.5s-5.6-12.5-12.5-12.5h-1.05c-6.9,0-12.5,5.6-12.5,12.5s5.6,12.5,12.5,12.5Z"/>
  <path d="M209.47,62.76h1.05c6.9,0,12.5-5.6,12.5-12.5s-5.6-12.5-12.5-12.5h-1.05c-6.9,0-12.5,5.6-12.5,12.5s5.6,12.5,12.5,12.5Z"/>
  <path d="M129.46,62.76h1.05c6.9,0,12.5-5.6,12.5-12.5s-5.6-12.5-12.5-12.5h-1.05c-6.9,0-12.5,5.6-12.5,12.5s5.6,12.5,12.5,12.5Z"/>
  <path d="M462.49,50.13s0-.08,0-.13c0-6.9-5.6-12.5-12.5-12.5-23.37,0-46.44,1.93-69.11,5.75-2.25-3.31-6.04-5.48-10.35-5.48h-1.05c-6.11,0-11.2,4.39-12.28,10.19-23.1,5.31-45.74,12.64-67.78,21.96-49.12,20.78-93.23,50.52-131.11,88.4-37.88,37.88-67.62,81.99-88.4,131.11-9.35,22.11-16.7,44.82-22.02,68.01-5.9,1-10.4,6.12-10.4,12.31v1.05c0,4.39,2.26,8.24,5.68,10.47-3.76,22.46-5.67,45.31-5.68,68.46,0,.01,0,.02,0,.03v.5c0,6.9,5.6,12.5,12.5,12.5h.5c6.9,0,12.5-5.6,12.5-12.5,0-1.18-.18-2.31-.48-3.39.4-51.21,10.63-100.89,30.43-147.7,19.52-46.14,47.46-87.58,83.05-123.17s77.03-63.53,123.18-83.05c46.48-19.66,95.79-29.89,146.63-30.42,1.31.47,2.73.74,4.2.74,6.9,0,12.5-5.6,12.5-12.5v-.5s0-.09,0-.14Z"/>
  <path d="M450,277.24c-6.9,0-12.5,5.6-12.5,12.5v1.05c0,6.9,5.6,12.5,12.5,12.5s12.5-5.6,12.5-12.5v-1.05c0-6.9-5.6-12.5-12.5-12.5Z"/>
  <path d="M450,357.25c-6.9,0-12.5,5.6-12.5,12.5v1.05c0,6.9,5.6,12.5,12.5,12.5s12.5-5.6,12.5-12.5v-1.05c0-6.9-5.6-12.5-12.5-12.5Z"/>
  <path d="M450,117.22c-6.9,0-12.5,5.6-12.5,12.5v1.05c0,6.9,5.6,12.5,12.5,12.5s12.5-5.6,12.5-12.5v-1.05c0-6.9-5.6-12.5-12.5-12.5Z"/>
  <path d="M450,197.23c-6.9,0-12.5,5.6-12.5,12.5v1.05c0,6.9,5.6,12.5,12.5,12.5s12.5-5.6,12.5-12.5v-1.05c0-6.9-5.6-12.5-12.5-12.5Z"/>
</svg>