<?xml version="1.0" encoding="UTF-8"?>
<svg id="a" data-name="layer1" xmlns="http://www.w3.org/2000/svg" viewBox="0 0 500 500">
  <path d="M463.51,409.274h-54.075c-11.381,0-22.402-5.877-33.692-17.966-8.501-9.103-17.286-21.871-26.856-39.035-17.124-30.711-34.154-70.89-50.624-109.745-14.574-34.382-28.339-66.856-41.399-91.242-6.634-12.389-12.648-21.787-17.875-27.935-6.157-7.243-9.172-7.624-9.201-7.625-11.753.009-18.11,14.859-26.466,37.515-4.081,11.063-8.3,22.503-14.239,31.544-8.136,12.384-18.591,18.664-31.076,18.664H36.49c-6.904,0-12.5-5.597-12.5-12.5s5.596-12.5,12.5-12.5h121.517c8.719,0,14.316-13.406,21.859-33.858,4.371-11.853,8.892-24.108,15.591-33.978,8.951-13.186,20.5-19.876,34.325-19.887h.019c29.817,0,53.026,51.329,91.479,142.045,16.211,38.245,32.975,77.792,49.442,107.327,22.23,39.871,34.479,44.175,38.713,44.175h54.075c6.904,0,12.5,5.596,12.5,12.5s-5.596,12.5-12.5,12.5Z"/>
</svg>