<?xml version="1.0" encoding="UTF-8"?>
<svg id="a" data-name="layer1" xmlns="http://www.w3.org/2000/svg" viewBox="0 0 500 500">
  <path d="M508.73,393.39c-.25-1.79-6.32-44.25-25.36-87.38-26.43-59.87-65.17-91.51-112.02-91.51h-171.14c-2.44-12.22-7.5-33.14-16.66-54.26-19.68-45.35-48.78-69.32-84.15-69.31-6.9,0-12.48,5.6-12.48,12.5,0,47.38-5.23,91.69-15.53,131.71-8.22,31.9-19.66,61.16-34.02,86.96-19.53,35.1-40.85,56.56-49.39,63-5.51,4.12-6.66,11.93-2.55,17.46,2.45,3.3,6.22,5.05,10.04,5.05,2.59,0,5.2-.8,7.44-2.47,1.15-.85,28.43-21.44,55.42-69.32,15.62-27.71,28.05-59.07,36.94-93.2,10-38.38,15.52-80.41,16.48-125.11,19.39,5.11,35.73,22.61,48.67,52.24,12.66,28.97,16.87,58.65,16.91,58.93.85,6.19,6.14,10.8,12.38,10.8h181.64c89.47,0,112.4,155.78,112.62,157.35.87,6.25,6.23,10.77,12.36,10.77.57,0,1.16-.04,1.74-.12,6.84-.95,11.61-7.27,10.65-14.11Z"/>
</svg>