<?xml version="1.0" encoding="UTF-8"?>
<svg id="a" data-name="layer1" xmlns="http://www.w3.org/2000/svg" viewBox="0 0 500 500">
  <path d="M418.636,140.62c-29.216-29.213-68.064-45.307-109.381-45.307-20.67,0-40.721,4.027-59.257,11.71-18.536-7.682-38.586-11.71-59.253-11.71-41.319,0-80.164,16.09-109.381,45.307-29.217,29.217-45.308,68.062-45.308,109.38s16.091,80.164,45.308,109.38c29.217,29.216,68.062,45.307,109.381,45.307,20.669,0,40.72-4.027,59.255-11.709,18.536,7.682,38.586,11.709,59.255,11.709,41.318,0,80.164-16.09,109.381-45.307,29.217-29.217,45.308-68.062,45.308-109.38s-16.091-80.164-45.308-109.38ZM190.745,379.687c-34.642,0-67.209-13.49-91.703-37.984-24.495-24.495-37.985-57.062-37.985-91.703s13.49-67.208,37.985-91.703c24.494-24.495,57.062-37.984,91.703-37.984,9.974,0,19.774,1.125,29.262,3.302-7.108,5.042-13.844,10.717-20.131,17.005-29.217,29.217-45.308,68.062-45.308,109.38s16.091,80.164,45.308,109.38c6.287,6.287,13.023,11.963,20.131,17.005-9.487,2.177-19.288,3.302-29.262,3.302ZM250,134.579c11.828,6.089,22.769,14.04,32.447,23.718,24.495,24.495,37.985,57.062,37.985,91.703s-13.49,67.208-37.985,91.703c-9.677,9.678-20.619,17.629-32.447,23.718-11.828-6.089-22.769-14.04-32.447-23.718-24.495-24.495-37.985-57.062-37.985-91.703s13.49-67.208,37.985-91.703c9.677-9.678,20.619-17.629,32.447-23.718ZM400.958,341.703c-24.494,24.495-57.062,37.984-91.703,37.984-9.974,0-19.774-1.125-29.262-3.302,7.108-5.042,13.844-10.717,20.131-17.005,29.217-29.217,45.308-68.062,45.308-109.38s-16.091-80.164-45.308-109.38c-6.288-6.287-13.024-11.962-20.132-17.004,9.488-2.178,19.288-3.302,29.263-3.302,34.641,0,67.209,13.49,91.703,37.984,24.495,24.495,37.985,57.062,37.985,91.703s-13.49,67.208-37.985,91.703Z"/>
</svg>