<?xml version="1.0" encoding="UTF-8"?>
<svg id="a" data-name="layer1" xmlns="http://www.w3.org/2000/svg" viewBox="0 0 1000 1000">
  <path d="M864.74,597.27l-133.74,133.74V208c0-13.81-11.19-25-25-25H117.69c-12.79,0-24.53,10.39-25.44,23.15-1.05,14.64,10.51,26.85,24.93,26.85h563.82v498.01l-133.74-133.74c-9.04-9.04-24.69-9.99-34.36-1.62-11.1,9.61-11.55,26.42-1.36,36.62l176.78,176.78c.58.58,1.2,1.14,1.84,1.66.28.23.58.43.87.65.36.27.72.55,1.09.8.35.24.72.44,1.08.66.34.2.67.41,1.01.6.37.2.75.37,1.13.54.36.17.72.35,1.09.51.37.15.74.27,1.11.41.4.14.79.29,1.19.42.37.11.75.2,1.13.29.41.1.82.22,1.24.3.44.09.89.14,1.33.2.37.05.97.15,1.34.18.74.07,1.47.1,2.21.1s1.48-.04,2.21-.1c.37-.03.97-.13,1.34-.18.45-.06.89-.12,1.33-.2.42-.08.83-.2,1.24-.3.38-.09.76-.18,1.13-.29.41-.12.8-.27,1.19-.42.37-.13.75-.26,1.12-.41.37-.15.73-.33,1.09-.51.38-.18.76-.35,1.13-.54.35-.19.68-.4,1.01-.6.36-.22.73-.42,1.08-.66.38-.25.73-.53,1.09-.8.29-.22.59-.42.87-.65.64-.52,1.25-1.08,1.84-1.66l176.77-176.77c10.2-10.2,9.74-27.01-1.36-36.62-9.67-8.37-25.32-7.42-34.36,1.62Z"/>
</svg>