<?xml version="1.0" encoding="UTF-8"?>
<svg id="a" data-name="layer1" xmlns="http://www.w3.org/2000/svg" width="1000" height="1000" viewBox="0 0 1000 1000">
  <path d="M900.02,750.679c-1.319,0-2.656-.131-4-.404-4.245-.862-105.149-21.918-207.321-91.896-60.423-41.384-108.636-91.341-143.298-148.485-39.31-64.804-61.065-138.786-64.815-220.253-34.802,10.078-103.415,33.941-171.154,80.411-55.633,38.166-99.877,83.974-131.506,136.154-39.42,65.034-59.407,140.556-59.407,224.468,0,11.046-8.954,20-20,20s-20-8.954-20-20c0-91.645,22.087-174.391,65.648-245.939,34.79-57.142,83.178-107.096,143.82-148.476,102.533-69.966,203.787-91.017,208.048-91.879,5.877-1.188,11.984.324,16.628,4.122,4.645,3.798,7.338,9.481,7.338,15.481,0,83.921,19.915,159.452,59.191,224.491,31.509,52.178,75.586,97.983,131.006,136.146,95.543,65.79,192.828,86.26,193.8,86.458,10.814,2.216,17.797,12.776,15.591,23.592-1.933,9.473-10.262,16.008-19.568,16.008Z" fill="#000" stroke-width="0"/>
</svg>