<?xml version="1.0" encoding="UTF-8"?>
<svg id="a" data-name="layer1" xmlns="http://www.w3.org/2000/svg" viewBox="0 0 500 500">
  <path d="M459.39,357.53c20.32-28.44,36.47-66.15,52.1-102.61,2.72-6.35-.22-13.69-6.57-16.41-6.35-2.72-13.69.22-16.41,6.57-15.1,35.24-30.72,71.68-49.46,97.92-19.66,27.52-40.01,40.34-64.05,40.34s-44.39-12.82-64.05-40.34c-18.75-26.25-34.36-62.68-49.46-97.92-15.62-36.46-31.78-74.16-52.1-102.61-24.42-34.19-52.02-50.81-84.39-50.81s-59.97,16.62-84.39,50.81c-20.32,28.44-36.47,66.15-52.1,102.61-2.72,6.35.22,13.69,6.57,16.41,6.35,2.72,13.69-.22,16.41-6.57,15.1-35.24,30.72-71.68,49.46-97.92,19.66-27.52,40.01-40.34,64.05-40.34s44.39,12.82,64.05,40.34c18.75,26.25,34.36,62.68,49.46,97.92,15.62,36.46,31.78,74.16,52.1,102.61,7.32,10.25,14.93,18.91,22.87,26.03-.29-.02-.57-.04-.86-.04-6.81,0-12.32,5.52-12.32,12.32s5.52,12.32,12.32,12.32,12.32-5.52,12.32-12.32c0-1.25-.19-2.46-.54-3.6,15.53,10.79,32.3,16.1,50.6,16.1s35.33-5.4,50.97-16.36c-.4,1.22-.63,2.51-.63,3.86,0,6.81,5.52,12.32,12.32,12.32s12.32-5.52,12.32-12.32-5.52-12.32-12.32-12.32c-.39,0-.78.02-1.16.06,7.94-7.12,15.56-15.79,22.89-26.04Z"/>
  <circle cx="0" cy="395.84" r="12.32"/>
  <circle cx="62.53" cy="395.84" r="12.32"/>
  <path d="M125.05,383.52c-6.81,0-12.32,5.52-12.32,12.32s5.52,12.32,12.32,12.32,12.32-5.52,12.32-12.32-5.52-12.32-12.32-12.32Z"/>
  <circle cx="187.57" cy="395.84" r="12.32"/>
  <circle cx="250.09" cy="395.84" r="12.32"/>
  <circle cx="500.18" cy="395.84" r="12.32"/>
</svg>