<?xml version="1.0" encoding="UTF-8"?>
<svg id="a" data-name="layer1" xmlns="http://www.w3.org/2000/svg" viewBox="0 0 500 500">
  <path d="M458.43,407.5h-168.73c-5.34,0-10.08-3.39-11.82-8.44-11.27-32.8-20.17-68.47-28.03-99.94-4.16-16.66-8.08-32.39-11.87-45.7,0-.02-.01-.04-.02-.06-3.85-13.56-7.79-29.34-11.96-46.04-7.08-28.38-15.03-60.21-24.71-89.83H50.57c-9.66,29.57-17.59,61.36-24.67,89.7-4.19,16.78-8.14,32.63-12.02,46.26-1.89,6.64-8.8,10.49-15.44,8.61-6.64-1.89-10.49-8.8-8.6-15.44,3.76-13.24,7.67-28.9,11.81-45.48,7.87-31.55,16.8-67.31,28.11-100.21,1.74-5.05,6.48-8.44,11.82-8.44h168.72c5.34,0,10.08,3.39,11.82,8.43,11.33,32.95,20.27,68.75,28.15,100.33,4.12,16.52,8.02,32.13,11.77,45.32,0,.02.01.04.02.05,3.89,13.69,7.86,29.59,12.07,46.43,7.05,28.26,14.97,59.96,24.59,89.44h150.74c9.62-29.47,17.53-61.16,24.59-89.42,4.22-16.89,8.2-32.84,12.1-46.55,1.89-6.64,8.81-10.49,15.45-8.6,6.64,1.89,10.49,8.81,8.6,15.45-3.79,13.31-7.73,29.07-11.89,45.75-7.85,31.46-16.76,67.13-28.02,99.93-1.73,5.05-6.48,8.44-11.82,8.44Z"/>
</svg>