<?xml version="1.0" encoding="UTF-8"?>
<svg id="a" data-name="layer1" xmlns="http://www.w3.org/2000/svg" viewBox="0 0 500 500">
  <path d="M146.15,215.58c-6.61.44-11.65,6.12-11.65,12.74v124.73c0,.37.02.73.05,1.1.02.19.06.49.09.68.03.22.06.45.1.67.04.21.1.41.15.62.05.19.09.38.15.57.06.2.14.39.21.59.07.19.13.38.21.56.08.18.17.36.25.54.09.19.17.38.27.57.09.17.2.34.3.5.11.18.21.37.33.55.13.19.26.36.4.54.11.15.29.39.41.54.48.57,1,1.09,1.57,1.57.14.12.39.3.54.41.18.13.36.27.54.4.18.12.36.22.55.33.17.1.33.2.5.3.19.1.38.18.57.27.18.08.35.17.54.25.19.08.38.14.56.21.2.07.39.15.59.21.19.06.38.1.57.15.21.05.41.11.62.15.22.04.45.07.67.1.19.03.49.07.67.09.37.03.73.05,1.1.05h124.74c6.39,0,12.26-5.2,12.72-11.57.53-7.32-5.26-13.43-12.47-13.43h-94.82l176.07-176.07,8.84-8.84c4.88-4.88,4.88-12.8,0-17.68h0c-4.88-4.88-12.8-4.88-17.68,0l-184.91,184.91v-94.82c0-3.45-1.4-6.58-3.66-8.84-2.45-2.45-5.9-3.88-9.69-3.63Z"/>
</svg>