<?xml version="1.0" encoding="UTF-8"?>
<svg id="a" data-name="layer1" xmlns="http://www.w3.org/2000/svg" viewBox="0 0 1000 1000">
  <path d="M1020.96,776.76l-227.49-305.96c2.87-6.31,4.48-13.31,4.48-20.69,0-27.61-22.39-50-50-50h-362.14c-2.47,0-4.9.19-7.27.53l-151.32-207.08c-5.46-7.48-14.61-11.32-23.78-9.99-9.17,1.33-16.84,7.62-19.95,16.35L-24.44,783.28c-4.64,13.01,2.15,27.31,15.16,31.94,2.77.99,5.61,1.46,8.39,1.46,10.27,0,19.9-6.38,23.55-16.61L214.72,261.21l124.6,170.51c-2.25,5.69-3.51,11.9-3.51,18.39,0,27.61,22.39,50,50,50h362.14c1.63,0,3.24-.08,4.83-.24l228.06,306.73c8.24,11.08,23.9,13.38,34.98,5.15,11.08-8.24,13.38-23.9,5.15-34.98Z"/>
</svg>