<?xml version="1.0" encoding="UTF-8"?>
<svg id="a" data-name="layer1" xmlns="http://www.w3.org/2000/svg" viewBox="0 0 1000 1000">
  <path d="M927.02,818.55h-108.15c-22.76,0-44.8-11.75-67.38-35.93-17-18.21-34.57-43.74-53.71-78.07-34.25-61.42-68.31-141.78-101.25-219.49-29.15-68.76-56.68-133.71-82.8-182.48-13.27-24.78-25.3-43.57-35.75-55.87-12.31-14.49-18.34-15.25-18.4-15.25-23.51.02-36.22,29.72-52.93,75.03-8.16,22.13-16.6,45.01-28.48,63.09-16.27,24.77-37.18,37.33-62.15,37.33H72.98c-13.81,0-25-11.19-25-25s11.19-25,25-25h243.03c17.44,0,28.63-26.81,43.72-67.72,8.74-23.71,17.78-48.22,31.18-67.96,17.9-26.37,41-39.75,68.65-39.77h.04c59.63,0,106.05,102.66,182.96,284.09,32.42,76.49,65.95,155.58,98.88,214.65,44.46,79.74,68.96,88.35,77.43,88.35h108.15c13.81,0,25,11.19,25,25s-11.19,25-25,25Z"/>
</svg>