<?xml version="1.0" encoding="UTF-8"?>
<svg id="a" data-name="layer1" xmlns="http://www.w3.org/2000/svg" viewBox="0 0 1000 1000">
  <path d="M862.42,818.55h-70.95c-34.58,0-53.87-39.89-68.19-78.91-14.51-39.55-28.63-93.59-43.58-150.8-21.59-82.63-46.06-176.28-77.17-247.46-31.88-72.94-65.36-109.92-99.52-109.92h-6.02c-34.15,0-67.64,36.98-99.52,109.92-31.11,71.18-55.58,164.83-77.17,247.46-14.95,57.21-29.07,111.25-43.58,150.8-14.31,39.02-33.61,78.91-68.19,78.91h-70.95c-13.81,0-25-11.19-25-25s11.19-25,25-25h68.61c3.04-2.66,12.76-13.97,27.65-57.67,12.33-36.2,24.84-84.04,38.07-134.69,22.06-84.41,47.05-180.08,79.73-254.84,18.48-42.29,37.58-73.91,58.39-96.67,26.22-28.68,55.47-43.22,86.95-43.22h6.02c31.47,0,60.73,14.54,86.94,43.22,20.8,22.76,39.9,54.38,58.39,96.67,32.68,74.77,57.68,170.44,79.73,254.84,13.24,50.65,25.74,98.49,38.07,134.69,14.89,43.7,24.61,55.01,27.65,57.67h68.61c13.81,0,25,11.19,25,25s-11.19,25-25,25Z"/>
</svg>