<?xml version="1.0" encoding="UTF-8"?>
<svg id="a" data-name="layer1" xmlns="http://www.w3.org/2000/svg" viewBox="0 0 1000 1000">
  <circle cx="125.05" cy="791.68" r="24.65" transform="translate(-125.2 30.25) rotate(-9.22)"/>
  <path d="M250.1,767.03c-13.61,0-24.65,11.03-24.65,24.65s11.04,24.65,24.65,24.65,24.65-11.03,24.65-24.65-11.04-24.65-24.65-24.65Z"/>
  <circle cx="375.14" cy="791.68" r="24.65" transform="translate(-499.84 835.31) rotate(-67.5)"/>
  <path d="M1025.02,791.32c0-13.98-11.03-25.32-24.65-25.32-.06,0-.12,0-.18,0-.06,0-.12,0-.18,0-13.81,0-25,1-25,1h-450V209c0-13.81-11.19-25-25-25H-1.24c-13.12,0-23.76,10.64-23.76,23.76v586.78c0,13.09,10.69,23.23,23.76,22.54l1.24-.07s0,0,0,0c.43,0,.85-.01,1.27-.03,13.21-.67,23.72-11.59,23.72-24.97V233h450v559c0,13.81,11.19,25,25,25h500c11.24,0,20.75-7.63,23.9-18.12.73-2.39,1.12-4.93,1.12-7.57Z"/>
</svg>