<?xml version="1.0" encoding="UTF-8"?>
<svg id="a" data-name="layer1" xmlns="http://www.w3.org/2000/svg" viewBox="0 0 500 500">
  <path d="M312.46,452.76c-6.9,0-12.5-5.6-12.5-12.5V59.74c0-6.9,5.6-12.5,12.5-12.5s12.5,5.6,12.5,12.5v380.52c0,6.9-5.6,12.5-12.5,12.5Z"/>
  <path d="M178.9,452.76c-6.9,0-12.5-5.6-12.5-12.5V59.74c0-6.9,5.6-12.5,12.5-12.5s12.5,5.6,12.5,12.5v380.52c0,6.9-5.6,12.5-12.5,12.5Z"/>
  <path d="M435.94,195.72H55.42c-6.9,0-12.5-5.6-12.5-12.5s5.6-12.5,12.5-12.5h380.52c6.9,0,12.5,5.6,12.5,12.5s-5.6,12.5-12.5,12.5Z"/>
  <path d="M435.94,329.28H55.42c-6.9,0-12.5-5.6-12.5-12.5s5.6-12.5,12.5-12.5h380.52c6.9,0,12.5,5.6,12.5,12.5s-5.6,12.5-12.5,12.5Z"/>
  <path d="M245.68,275c-13.79,0-25-11.21-25-25s11.21-25,25-25,25,11.21,25,25-11.21,25-25,25ZM245.68,249.98v.02s0-.02,0-.02Z"/>
  <path d="M101.74,418.94c-13.79,0-25-11.21-25-25s11.21-25,25-25,25,11.21,25,25-11.21,25-25,25ZM101.74,393.93v.02s0-.02,0-.02Z"/>
  <path d="M383.59,137.09c-13.79,0-25-11.21-25-25s11.21-25,25-25,25,11.21,25,25-11.21,25-25,25ZM383.59,112.08v.02s0-.02,0-.02Z"/>
</svg>