<?xml version="1.0" encoding="UTF-8"?>
<svg id="a" data-name="layer1" xmlns="http://www.w3.org/2000/svg" viewBox="0 0 1000 1000">
  <path d="M999.73,765.49c-32.97,0-64.92-15.14-94.98-44.99-25.95-25.77-50.43-62.2-72.77-108.27-39.04-80.51-57.66-162.61-57.84-163.42-2.55-11.43-12.69-19.56-24.4-19.56h-363.27c-28.73,0-71.96-18.84-114.78-108.58-26.84-56.25-40.21-113.68-41.32-118.58,0-.02,0-.03-.01-.05-.04-.17-.06-.27-.07-.29-.04-.2-.11-.38-.16-.58-.14-.59-.29-1.18-.48-1.75-.09-.28-.2-.54-.3-.82-.18-.49-.36-.99-.56-1.46-.15-.35-.33-.69-.49-1.03-.19-.38-.37-.76-.57-1.13-.22-.39-.46-.77-.69-1.14-.19-.3-.37-.6-.57-.89-.27-.39-.56-.76-.85-1.13-.2-.26-.4-.53-.61-.78-.3-.35-.61-.69-.93-1.02-.24-.25-.47-.51-.72-.75-.3-.3-.62-.58-.94-.86-.29-.26-.58-.52-.88-.76-.29-.24-.6-.46-.91-.68-.35-.26-.7-.52-1.06-.76-.28-.18-.57-.35-.86-.52-.4-.24-.81-.48-1.23-.7-.28-.15-.58-.28-.87-.42-.43-.21-.87-.41-1.32-.6-.32-.13-.65-.24-.97-.35-.43-.15-.85-.31-1.29-.44-.4-.12-.8-.21-1.2-.31-.38-.09-.75-.19-1.13-.27-.51-.1-1.02-.17-1.54-.23-.29-.04-.58-.09-.87-.12-.6-.06-1.2-.08-1.81-.09-.2,0-.4-.03-.6-.03-.06,0-.12,0-.18,0-.09,0-.18,0-.27,0-38.85.12-73.72,15.58-103.64,45.98C44.68,286.09,5.71,399.05-14.08,563.86c-14.44,120.25-13.04,222.71-12.97,227.02.21,13.67,11.36,24.61,24.99,24.61.13,0,.26,0,.4,0,13.8-.21,24.82-11.58,24.61-25.38-.02-1.02-1.42-103.36,12.62-220.28,18.18-151.4,53.39-257.43,101.83-306.63,15.32-15.56,31.65-25.16,49.51-29.05,6.64,24.24,19.45,65.55,39.27,107.28,18.24,38.41,38.75,69.29,60.94,91.78,30.15,30.56,63.57,46.06,99.34,46.06h343.75c8.08,30.41,26.36,91.85,56.4,154,24.82,51.35,52.61,92.53,82.6,122.41,39.85,39.7,83.76,59.83,130.53,59.83,13.81,0,25-11.19,25-25s-11.19-25-25-25Z"/>
</svg>