<?xml version="1.0" encoding="UTF-8"?>
<svg id="a" data-name="layer1" xmlns="http://www.w3.org/2000/svg" viewBox="0 0 500 500">
  <path d="M441.082,209.353c0-40.184-15.647-77.961-44.061-106.374s-66.19-44.061-106.374-44.061-77.961,15.648-106.373,44.062c-14.176,14.176-25.174,30.684-32.637,48.658-17.974,7.463-34.481,18.46-48.657,32.636-28.414,28.414-44.062,66.192-44.062,106.374s15.648,77.96,44.062,106.374c28.413,28.413,66.19,44.061,106.374,44.061s77.961-15.648,106.373-44.062c14.176-14.176,25.173-30.684,32.636-48.657,17.974-7.463,34.482-18.46,48.658-32.637,28.413-28.414,44.062-66.191,44.062-106.374ZM333.579,308.16c-1.835,13.179-12.24,23.585-25.42,25.419-5.753.801-11.601,1.209-17.512,1.209-33.505,0-65.005-13.047-88.696-36.739-23.691-23.692-36.739-55.192-36.739-88.696,0-5.912.408-11.762,1.21-17.517,1.826-13.111,12.127-23.545,25.235-25.39,6.211-.874,12.533-1.29,18.927-1.229,33.56.321,65.781,14.226,89.084,38.38,22.667,23.494,35.121,54.315,35.121,87.05,0,5.911-.408,11.759-1.209,17.513Z"/>
</svg>