<?xml version="1.0" encoding="UTF-8"?>
<svg id="a" data-name="layer1" xmlns="http://www.w3.org/2000/svg" viewBox="0 0 500 500">
  <path d="M450,437.264c-3.579,0-6.807,1.504-9.085,3.915-2.411,2.278-3.915,5.506-3.915,9.085,0,6.903,5.597,12.5,12.5,12.5h.5c6.903,0,12.5-5.597,12.5-12.5v-.5c0-6.903-5.597-12.5-12.5-12.5Z"/>
  <path d="M290.531,437.764h-1.053c-6.904,0-12.5,5.597-12.5,12.5s5.596,12.5,12.5,12.5h1.053c6.904,0,12.5-5.597,12.5-12.5s-5.596-12.5-12.5-12.5Z"/>
  <path d="M370.542,437.764h-1.053c-6.903,0-12.5,5.597-12.5,12.5s5.597,12.5,12.5,12.5h1.053c6.903,0,12.5-5.597,12.5-12.5s-5.597-12.5-12.5-12.5Z"/>
  <path d="M210.521,437.764h-1.053c-6.904,0-12.5,5.597-12.5,12.5s5.596,12.5,12.5,12.5h1.053c6.904,0,12.5-5.597,12.5-12.5s-5.596-12.5-12.5-12.5Z"/>
  <path d="M130.51,437.764h-1.053c-6.904,0-12.5,5.597-12.5,12.5s5.596,12.5,12.5,12.5h1.053c6.904,0,12.5-5.597,12.5-12.5s-5.596-12.5-12.5-12.5Z"/>
  <path d="M50,143.275c6.904,0,12.5-5.597,12.5-12.5v-1.053c0-6.903-5.596-12.5-12.5-12.5s-12.5,5.597-12.5,12.5v1.053c0,6.903,5.597,12.5,12.5,12.5Z"/>
  <path d="M50,383.306c6.904,0,12.5-5.597,12.5-12.5v-1.053c0-6.903-5.596-12.5-12.5-12.5s-12.5,5.597-12.5,12.5v1.053c0,6.903,5.597,12.5,12.5,12.5Z"/>
  <path d="M50,223.284c6.904,0,12.5-5.597,12.5-12.5v-1.053c0-6.903-5.596-12.5-12.5-12.5s-12.5,5.597-12.5,12.5v1.053c0,6.903,5.597,12.5,12.5,12.5Z"/>
  <path d="M50,303.295c6.904,0,12.5-5.597,12.5-12.5v-1.053c0-6.903-5.596-12.5-12.5-12.5s-12.5,5.597-12.5,12.5v1.053c0,6.903,5.597,12.5,12.5,12.5Z"/>
  <path d="M50,63.264c3.579,0,6.807-1.504,9.085-3.915,2.411-2.278,3.915-5.506,3.915-9.085,0-6.903-5.596-12.5-12.5-12.5h-.5c-6.903,0-12.5,5.597-12.5,12.5v.5c0,6.903,5.597,12.5,12.5,12.5Z"/>
  <path d="M369.489,62.764h1.053c6.903,0,12.5-5.597,12.5-12.5s-5.597-12.5-12.5-12.5h-1.053c-6.903,0-12.5,5.597-12.5,12.5s5.597,12.5,12.5,12.5Z"/>
  <path d="M289.479,62.764h1.053c6.904,0,12.5-5.597,12.5-12.5s-5.596-12.5-12.5-12.5h-1.053c-6.904,0-12.5,5.597-12.5,12.5s5.596,12.5,12.5,12.5Z"/>
  <path d="M209.468,62.764h1.053c6.904,0,12.5-5.597,12.5-12.5s-5.596-12.5-12.5-12.5h-1.053c-6.904,0-12.5,5.597-12.5,12.5s5.596,12.5,12.5,12.5Z"/>
  <path d="M129.458,62.764h1.053c6.904,0,12.5-5.597,12.5-12.5s-5.596-12.5-12.5-12.5h-1.053c-6.904,0-12.5,5.597-12.5,12.5s5.596,12.5,12.5,12.5Z"/>
  <path d="M462.498,50.219c-.001-.396-.021-.792-.06-1.187-.019-.191-.054-.377-.082-.565-.031-.215-.056-.431-.098-.644-.042-.212-.1-.418-.153-.626-.047-.187-.088-.375-.144-.56-.062-.203-.137-.398-.208-.596-.067-.187-.128-.375-.205-.56-.076-.184-.166-.36-.25-.54-.09-.19-.174-.382-.274-.569-.092-.171-.197-.334-.296-.5-.11-.184-.213-.37-.333-.549-.122-.182-.257-.353-.388-.527-.114-.152-.219-.308-.34-.455-.248-.302-.511-.592-.786-.869-.015-.015-.027-.031-.042-.046s-.031-.027-.045-.041c-.278-.275-.568-.539-.87-.787-.145-.12-.299-.223-.448-.335-.177-.133-.351-.27-.535-.394-.175-.117-.357-.219-.537-.326-.171-.102-.338-.209-.513-.303-.181-.097-.367-.179-.552-.266-.185-.088-.368-.18-.558-.259-.177-.073-.358-.132-.538-.197-.205-.074-.408-.152-.618-.216-.176-.053-.355-.092-.534-.137-.217-.056-.432-.116-.653-.16-.199-.039-.4-.062-.6-.092-.203-.03-.403-.067-.609-.088-.349-.034-.7-.048-1.05-.053-.06,0-.118-.009-.178-.009h-.5c-4.502,0-8.437,2.389-10.638,5.96L43.46,439.126c-3.572,2.201-5.96,6.135-5.96,10.638v.499c0,.412.022.824.062,1.235.018.183.052.361.078.542.032.223.058.447.102.668.042.208.099.409.149.612.048.192.09.384.148.574.061.201.136.394.206.59.068.189.13.379.207.564.076.184.166.359.25.539.09.191.175.383.274.57.092.171.197.334.296.501.11.184.213.369.333.548.122.183.258.354.39.53.113.151.217.306.338.452.251.307.518.601.797.882.011.011.02.023.031.034.011.011.023.02.034.031.281.279.575.545.882.797.144.118.295.22.442.331.179.134.354.273.541.397.175.118.358.219.538.327.17.102.337.208.512.302.184.098.372.181.56.27.182.086.362.177.549.255.183.076.369.136.554.203.2.071.396.148.6.21.186.056.374.097.562.144.208.052.413.111.625.153.217.043.436.068.654.1.185.026.367.062.554.08.41.041.822.062,1.233.062h.5c4.503,0,8.438-2.389,10.638-5.96L456.54,61.401c3.571-2.201,5.96-6.136,5.96-10.638v-.5c0-.015-.002-.03-.002-.045Z"/>
  <path d="M450,357.253c-6.903,0-12.5,5.597-12.5,12.5v1.053c0,6.903,5.597,12.5,12.5,12.5s12.5-5.597,12.5-12.5v-1.053c0-6.903-5.597-12.5-12.5-12.5Z"/>
  <path d="M450,277.243c-6.903,0-12.5,5.597-12.5,12.5v1.053c0,6.903,5.597,12.5,12.5,12.5s12.5-5.597,12.5-12.5v-1.053c0-6.903-5.597-12.5-12.5-12.5Z"/>
  <path d="M450,197.233c-6.903,0-12.5,5.597-12.5,12.5v1.053c0,6.903,5.597,12.5,12.5,12.5s12.5-5.597,12.5-12.5v-1.053c0-6.903-5.597-12.5-12.5-12.5Z"/>
  <path d="M450,117.222c-6.903,0-12.5,5.597-12.5,12.5v1.053c0,6.903,5.597,12.5,12.5,12.5s12.5-5.597,12.5-12.5v-1.053c0-6.903-5.597-12.5-12.5-12.5Z"/>
</svg>