<?xml version="1.0" encoding="UTF-8"?>
<svg id="a" data-name="layer1" xmlns="http://www.w3.org/2000/svg" viewBox="0 0 500 500">
  <path d="M361.839,137.719c-2.442-2.445-5.643-3.667-8.844-3.665h-124.87s-12.5,5.918-12.5,12.822,5.596,12.5,12.5,12.678h94.823l-163.448,163.395v-94.896c0-3.452-1.399-6.577-3.661-8.839-2.446-2.447-5.903-3.884-9.691-3.633-6.607.438-11.648,6.118-11.648,12.739v124.732s0,0,0,.001c0,3.199,1.22,6.398,3.661,8.839,2.442,2.442,5.643,3.662,8.844,3.661h124.74c6.395,0,12.263-5.197,12.722-11.575.527-7.322-5.257-13.425-12.467-13.425h-95.076l163.575-163.771v94.937c0,3.456,1.399,6.585,3.661,8.85,2.447,2.45,5.903,3.889,9.691,3.637,6.606-.439,11.647-6.118,11.647-12.739v-124.897s0,0,0,0c0-3.203-1.22-6.406-3.661-8.85Z"/>
</svg>