<?xml version="1.0" encoding="UTF-8"?>
<svg id="a" data-name="layer1" xmlns="http://www.w3.org/2000/svg" viewBox="0 0 500 500">
  <path d="M397.021,102.979c-28.413-28.413-66.19-44.061-106.374-44.061s-77.961,15.648-106.373,44.062c-14.176,14.176-25.174,30.684-32.637,48.658-17.974,7.463-34.481,18.46-48.657,32.636-28.414,28.414-44.062,66.192-44.062,106.374s15.648,77.96,44.062,106.374c28.413,28.413,66.19,44.061,106.374,44.061s77.961-15.648,106.373-44.062c14.176-14.176,25.173-30.684,32.636-48.657,17.974-7.463,34.482-18.46,48.658-32.637,28.413-28.414,44.062-66.191,44.062-106.374s-15.647-77.961-44.061-106.374ZM298.049,379.343c-23.69,23.692-55.19,36.739-88.695,36.739s-65.006-13.047-88.696-36.739c-23.691-23.691-36.739-55.191-36.739-88.696s13.048-65.003,36.74-88.696c6.623-6.623,13.856-12.412,21.573-17.319-1.331,8.095-2.019,16.355-2.019,24.721,0,40.182,15.648,77.96,44.062,106.374,28.413,28.413,66.19,44.061,106.374,44.061,8.366,0,16.625-.688,24.721-2.019-4.907,7.717-10.696,14.951-17.319,21.574ZM333.579,308.16c-1.834,13.179-12.24,23.585-25.419,25.419-5.753.801-11.601,1.209-17.512,1.209-33.505,0-65.005-13.047-88.696-36.739-23.691-23.692-36.739-55.192-36.739-88.696,0-5.912.408-11.762,1.209-17.517,1.826-13.111,12.127-23.545,25.235-25.39,6.212-.874,12.534-1.29,18.927-1.229,33.56.321,65.781,14.226,89.084,38.38,22.667,23.494,35.121,54.315,35.121,87.05,0,5.911-.408,11.759-1.209,17.513ZM379.343,298.049c-6.623,6.623-13.857,12.413-21.574,17.32,1.331-8.095,2.019-16.355,2.019-24.721,0-40.183-15.647-77.96-44.061-106.374-28.413-28.413-66.191-44.061-106.374-44.061-8.366,0-16.626.688-24.721,2.019,4.907-7.716,10.696-14.951,17.319-21.574,23.69-23.692,55.19-36.739,88.695-36.739s65.006,13.047,88.696,36.739c23.691,23.691,36.738,55.19,36.738,88.696s-13.048,65.004-36.739,88.696Z"/>
</svg>