<?xml version="1.0" encoding="UTF-8"?>
<svg id="a" data-name="layer1" xmlns="http://www.w3.org/2000/svg" viewBox="0 0 500 500">
  <path d="M-.01,407.75c-5.82,0-11.03-4.09-12.24-10.01-1.37-6.77,3-13.36,9.76-14.74.6-.12,61.4-12.92,121.11-54.03,34.64-23.85,62.19-52.48,81.88-85.09,24.55-40.65,36.99-87.86,36.99-140.31,0-6.9,5.6-12.5,12.5-12.5,50.08,0,95.21,16.3,134.13,48.44,30.64,25.3,57.38,60.39,79.47,104.29,37.16,73.86,48.31,146.56,48.76,149.61,1.02,6.83-3.69,13.19-10.52,14.21-6.83,1.02-13.19-3.69-14.21-10.51h0c-.11-.71-11.13-72.28-46.63-142.6-20.52-40.65-45.09-72.92-73.02-95.91-31.06-25.57-66.57-39.72-105.72-42.15-1.92,52.16-15.57,99.48-40.64,140.82-21.66,35.71-51.8,66.94-89.56,92.8-63.86,43.74-126.92,56.9-129.58,57.43-.84.17-1.68.25-2.5.25Z"/>
</svg>