<?xml version="1.0" encoding="UTF-8"?>
<svg id="a" data-name="layer1" xmlns="http://www.w3.org/2000/svg" viewBox="0 0 1000 1000">
  <path d="M1009.85,477.02c-12.69-5.44-27.39.44-32.83,13.13-30.2,70.48-61.44,143.36-98.93,195.85-39.32,55.04-80.02,80.68-128.09,80.68s-88.78-25.64-128.09-80.68c-37.49-52.49-68.72-125.37-98.93-195.85-31.25-72.92-63.56-148.32-104.2-205.21-48.84-68.38-104.05-101.62-168.78-101.62s-119.94,33.24-168.78,101.62c-40.63,56.89-72.95,132.29-104.2,205.21-5.44,12.69.44,27.39,13.13,32.83,12.7,5.44,27.39-.44,32.83-13.13,30.2-70.48,61.44-143.36,98.93-195.85,39.32-55.04,80.02-80.68,128.09-80.68s88.78,25.64,128.09,80.68c37.08,51.92,68.04,123.77,97.93,193.53.62,2.32,1.56,4.51,2.79,6.51,30.69,71.61,62.55,145.22,102.4,201.02,48.84,68.38,104.05,101.62,168.78,101.62s119.94-33.24,168.78-101.62c40.63-56.89,72.95-132.29,104.2-205.21,5.44-12.69-.44-27.39-13.13-32.83Z"/>
  <circle cx="124.69" cy="501.19" r="24.65"/>
  <circle cx="249.73" cy="501.19" r="24.65"/>
  <path d="M374.78,476.54c-13.61,0-24.65,11.03-24.65,24.65s11.04,24.65,24.65,24.65,24.65-11.03,24.65-24.65-11.04-24.65-24.65-24.65Z"/>
  <circle cx="624.87" cy="501.19" r="24.65"/>
  <circle cx="749.91" cy="501.19" r="24.65"/>
  <path d="M874.95,525.83c13.61,0,24.65-11.03,24.65-24.65s-11.04-24.65-24.65-24.65-24.65,11.03-24.65,24.65,11.03,24.65,24.65,24.65Z"/>
</svg>