<?xml version="1.0" encoding="UTF-8"?>
<svg id="a" data-name="layer1" xmlns="http://www.w3.org/2000/svg" viewBox="0 0 500 500">
  <path d="M370.37,129.63c-28.23-28.23-65.24-45.55-104.75-49.14v-17.98c0-8.62-7.01-15.62-15.62-15.62s-15.62,7.01-15.62,15.62v17.98c-39.51,3.59-76.51,20.91-104.75,49.14-32.15,32.15-49.86,74.9-49.86,120.37s17.71,88.22,49.86,120.37c28.23,28.23,65.24,45.55,104.75,49.14v17.98c0,8.62,7.01,15.62,15.62,15.62s15.62-7.01,15.62-15.62v-17.98c39.51-3.59,76.51-20.91,104.75-49.14,32.15-32.15,49.86-74.9,49.86-120.37s-17.71-88.22-49.86-120.37ZM388.98,250c0,70.86-53.67,130.27-123.36,138.1V111.9c69.69,7.83,123.36,67.24,123.36,138.1ZM234.37,111.9v276.2c-69.69-7.83-123.36-67.24-123.36-138.1s53.67-130.27,123.36-138.1Z"/>
</svg>