<?xml version="1.0" encoding="UTF-8"?>
<svg id="a" data-name="layer1" xmlns="http://www.w3.org/2000/svg" viewBox="0 0 500 500">
  <path d="M450.81,200.923c4.362-4.981,3.91-12.563-.772-17.245l-88.198-88.198c-.259-.259-.53-.506-.811-.741-.144-.12-.391-.301-.541-.414-.182-.136-.359-.276-.548-.403-.177-.119-.361-.221-.543-.33-.168-.101-.333-.206-.506-.299-.185-.099-.376-.183-.565-.272-.181-.085-.359-.176-.544-.253-.184-.076-.371-.137-.558-.204-.198-.071-.394-.147-.597-.209-.187-.056-.377-.098-.565-.145-.207-.052-.41-.11-.621-.152-.221-.044-.443-.069-.665-.101-.183-.026-.483-.074-.668-.09-.738-.065-1.481-.065-2.219,0-.185.016-.484.064-.668.09-.222.032-.445.058-.665.101-.21.042-.414.1-.621.152-.189.047-.378.089-.565.145-.203.061-.399.137-.597.209-.186.067-.374.128-.557.204-.186.077-.363.167-.544.253-.189.089-.379.173-.564.272-.173.093-.338.199-.506.299-.182.109-.366.211-.543.33-.188.126-.366.267-.547.402-.15.112-.397.293-.541.413-.281.235-.552.482-.811.741l-88.207,88.207c-4.522,4.522-4.997,12.346-.811,17.181,4.805,5.55,13.21,5.775,18.308.678l67.05-67.05v249.005H58.845c-6.395,0-12.264,5.197-12.722,11.575-.527,7.322,5.257,13.425,12.467,13.425h294.41c6.904,0,12.5-5.596,12.5-12.5V134.495l67.05,67.05c2.441,2.441,5.64,3.661,8.839,3.661,3.46,0,6.92-1.428,9.421-4.284Z"/>
</svg>