<?xml version="1.0" encoding="UTF-8"?>
<svg id="a" data-name="layer1" xmlns="http://www.w3.org/2000/svg" width="1000" height="1000" viewBox="0 0 1000 1000">
  <path d="M99.979,752.161c-9.314,0-17.653-6.542-19.578-16.024-2.198-10.825,4.795-21.382,15.619-23.58.955-.195,98.24-20.665,193.783-86.455,55.42-38.162,99.497-83.968,131.006-136.145,39.276-65.04,59.191-140.57,59.191-224.491,0-11.046,8.954-20,20-20,80.129,0,152.336,26.074,214.613,77.499,49.031,40.486,91.809,96.625,127.146,166.858,59.461,118.18,77.292,234.491,78.022,239.384,1.63,10.925-5.905,21.103-16.83,22.732-10.933,1.626-21.098-5.902-22.731-16.822h0c-.171-1.143-17.815-115.652-74.615-228.153-32.835-65.036-72.143-116.667-116.829-153.46-49.692-40.914-106.514-63.55-169.151-67.435-3.068,83.461-24.904,159.168-65.024,225.309-34.662,57.144-82.875,107.101-143.298,148.484-102.172,69.977-203.076,91.033-207.321,91.896-1.343.272-2.683.404-4.002.404Z" fill="#000" stroke-width="0"/>
</svg>