<?xml version="1.0" encoding="UTF-8"?>
<svg id="a" data-name="layer1" xmlns="http://www.w3.org/2000/svg" viewBox="0 0 500 500">
  <path d="M432.37,298.64l-66.87,66.87V104c0-6.9-5.6-12.5-12.5-12.5H58.85c-6.39,0-12.26,5.2-12.72,11.58-.53,7.32,5.26,13.42,12.47,13.42h281.91v249l-66.87-66.87c-4.52-4.52-12.35-5-17.18-.81-5.55,4.8-5.78,13.21-.68,18.31l88.39,88.39c.29.29.6.57.92.83.14.12.29.22.44.33.18.14.36.28.55.4.18.12.36.22.54.33.17.1.33.21.51.3.18.1.38.18.56.27.18.09.36.18.54.25.18.08.37.14.56.2.2.07.39.15.6.21.19.06.38.1.56.14.21.05.41.11.62.15.22.04.44.07.67.1.18.03.48.07.67.09.37.03.74.05,1.11.05s.74-.02,1.11-.05c.19-.02.49-.06.67-.09.22-.03.45-.06.67-.1.21-.04.42-.1.62-.15.19-.05.38-.09.56-.14.2-.06.4-.14.6-.21.19-.07.37-.13.56-.2.19-.08.36-.17.54-.25.19-.09.38-.17.56-.27.17-.09.34-.2.51-.3.18-.11.36-.21.54-.33.19-.13.36-.27.55-.4.15-.11.29-.21.44-.33.32-.26.63-.54.92-.83l88.39-88.39c5.1-5.1,4.87-13.5-.68-18.31-4.83-4.19-12.66-3.71-17.18.81Z"/>
</svg>