<?xml version="1.0" encoding="UTF-8"?>
<svg id="a" data-name="layer1" xmlns="http://www.w3.org/2000/svg" viewBox="0 0 500 500">
  <path d="M441.08,209.35c0-40.18-15.65-77.96-44.06-106.37s-66.19-44.06-106.37-44.06-77.96,15.65-106.37,44.06c-14.18,14.18-25.17,30.68-32.64,48.66-17.97,7.46-34.48,18.46-48.66,32.64-28.41,28.41-44.06,66.19-44.06,106.37s15.65,77.96,44.06,106.37c28.41,28.41,66.19,44.06,106.37,44.06s77.96-15.65,106.37-44.06c14.18-14.18,25.17-30.68,32.64-48.66,17.97-7.46,34.48-18.46,48.66-32.64,28.41-28.41,44.06-66.19,44.06-106.37ZM328.88,328.88c-12.2,3.89-25.06,5.91-38.23,5.91-33.5,0-65-13.05-88.7-36.74-23.69-23.69-36.74-55.19-36.74-88.7,0-13.17,2.03-26.03,5.91-38.23,12.2-3.89,25.06-5.91,38.23-5.91,33.5,0,65,13.05,88.7,36.74s36.74,55.19,36.74,88.7c0,13.17-2.03,26.03-5.91,38.23Z"/>
</svg>