<?xml version="1.0" encoding="UTF-8"?>
<svg id="a" data-name="layer1" xmlns="http://www.w3.org/2000/svg" viewBox="0 0 500 500">
  <path d="M450,437.264c-3.579,0-6.807,1.504-9.085,3.915-2.411,2.278-3.915,5.506-3.915,9.085,0,6.903,5.597,12.5,12.5,12.5h.5c6.903,0,12.5-5.597,12.5-12.5v-.5c0-6.903-5.597-12.5-12.5-12.5Z"/>
  <path d="M370.542,437.764h-1.053c-6.904,0-12.5,5.597-12.5,12.5s5.596,12.5,12.5,12.5h1.053c6.903,0,12.5-5.597,12.5-12.5s-5.597-12.5-12.5-12.5Z"/>
  <path d="M290.531,437.764h-1.053c-6.903,0-12.5,5.597-12.5,12.5s5.597,12.5,12.5,12.5h1.053c6.903,0,12.5-5.597,12.5-12.5s-5.597-12.5-12.5-12.5Z"/>
  <path d="M210.521,437.764h-1.053c-6.903,0-12.5,5.597-12.5,12.5s5.597,12.5,12.5,12.5h1.053c6.903,0,12.5-5.597,12.5-12.5s-5.597-12.5-12.5-12.5Z"/>
  <path d="M50,303.295c6.903,0,12.5-5.597,12.5-12.5v-1.053c0-6.903-5.597-12.5-12.5-12.5s-12.5,5.597-12.5,12.5v1.053c0,6.903,5.597,12.5,12.5,12.5Z"/>
  <path d="M50,383.306c6.903,0,12.5-5.597,12.5-12.5v-1.053c0-6.903-5.597-12.5-12.5-12.5s-12.5,5.597-12.5,12.5v1.053c0,6.903,5.597,12.5,12.5,12.5Z"/>
  <path d="M50,223.284c6.903,0,12.5-5.597,12.5-12.5v-1.053c0-6.903-5.597-12.5-12.5-12.5s-12.5,5.597-12.5,12.5v1.053c0,6.903,5.597,12.5,12.5,12.5Z"/>
  <path d="M50,143.275c6.903,0,12.5-5.597,12.5-12.5v-1.053c0-6.903-5.597-12.5-12.5-12.5s-12.5,5.597-12.5,12.5v1.053c0,6.903,5.597,12.5,12.5,12.5Z"/>
  <path d="M50,63.264c3.579,0,6.807-1.504,9.085-3.915,2.411-2.278,3.915-5.506,3.915-9.085,0-6.903-5.597-12.5-12.5-12.5h-.5c-6.903,0-12.5,5.597-12.5,12.5v.5c0,6.903,5.597,12.5,12.5,12.5Z"/>
  <path d="M369.489,62.764h1.053c6.903,0,12.5-5.597,12.5-12.5s-5.597-12.5-12.5-12.5h-1.053c-6.904,0-12.5,5.597-12.5,12.5s5.596,12.5,12.5,12.5Z"/>
  <path d="M129.458,62.764h1.053c6.903,0,12.5-5.597,12.5-12.5s-5.597-12.5-12.5-12.5h-1.053c-6.903,0-12.5,5.597-12.5,12.5s5.597,12.5,12.5,12.5Z"/>
  <path d="M209.468,62.764h1.053c6.903,0,12.5-5.597,12.5-12.5s-5.597-12.5-12.5-12.5h-1.053c-6.903,0-12.5,5.597-12.5,12.5s5.597,12.5,12.5,12.5Z"/>
  <path d="M289.479,62.764h1.053c6.903,0,12.5-5.597,12.5-12.5s-5.597-12.5-12.5-12.5h-1.053c-6.903,0-12.5,5.597-12.5,12.5s5.597,12.5,12.5,12.5Z"/>
  <path d="M450,197.233c-6.903,0-12.5,5.597-12.5,12.5v1.053c0,6.903,5.597,12.5,12.5,12.5s12.5-5.597,12.5-12.5v-1.053c0-6.903-5.597-12.5-12.5-12.5Z"/>
  <path d="M450,277.243c-6.903,0-12.5,5.597-12.5,12.5v1.053c0,6.903,5.597,12.5,12.5,12.5s12.5-5.597,12.5-12.5v-1.053c0-6.903-5.597-12.5-12.5-12.5Z"/>
  <path d="M450,357.253c-6.903,0-12.5,5.597-12.5,12.5v1.053c0,6.903,5.597,12.5,12.5,12.5s12.5-5.597,12.5-12.5v-1.053c0-6.903-5.597-12.5-12.5-12.5Z"/>
  <path d="M462.5,50c0-6.903-5.596-12.499-12.5-12.499-2.23,0-4.32.591-6.133,1.614-4.071,2.062-6.867,6.273-6.867,11.148,0,1.172.176,2.301.478,3.377-.465,51.031-10.69,100.532-30.424,147.188-19.517,46.142-47.458,87.584-83.05,123.175-35.591,35.592-77.033,63.533-123.175,83.05-47.067,19.907-97.031,30.137-148.538,30.432-.744-.138-1.507-.222-2.291-.222-6.903,0-12.5,5.597-12.5,12.5v.5c0,6.903,5.597,12.5,12.5,12.5h.5c.903,0,1.782-.101,2.631-.283,22.196-.163,44.124-2.062,65.687-5.679,2.2,3.572,6.136,5.962,10.639,5.962h1.053c6.304,0,11.505-4.673,12.362-10.741,23.075-5.313,45.682-12.634,67.696-21.945,49.122-20.776,93.235-50.518,131.114-88.396,37.879-37.879,67.62-81.992,88.397-131.114,9.28-21.94,16.581-44.468,21.89-67.463,5.965-.946,10.531-6.099,10.531-12.33v-1.053c0-4.42-2.301-8.296-5.764-10.519,3.782-22.419,5.711-45.233,5.759-68.334,0-.036.005-.07.005-.105v-.5c0-.01-.001-.019-.001-.029,0-.079.001-.157.001-.235Z"/>
</svg>