<?xml version="1.0" encoding="UTF-8"?>
<svg id="a" data-name="layer1" xmlns="http://www.w3.org/2000/svg" viewBox="0 0 1000 1000">
  <defs>
    <style>
      .d {
        fill: #212121;
      }
    </style>
  </defs>
  <path class="d" d="M884.26,817.03c-.48,0-.96-.01-1.44-.04-1.36-.06-7.28-.27-7.29-.27-2.07-.07-4.13-.41-6.12-.99l-8.16-2.38c-1.84-.54-3.62-1.29-5.29-2.23l-8.32-4.7c-1.29-.73-2.51-1.57-3.66-2.52l-8.56-7.1c-.99-.82-1.91-1.71-2.75-2.66-.9-1.01-8.56-9.47-8.56-9.47-.56-.62-1.1-1.28-1.6-1.96l-9.05-12.3c-.44-.6-.85-1.21-1.23-1.83-.79-1.28-9.19-14.93-9.19-14.93l.09-.06c-1.03-1.59-1.8-3.05-2.39-4.17l-8.07-15.26c-.26-.5-.51-1.01-.74-1.53-.73-1.55-4.44-9.28-7.77-16.2l.09-.04c-1.19-2.41-2.55-5.51-4.4-9.72l-3.92-8.95h.01c-.16-.35-.3-.69-.45-1.05l-15.24-37.62c-.09-.23-.18-.46-.27-.69-.86-2.24-9.53-24.43-15.31-39.18l-16.35-39.6c-1.08-2.39-7.66-17.04-8.59-19.11-.86-1.79-5.98-12.24-9.17-18.74-.44-.76-.82-1.45-1.14-2.05l-8.23-15.21c-1.71-2.82-10.45-17.16-10.45-17.16h0c-1.43-1.95-3.06-4.3-5.04-7.16l-5.36-7.73c-1.64-2.05-7.36-9.13-11.32-14.02-.47-.48-.93-.95-1.36-1.41l-10.66-11.12-12.76-11c-.48-.32-.93-.62-1.33-.89-.48-.31-1.5-.96-2.04-1.31-.8-.43-1.51-.84-2.12-1.19-.43-.23-1.08-.57-1.51-.8-.31-.14-.63-.28-.95-.43l-1.46-.7s-.08-.04-.11-.05c-.5-.23-1.27-.56-1.62-.71-.28-.1-.56-.21-.84-.32l-.68-.27c-.5-.16-1.03-.34-1.6-.52l-1.78-.5-1.79-.44c-.48-.09-1.09-.21-1.88-.37-.39-.06-.96-.15-1.39-.21-.25-.02-.5-.04-.76-.07l-.95-.09c-.44-.03-1.02-.06-1.79-.11-.47,0-1.11,0-1.52,0l-3.66.16c-.2.03-.4.06-.6.08l-1.5.2h0c-.33.05-.66.1-1,.15l-.74.11c-.49.1-1.02.2-1.57.3-.65.16-1.38.33-2.16.5h0s-2.3.62-2.3.62c-.52.17-1.26.41-1.69.55-.07.02-.14.05-.21.07-.69.24-1.46.5-2.3.77-.83.32-1.59.61-2.31.87-.46.19-1.32.56-1.84.79,0,0-.01,0-.02,0l-5.17,2.42c-.09.04-.19.09-.28.13-1.83.99-3.38,1.83-4.75,2.54h0s-2.81,1.66-4.62,2.72c-6,4.86-12.27,9.94-13.89,11.26l-14.57,13.21c-.08.07-.15.14-.23.2-11.59,11.56-28.67,28.61-29.98,29.93,0,0,0,0,0,0l-25.26,25.7c-1.98,2.01-3.7,3.77-5.36,5.27l.07.08-14.23,13.5c-.5.47-1,.92-1.51,1.34l.02.03s-13.04,11.21-14.52,12.5c-.55.48-1.12.94-1.71,1.38l-14.19,10.47c-.72.53-1.43,1.01-2.14,1.44l.02.03s-5.72,3.6-6.93,4.38c-.59.39-1.21.76-1.84,1.1l-3.72,2.01c-1.53.83-3.31,1.79-5.32,2.66l.05.11c-4.4,2-7.26,3.3-9.49,4.14v.04s-3.72,1.32-3.72,1.32c-1.79.63-3.84,1.35-6.1,1.9l.03.11s-5.79,1.42-7.12,1.75c-.97.25-1.97.45-2.99.59-8.75,1.18-9.17,1.23-10.67,1.24l-7.3.14c-1.06.02-2.11-.03-3.16-.14l-6.43-.7c-1.53-.17-2.96-.42-4.31-.75l-.02.08s-5.71-1.37-7.12-1.7c-1.16-.25-2.31-.58-3.44-1l-6.54-2.43c-1.4-.52-2.7-1.11-3.9-1.74l-.04.08s-5.92-3.06-7.28-3.74c-.93-.45-1.84-.97-2.72-1.54,0,0-6.4-4.18-7.56-4.93-.84-.53-1.65-1.11-2.43-1.74l-7.9-6.4c-.53-.43-1.05-.89-1.55-1.37l-4.03-3.86c-2.57-2.46-4.99-4.79-6.96-7.41l-.07.05c-10.53-14.72-26.31-36.77-27.88-38.96-.51-.69-.99-1.42-1.43-2.17-9.59-16.35-23.99-40.9-25.24-43.03-.31-.51-.6-1.04-.87-1.57-8.65-17.05-21.74-42.81-22.89-45.04-.2-.38-.39-.76-.57-1.15l-20.86-45.12c-.1-.23-.2-.45-.3-.67h0c-12.29-27.31-35.38-78.6-37.68-83.69l-16.52-32.9c-.08-.15-.15-.3-.22-.45-2.58-4.15-12.71-20.41-15.61-25.06-1.56-1.92-4.62-5.67-6.28-7.72l-5.24-4.77c-.86-.51-1.87-1.1-2.8-1.66l-.29-.06c-.79.42-1.61.86-2.35,1.26-1.67,1.55-3.89,3.59-5.35,4.94-1.99,2.61-5.73,7.51-7.38,9.67-1.91,3.22-7.02,11.84-8.65,14.6l-9.43,19.45c-2.74,7.1-18.87,48.82-21.26,55.02-7.85,25.28-22.11,71.2-23.66,76.22l-26.43,99.61c-3.54,13.34-17.23,21.29-30.57,17.75-13.35-3.54-21.29-17.23-17.75-30.58l26.56-100.1.06.02c.68-2.5,1.88-6.36,3.98-13.14l20.31-65.41.08.03c.48-1.64,1.01-3.02,1.42-4.07l21.02-54.39c.31-.79.65-1.57,1.03-2.32.83-1.7,6.56-13.52,10.09-20.81l.05.02c.41-.86.86-1.72,1.37-2.59l9.5-16.03.09.05c1.54-2.47,3.62-5.2,6.34-8.77l4.8-6.29.1.08c2.08-2.6,4.65-4.97,7.45-7.55l4.64-4.28.08.09c1.76-1.6,3.9-3.13,6.47-4.51l7.65-4.1c2.58-1.38,5.37-2.29,8.25-2.71.89-.13,8.65-1.3,8.65-1.3,3.17-.48,6.36-.33,9.4.38.73.16,4.15.93,6.4,1.43,4.53.49,7.69,2.35,17.82,8.34,1.69,1,3.22,2.17,4.58,3.48,1.5,1.38,8,7.3,8,7.3l-.1.11c2.37,2.23,4.53,4.9,6.88,7.78l4.22,5.19-.08.06c.91,1.09,1.79,2.31,2.63,3.66l16.34,26.24c.48.77.91,1.56,1.3,2.36,1.16,2.32,10.84,21.61,17.29,34.45l-.05.03c.72,1.41,1.4,2.91,2.14,4.55l36.29,80.6s.04.09.06.14c1.05,2.3,12.98,28.09,20.87,45.14.21.37.41.76.61,1.14l21.72,42.75,24.43,41.66,26.12,36.5c1.66,1.6,4.27,4.1,5.54,5.32l6.35,5.15c1.56.98,3.34,2.13,5.44,3.5.03.02.07.03.1.05l5.31,2.73c1.36.51,3.49,1.3,4.89,1.81.82.18,1.61.37,2.37.55l2.32.56c1.29.14,3.13.34,4.44.48l4.54-.08c1.34-.18,3.42-.46,4.77-.64l5-1.23c1.46-.51,4.01-1.41,5.38-1.89,1.43-.64,4.32-1.95,5.65-2.56,1.44-.77,4.9-2.65,6.1-3.3.93-.63,1.84-1.2,2.69-1.73l2.97-1.87c2.41-1.77,10.9-8.04,13.33-9.84.53-.47,1.03-.91,1.5-1.31l12.12-10.43c1.65-1.55,9.16-8.68,13.98-13.27,2.14-2.17,18.61-18.93,29.6-30.1l.07.07c1.45-1.6,3.09-3.24,4.87-5.02l25.82-25.77c.36-.36.73-.7,1.1-1.04,1.51-1.36,15.38-13.95,15.38-13.95l.05.06c1.24-1.16,2.44-2.15,3.48-2.99l13.51-10.95.05.06c1.18-.96,2.49-1.88,3.97-2.75l5.34-3.14c.36-.21.72-.41,1.09-.6,1-.53,5.77-3.12,5.77-3.12.56-.3,1.12-.58,1.68-.83,1.09-.51,5.72-2.68,5.72-2.68l.03.07c1.44-.74,2.74-1.29,3.76-1.73.41-.17.82-.33,1.23-.49.64-.24,2.6-1,2.6-1,.5-.19,1.01-.37,1.52-.53.71-.24,2.23-.76,2.24-.77v.04c.63-.24,1.26-.46,1.93-.68l1.56-.5c.41-.13.83-.26,1.25-.37l2.94-.78c.4-.11.81-.2,1.22-.29.69-.16,2.13-.51,2.14-.52.53-.13,1.06-.24,1.6-.33.61-.12,1.79-.37,2.11-.43.5-.1,1.02-.19,1.54-.27h0s1.83-.27,2.46-.37c.26-.04.53-.08.79-.12.01,0,1.41-.18,2.12-.28.82-.13,1.65-.22,2.49-.27l2.87-.17c.25-.01.41-.02.66-.03,0,0,3.64-.11,3.64-.11h1.5c.99,0,1.96.05,2.89.13v-.07s2.71.16,2.71.16c.36.02.73.05,1.09.08.01,0,1.44.14,2.13.21.62.05,1.25.12,1.88.21l1.47.22c.86.13,1.69.29,2.49.47v-.06s2.64.52,2.64.52c.41.08.81.17,1.21.26l1.41.34c.79.19,1.54.4,2.27.63l.02-.05,1.39.39c.84.24,1.64.5,2.41.78l.02-.06s1.84.61,2.45.81c.62.19,1.22.41,1.82.65,0,0,1.6.64,2.24.9.39.15.78.31,1.17.47l1.48.65c.73.32,1.42.66,2.09,1l.02-.04s1.25.6,1.92.92c.56.24,1.11.51,1.66.8,1.04.55,2.32,1.22,3.71,2.08l.03-.06s1.16.68,1.83,1.06c.62.32,1.22.68,1.81,1.05,1.69,1.08,2.71,1.73,3.42,2.21h0s1.5,1.03,2.17,1.48c.96.62,1.89,1.32,2.78,2.08l14.72,12.68c.61.52,1.19,1.07,1.74,1.65,0,0,11.97,12.5,13.34,13.92.57.58,1.12,1.2,1.64,1.84l12.11,15c.56.7,1.08,1.4,1.56,2.11l.03-.02c4.89,7.06,10.41,15.01,11.33,16.32.4.55.77,1.11,1.13,1.69l10.37,17.02c.38.63.73,1.25,1.05,1.88l.04-.02c3.43,6.35,9.02,16.69,9.85,18.2.24.43.47.86.69,1.31l7.98,16.3c.51,1.04,1.13,2.31,1.73,3.77l.08-.03,7.48,16.64c.49,1.09,1.07,2.38,1.62,3.83l.08-.03,16.58,40.17c.06.14.12.29.17.43l15.42,39.46c.04.1.07.2.11.29,1.19,2.94,13.85,34.19,15.17,37.44.91,2.09,6.53,14.9,7.5,17.11l3.92,8.15c1.02,2.13,2.04,4.25,2.81,5.85.27.57.59,1.23.92,1.98,3.04,5.76,7.76,14.69,9.01,17.02l7.44,12.09c.24.39.52.85.83,1.37l7.77,10.57,6.69,7.4,5.45,4.52,3.87,2.18,2.39.7,1.52.06,1.54-.35,2.72-1.33,3.85-2.86c1.22-1.22,3.05-3.05,4.27-4.28,2.57-3.56,8.76-12.13,11.09-15.36,3.96-7.37,9.52-17.73,11.12-20.73l10.68-25.04c.07-.16.14-.32.21-.48l10.09-28.01c.07-.19.14-.39.21-.58l18.74-62.87c.02-.06.04-.13.06-.19l29.2-116.15c3.37-13.39,16.94-21.52,30.34-18.15,13.39,3.37,21.52,16.95,18.15,30.34l-29.34,116.67c-.11.42-.22.83-.35,1.25-1,3.33-19.09,64.03-19.09,64.04-.17.59-.37,1.16-.58,1.73-.72,1.98-6.7,18.6-10.64,29.54-.22.6-.45,1.19-.71,1.77-.84,1.95-7.36,17.25-11.39,26.7l-.12-.05c-.89,2.16-1.92,4.08-2.78,5.69l-10.52,19.61-.05-.03c-.64,1.19-1.38,2.39-2.25,3.6l-12.67,17.56-.06-.04c-1.71,2.26-3.77,4.33-6.02,6.59l-3.51,3.51-.07-.07c-1.12,1.13-2.39,2.23-3.82,3.29l-6.05,4.5c-1.23.91-2.53,1.71-3.9,2.38l-7.43,3.65c-1.92.94-3.91,1.62-5.93,2.04-1.46.33-7.2,1.62-7.2,1.62-1.82.41-3.66.61-5.49.61ZM859.26,792.12c.05,13.26,10.31,24.13,23.46,24.86-5.08-.31-10.01-2.18-14.08-5.43-5.91-4.73-9.36-11.87-9.38-19.43ZM859.26,792.08v.04-.04ZM859.26,792.03v.04-.04ZM789.83,724.15c.18,2.85.85,5.66,2.02,8.3-1.16-2.66-1.83-5.47-2.02-8.29,0,0,0,0,0,0ZM357.95,603.52c1.15.24,2.3.4,3.47.48,0,0-.02,0-.03,0-1.15-.08-2.3-.23-3.44-.47ZM365.2,603.94h0c.32-.03.64-.06.95-.1-.32.04-.63.07-.95.1ZM378.62,598.58s-.04.03-.05.04c.02-.01.04-.03.05-.04ZM344.58,597c.35.04.7.07,1.05.1-.35-.03-.7-.06-1.05-.1h0ZM336.74,594.73c1.2.58,2.45,1.06,3.71,1.43,0,0-.01,0-.02-.01-1.26-.37-2.49-.84-3.7-1.42ZM440.2,587.1c-.95.87-1.97,1.68-3.06,2.41,1.09-.72,2.12-1.53,3.08-2.41h-.01ZM448.26,568.8h0s0,0,0,0ZM448.26,568.71v.05-.05ZM405.51,551.25c-2.32.27-4.29.83-5.82,1.4.25-.09.4-.14.4-.14,1.76-.62,3.57-1.04,5.41-1.25,0,0,0,0,0,0ZM408.23,548.89c-1.06.34-2.1.75-3.11,1.24.25-.11.39-.18.39-.18.88-.4,1.78-.75,2.7-1.04,0,0,.02-.01.02-.02ZM412.03,548h0c1.1-.16,2.21-.26,3.32-.28-1.11.02-2.22.11-3.32.28ZM343.6,537.75l.43.6c.93,1.3,1.73,2.68,2.39,4.12h0c-.76-1.68-1.71-3.26-2.82-4.72ZM460.16,515.42c-5.95,0-11.86,2.11-16.5,6.25l.23-.2c5.21-4.48,11.83-6.49,18.32-5.96-.68-.06-1.36-.08-2.04-.08ZM676.29,484.08c.77,2.84,2.06,5.57,3.85,8.03l-.26-.38c-1.65-2.38-2.83-4.96-3.57-7.64,0,0-.02-.01-.03-.02ZM725.01,472.88c2.81,1.7,5.27,3.93,7.23,6.59-1.28-1.76-3.62-4.42-7.23-6.6h0ZM680.13,462.92c-1.86,2.59-3.16,5.43-3.92,8.39h0c.76-2.96,2.06-5.81,3.91-8.39ZM571.39,465.89c-1,1.39-2.15,2.67-3.44,3.84l-.23.21c1.38-1.21,2.61-2.57,3.68-4.05ZM680.16,462.87s-.02.03-.03.05c.01-.02.02-.03.03-.05ZM680.2,462.82s-.02.03-.03.04l.03-.04ZM680.23,462.77s-.02.02-.03.04c0-.01.02-.02.03-.04ZM680.27,462.72s-.02.02-.02.03c0-.01.02-.02.02-.03ZM680.31,462.67s-.01.02-.02.03c0,0,.01-.02.02-.03ZM680.35,462.62s-.01.01-.02.02c0,0,0-.01.02-.02ZM680.39,462.57s0,0-.01.01c0,0,0,0,.01-.01ZM637.87,450.94c.22.14.44.27.65.39-.21-.13-.42-.25-.63-.39,0,0-.01,0-.02,0ZM597.2,450.57c-.23.12-.47.24-.7.35.24-.12.49-.24.73-.36h-.03ZM636.13,449.73c.25.19.5.38.76.55h0c-.26-.18-.51-.37-.75-.55h0ZM633.84,449.03c.2.11.4.21.6.31-.2-.1-.39-.2-.58-.3,0,0-.01,0-.02,0ZM600.34,448.62h0c.21-.15.43-.32.64-.48h0c-.21.16-.42.32-.64.48ZM603.96,448.13c-.29.12-.59.23-.89.34.3-.11.6-.22.89-.34h0ZM623.65,446.16c.25.05.5.1.75.15-.07-.01-.14-.03-.21-.04-.17-.03-.33-.07-.5-.1-.01,0-.03,0-.04,0ZM618.53,445.79c.3.02.61.04.91.05-.12,0-.24-.01-.36-.02-.18-.01-.36-.02-.55-.04h0ZM616.77,445.6c.31.05.63.09.95.12h0c-.3-.05-.6-.09-.9-.13-.02,0-.03,0-.05.01ZM619.5,444.87c.49.2.99.39,1.5.56h0c-.5-.18-.99-.37-1.48-.57,0,0-.01,0-.02,0ZM610.85,443.93c.42.18.85.34,1.28.5v-.03c-.43-.15-.84-.31-1.26-.49,0,0-.01.01-.02.02ZM610.82,443.91s.01,0,.02,0c0,0,.01-.01.02-.02-.02,0-.03-.01-.05-.02v.03ZM609.29,436.48v.03c.52-1.51.9-3.13,1.13-4.85-.22,1.66-.6,3.27-1.13,4.82ZM610.42,431.6s0,.02,0,.03c0-.01,0-.02,0-.03ZM672.2,413.48c.21.13.43.26.64.39-.22-.14-.44-.27-.66-.4,0,0,.01.01.02.02ZM668.28,411.61c.84.32,1.67.68,2.49,1.09h0c-.81-.42-1.65-.78-2.5-1.09,0,0,0,0,0,0ZM664.37,408.64c.33.15.66.31.98.48-.33-.17-.67-.34-1.02-.5.01,0,.03.02.04.03ZM660.99,407.38c.93.27,1.85.6,2.75.98h0c-.87-.38-1.8-.71-2.78-1,0,0,.01.01.02.02ZM655.32,406.42c.08,0,.16,0,.24.01v-.02c-.08,0-.17-.01-.26-.02,0,0,.01.01.02.02ZM606.63,405.75h0c1.48-1.86,3.22-3.49,5.14-4.85,0,0-.02,0-.03-.01-1.91,1.36-3.64,3-5.12,4.87ZM657.18,404.89c.35.13.7.27,1.04.42-.37-.16-.73-.31-1.11-.45.02.01.04.02.06.03ZM651.96,403.56c1.51.21,3.01.57,4.48,1.06h0c-1.48-.53-3-.89-4.54-1.1l.05.04ZM616.01,403.61s.04.03.05.04c-.02-.01-.03-.03-.05-.04ZM583.59,402.62c-1.38.28-2.55.64-3.48.98,1.13-.41,2.29-.73,3.47-.98,0,0,0,0,0,0ZM648.14,401.32c1.16.25,2.31.58,3.44,1-1.16-.44-2.33-.78-3.51-1.04.02.01.05.02.07.03ZM586.7,402.19h0c.16-.01.32-.02.48-.03-.16,0-.32.02-.48.03ZM587.22,402.15s-.02,0-.03,0c.01,0,.02,0,.03,0ZM587.25,402.15s-.02,0-.03,0c0,0,.02,0,.03,0ZM587.29,402.15s-.01,0-.02,0c0,0,.01,0,.02,0ZM587.33,402.15s-.01,0-.02,0c0,0,.01,0,.02,0ZM587.37,402.15s0,0-.01,0c0,0,0,0,.01,0ZM587.41,402.14s0,0-.01,0c0,0,0,0,.01,0ZM587.45,402.14s0,0,0,0c0,0,0,0,0,0ZM587.49,402.14s0,0,0,0c0,0,0,0,0,0ZM587.53,402.14s0,0,0,0c0,0,0,0,0,0ZM587.57,402.14s0,0,0,0c0,0,0,0,0,0ZM587.83,402.13h0,0ZM587.87,402.13s0,0,0,0c0,0,0,0,0,0ZM587.92,402.13s0,0,0,0c0,0,0,0,0,0ZM587.96,402.12s0,0,0,0c0,0,0,0,0,0ZM588,402.12s0,0,0,0c0,0,0,0,0,0ZM588.04,402.12h0,0ZM588.08,402.12h0,0ZM588.12,402.12h0,0ZM588.26,402.12h0,0ZM588.3,402.12h-.01.01ZM588.35,402.12s0,0-.01,0c0,0,0,0,.01,0ZM588.39,402.12h-.02.02ZM588.43,402.12h-.02.02ZM588.48,402.12h-.02.02ZM588.52,402.12s0,0-.01,0c0,0,0,0,.01,0ZM588.56,402.12h0,0ZM585.68,401.67c-.45.11-.91.24-1.35.38.43-.13.86-.25,1.3-.36.02,0,.04-.02.06-.02ZM586.46,401.49h0c2.71-.56,5.47-.67,8.18-.34,0,0,.01-.01.02-.01-2.73-.34-5.5-.23-8.2.36ZM596.57,401.46s0,0,.01,0c0,0,0,0,.01-.01,0,0,0,0-.01,0,0,0,0,0-.01.01ZM611.75,400.89h.03c.59-.4,1.2-.8,1.83-1.16-.01,0-.02-.01-.04-.02-.62.37-1.23.76-1.82,1.18ZM613.57,399.7s.02.01.04.02c2.59-1.51,5.45-2.56,8.45-3.07v-.03c-3.02.5-5.89,1.55-8.49,3.08ZM606.3,398.89c.08.02.16.04.24.06-.08-.02-.16-.04-.24-.06h0ZM600.11,398.2c-1.56.02-3.13.2-4.67.53,1.54-.32,3.09-.49,4.63-.51.01,0,.02,0,.04-.01ZM601.88,398.24s.03,0,.04,0c0,0,.01,0,.02,0-.01,0-.03,0-.04,0,0,0-.01,0-.02,0ZM606.3,397.69c.58.07,1.17.16,1.74.27-.58-.11-1.16-.2-1.74-.27h0ZM602.01,397.55c-.94.05-1.88.16-2.81.32.92-.16,1.84-.26,2.76-.31.02,0,.03,0,.05-.01ZM607.75,396.49c-.72.12-1.43.27-2.13.45.02,0,.03,0,.05,0,.68-.18,1.38-.33,2.08-.45ZM626.2,396.31c.53,0,1.07.02,1.61.05-1.01-.07-2.01-.08-3-.03h0s0,.02,0,.02c.46-.03.92-.04,1.38-.04ZM128.17,234.9h.04-.04ZM128.13,234.9h.03-.03ZM128.09,234.9s.02,0,.02,0c0,0-.02,0-.02,0ZM128.05,234.9s.02,0,.03,0c0,0-.02,0-.03,0ZM128,234.9s0,0,.02,0c0,0-.01,0-.02,0ZM127.97,234.9s0,0,0,0c0,0,0,0,0,0ZM157.31,200.72s0,0,0,0c-.82-1.19-1.74-2.31-2.77-3.35,1.02,1.04,1.95,2.16,2.76,3.34Z"/>
</svg>