<?xml version="1.0" encoding="UTF-8"?>
<svg id="a" data-name="layer1" xmlns="http://www.w3.org/2000/svg" viewBox="0 0 500 500">
  <path d="M463.51,409.274h-54.075c-21.452,0-35.951-21.494-44.99-37.661-11.142-19.928-21.939-47.035-33.37-75.733-16.406-41.189-35.001-87.874-58.584-123.271-12.387-18.592-24.814-32.227-37.992-41.684-14.251-10.228-28.943-15.199-44.916-15.199H36.49c-6.904,0-12.5-5.597-12.5-12.5s5.597-12.5,12.5-12.5c0,0,0,0,0,0h153.093c21.087,0,41.103,6.692,59.492,19.889,15.669,11.245,30.133,26.989,44.221,48.133,25.035,37.576,44.145,85.552,61.004,127.881,11.12,27.917,21.622,54.284,31.965,72.784,12.095,21.631,19.708,24.861,23.169,24.861h54.075c6.904,0,12.5,5.596,12.5,12.5s-5.596,12.5-12.5,12.5Z"/>
</svg>