<?xml version="1.0" encoding="UTF-8"?>
<svg id="a" data-name="layer1" xmlns="http://www.w3.org/2000/svg" viewBox="0 0 500 500">
  <path d="M361.84,137.72c-2.44-2.44-5.64-3.67-8.84-3.67h-124.87s-12.5,5.92-12.5,12.82,5.6,12.5,12.5,12.68h94.82l-163.45,163.39v-94.9c0-3.45-1.4-6.58-3.66-8.84-2.45-2.45-5.9-3.88-9.69-3.63-6.61.44-11.65,6.12-11.65,12.74v124.73s0,0,0,0c0,3.2,1.22,6.4,3.66,8.84,2.44,2.44,5.64,3.66,8.84,3.66h124.74c6.39,0,12.26-5.2,12.72-11.57.53-7.32-5.26-13.43-12.47-13.43h-95.08l163.57-163.77v94.94c0,3.46,1.4,6.58,3.66,8.85,2.45,2.45,5.9,3.89,9.69,3.64,6.61-.44,11.65-6.12,11.65-12.74v-124.9s0,0,0,0c0-3.2-1.22-6.41-3.66-8.85Z"/>
</svg>