<?xml version="1.0" encoding="UTF-8"?>
<svg id="a" data-name="layer1" xmlns="http://www.w3.org/2000/svg" width="1000" height="1000" viewBox="0 0 1000 1000">
  <path d="M820.381,577.782c-7.811-7.811-20.474-7.811-28.284,0l-107.279,107.279v-418.407c0-11.046-8.954-20-20-20H193.761c-11.045,0-20,8.954-20,20s8.955,20,20,20h451.056v398.407l-107.279-107.279c-7.811-7.811-20.474-7.811-28.284,0s-7.811,20.474,0,28.284l141.42,141.42c.467.467.958.908,1.468,1.327.227.186.466.347.698.522.289.217.572.44.873.642.283.189.576.353.866.526.27.161.534.331.812.48.296.158.601.292.903.435.29.137.574.281.871.404.294.122.594.219.892.326.317.114.631.236.955.334.298.09.601.156.902.232.331.084.658.176.996.243.348.069.7.11,1.051.16.294.042.584.098.883.127.656.065,1.314.1,1.973.1s1.317-.035,1.973-.1c.299-.029.589-.085.883-.127.351-.05.702-.091,1.051-.16.338-.067.665-.159.996-.243.301-.076.604-.142.902-.232.324-.098.637-.22.955-.334.298-.107.599-.205.893-.327.297-.123.581-.267.87-.404.302-.143.607-.277.903-.435.278-.149.542-.318.812-.48.29-.173.583-.337.866-.526.301-.201.584-.425.873-.642.233-.175.472-.336.698-.522.511-.419,1.002-.861,1.469-1.328l141.419-141.419c7.811-7.811,7.811-20.474,0-28.284Z" fill="#000" stroke-width="0"/>
</svg>