<?xml version="1.0" encoding="UTF-8"?>
<svg id="a" data-name="layer1" xmlns="http://www.w3.org/2000/svg" viewBox="0 0 1000 1000">
  <path d="M1000,816.95c-151.02,0-298.78-31.4-439.19-93.32-112.03-49.41-219.59-118.24-319.68-204.58-101.01-87.13-173.29-173.59-216.14-230.76v503.66c0,13.81-11.19,25-25,25s-25-11.19-25-25V208.29c0-11.22,7.47-21.06,18.28-24.08,10.81-3.01,22.3,1.54,28.11,11.14.86,1.43,89.01,145.23,253.65,286.92,96.26,82.83,199.5,148.78,306.86,196.02,133.73,58.84,274.4,88.67,418.1,88.67,13.81,0,25,11.19,25,25s-11.19,25-25,25Z"/>
</svg>