<?xml version="1.0" encoding="UTF-8"?>
<svg id="a" data-name="layer1" xmlns="http://www.w3.org/2000/svg" viewBox="0 0 500 500">
  <path d="M450,437.26c-3.58,0-6.81,1.5-9.09,3.92-2.41,2.28-3.91,5.51-3.91,9.08,0,6.9,5.6,12.5,12.5,12.5h.5c6.9,0,12.5-5.6,12.5-12.5v-.5c0-6.9-5.6-12.5-12.5-12.5Z"/>
  <path d="M370.54,437.76h-1.05c-6.9,0-12.5,5.6-12.5,12.5s5.6,12.5,12.5,12.5h1.05c6.9,0,12.5-5.6,12.5-12.5s-5.6-12.5-12.5-12.5Z"/>
  <path d="M290.53,437.76h-1.05c-6.9,0-12.5,5.6-12.5,12.5s5.6,12.5,12.5,12.5h1.05c6.9,0,12.5-5.6,12.5-12.5s-5.6-12.5-12.5-12.5Z"/>
  <path d="M210.52,437.76h-1.05c-6.9,0-12.5,5.6-12.5,12.5s5.6,12.5,12.5,12.5h1.05c6.9,0,12.5-5.6,12.5-12.5s-5.6-12.5-12.5-12.5Z"/>
  <path d="M50,303.3c6.9,0,12.5-5.6,12.5-12.5v-1.05c0-6.9-5.6-12.5-12.5-12.5s-12.5,5.6-12.5,12.5v1.05c0,6.9,5.6,12.5,12.5,12.5Z"/>
  <path d="M50,383.31c6.9,0,12.5-5.6,12.5-12.5v-1.05c0-6.9-5.6-12.5-12.5-12.5s-12.5,5.6-12.5,12.5v1.05c0,6.9,5.6,12.5,12.5,12.5Z"/>
  <path d="M50,223.28c6.9,0,12.5-5.6,12.5-12.5v-1.05c0-6.9-5.6-12.5-12.5-12.5s-12.5,5.6-12.5,12.5v1.05c0,6.9,5.6,12.5,12.5,12.5Z"/>
  <path d="M50,143.27c6.9,0,12.5-5.6,12.5-12.5v-1.05c0-6.9-5.6-12.5-12.5-12.5s-12.5,5.6-12.5,12.5v1.05c0,6.9,5.6,12.5,12.5,12.5Z"/>
  <path d="M50,63.26c3.58,0,6.81-1.5,9.09-3.92,2.41-2.28,3.91-5.51,3.91-9.08,0-6.9-5.6-12.5-12.5-12.5h-.5c-6.9,0-12.5,5.6-12.5,12.5v.5c0,6.9,5.6,12.5,12.5,12.5Z"/>
  <path d="M369.49,62.76h1.05c6.9,0,12.5-5.6,12.5-12.5s-5.6-12.5-12.5-12.5h-1.05c-6.9,0-12.5,5.6-12.5,12.5s5.6,12.5,12.5,12.5Z"/>
  <path d="M129.46,62.76h1.05c6.9,0,12.5-5.6,12.5-12.5s-5.6-12.5-12.5-12.5h-1.05c-6.9,0-12.5,5.6-12.5,12.5s5.6,12.5,12.5,12.5Z"/>
  <path d="M209.47,62.76h1.05c6.9,0,12.5-5.6,12.5-12.5s-5.6-12.5-12.5-12.5h-1.05c-6.9,0-12.5,5.6-12.5,12.5s5.6,12.5,12.5,12.5Z"/>
  <path d="M289.48,62.76h1.05c6.9,0,12.5-5.6,12.5-12.5s-5.6-12.5-12.5-12.5h-1.05c-6.9,0-12.5,5.6-12.5,12.5s5.6,12.5,12.5,12.5Z"/>
  <path d="M450,197.23c-6.9,0-12.5,5.6-12.5,12.5v1.05c0,6.9,5.6,12.5,12.5,12.5s12.5-5.6,12.5-12.5v-1.05c0-6.9-5.6-12.5-12.5-12.5Z"/>
  <path d="M450,277.24c-6.9,0-12.5,5.6-12.5,12.5v1.05c0,6.9,5.6,12.5,12.5,12.5s12.5-5.6,12.5-12.5v-1.05c0-6.9-5.6-12.5-12.5-12.5Z"/>
  <path d="M450,357.25c-6.9,0-12.5,5.6-12.5,12.5v1.05c0,6.9,5.6,12.5,12.5,12.5s12.5-5.6,12.5-12.5v-1.05c0-6.9-5.6-12.5-12.5-12.5Z"/>
  <path d="M462.5,50c0-6.9-5.6-12.5-12.5-12.5-2.23,0-4.32.59-6.13,1.61-4.07,2.06-6.87,6.27-6.87,11.15,0,1.17.18,2.3.48,3.38-.46,51.03-10.69,100.53-30.42,147.19-19.52,46.14-47.46,87.58-83.05,123.17-35.59,35.59-77.03,63.53-123.17,83.05-47.07,19.91-97.03,30.14-148.54,30.43-.74-.14-1.51-.22-2.29-.22-6.9,0-12.5,5.6-12.5,12.5v.5c0,6.9,5.6,12.5,12.5,12.5h.5c.9,0,1.78-.1,2.63-.28,22.2-.16,44.12-2.06,65.69-5.68,2.2,3.57,6.14,5.96,10.64,5.96h1.05c6.3,0,11.5-4.67,12.36-10.74,23.08-5.31,45.68-12.63,67.7-21.94,49.12-20.78,93.23-50.52,131.11-88.4,37.88-37.88,67.62-81.99,88.4-131.11,9.28-21.94,16.58-44.47,21.89-67.46,5.97-.95,10.53-6.1,10.53-12.33v-1.05c0-4.42-2.3-8.3-5.76-10.52,3.78-22.42,5.71-45.23,5.76-68.33,0-.04,0-.07,0-.1v-.5s0-.02,0-.03c0-.08,0-.16,0-.23Z"/>
</svg>