<?xml version="1.0" encoding="UTF-8"?>
<svg id="a" data-name="layer1" xmlns="http://www.w3.org/2000/svg" width="1000" height="1000" viewBox="0 0 1000 1000">
  <path d="M907.878,481.617c-10.153-4.352-21.909.353-26.261,10.505-24.163,56.383-49.148,114.685-79.143,156.678-31.452,44.035-64.014,64.545-102.475,64.545s-71.022-20.51-102.475-64.545c-29.994-41.993-54.979-100.295-79.143-156.678-25-58.337-50.852-118.66-83.357-164.171-39.072-54.704-83.239-81.296-135.025-81.296s-95.953,26.592-135.025,81.296c-32.506,45.512-58.357,105.834-83.357,164.171-4.352,10.153.352,21.91,10.505,26.261,10.157,4.352,21.911-.353,26.261-10.505,24.163-56.383,49.148-114.685,79.143-156.678,31.452-44.035,64.014-64.545,102.475-64.545s71.022,20.51,102.475,64.545c29.666,41.533,54.431,99.018,78.347,154.823.495,1.859,1.25,3.607,2.232,5.208,24.556,57.289,50.037,116.179,81.921,160.82,39.072,54.704,83.239,81.296,135.025,81.296s95.953-26.592,135.025-81.296c32.506-45.512,58.357-105.834,83.357-164.171,4.352-10.153-.352-21.91-10.505-26.261Z" fill="#000" stroke-width="0"/>
  <circle cx="199.748" cy="500.95" r="19.717" fill="#000" stroke-width="0"/>
  <circle cx="299.784" cy="500.95" r="19.717" fill="#000" stroke-width="0"/>
  <path d="M399.82,481.233c-10.89,0-19.718,8.828-19.718,19.718s8.828,19.717,19.718,19.717,19.717-8.828,19.717-19.717-8.828-19.718-19.717-19.718Z" fill="#000" stroke-width="0"/>
  <circle cx="599.892" cy="500.95" r="19.717" fill="#000" stroke-width="0"/>
  <circle cx="699.928" cy="500.95" r="19.717" fill="#000" stroke-width="0"/>
  <path d="M799.964,520.667c10.89,0,19.718-8.828,19.718-19.717s-8.828-19.718-19.718-19.718-19.717,8.828-19.717,19.718,8.828,19.717,19.717,19.717Z" fill="#000" stroke-width="0"/>
</svg>