<?xml version="1.0" encoding="UTF-8"?>
<svg id="a" data-name="layer1" xmlns="http://www.w3.org/2000/svg" width="1000" height="1000" viewBox="0 0 1000 1000">
  <path d="M150,752.791c-26.903,0-38.486-35.537-46.996-73.94-9.192-41.481-16.911-101.219-22.941-177.552l39.875-3.152c9.858,124.776,22.304,178.664,30.062,201.364,7.759-22.7,20.204-76.587,30.062-201.363,6.03-76.334,13.749-136.071,22.941-177.553,8.51-38.403,20.094-73.94,46.996-73.94s38.486,35.537,46.996,73.94c9.183,41.439,16.895,101.089,22.923,177.309,10.241,99.128,22.984,138.308,30.081,153.223,7.103-14.927,19.86-54.155,30.105-153.456,6.08-58.931,13.891-105.146,23.213-137.363,7.957-27.497,20.454-59.059,46.682-59.059s38.725,31.562,46.682,59.059c9.27,32.034,17.044,77.906,23.109,136.358,12.307,59.313,27.511,70.995,30.209,72.625,2.713-1.639,18.066-13.439,30.408-73.588,6.389-31.135,14.729-55.786,24.788-73.266,8.521-14.809,23.212-32.461,44.804-32.461s36.282,17.653,44.804,32.461c9.803,17.034,17.973,40.877,24.295,70.893,8.14,16.687,19.592,26.578,30.901,26.578,11.741,0,23.636-10.66,31.818-28.517,14.878-32.469,40.367-51.853,68.182-51.853s53.304,19.384,68.182,51.853c4.602,10.042.191,21.912-9.85,26.514-10.042,4.602-21.913.192-26.514-9.85-8.183-17.856-20.077-28.517-31.818-28.517s-23.636,10.66-31.818,28.517c-14.878,32.469-40.367,51.853-68.182,51.853s-53.304-19.384-68.182-51.853c-.632-1.379-1.105-2.826-1.41-4.312-12.342-60.149-27.695-71.95-30.408-73.589-2.713,1.639-18.066,13.44-30.408,73.588-6.389,31.135-14.729,55.786-24.788,73.266-8.521,14.809-23.212,32.461-44.804,32.461s-36.282-17.652-44.804-32.461c-10.06-17.481-18.399-42.131-24.788-73.266-.134-.65-.234-1.307-.303-1.967-10.245-99.301-23.003-138.53-30.105-153.456-7.103,14.927-19.86,54.155-30.105,153.455-6.08,58.931-13.891,105.146-23.213,137.363-7.957,27.497-20.454,59.059-46.682,59.059s-38.725-31.562-46.682-59.059c-9.322-32.217-17.133-78.432-23.213-137.362-.017-.159-.03-.318-.043-.478-9.858-124.776-22.304-178.664-30.062-201.364-7.759,22.7-20.204,76.587-30.062,201.363-6.03,76.333-13.749,136.071-22.941,177.553-8.51,38.403-20.094,73.94-46.996,73.94Z" fill="#000" stroke-width="0"/>
</svg>