<?xml version="1.0" encoding="UTF-8"?>
<svg id="a" data-name="layer1" xmlns="http://www.w3.org/2000/svg" width="1000" height="1000" viewBox="0 0 1000 1000">
  <path d="M835.025,672.049c32.506-45.512,58.357-105.834,83.357-164.171,4.352-10.153-.352-21.91-10.505-26.261-10.153-4.352-21.909.353-26.261,10.505-24.163,56.383-49.148,114.685-79.143,156.678-31.452,44.035-64.014,64.545-102.475,64.545s-71.022-20.51-102.475-64.545c-29.994-41.993-54.979-100.295-79.143-156.678-25-58.337-50.852-118.66-83.357-164.171-39.072-54.704-83.239-81.296-135.025-81.296s-95.953,26.592-135.025,81.296c-32.506,45.512-58.357,105.834-83.357,164.171-4.352,10.153.352,21.91,10.505,26.261,10.157,4.352,21.911-.353,26.261-10.505,24.163-56.383,49.148-114.685,79.143-156.678,31.452-44.035,64.014-64.545,102.475-64.545s71.022,20.51,102.475,64.545c29.994,41.993,54.979,100.296,79.143,156.678,25,58.337,50.852,118.66,83.357,164.171,11.716,16.403,23.894,30.259,36.594,41.648-.458-.032-.914-.07-1.38-.07-10.89,0-19.718,8.828-19.718,19.717s8.828,19.717,19.718,19.717,19.717-8.828,19.717-19.717c0-2.004-.304-3.937-.86-5.76,24.855,17.261,51.688,25.76,80.954,25.76,29.5,0,56.524-8.643,81.546-26.183-.643,1.946-1.003,4.021-1.003,6.182,0,10.89,8.828,19.717,19.717,19.717s19.717-8.828,19.717-19.717-8.828-19.717-19.717-19.717c-.626,0-1.244.037-1.855.094,12.709-11.394,24.896-25.258,36.621-41.672Z" fill="#000" stroke-width="0"/>
  <circle cx="100.008" cy="733.345" r="19.717" fill="#000" stroke-width="0"/>
  <circle cx="200.044" cy="733.345" r="19.717" fill="#000" stroke-width="0"/>
  <path d="M300.08,713.627c-10.889,0-19.717,8.828-19.717,19.717s8.828,19.717,19.717,19.717,19.718-8.828,19.718-19.717-8.828-19.717-19.718-19.717Z" fill="#000" stroke-width="0"/>
  <circle cx="400.116" cy="733.345" r="19.717" fill="#000" stroke-width="0"/>
  <circle cx="500.152" cy="733.345" r="19.717" fill="#000" stroke-width="0"/>
  <circle cx="900.296" cy="733.345" r="19.717" fill="#000" stroke-width="0"/>
</svg>