<?xml version="1.0" encoding="UTF-8"?>
<svg id="a" data-name="layer1" xmlns="http://www.w3.org/2000/svg" viewBox="0 0 500 500">
  <path d="M50,462.5c-6.9,0-12.5-5.6-12.5-12.5s5.6-12.5,12.5-12.5c52.32,0,103.06-10.24,150.83-30.45,46.14-19.52,87.58-47.46,123.17-83.05,35.59-35.59,63.53-77.03,83.05-123.17,20.2-47.76,30.45-98.51,30.45-150.83,0-6.9,5.6-12.5,12.5-12.5s12.5,5.6,12.5,12.5c0,55.68-10.91,109.7-32.42,160.57-20.78,49.12-50.52,93.24-88.4,131.11-37.88,37.88-81.99,67.62-131.11,88.4-50.86,21.51-104.89,32.42-160.57,32.42Z"/>
</svg>