<?xml version="1.0" encoding="UTF-8"?>
<svg id="a" data-name="layer1" xmlns="http://www.w3.org/2000/svg" viewBox="0 0 500 500">
  <path d="M510.48,388.21l-125-168.12c-2.36-3.17-6.08-5.04-10.03-5.04h-175.29l-72.78-99.59c4.54-12.91-2.16-27.1-15.06-31.78-12.98-4.71-27.32,2-32.03,14.98L-23.5,384.88c-4.71,12.98,2,27.32,14.98,32.03,2.81,1.02,5.69,1.5,8.52,1.5,10.22,0,19.82-6.32,23.5-16.48L117.12,143.79l66.6,91.14c2.35,3.22,6.1,5.12,10.09,5.12h175.35l121.25,163.08c4.12,5.54,11.95,6.69,17.49,2.57,5.54-4.12,6.69-11.95,2.57-17.49Z"/>
</svg>