<?xml version="1.0" encoding="UTF-8"?>
<svg id="a" data-name="layer1" xmlns="http://www.w3.org/2000/svg" viewBox="0 0 500 500">
  <path d="M510.48,388.21l-125-168.12c-2.36-3.17-6.08-5.04-10.03-5.04h-159.56c-.78-1.83-1.8-3.6-3.05-5.26l-89.11-117.7c-8.33-11.01-24.01-13.18-35.02-4.84-10.97,8.3-13.16,23.89-4.93,34.89L-12.22,391.47c-2.32,6.5,1.08,13.65,7.58,15.97,1.39.49,2.8.73,4.2.73,5.14,0,9.95-3.19,11.77-8.31l90.49-253.88,71.16,93.99c4.92,6.49,12.39,9.91,19.95,9.91,5.26,0,10.56-1.65,15.07-5.07,1.85-1.4,3.44-3.01,4.78-4.76h156.39l121.25,163.08c4.12,5.54,11.95,6.69,17.49,2.57,5.54-4.12,6.69-11.95,2.57-17.49Z"/>
</svg>