<?xml version="1.0" encoding="UTF-8"?>
<svg id="a" data-name="layer1" xmlns="http://www.w3.org/2000/svg" viewBox="0 0 500 500">
  <path d="M434.3,81.32c0-4.17-1.62-8.1-4.58-11.05h0c-6.09-6.09-16-6.09-22.1,0l-48.81,48.81c-30.48-25.4-68.89-39.32-108.82-39.32-45.47,0-88.22,17.71-120.37,49.86-32.15,32.15-49.86,74.9-49.86,120.37,0,39.93,13.92,78.34,39.32,108.82l-48.81,48.81c-6.09,6.09-6.09,16,0,22.1,2.95,2.95,6.88,4.58,11.05,4.58s8.1-1.63,11.05-4.58l48.81-48.81c30.48,25.4,68.89,39.32,108.82,39.32,45.47,0,88.22-17.71,120.37-49.86,32.15-32.15,49.86-74.9,49.86-120.37,0-39.93-13.92-78.34-39.32-108.82l48.81-48.81c2.95-2.95,4.58-6.88,4.58-11.05ZM250,111.02c31.51,0,61.99,10.72,86.55,30.33l-195.21,195.21c-19.61-24.57-30.33-55.05-30.33-86.55,0-76.63,62.35-138.98,138.98-138.98ZM250,388.98c-31.51,0-61.99-10.73-86.55-30.33l195.21-195.21c19.61,24.57,30.33,55.05,30.33,86.55,0,76.63-62.35,138.98-138.98,138.98Z"/>
</svg>