<?xml version="1.0" encoding="UTF-8"?>
<svg id="a" data-name="layer1" xmlns="http://www.w3.org/2000/svg" viewBox="0 0 500 500">
  <path d="M370.37,129.63c-32.15-32.15-74.9-49.86-120.37-49.86s-88.22,17.71-120.37,49.86-49.86,74.9-49.86,120.37,17.71,88.22,49.86,120.37,74.9,49.86,120.37,49.86,88.22-17.71,120.37-49.86,49.86-74.9,49.86-120.37-17.71-88.22-49.86-120.37ZM227.9,250l-86.55,86.55c-19.61-24.57-30.33-55.05-30.33-86.55s10.73-61.99,30.33-86.55l86.55,86.55ZM250,227.9l-86.55-86.55c24.57-19.61,55.05-30.33,86.55-30.33s61.99,10.73,86.55,30.33l-86.55,86.55ZM250,272.1l86.55,86.55c-24.57,19.61-55.05,30.33-86.55,30.33s-61.99-10.73-86.55-30.33l86.55-86.55ZM272.1,250l86.55-86.55c19.61,24.57,30.33,55.05,30.33,86.55s-10.73,61.99-30.33,86.55l-86.55-86.55Z"/>
</svg>