<?xml version="1.0" encoding="UTF-8"?>
<svg id="a" data-name="layer1" xmlns="http://www.w3.org/2000/svg" viewBox="0 0 500 500">
  <path d="M504.924,238.511c-6.346-2.72-13.693.221-16.413,6.566-15.102,35.239-30.718,71.678-49.464,97.924-19.658,27.522-40.009,40.341-64.047,40.341s-44.389-12.818-64.047-40.341c-18.746-26.246-34.362-62.685-49.464-97.924-15.625-36.461-31.782-74.162-52.098-102.607-24.42-34.19-52.025-50.81-84.391-50.81s-59.971,16.62-84.391,50.81c-20.316,28.445-36.473,66.147-52.098,102.607-2.72,6.345.22,13.694,6.566,16.413,6.348,2.72,13.694-.221,16.413-6.566,15.102-35.239,30.718-71.678,49.464-97.924,19.658-27.522,40.009-40.34,64.047-40.34s44.389,12.818,64.047,40.34c18.541,25.958,34.019,61.886,48.967,96.764.309,1.162.782,2.254,1.395,3.255,15.347,35.806,31.273,72.612,51.201,100.512,24.42,34.19,52.025,50.81,84.391,50.81s59.971-16.62,84.391-50.81c20.316-28.445,36.473-66.147,52.098-102.607,2.72-6.345-.22-13.694-6.566-16.413Z"/>
  <circle cx="62.343" cy="250.594" r="12.323"/>
  <circle cx="124.865" cy="250.594" r="12.323"/>
  <path d="M187.388,238.27c-6.806,0-12.324,5.517-12.324,12.323s5.518,12.323,12.324,12.323,12.323-5.517,12.323-12.323-5.518-12.323-12.323-12.323Z"/>
  <circle cx="312.433" cy="250.594" r="12.323"/>
  <circle cx="374.955" cy="250.594" r="12.323"/>
  <path d="M437.477,262.917c6.806,0,12.324-5.517,12.324-12.323s-5.518-12.323-12.324-12.323-12.323,5.517-12.323,12.323,5.517,12.323,12.323,12.323Z"/>
</svg>