<?xml version="1.0" encoding="UTF-8"?>
<svg id="a" data-name="layer1" xmlns="http://www.w3.org/2000/svg" width="1000" height="1000" viewBox="0 0 1000 1000">
  <path d="M912.334,729.395c-.399-2.858-10.111-70.804-40.576-139.81-42.287-95.787-104.265-146.417-179.233-146.417h-273.83c-3.904-19.547-11.997-53.018-26.66-86.812-31.477-72.545-78.022-110.891-134.604-110.891-11.046,0-20,8.954-20,20,0,75.81-8.361,146.711-24.851,210.733-13.146,51.04-31.461,97.853-54.438,139.139-31.25,56.156-65.355,90.49-79.027,100.804-8.821,6.597-10.649,19.093-4.076,27.942,3.925,5.284,9.958,8.075,16.07,8.075,4.146,0,8.328-1.285,11.911-3.946,1.837-1.365,45.491-34.306,88.665-110.908,24.99-44.339,44.877-94.51,59.109-149.117,16.002-61.404,24.836-128.656,26.37-200.18,31.03,8.174,57.166,36.175,77.877,83.584,20.251,46.357,26.986,93.833,27.05,94.292,1.357,9.904,9.818,17.285,19.815,17.285h290.619c143.156,0,179.839,249.244,180.193,251.761,1.399,9.999,9.963,17.23,19.782,17.23.919,0,1.851-.063,2.787-.194,10.94-1.525,18.572-11.63,17.047-22.57Z" fill="#000" stroke-width="0"/>
</svg>