<?xml version="1.0" encoding="UTF-8"?>
<svg id="a" data-name="layer1" xmlns="http://www.w3.org/2000/svg" viewBox="0 0 1000 1000">
  <path d="M694.45,305.55c-51.94-51.94-121-80.55-194.45-80.55s-142.51,28.6-194.45,80.55c-51.94,51.94-80.55,121-80.55,194.45s28.6,142.51,80.55,194.45c51.94,51.94,121,80.55,194.45,80.55s142.51-28.6,194.45-80.55c51.94-51.94,80.55-121,80.55-194.45s-28.6-142.51-80.55-194.45ZM535.36,500.01l140.36-140.36c30.82,38.51,49.28,87.31,49.28,140.35s-18.46,101.85-49.28,140.36l-140.35-140.35ZM500.01,464.65l-140.37-140.37c38.51-30.82,87.31-49.28,140.36-49.28s101.86,18.47,140.37,49.29l-140.36,140.36ZM324.28,359.64l140.37,140.37-140.36,140.36c-30.83-38.51-49.29-87.32-49.29-140.37s18.46-101.85,49.28-140.36ZM500.01,535.36l140.35,140.35c-38.51,30.82-87.31,49.28-140.36,49.28s-101.85-18.46-140.35-49.28l140.36-140.36Z"/>
</svg>