<?xml version="1.0" encoding="UTF-8"?>
<svg id="a" data-name="layer1" xmlns="http://www.w3.org/2000/svg" viewBox="0 0 500 500">
  <circle cx="62.34" cy="250.59" r="12.32"/>
  <circle cx="124.87" cy="250.59" r="12.32"/>
  <path d="M187.39,238.27c-6.81,0-12.32,5.52-12.32,12.32s5.52,12.32,12.32,12.32,12.32-5.52,12.32-12.32-5.52-12.32-12.32-12.32Z"/>
  <circle cx="312.43" cy="250.59" r="12.32"/>
  <circle cx="374.96" cy="250.59" r="12.32"/>
  <path d="M437.48,262.92c6.81,0,12.32-5.52,12.32-12.32s-5.52-12.32-12.32-12.32-12.32,5.52-12.32,12.32,5.52,12.32,12.32,12.32Z"/>
  <path d="M500.92,237.19c-7.32-.53-13.42,5.26-13.42,12.47v133.84h-225V104.5c0-6.9-5.6-12.5-12.5-12.5H0c-6.9,0-12.5,5.6-12.5,12.5v145.59c0,6.39,5.2,12.26,11.58,12.72,7.32.53,13.42-5.26,13.42-12.47V116.5h225v279c0,6.9,5.6,12.5,12.5,12.5h250c6.9,0,12.5-5.6,12.5-12.5v-145.59c0-6.39-5.2-12.26-11.58-12.72Z"/>
</svg>