<?xml version="1.0" encoding="UTF-8"?>
<svg id="a" data-name="layer1" xmlns="http://www.w3.org/2000/svg" viewBox="0 0 500 500">
  <path d="M482.95,90.73h-8.48c-21.09,0-41.1,6.69-59.49,19.89-15.67,11.24-30.13,26.99-44.22,48.13-25.04,37.58-44.14,85.55-61,127.88-11.12,27.92-21.62,54.28-31.97,72.78-12.09,21.63-19.71,24.86-23.17,24.86h-9.23c-3.46,0-11.07-3.23-23.17-24.86-10.34-18.5-20.85-44.87-31.97-72.78-16.86-42.33-35.97-90.31-61-127.88-14.09-21.14-28.55-36.89-44.22-48.13-18.39-13.2-38.4-19.89-59.49-19.89h-8.48c-6.9,0-12.5,5.6-12.5,12.5s5.6,12.5,12.5,12.5h8.48c15.97,0,30.66,4.97,44.92,15.2,13.18,9.46,25.6,23.09,37.99,41.68,23.58,35.4,42.18,82.08,58.58,123.27,11.43,28.7,22.23,55.81,33.37,75.73,8.14,14.56,20.71,33.43,38.79,37.04,1.22.4,2.52.62,3.88.62h13.88c1.35,0,2.66-.22,3.88-.62,18.08-3.62,30.65-22.49,38.79-37.04,11.14-19.93,21.94-47.03,33.37-75.73,16.41-41.19,35-87.87,58.58-123.27,12.39-18.59,24.81-32.23,37.99-41.68,14.25-10.23,28.94-15.2,44.92-15.2h8.48c6.9,0,12.5-5.6,12.5-12.5s-5.6-12.5-12.5-12.5Z"/>
</svg>