<?xml version="1.0" encoding="UTF-8"?>
<svg id="a" data-name="layer1" xmlns="http://www.w3.org/2000/svg" viewBox="0 0 500 500">
  <path d="M481.17,285.52c-2.58,33.91-5.51,60.95-8.7,80.38-3.91,23.73-8.38,43.37-23.7,43.37s-19.79-19.64-23.69-43.37c-2.78-16.91-5.36-39.6-7.68-67.55-4.74,28.72-10.03,52.04-15.75,69.43-5.86,17.81-15.83,41.5-34.59,41.5-8.5,0-16.04-4.84-22.41-14.4-4.34-6.51-8.33-15.37-12.18-27.1-6.49-19.73-12.43-47.09-17.63-81.33-1.95-12.81-3.69-25.85-5.23-38.87-2.58,13.4-5.51,26.83-8.79,40.01-8.6,34.56-18.41,62.22-29.17,82.21-14.1,26.2-30.31,39.48-48.17,39.48s-34.07-13.28-48.17-39.48c-10.76-19.99-20.58-47.65-29.17-82.21-5.25-21.1-9.59-42.83-13.08-64.04-4.35,21.43-9.77,43.39-16.34,64.71-10.69,34.7-22.9,62.48-36.28,82.55-17.01,25.53-36,38.47-56.42,38.47-6.9,0-12.5-5.6-12.5-12.5s5.6-12.5,12.5-12.5c23.14,0,48.87-38.65,68.81-103.38,19.95-64.76,29.04-137.49,29.04-177.67,0-6.9,5.6-12.5,12.5-12.5s12.5,5.6,12.5,12.5c0,40.34,7.36,113.36,23.53,178.33,18.86,75.82,40.39,102.72,53.09,102.72,7.62,0,17.15-9.6,26.16-26.33,9.63-17.9,18.95-44.31,26.93-76.39,16.17-64.97,23.53-137.98,23.53-178.33h0c0-6.9,5.6-12.5,12.5-12.5s12.5,5.6,12.5,12.5c0,39.16,4.07,107.08,13.15,170.55,4.55,31.76,9.69,57.79,15.28,77.38,6.12,21.42,11.17,29.3,13.55,32.05,2.38-2.75,7.42-10.63,13.55-32.05,5.59-19.58,10.74-45.61,15.28-77.37,9.09-63.47,13.15-131.39,13.15-170.55,0-6.9,5.6-12.5,12.5-12.5s12.5,5.6,12.5,12.5c0,46.19,2.57,113.85,6.39,168.34,2.83,40.3,5.78,66.74,8.35,84.03,2.57-17.29,5.53-43.73,8.35-84.03,3.82-54.5,6.39-122.15,6.39-168.34,0-6.9,5.6-12.5,12.5-12.5s12.5,5.6,12.5,12.5c0,42.69-2.27,115.62-7.34,182.29Z"/>
</svg>