<?xml version="1.0" encoding="UTF-8"?>
<svg id="a" data-name="layer1" xmlns="http://www.w3.org/2000/svg" viewBox="0 0 1000 1000">
  <path d="M723.68,275.44c-4.88-4.89-11.29-7.33-17.69-7.33h-249.74s-25,11.84-25,25.64,11.19,25,25,25.36h189.65l-326.9,326.79v-189.79c0-6.9-2.8-13.15-7.32-17.68-4.89-4.89-11.81-7.77-19.38-7.27-13.21.88-23.3,12.24-23.3,25.48v249.46s0,0,0,0c0,6.4,2.44,12.8,7.32,17.68,4.88,4.88,11.29,7.32,17.69,7.32h249.48c12.79,0,24.53-10.39,25.44-23.15,1.05-14.64-10.51-26.85-24.93-26.85h-190.15l327.15-327.54v189.87c0,6.91,2.8,13.17,7.32,17.7,4.89,4.9,11.81,7.78,19.38,7.27,13.21-.88,23.29-12.24,23.29-25.48v-249.79s0,0,0,0c0-6.41-2.44-12.81-7.32-17.7Z"/>
</svg>