<?xml version="1.0" encoding="UTF-8"?>
<svg id="a" data-name="layer1" xmlns="http://www.w3.org/2000/svg" viewBox="0 0 500 500">
  <path d="M520.1,380.31l-126.02-170.3c-8.21-11.1-23.87-13.44-34.97-5.22-3.7,2.74-6.43,6.31-8.11,10.26h-150.83l-86.55-118.44c-2.73-3.74-7.31-5.66-11.89-4.99-4.58.67-8.42,3.81-9.98,8.17L-12.22,391.47c-2.32,6.5,1.08,13.65,7.58,15.97,1.39.49,2.8.73,4.2.73,5.14,0,9.95-3.19,11.77-8.31L107.36,130.44l76.36,104.49c2.35,3.22,6.1,5.12,10.09,5.12h160.29l125.81,170c4.9,6.63,12.46,10.13,20.12,10.13,5.17,0,10.38-1.6,14.85-4.91,11.1-8.21,13.44-23.87,5.22-34.97Z"/>
</svg>