<?xml version="1.0" encoding="UTF-8"?>
<svg id="a" data-name="layer1" xmlns="http://www.w3.org/2000/svg" viewBox="0 0 500 500">
  <path d="M90.565,409.274h-54.075c-6.904,0-12.5-5.596-12.5-12.5s5.596-12.5,12.5-12.5h54.075c4.234,0,16.482-4.305,38.713-44.175,16.467-29.535,33.23-69.082,49.442-107.327,38.451-90.711,61.665-142.045,91.479-142.045h.019c13.825.01,25.374,6.701,34.325,19.887,6.7,9.869,11.22,22.125,15.591,33.978,7.543,20.453,13.14,33.858,21.859,33.858h121.517c6.904,0,12.5,5.597,12.5,12.5s-5.596,12.5-12.5,12.5h-121.517c-12.484,0-22.939-6.279-31.076-18.664-5.939-9.041-10.159-20.481-14.239-31.544-12.87-34.896-18.84-37.51-26.479-37.515-.016.001-3.031.383-9.188,7.625-5.227,6.147-11.241,15.546-17.875,27.935-13.06,24.386-26.825,56.86-41.399,91.242-16.47,38.855-33.5,79.033-50.624,109.745-9.57,17.164-18.354,29.932-26.856,39.035-11.291,12.089-22.312,17.966-33.692,17.966Z"/>
</svg>