<?xml version="1.0" encoding="UTF-8"?>
<svg id="a" data-name="layer1" xmlns="http://www.w3.org/2000/svg" width="1000" height="1000" viewBox="0 0 1000 1000">
  <path d="M563.53,752.07c-8.413,0-16.092-5.322-18.902-13.504-18.034-52.495-32.282-109.583-44.854-159.951-6.64-26.603-12.911-51.732-18.96-72.998-.016-.051-.03-.103-.045-.155-6.174-21.728-12.485-47.008-19.167-73.772-1.688-6.761-3.405-13.641-5.159-20.618v320.996c0,9.773-7.063,18.116-16.703,19.727-9.645,1.607-19.032-3.981-22.21-13.224-16.761-48.747-33.986-84.926-52.661-110.607-20.008-27.514-40.748-41.783-63.364-43.582-43.656,3.556-81.638,54.017-116.07,154.188-3.178,9.243-12.572,14.836-22.21,13.225-9.64-1.611-16.704-9.953-16.704-19.727v-320.916c-1.726,6.867-3.416,13.64-5.077,20.298-6.701,26.852-13.031,52.215-19.23,74.019-3.021,10.625-14.083,16.789-24.707,13.769-10.624-3.021-16.788-14.083-13.768-24.707,6.021-21.18,12.274-46.238,18.896-72.767,12.599-50.482,26.879-107.7,44.973-160.342,3.177-9.243,12.562-14.835,22.21-13.225,9.64,1.611,16.704,9.953,16.704,19.727v366.953c6.222-11.216,12.609-21.318,19.196-30.375,27.442-37.731,59.251-57.962,94.543-60.131.806-.049,1.613-.05,2.419-.002,35.279,2.107,67.087,22.317,94.541,60.07,6.597,9.071,12.992,19.189,19.224,30.428v-366.943c0-9.773,7.063-18.115,16.703-19.726,9.65-1.613,19.033,3.982,22.21,13.223,18.13,52.731,32.435,110.028,45.056,160.581,6.585,26.378,12.807,51.299,18.791,72.375.015.049.028.099.043.148,6.24,21.925,12.602,47.416,19.338,74.404,1.623,6.503,3.275,13.122,4.959,19.826v-322.626c0-9.774,7.065-18.117,16.706-19.727,9.636-1.611,19.033,3.985,22.209,13.229,34.392,100.109,72.369,150.571,116.066,154.191,43.68-3.578,81.654-54.04,116.055-154.19,3.174-9.244,12.558-14.84,22.209-13.23,9.641,1.61,16.706,9.952,16.706,19.727v322.627c1.679-6.682,3.325-13.28,4.943-19.762,6.745-27.019,13.115-52.54,19.361-74.471,3.025-10.623,14.086-16.782,24.714-13.757,10.623,3.026,16.782,14.09,13.757,24.714-6.066,21.299-12.359,46.51-19.022,73.202-12.566,50.343-26.811,107.403-44.838,159.885-3.176,9.244-12.574,14.838-22.209,13.229-9.641-1.61-16.706-9.953-16.706-19.727v-368.712c-6.214,11.203-12.593,21.292-19.173,30.34-27.44,37.732-59.261,57.965-94.577,60.138-.825.05-1.652.05-2.476,0-35.312-2.206-67.125-22.45-94.558-60.169-6.579-9.045-12.956-19.129-19.168-30.326v368.73c0,9.774-7.065,18.117-16.706,19.727-1.108.185-2.215.275-3.307.275Z" fill="#000" stroke-width="0"/>
</svg>