<?xml version="1.0" encoding="UTF-8"?>
<svg id="a" data-name="layer1" xmlns="http://www.w3.org/2000/svg" viewBox="0 0 1000 1000">
  <path d="M916.86,815.09h-337.44c-10.68,0-20.17-6.78-23.64-16.88-22.54-65.62-40.36-136.98-56.07-199.94-8.32-33.33-16.17-64.8-23.75-91.42-.01-.04-.02-.08-.04-.13-7.71-27.14-15.59-58.7-23.93-92.11-14.17-56.77-30.07-120.47-49.44-179.71H101.13c-19.32,59.14-35.19,122.72-49.34,179.41-8.38,33.57-16.29,65.27-24.04,92.52-3.78,13.28-17.6,20.99-30.88,17.21-13.28-3.78-20.99-17.6-17.21-30.88,7.53-26.48,15.34-57.8,23.62-90.96,15.75-63.1,33.6-134.63,56.22-200.43,3.47-10.1,12.97-16.87,23.64-16.87h337.4c10.67,0,20.17,6.78,23.64,16.87,22.66,65.91,40.54,137.54,56.32,200.73,8.25,33.05,16.05,64.27,23.54,90.66.01.04.02.07.03.11,7.79,27.38,15.73,59.2,24.14,92.89,14.11,56.54,29.94,119.96,49.19,178.93h301.45c19.24-58.94,35.07-122.33,49.17-178.84,8.43-33.78,16.4-65.68,24.2-93.09,3.78-13.28,17.61-20.98,30.89-17.2,13.28,3.78,20.98,17.61,17.2,30.89-7.58,26.62-15.45,58.14-23.78,91.51-15.71,62.93-33.51,134.25-56.04,199.85-3.47,10.1-12.97,16.88-23.64,16.88Z"/>
</svg>