<?xml version="1.0" encoding="UTF-8"?>
<svg id="a" data-name="layer1" xmlns="http://www.w3.org/2000/svg" viewBox="0 0 500 500">
  <path d="M253.409,185.161c33.906,0,61.49,27.584,61.49,61.49v6.572c0,33.975-27.641,61.616-61.615,61.616h-6.447c-33.975,0-61.615-27.641-61.615-61.616v-6.447c0-33.975,27.641-61.616,61.615-61.616h6.573M253.409,160.161h-6.573c-47.836,0-86.615,38.779-86.615,86.616v6.447c0,47.836,38.779,86.616,86.615,86.616h6.447c47.836,0,86.615-38.779,86.615-86.616v-6.572c0-47.767-38.723-86.49-86.49-86.49h0Z"/>
  <path d="M413.26,160.161h-6.573c-47.836,0-86.615,38.779-86.615,86.615v6.447c0,47.836,38.779,86.615,86.615,86.615h6.447c47.836,0,86.615-38.779,86.615-86.615v-6.572c0-47.767-38.723-86.49-86.49-86.49h0Z"/>
  <path d="M92.938,160.161h-6.573C38.529,160.161-.25,198.94-.25,246.777v6.447c0,47.836,38.779,86.615,86.615,86.615h6.447c47.836,0,86.615-38.779,86.615-86.615v-6.572c0-47.767-38.723-86.49-86.49-86.49h0Z"/>
</svg>