<?xml version="1.0" encoding="UTF-8"?>
<svg id="a" data-name="layer1" xmlns="http://www.w3.org/2000/svg" viewBox="0 0 500 500">
  <path d="M500.105,407.008c-.825,0-1.66-.082-2.5-.252-2.653-.539-65.718-13.699-129.576-57.435-37.764-25.865-67.897-57.088-89.561-92.803-24.568-40.502-38.166-86.741-40.51-137.658-21.751,6.299-64.634,21.213-106.971,50.257-34.771,23.853-62.423,52.484-82.191,85.096-24.637,40.646-37.13,87.848-37.13,140.292,0,6.904-5.596,12.5-12.5,12.5s-12.5-5.596-12.5-12.5c0-57.278,13.804-108.994,41.03-153.712,21.744-35.714,51.986-66.935,89.888-92.798,64.083-43.729,127.367-56.886,130.03-57.425,3.673-.742,7.49.202,10.392,2.576,2.903,2.374,4.586,5.926,4.586,9.676,0,52.451,12.447,99.657,36.995,140.307,19.693,32.611,47.241,61.24,81.879,85.091,59.714,41.119,120.518,53.912,121.125,54.037,6.759,1.385,11.123,7.985,9.744,14.745-1.208,5.921-6.414,10.005-12.23,10.005Z"/>
</svg>