<?xml version="1.0" encoding="UTF-8"?>
<svg id="a" data-name="layer1" xmlns="http://www.w3.org/2000/svg" width="1000" height="1000" viewBox="0 0 1000 1000">
  <path d="M807.41,753.623c-.385,0-.769-.011-1.151-.033-1.09-.046-5.826-.215-5.832-.215-1.658-.06-3.303-.325-4.896-.79l-6.526-1.907c-1.474-.431-2.894-1.03-4.23-1.786l-6.657-3.763c-1.033-.583-2.012-1.258-2.926-2.016l-6.851-5.681c-.791-.656-1.526-1.369-2.2-2.129-.723-.804-6.85-7.58-6.85-7.58-.451-.5-.878-1.021-1.276-1.564l-7.239-9.843c-.351-.477-.679-.966-.982-1.466-.629-1.022-7.354-11.947-7.354-11.947l.073-.044c-.822-1.271-1.442-2.44-1.915-3.332l-6.457-12.21c-.212-.402-.41-.81-.593-1.221-.585-1.244-3.553-7.425-6.22-12.962l.073-.035c-.955-1.929-2.044-4.412-3.519-7.772l-3.138-7.161.009-.003c-.124-.273-.243-.551-.358-.834l-12.194-30.094c-.074-.184-.146-.369-.215-.554-.688-1.79-7.628-19.543-12.246-31.345l-13.077-31.681c-.86-1.915-6.131-13.633-6.875-15.289-.691-1.428-4.786-9.794-7.333-14.992-.352-.607-.652-1.162-.911-1.638l-6.581-12.164c-1.368-2.253-8.361-13.729-8.362-13.729h.002c-1.145-1.563-2.447-3.441-4.033-5.728l-4.285-6.181c-1.314-1.637-5.892-7.302-9.056-11.216-.378-.382-.74-.76-1.092-1.127l-8.524-8.897-10.212-8.798c-.387-.253-.741-.493-1.062-.712-.382-.246-1.2-.769-1.635-1.047-.642-.345-1.208-.674-1.692-.956-.342-.184-.863-.459-1.209-.641-.25-.111-.503-.227-.757-.347l-1.172-.561c-.03-.014-.061-.029-.091-.043-.403-.181-1.02-.451-1.297-.571-.222-.083-.444-.168-.669-.258l-.547-.219c-.402-.13-.827-.269-1.28-.419l-1.423-.404-1.429-.349c-.383-.075-.869-.171-1.505-.296-.313-.049-.768-.117-1.114-.169-.199-.015-.402-.033-.605-.053l-.763-.075c-.354-.021-.815-.049-1.434-.086-.374-.002-.886-.002-1.216-.002l-2.928.13c-.158.024-.317.046-.479.067l-1.198.157v-.006c-.265.046-.531.09-.803.129l-.589.086c-.395.08-.815.163-1.26.243-.523.127-1.101.266-1.725.4v.003s-1.843.49-1.843.49c-.419.135-1.006.325-1.35.439-.055.019-.11.039-.165.058-.554.191-1.17.403-1.842.615-.66.254-1.269.488-1.845.7-.364.155-1.057.451-1.471.632-.005.002-.011.005-.017.008l-4.137,1.937c-.075.035-.15.07-.226.104-1.461.792-2.702,1.463-3.8,2.028l.006.01s-2.25,1.318-3.692,2.167c-4.802,3.887-9.819,7.954-11.113,9.012l-11.652,10.571c-.062.055-.122.11-.183.164-9.271,9.251-22.937,22.892-23.981,23.941,0,0-.002.001-.003.002l-20.21,20.561c-1.582,1.608-2.963,3.012-4.288,4.217l.059.062-11.385,10.804c-.399.376-.803.733-1.21,1.07l.018.021s-10.433,8.972-11.614,9.997c-.437.387-.893.756-1.367,1.106l-11.351,8.376c-.573.421-1.146.806-1.713,1.154l.017.026s-4.572,2.879-5.545,3.5c-.476.314-.968.609-1.474.884l-2.976,1.612c-1.221.661-2.649,1.434-4.259,2.127l.041.092c-3.517,1.597-5.81,2.639-7.594,3.312l.012.034-2.99,1.054c-1.434.505-3.074,1.083-4.881,1.518l.022.092s-4.632,1.139-5.696,1.402c-.778.203-1.577.36-2.392.47-6.999.941-7.335.986-8.533.988l-5.841.109c-.845.016-1.688-.022-2.527-.113l-5.147-.559c-1.222-.133-2.37-.337-3.447-.604l-.016.062c-.006,0-4.569-1.099-5.696-1.361-.927-.2-1.847-.466-2.75-.801l-5.23-1.941c-1.123-.418-2.163-.885-3.123-1.395l-.033.065s-4.739-2.445-5.825-2.996c-.745-.363-1.473-.774-2.178-1.235-.003-.002-5.123-3.345-6.05-3.943-.673-.423-1.322-.888-1.944-1.393l-6.317-5.122c-.428-.347-.841-.711-1.239-1.092l-3.221-3.088c-2.053-1.971-3.992-3.832-5.566-5.926l-.057.041c-8.424-11.774-21.047-29.416-22.308-31.172-.408-.554-.789-1.133-1.144-1.737-7.671-13.083-19.188-32.722-20.193-34.428-.246-.409-.479-.829-.697-1.259-6.924-13.637-17.393-34.246-18.312-36.034-.158-.301-.31-.608-.454-.919l-16.687-36.099c-.082-.18-.162-.36-.239-.539l-.005.002c-9.833-21.847-28.304-62.882-30.145-66.954l-13.213-26.32c-.061-.121-.12-.242-.179-.363-2.067-3.321-10.164-16.325-12.489-20.051-1.251-1.537-3.692-4.537-5.025-6.176l-4.19-3.819c-.691-.408-1.494-.883-2.243-1.324l-.229-.051c-.634.339-1.287.689-1.879,1.006-1.339,1.237-3.108,2.872-4.279,3.954-1.596,2.09-4.585,6.007-5.902,7.737-1.526,2.576-5.613,9.473-6.921,11.682l-7.544,15.559c-2.193,5.676-15.095,39.055-17.01,44.013-6.279,20.221-17.688,56.959-18.932,60.974l-21.145,79.689c-2.833,10.676-13.785,17.035-24.46,14.202-10.677-2.833-17.035-13.784-14.202-24.46l21.249-80.082.052.014c.545-2,1.504-5.087,3.188-10.511l16.249-52.332.067.021c.383-1.312.81-2.416,1.133-3.253l16.817-43.514c.246-.636.521-1.254.826-1.853.666-1.356,5.249-10.817,8.071-16.647l.036.018c.324-.689.688-1.379,1.097-2.069l7.599-12.825.069.041c1.229-1.974,2.895-4.156,5.075-7.015l3.841-5.034.079.06c1.664-2.078,3.717-3.974,5.956-6.042l3.71-3.427.062.068c1.411-1.283,3.116-2.501,5.173-3.605l6.121-3.28c2.064-1.105,4.3-1.835,6.604-2.165.712-.105,6.922-1.038,6.924-1.039,2.533-.381,5.086-.267,7.521.302.584.132,3.323.742,5.121,1.142,3.625.389,6.148,1.881,14.258,6.675,1.351.798,2.576,1.734,3.668,2.781,1.199,1.102,6.401,5.837,6.403,5.839l-.079.087c1.893,1.788,3.628,3.921,5.505,6.228l3.378,4.15-.062.05c.726.874,1.43,1.847,2.104,2.928l13.075,20.991c.384.616.73,1.247,1.04,1.888.927,1.858,8.674,17.288,13.831,27.556l-.04.02c.579,1.127,1.122,2.331,1.71,3.636l29.031,64.483c.016.036.032.073.048.109.837,1.836,10.381,22.472,16.692,36.112.164.299.325.604.484.915l17.378,34.202,19.546,33.325,20.898,29.203c1.329,1.279,3.415,3.279,4.432,4.252l5.082,4.12c1.25.78,2.675,1.706,4.35,2.798.026.014.053.027.079.041l4.246,2.184c1.09.405,2.796,1.039,3.909,1.451.656.145,1.289.296,1.896.441l1.859.446c1.03.112,2.506.272,3.55.385l3.632-.068c1.074-.144,2.733-.366,3.816-.512l4.002-.985c1.164-.41,3.208-1.13,4.302-1.516,1.145-.515,3.452-1.562,4.518-2.045,1.153-.62,3.917-2.119,4.884-2.643.747-.501,1.474-.959,2.151-1.387l2.375-1.497c1.931-1.419,8.72-6.434,10.662-7.869.422-.376.825-.725,1.2-1.047l9.697-8.344c1.321-1.243,7.326-6.946,11.184-10.612,1.713-1.734,14.89-15.14,23.677-24.081l.059.058c1.162-1.282,2.471-2.589,3.897-4.014l20.654-20.615c.287-.287.58-.562.881-.829,1.209-1.088,12.306-11.162,12.307-11.163l.042.046c.989-.932,1.955-1.716,2.787-2.392l10.81-8.76.04.05c.94-.768,1.994-1.506,3.177-2.202l4.272-2.509c.286-.167.575-.328.868-.48.799-.427,4.612-2.497,4.615-2.499.444-.241.894-.463,1.348-.668.871-.405,4.574-2.141,4.576-2.142l.026.055c1.153-.592,2.195-1.035,3.008-1.381.324-.138.652-.268.983-.388.515-.195,2.078-.797,2.083-.799.403-.155.81-.296,1.218-.424.567-.19,1.783-.61,1.794-.614l.011.031c.492-.191,1.001-.372,1.529-.543l1.247-.403c.33-.106.663-.204.998-.293l2.349-.624c.323-.086.647-.163.973-.232.555-.13,1.704-.412,1.716-.415.424-.104.85-.193,1.276-.268.489-.097,1.431-.292,1.691-.346.401-.083.812-.155,1.229-.215v-.004s1.464-.214,1.969-.29c.211-.034.422-.065.635-.093.011-.001,1.124-.145,1.696-.224.653-.104,1.317-.177,1.991-.218l2.299-.137c.201-.012.327-.018.528-.024,0,0,2.911-.085,2.912-.085h1.199c.796.003,1.564.038,2.309.103l.004-.055,2.162.131c.292.016.585.039.876.068.01,0,1.154.115,1.703.167.5.037,1.001.092,1.503.167l1.175.177c.688.105,1.352.23,1.991.376l.009-.045,2.101.414c.324.062.647.132.968.21l1.125.274c.629.153,1.235.322,1.819.505l.013-.044,1.108.314c.671.19,1.313.398,1.928.621l.016-.049c.006.001,1.475.49,1.961.648.492.155.979.328,1.459.521.006.003,1.282.515,1.796.719.312.118.624.245.934.379l1.187.521c.583.257,1.139.525,1.671.803l.016-.032c.015.007.996.48,1.537.733.447.195.89.407,1.326.636.831.437,1.857.977,2.966,1.665l.027-.047c.016.009.927.541,1.461.845.492.259.977.541,1.45.844,1.35.863,2.164,1.384,2.736,1.768l.002-.002c.008.005,1.203.824,1.737,1.184.771.497,1.516,1.052,2.225,1.663l11.774,10.144c.485.418.95.859,1.393,1.322.002.001,9.576,10.002,10.675,11.137.46.466.898.957,1.313,1.471l9.691,12.002c.449.561.863,1.123,1.244,1.688l.027-.019c3.91,5.645,8.324,12.007,9.065,13.06.317.437.618.888.901,1.352l8.294,13.616c.304.5.585,1.002.843,1.502l.028-.016c2.747,5.082,7.22,13.351,7.882,14.558.192.341.377.689.551,1.044l6.383,13.043c.405.831.901,1.846,1.381,3.019l.062-.028,5.986,13.311c.394.875.855,1.903,1.294,3.062l.061-.025,13.265,32.135c.047.114.093.229.138.344l12.334,31.569c.03.078.06.157.089.235.952,2.35,11.079,27.351,12.137,29.951.731,1.67,5.222,11.918,6.004,13.685l3.135,6.517c.816,1.701,1.633,3.403,2.244,4.682.217.454.47.984.735,1.583,2.434,4.606,6.21,11.75,7.205,13.619l5.954,9.671c.194.315.419.68.661,1.092l6.219,8.454,5.352,5.921,4.36,3.616,3.093,1.748,1.913.56,1.219.044,1.235-.278,2.173-1.066,3.082-2.292c.979-.979,2.438-2.44,3.419-3.424,2.059-2.851,7.007-9.703,8.868-12.286,3.166-5.896,7.615-14.187,8.897-16.587l8.546-20.031c.055-.128.11-.255.166-.381l8.069-22.409c.057-.156.113-.31.171-.461l14.995-50.295c.016-.052.031-.103.047-.155l23.362-92.917c2.694-10.712,13.556-17.214,24.273-14.519,10.712,2.693,17.213,13.561,14.52,24.273l-23.469,93.339c-.085.336-.178.668-.278.996-.798,2.667-15.272,51.228-15.272,51.228-.14.469-.296.93-.468,1.381-.579,1.586-5.363,14.88-8.512,23.635-.174.481-.363.953-.57,1.414-.674,1.56-5.892,13.797-9.114,21.361l-.096-.041c-.715,1.732-1.534,3.26-2.228,4.555l-8.417,15.686-.042-.022c-.509.953-1.106,1.913-1.802,2.879l-10.138,14.046-.046-.034c-1.365,1.812-3.015,3.463-4.817,5.269l-2.809,2.811-.056-.056c-.897.904-1.912,1.785-3.054,2.634l-4.838,3.598c-.98.729-2.026,1.366-3.123,1.904l-5.944,2.917c-1.536.753-3.131,1.294-4.745,1.629-1.168.262-5.762,1.296-5.762,1.296-1.455.328-2.929.488-4.392.488ZM787.409,733.694c.037,10.61,8.252,19.305,18.768,19.89-4.067-.251-8.009-1.742-11.261-4.344-4.727-3.781-7.485-9.497-7.507-15.546ZM787.409,733.663v.031-.031ZM787.409,733.623v.034-.034ZM731.867,679.322c.146,2.278.684,4.53,1.619,6.637-.927-2.127-1.464-4.373-1.616-6.634,0,0-.002-.002-.003-.002ZM386.357,582.812c.916.195,1.843.322,2.772.382-.007-.002-.013-.005-.021-.008-.92-.061-1.839-.185-2.752-.375ZM392.159,583.155h0c.255-.021.509-.049.763-.082-.254.032-.508.059-.763.082ZM402.894,578.868c-.015.011-.028.022-.042.033.014-.011.028-.022.042-.033ZM375.662,577.598c.281.033.562.059.844.08-.281-.021-.562-.049-.843-.082v.002ZM369.396,575.782c.962.466,1.957.848,2.972,1.146-.005-.004-.011-.008-.016-.012-1.007-.297-1.995-.676-2.956-1.135ZM452.156,569.682c-.76.7-1.578,1.344-2.449,1.926.875-.578,1.696-1.224,2.461-1.93l-.012.004ZM458.608,555.041v.008-.008ZM458.608,554.969v.041-.041ZM424.404,540.996c-1.855.215-3.431.66-4.654,1.118.203-.072.322-.114.322-.114,1.404-.495,2.857-.831,4.331-1.002,0,0,0,0,0-.001ZM426.588,539.112c-.848.271-1.68.601-2.489.99.196-.089.312-.141.312-.141.707-.322,1.428-.6,2.158-.834.007-.005.013-.01.02-.015ZM429.621,538.4l.003.004c.881-.136,1.769-.213,2.656-.231-.89.017-1.778.092-2.659.227ZM374.878,530.204l.344.48c.745,1.041,1.384,2.145,1.912,3.295l.003-.004c-.611-1.337-1.368-2.604-2.259-3.772ZM468.127,512.34c-4.759,0-9.487,1.686-13.202,4.998l.185-.159c4.164-3.58,9.466-5.188,14.652-4.772-.545-.044-1.09-.066-1.635-.066ZM641.033,487.265c.618,2.271,1.646,4.453,3.084,6.427l-.209-.301c-1.316-1.901-2.267-3.97-2.853-6.114-.008-.004-.016-.008-.022-.012ZM680.009,478.307c2.248,1.356,4.215,3.147,5.78,5.275-1.023-1.404-2.894-3.535-5.78-5.276v.002ZM644.102,470.338c-1.485,2.068-2.53,4.346-3.137,6.709l.008-.007c.604-2.365,1.648-4.641,3.129-6.703ZM557.115,472.715c-.803,1.108-1.724,2.139-2.754,3.074l-.187.169c1.101-.966,2.086-2.057,2.94-3.244ZM644.13,470.299c-.009.012-.019.025-.027.038.009-.012.019-.025.027-.038ZM644.158,470.26c-.008.011-.016.022-.023.033l.023-.033ZM644.188,470.219c-.007.009-.014.019-.021.029.007-.01.014-.019.021-.029ZM644.218,470.178c-.006.008-.013.016-.019.024.006-.008.013-.016.019-.024ZM644.247,470.137c-.005.007-.01.014-.015.021.005-.007.01-.013.015-.021ZM644.278,470.096c-.005.006-.009.012-.013.017.004-.006.008-.011.013-.017ZM644.309,470.055s-.006.007-.009.011c.003-.004.006-.008.009-.011ZM610.297,460.752c.175.11.349.215.522.316-.171-.101-.339-.204-.506-.309-.006-.002-.011-.004-.017-.007ZM577.758,460.456c-.187.097-.374.191-.563.283.194-.092.391-.189.587-.291l-.023.008ZM608.906,459.786c.201.154.403.302.605.444l.002-.003c-.204-.143-.405-.289-.604-.439h-.004ZM607.068,459.225c.16.085.32.168.481.247-.156-.078-.311-.159-.464-.241-.007-.002-.011-.004-.018-.006ZM580.27,458.898l.002.003c.172-.126.343-.255.514-.388h-.003c-.168.131-.34.26-.513.385ZM583.169,458.504c-.234.095-.472.187-.712.273.24-.085.478-.175.714-.269l-.002-.005ZM598.916,456.929c.199.043.399.082.601.119-.056-.011-.111-.022-.169-.033-.134-.026-.268-.054-.4-.083-.011,0-.021-.001-.031-.002ZM594.82,456.635c.242.018.484.032.729.042-.094-.006-.189-.011-.29-.018-.146-.009-.292-.019-.438-.031v.007ZM593.414,456.477c.251.038.505.07.759.098v-.011c-.24-.028-.479-.06-.718-.096-.014.003-.027.006-.041.009ZM595.598,455.896c.393.162.792.312,1.196.449l.002-.012c-.4-.135-.794-.283-1.182-.442-.005.002-.011.003-.017.005ZM588.68,455.143c.336.142.678.276,1.022.4l-.003-.024c-.339-.122-.672-.252-1.002-.391-.006.005-.012.01-.018.015ZM588.653,455.131c.006.003.012.005.018.008.006-.005.012-.01.018-.015-.014-.006-.027-.011-.04-.017l.005.024ZM587.431,449.183l.004.02c.41-1.21.717-2.503.897-3.88-.174,1.327-.479,2.618-.901,3.86ZM588.337,445.283c0,.008-.002.016-.003.024,0-.008.002-.016.003-.024ZM637.762,430.785c.171.101.342.205.51.311-.174-.111-.35-.219-.526-.324.006.004.011.009.017.013ZM634.627,429.29c.675.252,1.339.543,1.988.869l.003-.005c-.649-.328-1.317-.618-1.998-.87.003.002.005.004.007.006ZM631.499,426.91c.265.121.527.248.787.38-.265-.138-.537-.272-.818-.401.011.007.021.013.031.02ZM628.788,425.903c.745.217,1.48.478,2.202.783l.003-.006c-.699-.298-1.442-.565-2.223-.791.006.004.012.009.018.013ZM624.26,425.134c.063.003.127.007.19.011l.008-.014c-.071-.005-.143-.009-.215-.013.005.005.011.011.017.016ZM585.303,424.603l.002.01c1.187-1.496,2.575-2.803,4.113-3.892-.007-.004-.015-.007-.021-.011-1.531,1.089-2.912,2.398-4.094,3.892ZM625.743,423.91c.28.104.559.216.835.333-.293-.128-.588-.248-.885-.361.017.009.033.018.05.028ZM621.564,422.848c1.209.171,2.408.454,3.582.85l.005-.011c-1.187-.409-2.403-.698-3.631-.87l.044.031ZM592.808,422.887c.015.011.028.022.042.033-.014-.011-.027-.022-.042-.033ZM566.874,422.097c-1.104.225-2.044.513-2.78.783.906-.327,1.835-.588,2.776-.781.002,0,.003-.001.004-.002ZM618.516,421.059c.927.198,1.847.465,2.756.802-.928-.349-1.867-.624-2.812-.828.019.009.037.018.056.027ZM569.36,421.75h0c.128-.01.256-.018.384-.025-.129.007-.257.016-.384.025ZM569.772,421.723c-.008,0-.016,0-.024.001.009,0,.017,0,.024-.001ZM569.801,421.722c-.007,0-.014,0-.021,0,.007,0,.014,0,.021,0ZM569.83,421.72s-.01,0-.016,0c.006,0,.011,0,.016,0ZM569.861,421.719s-.009,0-.014,0c.005,0,.009,0,.014,0ZM569.893,421.717s-.007,0-.01,0c.003,0,.006,0,.01,0ZM569.925,421.716s-.006,0-.01,0c.004,0,.007,0,.01,0ZM569.957,421.714s-.005,0-.008,0c.003,0,.006,0,.008,0ZM569.99,421.712s-.005,0-.008,0c.003,0,.005,0,.008,0ZM570.022,421.711s-.003,0-.005,0c.002,0,.004,0,.005,0ZM570.056,421.71s-.002,0-.004,0c0,0,.003,0,.004,0ZM570.261,421.702h-.003.003ZM570.297,421.701s-.004,0-.006,0c.002,0,.004,0,.006,0ZM570.332,421.7s-.006,0-.008,0c.002,0,.005,0,.008,0ZM570.364,421.699s-.004,0-.006,0c.002,0,.004,0,.006,0ZM570.398,421.698s-.004,0-.007,0c.003,0,.005,0,.007,0ZM570.432,421.698h-.005.005ZM570.466,421.697h-.006.006ZM570.499,421.696h0,0ZM570.609,421.695h-.008.008ZM570.644,421.694h-.009.009ZM570.68,421.694s-.008,0-.012,0c.004,0,.008,0,.012,0ZM570.714,421.693h-.013.013ZM570.747,421.693h-.013.013ZM570.781,421.693h-.013.013ZM570.814,421.693s-.008,0-.012,0c.004,0,.008,0,.012,0ZM570.848,421.693h-.008.008ZM568.543,421.335c-.363.091-.725.193-1.083.305.345-.105.69-.2,1.037-.286.015-.006.031-.012.046-.019ZM569.167,421.19l.004.01c2.164-.457,4.375-.547,6.541-.283.006-.004.012-.008.017-.012-2.181-.272-4.399-.181-6.562.284ZM577.254,421.166s.007.001.01.002c.004-.003.007-.005.011-.008-.003,0-.007-.001-.01-.002-.004.003-.007.006-.011.009ZM589.398,420.709l.022.011c.474-.335.961-.649,1.461-.941-.01-.004-.019-.008-.028-.013-.498.293-.983.608-1.455.943ZM590.859,419.762c.01.004.02.009.028.013,2.071-1.209,4.36-2.048,6.761-2.453v-.023c-2.413.399-4.711,1.243-6.789,2.463ZM585.038,419.113c.063.015.126.031.188.046-.062-.016-.126-.031-.188-.046h0ZM580.087,418.556c-1.252.018-2.504.156-3.734.42,1.229-.253,2.47-.389,3.706-.409.01-.004.02-.008.028-.011ZM581.502,418.596c.012,0,.023.001.034.002.006-.002.012-.005.018-.008-.011,0-.022-.001-.034-.002-.006.002-.012.005-.018.008ZM585.038,418.156c.467.055.933.127,1.395.215-.463-.089-.928-.163-1.395-.219v.004ZM581.605,418.037c-.752.042-1.503.127-2.246.259.734-.124,1.473-.207,2.209-.248.013-.004.024-.007.037-.011ZM586.196,417.189c-.578.096-1.147.218-1.706.363.013,0,.026,0,.04-.001.546-.143,1.103-.264,1.666-.362ZM600.961,417.044c.428,0,.857.014,1.288.042-.806-.058-1.609-.064-2.399-.024v.012s.004,0,.007.001c.366-.02.735-.031,1.104-.031ZM202.535,287.923h.031-.031ZM202.504,287.923h.021-.021ZM202.473,287.923c.007,0,.013,0,.02,0-.006,0-.013,0-.02,0ZM202.438,287.923c.007,0,.015,0,.021,0-.007,0-.015,0-.021,0ZM202.402,287.923s.008,0,.013,0c-.005,0-.009,0-.013,0ZM202.374,287.922s.005,0,.007,0c-.002,0-.005,0-.007,0ZM225.851,260.578s.005.003.007.004c-.652-.95-1.392-1.847-2.216-2.678.818.831,1.557,1.727,2.209,2.674Z" fill="#212121" stroke-width="0"/>
</svg>