<?xml version="1.0" encoding="UTF-8"?>
<svg id="a" data-name="layer1" xmlns="http://www.w3.org/2000/svg" viewBox="0 0 500 500">
  <path d="M512.318,393.998c-.561-6.444-6.108-11.366-12.576-11.381-16.439-.038-32.375-7.606-47.366-22.495-12.975-12.886-25.217-31.1-36.387-54.137-19.52-40.256-28.831-81.303-28.922-81.708-1.275-5.714-6.345-9.778-12.2-9.778h-181.637c-14.365,0-35.982-9.418-57.389-54.288-13.419-28.125-20.105-56.842-20.661-59.288-.002-.009-.004-.017-.006-.026-.019-.083-.031-.135-.033-.146-.022-.098-.055-.191-.079-.288-.072-.295-.147-.589-.239-.875-.045-.139-.1-.272-.15-.409-.089-.246-.178-.493-.282-.731-.076-.175-.164-.343-.247-.513-.093-.189-.183-.38-.285-.564-.109-.196-.229-.383-.347-.572-.094-.149-.184-.301-.284-.446-.134-.195-.279-.381-.424-.567-.101-.131-.2-.264-.306-.39-.149-.177-.307-.344-.465-.512-.119-.127-.236-.255-.36-.377-.152-.149-.312-.288-.471-.428-.145-.129-.289-.259-.44-.38-.147-.118-.301-.228-.453-.339-.175-.129-.35-.258-.532-.378-.141-.092-.287-.176-.432-.262-.202-.121-.404-.242-.613-.352-.142-.075-.289-.14-.434-.209-.217-.104-.434-.207-.658-.299-.159-.065-.323-.119-.485-.177-.214-.077-.426-.155-.644-.221-.198-.059-.4-.105-.602-.155-.188-.046-.373-.096-.564-.134-.254-.05-.511-.083-.769-.117-.146-.019-.289-.045-.437-.059-.299-.029-.602-.039-.905-.046-.101-.002-.199-.015-.301-.015-.031,0-.061.001-.092.001-.046,0-.091,0-.137.002-19.424.06-36.859,7.792-51.821,22.988C22.341,142.914,2.853,199.396-7.041,281.803c-7.218,60.124-6.518,111.357-6.485,113.508.106,6.837,5.681,12.307,12.495,12.307.066,0,.132,0,.198-.002,6.902-.107,12.412-5.789,12.305-12.692-.008-.51-.709-51.679,6.31-110.141,9.088-75.701,26.695-128.717,50.916-153.317,7.661-7.78,15.826-12.579,24.757-14.526,3.318,12.121,9.724,32.777,19.634,53.64,9.122,19.203,19.373,34.643,30.469,45.891,15.074,15.28,31.786,23.028,49.672,23.028h171.873c4.039,15.206,13.181,45.924,28.199,76.998,12.408,25.673,26.303,46.266,41.3,61.207,19.923,19.849,41.882,29.913,65.266,29.913,7.273,0,13.096-6.212,12.451-13.62Z"/>
</svg>