<?xml version="1.0" encoding="UTF-8"?>
<svg id="a" data-name="layer1" xmlns="http://www.w3.org/2000/svg" viewBox="0 0 1000 1000">
  <path d="M1000.21,814.02c-1.65,0-3.32-.16-5-.5-5.31-1.08-131.44-27.4-259.15-114.87-75.53-51.73-135.79-114.18-179.12-185.61-49.14-81-76.33-173.48-81.02-275.32-43.5,12.6-129.27,42.43-213.94,100.51-69.54,47.71-124.85,104.97-164.38,170.19-49.27,81.29-74.26,175.7-74.26,280.58,0,13.81-11.19,25-25,25s-25-11.19-25-25c0-114.56,27.61-217.99,82.06-307.42,43.49-71.43,103.97-133.87,179.78-185.6,128.17-87.46,254.73-113.77,260.06-114.85,7.35-1.48,14.98.4,20.78,5.15,5.81,4.75,9.17,11.85,9.17,19.35,0,104.9,24.89,199.31,73.99,280.61,39.39,65.22,94.48,122.48,163.76,170.18,119.43,82.24,241.04,107.82,242.25,108.07,13.52,2.77,22.25,15.97,19.49,29.49-2.42,11.84-12.83,20.01-24.46,20.01Z"/>
</svg>