<?xml version="1.0" encoding="UTF-8"?>
<svg id="a" data-name="layer1" xmlns="http://www.w3.org/2000/svg" viewBox="0 0 1000 1000">
  <path d="M1017.47,787.04c-.5-3.57-12.64-88.5-50.72-174.76-52.86-119.73-130.33-183.02-224.04-183.02h-342.29c-4.88-24.43-15-66.27-33.33-108.52-39.35-90.68-97.53-138.61-168.26-138.61-13.81,0-25,11.19-25,25,0,94.76-10.45,183.39-31.06,263.42-16.43,63.8-39.33,122.32-68.05,173.92-39.06,70.19-81.69,113.11-98.78,126-11.03,8.25-13.31,23.87-5.09,34.93,4.91,6.6,12.45,10.09,20.09,10.09,5.18,0,10.41-1.61,14.89-4.93,2.3-1.71,56.86-42.88,110.83-138.64,31.24-55.42,56.1-118.14,73.89-186.4,20-76.76,31.05-160.82,32.96-250.22,38.79,10.22,71.46,45.22,97.35,104.48,25.31,57.95,33.73,117.29,33.81,117.87,1.7,12.38,12.27,21.61,24.77,21.61h363.27c178.94,0,224.8,311.55,225.24,314.7,1.75,12.5,12.45,21.54,24.73,21.54,1.15,0,2.31-.08,3.48-.24,13.67-1.91,23.21-14.54,21.31-28.21Z"/>
</svg>