<?xml version="1.0" encoding="UTF-8"?>
<svg id="a" data-name="layer1" xmlns="http://www.w3.org/2000/svg" viewBox="0 0 500 500">
  <path d="M459.39,357.531c20.316-28.445,36.473-66.147,52.098-102.607,2.72-6.345-.22-13.694-6.566-16.413-6.346-2.72-13.693.221-16.413,6.566-15.102,35.239-30.718,71.678-49.464,97.924-19.658,27.522-40.009,40.341-64.047,40.341s-44.389-12.818-64.047-40.341c-18.746-26.246-34.362-62.685-49.464-97.924-15.625-36.461-31.782-74.162-52.098-102.607-24.42-34.19-52.025-50.81-84.391-50.81s-59.971,16.62-84.391,50.81c-20.316,28.445-36.473,66.147-52.098,102.607-2.72,6.345.22,13.694,6.566,16.413,6.348,2.72,13.694-.221,16.413-6.566,15.102-35.239,30.718-71.678,49.464-97.924,19.658-27.522,40.009-40.34,64.047-40.34s44.389,12.818,64.047,40.34c18.746,26.246,34.362,62.685,49.464,97.924,15.625,36.461,31.782,74.162,52.098,102.607,7.322,10.252,14.934,18.912,22.871,26.03-.286-.02-.571-.043-.862-.043-6.806,0-12.324,5.517-12.324,12.323s5.518,12.323,12.324,12.323,12.323-5.517,12.323-12.323c0-1.253-.19-2.461-.537-3.6,15.535,10.788,32.305,16.1,50.596,16.1,18.438,0,35.328-5.402,50.966-16.364-.402,1.216-.627,2.513-.627,3.864,0,6.806,5.517,12.323,12.323,12.323s12.323-5.517,12.323-12.323-5.517-12.323-12.323-12.323c-.392,0-.778.023-1.16.059,7.943-7.121,15.56-15.786,22.888-26.045Z"/>
  <circle cx=".005" cy="395.84" r="12.323"/>
  <circle cx="62.527" cy="395.84" r="12.323"/>
  <path d="M125.05,383.517c-6.806,0-12.323,5.517-12.323,12.323s5.518,12.323,12.323,12.323,12.324-5.517,12.324-12.323-5.518-12.323-12.324-12.323Z"/>
  <circle cx="187.572" cy="395.84" r="12.323"/>
  <circle cx="250.095" cy="395.84" r="12.323"/>
  <circle cx="500.185" cy="395.84" r="12.323"/>
</svg>