<?xml version="1.0" encoding="UTF-8"?>
<svg id="a" data-name="layer1" xmlns="http://www.w3.org/2000/svg" viewBox="0 0 500 500">
  <path d="M-.45,408.12c-1.39,0-2.81-.23-4.2-.73-6.5-2.32-9.9-9.47-7.58-15.97L91.74,99.74c1.55-4.36,5.39-7.51,9.98-8.17,4.58-.66,9.16,1.26,11.89,4.99l86.55,118.44h175.29c3.95,0,7.67,1.87,10.03,5.04l125,168.12c4.12,5.54,2.97,13.37-2.57,17.49-5.54,4.12-13.37,2.97-17.49-2.57l-121.25-163.08h-175.35c-3.99,0-7.74-1.9-10.09-5.12l-76.36-104.49L11.33,399.81c-1.82,5.12-6.64,8.31-11.77,8.31Z"/>
</svg>