<?xml version="1.0" encoding="UTF-8"?>
<svg id="a" data-name="layer1" xmlns="http://www.w3.org/2000/svg" width="1000" height="1000" viewBox="0 0 1000 1000">
  <path d="M808.424,617.844c-6.364,0-20.256-13.194-30.734-48.739-20.412-69.306-53.939-79.628-72.1-79.628s-51.611,10.322-72.1,79.628c-10.477,35.546-24.37,48.739-28.561,49.127-.233-.078-18.316-11.874-32.286-93.754-14.746-87.001-38.495-129.299-72.643-129.299s-57.897,42.298-72.721,129.299c-10.089,59.527-22.429,81.957-27.707,89.718-6.675-12.34-20.955-50.214-32.364-159.567-18.471-177.961-47.187-201.943-72.876-201.943s-54.405,23.982-72.799,201.943c-12.806,123.789-29.492,155.997-34.614,163.215h-16.919v43.151h21.576c25.689,0,54.405-23.982,72.799-201.943,10.167-97.556,22.662-138.224,29.958-154.6,7.373,16.376,19.868,57.044,29.958,154.6,18.471,177.961,47.187,201.943,72.876,201.943,34.149,0,57.897-42.298,72.721-129.299,12.495-73.652,28.405-90.572,28.561-93.288,3.182,2.716,19.17,19.713,31.665,93.288,14.824,87.001,38.572,129.299,72.643,129.299,18.161,0,51.689-10.322,72.1-79.628,10.477-35.546,24.447-48.739,30.734-48.739,6.364,0,20.256,13.194,30.734,48.662,20.412,69.384,53.939,79.706,72.1,79.706h21.576v-43.151h-21.576Z" fill="#000" stroke-width="0"/>
  <rect x="170" y="704.162" width="660" height="43.151" fill="#000" stroke-width="0"/>
</svg>