<?xml version="1.0" encoding="UTF-8"?>
<svg id="a" data-name="layer1" xmlns="http://www.w3.org/2000/svg" viewBox="0 0 1000 1000">
  <path d="M886.03,647c-7.96,0-25.32-16.51-38.42-60.99-25.51-86.73-67.42-99.65-90.13-99.65s-64.51,12.92-90.13,99.65c-13.1,44.48-30.46,60.99-35.7,61.48-.29-.1-22.9-14.86-40.36-117.32-18.43-108.87-48.12-161.81-90.8-161.81s-72.37,52.93-90.9,161.81c-12.61,74.49-28.04,102.56-34.63,112.27-8.34-15.44-26.19-62.84-40.45-199.68-23.09-222.7-58.98-252.71-91.1-252.71s-68.01,30.01-91,252.71c-16.01,154.91-36.87,195.22-43.27,204.25h-21.15v54h26.97c32.11,0,68.01-30.01,91-252.71,12.71-122.08,28.33-172.97,37.45-193.47,9.22,20.49,24.84,71.38,37.45,193.47,23.09,222.7,58.98,252.71,91.1,252.71,42.69,0,72.37-52.93,90.9-161.81,15.62-92.17,35.51-113.34,35.7-116.74,3.98,3.4,23.96,24.67,39.58,116.74,18.53,108.87,48.22,161.81,90.8,161.81,22.7,0,64.61-12.92,90.13-99.65,13.1-44.48,30.56-60.99,38.42-60.99s25.32,16.51,38.42,60.9c25.51,86.83,67.42,99.74,90.13,99.74h26.97v-54h-26.97Z"/>
  <rect x="88" y="755" width="825" height="54"/>
</svg>