<?xml version="1.0" encoding="UTF-8"?>
<svg id="a" data-name="layer1" xmlns="http://www.w3.org/2000/svg" viewBox="0 0 1000 1000">
  <path d="M885.53,647.3c-7.96,0-25.32-16.49-38.42-60.92-25.51-86.63-67.42-99.54-90.13-99.54s-64.51,12.9-90.13,99.54c-13.1,44.43-30.46,60.92-35.7,61.41-.29-.1-22.9-14.84-40.36-117.19-18.43-108.75-48.12-161.62-90.8-161.62s-72.37,52.87-90.9,161.62c-12.61,74.41-28.04,102.45-34.63,112.15-8.34-15.43-26.19-62.77-40.45-199.46-23.09-222.45-58.98-252.43-91.1-252.43s-68.01,29.98-91,252.43c-16.01,154.74-36.87,195-43.27,204.02h-21.15v53.94h26.97c32.11,0,68.01-29.98,91-252.43,12.71-121.95,28.33-172.78,37.45-193.25,9.22,20.47,24.84,71.3,37.45,193.25,23.09,222.45,58.98,252.43,91.1,252.43,42.69,0,72.37-52.87,90.9-161.62,15.62-92.07,35.51-113.21,35.7-116.61,3.98,3.4,23.96,24.64,39.58,116.61,18.53,108.75,48.22,161.62,90.8,161.62,22.7,0,64.61-12.9,90.13-99.54,13.1-44.43,30.56-60.92,38.42-60.92s25.32,16.49,38.42,60.83c25.51,86.73,67.42,99.63,90.13,99.63h26.97v-53.94h-26.97Z"/>
  <rect x="87.5" y="755.2" width="825" height="53.94"/>
</svg>