<?xml version="1.0" encoding="UTF-8"?>
<svg id="a" data-name="layer1" xmlns="http://www.w3.org/2000/svg" viewBox="0 0 500 500">
  <path d="M338.053,350.119V72.243c0-6.903-5.596-12.5-12.5-12.5s-12.5,5.597-12.5,12.5v238.292c-7.155-3.888-15.628-6.503-25.189-7.678-19.979-2.456-42.803,1.704-64.265,11.712s-39.319,24.818-50.281,41.702c-12.136,18.691-14.671,37.882-7.139,54.035,7.532,16.153,23.862,26.546,45.982,29.264,3.75.461,7.596.688,11.519.688,16.977,0,35.312-4.271,52.746-12.4,38.538-17.97,62.426-49.469,61.627-77.738ZM265.861,405.199c-17.021,7.937-35.483,11.421-50.65,9.557-7.674-.943-21.306-4.148-26.374-15.017s1.239-23.371,5.45-29.855c8.322-12.817,22.856-24.72,39.878-32.658,14.01-6.533,28.996-10.048,42.318-10.048,2.863,0,5.649.162,8.333.492,7.674.943,21.306,4.148,26.374,15.017,1.218,2.613,1.774,5.32,1.865,8.015v1.542c0,.015.002.028.002.042-.257,7.962-4.317,15.636-7.317,20.256-8.322,12.817-22.857,24.721-39.878,32.658Z"/>
</svg>