<?xml version="1.0" encoding="UTF-8"?>
<svg id="a" data-name="layer1" xmlns="http://www.w3.org/2000/svg" viewBox="0 0 500 500">
  <path d="M331.727,134.144c-22.006-17.816-41.011-33.203-41.011-61.931,0-6.903-5.597-12.5-12.5-12.5s-12.5,5.597-12.5,12.5v238.292c-7.155-3.888-15.628-6.503-25.189-7.678-19.979-2.455-42.803,1.704-64.265,11.712-47.01,21.921-72.231,63.973-57.42,95.736,9.128,19.575,31.018,30.014,57.479,30.013,16.477,0,34.729-4.049,52.768-12.461,21.462-10.008,39.318-24.818,50.281-41.701,8.008-12.334,11.833-24.884,11.346-36.637v-218.278c7.906,8.298,16.796,15.495,25.28,22.363,23.822,19.287,44.396,35.944,44.396,69.968-.153,50.545-5.403,71.093-39.862,109.839-4.587,5.159-4.125,13.06,1.034,17.647,5.158,4.588,13.06,4.125,17.647-1.034,39.312-44.203,46.01-70.325,46.181-126.415,0-45.989-28.51-69.071-53.665-89.437Z"/>
</svg>