<?xml version="1.0" encoding="UTF-8"?>
<svg id="a" data-name="layer1" xmlns="http://www.w3.org/2000/svg" viewBox="0 0 500 500">
  <path d="M338.05,350.12V72.24c0-6.9-5.6-12.5-12.5-12.5s-12.5,5.6-12.5,12.5v238.29c-7.15-3.89-15.63-6.5-25.19-7.68-19.98-2.46-42.8,1.7-64.26,11.71s-39.32,24.82-50.28,41.7c-12.14,18.69-14.67,37.88-7.14,54.03,7.53,16.15,23.86,26.55,45.98,29.26,3.75.46,7.6.69,11.52.69,16.98,0,35.31-4.27,52.75-12.4,38.54-17.97,62.43-49.47,61.63-77.74ZM265.86,405.2c-17.02,7.94-35.48,11.42-50.65,9.56-7.67-.94-21.31-4.15-26.37-15.02s1.24-23.37,5.45-29.86c8.32-12.82,22.86-24.72,39.88-32.66,14.01-6.53,29-10.05,42.32-10.05,2.86,0,5.65.16,8.33.49,7.67.94,21.31,4.15,26.37,15.02,1.22,2.61,1.77,5.32,1.86,8.02v1.54s0,.03,0,.04c-.26,7.96-4.32,15.64-7.32,20.26-8.32,12.82-22.86,24.72-39.88,32.66Z"/>
</svg>