<?xml version="1.0" encoding="UTF-8"?>
<svg id="a" data-name="layer1" xmlns="http://www.w3.org/2000/svg" viewBox="0 0 500 500">
  <path d="M331.73,134.14c-22.01-17.82-41.01-33.2-41.01-61.93,0-6.9-5.6-12.5-12.5-12.5s-12.5,5.6-12.5,12.5v238.29c-7.15-3.89-15.63-6.5-25.19-7.68-19.98-2.46-42.8,1.7-64.26,11.71-47.01,21.92-72.23,63.97-57.42,95.74,9.13,19.57,31.02,30.01,57.48,30.01,16.48,0,34.73-4.05,52.77-12.46,21.46-10.01,39.32-24.82,50.28-41.7,8.01-12.33,11.83-24.88,11.35-36.64v-218.28c7.91,8.3,16.8,15.49,25.28,22.36,23.82,19.29,44.4,35.94,44.4,69.97-.15,50.54-5.4,71.09-39.86,109.84-4.59,5.16-4.12,13.06,1.03,17.65,5.16,4.59,13.06,4.13,17.65-1.03,39.31-44.2,46.01-70.32,46.18-126.42,0-45.99-28.51-69.07-53.66-89.44Z"/>
</svg>