<?xml version="1.0" encoding="UTF-8"?>
<svg id="a" data-name="レイヤー 1" xmlns="http://www.w3.org/2000/svg" viewBox="0 0 1000 1000">
  <path d="M500,87.72c-227.7,0-412.28,184.59-412.28,412.28s184.59,412.28,412.28,412.28,412.28-184.59,412.28-412.28S727.7,87.72,500,87.72ZM756.17,756.17c-33.29,33.29-72.04,59.42-115.17,77.66-44.63,18.88-92.07,28.45-141,28.45s-96.37-9.57-141-28.45c-43.13-18.24-81.88-44.37-115.17-77.66-33.29-33.29-59.42-72.04-77.66-115.17-18.88-44.63-28.45-92.07-28.45-141s9.57-96.37,28.45-141c18.24-43.13,44.37-81.88,77.66-115.17,33.29-33.29,72.04-59.42,115.17-77.66,44.63-18.88,92.07-28.45,141-28.45s96.37,9.57,141,28.45c43.13,18.24,81.88,44.37,115.17,77.66s59.42,72.04,77.66,115.17c18.88,44.63,28.45,92.07,28.45,141s-9.57,96.37-28.45,141c-18.24,43.13-44.37,81.88-77.66,115.17Z"/>
  <path d="M736.93,250h-61.11c-.13,0-.26,0-.39,0h-232.09c-.17,0-.34,0-.51,0h-179.75c-13.81,0-25,11.19-25,25s11.19,25,25,25h65v399.99h-65s0,0,0,0c-13.81,0-25,11.19-25,25,0,13.81,11.19,25,25,25h89.7c.1,0,.2,0,.3,0s.2,0,.3,0h205.9s.04,0,.07,0,.04,0,.07,0h116.2s0,0,0,0c13.81,0,25-11.19,25-25,0-13.81-11.19-25-25-25h-83.99s103.35-400,103.35-400h41.95c13.81,0,25-11.19,25-25s-11.19-25-25-25ZM378.08,699.99v-399.99h45.64l103.35,400h-148.99ZM559.35,625.07l-83.99-325.07h167.98l-83.99,325.07Z"/>
</svg>