<?xml version="1.0" encoding="UTF-8"?>
<svg id="a" data-name="レイヤー 1" xmlns="http://www.w3.org/2000/svg" viewBox="0 0 1000 1000">
  <polygon points="378.08 300 378.08 699.99 527.07 700 423.72 300 378.08 300"/>
  <polygon points="559.35 625.07 643.34 300 475.36 300 559.35 625.07"/>
  <path d="M500,87.72c-227.7,0-412.28,184.59-412.28,412.28s184.59,412.28,412.28,412.28,412.28-184.59,412.28-412.28S727.7,87.72,500,87.72ZM736.93,300h-41.95l-103.35,400h83.99c13.81,0,25,11.2,25,25,0,13.81-11.19,25-25,25,0,0,0,0,0,0h-116.19s-.05,0-.08,0-.05,0-.08,0h-205.88c-.1,0-.21,0-.31,0s-.21,0-.31,0h-89.69c-13.81,0-25-11.2-25-25,0-13.81,11.19-25,25-25,0,0,0,0,0,0h65s0-399.99,0-399.99h-65c-13.81,0-25-11.19-25-25s11.19-25,25-25h179.77c.15,0,.31,0,.46,0h232.09c.14,0,.29,0,.43,0h61.09c13.81,0,25,11.19,25,25s-11.19,25-25,25Z"/>
</svg>