<?xml version="1.0" encoding="UTF-8"?>
<svg id="a" data-name="レイヤー 1" xmlns="http://www.w3.org/2000/svg" viewBox="0 0 1000 1000">
  <rect x="525" y="300" width="40" height="400"/>
  <rect x="435" y="300" width="40" height="400"/>
  <path d="M500,87.72c-227.7,0-412.28,184.59-412.28,412.28s184.59,412.28,412.28,412.28,412.28-184.59,412.28-412.28S727.7,87.72,500,87.72ZM680,700c13.81,0,25,11.19,25,25s-11.19,25-25,25h-360c-13.81,0-25-11.19-25-25s11.19-25,25-25h65v-400h-65c-13.81,0-25-11.19-25-25s11.19-25,25-25h360c13.81,0,25,11.19,25,25s-11.19,25-25,25h-65v400h65Z"/>
</svg>