<?xml version="1.0" encoding="UTF-8"?>
<svg id="a" data-name="レイヤー 1" xmlns="http://www.w3.org/2000/svg" viewBox="0 0 1000 1000">
  <path d="M500,87.72c-227.7,0-412.28,184.59-412.28,412.28s184.59,412.28,412.28,412.28,412.28-184.59,412.28-412.28S727.7,87.72,500,87.72ZM756.17,756.17c-33.29,33.29-72.04,59.42-115.17,77.66-44.63,18.88-92.07,28.45-141,28.45s-96.37-9.57-141-28.45c-43.13-18.24-81.88-44.37-115.17-77.66-33.29-33.29-59.42-72.04-77.66-115.17-18.88-44.63-28.45-92.07-28.45-141s9.57-96.37,28.45-141c18.24-43.13,44.37-81.88,77.66-115.17,33.29-33.29,72.04-59.42,115.17-77.66,44.63-18.88,92.07-28.45,141-28.45s96.37,9.57,141,28.45c43.13,18.24,81.88,44.37,115.17,77.66,33.29,33.29,59.42,72.04,77.66,115.17,18.88,44.63,28.45,92.07,28.45,141s-9.57,96.37-28.45,141c-18.24,43.13-44.37,81.88-77.66,115.17Z"/>
  <path d="M680,300c13.81,0,25-11.19,25-25s-11.19-25-25-25h-360c-13.81,0-25,11.19-25,25s11.19,25,25,25h65v400h-65c-13.81,0-25,11.19-25,25s11.19,25,25,25h360c13.81,0,25-11.19,25-25s-11.19-25-25-25h-65v-400h65ZM475,700h-40v-400h40v400ZM525,300h40v400h-40v-400Z"/>
</svg>