<?xml version="1.0" encoding="UTF-8"?>
<svg id="a" data-name="layer1" xmlns="http://www.w3.org/2000/svg" viewBox="0 0 1000 1000">
  <path d="M900.3,329.7c-22.04-52.1-53.58-98.89-93.75-139.06-40.17-40.17-86.96-71.71-139.06-93.75-53.95-22.82-111.25-34.39-170.3-34.39s-116.35,11.57-170.3,34.39c-52.1,22.04-98.89,53.58-139.06,93.75-40.17,40.17-71.71,86.96-93.75,139.06-22.82,53.95-34.39,111.25-34.39,170.3s11.57,116.35,34.39,170.3c22.04,52.1,53.58,98.89,93.75,139.06,40.17,40.17,86.96,71.71,139.06,93.75.45.19.91.37,1.36.56,0,0,.01,0,.02,0,.1.04.19.08.29.12,30.04,12.56,61.1,21.65,92.92,27.2.09.02.18.03.28.04,3.45.6,6.9,1.16,10.37,1.68.29.04.59.08.88.12,3.27.48,6.54.93,9.82,1.34.53.07,1.06.11,1.59.18,3.05.37,6.11.72,9.17,1.02.82.08,1.65.14,2.47.21,2.78.26,5.56.51,8.35.72,1.24.09,2.48.15,3.71.23,2.39.16,4.77.32,7.16.44,1.83.09,3.67.14,5.51.2,1.81.07,3.61.15,5.42.2,3.64.09,7.28.13,10.93.13.02,0,.04,0,.06,0h0c3.58,0,7.15-.05,10.72-.13.15,0,.31,0,.46,0,3.45-.09,6.89-.22,10.33-.38.27-.01.53-.02.8-.04,3.34-.17,6.67-.38,9.99-.62.37-.03.73-.05,1.1-.08,3.24-.24,6.47-.53,9.69-.84.45-.04.9-.09,1.35-.13,3.14-.32,6.27-.67,9.4-1.05.54-.07,1.08-.13,1.62-.2,3.05-.38,6.08-.8,9.12-1.25.62-.09,1.24-.18,1.86-.28,2.95-.45,5.88-.93,8.82-1.44.71-.12,1.42-.25,2.14-.37,2.84-.51,5.67-1.04,8.49-1.6.81-.16,1.63-.33,2.44-.49,2.72-.56,5.44-1.14,8.15-1.75.92-.21,1.83-.42,2.75-.63,2.59-.6,5.18-1.23,7.77-1.88,1.04-.26,2.08-.53,3.12-.8,2.46-.64,4.91-1.29,7.35-1.97,1.17-.33,2.35-.67,3.52-1,2.08-.6,4.15-1.21,6.22-1.84,1.55-.47,3.09-.95,4.63-1.44,1.58-.5,3.17-1.01,4.75-1.53,2.04-.67,4.07-1.36,6.1-2.06,1.2-.42,2.41-.84,3.61-1.27,2.42-.86,4.83-1.74,7.23-2.64.88-.33,1.76-.66,2.63-1,2.75-1.05,5.49-2.13,8.22-3.24.58-.23,1.15-.47,1.73-.71,1.4-.58,2.82-1.13,4.22-1.72,1.81-.77,3.6-1.57,5.4-2.36.01,0,.02-.01.04-.02h0c49.91-21.91,94.85-52.61,133.62-91.37,40.17-40.17,71.71-86.96,93.75-139.06,22.82-53.95,34.39-111.25,34.39-170.3s-11.57-116.35-34.39-170.3ZM488.12,887.89c-.95-.02-1.89-.06-2.84-.09-2.08-.06-4.16-.13-6.24-.23-1.11-.05-2.21-.11-3.32-.17-1.92-.1-3.83-.22-5.75-.35-1.16-.08-2.32-.17-3.48-.26-1.85-.14-3.7-.3-5.54-.47-1.19-.11-2.39-.22-3.58-.34-1.78-.18-3.55-.38-5.32-.59-1.25-.14-2.5-.28-3.75-.44-1.54-.19-3.08-.41-4.61-.62-6.71-.92-13.39-2-20.02-3.28-.07-.01-.14-.03-.21-.04-18.73-3.61-37.16-8.61-55.22-14.98,8.68-23.2,23.45-43.99,42.81-59.9,25.16-20.67,57-32.06,89.63-32.06s63.37,10.83,88.73,31.32c19.15,15.47,33.93,35.73,42.85,58.39-21.33,7.95-43.2,13.95-65.49,18-.32.06-.64.12-.96.18-2.02.36-4.04.69-6.07,1.02-1.08.17-2.16.35-3.24.52-1.63.25-3.27.48-4.9.71-1.47.21-2.95.41-4.43.6-1.41.18-2.82.35-4.24.52-1.7.2-3.41.39-5.11.56-1.28.13-2.55.26-3.83.38-1.85.17-3.7.33-5.55.47-1.19.09-2.37.19-3.56.27-1.96.14-3.92.25-5.88.36-1.11.06-2.21.13-3.32.18-2.14.1-4.28.17-6.42.23-.94.03-1.88.07-2.82.09-3.08.07-6.17.11-9.26.11h0c-3.03,0-6.05-.04-9.07-.11ZM771.19,774c-27.9,27.9-59.3,51-93.21,68.93-12.16-29.83-31.83-56.49-57.13-76.93-33.87-27.36-76.54-42.43-120.15-42.43s-87.29,15.42-121.37,43.43c-25.6,21.03-45.26,48.4-57.1,78.96-36.15-18.33-69.55-42.47-99.04-71.95-73.19-73.19-113.5-170.5-113.5-274s40.31-200.81,113.5-274c73.19-73.19,170.5-113.5,274-113.5s200.81,40.31,274,113.5c73.19,73.19,113.5,170.5,113.5,274s-40.31,200.81-113.5,274Z"/>
  <path d="M791.92,503.51c0,22.73-18.49,41.22-41.22,41.22s-41.22-18.49-41.22-41.22,18.49-41.22,41.22-41.22,41.22,18.49,41.22,41.22Z"/>
  <path d="M650.82,296.56c7.79-7.78,18.14-12.07,29.15-12.07s21.36,4.29,29.15,12.07c16.07,16.07,16.07,42.22,0,58.29-7.79,7.79-18.14,12.07-29.15,12.07s-21.36-4.29-29.15-12.07c-16.07-16.07-16.07-42.22,0-58.29Z"/>
  <path d="M504.22,291.22c-22.73,0-41.22-18.49-41.22-41.22s18.49-41.22,41.22-41.22,41.22,18.49,41.22,41.22-18.49,41.22-41.22,41.22Z"/>
  <path d="M355.56,349.89c-7.79,7.79-18.14,12.07-29.15,12.07s-21.36-4.29-29.15-12.07c-16.07-16.07-16.07-42.22,0-58.29,7.79-7.79,18.14-12.07,29.15-12.07s21.36,4.29,29.15,12.07c16.07,16.07,16.07,42.22,0,58.29Z"/>
  <path d="M250.7,537.71c-22.73,0-41.22-18.49-41.22-41.22s18.49-41.22,41.22-41.22,41.22,18.49,41.22,41.22-18.49,41.22-41.22,41.22Z"/>
</svg>