<?xml version="1.0" encoding="UTF-8"?>
<svg id="a" data-name="layer1" xmlns="http://www.w3.org/2000/svg" viewBox="0 0 500 500">
  <path d="M450.852,164.849c-11.018-26.05-26.789-49.443-46.875-69.529-20.086-20.085-43.478-35.857-69.529-46.875-26.977-11.41-55.626-17.195-85.151-17.195s-58.175,5.786-85.151,17.195c-26.05,11.018-49.443,26.79-69.528,46.875-20.086,20.085-35.857,43.478-46.875,69.529-11.41,26.977-17.195,55.626-17.195,85.151s5.785,58.174,17.195,85.151c11.018,26.05,26.789,49.443,46.875,69.529,20.085,20.085,43.478,35.857,69.528,46.875,26.977,11.41,55.626,17.195,85.151,17.195s58.174-5.786,85.151-17.195c26.05-11.018,49.443-26.79,69.529-46.875,20.085-20.085,35.857-43.478,46.875-69.529,11.41-26.977,17.196-55.626,17.196-85.151s-5.786-58.174-17.196-85.151ZM386.3,387.002c-36.595,36.595-85.25,56.748-137.002,56.748s-100.407-20.154-137.002-56.748c-36.595-36.595-56.748-85.249-56.748-137.002s20.154-100.407,56.748-137.002c36.595-36.595,85.249-56.748,137.002-56.748s100.407,20.154,137.002,56.748c36.595,36.595,56.748,85.249,56.748,137.002s-20.154,100.407-56.748,137.002Z"/>
  <path d="M249.298,395.609c-11.364,0-20.609-9.245-20.609-20.609s9.245-20.609,20.609-20.609,20.609,9.245,20.609,20.609-9.245,20.609-20.609,20.609Z"/>
  <path d="M391.407,284.865c0,11.364-9.245,20.609-20.609,20.609s-20.609-9.245-20.609-20.609,9.245-20.609,20.609-20.609,20.609,9.245,20.609,20.609Z"/>
  <path d="M131.432,305.475c-11.364,0-20.609-9.245-20.609-20.609s9.245-20.609,20.609-20.609,20.609,9.245,20.609,20.609-9.245,20.609-20.609,20.609Z"/>
</svg>