<?xml version="1.0" encoding="UTF-8"?>
<svg id="a" data-name="layer1" xmlns="http://www.w3.org/2000/svg" viewBox="0 0 1000 1000">
  <path d="M901.7,329.7c-22.04-52.1-53.58-98.89-93.75-139.06-40.17-40.17-86.96-71.71-139.06-93.75-53.95-22.82-111.25-34.39-170.3-34.39s-116.35,11.57-170.3,34.39c-52.1,22.04-98.89,53.58-139.06,93.75-40.17,40.17-71.71,86.96-93.75,139.06-22.82,53.95-34.39,111.25-34.39,170.3s11.57,116.35,34.39,170.3c22.04,52.1,53.58,98.89,93.75,139.06,40.17,40.17,86.96,71.71,139.06,93.75,53.95,22.82,111.25,34.39,170.3,34.39s116.35-11.57,170.3-34.39c52.1-22.04,98.89-53.58,139.06-93.75,40.17-40.17,71.71-86.96,93.75-139.06,22.82-53.95,34.39-111.25,34.39-170.3s-11.57-116.35-34.39-170.3ZM772.6,774c-73.19,73.19-170.5,113.5-274,113.5s-200.81-40.31-274-113.5c-73.19-73.19-113.5-170.5-113.5-274s40.31-200.81,113.5-274c73.19-73.19,170.5-113.5,274-113.5s200.81,40.31,274,113.5c73.19,73.19,113.5,170.5,113.5,274s-40.31,200.81-113.5,274Z"/>
  <path d="M498.6,791.22c-22.73,0-41.22-18.49-41.22-41.22s18.49-41.22,41.22-41.22,41.22,18.49,41.22,41.22-18.49,41.22-41.22,41.22Z"/>
  <path d="M782.81,569.73c0,22.73-18.49,41.22-41.22,41.22s-41.22-18.49-41.22-41.22,18.49-41.22,41.22-41.22,41.22,18.49,41.22,41.22Z"/>
  <path d="M262.86,610.95c-22.73,0-41.22-18.49-41.22-41.22s18.49-41.22,41.22-41.22,41.22,18.49,41.22,41.22-18.49,41.22-41.22,41.22Z"/>
</svg>