<?xml version="1.0" encoding="UTF-8"?>
<svg id="c" data-name="レイヤー 4" xmlns="http://www.w3.org/2000/svg" viewBox="0 0 500 500">
  <path d="M391.5,427.5H133.5c-6.904,0-12.5-5.596-12.5-12.5V85c0-6.904,5.596-12.5,12.5-12.5h216.5c6.904,0,12.5,5.596,12.5,12.5v59.82l37.834,37.789c2.347,2.345,3.666,5.526,3.666,8.844v33.547c0,6.904-5.596,12.5-12.5,12.5h-29v18.53l37.834,37.789c2.347,2.345,3.666,5.526,3.666,8.844v112.337c0,6.904-5.596,12.5-12.5,12.5ZM146,402.5h233v-94.662l-37.834-37.789c-2.347-2.345-3.666-5.526-3.666-8.844v-36.205c0-6.904,5.596-12.5,12.5-12.5h29v-15.873l-37.834-37.789c-2.347-2.345-3.666-5.526-3.666-8.844v-52.494h-191.5v305Z"/>
</svg>