<?xml version="1.0" encoding="UTF-8"?>
<svg id="a" data-name="layer1" xmlns="http://www.w3.org/2000/svg" viewBox="0 0 500 500">
  <path d="M450.15,164.849c-11.018-26.05-26.789-49.443-46.875-69.529-20.085-20.085-43.478-35.857-69.528-46.875-26.977-11.41-55.626-17.195-85.151-17.195s-58.174,5.786-85.151,17.195c-26.05,11.018-49.443,26.79-69.529,46.875-20.085,20.085-35.857,43.478-46.875,69.529-11.41,26.977-17.196,55.626-17.196,85.151s5.786,58.174,17.196,85.151c11.018,26.05,26.789,49.443,46.875,69.529,20.086,20.085,43.478,35.857,69.529,46.875.226.096.454.183.68.278.003.001.005.003.009.004.048.02.096.038.144.058,15.019,6.28,30.55,10.826,46.461,13.6.046.008.092.014.138.022,1.724.299,3.451.58,5.183.838.146.022.293.039.439.06,1.634.24,3.271.466,4.912.669.265.033.531.057.795.089,1.526.183,3.053.358,4.585.509.41.041.823.069,1.234.107,1.389.129,2.779.256,4.173.359.618.046,1.238.074,1.857.115,1.193.078,2.384.161,3.58.219.916.045,1.837.068,2.755.102.903.033,1.805.077,2.71.099,1.818.044,3.64.067,5.464.067.01,0,.02,0,.031,0h0c1.79,0,3.576-.023,5.359-.066.077-.002.154-.003.23-.004,1.725-.043,3.446-.108,5.164-.191.133-.006.267-.011.4-.018,1.669-.083,3.334-.188,4.997-.308.183-.013.367-.025.55-.039,1.619-.122,3.234-.263,4.847-.42.226-.022.452-.043.677-.065,1.57-.158,3.137-.334,4.701-.526.269-.033.539-.065.808-.099,1.523-.192,3.042-.402,4.558-.626.31-.046.62-.091.93-.138,1.473-.224,2.942-.464,4.409-.718.356-.062.712-.124,1.068-.187,1.418-.253,2.833-.52,4.245-.802.406-.081.813-.163,1.219-.247,1.36-.279,2.718-.571,4.073-.876.459-.103.917-.21,1.376-.316,1.297-.301,2.592-.613,3.884-.938.52-.131,1.039-.266,1.559-.401,1.228-.319,2.453-.646,3.676-.987.587-.164,1.173-.333,1.759-.502,1.039-.299,2.077-.605,3.112-.92.773-.235,1.544-.476,2.314-.72.792-.251,1.583-.507,2.373-.767,1.018-.335,2.035-.678,3.049-1.028.602-.208,1.203-.42,1.804-.633,1.208-.429,2.413-.869,3.615-1.32.439-.165.878-.332,1.316-.499,1.374-.526,2.744-1.066,4.11-1.62.288-.117.576-.234.863-.353.702-.288,1.408-.565,2.108-.861.906-.383,1.801-.786,2.7-1.18.006-.003.012-.005.018-.008h.002c24.957-10.954,47.426-26.305,66.808-45.687,20.086-20.085,35.857-43.478,46.875-69.529,11.41-26.977,17.195-55.626,17.195-85.151s-5.785-58.174-17.195-85.151ZM244.059,443.945c-.474-.011-.946-.03-1.419-.044-1.041-.031-2.081-.066-3.119-.114-.553-.025-1.106-.057-1.659-.087-.959-.052-1.917-.109-2.873-.175-.58-.04-1.16-.083-1.74-.128-.925-.072-1.848-.152-2.77-.237-.596-.055-1.193-.109-1.788-.169-.888-.09-1.774-.191-2.659-.293-.625-.072-1.251-.139-1.874-.218-.771-.096-1.539-.207-2.307-.312-3.354-.462-6.693-1.002-10.01-1.639-.035-.007-.07-.013-.105-.019-9.367-1.804-18.582-4.304-27.608-7.492,4.338-11.599,11.724-21.996,21.406-29.95,12.582-10.337,28.498-16.029,44.816-16.029s31.683,5.416,44.365,15.661c9.573,7.734,16.966,17.866,21.427,29.194-10.663,3.976-21.599,6.976-32.747,8.998-.161.029-.32.061-.481.089-1.01.18-2.022.345-3.035.509-.54.087-1.08.177-1.621.26-.816.125-1.634.24-2.452.355-.737.103-1.474.205-2.213.299-.705.091-1.412.176-2.119.259-.851.099-1.704.194-2.557.282-.638.066-1.276.131-1.914.191-.923.086-1.848.164-2.773.237-.594.047-1.187.096-1.782.137-.979.069-1.96.125-2.941.18-.554.031-1.107.065-1.661.091-1.068.05-2.139.085-3.21.117-.471.014-.941.035-1.412.046-1.54.036-3.083.056-4.628.056h-.002c-1.515,0-3.026-.021-4.535-.055ZM385.597,387.002c-13.948,13.948-29.651,25.499-46.607,34.464-6.079-14.917-15.914-28.245-28.563-38.464-16.933-13.681-38.269-21.215-60.076-21.215-22.091,0-43.643,7.711-60.686,21.713-12.798,10.514-22.629,24.198-28.552,39.479-18.073-9.163-34.777-21.233-49.52-35.977-36.595-36.595-56.748-85.249-56.748-137.002s20.154-100.407,56.748-137.002c36.594-36.595,85.249-56.748,137.002-56.748s100.407,20.154,137.002,56.748c36.595,36.595,56.748,85.249,56.748,137.002s-20.154,100.407-56.748,137.002Z"/>
  <path d="M395.96,251.756c0,11.364-9.245,20.609-20.609,20.609s-20.609-9.245-20.609-20.609,9.245-20.609,20.609-20.609,20.609,9.245,20.609,20.609Z"/>
  <path d="M325.408,148.28c3.893-3.892,9.069-6.036,14.573-6.036s10.681,2.144,14.573,6.036c8.036,8.036,8.036,21.111,0,29.146-3.893,3.893-9.068,6.036-14.573,6.036s-10.68-2.144-14.573-6.036c-8.036-8.036-8.036-21.111,0-29.146Z"/>
  <path d="M252.108,145.609c-11.364,0-20.609-9.245-20.609-20.609s9.245-20.609,20.609-20.609,20.609,9.245,20.609,20.609-9.245,20.609-20.609,20.609Z"/>
  <path d="M177.778,174.943c-3.893,3.893-9.068,6.036-14.573,6.036s-10.68-2.144-14.573-6.036c-8.036-8.036-8.036-21.111,0-29.146,3.893-3.893,9.068-6.036,14.573-6.036s10.681,2.144,14.573,6.036c8.036,8.036,8.036,21.111,0,29.146Z"/>
  <path d="M125.351,268.853c-11.364,0-20.609-9.245-20.609-20.609s9.245-20.609,20.609-20.609,20.609,9.245,20.609,20.609-9.245,20.609-20.609,20.609Z"/>
</svg>