<?xml version="1.0" encoding="UTF-8"?>
<svg id="a" data-name="layer1" xmlns="http://www.w3.org/2000/svg" viewBox="0 0 500 500">
  <path d="M352.75,344.25h-200c-6.904,0-12.5-5.596-12.5-12.5v-69h-52.263c-4.163,0-8.159-1.936-10.516-5.368-3.498-5.092-2.75-11.744,1.44-15.926L243.911,76.805c2.344-2.339,5.524-3.653,8.839-3.653s6.495,1.314,8.839,3.653l165,164.651c4.191,4.182,4.938,10.834,1.44,15.926-2.357,3.431-6.353,5.368-10.516,5.368h-52.263s0,69,0,69c0,6.904-5.596,12.5-12.5,12.5ZM165.25,319.25h175v-69c0-6.904,5.596-12.5,12.5-12.5h34.822L252.75,103.213,117.928,237.75h34.822c6.904,0,12.5,5.596,12.5,12.5v69Z" stroke="#000" stroke-miterlimit="10" stroke-width=".5"/>
  <path d="M350,427.5h-200c-6.904,0-12.5-5.596-12.5-12.5v-44c0-6.904,5.596-12.5,12.5-12.5h200c6.904,0,12.5,5.596,12.5,12.5v44c0,6.904-5.596,12.5-12.5,12.5ZM162.5,402.5h175v-19h-175v19Z"/>
</svg>