<?xml version="1.0" encoding="UTF-8"?>
<svg id="a" data-name="layer1" xmlns="http://www.w3.org/2000/svg" width="1000" height="1000" viewBox="0 0 1000 1000">
  <path d="M819.677,363.758c-17.629-41.68-42.863-79.109-75-111.246-32.137-32.137-69.565-57.371-111.245-75-43.163-18.256-89.001-27.513-136.242-27.513s-93.079,9.257-136.242,27.513c-41.68,17.629-79.108,42.863-111.246,75-32.137,32.137-57.371,69.565-75,111.246-18.256,43.163-27.513,89.001-27.513,136.242s9.257,93.079,27.513,136.242c17.629,41.68,42.863,79.109,75,111.246,32.137,32.137,69.565,57.371,111.246,75,.361.153.726.293,1.088.444.004.002.009.005.014.007.076.032.154.061.23.093,24.03,10.048,48.88,17.322,74.338,21.76.074.013.147.023.221.036,2.758.479,5.522.928,8.293,1.341.234.035.469.062.703.096,2.614.384,5.233.746,7.859,1.071.423.052.849.092,1.272.142,2.441.293,4.885.573,7.336.814.657.065,1.317.11,1.975.171,2.223.206,4.446.41,6.676.574.988.073,1.981.119,2.972.183,1.908.124,3.815.257,5.728.351,1.466.072,2.939.109,4.408.163,1.445.053,2.888.123,4.336.159,2.909.071,5.823.107,8.743.107.017,0,.033,0,.049,0h0c2.863,0,5.721-.037,8.574-.105.123-.003.246-.004.368-.007,2.76-.069,5.514-.173,8.263-.305.213-.01.427-.018.64-.028,2.67-.133,5.335-.3,7.995-.493.293-.021.586-.04.879-.062,2.59-.195,5.175-.421,7.755-.672.361-.035.723-.068,1.084-.104,2.513-.253,5.02-.535,7.521-.842.431-.053.862-.104,1.292-.158,2.437-.308,4.867-.643,7.293-1.001.497-.073.993-.146,1.488-.221,2.356-.359,4.708-.743,7.054-1.149.57-.099,1.14-.198,1.709-.3,2.269-.405,4.533-.833,6.792-1.283.65-.13,1.3-.261,1.95-.395,2.177-.447,4.349-.913,6.517-1.401.734-.165,1.468-.335,2.201-.506,2.076-.482,4.148-.981,6.214-1.501.833-.209,1.663-.426,2.494-.642,1.964-.51,3.925-1.033,5.881-1.578.939-.262,1.876-.533,2.814-.803,1.663-.479,3.323-.968,4.98-1.472,1.236-.376,2.47-.762,3.703-1.152,1.268-.401,2.533-.811,3.797-1.227,1.629-.536,3.255-1.084,4.878-1.645.963-.333,1.925-.672,2.886-1.013,1.933-.687,3.86-1.391,5.784-2.112.703-.264,1.404-.531,2.105-.799,2.199-.841,4.391-1.706,6.576-2.593.46-.187.921-.375,1.381-.564,1.124-.461,2.252-.903,3.372-1.377,1.449-.613,2.881-1.257,4.32-1.888.009-.004.019-.008.029-.013h.003c39.932-17.527,75.882-42.088,106.894-73.099,32.137-32.137,57.371-69.565,75-111.246,18.256-43.163,27.513-89.001,27.513-136.242s-9.256-93.079-27.513-136.242ZM489.932,809.912c-.758-.017-1.513-.048-2.27-.071-1.665-.05-3.329-.106-4.99-.182-.885-.041-1.77-.091-2.654-.139-1.534-.083-3.066-.175-4.596-.281-.929-.064-1.856-.132-2.784-.204-1.479-.115-2.957-.244-4.432-.38-.954-.088-1.909-.174-2.861-.271-1.421-.144-2.838-.306-4.254-.469-1-.116-2.001-.223-2.999-.348-1.233-.154-2.462-.33-3.692-.499-5.366-.739-10.708-1.603-16.016-2.622-.056-.01-.112-.02-.167-.031-14.988-2.886-29.731-6.886-44.172-11.988,6.94-18.558,18.759-35.193,34.25-47.919,20.131-16.539,45.596-25.647,71.706-25.647s50.693,8.665,70.984,25.058c15.317,12.375,27.145,28.585,34.283,46.71-17.061,6.361-34.558,11.162-52.396,14.396-.257.046-.513.097-.77.143-1.615.289-3.236.552-4.856.815-.864.14-1.728.283-2.593.416-1.306.2-2.615.385-3.924.568-1.179.165-2.359.328-3.542.479-1.128.145-2.259.281-3.39.414-1.362.159-2.726.31-4.092.451-1.021.106-2.041.209-3.063.305-1.477.138-2.956.262-4.437.38-.95.075-1.899.153-2.851.22-1.566.11-3.135.201-4.706.287-.886.049-1.771.104-2.658.146-1.708.08-3.422.135-5.136.188-.753.023-1.505.057-2.259.074-2.464.057-4.932.09-7.405.09h-.002c-2.423,0-4.842-.033-7.256-.088ZM716.393,719.203c-22.316,22.317-47.442,40.798-74.571,55.143-9.727-23.866-25.462-45.192-45.7-61.542-27.093-21.89-61.23-33.944-96.122-33.944-35.346,0-69.83,12.337-97.098,34.74-20.477,16.823-36.207,38.717-45.683,63.167-28.917-14.661-55.643-33.973-79.232-57.563-58.552-58.551-90.797-136.399-90.797-219.203s32.246-160.652,90.797-219.203c58.551-58.551,136.399-90.797,219.203-90.797s160.652,32.246,219.203,90.797,90.797,136.399,90.797,219.203-32.246,160.652-90.797,219.203Z" fill="#000" stroke-width="0"/>
  <path d="M627.025,502.81c0,40.238,32.736,72.975,72.975,72.975s72.975-32.736,72.975-72.975-32.736-72.975-72.975-72.975-72.975,32.736-72.975,72.975ZM732.975,502.81c0,18.182-14.792,32.975-32.975,32.975s-32.975-14.792-32.975-32.975,14.792-32.975,32.975-32.975,32.975,14.792,32.975,32.975Z" fill="#000" stroke-width="0"/>
  <path d="M695.009,412.167c28.453-28.453,28.453-74.749,0-103.202-13.783-13.783-32.109-21.374-51.601-21.374s-37.818,7.591-51.601,21.374c-28.453,28.453-28.453,74.749,0,103.202,13.783,13.783,32.109,21.374,51.601,21.374s37.818-7.591,51.601-21.374ZM620.091,337.249c6.228-6.228,14.51-9.658,23.317-9.658s17.089,3.43,23.317,9.658c12.857,12.857,12.857,33.777,0,46.634-6.228,6.228-14.509,9.658-23.317,9.658s-17.088-3.43-23.317-9.658c-12.857-12.857-12.857-33.777,0-46.634Z" fill="#000" stroke-width="0"/>
  <path d="M502.81,227.025c-40.239,0-72.975,32.736-72.975,72.975s32.736,72.975,72.975,72.975,72.975-32.736,72.975-72.975-32.736-72.975-72.975-72.975ZM502.81,332.975c-18.183,0-32.975-14.792-32.975-32.975s14.792-32.975,32.975-32.975,32.975,14.792,32.975,32.975-14.792,32.975-32.975,32.975Z" fill="#000" stroke-width="0"/>
  <path d="M360.565,283.617c-19.492,0-37.818,7.591-51.601,21.374-28.453,28.453-28.453,74.749,0,103.202,13.783,13.783,32.109,21.374,51.601,21.374s37.818-7.591,51.601-21.374c28.453-28.453,28.453-74.749,0-103.202-13.783-13.783-32.109-21.374-51.601-21.374ZM383.882,379.909c-6.228,6.228-14.509,9.658-23.317,9.658s-17.088-3.43-23.316-9.658c-12.857-12.857-12.857-33.777,0-46.634,6.228-6.228,14.509-9.658,23.316-9.658s17.089,3.43,23.317,9.658c12.857,12.857,12.857,33.777,0,46.634Z" fill="#000" stroke-width="0"/>
  <path d="M300,424.215c-40.238,0-72.975,32.736-72.975,72.975s32.736,72.975,72.975,72.975,72.975-32.736,72.975-72.975-32.736-72.975-72.975-72.975ZM300,530.165c-18.183,0-32.975-14.792-32.975-32.975s14.792-32.975,32.975-32.975,32.975,14.792,32.975,32.975-14.792,32.975-32.975,32.975Z" fill="#000" stroke-width="0"/>
</svg>