<?xml version="1.0" encoding="UTF-8"?>
<svg id="a" data-name="layer1" xmlns="http://www.w3.org/2000/svg" viewBox="0 0 500 500">
  <path d="M354.742,251.756c0,11.364,9.245,20.609,20.609,20.609s20.609-9.245,20.609-20.609-9.245-20.61-20.609-20.61-20.609,9.245-20.609,20.61Z" fill="#231815"/>
  <path d="M231.498,125c0,11.364,9.245,20.609,20.609,20.609s20.609-9.245,20.609-20.609-9.246-20.609-20.609-20.609-20.609,9.245-20.609,20.609Z" fill="#231815"/>
  <path d="M163.205,180.979c5.505,0,10.681-2.144,14.573-6.036,8.036-8.035,8.036-21.111,0-29.146-3.892-3.893-9.068-6.036-14.573-6.036s-10.68,2.144-14.573,6.036c-8.036,8.035-8.036,21.111,0,29.146,3.893,3.893,9.068,6.036,14.573,6.036Z" fill="#231815"/>
  <path d="M125.351,227.634c-11.364,0-20.609,9.245-20.609,20.609s9.245,20.61,20.609,20.61,20.609-9.245,20.609-20.61-9.245-20.609-20.609-20.609Z" fill="#231815"/>
  <path d="M99.392,373.615c-28.841-34.687-44.547-77.942-44.547-123.615,0-51.753,20.154-100.407,56.749-137.002,36.594-36.594,85.25-56.748,137.001-56.748,45.673,0,88.928,15.706,123.615,44.547l17.739-17.74c-16.883-14.331-35.717-25.948-56.203-34.612-26.977-11.41-55.625-17.196-85.151-17.196s-58.174,5.785-85.151,17.196c-26.05,11.018-49.443,26.79-69.529,46.875-20.085,20.085-35.856,43.478-46.875,69.528-11.41,26.977-17.196,55.626-17.196,85.151s5.786,58.175,17.196,85.151c8.665,20.486,20.282,39.32,34.612,56.203l17.739-17.74Z" fill="#231815"/>
  <path d="M450.15,164.849c-6.848-16.19-15.534-31.351-25.948-45.332l-17.89,17.889c23.401,32.633,36.033,71.64,36.033,112.594,0,51.753-20.153,100.407-56.748,137.002-13.948,13.948-29.651,25.499-46.607,34.464-6.08-14.917-15.914-28.245-28.562-38.464-16.934-13.681-38.269-21.215-60.076-21.215-22.091,0-43.644,7.711-60.686,21.713-12.798,10.514-22.629,24.198-28.552,39.479-8.713-4.417-17.104-9.518-25.114-15.26l-17.888,17.888c13.981,10.414,29.143,19.1,45.333,25.948.226.096.454.183.68.278.003,0,.006.003.009.004.047.02.096.038.144.058,15.019,6.28,30.55,10.826,46.461,13.6.046.008.092.014.138.022,1.724.3,3.451.58,5.184.838.146.022.293.039.439.06,1.634.24,3.271.466,4.912.669.264.032.531.057.795.089,1.526.183,3.053.358,4.585.509.411.041.824.069,1.235.107,1.389.129,2.778.256,4.172.359.618.046,1.238.074,1.857.115,1.192.078,2.384.161,3.58.219.917.045,1.837.068,2.755.102.903.033,1.805.077,2.71.099,1.818.044,3.64.067,5.464.067.01,0,.021,0,.031,0h0c1.79,0,3.576-.023,5.358-.066.077-.002.154-.002.23-.004,1.725-.043,3.446-.108,5.165-.191.133-.006.267-.011.4-.018,1.669-.083,3.334-.188,4.997-.308.183-.013.367-.025.55-.039,1.619-.122,3.234-.263,4.847-.42.226-.022.452-.042.678-.065,1.57-.158,3.137-.334,4.701-.526.269-.033.539-.065.808-.099,1.523-.192,3.042-.402,4.559-.626.31-.046.62-.091.93-.138,1.473-.224,2.942-.464,4.409-.718.356-.062.712-.124,1.068-.188,1.418-.253,2.833-.521,4.245-.802.407-.081.813-.163,1.219-.247,1.36-.279,2.718-.571,4.073-.876.459-.104.917-.21,1.376-.316,1.297-.302,2.592-.613,3.884-.938.521-.131,1.04-.266,1.559-.401,1.228-.319,2.453-.646,3.676-.987.587-.164,1.173-.333,1.759-.502,1.04-.299,2.077-.605,3.113-.92.772-.235,1.543-.476,2.314-.72.792-.251,1.583-.507,2.374-.767,1.018-.335,2.035-.678,3.048-1.028.603-.208,1.203-.42,1.804-.633,1.208-.429,2.413-.869,3.615-1.32.439-.165.878-.332,1.316-.499,1.375-.526,2.744-1.066,4.11-1.621.288-.117.576-.234.863-.353.702-.289,1.408-.565,2.107-.861.906-.383,1.801-.786,2.7-1.18.006-.002.012-.005.018-.008,0,0,.001,0,.002,0,24.958-10.953,47.427-26.304,66.809-45.686,20.086-20.085,35.856-43.478,46.875-69.528,11.41-26.977,17.195-55.626,17.195-85.151s-5.785-58.175-17.195-85.151ZM283.396,440.89c-.161.029-.321.061-.481.089-1.01.18-2.022.345-3.035.509-.541.087-1.08.177-1.621.26-.816.125-1.634.24-2.452.355-.737.103-1.475.205-2.214.299-.705.091-1.412.176-2.119.259-.851.1-1.704.194-2.557.282-.638.066-1.276.131-1.915.191-.923.086-1.848.164-2.773.237-.594.047-1.188.096-1.782.137-.979.069-1.959.125-2.941.18-.554.031-1.106.065-1.661.091-1.068.05-2.139.085-3.21.117-.471.014-.94.036-1.412.046-1.54.036-3.083.056-4.628.056h-.001c-1.515,0-3.026-.021-4.535-.055-.474-.011-.946-.03-1.419-.044-1.041-.031-2.081-.066-3.119-.114-.553-.025-1.106-.057-1.659-.087-.958-.052-1.917-.109-2.873-.175-.581-.04-1.16-.083-1.74-.128-.925-.072-1.848-.152-2.77-.237-.597-.055-1.193-.109-1.789-.169-.888-.09-1.774-.191-2.659-.293-.625-.072-1.25-.139-1.874-.218-.771-.096-1.539-.207-2.307-.312-3.354-.462-6.693-1.002-10.01-1.639-.035-.007-.07-.013-.105-.019-9.367-1.804-18.582-4.304-27.607-7.492,4.337-11.599,11.724-21.996,21.406-29.95,12.582-10.337,28.498-16.029,44.816-16.029s31.684,5.416,44.365,15.661c9.573,7.734,16.966,17.865,21.427,29.194-10.663,3.976-21.599,6.976-32.747,8.998Z" fill="#231815"/>
  <path d="M450.025,61.851c-4.881-4.881-12.797-4.881-17.678,0L54.191,440.007c-4.882,4.882-4.882,12.796,0,17.678,2.44,2.44,5.64,3.661,8.839,3.661s6.398-1.221,8.839-3.661L450.025,79.529c4.882-4.882,4.882-12.796,0-17.678Z" fill="#231815"/>
</svg>