<?xml version="1.0" encoding="UTF-8"?>
<svg id="a" data-name="layer1" xmlns="http://www.w3.org/2000/svg" viewBox="0 0 500 500">
  <path d="M385.31,179.5H114.69c-39.074,0-70.75,31.676-70.75,70.75h0c0,39.074,31.676,70.75,70.75,70.75h270.621c39.074,0,70.75-31.676,70.75-70.75h0c0-39.074-31.676-70.75-70.75-70.75ZM385.242,296H115.388c-25.689,0-46.828-20.887-46.373-46.573.44-24.849,20.791-44.927,45.743-44.927h269.854c25.689,0,46.828,20.887,46.373,46.573-.44,24.849-20.791,44.927-45.743,44.927Z"/>
  <path d="M375,237.5H125.256c-6.395,0-12.264,5.197-12.722,11.575-.527,7.322,5.257,13.425,12.467,13.425h249.744c6.395,0,12.264-5.197,12.722-11.575.527-7.322-5.257-13.425-12.467-13.425Z"/>
</svg>