<?xml version="1.0" encoding="UTF-8"?>
<svg id="a" data-name="layer1" xmlns="http://www.w3.org/2000/svg" viewBox="0 0 1000 1000">
  <path d="M770.62,359H229.38c-78.15,0-141.5,63.35-141.5,141.5h0c0,78.15,63.35,141.5,141.5,141.5h541.24c78.15,0,141.5-63.35,141.5-141.5h0c0-78.15-63.35-141.5-141.5-141.5ZM770.48,592H230.78c-51.38,0-93.66-41.77-92.75-93.15s41.58-89.85,91.49-89.85h539.71c51.38,0,93.66,41.77,92.75,93.15s-41.58,89.85-91.49,89.85Z"/>
  <path d="M750,475H250.51c-12.79,0-24.53,10.39-25.44,23.15-1.05,14.64,10.51,26.85,24.93,26.85h499.49c12.79,0,24.53-10.39,25.44-23.15,1.05-14.64-10.51-26.85-24.93-26.85Z"/>
</svg>