<?xml version="1.0" encoding="UTF-8"?>
<svg id="c" data-name="レイヤー 4" xmlns="http://www.w3.org/2000/svg" viewBox="0 0 1000 1000">
  <path d="M782.9,854.99H266.65c-13.81,0-25-11.19-25-25V170.04c0-13.81,11.19-25,25-25h433.35c13.81,0,25,11.19,25,25v119.6l75.58,75.58c4.69,4.69,7.32,11.05,7.32,17.68v67.1c0,13.81-11.19,25-25,25h-57.9v37.06l75.58,75.58c4.69,4.69,7.32,11.05,7.32,17.68v224.67c0,13.81-11.19,25-25,25ZM291.65,804.99h466.25v-189.32l-75.58-75.58c-4.69-4.69-7.32-11.05-7.32-17.68v-72.42c0-13.81,11.19-25,25-25h57.9v-31.75l-75.58-75.58c-4.69-4.69-7.32-11.05-7.32-17.68v-104.96h-383.35v609.95Z"/>
</svg>