<?xml version="1.0" encoding="UTF-8"?>
<svg id="c" data-name="レイヤー 4" xmlns="http://www.w3.org/2000/svg" viewBox="0 0 500 500">
  <path d="M328.45,409.26h60c6.903,0,12.5-5.597,12.5-12.5V119.28c0-3.315-1.317-6.494-3.661-8.839l-60-60c-2.344-2.344-5.523-3.661-8.839-3.661H68.45c-6.903,0-12.5,5.597-12.5,12.5v337.48c0,6.903,5.597,12.5,12.5,12.5h260ZM315.95,384.26h-175v-115h175v115ZM145.232,73.862h140.59v86.654h-140.59v-86.654ZM115.95,256.76v127.5h-35V71.78h39.282v101.236c0,6.903,5.597,12.5,12.5,12.5h165.59c6.903,0,12.5-5.597,12.5-12.5v-101.236h12.45l52.678,52.678v259.803h-35v-127.5c0-6.903-5.597-12.5-12.5-12.5h-200c-6.903,0-12.5,5.597-12.5,12.5Z"/>
  <path d="M445.724,162.189h0c-6.904,0-12.5,5.596-12.5,12.5v267.704H101.373c-6.904,0-12.5,5.596-12.5,12.5s5.596,12.5,12.5,12.5h344.351c6.903,0,12.5-5.596,12.5-12.5V174.689c0-6.904-5.597-12.5-12.5-12.5Z"/>
</svg>