<?xml version="1.0" encoding="UTF-8"?>
<svg id="a" data-name="layer1" xmlns="http://www.w3.org/2000/svg" width="1000" height="1000" viewBox="0 0 1000 1000">
  <path d="M822.463,363.758c-17.629-41.68-42.862-79.109-75-111.246s-69.565-57.371-111.246-75c-43.162-18.256-89.001-27.513-136.242-27.513s-93.08,9.257-136.242,27.513c-41.681,17.629-79.108,42.863-111.246,75s-57.371,69.565-75,111.246c-18.257,43.163-27.513,89.001-27.513,136.242s9.256,93.079,27.513,136.242c17.629,41.68,42.862,79.109,75,111.246s69.565,57.371,111.246,75c43.162,18.256,89.001,27.513,136.242,27.513s93.08-9.257,136.242-27.513c41.681-17.629,79.108-42.863,111.246-75s57.371-69.565,75-111.246c18.257-43.163,27.513-89.001,27.513-136.242s-9.256-93.079-27.513-136.242ZM719.179,719.203c-58.551,58.551-136.399,90.797-219.203,90.797s-160.652-32.246-219.203-90.797-90.797-136.399-90.797-219.203,32.246-160.652,90.797-219.203,136.399-90.797,219.203-90.797,160.652,32.246,219.203,90.797,90.797,136.399,90.797,219.203-32.246,160.652-90.797,219.203Z" fill="#000" stroke-width="0"/>
  <path d="M499.976,627.025c-40.239,0-72.975,32.736-72.975,72.975s32.736,72.975,72.975,72.975,72.975-32.736,72.975-72.975-32.736-72.975-72.975-72.975ZM499.976,732.975c-18.182,0-32.975-14.792-32.975-32.975s14.793-32.975,32.975-32.975,32.975,14.792,32.975,32.975-14.793,32.975-32.975,32.975Z" fill="#000" stroke-width="0"/>
  <path d="M590.619,591.807c-28.453,28.453-28.453,74.749,0,103.202,14.227,14.227,32.914,21.34,51.602,21.34s37.374-7.113,51.601-21.34c28.453-28.453,28.453-74.749,0-103.202s-74.749-28.453-103.202,0ZM665.537,666.725c-12.857,12.856-33.776,12.856-46.634,0-12.856-12.857-12.856-33.777,0-46.634,6.429-6.428,14.873-9.643,23.317-9.643s16.888,3.214,23.316,9.643c12.857,12.857,12.857,33.777,0,46.634Z" fill="#000" stroke-width="0"/>
  <path d="M629.811,502.81c0,40.238,32.736,72.975,72.975,72.975s72.975-32.736,72.975-72.975-32.736-72.975-72.975-72.975-72.975,32.736-72.975,72.975ZM735.761,502.81c0,18.182-14.792,32.975-32.975,32.975s-32.975-14.792-32.975-32.975,14.792-32.975,32.975-32.975,32.975,14.792,32.975,32.975Z" fill="#000" stroke-width="0"/>
  <path d="M375.761,497.19c0-40.238-32.736-72.975-72.975-72.975s-72.975,32.736-72.975,72.975,32.736,72.975,72.975,72.975,72.975-32.736,72.975-72.975ZM269.811,497.19c0-18.182,14.792-32.975,32.975-32.975s32.975,14.792,32.975,32.975-14.792,32.975-32.975,32.975-32.975-14.792-32.975-32.975Z" fill="#000" stroke-width="0"/>
  <path d="M410.979,587.833c-13.783-13.783-32.108-21.374-51.601-21.374s-37.818,7.591-51.601,21.374c-28.453,28.453-28.453,74.749,0,103.202,13.783,13.783,32.108,21.374,51.601,21.374s37.817-7.591,51.601-21.374c28.448-28.454,28.451-74.751,0-103.202ZM382.694,662.751h0c-6.229,6.228-14.509,9.658-23.316,9.658s-17.089-3.43-23.317-9.658c-12.857-12.857-12.857-33.777,0-46.634,6.228-6.228,14.508-9.658,23.316-9.658s17.088,3.43,23.316,9.658c12.857,12.857,12.857,33.777,0,46.634Z" fill="#000" stroke-width="0"/>
</svg>