<?xml version="1.0" encoding="UTF-8"?>
<svg id="a" data-name="layer1" xmlns="http://www.w3.org/2000/svg" width="1000" height="1000" viewBox="0 0 1000 1000">
  <path d="M620.86,748.826v-423.203c0-27.532-14.497-51.667-36.265-65.223.28-.927.535-1.867.75-2.825l24.588-109.695c5.604-25-13.412-48.749-39.031-48.749h-141.825c-25.62,0-44.635,23.749-39.031,48.749l24.588,109.695c.215.958.47,1.897.75,2.825-21.768,13.556-36.265,37.691-36.265,65.223v423.203h-112.475v151.075h466.69v-151.075h-112.475ZM455.916,288.826h88.148c20.29,0,36.797,16.507,36.797,36.797v27.641h-161.741v-27.641c0-20.29,16.507-36.797,36.797-36.797ZM580.86,433.507v74.45h-161.741v-74.45h161.741ZM453.665,248.826l-24.588-109.695h0s141.825,0,141.825,0h0s-24.588,109.695-24.588,109.695h-90.398s-.003,0-.005,0h-2.246ZM419.119,588.2h161.741v160.626h-161.741v-160.626ZM693.335,859.901h-386.69v-71.075h386.69v71.075Z" fill="#000" stroke-width="0"/>
</svg>