<?xml version="1.0" encoding="UTF-8"?>
<svg id="a" data-name="layer1" xmlns="http://www.w3.org/2000/svg" width="1000" height="1000" viewBox="0 0 1000 1000">
  <path d="M716.696,386.696h-433.392c-62.576,0-113.304,50.728-113.304,113.304h0c0,62.577,50.728,113.304,113.304,113.304h433.392c62.576,0,113.304-50.728,113.304-113.304h0c0-62.577-50.728-113.304-113.304-113.304ZM716.696,573.304h-433.392c-40.42,0-73.304-32.884-73.304-73.304s32.884-73.304,73.304-73.304h433.392c40.42,0,73.304,32.884,73.304,73.304s-32.884,73.304-73.304,73.304Z" fill="#000" stroke-width="0"/>
  <path d="M700,479.998h-400c-11.046,0-20,8.954-20,20s8.954,20,20,20h400c11.046,0,20-8.954,20-20s-8.954-20-20-20Z" fill="#000" stroke-width="0"/>
</svg>