<?xml version="1.0" encoding="UTF-8"?>
<svg id="a" data-name="layer1" xmlns="http://www.w3.org/2000/svg" width="1000" height="1000" viewBox="0 0 1000 1000">
  <path d="M900,336.509H100c-11.046,0-20,8.954-20,20v286.981c0,8.975,5.911,16.569,14.052,19.101,1.879.584,3.876.899,5.948.899h800c2.071,0,4.069-.315,5.948-.899,8.141-2.532,14.052-10.126,14.052-19.101v-286.981c0-11.046-8.954-20-20-20ZM880,376.509v103.491h-110.254v-51.745c0-11.046-8.954-20-20-20h-105.036c-11.046,0-20,8.954-20,20v51.745h-52.193v-51.745c0-11.046-8.954-20-20-20h-105.036c-11.046,0-20,8.954-20,20v51.745h-52.192v-51.745c0-11.046-8.954-20-20-20h-105.036c-11.046,0-20,8.954-20,20v51.745h-110.254v-103.491h760ZM664.71,479.998v-31.743h65.036v31.743h-65.036ZM467.482,479.998v-31.743h65.036v31.743h-65.036ZM270.254,479.998v-31.743h65.036v31.743h-65.036ZM880,623.491H120v-103.491h760v103.491Z" fill="#000" stroke-width="0"/>
</svg>