<?xml version="1.0" encoding="UTF-8"?>
<svg id="c" data-name="レイヤー 4" xmlns="http://www.w3.org/2000/svg" viewBox="0 0 500 500">
  <path d="M254.82,57.5c3.59,0,7.99,1.74,11.22,4.44,2.39,2,3.58,4.05,3.75,5.27l-3.63,65.29h-52.7l-3.63-65.29c.17-1.22,1.36-3.27,3.75-5.27,3.23-2.7,7.63-4.44,11.22-4.44h30.18M254.82,32.5h-30c-19.33,0-40,15.67-40,35l5,90h100l5-90c0-19.33-20.67-35-40-35h0Z"/>
  <path d="M265,157.5v42h-50v-42h50M290,132.5h-100v92h100v-92h0Z"/>
  <path d="M265,224.5v43h-50v-43h50M290,199.5h-100v93h100v-93h0Z"/>
  <path d="M190,387.5h-.16.16M290,387.5v55h-100v-55h100M290,362.5h-100c-13.81,0-25,11.19-25,25v80h150v-80c0-13.81-11.19-25-25-25h0Z"/>
  <path d="M265,224.5v138h-50v-138h50M290,199.5h-100v188h100v-188h0Z"/>
</svg>