<?xml version="1.0" encoding="UTF-8"?>
<svg id="a" data-name="layer1" xmlns="http://www.w3.org/2000/svg" viewBox="0 0 500 500">
  <path d="M450.85,164.85c-11.02-26.05-26.79-49.44-46.87-69.53-20.09-20.09-43.48-35.86-69.53-46.88-26.98-11.41-55.63-17.2-85.15-17.2s-58.17,5.79-85.15,17.2c-26.05,11.02-49.44,26.79-69.53,46.88-20.09,20.09-35.86,43.48-46.88,69.53-11.41,26.98-17.2,55.63-17.2,85.15s5.79,58.17,17.2,85.15c11.02,26.05,26.79,49.44,46.88,69.53,20.09,20.09,43.48,35.86,69.53,46.88,26.98,11.41,55.63,17.2,85.15,17.2s58.17-5.79,85.15-17.2c26.05-11.02,49.44-26.79,69.53-46.88,20.09-20.09,35.86-43.48,46.87-69.53,11.41-26.98,17.2-55.63,17.2-85.15s-5.79-58.17-17.2-85.15ZM386.3,387c-36.59,36.59-85.25,56.75-137,56.75s-100.41-20.15-137-56.75c-36.59-36.59-56.75-85.25-56.75-137s20.15-100.41,56.75-137c36.59-36.59,85.25-56.75,137-56.75s100.41,20.15,137,56.75c36.59,36.59,56.75,85.25,56.75,137s-20.15,100.41-56.75,137Z"/>
  <path d="M249.3,395.61c-11.36,0-20.61-9.25-20.61-20.61s9.25-20.61,20.61-20.61,20.61,9.25,20.61,20.61-9.25,20.61-20.61,20.61Z"/>
  <path d="M391.41,284.87c0,11.36-9.25,20.61-20.61,20.61s-20.61-9.25-20.61-20.61,9.25-20.61,20.61-20.61,20.61,9.25,20.61,20.61Z"/>
  <path d="M131.43,305.47c-11.36,0-20.61-9.25-20.61-20.61s9.25-20.61,20.61-20.61,20.61,9.25,20.61,20.61-9.25,20.61-20.61,20.61Z"/>
</svg>