<?xml version="1.0" encoding="UTF-8"?>
<svg id="a" data-name="layer1" xmlns="http://www.w3.org/2000/svg" viewBox="0 0 1000 1000">
  <path d="M705.5,688.5h-400c-13.81,0-25-11.19-25-25v-138h-104.53c-8.33,0-16.32-3.87-21.03-10.74-7-10.18-5.5-23.49,2.88-31.85L487.82,153.61c4.69-4.68,11.05-7.31,17.68-7.31s12.99,2.63,17.68,7.31l330,329.3c8.38,8.36,9.88,21.67,2.88,31.85-4.71,6.86-12.71,10.74-21.03,10.74h-104.53s0,138,0,138c0,13.81-11.19,25-25,25ZM330.5,638.5h350v-138c0-13.81,11.19-25,25-25h69.64L505.5,206.43,235.86,475.5h69.64c13.81,0,25,11.19,25,25v138Z" stroke="#000" stroke-miterlimit="10"/>
  <path d="M700,855h-400c-13.81,0-25-11.19-25-25v-88c0-13.81,11.19-25,25-25h400c13.81,0,25,11.19,25,25v88c0,13.81-11.19,25-25,25ZM325,805h350v-38h-350v38Z"/>
</svg>