<?xml version="1.0" encoding="UTF-8"?>
<svg id="c" data-name="レイヤー 4" xmlns="http://www.w3.org/2000/svg" viewBox="0 0 500 500">
  <path d="M418.84,132.42l-60-60c-2.34-2.34-5.52-3.66-8.84-3.66H90c-6.9,0-12.5,5.6-12.5,12.5v337.48c0,6.9,5.6,12.5,12.5,12.5h320c6.9,0,12.5-5.6,12.5-12.5V141.26c0-3.32-1.32-6.49-3.66-8.84ZM307.37,95.84v86.65h-140.59v-86.65h140.59ZM162.5,406.24v-115h175v115h-175ZM397.5,406.24h-35v-127.5c0-6.9-5.6-12.5-12.5-12.5h-200c-6.9,0-12.5,5.6-12.5,12.5v127.5h-35V93.76h39.28v101.24c0,6.9,5.6,12.5,12.5,12.5h165.59c6.9,0,12.5-5.6,12.5-12.5v-101.24h12.45l52.68,52.68v259.8Z"/>
</svg>