<?xml version="1.0" encoding="UTF-8"?>
<svg id="c" data-name="レイヤー 4" xmlns="http://www.w3.org/2000/svg" viewBox="0 0 500 500">
  <path d="M307.5,362.5v-205.01l5-90c0-19.33-20.67-35-40-35h-30c-19.33,0-40,15.67-40,35l5,90v205.01c-13.81,0-25,11.19-25,25v80h150v-80c0-13.81-11.19-25-25-25ZM231.19,61.94c3.23-2.7,7.63-4.44,11.22-4.44h30c3.59,0,7.99,1.74,11.22,4.44,2.39,2,3.58,4.05,3.75,5.27l-3.63,65.29h-52.7l-3.63-65.29c.17-1.22,1.36-3.27,3.75-5.27ZM232.5,362.5v-205h50v205h-50ZM307.5,442.5h-100v-55h100v55Z"/>
</svg>