<?xml version="1.0" encoding="UTF-8"?>
<svg id="a" data-name="layer1" xmlns="http://www.w3.org/2000/svg" viewBox="0 0 1000 1000">
  <defs>
    <style>
      .d {
        stroke: #000;
        stroke-miterlimit: 10;
      }
    </style>
  </defs>
  <path class="d" d="M705.91,688.35h-400c-13.81,0-25-11.19-25-25v-138.35h-105c-10.11,0-19.23-6.09-23.1-15.43-3.87-9.34-1.73-20.09,5.42-27.25L488.23,152.32c4.69-4.69,11.05-7.32,17.68-7.32s12.99,2.63,17.68,7.32l330,330c7.15,7.15,9.29,17.9,5.42,27.25-3.87,9.34-12.99,15.43-23.1,15.43h-105v138.35c0,13.81-11.19,25-25,25ZM330.91,638.35h350v-138.35c0-13.81,11.19-25,25-25h69.64L505.91,205.36,236.27,475h69.64c13.81,0,25,11.19,25,25v138.35Z"/>
  <path d="M700,855h-400c-13.81,0-25-11.19-25-25v-88.38c0-13.81,11.19-25,25-25h400c13.81,0,25,11.19,25,25v88.38c0,13.81-11.19,25-25,25ZM325,805h350v-38.38h-350v38.38Z"/>
</svg>