<?xml version="1.0" encoding="UTF-8"?>
<svg id="c" data-name="レイヤー 4" xmlns="http://www.w3.org/2000/svg" viewBox="0 0 500 500">
  <path d="M149.803,275h200.138c6.395,0,12.264-5.197,12.722-11.575.527-7.322-5.257-13.425-12.467-13.425h-200.138c-6.395,0-12.264,5.197-12.722,11.575-.527,7.322,5.257,13.425,12.467,13.425Z"/>
  <path d="M414,178H84c-6.904,0-12.5,5.596-12.5,12.5v119.5c0,6.904,5.596,12.5,12.5,12.5h330c6.904,0,12.5-5.596,12.5-12.5v-119.5c0-6.904-5.596-12.5-12.5-12.5ZM401.5,297H96.5v-94.5h305v94.5Z"/>
</svg>