<?xml version="1.0" encoding="UTF-8"?>
<svg id="c" data-name="レイヤー 4" xmlns="http://www.w3.org/2000/svg" viewBox="0 0 500 500">
  <path d="M418.839,132.421l-60-60c-2.344-2.344-5.523-3.661-8.839-3.661H90c-6.903,0-12.5,5.597-12.5,12.5v337.48c0,6.903,5.597,12.5,12.5,12.5h320c6.903,0,12.5-5.597,12.5-12.5V141.26c0-3.315-1.317-6.494-3.661-8.839ZM307.373,95.842v86.654h-140.591v-86.654h140.591ZM162.5,406.24v-115h175v115h-175ZM397.5,406.24h-35v-127.5c0-6.903-5.597-12.5-12.5-12.5h-200c-6.903,0-12.5,5.597-12.5,12.5v127.5h-35V93.76h39.282v101.236c0,6.903,5.597,12.5,12.5,12.5h165.591c6.903,0,12.5-5.597,12.5-12.5v-101.236h12.449l52.678,52.678v259.803Z"/>
</svg>