<?xml version="1.0" encoding="UTF-8"?>
<svg id="a" data-name="layer1" xmlns="http://www.w3.org/2000/svg" viewBox="0 0 500 500">
  <path d="M451.54,164.85c-11.02-26.05-26.79-49.44-46.87-69.53-20.09-20.09-43.48-35.86-69.53-46.88-26.98-11.41-55.63-17.2-85.15-17.2s-58.17,5.79-85.15,17.2c-26.05,11.02-49.44,26.79-69.53,46.88-20.09,20.09-35.86,43.48-46.87,69.53-11.41,26.98-17.2,55.63-17.2,85.15s5.79,58.17,17.2,85.15c11.02,26.05,26.79,49.44,46.87,69.53,20.09,20.09,43.48,35.86,69.53,46.88,26.98,11.41,55.63,17.2,85.15,17.2s58.17-5.79,85.15-17.2c26.05-11.02,49.44-26.79,69.53-46.88,20.09-20.09,35.86-43.48,46.87-69.53,11.41-26.98,17.2-55.63,17.2-85.15s-5.79-58.17-17.2-85.15ZM386.99,387c-36.59,36.59-85.25,56.75-137,56.75s-100.41-20.15-137-56.75c-36.59-36.59-56.75-85.25-56.75-137s20.15-100.41,56.75-137c36.59-36.59,85.25-56.75,137-56.75s100.41,20.15,137,56.75c36.59,36.59,56.75,85.25,56.75,137s-20.15,100.41-56.75,137Z"/>
  <path d="M249.99,395.61c-11.36,0-20.61-9.25-20.61-20.61s9.25-20.61,20.61-20.61,20.61,9.25,20.61,20.61-9.25,20.61-20.61,20.61Z"/>
  <path d="M353.46,354.2c-8.04,8.04-21.11,8.04-29.15,0-8.04-8.04-8.04-21.11,0-29.15,4.02-4.02,9.3-6.03,14.57-6.03s10.55,2.01,14.57,6.03c8.04,8.04,8.04,21.11,0,29.15Z"/>
  <path d="M397.35,251.76c0,11.36-9.25,20.61-20.61,20.61s-20.61-9.25-20.61-20.61,9.25-20.61,20.61-20.61,20.61,9.25,20.61,20.61Z"/>
  <path d="M106.13,248.24c0-11.36,9.25-20.61,20.61-20.61s20.61,9.25,20.61,20.61-9.25,20.61-20.61,20.61-20.61-9.25-20.61-20.61Z"/>
  <path d="M176.69,351.72h0c-3.89,3.89-9.07,6.04-14.57,6.04s-10.68-2.14-14.57-6.04c-8.04-8.04-8.04-21.11,0-29.15,3.89-3.89,9.07-6.04,14.57-6.04s10.68,2.14,14.57,6.04c8.04,8.04,8.04,21.11,0,29.15Z"/>
</svg>