<?xml version="1.0" encoding="UTF-8"?>
<svg id="a" data-name="layer1" xmlns="http://www.w3.org/2000/svg" width="1000" height="1000" viewBox="0 0 1000 1000">
  <path d="M668.927,778.714h-337.854c-11.046,0-20-8.954-20-20v-73.658h-67.445c-11.046,0-20-8.954-20-20V241.286c0-11.046,8.954-20,20-20h512.744c11.046,0,20,8.954,20,20v423.77c0,11.046-8.954,20-20,20h-67.445v73.658c0,11.046-8.954,20-20,20ZM351.073,738.714h297.854v-73.658c0-11.046,8.955-20,20-20h67.445v-383.77h-472.744v383.77h67.445c11.045,0,20,8.954,20,20v73.658Z" fill="#000" stroke-width="0"/>
</svg>