<?xml version="1.0" encoding="UTF-8"?>
<svg id="c" data-name="レイヤー 4" xmlns="http://www.w3.org/2000/svg" viewBox="0 0 500 500">
  <path d="M307.5,362.502v-205.005l5-89.998c0-19.33-20.67-34.999-40-34.999h-30c-19.33,0-40,15.67-40,34.999l5,89.998v205.005c-13.807,0-25,11.193-25,24.999v79.998h150v-79.998c0-13.807-11.193-24.999-25-24.999ZM231.188,61.939c3.229-2.697,7.634-4.439,11.223-4.439h30c3.589,0,7.994,1.742,11.223,4.439,2.39,1.996,3.581,4.049,3.755,5.266l-3.627,65.294h-52.701l-3.627-65.294c.173-1.217,1.365-3.271,3.755-5.266ZM232.5,362.5v-205h50v205h-50ZM307.5,442.5h-100v-55h100v55Z"/>
</svg>