<?xml version="1.0" encoding="UTF-8"?>
<svg id="a" data-name="layer1" xmlns="http://www.w3.org/2000/svg" viewBox="0 0 500 500">
  <path d="M342,165.5h-184.5c-6.9,0-12.5,5.6-12.5,12.5v144.5c0,6.9,5.6,12.5,12.5,12.5h184.5c6.9,0,12.5-5.6,12.5-12.5v-144.5c0-6.9-5.6-12.5-12.5-12.5ZM329.5,310h-159.5v-119.5h159.5v119.5Z"/>
  <path d="M434.69,180l-57.34-115.07c-2.12-4.24-6.45-6.93-11.19-6.93h-232.3c-4.74,0-9.08,2.68-11.19,6.93l-57.34,115.07c-.86,1.73-1.31,3.64-1.31,5.58v244.42c0,6.9,5.6,12.5,12.5,12.5h347c6.9,0,12.5-5.6,12.5-12.5v-244.42c0-1.94-.45-3.85-1.31-5.58ZM411,417.5H89v-228.98l52.58-105.52h216.84l52.58,105.52v228.98Z"/>
</svg>