<?xml version="1.0" encoding="UTF-8"?>
<svg id="a" data-name="layer1" xmlns="http://www.w3.org/2000/svg" viewBox="0 0 500 500">
  <path d="M352.75,344.25h-200c-6.9,0-12.5-5.6-12.5-12.5v-69h-52.26c-4.16,0-8.16-1.94-10.52-5.37-3.5-5.09-2.75-11.74,1.44-15.93L243.91,76.81c2.34-2.34,5.52-3.65,8.84-3.65s6.49,1.31,8.84,3.65l165,164.65c4.19,4.18,4.94,10.83,1.44,15.93-2.36,3.43-6.35,5.37-10.52,5.37h-52.26s0,69,0,69c0,6.9-5.6,12.5-12.5,12.5ZM165.25,319.25h175v-69c0-6.9,5.6-12.5,12.5-12.5h34.82L252.75,103.21,117.93,237.75h34.82c6.9,0,12.5,5.6,12.5,12.5v69Z" stroke="#000" stroke-miterlimit="10" stroke-width=".5"/>
  <path d="M350,427.5h-200c-6.9,0-12.5-5.6-12.5-12.5v-44c0-6.9,5.6-12.5,12.5-12.5h200c6.9,0,12.5,5.6,12.5,12.5v44c0,6.9-5.6,12.5-12.5,12.5ZM162.5,402.5h175v-19h-175v19Z"/>
</svg>