<?xml version="1.0" encoding="UTF-8"?>
<svg id="c" data-name="レイヤー 4" xmlns="http://www.w3.org/2000/svg" viewBox="0 0 500 500">
  <path d="M328.45,409.26h60c6.9,0,12.5-5.6,12.5-12.5V119.28c0-3.32-1.32-6.49-3.66-8.84l-60-60c-2.34-2.34-5.52-3.66-8.84-3.66H68.45c-6.9,0-12.5,5.6-12.5,12.5v337.48c0,6.9,5.6,12.5,12.5,12.5h260ZM315.95,384.26h-175v-115h175v115ZM145.23,73.86h140.59v86.65h-140.59v-86.65ZM115.95,256.76v127.5h-35V71.78h39.28v101.24c0,6.9,5.6,12.5,12.5,12.5h165.59c6.9,0,12.5-5.6,12.5-12.5v-101.24h12.45l52.68,52.68v259.8h-35v-127.5c0-6.9-5.6-12.5-12.5-12.5h-200c-6.9,0-12.5,5.6-12.5,12.5Z"/>
  <path d="M445.72,162.19h0c-6.9,0-12.5,5.6-12.5,12.5v267.7H101.37c-6.9,0-12.5,5.6-12.5,12.5s5.6,12.5,12.5,12.5h344.35c6.9,0,12.5-5.6,12.5-12.5V174.69c0-6.9-5.6-12.5-12.5-12.5Z"/>
</svg>