<?xml version="1.0" encoding="UTF-8"?>
<svg id="c" xmlns="http://www.w3.org/2000/svg" version="1.1" viewBox="0 0 1000 1000">
  <!-- Generator: Adobe Illustrator 30.0.0, SVG Export Plug-In . SVG Version: 2.1.1 Build 123)  -->
  <path d="M842.2,658.5H153.8c-13.8,0-25-11.2-25-25v-267c0-13.8,11.2-25,25-25h688.3c13.8,0,25,11.2,25,25v267c0,13.8-11.2,25-25,25ZM178.8,608.5h638.3v-217H178.8v217Z"/>
  <path d="M720.9,577.8h-445.9c-13.8,0-25-11.2-25-25v-3.6c0-13.8,11.2-25,25-25h445.9c13.8,0,25,11.2,25,25v3.6c0,13.8-11.2,25-25,25Z"/>
</svg>