<?xml version="1.0" encoding="UTF-8"?>
<svg id="c" data-name="レイヤー 4" xmlns="http://www.w3.org/2000/svg" viewBox="0 0 1000 1000">
  <path d="M783,855H267c-13.81,0-25-11.19-25-25V170c0-13.81,11.19-25,25-25h433c13.81,0,25,11.19,25,25v119.64l75.67,75.58c4.69,4.69,7.33,11.05,7.33,17.69v67.09c0,13.81-11.19,25-25,25h-58v37.06l75.67,75.58c4.69,4.69,7.33,11.05,7.33,17.69v224.67c0,13.81-11.19,25-25,25ZM292,805h466v-189.32l-75.67-75.58c-4.69-4.69-7.33-11.05-7.33-17.69v-72.41c0-13.81,11.19-25,25-25h58v-31.75l-75.67-75.58c-4.69-4.69-7.33-11.05-7.33-17.69v-104.99h-383v610Z"/>
</svg>