<?xml version="1.0" encoding="UTF-8"?>
<svg id="c" data-name="レイヤー 4" xmlns="http://www.w3.org/2000/svg" viewBox="0 0 1000 1000">
  <path d="M615,725v-410.01l10-180c0-38.66-41.34-70-80-70h-60c-38.66,0-80,31.34-80,70l10,180v410.01c-27.61,0-50,22.39-50,50v160h300v-160c0-27.61-22.39-50-50-50ZM462.38,123.88c6.46-5.39,15.27-8.88,22.45-8.88h60c7.18,0,15.99,3.48,22.45,8.88,4.78,3.99,7.16,8.1,7.51,10.53l-7.25,130.59h-105.4l-7.25-130.59c.35-2.43,2.73-6.54,7.51-10.53ZM465,725v-410h100v410h-100ZM615,885h-200v-110h200v110Z"/>
</svg>