<?xml version="1.0" encoding="UTF-8"?>
<svg id="c" data-name="レイヤー 4" xmlns="http://www.w3.org/2000/svg" viewBox="0 0 500 500">
  <path d="M254.822,57.5c3.589,0,7.994,1.742,11.223,4.439,2.39,1.996,3.581,4.049,3.755,5.266l-3.627,65.294h-52.701l-3.627-65.294c.173-1.217,1.365-3.271,3.755-5.266,3.229-2.697,7.634-4.439,11.223-4.439h30.178M254.822,32.5h-30c-19.33,0-40,15.67-40,35l5,90h100l5-90c0-19.33-20.67-35-40-35h0Z"/>
  <path d="M265,157.5v42h-50v-42h50M290,132.5h-100v92h100v-92h0Z"/>
  <path d="M265,224.5v43h-50v-43h50M290,199.5h-100v93h100v-93h0Z"/>
  <path d="M190,387.5h-.157.157M290,387.5v55h-100v-55h100M290,362.5h-100c-13.807,0-25,11.193-25,25v80h150v-80c0-13.807-11.193-25-25-25h0Z"/>
  <path d="M265,224.5v138h-50v-138h50M290,199.5h-100v188h100v-188h0Z"/>
</svg>