<?xml version="1.0" encoding="UTF-8"?>
<svg id="c" data-name="レイヤー 4" xmlns="http://www.w3.org/2000/svg" viewBox="0 0 1000 1000">
  <path d="M509.64,114.99c7.18,0,15.99,3.48,22.45,8.88,4.78,3.99,7.16,8.1,7.51,10.53l-7.25,130.59h-105.4l-7.25-130.59c.35-2.43,2.73-6.54,7.51-10.53,6.46-5.39,15.27-8.88,22.45-8.88h60M509.64,64.99h-60c-38.66,0-80,31.34-80,70l10,180h200l10-180c0-38.66-41.34-70-80-70h0Z"/>
  <path d="M529.64,315.09v84h-100v-84h100M579.64,265.09h-200v184h200v-184h0Z"/>
  <path d="M529.64,448.99v86h-100v-86h100M579.64,398.99h-200v186h200v-186h0Z"/>
  <path d="M379.68,774.98h0,0M579.64,775.01v110h-200v-110h200M579.64,725.01h-200c-27.61,0-50,22.39-50,50v160h300v-160c0-27.61-22.39-50-50-50h0Z"/>
  <path d="M529.64,448.99v276h-100v-276h100M579.64,398.99h-200v376h200v-376h0Z"/>
</svg>