<?xml version="1.0" encoding="UTF-8"?>
<svg id="a" data-name="layer1" xmlns="http://www.w3.org/2000/svg" viewBox="0 0 1000 1000">
  <path d="M684.53,330.69h-369.06c-13.81,0-25,11.19-25,25v288.61c0,13.81,11.19,25,25,25h369.06c13.81,0,25-11.19,25-25v-288.61c0-13.81-11.19-25-25-25ZM659.53,619.31h-319.06v-238.61h319.06v238.61Z"/>
  <path d="M869.26,359.59l-114.65-230c-4.23-8.48-12.89-13.85-22.37-13.85h-464.46c-9.48,0-18.14,5.36-22.37,13.85l-114.65,230c-1.73,3.46-2.63,7.28-2.63,11.15v488.52c0,13.81,11.19,25,25,25h693.77c13.81,0,25-11.19,25-25v-488.52c0-3.87-.9-7.69-2.63-11.15ZM821.89,834.26H178.11v-457.63l105.13-210.89h433.52l105.13,210.89v457.63Z"/>
</svg>