<?xml version="1.0" encoding="UTF-8"?>
<svg id="a" data-name="layer1" xmlns="http://www.w3.org/2000/svg" width="1000" height="1000" viewBox="0 0 1000 1000">
  <path d="M647.623,364.556h-295.245c-11.046,0-20,8.954-20,20v230.889c0,11.046,8.954,20,20,20h295.245c11.046,0,20-8.954,20-20v-230.889c0-11.046-8.954-20-20-20ZM627.623,595.444h-255.245v-190.889h255.245v190.889Z" fill="#000" stroke-width="0"/>
  <path d="M795.408,387.672l-91.724-184.003c-3.384-6.787-10.315-11.077-17.899-11.077h-371.57c-7.584,0-14.516,4.29-17.899,11.077l-91.724,184.003c-1.381,2.772-2.101,5.826-2.101,8.923v390.813c0,11.046,8.954,20,20,20h555.018c11.046,0,20-8.954,20-20v-390.813c0-3.097-.719-6.151-2.101-8.923ZM757.509,767.408H242.491v-366.104l84.101-168.712h346.815l84.101,168.712v366.104Z" fill="#000" stroke-width="0"/>
</svg>