<?xml version="1.0" encoding="UTF-8"?>
<svg id="a" data-name="layer1" xmlns="http://www.w3.org/2000/svg" viewBox="0 0 1000 1000">
  <path d="M684,331h-369c-13.81,0-25,11.19-25,25v289c0,13.81,11.19,25,25,25h369c13.81,0,25-11.19,25-25v-289c0-13.81-11.19-25-25-25ZM659,620h-319v-239h319v239Z"/>
  <path d="M869.37,360l-114.69-230.15c-4.23-8.49-12.9-13.86-22.38-13.86h-464.61c-9.48,0-18.15,5.37-22.38,13.86l-114.69,230.15c-1.73,3.47-2.63,7.29-2.63,11.16v488.84c0,13.81,11.19,25,25,25h694c13.81,0,25-11.19,25-25v-488.84c0-3.87-.9-7.69-2.63-11.16ZM822,835H178v-457.96l105.16-211.04h433.67l105.16,211.04v457.96Z"/>
</svg>