<?xml version="1.0" encoding="UTF-8"?>
<svg id="a" data-name="layer1" xmlns="http://www.w3.org/2000/svg" viewBox="0 0 500 500">
  <path d="M385.31,179.5H114.69c-39.07,0-70.75,31.68-70.75,70.75h0c0,39.07,31.68,70.75,70.75,70.75h270.62c39.07,0,70.75-31.68,70.75-70.75h0c0-39.07-31.68-70.75-70.75-70.75ZM385.24,296H115.39c-25.69,0-46.83-20.89-46.37-46.57.44-24.85,20.79-44.93,45.74-44.93h269.85c25.69,0,46.83,20.89,46.37,46.57-.44,24.85-20.79,44.93-45.74,44.93Z"/>
  <path d="M375,237.5H125.26c-6.39,0-12.26,5.2-12.72,11.58-.53,7.32,5.26,13.42,12.47,13.42h249.74c6.39,0,12.26-5.2,12.72-11.58.53-7.32-5.26-13.42-12.47-13.42Z"/>
</svg>