<?xml version="1.0" encoding="UTF-8"?>
<svg id="a" data-name="layer1" xmlns="http://www.w3.org/2000/svg" viewBox="0 0 500 500">
  <path d="M342,165.5h-184.5c-6.904,0-12.5,5.596-12.5,12.5v144.5c0,6.904,5.596,12.5,12.5,12.5h184.5c6.904,0,12.5-5.596,12.5-12.5v-144.5c0-6.904-5.596-12.5-12.5-12.5ZM329.5,310h-159.5v-119.5h159.5v119.5Z"/>
  <path d="M434.687,180.001l-57.345-115.074c-2.116-4.245-6.449-6.928-11.191-6.928h-232.303c-4.741,0-9.075,2.683-11.191,6.928l-57.345,115.074c-.864,1.734-1.313,3.644-1.313,5.58v244.418c0,6.904,5.596,12.5,12.5,12.5h347c6.904,0,12.5-5.596,12.5-12.5v-244.418c0-1.937-.45-3.847-1.313-5.58ZM411,417.5H89v-228.979l52.582-105.521h216.836l52.582,105.521v228.979Z"/>
</svg>