<?xml version="1.0" encoding="UTF-8"?>
<svg id="a" data-name="layer1" xmlns="http://www.w3.org/2000/svg" width="1000" height="1000" viewBox="0 0 1000 1000">
  <path d="M821.082,363.758c-17.629-41.68-42.863-79.109-75-111.246-32.137-32.137-69.565-57.371-111.246-75-43.163-18.256-89.001-27.513-136.242-27.513s-93.08,9.257-136.242,27.513c-41.68,17.629-79.108,42.863-111.245,75-32.137,32.137-57.371,69.565-75,111.246-18.256,43.163-27.513,89.001-27.513,136.242s9.256,93.079,27.513,136.242c17.629,41.68,42.863,79.109,75,111.246,32.137,32.137,69.565,57.371,111.245,75,43.163,18.256,89.001,27.513,136.242,27.513s93.079-9.257,136.242-27.513c41.68-17.629,79.108-42.863,111.246-75,32.137-32.137,57.371-69.565,75-111.246,18.256-43.163,27.513-89.001,27.513-136.242s-9.257-93.079-27.513-136.242ZM717.798,719.203c-58.551,58.551-136.399,90.797-219.203,90.797s-160.652-32.246-219.203-90.797-90.797-136.399-90.797-219.203,32.246-160.652,90.797-219.203,136.399-90.797,219.203-90.797,160.652,32.246,219.203,90.797,90.797,136.399,90.797,219.203-32.246,160.652-90.797,219.203Z" fill="#000" stroke-width="0"/>
  <path d="M498.595,627.025c-40.239,0-72.975,32.736-72.975,72.975s32.736,72.975,72.975,72.975,72.975-32.736,72.975-72.975-32.736-72.975-72.975-72.975ZM498.595,732.975c-18.183,0-32.975-14.792-32.975-32.975s14.792-32.975,32.975-32.975,32.975,14.792,32.975,32.975-14.792,32.975-32.975,32.975Z" fill="#000" stroke-width="0"/>
  <path d="M620.021,555.785c0,40.238,32.736,72.975,72.975,72.975s72.975-32.736,72.975-72.975-32.736-72.975-72.975-72.975-72.975,32.736-72.975,72.975ZM725.971,555.785c0,18.182-14.792,32.975-32.975,32.975s-32.975-14.792-32.975-32.975,14.792-32.975,32.975-32.975,32.975,14.792,32.975,32.975Z" fill="#000" stroke-width="0"/>
  <path d="M310.011,482.81c-40.239,0-72.975,32.736-72.975,72.975s32.736,72.975,72.975,72.975,72.975-32.736,72.975-72.975-32.736-72.975-72.975-72.975ZM310.011,588.759c-18.183,0-32.975-14.792-32.975-32.975s14.792-32.975,32.975-32.975,32.975,14.792,32.975,32.975-14.792,32.975-32.975,32.975Z" fill="#000" stroke-width="0"/>
</svg>