<?xml version="1.0" encoding="UTF-8"?>
<svg id="a" data-name="layer1" xmlns="http://www.w3.org/2000/svg" viewBox="0 0 500 500">
  <path d="M451.542,164.849c-11.018-26.05-26.789-49.443-46.875-69.529-20.086-20.085-43.478-35.857-69.529-46.875-26.976-11.41-55.626-17.195-85.151-17.195s-58.175,5.786-85.151,17.195c-26.05,11.018-49.443,26.79-69.529,46.875-20.086,20.085-35.857,43.478-46.875,69.529-11.411,26.977-17.196,55.626-17.196,85.151s5.785,58.174,17.196,85.151c11.018,26.05,26.789,49.443,46.875,69.529,20.086,20.085,43.478,35.857,69.529,46.875,26.976,11.41,55.626,17.195,85.151,17.195s58.175-5.786,85.151-17.195c26.05-11.018,49.443-26.79,69.529-46.875,20.086-20.085,35.857-43.478,46.875-69.529,11.411-26.977,17.196-55.626,17.196-85.151s-5.785-58.174-17.196-85.151ZM386.99,387.002c-36.595,36.595-85.249,56.748-137.002,56.748s-100.407-20.154-137.002-56.748c-36.595-36.595-56.748-85.249-56.748-137.002s20.154-100.407,56.748-137.002c36.595-36.595,85.249-56.748,137.002-56.748s100.407,20.154,137.002,56.748c36.595,36.595,56.748,85.249,56.748,137.002s-20.154,100.407-56.748,137.002Z"/>
  <path d="M249.988,395.609c-11.364,0-20.609-9.245-20.609-20.609s9.246-20.609,20.609-20.609,20.609,9.245,20.609,20.609-9.246,20.609-20.609,20.609Z"/>
  <path d="M353.464,354.203c-8.036,8.035-21.11,8.035-29.146,0-8.035-8.036-8.035-21.111,0-29.146,4.018-4.018,9.296-6.027,14.573-6.027s10.555,2.009,14.573,6.027c8.036,8.036,8.036,21.111,0,29.146Z"/>
  <path d="M397.353,251.756c0,11.364-9.245,20.609-20.609,20.609s-20.609-9.245-20.609-20.609,9.245-20.609,20.609-20.609,20.609,9.245,20.609,20.609Z"/>
  <path d="M106.135,248.244c0-11.364,9.245-20.609,20.609-20.609s20.609,9.245,20.609,20.609-9.245,20.609-20.609,20.609-20.609-9.245-20.609-20.609Z"/>
  <path d="M176.687,351.72h0c-3.893,3.893-9.068,6.036-14.573,6.036s-10.681-2.144-14.573-6.036c-8.036-8.036-8.036-21.111,0-29.146,3.892-3.893,9.068-6.036,14.573-6.036s10.68,2.144,14.573,6.036c8.036,8.036,8.036,21.111,0,29.146Z"/>
</svg>