<?xml version="1.0" encoding="UTF-8"?>
<svg id="a" data-name="layer1" xmlns="http://www.w3.org/2000/svg" viewBox="0 0 500 500">
  <path d="M450.15,164.85c-11.02-26.05-26.79-49.44-46.88-69.53-20.09-20.09-43.48-35.86-69.53-46.88-26.98-11.41-55.63-17.2-85.15-17.2s-58.17,5.79-85.15,17.2c-26.05,11.02-49.44,26.79-69.53,46.88-20.09,20.09-35.86,43.48-46.87,69.53-11.41,26.98-17.2,55.63-17.2,85.15s5.79,58.17,17.2,85.15c11.02,26.05,26.79,49.44,46.87,69.53,20.09,20.09,43.48,35.86,69.53,46.88.23.1.45.18.68.28,0,0,0,0,0,0,.05.02.1.04.14.06,15.02,6.28,30.55,10.83,46.46,13.6.05,0,.09.01.14.02,1.72.3,3.45.58,5.18.84.15.02.29.04.44.06,1.63.24,3.27.47,4.91.67.26.03.53.06.8.09,1.53.18,3.05.36,4.58.51.41.04.82.07,1.23.11,1.39.13,2.78.26,4.17.36.62.05,1.24.07,1.86.11,1.19.08,2.38.16,3.58.22.92.05,1.84.07,2.76.1.9.03,1.81.08,2.71.1,1.82.04,3.64.07,5.46.07.01,0,.02,0,.03,0h0c1.79,0,3.58-.02,5.36-.07.08,0,.15,0,.23,0,1.72-.04,3.45-.11,5.16-.19.13,0,.27-.01.4-.02,1.67-.08,3.33-.19,5-.31.18-.01.37-.02.55-.04,1.62-.12,3.23-.26,4.85-.42.23-.02.45-.04.68-.07,1.57-.16,3.14-.33,4.7-.53.27-.03.54-.06.81-.1,1.52-.19,3.04-.4,4.56-.63.31-.05.62-.09.93-.14,1.47-.22,2.94-.46,4.41-.72.36-.06.71-.12,1.07-.19,1.42-.25,2.83-.52,4.24-.8.41-.08.81-.16,1.22-.25,1.36-.28,2.72-.57,4.07-.88.46-.1.92-.21,1.38-.32,1.3-.3,2.59-.61,3.88-.94.52-.13,1.04-.27,1.56-.4,1.23-.32,2.45-.65,3.68-.99.59-.16,1.17-.33,1.76-.5,1.04-.3,2.08-.61,3.11-.92.77-.23,1.54-.48,2.31-.72.79-.25,1.58-.51,2.37-.77,1.02-.33,2.03-.68,3.05-1.03.6-.21,1.2-.42,1.8-.63,1.21-.43,2.41-.87,3.61-1.32.44-.16.88-.33,1.32-.5,1.37-.53,2.74-1.07,4.11-1.62.29-.12.58-.23.86-.35.7-.29,1.41-.56,2.11-.86.91-.38,1.8-.79,2.7-1.18,0,0,.01,0,.02,0h0c24.96-10.95,47.43-26.31,66.81-45.69,20.09-20.09,35.86-43.48,46.88-69.53,11.41-26.98,17.2-55.63,17.2-85.15s-5.79-58.17-17.2-85.15ZM244.06,443.94c-.47-.01-.95-.03-1.42-.04-1.04-.03-2.08-.07-3.12-.11-.55-.03-1.11-.06-1.66-.09-.96-.05-1.92-.11-2.87-.18-.58-.04-1.16-.08-1.74-.13-.92-.07-1.85-.15-2.77-.24-.6-.06-1.19-.11-1.79-.17-.89-.09-1.77-.19-2.66-.29-.62-.07-1.25-.14-1.87-.22-.77-.1-1.54-.21-2.31-.31-3.35-.46-6.69-1-10.01-1.64-.03,0-.07-.01-.1-.02-9.37-1.8-18.58-4.3-27.61-7.49,4.34-11.6,11.72-22,21.41-29.95,12.58-10.34,28.5-16.03,44.82-16.03s31.68,5.42,44.36,15.66c9.57,7.73,16.97,17.87,21.43,29.19-10.66,3.98-21.6,6.98-32.75,9-.16.03-.32.06-.48.09-1.01.18-2.02.34-3.04.51-.54.09-1.08.18-1.62.26-.82.13-1.63.24-2.45.36-.74.1-1.47.2-2.21.3-.71.09-1.41.18-2.12.26-.85.1-1.7.19-2.56.28-.64.07-1.28.13-1.91.19-.92.09-1.85.16-2.77.24-.59.05-1.19.1-1.78.14-.98.07-1.96.13-2.94.18-.55.03-1.11.07-1.66.09-1.07.05-2.14.08-3.21.12-.47.01-.94.04-1.41.05-1.54.04-3.08.06-4.63.06h0c-1.51,0-3.03-.02-4.54-.06ZM385.6,387c-13.95,13.95-29.65,25.5-46.61,34.46-6.08-14.92-15.91-28.24-28.56-38.46-16.93-13.68-38.27-21.22-60.08-21.22s-43.64,7.71-60.69,21.71c-12.8,10.51-22.63,24.2-28.55,39.48-18.07-9.16-34.78-21.23-49.52-35.98-36.59-36.59-56.75-85.25-56.75-137s20.15-100.41,56.75-137c36.59-36.59,85.25-56.75,137-56.75s100.41,20.15,137,56.75c36.59,36.59,56.75,85.25,56.75,137s-20.15,100.41-56.75,137Z"/>
  <path d="M395.96,251.76c0,11.36-9.24,20.61-20.61,20.61s-20.61-9.25-20.61-20.61,9.24-20.61,20.61-20.61,20.61,9.25,20.61,20.61Z"/>
  <path d="M325.41,148.28c3.89-3.89,9.07-6.04,14.57-6.04s10.68,2.14,14.57,6.04c8.04,8.04,8.04,21.11,0,29.15-3.89,3.89-9.07,6.04-14.57,6.04s-10.68-2.14-14.57-6.04c-8.04-8.04-8.04-21.11,0-29.15Z"/>
  <path d="M252.11,145.61c-11.36,0-20.61-9.25-20.61-20.61s9.25-20.61,20.61-20.61,20.61,9.25,20.61,20.61-9.25,20.61-20.61,20.61Z"/>
  <path d="M177.78,174.94c-3.89,3.89-9.07,6.04-14.57,6.04s-10.68-2.14-14.57-6.04c-8.04-8.04-8.04-21.11,0-29.15,3.89-3.89,9.07-6.04,14.57-6.04s10.68,2.14,14.57,6.04c8.04,8.04,8.04,21.11,0,29.15Z"/>
  <path d="M125.35,268.85c-11.36,0-20.61-9.25-20.61-20.61s9.24-20.61,20.61-20.61,20.61,9.25,20.61,20.61-9.24,20.61-20.61,20.61Z"/>
</svg>