<?xml version="1.0" encoding="UTF-8"?>
<svg id="c" data-name="レイヤー 4" xmlns="http://www.w3.org/2000/svg" viewBox="0 0 500 500">
  <path d="M391.5,427.5H133.5c-6.9,0-12.5-5.6-12.5-12.5V85c0-6.9,5.6-12.5,12.5-12.5h216.5c6.9,0,12.5,5.6,12.5,12.5v59.82l37.83,37.79c2.35,2.34,3.67,5.53,3.67,8.84v33.55c0,6.9-5.6,12.5-12.5,12.5h-29v18.53l37.83,37.79c2.35,2.34,3.67,5.53,3.67,8.84v112.34c0,6.9-5.6,12.5-12.5,12.5ZM146,402.5h233v-94.66l-37.83-37.79c-2.35-2.34-3.67-5.53-3.67-8.84v-36.2c0-6.9,5.6-12.5,12.5-12.5h29v-15.87l-37.83-37.79c-2.35-2.34-3.67-5.53-3.67-8.84v-52.49h-191.5v305Z"/>
</svg>