<?xml version="1.0" encoding="UTF-8"?>
<svg id="a" data-name="layer1" xmlns="http://www.w3.org/2000/svg" viewBox="0 0 500 500">
  <path d="M425,62.5h-179.62c-6.9,0-12.5,5.6-12.5,12.5v116.38h-82.52c-6.9,0-12.5,5.6-12.5,12.5v116.35h-62.86c-6.9,0-12.5,5.6-12.5,12.5v92.27c0,6.9,5.6,12.5,12.5,12.5h92.27c6.9,0,12.5-5.6,12.5-12.5v-62.86h116.35c6.9,0,12.5-5.6,12.5-12.5v-82.53h116.38c6.9,0,12.5-5.6,12.5-12.5V75c0-6.9-5.6-12.5-12.5-12.5ZM154.77,362.14v50.36h-67.27v-67.27h67.27v16.91ZM283.62,337.14h-120.76v-120.76h55.85v52.41c0,6.9,5.6,12.5,12.5,12.5h52.41v55.85ZM283.62,256.29h-39.91v-39.91h39.91v39.91ZM412.5,242.12h-103.88v-38.24c0-6.9-5.6-12.5-12.5-12.5h-38.24v-103.88h154.62v154.62Z"/>
</svg>