<?xml version="1.0" encoding="UTF-8"?>
<svg id="a" data-name="layer1" xmlns="http://www.w3.org/2000/svg" viewBox="0 0 500 500">
  <path d="M439.987,361.76c.002-.088.013-.172.013-.26v-215.308c0-7.315-6.009-12.52-12.532-12.52-2.163,0-4.382.572-6.458,1.83l-171.26,103.734-171.26-103.734c-2.076-1.258-4.295-1.83-6.458-1.83-6.522,0-12.532,5.205-12.532,12.52v215.308c0,.088.011.172.013.259.005.163.013.325.025.488.115,1.935.66,3.752,1.557,5.351,1.827,3.351,5.155,5.905,9.606,6.333.013.001.025.003.037.005.383.036.773.056,1.172.059.033,0,.064.005.097.005h355.486c.033,0,.064-.005.097-.005.399-.003.79-.023,1.172-.059.013-.001.025-.003.037-.005,4.451-.428,7.779-2.982,9.606-6.333.897-1.6,1.442-3.417,1.557-5.352.011-.162.019-.324.025-.486ZM415,168.417v170.936l-141.022-85.468,141.022-85.468ZM226.022,253.886l-141.022,85.468v-170.936l141.022,85.468ZM117.124,349l132.876-80.531,132.876,80.531H117.124Z"/>
</svg>