<?xml version="1.0" encoding="UTF-8"?>
<svg id="a" data-name="layer1" xmlns="http://www.w3.org/2000/svg" viewBox="0 0 500 500">
  <path d="M399.757,85.374c-13.678-13.678-31.863-21.21-51.206-21.21s-37.528,7.532-51.206,21.21l-84.734,84.734c-13.678,13.678-21.21,31.863-21.21,51.206s7.533,37.528,21.21,51.206c2.441,2.44,5.64,3.661,8.839,3.661s6.398-1.221,8.839-3.661c4.881-4.882,4.881-12.796,0-17.678-8.956-8.956-13.888-20.862-13.888-33.528s4.932-24.572,13.888-33.528l84.734-84.734c8.956-8.956,20.863-13.888,33.528-13.888s24.573,4.933,33.529,13.889c8.956,8.955,13.888,20.862,13.888,33.528s-4.932,24.571-13.888,33.527l-42.216,42.216c-4.881,4.882-4.881,12.796,0,17.678,4.882,4.881,12.796,4.881,17.678,0l42.216-42.216c28.235-28.234,28.234-74.177,0-102.412Z"/>
  <path d="M269.711,227.479c-4.881,4.882-4.881,12.796,0,17.678,8.956,8.956,13.888,20.863,13.888,33.528s-4.932,24.572-13.888,33.528l-84.734,84.734c-18.487,18.487-48.569,18.489-67.057,0-18.487-18.488-18.487-48.569,0-67.057l42.216-42.216c4.881-4.882,4.881-12.796,0-17.678-4.882-4.881-12.796-4.881-17.678,0l-42.216,42.216c-28.235,28.234-28.234,74.177,0,102.412,13.678,13.678,31.863,21.21,51.206,21.21s37.528-7.532,51.206-21.21l84.734-84.734c13.678-13.678,21.21-31.862,21.21-51.206s-7.533-37.528-21.21-51.206c-4.882-4.881-12.796-4.881-17.678,0Z"/>
</svg>