<?xml version="1.0" encoding="UTF-8"?>
<svg id="a" data-name="layer1" xmlns="http://www.w3.org/2000/svg" viewBox="0 0 500 500">
  <path d="M425,87.5H75c-20.678,0-37.5,16.822-37.5,37.5v164.173c0,20.678,16.822,37.5,37.5,37.5h37.847v87.5c0,5.056,3.046,9.613,7.717,11.549,1.546.641,3.17.951,4.78.951,3.253,0,6.45-1.27,8.842-3.661l96.339-96.339h194.476c20.678,0,37.5-16.822,37.5-37.5V125c0-20.678-16.822-37.5-37.5-37.5ZM437.5,289.173c0,6.893-5.607,12.5-12.5,12.5h-199.653c-3.315,0-6.494,1.317-8.839,3.661l-78.661,78.661v-69.822c0-6.903-5.597-12.5-12.5-12.5h-50.347c-6.893,0-12.5-5.607-12.5-12.5V125c0-6.893,5.607-12.5,12.5-12.5h350c6.893,0,12.5,5.607,12.5,12.5v164.173Z"/>
  <circle cx="252.835" cy="203.506" r="25"/>
  <circle cx="361.889" cy="203.506" r="25"/>
  <circle cx="143.781" cy="203.506" r="25"/>
</svg>