<?xml version="1.0" encoding="UTF-8"?>
<svg id="a" data-name="layer1" xmlns="http://www.w3.org/2000/svg" viewBox="0 0 500 500">
  <path d="M155.278,227.322c25.506,10.021,59.146,15.539,94.722,15.539s69.216-5.519,94.722-15.539c29.198-11.47,45.278-28.148,45.278-46.961s-16.08-35.491-45.278-46.961c-22.442-8.816-51.182-14.144-81.995-15.297v-17.823c0-6.903-5.698-12.5-12.727-12.5s-12.727,5.597-12.727,12.5v17.823c-30.813,1.154-59.553,6.481-81.995,15.297-29.198,11.47-45.278,28.148-45.278,46.961s16.08,35.491,45.278,46.961ZM164.731,156.612c19.587-7.695,44.985-12.384,72.542-13.491v21.735c0,6.903,5.698,12.5,12.727,12.5s12.727-5.597,12.727-12.5v-21.735c27.556,1.107,52.954,5.796,72.542,13.491,17.785,6.986,29.277,16.309,29.277,23.749s-11.492,16.763-29.277,23.749c-22.571,8.867-52.854,13.751-85.269,13.751s-62.698-4.884-85.269-13.751c-17.785-6.986-29.277-16.309-29.277-23.749s11.492-16.763,29.277-23.749Z"/>
  <path d="M377.273,228.25c-7.029,0-12.727,5.597-12.727,12.5,0,7.44-11.492,16.763-29.277,23.749-22.571,8.867-52.854,13.751-85.269,13.751s-62.698-4.884-85.269-13.751c-17.785-6.986-29.277-16.309-29.277-23.749,0-6.903-5.698-12.5-12.727-12.5s-12.727,5.597-12.727,12.5c0,18.812,16.08,35.491,45.278,46.961,22.455,8.822,51.218,14.149,82.053,15.299-.034.371-.058.745-.058,1.124v109.759c0,6.903,5.698,12.5,12.727,12.5s12.727-5.597,12.727-12.5v-109.759c0-.379-.024-.753-.058-1.124,30.835-1.149,59.597-6.477,82.053-15.299,29.198-11.47,45.278-28.148,45.278-46.961,0-6.903-5.698-12.5-12.727-12.5Z"/>
</svg>