<?xml version="1.0" encoding="UTF-8"?>
<svg id="c" data-name="レイヤー 4" xmlns="http://www.w3.org/2000/svg" viewBox="0 0 500 500">
  <path d="M441.86,400.46l-59.04-334.83c-1.2-6.8-7.68-11.33-14.48-10.14l-87.7,15.46c-2.24-2.14-5.27-3.45-8.61-3.45H72.03c-6.9,0-12.5,5.6-12.5,12.5v340c0,6.9,5.6,12.5,12.5,12.5h200c6.9,0,12.5-5.6,12.5-12.5v-191.96l34.23,194.13c1.07,6.06,6.34,10.33,12.3,10.33.72,0,1.45-.06,2.19-.19l98.48-17.36c3.26-.58,6.17-2.42,8.07-5.14s2.65-6.08,2.07-9.34ZM84.53,92.5h89.17v315h-89.17V92.5ZM259.53,407.5h-60.83V92.5h60.83v315ZM341.21,405.52l-54.7-310.21,73.86-13.02,54.7,310.21-73.86,13.02Z"/>
</svg>