<?xml version="1.0" encoding="UTF-8"?>
<svg id="a" data-name="layer1" xmlns="http://www.w3.org/2000/svg" viewBox="0 0 500 500">
  <path d="M150.5,116.5v69h-69v-69h69M169.26,91.5H62.75c-3.45,0-6.25,2.8-6.25,6.25v106.5c0,3.45,2.8,6.25,6.25,6.25h106.5c3.45,0,6.25-2.8,6.25-6.25v-106.51c0-3.44-2.79-6.24-6.24-6.24h0Z"/>
  <path d="M248.2,216c24.7,0,44.8,20.1,44.8,44.8v5.3c0,24.8-20.1,44.9-44.9,44.9h-5.2c-24.8,0-44.9-20.1-44.9-44.9v-5.2c0-24.8,20.1-44.9,44.9-44.9h5.1M248.2,191h-5.3c-38.6,0-69.9,31.29-69.9,69.9v5.2c0,38.6,31.29,69.9,69.9,69.9h5.2c38.6,0,69.9-31.29,69.9-69.9v-5.3c0-38.55-31.25-69.8-69.8-69.8h0Z"/>
  <path d="M390,286h-.23.23M373.63,319.7l33.16,64.3h-64.3l31.15-64.3M373.11,271.81c-2.33,0-4.66,1.23-5.84,3.66l-60.16,124.2c-2.09,4.31,1.05,9.32,5.84,9.32h124.2c4.86,0,8-5.15,5.77-9.47l-64.04-124.2c-1.21-2.35-3.49-3.52-5.77-3.52h0Z"/>
</svg>