<?xml version="1.0" encoding="UTF-8"?>
<svg id="a" data-name="layer1" xmlns="http://www.w3.org/2000/svg" viewBox="0 0 500 500">
  <path d="M445.4,233.95h-87.43V103.08c0-6.9-5.6-12.5-12.5-12.5s-12.5,5.6-12.5,12.5v117.88l-165-127.76c-3.77-2.92-8.87-3.44-13.16-1.34-4.28,2.1-7,6.45-7,11.22v134.42H54.6c-6.9,0-12.5,5.6-12.5,12.5s5.6,12.5,12.5,12.5h93.22v134.42c0,4.82,2.77,9.21,7.13,11.29,1.71.81,3.55,1.21,5.37,1.21,2.82,0,5.61-.95,7.89-2.8l164.77-133.91v124.2c0,6.9,5.6,12.5,12.5,12.5s12.5-5.6,12.5-12.5v-137.97h87.43c6.9,0,12.5-5.6,12.5-12.5s-5.6-12.5-12.5-12.5ZM172.82,370.65v-242.08l152.54,118.12-152.54,123.97Z"/>
</svg>