<?xml version="1.0" encoding="UTF-8"?>
<svg id="a" data-name="layer1" xmlns="http://www.w3.org/2000/svg" viewBox="0 0 500 500">
  <path d="M425.535,156.543c3.381-3.644,4.282-8.945,2.294-13.501-1.987-4.556-6.486-7.502-11.457-7.502h-112.299l28.017-52.163c3.267-6.082.984-13.66-5.098-16.927-6.08-3.266-13.66-.984-16.927,5.098l-34.37,63.992H83.627c-4.971,0-9.47,2.946-11.458,7.502-1.987,4.556-1.086,9.857,2.295,13.501l162.908,175.539v77.958h-49c-6.903,0-12.5,5.596-12.5,12.5s5.597,12.5,12.5,12.5h123.5c6.903,0,12.5-5.596,12.5-12.5s-5.597-12.5-12.5-12.5h-49.5v-77.682l163.163-175.815ZM262.268,160.54l-17.456,32.5h-65.94c-6.903,0-12.5,5.596-12.5,12.5s5.597,12.5,12.5,12.5h52.512l-9.275,17.268c-3.267,6.082-.984,13.66,5.098,16.927,1.882,1.011,3.907,1.49,5.904,1.49,4.455,0,8.767-2.388,11.023-6.588l15.628-29.097h61.11c6.903,0,12.5-5.596,12.5-12.5s-5.597-12.5-12.5-12.5h-47.683l17.456-32.5h97.073l-137.719,148.398L112.281,160.54h149.987Z"/>
</svg>