<?xml version="1.0" encoding="UTF-8"?>
<svg id="a" data-name="layer1" xmlns="http://www.w3.org/2000/svg" viewBox="0 0 500 500">
  <path d="M311.683,226.876c26.159-19.089,43.191-49.971,43.191-84.761,0-57.828-47.046-104.874-104.874-104.874s-104.874,47.046-104.874,104.874c0,34.79,17.032,65.672,43.191,84.761-38.025,12.676-65.517,48.603-65.517,90.833v132.549c0,6.903,5.597,12.5,12.5,12.5h229.398c6.903,0,12.5-5.597,12.5-12.5v-132.549c0-42.23-27.492-78.157-65.517-90.833ZM170.126,142.116c0-44.043,35.831-79.874,79.874-79.874s79.874,35.831,79.874,79.874-35.831,79.874-79.874,79.874-79.874-35.831-79.874-79.874ZM352.199,437.758h-204.398v-120.049c0-38.995,31.725-70.72,70.72-70.72h62.96c38.994,0,70.719,31.725,70.719,70.72v120.049Z"/>
</svg>