<?xml version="1.0" encoding="UTF-8"?>
<svg id="c" data-name="レイヤー 4" xmlns="http://www.w3.org/2000/svg" viewBox="0 0 500 500">
  <path d="M376.546,190.618c0-24.537-19.962-44.5-44.5-44.5H76.046c-24.538,0-44.5,19.963-44.5,44.5s19.962,44.5,44.5,44.5h256c24.538,0,44.5-19.963,44.5-44.5ZM56.546,190.618c0-10.752,8.748-19.5,19.5-19.5h256c10.752,0,19.5,8.748,19.5,19.5s-8.748,19.5-19.5,19.5H76.046c-10.752,0-19.5-8.748-19.5-19.5Z"/>
  <path d="M423.954,264.882h-140.905c-24.538,0-44.5,19.963-44.5,44.5s19.962,44.5,44.5,44.5h140.905c24.538,0,44.5-19.963,44.5-44.5s-19.962-44.5-44.5-44.5ZM423.954,328.882h-140.905c-10.752,0-19.5-8.748-19.5-19.5s8.748-19.5,19.5-19.5h140.905c10.752,0,19.5,8.748,19.5,19.5s-8.748,19.5-19.5,19.5Z"/>
</svg>