<?xml version="1.0" encoding="UTF-8"?>
<svg id="a" data-name="layer1" xmlns="http://www.w3.org/2000/svg" viewBox="0 0 1000 1000">
  <path d="M500.64,902.83c-18.44,0-37.01-1.26-55.19-3.75-24.69-3.38-43.31-24.69-43.31-49.56v-60.92c-12.77-4.33-25.23-9.5-37.3-15.49l-42.9,42.9c-17.62,17.63-45.89,19.49-65.76,4.35-29.06-22.16-54.99-48.16-77.09-77.26-15.07-19.85-13.18-48.09,4.41-65.67l43.01-43.01c-5.91-12.02-11.03-24.42-15.31-37.12h-60.8c-24.91,0-46.22-18.65-49.57-43.37-2.43-17.97-3.67-36.33-3.67-54.57s1.23-36.6,3.67-54.57c3.35-24.73,24.66-43.37,49.57-43.37h61.18c4.29-12.57,9.4-24.85,15.3-36.75l-43.38-43.37c-17.59-17.59-19.48-45.82-4.41-65.67,22.09-29.11,48.03-55.1,77.08-77.26,19.87-15.15,48.14-13.28,65.76,4.34l43.63,43.63c11.84-5.83,24.06-10.88,36.57-15.12v-62.02c0-24.87,18.62-46.17,43.31-49.56,18.18-2.49,36.75-3.75,55.19-3.75s36.19,1.21,53.95,3.58c24.76,3.31,43.44,24.62,43.44,49.58v62.17c12.51,4.24,24.73,9.29,36.57,15.12l44.11-44.11c17.59-17.59,45.82-19.48,65.68-4.41,29.11,22.1,55.1,48.03,77.26,77.08,15.15,19.86,13.28,48.14-4.34,65.76l-44.01,44c5.9,11.9,11.01,24.18,15.3,36.75h62.29c24.91,0,46.22,18.65,49.57,43.37,2.43,17.97,3.67,36.33,3.67,54.57s-1.23,36.6-3.67,54.57c-3.35,24.73-24.66,43.37-49.57,43.37h-61.91c-4.28,12.7-9.39,25.1-15.31,37.12l43.64,43.64c17.63,17.63,19.49,45.9,4.34,65.76-22.16,29.05-48.15,54.99-77.26,77.08-19.85,15.07-48.09,13.18-65.67-4.41l-43.37-43.37c-12.07,5.98-24.54,11.16-37.3,15.49v61.07c0,24.95-18.67,46.26-43.44,49.58-17.77,2.38-35.92,3.58-53.95,3.58ZM356.17,711.08l16.62,9.6c19.08,11.03,39.56,19.53,60.86,25.27l18.5,4.98v98.59s.05.01.1.02c15.93,2.18,32.22,3.29,48.4,3.29s31.75-1.06,47.32-3.14l.07-79.6v-19.16l18.5-4.98c21.3-5.74,41.77-14.24,60.86-25.27l16.62-9.6,70.06,70.06s.05-.03.09-.06c25.52-19.37,48.31-42.11,67.74-67.58.03-.04.05-.07.04-.12l-70.23-70.21,9.53-16.59c10.93-19.04,19.35-39.47,25.03-60.72l4.96-18.55h99.67s.02,0,.02,0c0,0,0-.04,0-.08,2.13-15.75,3.21-31.86,3.21-47.86s-1.08-32.11-3.21-47.86c0-.04,0-.07-.05-.1h-99.85s-5.01-18.43-5.01-18.43c-5.74-21.12-14.19-41.42-25.13-60.35l-9.6-16.62,70.69-70.69s-.03-.05-.06-.08c-19.43-25.47-42.22-48.21-67.74-67.58-.03-.03-.08-.05-.13-.04l-70.68,70.71-16.59-9.53c-18.89-10.84-39.15-19.22-60.22-24.89l-18.5-4.98v-99.85c-15.65-2.1-31.57-3.16-47.39-3.16s-32.47,1.11-48.4,3.29c-.04,0-.08.01-.11.06l.02,99.66-18.5,4.98c-21.07,5.67-41.33,14.05-60.22,24.89l-16.59,9.53-70.25-70.24s-.05.03-.09.06c-25.47,19.43-48.21,42.22-67.58,67.73-.03.04-.06.08-.04.13l70.05,70.02-9.6,16.62c-10.94,18.93-19.4,39.23-25.13,60.35l-5.01,18.45h-98.78s-.01.04-.02.08c-2.13,15.76-3.21,31.86-3.21,47.86s1.08,32.11,3.21,47.86c0,.04,0,.07.05.1h98.53s4.96,18.53,4.96,18.53c5.68,21.25,14.1,41.68,25.03,60.72l9.53,16.59-69.62,69.62s.03.05.06.09c19.37,25.52,42.11,48.31,67.58,67.74.03.02.07.05.12.04l69.55-69.57ZM500.09,648.17c-81.75,0-148.26-66.51-148.26-148.25s66.51-148.25,148.26-148.25,148.25,66.51,148.25,148.25-66.51,148.25-148.25,148.25ZM500.09,401.66c-54.18,0-98.26,44.08-98.26,98.25s44.08,98.25,98.26,98.25,98.25-44.08,98.25-98.25-44.08-98.25-98.25-98.25Z"/>
</svg>