<?xml version="1.0" encoding="UTF-8"?>
<svg id="a" data-name="layer1" xmlns="http://www.w3.org/2000/svg" viewBox="0 0 1000 1000">
  <path d="M909.84,606.7c0-72.91-51.42-133.88-119.84-149.06.03-1.32.39-2.56.39-3.88,0-84.29-68.58-152.88-152.88-152.88-39.25,0-74.73,15.29-101.83,39.7-26.13-65.59-90.13-112.13-164.91-112.13-97.9,0-177.57,79.66-177.57,177.57,0,18.8,2.99,36.89,8.42,53.91-64.62,17.85-112.48,76.56-112.48,146.77,0,84.29,68.58,152.88,152.88,152.88h531.18c3.86,0,7.38-1.1,10.61-2.72,71.48-12.78,126.02-75.08,126.02-150.16Z"/>
</svg>