<?xml version="1.0" encoding="UTF-8"?>
<svg id="a" data-name="layer1" xmlns="http://www.w3.org/2000/svg" viewBox="0 0 500 500">
  <path d="M151.854,449.564c-1.516,0-3.029-.053-4.553-.163-20.66-1.485-39.875-13.312-57.112-35.148-12.551-15.72-22.689-45.289-22.688-59.254V125c0-5.747,3.919-10.754,9.498-12.134,5.579-1.382,11.38,1.222,14.06,6.305,17.578,33.348,35.962,51.816,54.64,54.895,29.316,4.828,63.063-27.179,95.7-58.135,35.333-33.514,71.875-68.149,111.302-65.333,20.66,1.486,39.875,13.312,57.112,35.149,12.545,15.704,22.686,45.275,22.688,59.251v230.002c0,5.747-3.919,10.754-9.498,12.134-5.581,1.384-11.381-1.221-14.06-6.305-17.578-33.348-35.962-51.817-54.641-54.896-29.322-4.838-63.064,27.178-95.699,58.135-33.968,32.22-69.053,65.493-106.749,65.496ZM92.5,167.095v187.905c0,7.364,7.465,31.429,17.269,43.709,12.926,16.375,25.775,24.782,39.325,25.757,28.461,2.062,60.904-28.753,92.304-58.535,37.068-35.16,75.41-71.512,116.971-64.664,17.698,2.917,33.95,13.346,49.132,31.639v-187.905c0-7.368-7.467-31.438-17.267-43.706-12.928-16.378-25.777-24.786-39.327-25.761-28.453-2.064-60.904,28.752-92.305,58.536-37.066,35.158-75.393,71.511-116.97,64.664-17.698-2.917-33.95-13.346-49.132-31.639Z"/>
</svg>