<?xml version="1.0" encoding="UTF-8"?>
<svg id="a" data-name="layer1" xmlns="http://www.w3.org/2000/svg" viewBox="0 0 500 500">
  <path d="M434.39,143.08h-184.02l-11.82-47.53c-1.39-5.57-6.39-9.48-12.13-9.48H79.78c-5.74,0-10.75,3.91-12.13,9.48l-14.17,57.01c-.02.06-.02.13-.04.19-.07.29-.12.59-.17.9-.02.16-.05.31-.07.47-.03.29-.05.58-.06.87,0,.17-.02.33-.03.5,0,.03,0,.06,0,.1v245.86c0,6.9,5.6,12.5,12.5,12.5h368.79c6.9,0,12.5-5.6,12.5-12.5v-245.86c0-6.9-5.6-12.5-12.5-12.5ZM89.55,111.06h127.1l7.96,32.01H81.59l7.96-32.01ZM421.89,388.94H78.11v-220.86h343.79v220.86Z"/>
</svg>