<?xml version="1.0" encoding="UTF-8"?>
<svg id="a" data-name="layer1" xmlns="http://www.w3.org/2000/svg" viewBox="0 0 500 500">
  <path d="M490.42,254.4c0-.12,0-.24,0-.37-.04-3.37-1.43-6.72-4.14-9.15-.36-.32-.74-.62-1.12-.89-7.07-7.52-31.49-32.37-67.79-57.45-56.81-39.24-115.77-59.98-170.5-59.98s-113.69,20.74-170.5,59.98c-36.29,25.07-60.71,49.92-67.79,57.44-.39.27-.76.57-1.12.89-2.71,2.43-4.1,5.78-4.15,9.15,0,.12,0,.24,0,.36,0,.12,0,.24,0,.37.04,3.37,1.43,6.72,4.14,9.15.36.32.74.62,1.12.89,7.07,7.52,31.49,32.37,67.8,57.45,56.81,39.24,115.77,59.98,170.5,59.98s113.69-20.74,170.5-59.98c36.3-25.08,60.72-49.93,67.79-57.45.38-.27.76-.56,1.12-.88,2.71-2.43,4.1-5.78,4.15-9.15,0-.12,0-.24,0-.36ZM402.64,302.02c-66.26,45.62-121.29,55.2-155.78,55.2-62.49,0-119.21-30.02-155.78-55.2-26.83-18.48-47.08-37.14-57.69-47.63,10.61-10.49,30.86-29.15,57.69-47.63,66.26-45.63,121.29-55.2,155.78-55.2,62.49,0,119.21,30.02,155.78,55.2,26.83,18.48,47.08,37.14,57.69,47.63-10.61,10.49-30.86,29.15-57.69,47.63Z"/>
  <path d="M246.86,180.86c-40.43,0-73.33,32.9-73.33,73.33s32.9,73.33,73.33,73.33,73.33-32.9,73.33-73.33-32.9-73.33-73.33-73.33ZM246.86,302.52c-26.65,0-48.33-21.68-48.33-48.33s21.68-48.33,48.33-48.33,48.33,21.68,48.33,48.33-21.68,48.33-48.33,48.33Z"/>
</svg>