<?xml version="1.0" encoding="UTF-8"?>
<svg id="a" data-name="layer1" xmlns="http://www.w3.org/2000/svg" viewBox="0 0 500 500">
  <path d="M151.03,133.33l98.99,98.99,98.98-98.98c4.88-4.88,12.79-4.88,17.67,0h0c4.88,4.88,4.88,12.79,0,17.67l-98.98,98.99,99,99c4.88,4.88,4.88,12.79,0,17.67h0c-4.88,4.88-12.79,4.88-17.67,0l-99.01-99-100.56,100.57c-1.71,1.71-5.08,2.88-7.48,2.53-12.68-1.84-15.56-14.85-8.65-21.76l99.01-99.01-100.55-100.54c-1.71-1.71-2.88-5.08-2.53-7.48,1.84-12.68,14.85-15.56,21.76-8.65Z"/>
</svg>