<?xml version="1.0" encoding="UTF-8"?>
<svg id="a" data-name="layer1" xmlns="http://www.w3.org/2000/svg" viewBox="0 0 500 500">
  <path d="M461.49,127.03H38.51c-6.9,0-12.5,5.6-12.5,12.5v220.93c0,6.9,5.6,12.5,12.5,12.5h422.99c6.9,0,12.5-5.6,12.5-12.5v-220.93c0-6.9-5.6-12.5-12.5-12.5ZM448.99,347.97H51.01v-195.93h397.99v195.93Z"/>
  <path d="M373.82,292.98H126.18c-6.9,0-12.5,5.6-12.5,12.5s5.6,12.5,12.5,12.5h247.64c6.9,0,12.5-5.6,12.5-12.5s-5.6-12.5-12.5-12.5Z"/>
  <path d="M86.54,213.9h27.35c6.9,0,12.5-5.6,12.5-12.5s-5.6-12.5-12.5-12.5h-27.35c-6.9,0-12.5,5.6-12.5,12.5s5.6,12.5,12.5,12.5Z"/>
  <path d="M185.11,213.9h27.35c6.9,0,12.5-5.6,12.5-12.5s-5.6-12.5-12.5-12.5h-27.35c-6.9,0-12.5,5.6-12.5,12.5s5.6,12.5,12.5,12.5Z"/>
  <path d="M283.68,213.9h27.35c6.9,0,12.5-5.6,12.5-12.5s-5.6-12.5-12.5-12.5h-27.35c-6.9,0-12.5,5.6-12.5,12.5s5.6,12.5,12.5,12.5Z"/>
  <path d="M382.25,213.9h27.35c6.9,0,12.5-5.6,12.5-12.5s-5.6-12.5-12.5-12.5h-27.35c-6.9,0-12.5,5.6-12.5,12.5s5.6,12.5,12.5,12.5Z"/>
  <path d="M135.48,262.84h27.35c6.9,0,12.5-5.6,12.5-12.5s-5.6-12.5-12.5-12.5h-27.35c-6.9,0-12.5,5.6-12.5,12.5s5.6,12.5,12.5,12.5Z"/>
  <path d="M234.05,262.84h27.35c6.9,0,12.5-5.6,12.5-12.5s-5.6-12.5-12.5-12.5h-27.35c-6.9,0-12.5,5.6-12.5,12.5s5.6,12.5,12.5,12.5Z"/>
  <path d="M332.62,262.84h27.35c6.9,0,12.5-5.6,12.5-12.5s-5.6-12.5-12.5-12.5h-27.35c-6.9,0-12.5,5.6-12.5,12.5s5.6,12.5,12.5,12.5Z"/>
</svg>