<?xml version="1.0" encoding="UTF-8"?>
<svg id="a" data-name="layer1" xmlns="http://www.w3.org/2000/svg" viewBox="0 0 500 500">
  <path d="M250,68.858c24.465,0,48.185,4.786,70.501,14.225,21.567,9.122,40.942,22.187,57.586,38.831,16.644,16.644,29.708,36.019,38.831,57.586,9.439,22.316,14.225,46.036,14.225,70.501s-4.786,48.185-14.225,70.501c-9.122,21.567-22.187,40.942-38.831,57.586-16.644,16.644-36.018,29.708-57.586,38.831-22.316,9.439-46.036,14.225-70.501,14.225s-48.185-4.786-70.501-14.225c-21.567-9.122-40.942-22.187-57.586-38.831-16.644-16.644-29.708-36.019-38.831-57.586-9.439-22.316-14.225-46.036-14.225-70.501s4.786-48.185,14.225-70.501c9.122-21.567,22.187-40.942,38.831-57.586,16.644-16.644,36.018-29.708,57.586-38.831,22.316-9.439,46.036-14.225,70.501-14.225M250,43.858c-113.849,0-206.142,92.293-206.142,206.142s92.293,206.142,206.142,206.142,206.142-92.293,206.142-206.142S363.849,43.858,250,43.858h0Z"/>
</svg>