<?xml version="1.0" encoding="UTF-8"?>
<svg id="c" data-name="レイヤー 4" xmlns="http://www.w3.org/2000/svg" viewBox="0 0 500 500">
  <path d="M398.545,422.489l-40.264-261.728c-.4-47.797-29.933-122.516-108.281-122.516s-107.881,74.719-108.281,122.516l-40.264,261.728c-.969,6.301,2.958,12.321,9.116,13.974l15.508,4.16c8.102,4.104,46.109,21.132,118.835,21.132h10.172c72.726,0,110.733-17.028,118.835-21.132l15.508-4.16c6.158-1.652,10.085-7.673,9.116-13.974ZM186.175,97.199c15.278-22.529,36.752-33.953,63.825-33.953s48.546,11.424,63.825,33.953c11.209,16.53,16.765,36.033,18.666,52.045h-29.323c-1.493-13.989-7.062-27.545-16.082-38.816-10.681-13.347-24.197-21.001-37.085-21.001s-26.405,7.654-37.085,21.001c-9.02,11.271-14.588,24.827-16.082,38.816h-29.323c1.901-16.012,7.457-35.515,18.666-52.045ZM250,149.244h-27.972c3.295-20.517,19.227-34.817,27.972-34.817s24.677,14.3,27.972,34.817h-27.972ZM366.101,416.836c-1.031.276-1.96.648-2.888,1.178-11.687,6.481-49.326,18.74-108.127,18.74h-10.172c-58.802,0-96.441-12.259-108.065-18.705-.928-.528-1.919-.937-2.95-1.213l-6.032-1.618,37.071-240.975h170.123l37.071,240.975-6.032,1.618Z"/>
</svg>