<?xml version="1.0" encoding="UTF-8"?>
<svg id="a" data-name="layer1" xmlns="http://www.w3.org/2000/svg" viewBox="0 0 500 500">
  <path d="M250,432.5c-100.631,0-182.5-81.869-182.5-182.5S149.369,67.5,250,67.5s182.5,81.869,182.5,182.5-81.869,182.5-182.5,182.5ZM250,92.5c-86.846,0-157.5,70.654-157.5,157.5s70.654,157.5,157.5,157.5,157.5-70.654,157.5-157.5-70.654-157.5-157.5-157.5Z"/>
  <path d="M250,352.5c-13.833,0-27.259-2.712-39.902-8.06-12.208-5.164-23.168-12.554-32.577-21.962-9.408-9.407-16.797-20.368-21.961-32.577-2.689-6.358.285-13.692,6.644-16.382,6.356-2.689,13.692.283,16.382,6.644,3.903,9.229,9.493,17.518,16.613,24.637,7.122,7.122,15.411,12.712,24.639,16.615,9.544,4.038,19.693,6.085,30.162,6.085s20.618-2.047,30.163-6.085c9.228-3.903,17.517-9.493,24.638-16.614,7.121-7.12,12.71-15.409,16.614-24.638,2.69-6.357,10.026-9.327,16.382-6.644,6.358,2.689,9.333,10.023,6.644,16.382-5.164,12.209-12.553,23.17-21.962,32.578-9.408,9.407-20.369,16.797-32.576,21.961-12.644,5.348-26.069,8.06-39.902,8.06Z"/>
  <path d="M333.419,199.603c-4.704,0-9.21-2.668-11.333-7.211-.659-1.41-1.627-2.699-2.877-3.83-1.342-1.215-2.925-2.177-4.708-2.859-3.822-1.463-8.355-1.465-12.184.002-1.779.681-3.362,1.642-4.701,2.854-1.254,1.135-2.222,2.423-2.88,3.833-2.922,6.254-10.364,8.958-16.616,6.032-6.254-2.922-8.956-10.361-6.033-16.616,2.075-4.441,5.02-8.405,8.752-11.783,3.638-3.294,7.858-5.875,12.541-7.668,4.781-1.83,9.837-2.757,15.032-2.757s10.251.927,15.028,2.755c4.685,1.795,8.905,4.375,12.546,7.672,3.73,3.375,6.674,7.34,8.75,11.781,2.922,6.255.221,13.694-6.033,16.616-1.711.8-3.511,1.179-5.283,1.179Z"/>
  <path d="M219.871,199.603c-4.704,0-9.21-2.668-11.333-7.211-.659-1.41-1.626-2.698-2.877-3.83-1.342-1.216-2.925-2.177-4.708-2.859-3.822-1.463-8.355-1.465-12.184.002-1.779.681-3.362,1.643-4.703,2.855-1.252,1.133-2.22,2.422-2.879,3.832-2.922,6.254-10.362,8.958-16.616,6.032-6.254-2.922-8.956-10.361-6.033-16.616,2.076-4.441,5.02-8.406,8.752-11.783,3.639-3.295,7.859-5.875,12.541-7.668,4.781-1.83,9.837-2.757,15.032-2.757s10.251.927,15.028,2.755c4.686,1.795,8.906,4.376,12.547,7.673,3.729,3.375,6.674,7.339,8.75,11.78,2.922,6.255.221,13.694-6.033,16.616-1.711.8-3.511,1.179-5.283,1.179Z"/>
</svg>