<?xml version="1.0" encoding="UTF-8"?>
<svg id="a" data-name="layer1" xmlns="http://www.w3.org/2000/svg" viewBox="0 0 500 500">
  <path d="M150.5,231.5v-16.98s-.23-.5-.24-.74c-.07-1.21-.13-2.42-.16-3.59-.04-1.21-.06-2.41-.06-3.58,0-29.25,10.52-56.7,29.61-77.3,18.85-20.34,43.85-31.54,70.37-31.54s51.35,11.12,70.18,31.33c4.63,4.97,12.5,5.58,17.61,1.1s5.69-12.75.92-17.89c-23.64-25.5-55.14-39.54-88.71-39.54s-65.07,14.04-88.71,39.54c-23.39,25.24-36.28,58.72-36.28,94.29,0,1.43.02,2.9.07,4.37.04,1.28-.1,3.91-.1,3.91v22.19s.3.58.5.87v145.06c0,11.05,8.95,20,20,20h209.5c11.05,0,20-8.95,20-20v-131.5c0-11.05-8.95-20-20-20h-204.5ZM350,378h-199.5v-121.5h199.5v121.5Z"/>
</svg>