<?xml version="1.0" encoding="UTF-8"?>
<svg id="a" data-name="layer1" xmlns="http://www.w3.org/2000/svg" viewBox="0 0 1000 1000">
  <path d="M302.07,266.66l197.98,197.98,197.96-197.96c9.76-9.76,25.58-9.76,35.33,0h0c9.76,9.76,9.76,25.57,0,35.33l-197.95,197.97,198.01,198.01c9.76,9.76,9.76,25.58,0,35.33h0c-9.76,9.76-25.57,9.76-35.33,0l-198.01-197.99-201.12,201.14c-3.42,3.42-10.17,5.76-14.96,5.06-25.36-3.68-31.13-29.69-17.29-43.52l198.03-198.03-201.1-201.07c-3.43-3.43-5.76-10.17-5.07-14.96,3.68-25.36,29.69-31.13,43.52-17.29Z"/>
</svg>