<?xml version="1.0" encoding="UTF-8"?>
<svg id="a" data-name="layer1" xmlns="http://www.w3.org/2000/svg" viewBox="0 0 1000 1000">
  <path d="M847.09,316.73c-9.67-8.37-25.32-7.42-34.36,1.62l-110.27,110.27-40.75-271.23c-2.85-25.36-24.08-44.39-49.69-44.39h-242.13c-25.59,0-46.81,19.02-49.66,44.36l-74.32,494.64h-.92v6.41l-26.06,173.44-.16,1.28c-1.37,14.01,3.27,28.03,12.73,38.46,9.46,10.43,22.96,16.41,37.04,16.41h444.89c14.08,0,27.58-5.98,37.04-16.41,9.46-10.43,14.1-24.45,12.73-38.46l-.06-.64-51.44-342.39,136.75-136.75c10.2-10.2,9.74-27.01-1.36-36.62ZM369.64,164.28l.16-1.28h241.92l.06.64,46.39,308.76-179.6,179.6h-182.21l73.28-487.72ZM267.89,838l20.43-136h404.9l20.43,136h-445.76ZM685.27,652h-135.99l118.22-118.22,17.76,118.22Z"/>
</svg>