<?xml version="1.0" encoding="UTF-8"?>
<svg id="a" data-name="layer1" xmlns="http://www.w3.org/2000/svg" viewBox="0 0 500 500">
  <path d="M250,432.5c-100.63,0-182.5-81.87-182.5-182.5S149.37,67.5,250,67.5s182.5,81.87,182.5,182.5-81.87,182.5-182.5,182.5ZM250,92.5c-86.85,0-157.5,70.65-157.5,157.5s70.65,157.5,157.5,157.5,157.5-70.65,157.5-157.5-70.65-157.5-157.5-157.5Z"/>
  <path d="M295.94,214.71c-3.2,0-6.4-1.22-8.84-3.66-4.88-4.88-4.88-12.8,0-17.68l24.94-24.94c4.88-4.88,12.8-4.88,17.68,0,4.88,4.88,4.88,12.8,0,17.68l-24.94,24.94c-2.44,2.44-5.64,3.66-8.84,3.66Z"/>
  <path d="M207.33,214.71c-3.2,0-6.4-1.22-8.84-3.66l-24.94-24.94c-4.88-4.88-4.88-12.8,0-17.68,4.88-4.88,12.8-4.88,17.68,0l24.94,24.94c4.88,4.88,4.88,12.8,0,17.68-2.44,2.44-5.64,3.66-8.84,3.66Z"/>
  <path d="M332.93,352.5c-4.87,0-9.5-2.86-11.52-7.63-3.9-9.23-9.49-17.52-16.61-24.64-7.12-7.12-15.41-12.71-24.64-16.61-9.55-4.04-19.7-6.09-30.16-6.09s-20.62,2.05-30.16,6.09c-9.23,3.9-17.52,9.49-24.64,16.61-7.12,7.12-12.71,15.41-16.61,24.64-2.69,6.36-10.03,9.33-16.38,6.64-6.36-2.69-9.33-10.02-6.64-16.38,5.16-12.21,12.55-23.17,21.96-32.58,9.41-9.41,20.37-16.8,32.58-21.96,12.64-5.35,26.07-8.06,39.9-8.06s27.26,2.71,39.9,8.06c12.21,5.16,23.17,12.55,32.58,21.96,9.41,9.41,16.8,20.37,21.96,32.58,2.69,6.36-.28,13.69-6.64,16.38-1.59.67-3.24.99-4.86.99Z"/>
</svg>