<?xml version="1.0" encoding="UTF-8"?>
<svg id="a" data-name="layer1" xmlns="http://www.w3.org/2000/svg" viewBox="0 0 500 500">
  <path d="M410.23,392.3l-102.46-102.46c17.64-21.54,28.24-49.06,28.24-79.01,0-68.9-56.06-124.95-124.95-124.95s-124.94,56.06-124.94,124.95,56.05,124.94,124.94,124.94c29.96,0,57.5-10.6,79.05-28.25l104,104.02c1.71,1.71,5.08,2.88,7.48,2.53,12.68-1.84,15.56-14.85,8.65-21.76ZM211.05,310.76c-55.11,0-99.94-44.83-99.94-99.94s44.83-99.95,99.94-99.95,99.95,44.84,99.95,99.95-44.84,99.94-99.95,99.94Z"/>
</svg>