<?xml version="1.0" encoding="UTF-8"?>
<svg id="a" data-name="layer1" xmlns="http://www.w3.org/2000/svg" viewBox="0 0 500 500">
  <path d="M406.187,250.012c0-57.582-31.33-107.983-77.834-135.067.059-.49.097-.986.097-1.492v-62.565c0-6.903-5.597-12.5-12.5-12.5h-131.9c-6.903,0-12.5,5.597-12.5,12.5v62.565c0,.505.039.999.097,1.488-46.503,27.084-77.831,77.486-77.831,135.07s31.284,107.906,77.734,134.997v62.235c0,6.903,5.597,12.5,12.5,12.5h131.9c6.903,0,12.5-5.597,12.5-12.5v-62.239c46.45-27.092,77.737-77.452,77.737-134.993ZM196.55,63.388h106.9v39.859c-16.684-6.096-34.688-9.426-53.455-9.426s-36.765,3.329-53.446,9.423v-39.856ZM303.45,434.744h-106.9v-37.983c16.681,6.093,34.682,9.42,53.446,9.42s36.771-3.329,53.455-9.423v37.986ZM249.996,381.181c-72.333,0-131.18-58.842-131.18-131.169s58.847-131.191,131.18-131.191,131.191,58.852,131.191,131.191-58.852,131.169-131.191,131.169Z"/>
  <path d="M289.1,193.225l-47.938,47.937c-4.882,4.881-4.882,12.796,0,17.678,2.441,2.441,5.64,3.661,8.839,3.661s6.398-1.221,8.839-3.661l47.938-47.937c4.882-4.881,4.882-12.796,0-17.678-4.882-4.881-12.796-4.881-17.678,0Z"/>
</svg>