<?xml version="1.0" encoding="UTF-8"?>
<svg id="a" data-name="layer1" xmlns="http://www.w3.org/2000/svg" width="1000" height="1000" viewBox="0 0 1000 1000">
  <path d="M804.203,680.417c.003-.14.021-.276.021-.417v-344.492c0-11.704-9.609-20.031-20.039-20.031-3.46,0-7.007.915-10.327,2.927l-273.858,165.974-273.858-165.974c-3.32-2.012-6.868-2.928-10.327-2.927-10.43,0-20.039,8.328-20.039,20.031v344.492c0,.14.018.275.021.415.008.26.021.521.039.78.184,3.096,1.056,6.003,2.49,8.562,2.921,5.362,8.243,9.449,15.361,10.133.02.002.04.005.06.007.612.057,1.236.089,1.874.095.052,0,.103.008.155.008h568.447c.052,0,.103-.007.155-.008.638-.005,1.263-.038,1.874-.095.02-.002.04-.005.06-.007,7.118-.684,12.44-4.771,15.361-10.133,1.434-2.56,2.306-5.467,2.49-8.563.018-.259.031-.518.039-.778ZM764.224,371.016v273.498l-225.636-136.749,225.636-136.749ZM461.412,507.765l-225.636,136.749v-273.498l225.636,136.749ZM287.399,660l212.601-128.849,212.601,128.849h-425.203Z" fill="#000" stroke-width="0"/>
</svg>