<?xml version="1.0" encoding="UTF-8"?>
<svg id="c" data-name="レイヤー 4" xmlns="http://www.w3.org/2000/svg" viewBox="0 0 500 500">
  <path d="M385.42,202.52c0-.29-.02-.57-.04-.86,0-.1-.02-.21-.03-.31-.04-.37-.09-.73-.16-1.09,0-.01,0-.02,0-.03-.07-.35-.16-.7-.26-1.04-.03-.1-.06-.2-.09-.3-.09-.27-.18-.53-.28-.79-.04-.09-.07-.18-.11-.27-.14-.34-.3-.68-.48-1.01,0,0-.01-.02-.02-.03-.17-.31-.35-.62-.55-.92-.06-.09-.12-.17-.18-.26-.16-.23-.32-.45-.5-.67-.07-.08-.13-.17-.2-.25-.24-.29-.49-.56-.75-.83l-122.93-122.93c-.27-.27-.55-.52-.84-.76-.07-.06-.14-.12-.22-.17-.23-.19-.47-.36-.71-.53-.07-.05-.15-.1-.22-.15-.63-.42-1.3-.77-1.99-1.06-.07-.03-.15-.06-.22-.09-.28-.11-.57-.22-.86-.31-.08-.03-.16-.05-.24-.08-.72-.21-1.46-.36-2.21-.44-.08,0-.16-.01-.25-.02-.31-.03-.63-.04-.94-.05-.05,0-.1,0-.14,0h-122.93c-6.9,0-12.5,5.6-12.5,12.5v340.44c0,6.9,5.6,12.5,12.5,12.5h245.86c6.9,0,12.5-5.6,12.5-12.5v-217.51c0-.06,0-.12,0-.19ZM262.5,109.96l80.25,80.25h-80.25v-80.25ZM139.57,407.72V92.28h97.93v110.43c0,6.9,5.6,12.5,12.5,12.5h110.43v192.51h-220.86Z"/>
</svg>