<?xml version="1.0" encoding="UTF-8"?>
<svg id="a" data-name="layer1" xmlns="http://www.w3.org/2000/svg" viewBox="0 0 500 500">
  <path d="M188.63,139.43c12.98,0,25.46,3.9,36.11,11.28,10.44,7.24,18.44,17.28,23.12,29.03,3.03,7.6,9.58,13.24,17.54,15.09,1.88.44,3.79.65,5.68.65,6.11,0,12.09-2.24,16.73-6.42,9.61-8.66,21.76-13.43,34.19-13.43,27.95,0,50.77,22.41,51.42,50.2-.08.7-.15,1.56-.17,2.54-.3,11.95,7.9,22.45,19.58,25.04,11.25,2.5,21.49,8.83,28.83,17.83,7.53,9.23,11.51,20.4,11.51,32.29s-4.32,23.81-12.15,33.03c-7.77,9.15-18.52,15.34-30.26,17.44-1.27.23-2.51.55-3.73.97H124.85c-27.78,0-51.01-21.81-51.99-49.57-.43-12.07,3.29-23.53,10.68-33,6.83-8.75,16.48-15.2,27.18-18.16,6.56-1.81,12.09-6.22,15.33-12.2,3.24-5.98,3.9-13.03,1.83-19.51-2.01-6.29-3.03-12.8-3.03-19.35,0-35.17,28.61-63.78,63.78-63.78M188.63,114.43c-48.95,0-88.78,39.83-88.78,88.78,0,9.4,1.49,18.45,4.21,26.96-32.31,8.92-56.24,38.28-56.24,73.39,0,42.14,34.29,76.44,76.44,76.44h265.59c1.93,0,3.69-.55,5.31-1.36,35.74-6.39,63.01-37.54,63.01-75.08s-25.71-66.94-59.92-74.53c.02-.66.2-1.28.2-1.94,0-42.14-34.29-76.44-76.44-76.44-19.63,0-37.37,7.65-50.92,19.85-13.06-32.79-45.07-56.06-82.46-56.06h0Z"/>
</svg>