<?xml version="1.0" encoding="UTF-8"?>
<svg id="a" data-name="layer1" xmlns="http://www.w3.org/2000/svg" viewBox="0 0 500 500">
  <path d="M454.922,303.56c0-36.457-25.708-66.938-59.92-74.529.017-.66.197-1.278.197-1.942,0-42.143-34.289-76.44-76.44-76.44-19.627,0-37.366,7.646-50.916,19.849-13.063-32.793-45.065-56.064-82.456-56.064-48.952,0-88.784,39.832-88.784,88.784,0,9.398,1.494,18.447,4.212,26.957-32.312,8.924-56.239,38.279-56.239,73.385,0,42.143,34.289,76.44,76.44,76.44h265.589c1.93,0,3.688-.552,5.306-1.358,35.742-6.388,63.011-37.538,63.011-75.081Z"/>
</svg>