<?xml version="1.0" encoding="UTF-8"?>
<svg id="a" data-name="layer1" xmlns="http://www.w3.org/2000/svg" viewBox="0 0 500 500">
  <path d="M462.002,83.022H37.997c-6.903,0-12.5,5.597-12.5,12.5v308.957c0,6.903,5.597,12.5,12.5,12.5h424.005c6.903,0,12.5-5.597,12.5-12.5V95.522c0-6.903-5.597-12.5-12.5-12.5ZM91.873,391.979h-45.582,4.206V108.022h-7.475,43.725v132.993c0,19.086,12.647,35.271,30,40.622v110.342h-24.874ZM204.509,391.979h-62.762v-110.342c17.353-5.351,30-21.536,30-40.622V108.022h33.563v132.993c0,19.086,12.647,35.271,30,40.622v110.342h-30.801ZM281.317,391.979h-21.007v-110.343c17.352-5.351,29.999-21.536,29.999-40.621V108.022h33.563v132.993c0,19.086,12.647,35.271,30,40.622v110.342h-72.555ZM449.502,391.979h-70.63v-110.342c17.353-5.351,30-21.536,30-40.622V108.022h-.839,41.469v283.957Z"/>
</svg>