<?xml version="1.0" encoding="UTF-8"?>
<svg id="a" data-name="layer1" xmlns="http://www.w3.org/2000/svg" viewBox="0 0 500 500">
  <path d="M360.094,85.497h.005-.005M430.272,155.674h.005-.005M352.21,63.761c-3.544,0-7.088,1.353-9.793,4.058l-150.16,150.16c-32.564,32.563-44.141,73.73-30.382,100.552l-94.056,94.064c-5.411,5.411-5.411,14.176,0,19.587,2.705,2.705,6.25,4.058,9.793,4.058s7.088-1.353,9.793-4.058l94.14-94.147c7.433,3.812,15.85,5.889,25.004,5.889,23.879-.018,51.943-12.643,75.48-36.18l150.151-150.16c5.411-5.411,5.411-14.176,0-19.587-2.706-2.705-6.25-4.058-9.793-4.058s-7.088,1.353-9.793,4.058l-150.151,150.16c-19.073,19.055-40.38,28.006-55.814,28.006-7.239,0-13.185-1.968-17.005-5.786-11.958-11.958-5.781-44.819,22.22-72.811l150.16-150.16c5.411-5.411,5.411-14.176,0-19.587-2.705-2.705-6.249-4.058-9.793-4.058h0Z"/>
</svg>