<?xml version="1.0" encoding="UTF-8"?>
<svg id="a" data-name="layer1" xmlns="http://www.w3.org/2000/svg" width="1000" height="1000" viewBox="0 0 1000 1000">
  <path d="M499.988,170.012c-181.959,0-329.988,148.053-329.988,330.012s148.029,329.964,329.988,329.964,330.012-148.005,330.012-329.964-148.052-330.012-330.012-330.012ZM499.988,789.988c-159.9,0-289.988-130.077-289.988-289.964S340.088,210.012,499.988,210.012s290.012,130.099,290.012,290.012-130.099,289.964-290.012,289.964Z" fill="#000" stroke-width="0"/>
  <path d="M520,491.716v-191.716c0-11.046-8.954-20-20-20s-20,8.954-20,20v200c0,5.305,2.107,10.392,5.858,14.142l141.421,141.421c3.905,3.905,9.023,5.858,14.142,5.858s10.237-1.953,14.142-5.858c7.811-7.811,7.811-20.474,0-28.284l-135.563-135.563Z" fill="#000" stroke-width="0"/>
</svg>