<?xml version="1.0" encoding="UTF-8"?>
<svg id="a" data-name="layer1" xmlns="http://www.w3.org/2000/svg" viewBox="0 0 1000 1000">
  <path d="M299.56,462.76v-33.72c0-.5-.01-.99-.04-1.49-.15-2.43-.26-4.84-.33-7.18-.08-2.42-.11-4.83-.11-7.16,0-58.5,21.03-113.4,59.23-154.59,37.71-40.67,87.69-63.07,140.75-63.07s103.04,22.4,140.75,63.07c9.39,10.12,25.21,10.72,35.33,1.34,10.12-9.39,10.72-25.21,1.34-35.33-47.28-50.99-110.28-79.08-177.41-79.08s-130.14,28.08-177.41,79.08c-46.79,50.47-72.56,117.44-72.56,188.59,0,2.86.05,5.8.14,8.73.08,2.56.2,5.19.35,7.83v44.37c0,.59.05,1.17.09,1.75v330.08h499.34v-343.2h-449.43Z"/>
</svg>