<?xml version="1.0" encoding="UTF-8"?>
<svg id="a" data-name="layer1" xmlns="http://www.w3.org/2000/svg" viewBox="0 0 500 500">
  <path d="M202.74,19.72H32.22c-6.9,0-12.5,5.6-12.5,12.5v170.52c0,6.9,5.6,12.5,12.5,12.5h170.52c6.9,0,12.5-5.6,12.5-12.5V32.22c0-6.9-5.6-12.5-12.5-12.5Z"/>
  <path d="M467.78,19.72h-170.52c-6.9,0-12.5,5.6-12.5,12.5v170.52c0,6.9,5.6,12.5,12.5,12.5h170.52c6.9,0,12.5-5.6,12.5-12.5V32.22c0-6.9-5.6-12.5-12.5-12.5Z"/>
  <path d="M202.74,284.76H32.22c-6.9,0-12.5,5.6-12.5,12.5v170.52c0,6.9,5.6,12.5,12.5,12.5h170.52c6.9,0,12.5-5.6,12.5-12.5v-170.52c0-6.9-5.6-12.5-12.5-12.5Z"/>
  <path d="M467.78,284.76h-170.52c-6.9,0-12.5,5.6-12.5,12.5v170.52c0,6.9,5.6,12.5,12.5,12.5h170.52c6.9,0,12.5-5.6,12.5-12.5v-170.52c0-6.9-5.6-12.5-12.5-12.5Z"/>
</svg>