<?xml version="1.0" encoding="UTF-8"?>
<svg id="a" data-name="layer1" xmlns="http://www.w3.org/2000/svg" width="1000" height="1000" viewBox="0 0 1000 1000">
  <path d="M778.856,436.532c-14.549-14.549-30.711-26.897-48.073-36.902,0-.136.005-.271.005-.406,0-61.428-23.921-119.18-67.357-162.616-43.437-43.436-101.188-67.357-162.616-67.357s-119.18,23.921-162.616,67.357c-43.085,43.085-66.956,100.257-67.339,161.129-17.799,10.158-34.355,22.76-49.238,37.644-43.744,43.744-67.834,101.904-67.834,163.768s24.091,120.024,67.834,163.768c43.744,43.744,101.904,67.835,163.768,67.835,41.811,0,81.922-11.019,117.042-31.657,34.293,19.592,73.248,30.028,113.81,30.028,61.429,0,119.18-23.921,162.616-67.357s67.357-101.188,67.357-162.616-23.921-119.18-67.357-162.616ZM500.814,210c50.543,0,98.062,19.683,133.801,55.422,31.391,31.391,50.39,71.871,54.549,115.504-23.204-7.729-47.754-11.752-72.925-11.752-40.562,0-79.517,10.438-113.81,30.029-35.12-20.639-75.232-31.657-117.042-31.657-25.094,0-49.579,3.965-72.74,11.597,4.502-42.952,23.402-82.757,54.365-113.72,35.74-35.74,83.258-55.422,133.801-55.422ZM502.158,750.14c-6.897-5.234-13.491-10.962-19.719-17.191-31.391-31.391-50.39-71.871-54.549-115.504,23.204,7.729,47.754,11.752,72.925,11.752,25.781,0,50.909-4.229,74.609-12.331-4.051,44.289-23.244,85.396-55.082,117.234-5.768,5.768-11.843,11.116-18.183,16.04ZM500.814,588.447c-25.168,0-49.585-4.884-72.173-14.197,5.37-41.106,23.995-79.102,53.797-108.904,6.229-6.229,12.822-11.957,19.719-17.191,6.34,4.924,12.415,10.271,18.183,16.04,29.951,29.951,48.708,68.107,54.2,109.397-23.021,9.736-47.979,14.855-73.727,14.855ZM634.616,533.025c-7.023,7.023-14.506,13.416-22.372,19.17-9.004-43.957-30.629-84.356-63.088-116.815-3.189-3.189-6.464-6.261-9.803-9.24,23.888-10.626,49.958-16.216,76.888-16.216,25.168,0,49.585,4.884,72.172,14.197-5.37,41.107-23.995,79.102-53.797,108.904ZM465.229,425.701c-3.969,3.466-7.844,7.07-11.604,10.831-32.407,32.407-53.944,72.784-62.795,116.709-8.396-6.022-16.365-12.765-23.816-20.216-30.205-30.205-48.939-68.824-54.018-110.571,22.67-9.287,47.156-14.159,72.393-14.159,28.027,0,55.125,6.013,79.841,17.406ZM338.198,561.84c14.55,14.549,30.711,26.896,48.074,36.901,0,.136-.005.271-.005.406,0,61.429,23.922,119.18,67.358,162.616,3.761,3.761,7.636,7.365,11.604,10.83-24.715,11.393-51.814,17.406-79.841,17.406-50.979,0-98.906-19.852-134.953-55.899s-55.899-83.975-55.899-134.953,19.852-98.906,55.899-134.953c7.694-7.694,15.933-14.643,24.624-20.826,8.626,44.607,30.3,85.631,63.14,118.471ZM549.156,762.915c43.744-43.744,67.834-101.904,67.834-163.768,0-.451-.014-.899-.016-1.35,16.748-9.835,32.36-21.862,46.457-35.958,32.407-32.407,53.943-72.784,62.795-116.709,8.396,6.022,16.365,12.765,23.816,20.216,35.74,35.74,55.422,83.258,55.422,133.801s-19.683,98.062-55.422,133.802-83.258,55.422-133.801,55.422c-26.93,0-53-5.59-76.887-16.216,3.338-2.979,6.613-6.05,9.802-9.24Z" fill="#000" stroke-width="0"/>
</svg>