<?xml version="1.0" encoding="UTF-8"?>
<svg id="a" data-name="layer1" xmlns="http://www.w3.org/2000/svg" viewBox="0 0 500 500">
  <path d="M439.99,361.76c0-.09.01-.17.01-.26v-215.31c0-7.31-6.01-12.52-12.53-12.52-2.16,0-4.38.57-6.46,1.83l-171.26,103.73-171.26-103.73c-2.08-1.26-4.29-1.83-6.46-1.83-6.52,0-12.53,5.2-12.53,12.52v215.31c0,.09.01.17.01.26,0,.16.01.33.02.49.11,1.94.66,3.75,1.56,5.35,1.83,3.35,5.15,5.91,9.61,6.33.01,0,.02,0,.04,0,.38.04.77.06,1.17.06.03,0,.06,0,.1,0h355.49s.06,0,.1,0c.4,0,.79-.02,1.17-.06.01,0,.02,0,.04,0,4.45-.43,7.78-2.98,9.61-6.33.9-1.6,1.44-3.42,1.56-5.35.01-.16.02-.32.02-.49ZM415,168.42v170.94l-141.02-85.47,141.02-85.47ZM226.02,253.89l-141.02,85.47v-170.94l141.02,85.47ZM117.12,349l132.88-80.53,132.88,80.53H117.12Z"/>
</svg>