<?xml version="1.0" encoding="UTF-8"?>
<svg id="a" xmlns="http://www.w3.org/2000/svg" version="1.1" viewBox="0 0 1000 1000">
  <!-- Generator: Adobe Illustrator 30.0.0, SVG Export Plug-In . SVG Version: 2.1.1 Build 123)  -->
  <path d="M885.5,647.3c-8,0-25.3-16.5-38.4-60.9-25.5-86.6-67.4-99.5-90.1-99.5s-64.5,12.9-90.1,99.5c-13.1,44.4-30.5,60.9-35.7,61.4-.3,0-22.9-14.8-40.4-117.2-18.4-108.8-48.1-161.6-90.8-161.6s-72.4,52.9-90.9,161.6c-12.6,74.4-28,102.5-34.6,112.2-8.3-15.4-26.2-62.8-40.5-199.5-23.1-222.4-59-252.4-91.1-252.4s-68,30-91,252.4c-16,154.7-36.9,195-43.3,204h-21.2v53.9h27c32.1,0,68-30,91-252.4,12.7-122,28.3-172.8,37.4-193.2,9.2,20.5,24.8,71.3,37.4,193.2,23.1,222.5,59,252.4,91.1,252.4s72.4-52.9,90.9-161.6c15.6-92.1,35.5-113.2,35.7-116.6,4,3.4,24,24.6,39.6,116.6,18.5,108.8,48.2,161.6,90.8,161.6s64.6-12.9,90.1-99.5c13.1-44.4,30.6-60.9,38.4-60.9s25.3,16.5,38.4,60.8c25.5,86.7,67.4,99.6,90.1,99.6h27v-53.9h-27Z"/>
  <rect x="87.5" y="755.2" width="825" height="59.6"/>
</svg>