<?xml version="1.0" encoding="UTF-8"?>
<svg id="a" data-name="layer1" xmlns="http://www.w3.org/2000/svg" viewBox="0 0 500 500">
  <path d="M438.58,223.08l-62.14-60.73c-9.87-9.64-22.9-14.95-36.69-14.95H68.14c-6.9,0-12.5,5.6-12.5,12.5v180c0,6.9,5.6,12.5,12.5,12.5h271.6c13.8,0,26.83-5.31,36.69-14.95l62.14-60.73c7.28-7.12,11.29-16.64,11.29-26.82s-4.01-19.71-11.29-26.82ZM421.11,258.84l-62.14,60.73c-5.17,5.05-11.99,7.83-19.22,7.83H80.64v-155h259.1c7.23,0,14.05,2.78,19.22,7.83l62.14,60.73c2.43,2.37,3.76,5.55,3.76,8.94s-1.34,6.57-3.76,8.94Z"/>
  <circle cx="327.29" cy="249.9" r="25"/>
</svg>