<?xml version="1.0" encoding="UTF-8"?>
<svg id="a" data-name="layer1" xmlns="http://www.w3.org/2000/svg" viewBox="0 0 1000 1000">
  <path d="M552.19,803.48h-103.38c-25.3,0-45.81-20.51-45.81-45.81v-256.52l-222.38-228.6-.58-.69c-11.62-13.79-14.11-32.52-6.51-48.88,7.6-16.35,23.53-26.51,41.56-26.51h570.81c18.03,0,33.96,10.16,41.56,26.51,7.6,16.35,5.11,35.08-6.51,48.88l-.58.69-.62.64-221.76,227.96v256.52c0,25.3-20.51,45.81-45.81,45.81ZM452,753.48h95v-254.09c0-10.81,3.82-21.28,10.78-29.55l.59-.7.62-.64,216.07-222.02H223.94l216.69,222.66.59.7c6.96,8.27,10.78,18.74,10.78,29.55v254.09Z"/>
</svg>