<?xml version="1.0" encoding="UTF-8"?>
<svg id="a" xmlns="http://www.w3.org/2000/svg" version="1.1" viewBox="0 0 1000 1000">
  <!-- Generator: Adobe Illustrator 30.0.0, SVG Export Plug-In . SVG Version: 2.1.1 Build 123)  -->
  <path d="M568.6,800c-5.7,0-11.3-1.9-15.9-5.7l-195.5-161h-211c-13.8,0-25-11.2-25-25v-216.6c0-13.8,11.2-25,25-25h211l195.5-161c7.5-6.1,17.8-7.4,26.6-3.3,8.7,4.1,14.3,12.9,14.3,22.6v550c0,9.7-5.6,18.5-14.3,22.6-3.4,1.6-7,2.4-10.7,2.4h0Z"/>
  <path d="M642.9,666.4c-6.4,0-12.8-2.4-17.7-7.3-9.8-9.8-9.8-25.6,0-35.4,16.1-16.1,28.7-34.8,37.5-55.6,9.1-21.6,13.7-44.5,13.7-68.1s-4.6-46.6-13.7-68.1c-8.8-20.8-21.4-39.6-37.5-55.6-9.8-9.8-9.8-25.6,0-35.4s25.6-9.8,35.4,0c20.7,20.7,36.9,44.7,48.2,71.5,11.7,27.8,17.7,57.2,17.7,87.6s-6,59.8-17.7,87.6c-11.3,26.8-27.6,50.9-48.2,71.5-4.9,4.9-11.3,7.3-17.7,7.3Z"/>
</svg>