<?xml version="1.0" encoding="UTF-8"?>
<svg id="a" data-name="layer1" xmlns="http://www.w3.org/2000/svg" viewBox="0 0 500 500">
  <path d="M115.85,44.72v75H40.85V44.72h75M128.35,19.72H28.35c-6.9,0-12.5,5.6-12.5,12.5v100c0,6.9,5.6,12.5,12.5,12.5h100c6.9,0,12.5-5.6,12.5-12.5V32.22c0-6.9-5.6-12.5-12.5-12.5h0Z"/>
  <path d="M287.5,44.72v75h-75V44.72h75M300,19.72h-100c-6.9,0-12.5,5.6-12.5,12.5v100c0,6.9,5.6,12.5,12.5,12.5h100c6.9,0,12.5-5.6,12.5-12.5V32.22c0-6.9-5.6-12.5-12.5-12.5h0Z"/>
  <path d="M459.15,44.72v75h-75V44.72h75M471.65,19.72h-100c-6.9,0-12.5,5.6-12.5,12.5v100c0,6.9,5.6,12.5,12.5,12.5h100c6.9,0,12.5-5.6,12.5-12.5V32.22c0-6.9-5.6-12.5-12.5-12.5h0Z"/>
  <path d="M115.85,212.5v75H40.85v-75h75M128.35,187.5H28.35c-6.9,0-12.5,5.6-12.5,12.5v100c0,6.9,5.6,12.5,12.5,12.5h100c6.9,0,12.5-5.6,12.5-12.5v-100c0-6.9-5.6-12.5-12.5-12.5h0Z"/>
  <path d="M287.5,212.5v75h-75v-75h75M300,187.5h-100c-6.9,0-12.5,5.6-12.5,12.5v100c0,6.9,5.6,12.5,12.5,12.5h100c6.9,0,12.5-5.6,12.5-12.5v-100c0-6.9-5.6-12.5-12.5-12.5h0Z"/>
  <path d="M459.15,212.5v75h-75v-75h75M471.65,187.5h-100c-6.9,0-12.5,5.6-12.5,12.5v100c0,6.9,5.6,12.5,12.5,12.5h100c6.9,0,12.5-5.6,12.5-12.5v-100c0-6.9-5.6-12.5-12.5-12.5h0Z"/>
  <path d="M115.85,380.28v75H40.85v-75h75M128.35,355.28H28.35c-6.9,0-12.5,5.6-12.5,12.5v100c0,6.9,5.6,12.5,12.5,12.5h100c6.9,0,12.5-5.6,12.5-12.5v-100c0-6.9-5.6-12.5-12.5-12.5h0Z"/>
  <path d="M287.5,380.28v75h-75v-75h75M300,355.28h-100c-6.9,0-12.5,5.6-12.5,12.5v100c0,6.9,5.6,12.5,12.5,12.5h100c6.9,0,12.5-5.6,12.5-12.5v-100c0-6.9-5.6-12.5-12.5-12.5h0Z"/>
  <path d="M459.15,380.28v75h-75v-75h75M471.65,355.28h-100c-6.9,0-12.5,5.6-12.5,12.5v100c0,6.9,5.6,12.5,12.5,12.5h100c6.9,0,12.5-5.6,12.5-12.5v-100c0-6.9-5.6-12.5-12.5-12.5h0Z"/>
</svg>