<?xml version="1.0" encoding="UTF-8"?>
<svg id="a" data-name="layer1" xmlns="http://www.w3.org/2000/svg" viewBox="0 0 500 500">
  <path d="M97.419,237.239h140.081V97.219c0-6.901,5.596-12.496,12.5-12.496h0c6.903,0,12.5,5.594,12.5,12.495l.007,140.02h140.044c6.901,0,12.496,5.596,12.496,12.5h0c0,6.903-5.594,12.5-12.495,12.5l-140.052.007.007,142.31c0,2.423-1.558,5.635-3.499,7.084-10.272,7.669-21.508.508-21.508-9.279v-140.122l-142.276.007c-2.423,0-5.635-1.558-7.084-3.499-7.669-10.272-.508-21.508,9.279-21.508Z"/>
</svg>