<?xml version="1.0" encoding="UTF-8"?>
<svg id="a" data-name="layer1" xmlns="http://www.w3.org/2000/svg" viewBox="0 0 500 500">
  <path d="M477.11,147.96c-2.37-3.08-6.03-4.89-9.91-4.89h-249.63l-11.82-47.53c-1.39-5.57-6.39-9.48-12.13-9.48H46.98c-5.74,0-10.75,3.91-12.13,9.48l-14.17,57.01c-.02.06-.02.13-.04.19-.07.29-.12.59-.17.9-.02.16-.05.31-.07.47-.03.29-.05.58-.06.87,0,.17-.02.33-.03.5,0,.03,0,.06,0,.1v245.86c0,.22.02.44.03.66,0,.16,0,.32.02.48.04.41.1.82.17,1.22,0,.03,0,.07.02.1.09.46.21.91.35,1.35.01.04.03.07.04.1.13.39.28.77.44,1.14.05.11.1.21.15.32.14.3.29.59.46.87.07.13.15.25.23.38.16.26.34.51.52.76.06.08.1.16.16.23.04.05.08.09.12.13.2.25.42.5.64.74.09.09.17.19.25.28.31.32.64.62.98.9.04.03.09.06.13.1.31.25.62.48.95.69.11.07.22.13.32.2.28.17.56.33.85.48.12.06.24.12.37.18.29.14.58.26.88.37.13.05.25.1.38.14.31.1.62.19.93.28.13.03.25.07.38.1.33.07.67.13,1.01.18.12.02.23.04.35.05.45.05.91.08,1.38.08h368.79c.4,0,.79-.02,1.17-.06.14-.01.27-.03.41-.05.25-.03.49-.07.73-.11.16-.03.32-.06.47-.1.22-.05.43-.1.64-.16.16-.05.32-.09.48-.14.21-.07.41-.15.62-.23.15-.06.3-.11.44-.17.32-.14.63-.29.93-.45.11-.06.21-.12.31-.18.23-.13.46-.27.68-.41.12-.08.23-.16.35-.25.19-.14.38-.27.56-.42.11-.09.22-.18.33-.27.18-.16.36-.32.53-.48.1-.09.19-.19.29-.28.18-.19.36-.38.53-.58.07-.09.15-.17.22-.26.22-.27.43-.55.63-.84.01-.02.03-.04.05-.06.2-.3.39-.62.57-.94.07-.13.14-.27.21-.41.1-.19.19-.39.28-.59.07-.17.14-.34.21-.51.07-.18.13-.35.2-.53.06-.18.12-.37.17-.56.02-.07.05-.14.07-.22l65.61-245.86c1-3.75.2-7.76-2.16-10.84ZM45.3,168.08v-13.91l11.45-43.1h127.1l7.96,32.01h-93.4c-5.34,0-10.03,3.52-11.52,8.65l-4.75,16.35-36.83,138.03v-138.03ZM391.99,388.94H49.08l58.93-220.86h342.91l-58.93,220.86Z"/>
</svg>