<?xml version="1.0" encoding="UTF-8"?>
<svg id="a" data-name="layer1" xmlns="http://www.w3.org/2000/svg" viewBox="0 0 500 500">
  <path d="M335.71,19.72h-171.42c-24.18,0-43.85,19.67-43.85,43.85v367.38c0,27.2,22.13,49.33,49.33,49.33h160.45c27.2,0,49.33-22.13,49.33-49.33V63.57c0-24.18-19.67-43.85-43.85-43.85ZM145.45,63.57c0-10.39,8.45-18.85,18.85-18.85h171.42c9.74,0,17.78,7.43,18.75,16.92.06.63.1,1.27.1,1.92v59.14h-209.11v-59.14ZM279.84,286.7l1.7,3.2c7.31,13.8,11.18,29.34,11.18,44.95v57.97c0,6.08-4.95,11.03-11.03,11.03h-63.36c-6.08,0-11.03-4.95-11.03-11.03v-57.97c0-15.61,3.87-31.16,11.18-44.95l1.7-3.2c9.22-17.39,14.09-36.98,14.09-56.66v-82.33h31.49v82.33c0,19.68,4.87,39.27,14.09,56.66ZM330.22,455.28h-160.45c-13.42,0-24.33-10.92-24.33-24.33V147.71h63.81v82.33c0,15.61-3.87,31.16-11.18,44.95l-1.7,3.2c-9.22,17.39-14.09,36.98-14.09,56.66v57.97c0,19.87,16.16,36.03,36.03,36.03h63.36c19.87,0,36.03-16.16,36.03-36.03v-57.97c0-19.68-4.87-39.27-14.09-56.66l-1.7-3.2c-7.31-13.8-11.18-29.34-11.18-44.95v-82.33h63.81v283.24c0,13.42-10.92,24.33-24.33,24.33Z"/>
</svg>