<?xml version="1.0" encoding="UTF-8"?>
<svg id="a" data-name="layer1" xmlns="http://www.w3.org/2000/svg" viewBox="0 0 500 500">
  <path d="M221.081,62.392h-116.911c-6.903,0-12.5,5.597-12.5,12.5v350.217c0,6.903,5.597,12.5,12.5,12.5h116.911c6.903,0,12.5-5.597,12.5-12.5V74.892c0-6.903-5.597-12.5-12.5-12.5ZM208.581,87.392v150.108h-91.911V87.392h91.911ZM116.67,412.609v-150.108h91.911v150.108h-91.911Z"/>
  <path d="M395.83,62.392h-116.911c-6.903,0-12.5,5.597-12.5,12.5v350.217c0,6.903,5.597,12.5,12.5,12.5h116.911c6.903,0,12.5-5.597,12.5-12.5V74.892c0-6.903-5.597-12.5-12.5-12.5ZM383.33,412.609h-91.911V87.392h91.911v325.217Z"/>
</svg>