<?xml version="1.0" encoding="UTF-8"?>
<svg id="a" data-name="layer1" xmlns="http://www.w3.org/2000/svg" viewBox="0 0 500 500">
  <path d="M249.819,437.918c-.405,0-.809-.02-1.209-.059-49.85-2.5-94.952-71.759-117.465-112.966-32.224-58.982-53.925-124.725-52.773-159.872.004-.138.011-.274.021-.411,2.196-33.384,23.579-61.948,60.209-80.434,30.631-15.457,71.212-23.424,111.398-21.909,40.207-1.518,80.768,6.452,111.398,21.909,36.63,18.485,58.013,47.05,60.209,80.434.01.137.017.273.021.411,1.151,35.147-20.55,100.89-52.773,159.872-22.514,41.209-67.625,110.475-117.479,112.967-.455.044-.91.067-1.376.057-.06,0-.12,0-.181,0ZM103.353,166.044c-.885,30.227,20.463,93.288,49.732,146.864,15.975,29.239,33.191,53.895,49.79,71.299,17.315,18.156,33.602,28.069,47.125,28.69,13.523-.621,29.81-10.534,47.125-28.69,16.599-17.404,33.815-42.06,49.79-71.299,29.27-53.576,50.617-116.638,49.732-146.864-2.136-30.886-26.459-49.428-46.513-59.548-27.078-13.665-63.384-20.676-99.637-19.229-.332.014-.664.014-.996,0-36.255-1.444-72.558,5.563-99.637,19.229-20.054,10.12-44.377,28.662-46.513,59.548Z"/>
</svg>