<?xml version="1.0" encoding="UTF-8"?>
<svg id="a" data-name="layer1" xmlns="http://www.w3.org/2000/svg" viewBox="0 0 500 500">
  <path d="M400,362.5c-20.678,0-37.5-16.822-37.5-37.499v-62.501h-25v62.501c0,20.677-16.822,37.499-37.5,37.499s-37.5-16.822-37.5-37.499v-62.501h-25v62.501c0,20.677-16.822,37.499-37.5,37.499s-37.5-16.822-37.5-37.499v-62.501h-25v62.501c0,20.677-16.822,37.499-37.5,37.499s-37.5-16.822-37.5-37.499v-135.001c0-28.948,23.551-52.5,52.5-52.5h270c28.949,0,52.5,23.552,52.5,52.5v135.001c0,20.677-16.822,37.499-37.5,37.499ZM325,237.5h50c6.903,0,12.5,5.597,12.5,12.5v75.001c0,6.892,5.607,12.499,12.5,12.499s12.5-5.607,12.5-12.499v-135.001c0-15.163-12.336-27.5-27.5-27.5H115c-15.164,0-27.5,12.337-27.5,27.5v135.001c0,6.892,5.607,12.499,12.5,12.499s12.5-5.607,12.5-12.499v-75.001c0-6.903,5.597-12.5,12.5-12.5h50c6.903,0,12.5,5.597,12.5,12.5v75.001c0,6.892,5.607,12.499,12.5,12.499s12.5-5.607,12.5-12.499v-75.001c0-6.903,5.597-12.5,12.5-12.5h50c6.903,0,12.5,5.597,12.5,12.5v75.001c0,6.892,5.607,12.499,12.5,12.499s12.5-5.607,12.5-12.499v-75.001c0-6.903,5.597-12.5,12.5-12.5Z"/>
</svg>