<?xml version="1.0" encoding="UTF-8"?>
<svg id="a" data-name="layer1" xmlns="http://www.w3.org/2000/svg" width="1000" height="1000" viewBox="0 0 1000 1000">
  <path d="M340.448,505.359v-66.979c0-.397-.012-.795-.035-1.192-.116-1.943-.205-3.875-.264-5.743-.061-1.933-.092-3.86-.092-5.729,0-46.796,16.827-90.718,47.381-123.675,30.166-32.538,70.154-50.458,112.599-50.458s82.432,17.919,112.598,50.458c7.51,8.1,20.164,8.579,28.265,1.069,8.1-7.51,8.579-20.164,1.069-28.264-37.822-40.795-88.228-63.263-141.932-63.263s-104.11,22.467-141.933,63.263c-37.432,40.376-58.047,93.957-58.047,150.87,0,2.285.037,4.636.111,6.986.064,2.045.158,4.149.279,6.262v75.497c0,.47.038.93.07,1.392v224.068h399.471v-234.562h-359.541ZM659.99,699.921h-319.471v-154.562h319.471v154.562Z" fill="#000" stroke-width="0"/>
</svg>