<?xml version="1.0" encoding="UTF-8"?>
<svg id="a" xmlns="http://www.w3.org/2000/svg" version="1.1" viewBox="0 0 1000 1000">
  <!-- Generator: Adobe Illustrator 30.0.0, SVG Export Plug-In . SVG Version: 2.1.1 Build 123)  -->
  <path d="M597.2,250c5.6,0,11.1.2,16.7.5-27.6,23.1-51.4,50.7-70.1,81.7-30.5,50.5-46.6,108.5-46.6,167.7s16.1,117.2,46.6,167.7c18.7,31,42.5,58.6,70.1,81.7-5.5.4-11.1.5-16.7.5-33.7,0-66.4-6.6-97.1-19.5-29.7-12.5-56.4-30.5-79.4-53.4-23-22.9-41-49.5-53.6-79.2-13.1-30.7-19.7-63.3-19.9-97-.1-33.8,6.4-66.5,19.4-97.4,12.6-29.9,30.6-56.7,53.6-79.8,23-23.1,49.8-41.2,79.6-53.9,30.8-13.1,63.6-19.7,97.3-19.7h0M597.2,200c-165.7,0-300.6,135.3-300,301.1.6,165.2,134.7,298.9,300,298.9s60.1-4.6,87.8-13.1c21.2-6.5,24.1-35.2,4.7-45.9-84.9-46.8-142.5-137.2-142.5-241s57.6-194.2,142.5-241c19.5-10.7,16.6-39.4-4.7-45.9-27.8-8.5-57.3-13.1-87.8-13.1h0Z"/>
</svg>