<?xml version="1.0" encoding="UTF-8"?>
<svg id="a" data-name="layer1" xmlns="http://www.w3.org/2000/svg" viewBox="0 0 500 500">
  <path d="M490.42,254.399c-.002-.122.003-.244-.002-.366-.044-3.373-1.432-6.718-4.142-9.147-.361-.323-.738-.616-1.123-.889-7.068-7.516-31.489-32.371-67.794-57.449-56.81-39.241-115.766-59.982-170.495-59.982s-113.686,20.741-170.495,59.982c-36.293,25.07-60.71,49.916-67.788,57.441-.386.273-.763.565-1.124.888-2.713,2.43-4.102,5.776-4.146,9.152-.005.121,0,.241-.003.362.002.122-.003.244.003.366.044,3.373,1.432,6.718,4.142,9.147.36.323.737.615,1.123.889,7.068,7.515,31.489,32.37,67.796,57.448,56.81,39.241,115.766,59.982,170.495,59.982s113.686-20.741,170.495-59.982c36.302-25.075,60.722-49.928,67.792-57.446.384-.272.76-.561,1.119-.882,2.713-2.43,4.102-5.776,4.146-9.152.005-.121,0-.241.002-.362ZM402.644,302.021c-66.263,45.625-121.287,55.202-155.779,55.202-62.49,0-119.206-30.02-155.78-55.202-26.834-18.477-47.084-37.143-57.688-47.627,10.607-10.487,30.856-29.151,57.687-47.626,66.264-45.626,121.288-55.203,155.78-55.203,62.49,0,119.205,30.02,155.779,55.203,26.832,18.476,47.082,37.141,57.688,47.627-10.607,10.487-30.856,29.151-57.686,47.626Z"/>
  <path d="M246.863,180.857c-40.435,0-73.331,32.896-73.331,73.332s32.896,73.331,73.331,73.331,73.332-32.896,73.332-73.331-32.896-73.332-73.332-73.332ZM246.863,302.52c-26.649,0-48.331-21.682-48.331-48.331s21.682-48.332,48.331-48.332,48.332,21.682,48.332,48.332-21.682,48.331-48.332,48.331Z"/>
</svg>