<?xml version="1.0" encoding="UTF-8"?>
<svg id="a" data-name="layer1" xmlns="http://www.w3.org/2000/svg" viewBox="0 0 500 500">
  <g>
    <path d="M112.94,165.94c27.52,0,49.91-22.39,49.91-49.91s-22.39-49.91-49.91-49.91-49.91,22.39-49.91,49.91,22.39,49.91,49.91,49.91ZM112.94,86.09c16.51,0,29.94,13.43,29.94,29.94s-13.43,29.94-29.94,29.94-29.94-13.43-29.94-29.94,13.43-29.94,29.94-29.94Z"/>
    <path d="M387.06,334.06c-27.52,0-49.91,22.39-49.91,49.91s22.39,49.91,49.91,49.91,49.91-22.39,49.91-49.91-22.39-49.91-49.91-49.91ZM387.06,413.91c-16.51,0-29.94-13.43-29.94-29.94s13.43-29.94,29.94-29.94,29.94,13.43,29.94,29.94-13.43,29.94-29.94,29.94Z"/>
  </g>
  <path d="M387.06,396.47h-57.06c-51,0-92.5-41.5-92.5-92.5v-107.94c0-37.22-30.28-67.5-67.5-67.5h-57.06c-6.9,0-12.5-5.6-12.5-12.5s5.6-12.5,12.5-12.5h57.06c51,0,92.5,41.5,92.5,92.5v107.94c0,37.22,30.28,67.5,67.5,67.5h57.06c6.9,0,12.5,5.6,12.5,12.5s-5.6,12.5-12.5,12.5Z"/>
</svg>