<?xml version="1.0" encoding="UTF-8"?>
<svg id="a" data-name="layer1" xmlns="http://www.w3.org/2000/svg" width="1000" height="1000" viewBox="0 0 1000 1000">
  <path d="M348.306,818.02c-5.171,0-10.342-1.667-14.648-5.063-9.014-7.1-11.669-19.603-6.313-29.729l105.41-199.49-132.145-46.647c-7.502-2.624-13.167-8.86-15.111-16.578-1.929-7.687.123-15.868,5.464-21.733l292.32-321.03c7.841-8.613,20.715-10.249,30.501-3.89,9.74,6.359,13.429,18.831,8.706,29.482l-88.261,198.688,155.915,78.104c7.039,3.55,11.87,10.342,12.889,18.152,1.019,7.78-1.899,15.59-7.795,20.807l-331.218,292.968c-4.476,3.952-10.095,5.958-15.713,5.958Z" fill="#000" stroke-width="0"/>
</svg>