<?xml version="1.0" encoding="UTF-8"?>
<svg id="a" data-name="layer1" xmlns="http://www.w3.org/2000/svg" viewBox="0 0 500 500">
  <path d="M112.94,165.94c27.52,0,49.91-22.39,49.91-49.91s-22.39-49.91-49.91-49.91-49.91,22.39-49.91,49.91,22.39,49.91,49.91,49.91ZM112.94,86.09c16.51,0,29.94,13.43,29.94,29.94s-13.43,29.94-29.94,29.94-29.94-13.43-29.94-29.94,13.43-29.94,29.94-29.94Z"/>
  <path d="M250,165.94c27.52,0,49.91-22.39,49.91-49.91s-22.39-49.91-49.91-49.91-49.91,22.39-49.91,49.91,22.39,49.91,49.91,49.91ZM250,86.09c16.51,0,29.94,13.43,29.94,29.94s-13.43,29.94-29.94,29.94-29.94-13.43-29.94-29.94,13.43-29.94,29.94-29.94Z"/>
  <path d="M397.41,201.18c.58-11.39.86-23.57.86-36.52,22.14-5.1,38.71-24.96,38.71-48.62,0-27.52-22.39-49.91-49.91-49.91s-49.91,22.39-49.91,49.91c0,24.53,17.8,44.97,41.15,49.12,0,12.77-.28,24.74-.86,35.88-22.93,4.49-40.29,24.74-40.29,48.97,0,16.93,8.48,31.91,21.41,40.93-4.07,6.82-9.15,12.22-15.45,14.39-15.32,5.28-35.92-8.58-53.44-25.11,6.41-8.39,10.22-18.87,10.22-30.22,0-27.52-22.39-49.91-49.91-49.91s-49.91,22.39-49.91,49.91,22.39,49.91,49.91,49.91c8.92,0,17.29-2.36,24.54-6.48.51.49,1.01.97,1.52,1.46,22.23,20.99,42.35,31.55,60.01,31.55,4.68,0,9.2-.74,13.53-2.23,10.97-3.77,20.13-12.25,27.39-25.32,3.26.67,6.63,1.02,10.08,1.02,27.52,0,49.91-22.39,49.91-49.91,0-23.97-16.99-44.04-39.56-48.82ZM220.06,250c0-16.51,13.43-29.94,29.94-29.94s29.94,13.43,29.94,29.94c0,5.74-1.62,11.1-4.43,15.65-7.5-8.34-13.64-16.16-17.36-21.42-3.18-4.5-9.41-5.57-13.91-2.39-4.5,3.18-5.57,9.41-2.39,13.91.41.58,7.37,10.37,18.12,22.47-3.12,1.11-6.48,1.71-9.97,1.71-16.51,0-29.94-13.43-29.94-29.94ZM357.12,116.03c0-16.51,13.43-29.94,29.94-29.94s29.94,13.43,29.94,29.94c0,12.64-7.88,23.47-18.99,27.86-.2-9.11-.53-18.55-.99-28.32-.26-5.51-4.93-9.76-10.44-9.5-5.51.26-9.76,4.93-9.5,10.44.46,9.72.78,19.08.98,28.1-12.13-3.83-20.95-15.18-20.95-28.56ZM357.12,250c0-12.57,7.79-23.34,18.79-27.78-1.46,15.17-3.57,28.43-6.34,39.72-.8,3.24-1.73,6.63-2.81,10.03-5.92-5.47-9.63-13.3-9.63-21.97ZM387.06,279.94c-.64,0-1.27-.03-1.9-.07,1.37-4.12,2.64-8.5,3.78-13.16,3.15-12.83,5.51-27.96,7.06-45.3,12.16,3.81,21,15.18,21,28.58,0,16.51-13.43,29.94-29.94,29.94Z"/>
  <path d="M250,334.06c-27.52,0-49.91,22.39-49.91,49.91,0,1.9.12,3.78.33,5.63-12.56.96-23.57-1.47-32.95-7.33-1.7-1.06-3.33-2.24-4.9-3.49-1.72-16.54-11.54-30.69-25.42-38.43-4.31-11.34-7.24-23.15-9.21-33.66-.55-2.93-1.04-5.82-1.48-8.67,20.97-5.91,36.38-25.2,36.38-48.03,0-27.52-22.39-49.91-49.91-49.91s-49.91,22.39-49.91,49.91c0,25.32,18.96,46.28,43.42,49.47,1.65,10.99,4.05,22.86,7.55,34.62-.35,0-.7-.03-1.06-.03-27.52,0-49.91,22.39-49.91,49.91s22.39,49.91,49.91,49.91c21.56,0,39.97-13.74,46.93-32.93,10.59,5.92,22.34,8.89,35.19,8.89,3.84,0,7.78-.28,11.81-.81,8.66,14.84,24.74,24.85,43.13,24.85,27.52,0,49.91-22.39,49.91-49.91s-22.39-49.91-49.91-49.91ZM82.99,250c0-16.51,13.43-29.94,29.94-29.94s29.94,13.43,29.94,29.94c0,12.58-7.81,23.37-18.83,27.8-1.38-16.09-1.14-27.38-1.14-27.55.14-5.51-4.22-10.09-9.73-10.23-.09,0-.17,0-.26,0-5.39,0-9.84,4.3-9.97,9.73-.04,1.43-.26,12.79,1.08,28.84-12.18-3.8-21.04-15.18-21.04-28.59ZM112.94,413.91c-16.51,0-29.94-13.43-29.94-29.94s13.43-29.94,29.94-29.94c3.07,0,6.03.47,8.82,1.33,5.33,12.02,12.15,23.18,20.9,32.23-1.79,14.81-14.43,26.33-29.72,26.33ZM250,413.91c-8.73,0-16.61-3.76-22.09-9.75,8.54-2.77,17.43-6.54,26.68-11.34,4.89-2.54,6.8-8.56,4.26-13.46-2.54-4.89-8.56-6.8-13.46-4.26-8.9,4.62-17.34,8.14-25.29,10.59-.03-.57-.05-1.15-.05-1.73,0-16.51,13.43-29.94,29.94-29.94s29.94,13.43,29.94,29.94-13.43,29.94-29.94,29.94Z"/>
  <path d="M387.06,334.06c-27.52,0-49.91,22.39-49.91,49.91s22.39,49.91,49.91,49.91,49.91-22.39,49.91-49.91-22.39-49.91-49.91-49.91ZM387.06,413.91c-16.51,0-29.94-13.43-29.94-29.94s13.43-29.94,29.94-29.94,29.94,13.43,29.94,29.94-13.43,29.94-29.94,29.94Z"/>
</svg>