<?xml version="1.0" encoding="UTF-8"?>
<svg id="a" data-name="layer1" xmlns="http://www.w3.org/2000/svg" width="1000" height="1000" viewBox="0 0 1000 1000">
  <path d="M619.353,204.678h.005-.005M551.533,279.16l-47.368,106.631c-8.676,19.53-.467,42.431,18.64,52.002l134.368,67.31-246.206,217.773,63.646-120.451c5.434-10.283,6.123-22.421,1.888-33.252s-12.973-19.284-23.94-23.154l-108.99-38.473,207.962-228.387M607.296,170c-6.481,0-12.882,2.654-17.522,7.75l-292.32,321.03c-5.341,5.866-7.394,14.047-5.464,21.733,1.945,7.718,7.61,13.954,15.111,16.578l132.145,46.646-105.41,199.49c-5.356,10.126-2.702,22.628,6.313,29.729,4.307,3.396,9.478,5.063,14.648,5.063,5.619,0,11.237-2.007,15.713-5.958l331.218-292.969c5.896-5.217,8.813-13.028,7.795-20.807-1.019-7.811-5.85-14.602-12.889-18.152l-155.916-78.104,88.261-198.688c4.724-10.65,1.034-23.123-8.706-29.482-3.996-2.597-8.506-3.86-12.979-3.86h0Z" fill="#000" stroke-width="0"/>
</svg>