<?xml version="1.0" encoding="UTF-8"?>
<svg id="a" data-name="layer1" xmlns="http://www.w3.org/2000/svg" viewBox="0 0 500 500">
  <path d="M434.395,143.077h-184.023l-11.815-47.529c-1.385-5.572-6.389-9.484-12.131-9.484H79.778c-5.742,0-10.746,3.912-12.131,9.484l-14.173,57.014c-.016.062-.021.126-.036.189-.068.294-.122.593-.169.895-.025.156-.053.311-.072.468-.033.286-.049.576-.063.867-.008.167-.024.333-.025.5,0,.033-.005.064-.005.097v245.859c0,6.903,5.597,12.5,12.5,12.5h368.789c6.903,0,12.5-5.597,12.5-12.5v-245.859c0-6.903-5.597-12.5-12.5-12.5ZM89.551,111.063h127.102l7.958,32.014H81.593l7.958-32.014ZM421.895,388.936H78.105v-220.859h343.789v220.859Z"/>
</svg>