<?xml version="1.0" encoding="UTF-8"?>
<svg id="a" data-name="layer1" xmlns="http://www.w3.org/2000/svg" viewBox="0 0 500 500">
  <path d="M461.49,127.03H38.51c-6.9,0-12.5,5.6-12.5,12.5v220.93c0,6.9,5.6,12.5,12.5,12.5h422.99c6.9,0,12.5-5.6,12.5-12.5v-220.93c0-6.9-5.6-12.5-12.5-12.5ZM448.99,347.97H51.01v-195.93h397.99v195.93Z"/>
  <rect x="65.05" y="163.93" width="50" height="50" rx="12.5" ry="12.5"/>
  <rect x="129.48" y="163.93" width="50" height="50" rx="12.5" ry="12.5"/>
  <rect x="193.92" y="163.93" width="50" height="50" rx="12.5" ry="12.5"/>
  <rect x="258.35" y="163.93" width="50" height="50" rx="12.5" ry="12.5"/>
  <rect x="322.78" y="163.93" width="50" height="50" rx="12.5" ry="12.5"/>
  <rect x="387.22" y="163.93" width="50" height="50" rx="12.5" ry="12.5"/>
  <rect x="65.05" y="225.38" width="50" height="50" rx="12.5" ry="12.5"/>
  <rect x="129.48" y="225.38" width="50" height="50" rx="12.5" ry="12.5"/>
  <rect x="193.92" y="225.38" width="50" height="50" rx="12.5" ry="12.5"/>
  <rect x="258.35" y="225.38" width="50" height="50" rx="12.5" ry="12.5"/>
  <rect x="322.78" y="225.38" width="50" height="50" rx="12.5" ry="12.5"/>
  <rect x="387.22" y="225.38" width="50" height="50" rx="12.5" ry="12.5"/>
  <rect x="65.05" y="286.83" width="50" height="50" rx="12.5" ry="12.5"/>
  <rect x="129.48" y="286.83" width="243.3" height="50" rx="12.5" ry="12.5"/>
  <rect x="387.22" y="286.83" width="50" height="50" rx="12.5" ry="12.5"/>
</svg>