<?xml version="1.0" encoding="UTF-8"?>
<svg id="c" data-name="レイヤー 4" xmlns="http://www.w3.org/2000/svg" viewBox="0 0 500 500">
  <path d="M365.646,111.728h-78.5v-9.065c0-20.482-16.664-37.146-37.146-37.146s-37.146,16.664-37.146,37.146v9.065h-78.5c-6.904,0-12.5,5.597-12.5,12.5v56.914c0,6.903,5.596,12.5,12.5,12.5h7.791v222.702c0,6.903,5.597,12.5,12.5,12.5h190.711c6.903,0,12.5-5.597,12.5-12.5v-222.702h7.791c6.903,0,12.5-5.597,12.5-12.5v-56.914c0-6.903-5.597-12.5-12.5-12.5ZM237.854,102.663c0-6.697,5.449-12.146,12.146-12.146s12.146,5.449,12.146,12.146v9.022h-24.293v-9.022ZM332.855,403.845h-165.711v-210.202h165.711v210.202ZM353.146,168.642h-206.293v-31.914h206.293v31.914Z"/>
  <path d="M220.535,380.679c6.903,0,12.5-5.597,12.5-12.5v-140.673c0-6.903-5.597-12.5-12.5-12.5s-12.5,5.597-12.5,12.5v140.673c0,6.903,5.597,12.5,12.5,12.5Z"/>
  <path d="M279.465,380.679c6.903,0,12.5-5.597,12.5-12.5v-140.673c0-6.903-5.597-12.5-12.5-12.5s-12.5,5.597-12.5,12.5v140.673c0,6.903,5.597,12.5,12.5,12.5Z"/>
</svg>