<?xml version="1.0" encoding="UTF-8"?>
<svg id="a" xmlns="http://www.w3.org/2000/svg" version="1.1" viewBox="0 0 1000 1000">
  <!-- Generator: Adobe Illustrator 30.0.0, SVG Export Plug-In . SVG Version: 2.1.1 Build 123)  -->
  <path d="M500,263.1c-138.1,0-250,111.9-250,250s111.9,250,250,250,250-111.9,250-250-111.9-250-250-250h0Z"/>
  <path d="M500,219.3c-13.8,0-25-11.2-25-25v-73.4c0-13.8,11.2-25,25-25s25,11.2,25,25v73.4c0,13.8-11.2,25-25,25Z"/>
  <path d="M340.6,262.1c-8.6,0-17-4.5-21.7-12.5l-36.7-63.5c-6.9-12-2.8-27.2,9.2-34.2,12-6.9,27.2-2.8,34.2,9.2l36.7,63.5c6.9,12,2.8,27.2-9.2,34.2-3.9,2.3-8.2,3.4-12.5,3.4h0Z"/>
  <path d="M223.9,378.7c-4.2,0-8.5-1.1-12.5-3.4l-63.5-36.7c-12-6.9-16.1-22.2-9.2-34.2,6.9-12,22.2-16.1,34.2-9.2l63.5,36.7c12,6.9,16.1,22.2,9.2,34.2s-13,12.5-21.7,12.5h0Z"/>
  <path d="M181.2,538.1h-73.4c-13.8,0-25-11.2-25-25s11.2-25,25-25h73.4c13.8,0,25,11.2,25,25s-11.2,25-25,25Z"/>
  <path d="M160.4,734.2c-8.6,0-17-4.5-21.7-12.5-6.9-12-2.8-27.2,9.2-34.2l63.5-36.7c12-6.9,27.2-2.8,34.2,9.2,6.9,12,2.8,27.2-9.2,34.2l-63.5,36.7c-3.9,2.3-8.2,3.4-12.5,3.4h0Z"/>
  <path d="M303.9,877.8c-4.2,0-8.5-1.1-12.5-3.4-12-6.9-16.1-22.2-9.2-34.2l36.7-63.5c6.9-12,22.2-16.1,34.2-9.2,12,6.9,16.1,22.2,9.2,34.2l-36.7,63.5c-4.6,8-13,12.5-21.7,12.5h0Z"/>
  <path d="M500,930.3c-13.8,0-25-11.2-25-25v-73.4c0-13.8,11.2-25,25-25s25,11.2,25,25v73.4c0,13.8-11.2,25-25,25Z"/>
  <path d="M696.1,877.8c-8.6,0-17-4.5-21.7-12.5l-36.7-63.5c-6.9-12-2.8-27.2,9.2-34.2,12-6.9,27.2-2.8,34.2,9.2l36.7,63.5c6.9,12,2.8,27.2-9.2,34.2-3.9,2.3-8.2,3.4-12.5,3.4h0Z"/>
  <path d="M839.6,734.2c-4.2,0-8.5-1.1-12.5-3.4l-63.5-36.7c-12-6.9-16.1-22.2-9.2-34.2,6.9-12,22.2-16.1,34.2-9.2l63.5,36.7c12,6.9,16.1,22.2,9.2,34.2s-13,12.5-21.7,12.5h0Z"/>
  <path d="M892.2,538.1h-73.4c-13.8,0-25-11.2-25-25s11.2-25,25-25h73.4c13.8,0,25,11.2,25,25s-11.2,25-25,25Z"/>
  <path d="M776.1,378.7c-8.6,0-17-4.5-21.7-12.5-6.9-12-2.8-27.2,9.2-34.2l63.5-36.7c12-6.9,27.2-2.8,34.2,9.2,6.9,12,2.8,27.2-9.2,34.2l-63.5,36.7c-3.9,2.3-8.2,3.4-12.5,3.4h0Z"/>
  <path d="M659.4,262.1c-4.2,0-8.5-1.1-12.5-3.4-12-6.9-16.1-22.2-9.2-34.2l36.7-63.5c6.9-12,22.2-16.1,34.2-9.2,12,6.9,16.1,22.2,9.2,34.2l-36.7,63.5c-4.6,8-13,12.5-21.7,12.5h0Z"/>
</svg>