<?xml version="1.0" encoding="UTF-8"?>
<svg id="a" data-name="layer1" xmlns="http://www.w3.org/2000/svg" viewBox="0 0 500 500">
  <path d="M146.649,416.336h-34.872l43.711-43.711c3.575-3.575,4.645-8.951,2.709-13.622-1.935-4.671-6.493-7.717-11.548-7.717h-65.05c-6.904,0-12.5,5.597-12.5,12.5s5.596,12.5,12.5,12.5h34.872l-43.711,43.711c-3.575,3.575-4.645,8.951-2.709,13.622,1.935,4.671,6.493,7.717,11.548,7.717h65.05c6.904,0,12.5-5.597,12.5-12.5s-5.596-12.5-12.5-12.5Z"/>
  <path d="M245.139,288.254h-67.397l76.236-76.235c3.575-3.575,4.645-8.951,2.71-13.622-1.935-4.671-6.493-7.717-11.549-7.717h-97.575c-6.904,0-12.5,5.597-12.5,12.5s5.596,12.5,12.5,12.5h67.397l-76.236,76.235c-3.575,3.575-4.645,8.951-2.71,13.622,1.935,4.671,6.493,7.717,11.549,7.717h97.575c6.904,0,12.5-5.597,12.5-12.5s-5.596-12.5-12.5-12.5Z"/>
  <path d="M442.117,228.328h-116.185l125.023-125.023c3.575-3.575,4.645-8.951,2.709-13.622-1.935-4.671-6.492-7.717-11.548-7.717h-146.362c-6.904,0-12.5,5.597-12.5,12.5s5.596,12.5,12.5,12.5h116.185l-125.023,125.023c-3.575,3.575-4.645,8.951-2.71,13.622s6.493,7.717,11.549,7.717h146.362c6.904,0,12.5-5.597,12.5-12.5s-5.596-12.5-12.5-12.5Z"/>
</svg>