<?xml version="1.0" encoding="UTF-8"?>
<svg id="a" data-name="layer1" xmlns="http://www.w3.org/2000/svg" viewBox="0 0 1000 1000">
  <path d="M649.32,241.86h0,0M789.68,382.21h0,0M633.56,198.39c-7.09,0-14.18,2.71-19.59,8.12l-243.63,243.63c-65.13,65.13-88.28,147.46-60.76,201.1l-103.07,103.09c-10.82,10.82-10.82,28.35,0,39.17,5.41,5.41,12.5,8.12,19.59,8.12s14.18-2.71,19.59-8.12l103.24-103.25c14.87,7.62,31.7,11.78,50.01,11.78,47.76-.04,103.89-25.29,150.96-72.36l243.61-243.63c10.82-10.82,10.82-28.35,0-39.17-5.41-5.41-12.5-8.12-19.59-8.12s-14.18,2.71-19.59,8.12l-243.61,243.63c-38.15,38.11-80.76,56.01-111.63,56.01-14.48,0-26.37-3.94-34.01-11.57-23.92-23.92-11.56-89.64,44.44-145.62l243.63-243.63c10.82-10.82,10.82-28.35,0-39.17-5.41-5.41-12.5-8.12-19.59-8.12h0Z"/>
</svg>