<?xml version="1.0" encoding="UTF-8"?>
<svg id="c" data-name="レイヤー 4" xmlns="http://www.w3.org/2000/svg" viewBox="0 0 500 500">
  <path d="M390.644,56.114c-6.903,0-12.5,5.597-12.5,12.5,0,45.715-37.93,76.198-60.539,90.3-34.986,21.82-81.668,35.376-121.829,35.376h-86.421c-6.903,0-12.5,5.597-12.5,12.5v86.421c0,6.903,5.597,12.5,12.5,12.5h86.421c40.161,0,86.843,13.556,121.829,35.376,22.609,14.102,60.539,44.585,60.539,90.3,0,6.903,5.597,12.5,12.5,12.5s12.5-5.597,12.5-12.5V68.614c0-6.903-5.596-12.5-12.5-12.5ZM121.855,219.29h61.421v61.421h-61.421v-61.421ZM330.836,319.875c-35.733-22.287-80.691-36.408-122.559-38.799v-62.15c41.868-2.391,86.826-16.512,122.559-38.799,19.589-12.218,35.465-26.298,47.309-41.689v223.127c-11.844-15.391-27.719-29.471-47.309-41.689Z"/>
</svg>