<?xml version="1.0" encoding="UTF-8"?>
<svg id="a" data-name="layer1" xmlns="http://www.w3.org/2000/svg" viewBox="0 0 500 500">
  <path d="M447.92,52.08c-4.88-4.88-12.8-4.88-17.68,0L52.08,430.24c-4.88,4.88-4.88,12.8,0,17.68,2.44,2.44,5.64,3.66,8.84,3.66s6.4-1.22,8.84-3.66L447.92,69.76c4.88-4.88,4.88-12.8,0-17.68Z"/>
  <path d="M434.39,143.08h-40.37c-1.12,0-2.19.44-2.98,1.23l-16.58,16.58c-2.65,2.65-.77,7.18,2.98,7.18h40.25c2.32,0,4.21,1.88,4.21,4.21v216.65H148.16c-1.12,0-2.19.44-2.98,1.23l-16.58,16.58c-2.65,2.65-.77,7.18,2.98,7.18h302.82c6.9,0,12.5-5.6,12.5-12.5v-245.86c0-6.9-5.6-12.5-12.5-12.5Z"/>
  <path d="M60.29,404.35l16.58-16.58c.79-.79,1.23-1.86,1.23-2.98v-216.72h216.72c1.12,0,2.19-.44,2.98-1.23l16.58-16.58c2.65-2.65.77-7.18-2.98-7.18h-61.04l-11.82-47.53c-1.39-5.57-6.39-9.48-12.13-9.48H79.78c-5.74,0-10.75,3.91-12.13,9.48l-14.17,57.01c-.02.06-.02.13-.04.19-.07.29-.12.59-.17.9-.02.16-.05.31-.07.47-.03.29-.05.58-.06.87,0,.17-.02.33-.03.5,0,.03,0,.06,0,.1v245.86s0,.06,0,.08c.02,3.68,4.58,5.44,7.18,2.83ZM89.55,111.06h127.1l7.96,32.01H81.59l7.96-32.01Z"/>
</svg>