<?xml version="1.0" encoding="UTF-8"?>
<svg id="a" data-name="layer1" xmlns="http://www.w3.org/2000/svg" viewBox="0 0 500 500">
  <path d="M155.94,449.511c-3.232,0-6.464-1.042-9.155-3.164-5.634-4.438-7.293-12.252-3.946-18.581l65.881-124.681-82.59-29.154c-4.689-1.64-8.229-5.538-9.445-10.361-1.206-4.804.077-9.917,3.415-13.583L302.801,49.342c4.901-5.383,12.947-6.406,19.063-2.431,6.087,3.975,8.393,11.77,5.441,18.426l-55.163,124.18,97.447,48.815c4.399,2.219,7.419,6.464,8.055,11.345.637,4.862-1.187,9.744-4.872,13.005l-207.011,183.105c-2.798,2.47-6.309,3.724-9.821,3.724Z"/>
</svg>