<?xml version="1.0" encoding="UTF-8"?>
<svg id="c" data-name="レイヤー 4" xmlns="http://www.w3.org/2000/svg" viewBox="0 0 500 500">
  <path d="M446.498,97.536l-40.995-40.995c-6.207-6.206-14.459-9.625-23.236-9.625s-17.029,3.419-23.235,9.625l-77.858,77.858c-3.871,3.87-7.521,8.039-10.851,12.392l-121.75,159.168-48.792,48.792-2.468-2.468c-4.881-4.881-12.796-4.881-17.677,0l-4.011,4.011c-2.344,2.344-3.661,5.523-3.661,8.839s1.317,6.494,3.661,8.839l53.444,53.444c2.441,2.441,5.64,3.661,8.839,3.661s6.398-1.221,8.839-3.661l4.011-4.011c4.881-4.882,4.881-12.796,0-17.678l-2.469-2.469,48.792-48.792,159.168-121.749c4.347-3.324,8.517-6.976,12.394-10.852l77.857-77.858c12.812-12.812,12.812-33.659,0-46.472ZM428.82,126.33l-77.857,77.857c-3.098,3.099-6.431,6.017-9.905,8.673l-159.826,122.253c-.438.336-.854.699-1.245,1.09l-53.389,53.389-13.152-13.152,53.389-53.389c.39-.391.754-.806,1.089-1.244l122.253-159.825c2.662-3.479,5.579-6.812,8.672-9.904l77.858-77.858c3.065-3.064,8.052-3.063,11.116,0l40.995,40.995c1.485,1.484,2.303,3.458,2.303,5.558s-.818,4.074-2.303,5.559Z"/>
</svg>