<?xml version="1.0" encoding="UTF-8"?>
<svg id="a" data-name="layer1" xmlns="http://www.w3.org/2000/svg" viewBox="0 0 500 500">
  <path d="M221.08,62.39h-116.91c-6.9,0-12.5,5.6-12.5,12.5v350.22c0,6.9,5.6,12.5,12.5,12.5h116.91c6.9,0,12.5-5.6,12.5-12.5V74.89c0-6.9-5.6-12.5-12.5-12.5ZM208.58,87.39v150.11h-91.91V87.39h91.91ZM116.67,412.61v-150.11h91.91v150.11h-91.91Z"/>
  <path d="M395.83,62.39h-116.91c-6.9,0-12.5,5.6-12.5,12.5v350.22c0,6.9,5.6,12.5,12.5,12.5h116.91c6.9,0,12.5-5.6,12.5-12.5V74.89c0-6.9-5.6-12.5-12.5-12.5ZM383.33,412.61h-91.91V87.39h91.91v325.22Z"/>
  <path d="M315.25,123.07h45.62c6.9,0,12.5-5.6,12.5-12.5s-5.6-12.5-12.5-12.5h-45.62c-6.9,0-12.5,5.6-12.5,12.5s5.6,12.5,12.5,12.5Z"/>
  <path d="M131.97,144.64h61.31c6.9,0,12.5-5.6,12.5-12.5s-5.6-12.5-12.5-12.5h-61.31c-6.9,0-12.5,5.6-12.5,12.5s5.6,12.5,12.5,12.5Z"/>
  <path d="M131.97,203.57h61.31c6.9,0,12.5-5.6,12.5-12.5s-5.6-12.5-12.5-12.5h-61.31c-6.9,0-12.5,5.6-12.5,12.5s5.6,12.5,12.5,12.5Z"/>
  <path d="M193.28,296.43h-61.31c-6.9,0-12.5,5.6-12.5,12.5s5.6,12.5,12.5,12.5h61.31c6.9,0,12.5-5.6,12.5-12.5s-5.6-12.5-12.5-12.5Z"/>
  <path d="M193.28,355.36h-61.31c-6.9,0-12.5,5.6-12.5,12.5s5.6,12.5,12.5,12.5h61.31c6.9,0,12.5-5.6,12.5-12.5s-5.6-12.5-12.5-12.5Z"/>
  <path d="M315.25,191.5h45.62c6.9,0,12.5-5.6,12.5-12.5s-5.6-12.5-12.5-12.5h-45.62c-6.9,0-12.5,5.6-12.5,12.5s5.6,12.5,12.5,12.5Z"/>
  <path d="M315.25,259.94h45.62c6.9,0,12.5-5.6,12.5-12.5s-5.6-12.5-12.5-12.5h-45.62c-6.9,0-12.5,5.6-12.5,12.5s5.6,12.5,12.5,12.5Z"/>
  <path d="M315.25,328.37h45.62c6.9,0,12.5-5.6,12.5-12.5s-5.6-12.5-12.5-12.5h-45.62c-6.9,0-12.5,5.6-12.5,12.5s5.6,12.5,12.5,12.5Z"/>
  <path d="M315.25,396.81h45.62c6.9,0,12.5-5.6,12.5-12.5s-5.6-12.5-12.5-12.5h-45.62c-6.9,0-12.5,5.6-12.5,12.5s5.6,12.5,12.5,12.5Z"/>
</svg>