<?xml version="1.0" encoding="UTF-8"?>
<svg id="a" data-name="layer1" xmlns="http://www.w3.org/2000/svg" viewBox="0 0 500 500">
  <path d="M122.43,237.24h115.07v-114.76c0-6.39,5.19-12.25,11.57-12.71,7.32-.53,13.43,5.25,13.43,12.46v115.01s114.79,0,114.79,0c6.39,0,12.25,5.19,12.71,11.57.53,7.32-5.25,13.43-12.46,13.43h-115.04s0,117.3,0,117.3c0,2.42-1.56,5.63-3.5,7.08-10.27,7.67-21.51.51-21.51-9.28v-115.11h-117.26c-2.42,0-5.63-1.55-7.08-3.49-7.67-10.27-.51-21.51,9.28-21.51Z"/>
  <path d="M250,43.86c113.85,0,206.14,92.29,206.14,206.14s-92.29,206.14-206.14,206.14S43.86,363.85,43.86,250,136.15,43.86,250,43.86ZM121.91,378.09c16.64,16.64,36.02,29.71,57.59,38.83,22.32,9.44,46.04,14.22,70.5,14.22s48.19-4.79,70.5-14.22c21.57-9.12,40.94-22.19,57.59-38.83,16.64-16.64,29.71-36.02,38.83-57.59,9.44-22.32,14.22-46.04,14.22-70.5s-4.79-48.19-14.22-70.5c-9.12-21.57-22.19-40.94-38.83-57.59-16.64-16.64-36.02-29.71-57.59-38.83-22.32-9.44-46.04-14.22-70.5-14.22s-48.19,4.79-70.5,14.22c-21.57,9.12-40.94,22.19-57.59,38.83-16.64,16.64-29.71,36.02-38.83,57.59-9.44,22.32-14.22,46.04-14.22,70.5s4.79,48.18,14.22,70.5c9.12,21.57,22.19,40.94,38.83,57.59Z"/>
</svg>