<?xml version="1.0" encoding="UTF-8"?>
<svg id="a" data-name="layer1" xmlns="http://www.w3.org/2000/svg" viewBox="0 0 500 500">
  <path d="M413.93,106.651c-13.678-13.678-31.863-21.211-51.206-21.211s-37.528,7.533-51.206,21.211l-79.118,79.118c-3.413-.488-6.882-.743-10.391-.743-19.343,0-37.528,7.533-51.206,21.211l-84.734,84.734c-13.678,13.678-21.21,31.862-21.21,51.206s7.533,37.528,21.21,51.206c14.118,14.117,32.662,21.176,51.206,21.176s37.088-7.059,51.206-21.176l79.149-79.149c3.434.492,6.897.739,10.36.739,18.544,0,37.088-7.059,51.206-21.176l84.734-84.735c13.678-13.678,21.21-31.862,21.21-51.205s-7.533-37.528-21.21-51.206ZM259.609,286.322c-5.591-2.351-10.729-5.784-15.147-10.202h0c-8.956-8.957-13.888-20.863-13.888-33.528,0-10.586,3.457-20.634,9.816-28.88,5.592,2.351,10.73,5.785,15.148,10.203,8.956,8.956,13.888,20.862,13.888,33.528,0,10.585-3.457,20.633-9.817,28.879ZM170.803,375.706c-8.956,8.956-20.863,13.888-33.528,13.888s-24.573-4.932-33.528-13.888h0c-8.956-8.957-13.888-20.863-13.888-33.528s4.932-24.572,13.888-33.528l84.734-84.734c6.767-6.767,15.22-11.233,24.411-13.014-13.113,26.998-8.495,60.509,13.892,82.896,4.478,4.478,9.403,8.239,14.63,11.297l-70.611,70.611ZM396.253,191.385l-84.734,84.735c-6.756,6.756-15.193,11.219-24.366,13.005,4.751-9.748,7.274-20.519,7.274-31.683,0-19.343-7.533-37.527-21.21-51.205-4.435-4.436-9.35-8.212-14.619-11.309l70.6-70.6c8.956-8.956,20.863-13.889,33.528-13.889s24.572,4.933,33.528,13.889,13.888,20.862,13.888,33.528-4.932,24.571-13.888,33.527Z"/>
</svg>