<?xml version="1.0" encoding="UTF-8"?>
<svg id="a" data-name="layer1" xmlns="http://www.w3.org/2000/svg" width="1000" height="1000" viewBox="0 0 1000 1000">
  <path d="M698.034,425.716c0-56.913-20.615-110.493-58.048-150.87-37.821-40.795-88.227-63.263-141.932-63.263s-104.109,22.467-141.932,63.263c-37.433,40.376-58.048,93.957-58.048,150.87,0,4.256.132,8.709.392,13.247v75.498c0,.466.038.923.07,1.382v224.078h399.471v-224.938c.005-.175.026-.346.026-.522v-88.745ZM498.055,251.583c88.213,0,159.979,78.115,159.979,174.132v79.643h-319.567v-66.979c0-.397-.012-.795-.035-1.192-.236-3.957-.356-7.817-.356-11.472,0-96.017,71.767-174.132,159.979-174.132ZM658.008,699.921h-319.471v-154.562h319.471v154.562Z" fill="#000" stroke-width="0"/>
</svg>