<?xml version="1.0" encoding="UTF-8"?>
<svg id="a" data-name="layer1" xmlns="http://www.w3.org/2000/svg" viewBox="0 0 500 500">
  <path d="M331.78,123.15c-29.96,0-54.33,24.37-54.33,54.33,0,2.62.2,5.2.56,7.72-12.04-7.24-26.12-11.41-41.16-11.41-37.24,0-68.63,25.54-77.56,60.03-5.64-1.01-11.44-1.54-17.37-1.54-54.06,0-98.04,43.98-98.04,98.04s43.98,98.04,98.04,98.04,96.06-42.04,97.97-94.43c42.77-1.61,77.07-36.88,77.07-80.04,0-8.93-1.49-17.51-4.2-25.54,5.92,2.22,12.33,3.44,19.01,3.44,29.96,0,54.33-24.37,54.33-54.33s-24.37-54.33-54.33-54.33ZM141.92,403.37c-40.28,0-73.04-32.77-73.04-73.04s32.77-73.04,73.04-73.04c5.13,0,10.15.54,14.98,1.55,2.1,34.41,26.01,62.99,58.05,72.12-.34,39.99-32.96,72.42-73.03,72.42ZM184.46,271c10.69,7.69,19.24,18.19,24.53,30.42-11.48-6.76-20.31-17.55-24.53-30.42ZM237.62,308.99c-6.69-30.02-27.17-54.9-54.44-67.6,5.68-24.38,27.58-42.61,53.67-42.61,30.39,0,55.11,24.72,55.11,55.11s-24.31,54.68-54.34,55.09ZM331.78,206.8c-16.17,0-29.33-13.16-29.33-29.33s13.16-29.33,29.33-29.33,29.33,13.16,29.33,29.33-13.16,29.33-29.33,29.33Z"/>
  <path d="M412.53,71.63c-24.04,0-43.6,19.56-43.6,43.6s19.56,43.6,43.6,43.6,43.6-19.56,43.6-43.6-19.56-43.6-43.6-43.6ZM412.53,133.83c-10.25,0-18.6-8.34-18.6-18.6s8.34-18.6,18.6-18.6,18.6,8.34,18.6,18.6-8.34,18.6-18.6,18.6Z"/>
</svg>