<?xml version="1.0" encoding="UTF-8"?>
<svg id="a" data-name="layer1" xmlns="http://www.w3.org/2000/svg" viewBox="0 0 500 500">
  <path d="M387.064,334.063c-23.203,0-42.758,15.917-48.32,37.406h-8.744c-37.22,0-67.5-30.28-67.5-67.5v-107.938c0-51.005-41.495-92.5-92.5-92.5h-8.744c-5.562-21.489-25.116-37.406-48.32-37.406-27.518,0-49.906,22.388-49.906,49.906s22.387,49.906,49.906,49.906c23.203,0,42.757-15.917,48.32-37.405h8.744c37.22,0,67.5,30.28,67.5,67.5v107.938c0,51.005,41.495,92.5,92.5,92.5h8.744c5.562,21.488,25.117,37.405,48.32,37.405,27.518,0,49.906-22.387,49.906-49.906s-22.387-49.906-49.906-49.906ZM112.936,145.975c-16.511,0-29.943-13.432-29.943-29.943s13.432-29.943,29.943-29.943c12.05,0,22.454,7.159,27.199,17.444h-27.199c-6.903,0-12.5,5.597-12.5,12.5s5.597,12.5,12.5,12.5h27.199c-4.746,10.284-15.149,17.443-27.199,17.443ZM387.064,413.913c-12.05,0-22.453-7.159-27.199-17.443h27.199c6.903,0,12.5-5.597,12.5-12.5s-5.597-12.5-12.5-12.5h-27.199c4.745-10.285,15.149-17.444,27.199-17.444,16.511,0,29.943,13.433,29.943,29.943s-13.432,29.944-29.943,29.944Z"/>
</svg>