<?xml version="1.0" encoding="UTF-8"?>
<svg id="a" data-name="layer1" xmlns="http://www.w3.org/2000/svg" viewBox="0 0 500 500">
  <g>
    <path d="M112.94,165.94c27.52,0,49.91-22.39,49.91-49.91s-22.39-49.91-49.91-49.91-49.91,22.39-49.91,49.91,22.39,49.91,49.91,49.91ZM112.94,86.09c16.51,0,29.94,13.43,29.94,29.94s-13.43,29.94-29.94,29.94-29.94-13.43-29.94-29.94,13.43-29.94,29.94-29.94Z"/>
    <path d="M387.06,334.06c-27.52,0-49.91,22.39-49.91,49.91s22.39,49.91,49.91,49.91,49.91-22.39,49.91-49.91-22.39-49.91-49.91-49.91ZM387.06,413.91c-16.51,0-29.94-13.43-29.94-29.94s13.43-29.94,29.94-29.94,29.94,13.43,29.94,29.94-13.43,29.94-29.94,29.94Z"/>
  </g>
  <path d="M112.94,116.03h57.06c44.18,0,80,35.82,80,80v107.94c0,44.18,35.82,80,80,80h57.06" fill="none" stroke="#000" stroke-linecap="round" stroke-linejoin="round" stroke-width="25"/>
</svg>