<?xml version="1.0" encoding="UTF-8"?>
<svg id="c" data-name="レイヤー 4" xmlns="http://www.w3.org/2000/svg" viewBox="0 0 500 500">
  <path d="M441.861,400.465l-59.041-334.835c-1.2-6.798-7.682-11.332-14.481-10.14l-87.699,15.463c-2.243-2.135-5.27-3.454-8.61-3.454H72.029c-6.903,0-12.5,5.597-12.5,12.5v340c0,6.903,5.597,12.5,12.5,12.5h200c6.903,0,12.5-5.597,12.5-12.5v-191.958l34.23,194.129c1.07,6.064,6.344,10.331,12.296,10.331.721,0,1.451-.062,2.186-.191l98.48-17.364c3.265-.576,6.167-2.425,8.068-5.141s2.646-6.075,2.071-9.341ZM84.529,92.5h89.174v315h-89.174V92.5ZM259.529,407.5h-60.826V92.5h60.826v315ZM341.209,405.519l-54.7-310.215,73.86-13.023,54.7,310.215-73.86,13.023Z"/>
</svg>