<?xml version="1.0" encoding="UTF-8"?>
<svg id="a" data-name="layer1" xmlns="http://www.w3.org/2000/svg" viewBox="0 0 500 500">
  <path d="M423.545,158.364c-4.835-4.185-12.659-3.71-17.181.811l-55.135,55.135-20.376-135.617c-1.427-12.679-12.042-22.193-24.843-22.193h-121.063c-12.794,0-23.403,9.51-24.83,22.182l-37.159,247.318h-.46v3.203l-13.03,86.722-.08.641c-.685,7.006,1.635,14.015,6.364,19.229,4.729,5.214,11.479,8.205,18.518,8.205h222.446c7.039,0,13.789-2.99,18.518-8.205,4.729-5.214,7.049-12.223,6.364-19.229l-.031-.322-25.722-171.197,68.375-68.375c5.098-5.098,4.872-13.504-.678-18.309ZM184.82,82.141l.08-.641h120.961l.031.321,23.195,154.378-89.801,89.801h-91.105l36.639-243.859ZM133.943,419l10.217-68h202.448l10.217,68h-222.881ZM342.634,326h-67.993l59.112-59.112,8.881,59.112Z"/>
</svg>