<?xml version="1.0" encoding="UTF-8"?>
<svg id="a" data-name="layer1" xmlns="http://www.w3.org/2000/svg" viewBox="0 0 500 500">
  <path d="M406.481,93.518c-20.844-20.842-62.002-14.148-116.219,18.768-12.781-3.743-26.292-5.76-40.268-5.76-79.112,0-143.475,64.366-143.475,143.483,0,13.974,2.017,27.484,5.76,40.264-32.912,54.213-39.603,95.368-18.762,116.208,7.962,7.962,18.884,11.906,32.371,11.905,21.815,0,50.338-10.333,83.841-30.67,12.78,3.743,26.291,5.759,40.265,5.759,79.117,0,143.484-64.358,143.484-143.466,0-13.979-2.018-27.493-5.763-40.277,32.913-54.216,39.606-95.372,18.765-116.214ZM388.804,111.196c8.132,8.132,6.356,32.212-13.273,69.394-13.073-23.546-32.575-43.047-56.123-56.119,37.185-19.631,61.267-21.405,69.396-13.275ZM249.995,131.526c49.986,0,92.841,31.115,110.216,74.993-18.073,27.817-41.961,56.845-69.405,84.288s-56.469,51.331-84.289,69.405c-43.88-17.37-74.998-60.221-74.998-110.203,0-65.332,53.147-118.483,118.475-118.483ZM111.196,388.803c-8.132-8.131-6.356-32.208,13.271-69.387,13.072,23.545,32.574,43.045,56.121,56.116-37.18,19.628-61.261,21.404-69.391,13.271ZM249.995,368.475c-3.607,0-7.174-.171-10.7-.488,23.213-16.85,46.744-37.057,69.189-59.502,22.447-22.448,42.655-45.98,59.505-69.193.318,3.532.49,7.104.49,10.718,0,65.322-53.152,118.466-118.484,118.466Z"/>
</svg>