<?xml version="1.0" encoding="UTF-8"?>
<svg id="a" data-name="layer1" xmlns="http://www.w3.org/2000/svg" viewBox="0 0 500 500">
  <path d="M155.28,227.32c25.51,10.02,59.15,15.54,94.72,15.54s69.22-5.52,94.72-15.54c29.2-11.47,45.28-28.15,45.28-46.96s-16.08-35.49-45.28-46.96c-22.44-8.82-51.18-14.14-81.99-15.3v-17.82c0-6.9-5.7-12.5-12.73-12.5s-12.73,5.6-12.73,12.5v17.82c-30.81,1.15-59.55,6.48-81.99,15.3-29.2,11.47-45.28,28.15-45.28,46.96s16.08,35.49,45.28,46.96ZM164.73,156.61c19.59-7.69,44.99-12.38,72.54-13.49v21.74c0,6.9,5.7,12.5,12.73,12.5s12.73-5.6,12.73-12.5v-21.74c27.56,1.11,52.95,5.8,72.54,13.49,17.78,6.99,29.28,16.31,29.28,23.75s-11.49,16.76-29.28,23.75c-22.57,8.87-52.85,13.75-85.27,13.75s-62.7-4.88-85.27-13.75c-17.78-6.99-29.28-16.31-29.28-23.75s11.49-16.76,29.28-23.75Z"/>
  <path d="M377.27,214.08c-7.03,0-12.73,5.6-12.73,12.5,0,7.44-11.49,16.76-29.28,23.75-22.57,8.87-52.85,13.75-85.27,13.75s-62.7-4.88-85.27-13.75c-17.78-6.99-29.28-16.31-29.28-23.75,0-6.9-5.7-12.5-12.73-12.5s-12.73,5.6-12.73,12.5c0,18.81,16.08,35.49,45.28,46.96,22.46,8.82,51.22,14.15,82.05,15.3-.03.37-.06.74-.06,1.12v42.88l-80.56,45.83c-6.08,3.46-8.16,11.11-4.63,17.08,2.36,4,6.63,6.24,11.03,6.24,2.16,0,4.36-.54,6.37-1.69l67.8-38.57v37.99c0,6.9,5.7,12.5,12.73,12.5s12.73-5.6,12.73-12.5v-37.99l67.8,38.57c2.01,1.14,4.2,1.69,6.37,1.69,4.39,0,8.66-2.24,11.03-6.24,3.52-5.97,1.45-13.62-4.63-17.08l-80.56-45.83v-42.88c0-.38-.02-.75-.06-1.12,30.84-1.15,59.6-6.48,82.05-15.3,29.2-11.47,45.28-28.15,45.28-46.96,0-6.9-5.7-12.5-12.73-12.5Z"/>
</svg>