<?xml version="1.0" encoding="UTF-8"?>
<svg id="a" data-name="layer1" xmlns="http://www.w3.org/2000/svg" viewBox="0 0 500 500">
  <path d="M452.915,245.93c.038-.116.084-.23.119-.347.021-.072.038-.146.059-.22.051-.187.093-.376.135-.565.004-.019.009-.037.013-.055.026-.119.063-.237.085-.357.014-.07.021-.141.033-.21.031-.18.052-.36.075-.541.009-.072.022-.143.03-.214.009-.081.026-.162.034-.243.006-.067.006-.135.011-.202.014-.186.017-.373.022-.561.004-.139.018-.276.017-.415,0-.012.001-.025.001-.037,0-.063-.007-.126-.008-.189-.004-.211-.022-.422-.037-.634-.004-.058-.005-.116-.01-.174-.006-.073-.005-.147-.013-.22-.006-.058-.016-.116-.023-.174-.028-.235-.071-.47-.112-.705-.02-.111-.032-.225-.054-.335-.012-.056-.024-.111-.037-.167-.051-.23-.116-.458-.181-.687-.032-.114-.058-.229-.093-.342-.012-.039-.019-.078-.031-.117-11.911-37.121-24.227-75.507-39.687-104.416-19.115-35.746-41.273-53.123-67.739-53.123s-48.623,17.377-67.739,53.123c-14.694,27.479-26.547,63.518-37.915,98.902-21.544,8.839-43.576,16.659-85.395,16.659-45.272,0-67.354-9.164-90.733-18.865-.029-.012-.059-.02-.087-.031-.076-.031-.153-.059-.23-.088-.181-.069-.365-.129-.55-.19-.131-.043-.262-.095-.394-.134-.073-.021-.147-.038-.22-.058-.169-.046-.34-.084-.512-.123-.156-.036-.312-.082-.468-.112-.069-.013-.139-.019-.208-.031-.16-.028-.321-.046-.481-.068-.174-.023-.348-.057-.522-.072-.064-.006-.13-.004-.195-.008-.163-.013-.327-.015-.49-.021-.178-.006-.356-.022-.534-.021-.059,0-.117.008-.176.009-.181.004-.361.019-.542.03-.168.011-.337.014-.505.031-.05.005-.1.016-.15.022-.198.023-.396.06-.594.093-.159.027-.319.046-.476.079-.043.009-.087.021-.13.03-.198.043-.394.099-.59.153-.162.044-.325.083-.485.134-.023.007-.046.011-.07.019-.022.007-.043.018-.065.024-.172.057-.342.125-.513.189-.168.063-.338.124-.504.194-.065.028-.13.055-.195.083-.131.059-.259.128-.389.191-.17.083-.34.164-.506.254-.087.048-.175.095-.261.145-.021.013-.044.021-.065.034-.083.048-.157.106-.238.156-.159.098-.318.194-.472.298-.095.065-.19.129-.283.196-.097.07-.188.145-.281.216-.14.106-.279.212-.414.325-.087.073-.173.145-.258.22-.098.086-.19.176-.285.264-.122.115-.244.229-.362.349-.072.074-.145.148-.215.223-.099.105-.192.214-.287.322-.105.121-.21.242-.312.368-.06.074-.119.148-.176.223-.098.126-.189.256-.282.386-.087.123-.174.245-.257.371-.05.077-.1.154-.148.232-.094.15-.181.303-.268.457-.066.117-.135.232-.198.352-.043.083-.085.167-.127.251-.086.172-.163.348-.241.524-.039.089-.087.172-.125.262-.01.024-.016.048-.026.073-.035.085-.066.171-.099.257-.068.179-.126.36-.186.541-.003.009-.006.018-.009.026-.038.117-.085.232-.12.349-.023.081-.042.163-.064.244-.045.166-.082.333-.12.5-.01.042-.021.084-.03.126-.024.11-.058.22-.08.331-.014.075-.021.151-.034.226-.028.163-.047.327-.068.49-.008.058-.018.115-.024.173-.013.108-.035.216-.045.324-.006.068-.005.138-.01.207-.013.176-.016.352-.021.529,0,.02-.002.04-.002.061-.004.142-.019.283-.018.424,0,.061.008.122.009.182.004.199.021.397.034.596.011.148.011.298.027.445.005.052.016.103.022.154.025.216.064.432.102.647.024.14.041.281.069.419.009.045.021.089.031.134.046.214.107.425.166.638.04.144.074.29.119.432.009.027.013.055.022.082.018.055.035.11.053.165.005.016.01.032.015.047,11.889,37.057,24.187,75.352,39.619,104.209,19.116,35.747,41.273,53.125,67.74,53.125s48.625-17.378,67.741-53.126c14.693-27.478,26.546-63.515,37.913-98.898,21.545-8.839,43.577-16.659,85.395-16.659,45.27,0,67.352,9.162,90.729,18.863l.005.002c.033.014.067.022.101.036.073.03.147.055.221.083.169.064.34.121.512.178.146.049.292.106.439.149.068.02.138.034.206.052.162.044.325.081.489.119.169.04.337.088.506.12.019.003.038.004.057.008.045.008.09.011.135.019.155.027.312.046.468.067.246.033.491.064.736.083.161.012.322.015.483.02.237.008.474.017.709.012.185-.004.37-.019.555-.031.171-.011.343-.015.512-.033.022-.002.045-.008.068-.01.016-.002.032-.005.048-.007.21-.024.42-.062.63-.097.158-.027.316-.047.473-.08.032-.007.063-.016.095-.022.214-.046.426-.106.639-.164.156-.042.312-.081.465-.129.021-.007.043-.01.064-.017.017-.005.032-.013.049-.019.188-.062.373-.135.559-.206.16-.061.32-.119.478-.186.058-.024.116-.047.173-.073.148-.066.292-.143.438-.215.16-.079.321-.156.478-.242.079-.043.159-.085.237-.13.028-.017.058-.028.086-.045.094-.055.178-.12.27-.177.149-.093.298-.184.443-.282.087-.059.174-.117.259-.179.113-.081.22-.167.33-.252.131-.101.261-.201.389-.307.079-.066.158-.131.235-.199.112-.098.219-.201.327-.303.115-.109.23-.218.342-.332.064-.066.13-.131.193-.199.112-.119.219-.242.325-.365.1-.115.198-.23.294-.35.053-.065.106-.131.158-.197.109-.141.212-.286.315-.431.082-.116.164-.232.242-.352.045-.068.089-.136.132-.204.104-.165.2-.333.295-.501.063-.112.127-.222.187-.336.039-.073.076-.146.113-.22.094-.188.178-.378.262-.57.036-.082.08-.157.114-.239.011-.026.018-.054.029-.081.031-.076.059-.152.088-.228.075-.196.14-.396.206-.595ZM345.524,105.681c23.662,0,41.407,26.719,56.686,63.254-16.887-14.064-35.533-20.933-56.686-20.933s-39.797,6.869-56.685,20.933c15.279-36.535,33.023-63.254,56.685-63.254ZM220.62,266.102c-5.764,8.606-11.767,16.508-18.371,23.273-14.462,14.814-29.643,21.714-47.773,21.714s-33.311-6.899-47.773-21.714c-6.604-6.766-12.607-14.667-18.371-23.273,16.957,4.835,37.526,8.263,66.145,8.263s49.187-3.427,66.145-8.263ZM154.475,378.409c-23.662,0-41.407-26.719-56.687-63.255,16.888,14.065,35.534,20.935,56.687,20.935s39.799-6.869,56.686-20.934c-15.279,36.536-33.024,63.254-56.686,63.254ZM279.38,217.989c5.765-8.606,11.769-16.509,18.373-23.274,14.461-14.813,29.642-21.713,47.771-21.713s33.311,6.899,47.772,21.713c6.604,6.765,12.608,14.667,18.373,23.273-16.957-4.835-37.526-8.263-66.145-8.263s-49.187,3.427-66.145,8.263Z"/>
</svg>