<?xml version="1.0" encoding="UTF-8"?>
<svg id="c" data-name="レイヤー 4" xmlns="http://www.w3.org/2000/svg" viewBox="0 0 500 500">
  <path d="M348.474,433.043c-4.32,0-8.522-2.241-10.837-6.252-17.402-30.141-50.163-48.135-87.637-48.135s-70.235,17.994-87.637,48.135c-3.452,5.979-11.097,8.028-17.075,4.575-4.011-2.315-6.253-6.519-6.252-10.84,0-2.12.541-4.268,1.677-6.235,17.402-30.141,16.605-67.51-2.132-99.963s-50.701-51.828-85.505-51.828c-6.904,0-12.5-5.597-12.5-12.5s5.596-12.5,12.5-12.5c34.803,0,66.768-19.375,85.504-51.828,18.737-32.453,19.534-69.823,2.132-99.964-1.136-1.968-1.676-4.115-1.677-6.235-.001-4.321,2.241-8.524,6.252-10.84,5.979-3.452,13.624-1.403,17.075,4.575,17.402,30.141,50.163,48.136,87.637,48.136s70.235-17.995,87.637-48.136c3.452-5.979,11.097-8.026,17.075-4.575,4.011,2.315,6.253,6.519,6.252,10.84,0,2.12-.541,4.268-1.677,6.235-17.402,30.141-16.605,67.511,2.132,99.964,18.737,32.453,50.701,51.828,85.504,51.828,6.904,0,12.5,5.597,12.5,12.5s-5.596,12.5-12.5,12.5c-34.804,0-66.768,19.375-85.505,51.828-18.737,32.453-19.534,69.822-2.132,99.963,1.136,1.968,1.676,4.115,1.677,6.235.001,4.321-2.241,8.524-6.252,10.84-1.968,1.137-4.118,1.677-6.238,1.677ZM250,353.657c26.688,0,51.514,7.463,71.969,20.997-1.493-24.482,4.456-49.713,17.8-72.825s32.22-40.881,54.168-51.828c-21.948-10.947-40.824-28.716-54.168-51.828-13.344-23.112-19.294-48.344-17.8-72.826-20.455,13.534-45.281,20.998-71.969,20.998s-51.514-7.464-71.969-20.998c1.493,24.482-4.456,49.714-17.8,72.826-13.344,23.112-32.22,40.881-54.168,51.828,21.948,10.947,40.824,28.716,54.168,51.828,13.344,23.112,19.294,48.343,17.8,72.825,20.455-13.534,45.281-20.997,71.969-20.997Z"/>
</svg>