<?xml version="1.0" encoding="UTF-8"?>
<svg id="a" data-name="layer1" xmlns="http://www.w3.org/2000/svg" viewBox="0 0 500 500">
  <path d="M348.65,230.8c7.15-2.47,20.47-7.06,20.49-19.35.02-10.54-10.45-15.34-13.88-16.92-4.72-2.17-10.98-4.35-18.22-6.87-22.63-7.88-56.82-19.79-76.91-43.1-.13-.15-.25-.29-.39-.43-12.29-13-22.82-32.09-32.17-58.34-.09-.25-.19-.51-.3-.76-1-2.31-2.31-6.24-3.69-10.4-5.68-17.05-10.17-30.52-21.64-32.47-.69-.12-1.4-.18-2.1-.18h-.05c-11.59,0-16.23,12.24-19.29,20.33-1.29,3.4-2.65,7.24-4.21,11.69-1.31,3.72-2.66,7.56-4.17,11.69-.01.03-.02.07-.04.1-9.35,26.24-19.87,45.32-32.17,58.34-.13.14-.26.28-.38.43-20.09,23.31-54.28,35.22-76.91,43.1-7.24,2.52-13.5,4.7-18.22,6.87-3.44,1.58-13.9,6.38-13.88,16.92.02,12.29,13.33,16.88,20.48,19.35.06.02.11.04.17.06,74.04,24.36,100.97,43.8,125.16,117.92.12.37.26.73.41,1.08.37.85,1.02,2.79,1.66,4.66,3.83,11.27,8.17,24.04,19.35,25.93.69.12,1.38.17,2.08.17s1.38-.06,2.07-.17c8.54-1.43,12.07-8.52,13.77-11.93l.36-.72c.08-.16.16-.33.24-.49,2.31-5.08,4.24-10.54,6.11-15.82l.85-2.39c.04-.1.07-.21.11-.31,24.17-74.1,51.1-93.54,125.16-117.91.06-.02.11-.04.17-.06ZM199.83,340.18c-25.71-78.26-57.14-104.02-128.76-128.98,25.08-8.74,62.8-21.93,87.21-50.09,14.64-15.56,26.85-37.44,37.34-66.86,1.54-4.2,2.96-8.23,4.21-11.8.01.04.02.07.03.1,1.5,4.5,2.92,8.75,4.29,12,10.47,29.28,22.65,51.05,37.23,66.55,24.4,28.16,62.12,41.36,87.21,50.09-71.65,24.98-103.07,50.74-128.76,128.98Z"/>
  <path d="M449.47,350.68c-10.44-3.63-26.2-9.13-34.92-19.24-.13-.15-.25-.29-.39-.43-5.4-5.71-10.1-14.32-14.38-26.32-.09-.26-.19-.51-.3-.76-.38-.88-1.03-2.85-1.61-4.58-3.18-9.55-6.19-18.57-15.58-20.17-.69-.12-1.4-.18-2.1-.18h-.03c-10.07,0-13.81,9.86-15.4,14.07-.66,1.74-1.37,3.75-2.12,5.88-.61,1.75-1.28,3.64-2.02,5.65-.01.03-.02.07-.04.1-4.27,12-8.98,20.61-14.38,26.32-.13.14-.26.28-.38.43-8.72,10.12-24.49,15.61-34.92,19.25-10.29,3.58-20.02,6.97-20,17.68.02,10.56,10.41,14.14,14.33,15.49.06.02.11.04.17.06,34.46,11.33,46.15,19.75,57.21,53.66.12.37.24.69.39,1.04.12.29.42,1.19.65,1.84,2.2,6.49,5.22,15.38,14.45,16.93.69.12,1.38.17,2.08.17s1.39-.06,2.07-.17c7.38-1.24,10.4-7.3,11.39-9.29l.15-.3c.08-.16.16-.33.24-.49,1.25-2.74,2.24-5.55,3.2-8.27l.41-1.15c.04-.1.07-.21.11-.31,11.06-33.9,22.75-42.31,57.22-53.66.06-.02.11-.04.17-.06,3.92-1.35,14.31-4.94,14.33-15.49.02-10.71-9.71-14.1-20-17.68ZM380.19,413.43c-10.53-23.78-24.04-35.75-45.25-45.13,10.22-4.43,21.24-10.67,29.65-20.33,5.94-6.34,11.09-14.54,15.61-24.87,4.52,10.33,9.67,18.53,15.61,24.87,8.4,9.65,19.42,15.9,29.65,20.33-21.21,9.39-34.74,21.35-45.26,45.13Z"/>
</svg>