<?xml version="1.0" encoding="UTF-8"?>
<svg id="a" data-name="layer1" xmlns="http://www.w3.org/2000/svg" viewBox="0 0 500 500">
  <path d="M425,62.5h-179.62c-6.9,0-12.5,5.6-12.5,12.5v116.38h-82.52c-6.9,0-12.5,5.6-12.5,12.5v116.35h-62.86c-6.9,0-12.5,5.6-12.5,12.5v92.27c0,6.9,5.6,12.5,12.5,12.5h92.27c6.9,0,12.5-5.6,12.5-12.5v-62.86h116.35c6.9,0,12.5-5.6,12.5-12.5v-82.53h116.38c6.9,0,12.5-5.6,12.5-12.5V75c0-6.9-5.6-12.5-12.5-12.5ZM154.77,412.5h-67.27v-67.27h50.36v4.41c0,6.9,5.6,12.5,12.5,12.5h4.41v50.36ZM283.62,337.14h-103.85v-4.41c0-6.9-5.6-12.5-12.5-12.5h-4.41v-103.85h70.02v38.24c0,6.9,5.6,12.5,12.5,12.5h38.24v70.03ZM283.62,242.12h-25.74v-25.74h25.74v25.74ZM412.5,242.12h-103.88v-38.24c0-6.9-5.6-12.5-12.5-12.5h-38.24v-103.88h154.62v154.62Z"/>
</svg>