<?xml version="1.0" encoding="UTF-8"?>
<svg id="a" data-name="layer1" xmlns="http://www.w3.org/2000/svg" viewBox="0 0 500 500">
  <path d="M170.403,170.801l67.049-67.049s-.203,212.081-.203,218.985,5.596,12.5,12.5,12.5h.203c6.903,0,12.5-5.597,12.5-12.5V103.752l67.05,67.05c2.44,2.441,5.64,3.661,8.839,3.661,3.46,0,6.92-1.428,9.421-4.283,4.362-4.981,3.91-12.563-.771-17.245l-88.198-88.198c-.259-.259-.53-.506-.811-.741-.144-.12-.392-.302-.542-.414-.182-.136-.359-.276-.548-.403-.177-.118-.361-.221-.543-.33-.168-.101-.333-.206-.506-.299-.186-.099-.376-.183-.564-.272-.181-.085-.359-.176-.544-.252-.184-.076-.371-.137-.558-.204-.198-.071-.394-.147-.597-.209-.187-.056-.376-.098-.565-.145-.207-.052-.41-.11-.621-.152-.221-.044-.443-.069-.666-.102-.183-.026-.483-.073-.667-.09-.738-.065-1.48-.065-2.219,0-.185.016-.484.063-.667.09-.222.032-.445.058-.666.102-.21.042-.414.1-.621.152-.188.048-.378.089-.565.145-.203.062-.399.138-.598.209-.186.067-.373.128-.557.204-.186.077-.363.167-.544.252-.189.089-.379.173-.564.272-.173.093-.338.198-.506.299-.182.109-.365.211-.543.33-.188.126-.366.267-.547.402-.15.112-.397.293-.541.413-.281.235-.552.482-.811.741l-88.207,88.207c-4.522,4.522-4.997,12.346-.811,17.181,4.805,5.55,13.21,5.776,18.308.677Z"/>
  <path d="M375,233.924h-35c-6.903,0-12.5,5.597-12.5,12.5s5.597,12.5,12.5,12.5h35c6.893,0,12.5,5.607,12.5,12.5v130c0,6.893-5.607,12.5-12.5,12.5H125c-6.893,0-12.5-5.607-12.5-12.5v-130c0-6.893,5.607-12.5,12.5-12.5h35c6.903,0,12.5-5.597,12.5-12.5s-5.597-12.5-12.5-12.5h-35c-20.678,0-37.5,16.822-37.5,37.5v130c0,20.678,16.822,37.5,37.5,37.5h250c20.678,0,37.5-16.822,37.5-37.5v-130c0-20.678-16.822-37.5-37.5-37.5Z"/>
</svg>