<?xml version="1.0" encoding="UTF-8"?>
<svg id="a" data-name="layer1" xmlns="http://www.w3.org/2000/svg" viewBox="0 0 500 500">
  <path d="M390,117.5c-12.585,0-24.426,4.316-35,12.083-10.574-7.767-22.415-12.083-35-12.083s-24.426,4.316-35,12.083c-10.574-7.767-22.415-12.083-35-12.083s-24.426,4.316-35,12.083c-10.574-7.767-22.415-12.083-35-12.083s-24.426,4.316-35,12.083c-10.574-7.767-22.415-12.083-35-12.083-46.262,0-82.5,58.201-82.5,132.5s36.238,132.5,82.5,132.5c12.585,0,24.426-4.316,35-12.083,10.574,7.767,22.415,12.083,35,12.083s24.426-4.316,35-12.083c10.574,7.767,22.415,12.083,35,12.083s24.426-4.316,35-12.083c10.574,7.767,22.415,12.083,35,12.083s24.426-4.316,35-12.083c10.574,7.767,22.415,12.083,35,12.083,46.262,0,82.5-58.201,82.5-132.5s-36.238-132.5-82.5-132.5ZM358.7,328.555c-1.199,2.056-2.435,4.004-3.7,5.854-1.265-1.85-2.501-3.798-3.7-5.854-12.123-20.783-18.8-48.681-18.8-78.555s6.677-57.771,18.8-78.555c1.199-2.056,2.435-4.004,3.7-5.854,1.265,1.85,2.501,3.798,3.7,5.854,12.124,20.783,18.8,48.681,18.8,78.555s-6.676,57.771-18.8,78.555ZM337.066,147.619c-6.682,8.87-12.446,19.431-17.066,31.31-4.62-11.879-10.384-22.44-17.066-31.31,5.515-3.366,11.263-5.12,17.066-5.12s11.551,1.754,17.066,5.119ZM288.7,328.555c-1.199,2.056-2.435,4.004-3.7,5.854-1.265-1.85-2.501-3.798-3.7-5.854-12.123-20.783-18.8-48.681-18.8-78.555s6.677-57.771,18.8-78.555c1.199-2.056,2.435-4.004,3.7-5.854,1.265,1.85,2.501,3.798,3.7,5.854,12.124,20.783,18.8,48.681,18.8,78.555s-6.676,57.771-18.8,78.555ZM267.066,147.619c-6.682,8.87-12.446,19.431-17.066,31.31-4.62-11.879-10.384-22.44-17.066-31.31,5.515-3.366,11.263-5.12,17.066-5.12s11.551,1.754,17.066,5.119ZM218.7,328.555c-1.199,2.056-2.435,4.004-3.7,5.854-1.265-1.85-2.501-3.798-3.7-5.854-12.123-20.783-18.8-48.681-18.8-78.555s6.677-57.771,18.8-78.555c1.199-2.056,2.435-4.004,3.7-5.854,1.265,1.85,2.501,3.798,3.7,5.854,12.124,20.783,18.8,48.681,18.8,78.555s-6.676,57.771-18.8,78.555ZM197.066,147.619c-6.682,8.87-12.446,19.431-17.066,31.31-4.62-11.879-10.384-22.44-17.066-31.31,5.515-3.366,11.263-5.12,17.066-5.12s11.551,1.754,17.066,5.119ZM148.7,328.555c-1.199,2.056-2.435,4.004-3.7,5.854-1.265-1.85-2.501-3.798-3.7-5.854-12.123-20.783-18.8-48.681-18.8-78.555s6.677-57.771,18.8-78.555c1.199-2.056,2.435-4.004,3.7-5.854,1.265,1.85,2.501,3.798,3.7,5.854,12.124,20.783,18.8,48.681,18.8,78.555s-6.676,57.771-18.8,78.555ZM71.3,328.555c-12.123-20.783-18.8-48.681-18.8-78.555s6.677-57.771,18.8-78.555c10.889-18.666,24.632-28.945,38.7-28.945,5.803,0,11.551,1.754,17.066,5.119-18.169,24.116-29.566,60.716-29.566,102.381s11.397,78.265,29.566,102.381c-5.515,3.365-11.263,5.119-17.066,5.119-14.068,0-27.812-10.279-38.7-28.945ZM162.934,352.38c6.682-8.87,12.446-19.431,17.066-31.31,4.62,11.879,10.384,22.44,17.066,31.31-5.515,3.365-11.263,5.119-17.066,5.119s-11.551-1.754-17.066-5.12ZM232.934,352.38c6.682-8.87,12.446-19.431,17.066-31.31,4.62,11.879,10.384,22.44,17.066,31.31-5.515,3.365-11.263,5.119-17.066,5.119s-11.551-1.754-17.066-5.12ZM302.934,352.38c6.682-8.87,12.446-19.431,17.066-31.31,4.62,11.879,10.384,22.44,17.066,31.31-5.515,3.365-11.263,5.119-17.066,5.119s-11.551-1.754-17.066-5.12ZM428.7,328.555c-10.888,18.666-24.632,28.945-38.7,28.945-5.803,0-11.551-1.754-17.066-5.12,18.169-24.116,29.566-60.715,29.566-102.38s-11.397-78.265-29.566-102.38c5.515-3.366,11.263-5.12,17.066-5.12,14.068,0,27.812,10.279,38.7,28.945,12.124,20.783,18.8,48.681,18.8,78.555s-6.676,57.771-18.8,78.555Z"/>
</svg>