<?xml version="1.0" encoding="UTF-8"?>
<svg id="a" data-name="layer1" xmlns="http://www.w3.org/2000/svg" viewBox="0 0 500 500">
  <path d="M462,83.02H38c-6.9,0-12.5,5.6-12.5,12.5v308.96c0,6.9,5.6,12.5,12.5,12.5h424c6.9,0,12.5-5.6,12.5-12.5V95.52c0-6.9-5.6-12.5-12.5-12.5ZM91.87,391.98h-45.58,4.21V108.02h-7.48,43.73v132.99c0,19.09,12.65,35.27,30,40.62v110.34h-24.87ZM204.51,391.98h-62.76v-110.34c17.35-5.35,30-21.54,30-40.62V108.02h33.56v132.99c0,19.09,12.65,35.27,30,40.62v110.34h-30.8ZM281.32,391.98h-21.01v-110.34c17.35-5.35,30-21.54,30-40.62V108.02h33.56v132.99c0,19.09,12.65,35.27,30,40.62v110.34h-72.56ZM449.5,391.98h-70.63v-110.34c17.35-5.35,30-21.54,30-40.62V108.02h-.84,41.47v283.96Z"/>
</svg>