<?xml version="1.0" encoding="UTF-8"?>
<svg id="a" data-name="layer1" xmlns="http://www.w3.org/2000/svg" viewBox="0 0 500 500">
  <path d="M469.09,83.02H30.91c-6.9,0-12.5,5.6-12.5,12.5v308.96c0,6.9,5.6,12.5,12.5,12.5h438.18c6.9,0,12.5-5.6,12.5-12.5V95.52c0-6.9-5.6-12.5-12.5-12.5ZM43.41,108.02h35.8v144.42c0,6.9,5.6,12.5,12.5,12.5h14.34v127.04h-62.64V108.02ZM131.05,264.94h14.34c6.9,0,12.5-5.6,12.5-12.5V108.02h35.8v283.96h-62.64v-127.04ZM218.68,108.02h35.8v144.42c0,6.9,5.6,12.5,12.5,12.5h14.34v127.04h-62.63V108.02ZM306.32,264.94h14.34c6.9,0,12.5-5.6,12.5-12.5V108.02h8.96v144.42c0,6.9,5.6,12.5,12.5,12.5h14.34v127.04h-62.64v-127.04ZM456.59,391.98h-62.64v-127.04h14.34c6.9,0,12.5-5.6,12.5-12.5V108.02h35.8v283.96Z"/>
</svg>