<?xml version="1.0" encoding="UTF-8"?>
<svg id="a" data-name="layer1" xmlns="http://www.w3.org/2000/svg" viewBox="0 0 500 500">
  <path d="M447.917,52.083c-4.881-4.881-12.797-4.881-17.678,0L52.083,430.239c-4.882,4.882-4.882,12.796,0,17.678,2.44,2.44,5.64,3.661,8.839,3.661s6.398-1.221,8.839-3.661L447.917,69.761c4.882-4.882,4.882-12.796,0-17.678Z"/>
  <path d="M83.017,367.875c4.898,3.151,11.346,2.407,15.464-1.711l.188-.188c5.665-5.665,4.501-15.013-2.229-19.358-13.67-8.827-22.971-23.843-23.584-41.192-.427-12.073,3.29-23.526,10.679-32.997,6.741-8.639,16.233-15.033,26.765-18.039,4.623-1.319,8.906-3.729,12.154-7.274,6.192-6.759,8.112-16.129,5.422-24.549-2.008-6.286-3.027-12.795-3.027-19.348,0-35.17,28.613-63.784,63.784-63.784,12.975,0,25.462,3.901,36.11,11.281,10.443,7.239,18.439,17.278,23.121,29.034,3.027,7.598,9.578,13.235,17.543,15.094,1.266.295,2.542.48,3.818.576l13.338-13.337c7.427-7.428-3.28-18.879-11.126-11.896-.116.104-.232.208-.348.312-13.062-32.793-45.065-56.064-82.456-56.064-48.952,0-88.784,39.832-88.784,88.784,0,9.398,1.494,18.447,4.212,26.957-32.312,8.924-56.239,38.279-56.239,73.385,0,26.964,14.042,50.705,35.195,64.314Z"/>
  <path d="M398.247,229.032c.017-.661.197-1.278.197-1.942,0-21.722-9.119-41.347-23.722-55.274-3.188-3.041-8.237-2.945-11.352.171l-6.141,6.141c-3.27,3.27-3.117,8.551.231,11.74,9.562,9.109,15.634,21.849,15.969,35.988-.077.697-.149,1.562-.174,2.545-.302,11.954,7.903,22.449,19.577,25.039,11.25,2.496,21.489,8.829,28.83,17.833,7.527,9.23,11.505,20.396,11.505,32.29,0,12.082-4.316,23.813-12.152,33.034-7.773,9.146-18.519,15.339-30.258,17.437-1.268.227-2.515.551-3.73.968h-201.521c-3.299,0-6.462,1.311-8.795,3.643l-.125.125c-7.835,7.835-2.286,21.232,8.795,21.232h204.468c1.93,0,3.688-.552,5.306-1.358,35.742-6.389,63.011-37.538,63.011-75.082,0-36.457-25.708-66.938-59.92-74.529Z"/>
</svg>