<?xml version="1.0" encoding="UTF-8"?>
<svg id="a" data-name="layer1" xmlns="http://www.w3.org/2000/svg" viewBox="0 0 500 500">
  <path d="M276.09,401.74h-51.69c-12.65,0-22.91-10.26-22.91-22.91v-128.26l-111.19-114.3-.29-.34c-5.81-6.9-7.06-16.26-3.25-24.44,3.8-8.18,11.76-13.26,20.78-13.26h285.4c9.02,0,16.98,5.08,20.78,13.26,3.8,8.18,2.56,17.54-3.25,24.44l-.29.34-.31.32-110.88,113.98v128.26c0,12.65-10.26,22.91-22.91,22.91ZM226,376.74h47.5v-127.05c0-5.41,1.91-10.64,5.39-14.77l.29-.35.31-.32,108.03-111.01H111.97l108.35,111.33.29.35c3.48,4.14,5.39,9.37,5.39,14.77v127.05Z"/>
</svg>