<?xml version="1.0" encoding="UTF-8"?>
<svg id="a" data-name="layer1" xmlns="http://www.w3.org/2000/svg" viewBox="0 0 500 500">
  <path d="M250,432.5c-100.631,0-182.5-81.869-182.5-182.5S149.369,67.5,250,67.5s182.5,81.869,182.5,182.5-81.869,182.5-182.5,182.5ZM250,92.5c-86.846,0-157.5,70.654-157.5,157.5s70.654,157.5,157.5,157.5,157.5-70.654,157.5-157.5-70.654-157.5-157.5-157.5Z"/>
  <path d="M250,352.5c-13.834,0-27.259-2.712-39.902-8.06-12.207-5.164-23.167-12.553-32.576-21.962-9.409-9.408-16.798-20.368-21.961-32.577-2.689-6.358.285-13.693,6.644-16.382,6.361-2.689,13.693.286,16.382,6.644,3.902,9.229,9.492,17.518,16.612,24.637,7.122,7.122,15.412,12.712,24.64,16.615,9.545,4.038,19.692,6.085,30.162,6.085s20.617-2.047,30.162-6.085c9.228-3.903,17.518-9.493,24.639-16.614,7.121-7.12,12.711-15.409,16.614-24.639,2.69-6.356,10.025-9.326,16.383-6.643,6.357,2.689,9.332,10.024,6.643,16.383-5.165,12.209-12.554,23.169-21.963,32.577-9.408,9.408-20.368,16.797-32.575,21.961-12.644,5.348-26.068,8.06-39.902,8.06Z"/>
  <path d="M308.411,219.872c-6.903,0-12.5-5.597-12.5-12.5v-35.271c0-6.903,5.597-12.5,12.5-12.5s12.5,5.597,12.5,12.5v35.271c0,6.903-5.597,12.5-12.5,12.5Z"/>
  <path d="M194.863,219.872c-6.903,0-12.5-5.597-12.5-12.5v-35.271c0-6.903,5.597-12.5,12.5-12.5s12.5,5.597,12.5,12.5v35.271c0,6.903-5.597,12.5-12.5,12.5Z"/>
</svg>