<?xml version="1.0" encoding="UTF-8"?>
<svg id="a" data-name="layer1" xmlns="http://www.w3.org/2000/svg" viewBox="0 0 500 500">
  <path d="M102.87,159.76c29.54,0,53.57-24.03,53.57-53.57s-24.03-53.57-53.57-53.57-53.57,24.03-53.57,53.57,24.03,53.57,53.57,53.57ZM102.87,74.05c17.72,0,32.14,14.42,32.14,32.14s-14.42,32.14-32.14,32.14-32.14-14.42-32.14-32.14,14.42-32.14,32.14-32.14Z"/>
  <path d="M250,159.76c29.54,0,53.57-24.03,53.57-53.57s-24.03-53.57-53.57-53.57-53.57,24.03-53.57,53.57,24.03,53.57,53.57,53.57ZM250,74.05c17.72,0,32.14,14.42,32.14,32.14s-14.42,32.14-32.14,32.14-32.14-14.42-32.14-32.14,14.42-32.14,32.14-32.14Z"/>
  <path d="M408.23,197.59c.62-12.23.92-25.3.92-39.21,23.77-5.47,41.55-26.79,41.55-52.19,0-29.54-24.03-53.57-53.57-53.57s-53.57,24.03-53.57,53.57c0,26.33,19.1,48.27,44.17,52.73,0,13.71-.3,26.56-.92,38.52-24.62,4.82-43.25,26.55-43.25,52.56,0,18.17,9.1,34.25,22.98,43.94-4.37,7.32-9.82,13.12-16.58,15.44-16.45,5.66-38.56-9.21-57.36-26.95,6.88-9.01,10.97-20.25,10.97-32.44,0-29.54-24.03-53.57-53.57-53.57s-53.57,24.03-53.57,53.57,24.03,53.57,53.57,53.57c9.57,0,18.56-2.54,26.34-6.95.54.52,1.09,1.04,1.64,1.56,23.86,22.53,45.46,33.87,64.41,33.87,5.03,0,9.87-.8,14.52-2.4,11.78-4.05,21.6-13.15,29.4-27.18,3.5.72,7.11,1.1,10.82,1.1,29.54,0,53.57-24.03,53.57-53.57,0-25.73-18.24-47.28-42.47-52.41ZM217.86,250c0-17.72,14.42-32.14,32.14-32.14s32.14,14.42,32.14,32.14c0,6.16-1.74,11.91-4.76,16.8-8.05-8.95-14.64-17.34-18.64-22.99-3.41-4.83-10.1-5.98-14.93-2.56-4.83,3.42-5.98,10.1-2.57,14.93.44.63,7.91,11.13,19.45,24.12-3.35,1.19-6.95,1.84-10.7,1.84-17.72,0-32.14-14.42-32.14-32.14ZM364.99,106.19c0-17.72,14.42-32.14,32.14-32.14s32.14,14.42,32.14,32.14c0,13.57-8.46,25.2-20.38,29.9-.22-9.78-.57-19.91-1.06-30.41-.28-5.91-5.29-10.48-11.2-10.2-5.91.28-10.48,5.29-10.2,11.2.49,10.43.84,20.48,1.05,30.16-13.02-4.11-22.49-16.3-22.49-30.66ZM364.99,250c0-13.49,8.36-25.06,20.17-29.82-1.56,16.29-3.83,30.52-6.81,42.64-.85,3.47-1.85,7.11-3.02,10.77-6.35-5.88-10.34-14.27-10.34-23.59ZM397.13,282.14c-.69,0-1.37-.03-2.04-.07,1.48-4.42,2.83-9.13,4.06-14.12,3.39-13.78,5.91-30.01,7.58-48.62,13.05,4.09,22.54,16.3,22.54,30.68,0,17.72-14.42,32.14-32.14,32.14Z"/>
  <path d="M250,340.24c-29.54,0-53.57,24.03-53.57,53.57,0,2.04.13,4.06.35,6.04-13.48,1.03-25.3-1.58-35.37-7.87-1.83-1.14-3.57-2.4-5.26-3.75-1.84-17.75-12.39-32.94-27.29-41.25-4.63-12.17-7.77-24.85-9.89-36.13-.59-3.14-1.12-6.25-1.59-9.3,22.51-6.35,39.05-27.05,39.05-51.56,0-29.54-24.03-53.57-53.57-53.57s-53.57,24.03-53.57,53.57c0,27.18,20.35,49.68,46.61,53.1,1.77,11.8,4.34,24.54,8.1,37.16-.38,0-.76-.03-1.14-.03-29.54,0-53.57,24.03-53.57,53.57s24.03,53.57,53.57,53.57c23.14,0,42.9-14.75,50.38-35.35,11.37,6.36,23.98,9.54,37.78,9.54,4.12,0,8.35-.3,12.68-.87,9.29,15.93,26.56,26.67,46.3,26.67,29.54,0,53.57-24.03,53.57-53.57s-24.03-53.57-53.57-53.57ZM70.73,250c0-17.72,14.42-32.14,32.14-32.14s32.14,14.42,32.14,32.14c0,13.51-8.38,25.09-20.21,29.84-1.48-17.27-1.22-29.39-1.22-29.57.15-5.91-4.53-10.83-10.44-10.98-.09,0-.18,0-.28,0-5.79,0-10.56,4.62-10.71,10.44-.04,1.53-.28,13.73,1.15,30.96-13.07-4.08-22.59-16.29-22.59-30.69ZM102.87,425.95c-17.72,0-32.14-14.42-32.14-32.14s14.42-32.14,32.14-32.14c3.29,0,6.47.5,9.47,1.43,5.72,12.9,13.04,24.88,22.43,34.6-1.92,15.9-15.49,28.26-31.9,28.26ZM250,425.95c-9.38,0-17.83-4.04-23.71-10.46,9.17-2.97,18.71-7.02,28.64-12.17,5.25-2.72,7.3-9.19,4.58-14.44-2.72-5.25-9.19-7.3-14.44-4.58-9.56,4.96-18.61,8.74-27.15,11.36-.04-.61-.06-1.23-.06-1.85,0-17.72,14.42-32.14,32.14-32.14s32.14,14.42,32.14,32.14-14.42,32.14-32.14,32.14Z"/>
  <path d="M397.13,340.24c-29.54,0-53.57,24.03-53.57,53.57s24.03,53.57,53.57,53.57,53.57-24.03,53.57-53.57-24.03-53.57-53.57-53.57ZM397.13,425.95c-17.72,0-32.14-14.42-32.14-32.14s14.42-32.14,32.14-32.14,32.14,14.42,32.14,32.14-14.42,32.14-32.14,32.14Z"/>
</svg>