<?xml version="1.0" encoding="UTF-8"?>
<svg id="a" data-name="layer1" xmlns="http://www.w3.org/2000/svg" viewBox="0 0 500 500">
  <path d="M331.775,123.153c-29.955,0-54.326,24.37-54.326,54.325,0,2.622.197,5.199.558,7.723-12.038-7.24-26.12-11.414-41.162-11.414-37.242,0-68.628,25.544-77.563,60.03-5.638-1.012-11.442-1.541-17.368-1.541-54.062,0-98.044,43.982-98.044,98.044s43.982,98.045,98.044,98.045c52.851,0,96.061-42.036,97.971-94.43,42.769-1.606,77.073-36.881,77.073-80.036,0-8.928-1.49-17.51-4.198-25.537,5.922,2.22,12.327,3.442,19.014,3.442,29.955,0,54.326-24.371,54.326-54.326s-24.371-54.325-54.326-54.325ZM141.916,403.365c-40.277,0-73.044-32.768-73.044-73.045s32.768-73.044,73.044-73.044c5.135,0,10.145.539,14.983,1.552,2.1,34.405,26.007,62.995,58.045,72.116-.338,39.99-32.961,72.421-73.029,72.421ZM184.463,271.004c10.695,7.693,19.236,18.191,24.526,30.422-11.484-6.757-20.312-17.551-24.526-30.422ZM237.617,308.993c-6.686-30.021-27.174-54.895-54.437-67.597,5.68-24.383,27.577-42.609,53.665-42.609,30.39,0,55.113,24.724,55.113,55.112,0,30.131-24.308,54.678-54.342,55.094ZM331.775,206.805c-16.171,0-29.326-13.155-29.326-29.326s13.155-29.325,29.326-29.325,29.326,13.155,29.326,29.325-13.155,29.326-29.326,29.326Z"/>
  <path d="M412.532,71.635c-24.039,0-43.597,19.558-43.597,43.597s19.558,43.597,43.597,43.597,43.597-19.558,43.597-43.597-19.558-43.597-43.597-43.597ZM412.532,133.828c-10.254,0-18.597-8.343-18.597-18.597s8.343-18.597,18.597-18.597,18.597,8.343,18.597,18.597-8.343,18.597-18.597,18.597Z"/>
</svg>