<?xml version="1.0" encoding="UTF-8"?>
<svg id="a" data-name="layer1" xmlns="http://www.w3.org/2000/svg" viewBox="0 0 500 500">
  <path d="M350,427.5h-200c-6.9,0-12.5-5.6-12.5-12.5v-152.5h-52.5c-5.06,0-9.61-3.05-11.55-7.72-1.93-4.67-.87-10.05,2.71-13.62L241.16,76.16c4.88-4.88,12.8-4.88,17.68,0l165,165c3.57,3.58,4.64,8.95,2.71,13.62-1.93,4.67-6.49,7.72-11.55,7.72h-52.5v152.5c0,6.9-5.6,12.5-12.5,12.5ZM162.5,402.5h175v-152.5c0-6.9,5.6-12.5,12.5-12.5h34.82L250,102.68,115.18,237.5h34.82c6.9,0,12.5,5.6,12.5,12.5v152.5Z"/>
</svg>