<?xml version="1.0" encoding="UTF-8"?>
<svg id="c" data-name="レイヤー 4" xmlns="http://www.w3.org/2000/svg" viewBox="0 0 500 500">
  <path d="M348.47,433.04c-4.32,0-8.52-2.24-10.84-6.25-17.4-30.14-50.16-48.13-87.64-48.13s-70.23,17.99-87.64,48.13c-3.45,5.98-11.1,8.03-17.08,4.58-4.01-2.32-6.25-6.52-6.25-10.84,0-2.12.54-4.27,1.68-6.24,17.4-30.14,16.6-67.51-2.13-99.96s-50.7-51.83-85.5-51.83c-6.9,0-12.5-5.6-12.5-12.5s5.6-12.5,12.5-12.5c34.8,0,66.77-19.38,85.5-51.83,18.74-32.45,19.53-69.82,2.13-99.96-1.14-1.97-1.68-4.12-1.68-6.24,0-4.32,2.24-8.52,6.25-10.84,5.98-3.45,13.62-1.4,17.08,4.58,17.4,30.14,50.16,48.14,87.64,48.14s70.23-18,87.64-48.14c3.45-5.98,11.1-8.03,17.08-4.58,4.01,2.32,6.25,6.52,6.25,10.84,0,2.12-.54,4.27-1.68,6.24-17.4,30.14-16.6,67.51,2.13,99.96,18.74,32.45,50.7,51.83,85.5,51.83,6.9,0,12.5,5.6,12.5,12.5s-5.6,12.5-12.5,12.5c-34.8,0-66.77,19.38-85.5,51.83s-19.53,69.82-2.13,99.96c1.14,1.97,1.68,4.12,1.68,6.24,0,4.32-2.24,8.52-6.25,10.84-1.97,1.14-4.12,1.68-6.24,1.68ZM250,353.66c26.69,0,51.51,7.46,71.97,21-1.49-24.48,4.46-49.71,17.8-72.83s32.22-40.88,54.17-51.83c-21.95-10.95-40.82-28.72-54.17-51.83-13.34-23.11-19.29-48.34-17.8-72.83-20.45,13.53-45.28,21-71.97,21s-51.51-7.46-71.97-21c1.49,24.48-4.46,49.71-17.8,72.83-13.34,23.11-32.22,40.88-54.17,51.83,21.95,10.95,40.82,28.72,54.17,51.83s19.29,48.34,17.8,72.83c20.45-13.53,45.28-21,71.97-21Z"/>
</svg>