<?xml version="1.0" encoding="UTF-8"?>
<svg id="a" data-name="layer1" xmlns="http://www.w3.org/2000/svg" viewBox="0 0 1000 1000">
  <path d="M244.87,474.48h230.13v-229.52c0-12.78,10.39-24.5,23.13-25.43,14.65-1.06,26.86,10.5,26.87,24.92v230.03s229.58,0,229.58,0c12.78,0,24.5,10.39,25.43,23.13,1.06,14.65-10.5,26.86-24.92,26.87h-230.09s.01,234.6.01,234.6c0,4.85-3.12,11.27-7,14.17-20.54,15.34-43.02,1.02-43.02-18.56v-230.21h-234.52c-4.85.01-11.27-3.1-14.17-6.98-15.34-20.54-1.02-43.02,18.56-43.02Z"/>
  <path d="M500,87.72c227.7,0,412.28,184.59,412.28,412.28s-184.59,412.28-412.28,412.28S87.72,727.7,87.72,500,272.3,87.72,500,87.72ZM243.83,756.17c33.29,33.29,72.04,59.42,115.17,77.66,44.63,18.88,92.07,28.45,141,28.45s96.37-9.57,141-28.45c43.13-18.24,81.88-44.37,115.17-77.66,33.29-33.29,59.42-72.04,77.66-115.17,18.88-44.63,28.45-92.07,28.45-141s-9.57-96.37-28.45-141c-18.24-43.13-44.37-81.88-77.66-115.17-33.29-33.29-72.04-59.42-115.17-77.66-44.63-18.88-92.07-28.45-141-28.45s-96.37,9.57-141,28.45c-43.13,18.24-81.88,44.37-115.17,77.66-33.29,33.29-59.42,72.04-77.66,115.17-18.88,44.63-28.45,92.07-28.45,141s9.57,96.37,28.45,141c18.24,43.13,44.37,81.88,77.66,115.17Z"/>
</svg>