<?xml version="1.0" encoding="UTF-8"?>
<svg id="a" data-name="layer1" xmlns="http://www.w3.org/2000/svg" viewBox="0 0 500 500">
  <path d="M447.917,52.083c-4.881-4.881-12.797-4.881-17.678,0L52.083,430.239c-4.882,4.882-4.882,12.796,0,17.678,2.44,2.44,5.64,3.661,8.839,3.661s6.398-1.221,8.839-3.661L447.917,69.76c4.882-4.882,4.882-12.796,0-17.678Z"/>
  <path d="M434.394,143.077h-40.373c-1.116,0-2.187.443-2.976,1.232l-16.583,16.583c-2.651,2.651-.773,7.184,2.976,7.184h40.249c2.324,0,4.208,1.884,4.208,4.208v216.651H148.162c-1.116,0-2.187.443-2.976,1.232l-16.583,16.583c-2.651,2.651-.773,7.184,2.976,7.184h302.816c6.904,0,12.5-5.596,12.5-12.5v-245.859c0-6.904-5.596-12.5-12.5-12.5Z"/>
  <path d="M60.289,404.355l16.583-16.583c.789-.789,1.232-1.859,1.232-2.976v-216.719h216.719c1.116,0,2.187-.443,2.976-1.232l16.583-16.583c2.651-2.651.773-7.184-2.976-7.184h-61.036l-11.815-47.529c-1.385-5.572-6.389-9.484-12.131-9.484H79.778c-5.742,0-10.746,3.912-12.131,9.484l-14.173,57.014c-.016.062-.021.126-.036.189-.068.294-.122.593-.168.895-.025.156-.053.311-.072.468-.033.286-.049.576-.062.867-.008.167-.024.333-.025.5,0,.033-.005.064-.005.097v245.859c0,.028,0,.057,0,.085.024,3.681,4.581,5.437,7.184,2.833ZM89.551,111.063h127.102l7.958,32.014H81.593l7.958-32.014Z"/>
</svg>