<?xml version="1.0" encoding="UTF-8"?>
<svg id="a" data-name="layer1" xmlns="http://www.w3.org/2000/svg" viewBox="0 0 500 500">
  <path d="M430.65,56.84H69.35c-6.9,0-12.5,5.6-12.5,12.5v361.31c0,6.9,5.6,12.5,12.5,12.5h361.31c6.9,0,12.5-5.6,12.5-12.5V69.34c0-6.9-5.6-12.5-12.5-12.5ZM81.85,81.84h336.31v155.66H81.85V81.84ZM217.34,262.5h65.33v37.83c0,15.16-12.34,27.5-27.5,27.5h-10.33c-15.16,0-27.5-12.34-27.5-27.5v-37.83ZM418.15,418.15H81.85v-155.65h110.49v37.83c0,28.95,23.55,52.5,52.5,52.5h10.33c28.95,0,52.5-23.55,52.5-52.5v-37.83h110.49v155.65Z"/>
  <path d="M375.41,189.6c0-6.9-5.6-12.5-12.5-12.5h-225.82c-6.9,0-12.5,5.6-12.5,12.5s5.6,12.5,12.5,12.5h225.82c6.9,0,12.5-5.6,12.5-12.5Z"/>
  <path d="M137.09,141.7h225.82c6.9,0,12.5-5.6,12.5-12.5s-5.6-12.5-12.5-12.5h-225.82c-6.9,0-12.5,5.6-12.5,12.5s5.6,12.5,12.5,12.5Z"/>
</svg>