<?xml version="1.0" encoding="UTF-8"?>
<svg id="a" data-name="layer1" xmlns="http://www.w3.org/2000/svg" viewBox="0 0 500 500">
  <path d="M365.27,140.764c-33.859,0-64.168,15.484-84.22,39.743H37.995c-6.904,0-12.5,5.597-12.5,12.5s5.596,12.5,12.5,12.5h227.518c-4.655,10.396-7.734,21.645-8.925,33.444H124.968c-6.903,0-12.5,5.597-12.5,12.5s5.597,12.5,12.5,12.5h131.952c1.516,11.841,4.936,23.095,9.941,33.444h-60.385c-6.904,0-12.5,5.597-12.5,12.5s5.596,12.5,12.5,12.5h77.069c20.027,22.581,49.239,36.84,81.724,36.84,60.232,0,109.235-49.003,109.235-109.236s-49.003-109.235-109.235-109.235ZM365.27,334.236c-41.694,0-76.39-30.455-83.06-70.284h41.962c6.903,0,12.5-5.597,12.5-12.5s-5.597-12.5-12.5-12.5h-42.391c1.6-12.149,5.788-23.488,12.008-33.444h71.481c6.903,0,12.5-5.597,12.5-12.5s-5.597-12.5-12.5-12.5h-47.539c13.54-9.292,29.912-14.743,47.539-14.743,46.447,0,84.235,37.788,84.235,84.235s-37.788,84.236-84.235,84.236Z"/>
</svg>