<?xml version="1.0" encoding="UTF-8"?>
<svg id="a" data-name="layer1" xmlns="http://www.w3.org/2000/svg" viewBox="0 0 500 500">
  <path d="M241.11,359.92c.26.26.53.51.81.74.14.12.39.3.54.41.18.14.36.28.55.4.18.12.36.22.54.33.17.1.33.21.51.3.19.1.38.18.56.27.18.09.36.18.54.25.18.08.37.14.56.2.2.07.39.15.6.21.19.06.38.1.56.15.21.05.41.11.62.15.22.04.44.07.67.1.18.03.48.07.67.09.74.07,1.48.07,2.22,0,.18-.02.48-.06.67-.09.22-.03.44-.06.67-.1.21-.04.41-.1.62-.15.19-.05.38-.09.56-.15.2-.06.4-.14.6-.21.19-.07.37-.13.56-.2.19-.08.36-.17.54-.25.19-.09.38-.17.56-.27.17-.09.34-.2.51-.3.18-.11.37-.21.54-.33.19-.13.37-.27.55-.4.15-.11.4-.29.54-.41.28-.24.55-.48.81-.74l74.02-74.02c4.68-4.68,5.13-12.26.77-17.24-2.5-2.86-5.96-4.28-9.42-4.28-3.2,0-6.4,1.22-8.84,3.66l-52.88,52.88V73.58c0-6.9-5.6-12.5-12.5-12.5h-.2c-6.9,0-12.5,5.6-12.5,12.5s.2,247.33.2,247.33l-52.88-52.88c-5.1-5.1-13.5-4.87-18.31.68-4.19,4.83-3.71,12.66.81,17.18l74.03,74.03Z"/>
  <path d="M375,233.92c-6.9,0-12.5,5.6-12.5,12.5s5.6,12.5,12.5,12.5,12.5,5.61,12.5,12.5v130c0,6.89-5.61,12.5-12.5,12.5H125c-6.89,0-12.5-5.61-12.5-12.5v-130c0-6.89,5.61-12.5,12.5-12.5s12.5-5.6,12.5-12.5-5.6-12.5-12.5-12.5c-20.68,0-37.5,16.82-37.5,37.5v130c0,20.68,16.82,37.5,37.5,37.5h250c20.68,0,37.5-16.82,37.5-37.5v-130c0-20.68-16.82-37.5-37.5-37.5Z"/>
</svg>