<?xml version="1.0" encoding="UTF-8"?>
<svg id="a" data-name="layer1" xmlns="http://www.w3.org/2000/svg" viewBox="0 0 500 500">
  <path d="M150.5,231.5v-16.982s-.23-.497-.245-.745c-.073-1.215-.128-2.422-.165-3.589-.038-1.208-.057-2.413-.057-3.58,0-29.247,10.517-56.699,29.613-77.297,18.854-20.336,43.846-31.536,70.374-31.536s51.352,11.124,70.183,31.331c4.631,4.969,12.504,5.585,17.605,1.099,5.302-4.662,5.689-12.746.919-17.891-23.639-25.497-55.142-39.539-88.707-39.539s-65.069,14.042-88.708,39.539c-23.395,25.235-36.279,58.723-36.279,94.294,0,1.428.023,2.898.07,4.366.04,1.278-.103,3.914-.103,3.914v22.186s.301.581.5.87v145.061c0,11.046,8.954,20,20,20h209.5c11.046,0,20-8.954,20-20v-131.5c0-11.046-8.954-20-20-20h-204.5ZM350,378h-199.5v-121.5h199.5v121.5Z"/>
</svg>