<?xml version="1.0" encoding="UTF-8"?>
<svg id="a" data-name="layer1" xmlns="http://www.w3.org/2000/svg" viewBox="0 0 500 500">
  <path d="M445.398,233.949h-87.43V103.08c0-6.903-5.597-12.5-12.5-12.5s-12.5,5.597-12.5,12.5v117.88l-164.997-127.764c-3.771-2.92-8.875-3.439-13.157-1.339-4.282,2.1-6.996,6.453-6.996,11.223v134.42H54.602c-6.903,0-12.5,5.597-12.5,12.5s5.597,12.5,12.5,12.5h93.217v134.42c0,4.822,2.773,9.215,7.128,11.287,1.711.814,3.546,1.213,5.37,1.213,2.819,0,5.613-.953,7.885-2.8l164.766-133.905v124.205c0,6.903,5.596,12.5,12.5,12.5s12.5-5.597,12.5-12.5v-137.971h87.43c6.903,0,12.5-5.597,12.5-12.5s-5.597-12.5-12.5-12.5ZM172.819,370.653v-242.085l152.538,118.117-152.538,123.968Z"/>
</svg>