<?xml version="1.0" encoding="UTF-8"?>
<svg id="a" data-name="layer1" xmlns="http://www.w3.org/2000/svg" viewBox="0 0 500 500">
  <path d="M350,427.5h-200c-6.904,0-12.5-5.596-12.5-12.5v-152.5h-52.5c-5.056,0-9.614-3.045-11.548-7.716-1.935-4.671-.865-10.047,2.71-13.623L241.161,76.161c4.882-4.882,12.796-4.882,17.678,0l165,165c3.575,3.575,4.644,8.952,2.71,13.623-1.935,4.671-6.493,7.716-11.549,7.716h-52.5v152.5c0,6.904-5.596,12.5-12.5,12.5ZM162.5,402.5h175v-152.5c0-6.904,5.596-12.5,12.5-12.5h34.822L250,102.678,115.178,237.5h34.822c6.904,0,12.5,5.596,12.5,12.5v152.5Z"/>
</svg>