<?xml version="1.0" encoding="UTF-8"?>
<svg id="a" data-name="layer1" xmlns="http://www.w3.org/2000/svg" viewBox="0 0 500 500">
  <path d="M150,231.5v-16.982s-.226-.497-.24-.745c-.073-1.215-.128-2.422-.165-3.589-.038-1.208-.057-2.413-.057-3.58,0-29.248,10.517-56.699,29.614-77.297,18.853-20.336,43.846-31.536,70.374-31.536s51.52,11.2,70.374,31.536c4.726,5.097,12.71,5.366,17.768.572,4.993-4.732,4.882-12.954.184-17.979-23.596-25.238-54.941-39.129-88.325-39.129-33.566,0-65.069,14.042-88.707,39.539-23.395,25.235-36.28,58.722-36.28,94.294,0,1.428.023,2.898.07,4.366.04,1.278-.107,3.914-.107,3.914v22.186s.306.583.5.873v145.058c0,11.046,8.954,20,20,20h209.5c11.046,0,20-8.954,20-20v-131.5c0-11.046-8.954-20-20-20h-204.5Z"/>
</svg>