<?xml version="1.0" encoding="UTF-8"?>
<svg id="a" data-name="layer1" xmlns="http://www.w3.org/2000/svg" viewBox="0 0 1000 1000">
  <path d="M377.26,278.45c25.95,0,50.92,7.8,72.22,22.56,20.89,14.48,36.88,34.56,46.24,58.07,6.05,15.2,19.16,26.47,35.09,30.19,3.77.88,7.58,1.31,11.36,1.31,12.23,0,24.18-4.49,33.46-12.85,19.23-17.32,43.51-26.85,68.37-26.85,55.9,0,101.54,44.82,102.85,100.41-.15,1.39-.3,3.12-.35,5.09-.6,23.91,15.81,44.9,39.15,50.08,22.5,4.99,42.98,17.66,57.66,35.66,15.05,18.46,23.01,40.79,23.01,64.58s-8.63,47.63-24.3,66.07c-15.55,18.29-37.04,30.68-60.52,34.87-2.54.45-5.03,1.1-7.46,1.94H248.52c-56.73,0-102.88-46.15-102.88-102.88,0-22.77,7.41-44.3,21.42-62.26,13.66-17.51,32.97-30.4,54.36-36.31,13.11-3.62,24.19-12.43,30.66-24.4,6.48-11.97,7.8-26.05,3.65-39.01-4.02-12.57-6.05-25.59-6.05-38.7,0-70.34,57.23-127.57,127.57-127.57M377.26,228.45c-97.9,0-177.57,79.66-177.57,177.57,0,18.8,2.99,36.89,8.42,53.91-64.62,17.85-112.48,76.56-112.48,146.77,0,84.29,68.58,152.88,152.88,152.88h531.18c3.86,0,7.37-1.1,10.61-2.72,71.48-12.78,126.02-75.08,126.02-150.16s-51.41-133.88-119.84-149.06c.03-1.32.39-2.56.39-3.88,0-84.29-68.58-152.88-152.88-152.88-39.25,0-74.73,15.29-101.83,39.7-26.12-65.59-90.13-112.13-164.91-112.13h0Z"/>
</svg>