<?xml version="1.0" encoding="UTF-8"?>
<svg id="a" data-name="layer1" xmlns="http://www.w3.org/2000/svg" viewBox="0 0 500 500">
  <path d="M58.951,112.313c22.139,0,35.082,24.816,52.304,62.676,16.486,36.244,35.172,77.324,75.059,77.324s58.575-41.08,75.062-77.324c17.222-37.859,30.167-62.676,52.307-62.676s35.084,24.816,52.306,62.676c16.487,36.244,35.174,77.324,75.062,77.324,6.903,0,12.5-5.597,12.5-12.5s-5.597-12.5-12.5-12.5c-22.14,0-35.085-24.816-52.307-62.676-16.486-36.244-35.174-77.324-75.062-77.324s-58.575,41.08-75.062,77.324c-17.222,37.859-30.167,62.676-52.306,62.676s-35.082-24.816-52.303-62.675c-16.486-36.245-35.172-77.325-75.06-77.325-6.903,0-12.5,5.597-12.5,12.5s5.597,12.5,12.5,12.5Z"/>
  <path d="M441.049,415.202c-27.521,0-40.703-10.349-55.966-22.332-16.518-12.969-35.24-27.668-71.402-27.668s-54.886,14.699-71.404,27.668c-15.262,11.983-28.443,22.332-55.964,22.332s-40.699-10.349-55.961-22.331c-16.518-12.97-35.239-27.669-71.401-27.669-6.903,0-12.5,5.597-12.5,12.5s5.597,12.5,12.5,12.5c27.521,0,40.7,10.349,55.962,22.332,16.518,12.969,35.239,27.668,71.4,27.668s54.885-14.699,71.402-27.668c15.263-11.983,28.444-22.332,55.966-22.332s40.702,10.349,55.964,22.332c16.519,12.969,35.241,27.668,71.404,27.668,6.903,0,12.5-5.597,12.5-12.5s-5.597-12.5-12.5-12.5Z"/>
  <path d="M441.049,322.97c-25.816,0-38.833-16.352-53.905-35.285-16.685-20.959-35.595-44.715-73.463-44.715s-56.779,23.756-73.464,44.715c-15.072,18.934-28.089,35.285-53.904,35.285s-38.829-16.352-53.9-35.285c-16.685-20.959-35.595-44.715-73.462-44.715-6.903,0-12.5,5.597-12.5,12.5s5.597,12.5,12.5,12.5c25.814,0,38.83,16.352,53.902,35.285,16.684,20.959,35.593,44.715,73.46,44.715s56.778-23.756,73.463-44.715c15.072-18.934,28.089-35.285,53.905-35.285s38.832,16.352,53.904,35.285c16.685,20.959,35.595,44.715,73.464,44.715,6.903,0,12.5-5.597,12.5-12.5s-5.597-12.5-12.5-12.5Z"/>
</svg>