<?xml version="1.0" encoding="UTF-8"?>
<svg id="c" data-name="レイヤー 4" xmlns="http://www.w3.org/2000/svg" viewBox="0 0 500 500">
  <path d="M434.61,246.04l-38.02,21.76c-18.06,10.33-46.35,10.33-64.4,0l-106.16-60.75c-25.85-14.8-63.38-14.8-89.24,0l-83.82,47.97c-5.99,3.43-8.07,11.07-4.64,17.06,3.43,5.99,11.07,8.07,17.06,4.64l83.82-47.97c18.06-10.33,46.35-10.33,64.4,0l106.16,60.75c12.93,7.4,28.77,11.1,44.62,11.1,15.84,0,31.69-3.7,44.62-11.1l38.02-21.76c5.99-3.43,8.07-11.07,4.64-17.06-3.43-5.99-11.07-8.07-17.06-4.64Z"/>
  <path d="M65.39,200.64l83.82-47.97c18.06-10.33,46.35-10.33,64.4,0l106.16,60.75c12.93,7.4,28.77,11.1,44.62,11.1,15.84,0,31.69-3.7,44.62-11.1l38.02-21.76c5.99-3.43,8.07-11.07,4.64-17.06-3.43-5.99-11.07-8.07-17.06-4.64l-38.02,21.76c-18.06,10.33-46.35,10.33-64.4,0l-106.16-60.75c-25.85-14.8-63.38-14.8-89.24,0l-83.82,47.97c-5.99,3.43-8.07,11.07-4.64,17.06,3.43,5.99,11.07,8.07,17.06,4.64Z"/>
  <path d="M434.61,325.58l-38.02,21.76c-18.06,10.33-46.35,10.33-64.4,0l-106.16-60.75c-25.85-14.8-63.38-14.8-89.24,0l-83.82,47.97c-5.99,3.43-8.07,11.07-4.64,17.06,3.43,5.99,11.07,8.07,17.06,4.64l83.82-47.97c18.06-10.33,46.35-10.33,64.4,0l106.16,60.75c12.93,7.4,28.77,11.1,44.62,11.1,15.84,0,31.69-3.7,44.62-11.1l38.02-21.76c5.99-3.43,8.07-11.07,4.64-17.06-3.43-5.99-11.07-8.07-17.06-4.64Z"/>
</svg>