<?xml version="1.0" encoding="UTF-8"?>
<svg id="a" data-name="layer1" xmlns="http://www.w3.org/2000/svg" viewBox="0 0 500 500">
  <path d="M348.653,230.803c7.153-2.468,20.468-7.06,20.486-19.348.016-10.537-10.445-15.34-13.883-16.918-4.719-2.167-10.976-4.346-18.221-6.869-22.626-7.88-56.819-19.788-76.907-43.1-.125-.146-.254-.287-.386-.427-12.293-13.004-22.816-32.086-32.17-58.338-.091-.255-.19-.507-.298-.756-.998-2.313-2.307-6.241-3.691-10.398-5.68-17.05-10.166-30.516-21.64-32.472-.694-.118-1.396-.178-2.101-.178h-.049c-11.587,0-16.225,12.241-19.291,20.333-1.293,3.4-2.646,7.242-4.211,11.689-1.308,3.716-2.66,7.559-4.169,11.686-.012.032-.023.065-.035.098-9.347,26.241-19.87,45.323-32.17,58.336-.131.14-.26.281-.385.426-20.094,23.314-54.283,35.222-76.907,43.101-7.244,2.522-13.5,4.701-18.219,6.868-3.438,1.578-13.898,6.381-13.882,16.917.018,12.287,13.329,16.88,20.481,19.348.057.02.114.039.171.058,74.043,24.355,100.968,43.797,125.16,117.916.12.366.256.727.409,1.08.366.846,1.024,2.785,1.661,4.66,3.827,11.27,8.165,24.043,19.347,25.927.688.116,1.382.174,2.077.174s1.384-.058,2.069-.173c8.536-1.433,12.068-8.524,13.767-11.933l.36-.72c.083-.163.163-.327.238-.494,2.311-5.075,4.241-10.539,6.107-15.822l.846-2.391c.037-.104.072-.207.106-.312,24.169-74.098,51.097-93.541,125.162-117.912.056-.019.112-.038.168-.057ZM199.83,340.183c-25.707-78.26-57.137-104.018-128.755-128.984,25.083-8.735,62.801-21.931,87.208-50.093,14.637-15.564,26.852-37.438,37.337-66.857,1.537-4.204,2.956-8.234,4.21-11.801.012.035.023.069.034.104,1.498,4.495,2.916,8.752,4.286,12.004,10.468,29.275,22.649,51.051,37.229,66.552,24.402,28.162,62.125,41.356,87.21,50.093-71.646,24.983-103.074,50.736-128.759,128.983Z"/>
  <path d="M449.474,350.683c-10.435-3.635-26.205-9.126-34.923-19.244-.125-.146-.254-.288-.386-.427-5.398-5.711-10.102-14.321-14.379-26.324-.091-.256-.19-.509-.298-.758-.38-.881-1.035-2.847-1.612-4.58-3.182-9.551-6.187-18.571-15.576-20.172-.694-.118-1.396-.178-2.101-.178h-.03c-10.072,0-13.81,9.863-15.402,14.067-.662,1.74-1.369,3.749-2.117,5.875-.615,1.745-1.282,3.644-2.015,5.648-.012.033-.023.065-.035.098-4.273,11.998-8.977,20.608-14.379,26.323-.132.14-.26.281-.385.426-8.722,10.12-24.49,15.611-34.925,19.245-10.293,3.585-20.015,6.971-20,17.681.015,10.557,10.413,14.144,14.328,15.494.057.02.114.039.171.058,34.458,11.335,46.148,19.752,57.215,53.659.12.366.24.688.393,1.042.118.289.423,1.187.646,1.842,2.204,6.488,5.222,15.375,14.449,16.933.689.116,1.385.175,2.081.175s1.387-.058,2.074-.173c7.382-1.242,10.399-7.3,11.391-9.291l.151-.301c.083-.163.162-.327.238-.493,1.249-2.742,2.241-5.553,3.202-8.271l.408-1.153c.037-.104.072-.207.106-.312,11.056-33.896,22.748-42.313,57.216-53.655.056-.019.113-.038.168-.058,3.915-1.35,14.314-4.937,14.33-15.494.016-10.711-9.708-14.097-20.002-17.682ZM380.191,413.434c-10.526-23.779-24.044-35.745-45.252-45.129,10.224-4.426,21.242-10.675,29.645-20.327,5.94-6.344,11.089-14.536,15.61-24.867,4.522,10.334,9.671,18.527,15.608,24.867,8.402,9.652,19.423,15.902,29.648,20.328-21.215,9.387-34.738,21.354-45.259,45.128Z"/>
</svg>