<?xml version="1.0" encoding="UTF-8"?>
<svg id="a" data-name="layer1" xmlns="http://www.w3.org/2000/svg" viewBox="0 0 500 500">
  <path d="M349.69,423.53c-6.33,0-12.65-2.05-18.15-6.13l-78.29-58.2c-1.94-1.44-4.54-1.44-6.48,0l-78.29,58.2c-10.9,8.11-25.05,8.18-36.05.2-10.99-7.99-15.29-21.47-10.95-34.34l31.16-92.45c.77-2.29-.03-4.77-2-6.17l-79.55-56.47c-11.08-7.87-15.53-21.3-11.33-34.22,4.16-12.81,15.49-21.03,28.92-21.03.12,0,.24,0,.36-.17h97.55c2.41,1.26,4.52-.26,5.25-2.57l29.13-93.11c4.06-12.97,15.46-21.35,29.05-21.35s24.99,8.38,29.05,21.35l29.13,93.11c.72,2.29,2.79,3.81,5.18,3.57h97.61c.12-.83.24-.83.36-.83,13.43,0,24.75,8.22,28.92,21.03,4.2,12.92-.25,26.36-11.33,34.22l-79.55,56.47c-1.97,1.4-2.78,3.88-2,6.17l31.16,92.45c4.34,12.88.04,26.36-10.95,34.34-5.45,3.96-11.68,5.94-17.9,5.94Z"/>
</svg>