<?xml version="1.0" encoding="UTF-8"?>
<svg id="a" data-name="layer1" xmlns="http://www.w3.org/2000/svg" viewBox="0 0 500 500">
  <path d="M425,62.5h-179.616c-6.903,0-12.5,5.597-12.5,12.5v116.377h-82.524c-6.903,0-12.5,5.597-12.5,12.5v116.351h-62.86c-6.903,0-12.5,5.597-12.5,12.5v92.272c0,6.903,5.597,12.5,12.5,12.5h92.272c6.903,0,12.5-5.597,12.5-12.5v-62.859h116.35c6.903,0,12.5-5.597,12.5-12.5v-82.525h116.377c6.904,0,12.5-5.597,12.5-12.5V75c0-6.903-5.596-12.5-12.5-12.5ZM154.772,362.141v50.359h-67.272v-67.272h67.272v16.913ZM283.622,337.141h-120.763v-120.764h55.851v52.412c0,6.903,5.597,12.5,12.5,12.5h52.411v55.852ZM283.622,256.289h-39.911v-39.912h39.911v39.912ZM412.5,242.115h-103.877v-38.238c0-6.903-5.597-12.5-12.5-12.5h-38.238v-103.877h154.616v154.615Z"/>
</svg>