<?xml version="1.0" encoding="UTF-8"?>
<svg id="a" data-name="layer1" xmlns="http://www.w3.org/2000/svg" viewBox="0 0 500 500">
  <path d="M494.316,226.773c.024-.038.054-.071.078-.109.005-.008.009-.017.013-.024.051-.083.094-.168.143-.251.1-.171.193-.345.285-.521.024-.046.052-.091.075-.138.033-.065.075-.129.107-.195.042-.086.075-.174.115-.26.071-.154.134-.312.198-.469.032-.078.068-.154.099-.233.025-.064.057-.126.081-.19.03-.081.05-.163.078-.243.053-.155.098-.312.146-.469.013-.044.028-.089.041-.133.033-.113.075-.224.104-.336.018-.069.027-.14.044-.209.042-.173.074-.349.108-.523.042-.214.084-.427.115-.641.029-.201.046-.403.065-.605.018-.192.037-.384.046-.577.01-.226.008-.453.007-.68-.002-.172,0-.343-.01-.515-.012-.235-.036-.471-.061-.707-.009-.083-.011-.168-.022-.252-.004-.028-.004-.057-.007-.085-.008-.056-.022-.11-.03-.165-.032-.219-.076-.437-.12-.656-.039-.193-.08-.386-.128-.577-.047-.186-.102-.371-.158-.556-.068-.225-.14-.448-.221-.668-.027-.075-.046-.151-.074-.226-.033-.086-.077-.165-.112-.25-.095-.231-.197-.458-.306-.685-.074-.153-.151-.304-.23-.453-.111-.208-.229-.413-.353-.616-.096-.158-.195-.313-.297-.466-.054-.08-.099-.164-.155-.242-.069-.098-.149-.188-.221-.283-.119-.158-.24-.314-.365-.466-.062-.074-.116-.153-.18-.226-.06-.069-.13-.133-.192-.201-.01-.011-.021-.021-.031-.033-.142-.154-.285-.306-.433-.453-.072-.071-.138-.146-.213-.216-.068-.064-.145-.122-.215-.184-.164-.147-.331-.291-.502-.429-.083-.066-.16-.138-.245-.203-.009-.006-.016-.014-.024-.021-.066-.05-.136-.09-.203-.139-.177-.129-.358-.253-.541-.373-.084-.055-.16-.117-.246-.17-.018-.011-.036-.022-.054-.033l-.021-.013c-25.752-15.989-52.382-32.518-81.371-47.685-17.772-9.298-37.618-18.259-62.288-20.845-8.327-.872-16.065-.857-22.997.04-6.634.86-13.348,2.643-19.952,5.297-12.076,4.85-20.968,11.332-28.812,17.052l-24.871,18.134-24.871-18.133c-7.843-5.72-16.733-12.202-28.81-17.052-6.608-2.655-13.322-4.438-19.952-5.298-6.934-.897-14.669-.912-23-.04-24.667,2.586-44.515,11.547-62.288,20.845-28.994,15.17-55.622,31.698-81.371,47.685-.007.005-.014.009-.021.014-.018.011-.036.022-.054.033-.083.052-.157.112-.239.166-.188.123-.374.25-.556.383-.064.047-.132.085-.195.134-.009.006-.016.014-.024.021-.082.063-.157.132-.237.197-.177.143-.349.291-.519.443-.067.06-.141.115-.206.177-.072.067-.136.141-.206.209-.154.151-.302.308-.448.467-.008.009-.016.017-.023.025-.062.068-.132.131-.192.201-.062.071-.115.147-.175.22-.129.155-.253.315-.375.478-.07.094-.149.183-.217.277-.054.077-.098.159-.15.236-.105.156-.206.315-.305.478-.121.198-.237.399-.346.603-.082.153-.16.308-.236.465-.107.221-.207.445-.3.671-.036.087-.08.168-.114.256-.03.077-.048.154-.076.231-.079.217-.15.437-.217.658-.057.188-.113.376-.161.564-.047.189-.087.379-.126.57-.045.221-.088.44-.121.661-.008.055-.022.109-.03.164-.004.028-.004.057-.007.085-.011.083-.013.167-.022.25-.025.237-.05.473-.062.709-.009.171-.008.343-.01.515-.002.227-.004.454.007.68.009.192.028.383.046.576.019.203.036.405.065.606.03.214.073.426.114.639.034.176.066.352.108.526.017.069.026.139.044.207.031.118.075.233.109.351.011.04.025.079.037.119.047.157.092.315.146.47.028.081.049.163.078.243.024.064.056.126.081.19.03.078.066.155.098.233.064.157.128.314.198.469.04.086.073.174.115.26.032.066.073.129.107.195.023.046.051.091.075.137.092.176.185.351.286.522.049.083.092.168.143.251.005.008.009.017.013.024.052.083.112.157.166.239.123.188.25.374.383.556.047.064.086.132.134.196l.035.045c.008.011.016.021.025.032,32.725,42.866,70.895,76.098,113.452,98.773,41.427,22.074,85.229,33.267,130.189,33.268h.004c44.962,0,88.771-11.194,130.203-33.27,42.586-22.69,80.777-55.948,113.516-98.849.049-.063.087-.132.134-.196.139-.19.271-.384.399-.582.023-.035.049-.068.071-.104ZM102.668,183.871c14.51-7.591,31.79-15.878,53.306-18.134,6.391-.67,12.171-.683,17.178-.03,4.538.588,9.197,1.834,13.85,3.703,9.185,3.688,16.089,8.723,23.399,14.054l32.235,23.503c4.389,3.199,10.34,3.199,14.729,0l32.235-23.503c7.312-5.331,14.218-10.366,23.403-14.055,4.648-1.868,9.307-3.114,13.848-3.702,5.005-.651,10.784-.639,17.176.03,21.518,2.257,38.797,10.543,53.306,18.134,20.051,10.49,39.106,21.762,57.578,33.067-118.835,37.577-290.991,37.577-409.821,0,18.47-11.304,37.524-22.576,57.578-33.067ZM249.989,334.772c-71.399,0-139.431-31.259-195.161-88.88,56.82,15.759,124.427,24.261,195.182,24.26,70.746-.001,138.345-8.504,195.158-24.259-55.735,57.622-123.773,88.88-195.18,88.879Z"/>
</svg>