<?xml version="1.0" encoding="UTF-8"?>
<svg id="a" data-name="layer1" xmlns="http://www.w3.org/2000/svg" viewBox="0 0 500 500">
  <path d="M250,432.5c-100.63,0-182.5-81.87-182.5-182.5S149.37,67.5,250,67.5s182.5,81.87,182.5,182.5-81.87,182.5-182.5,182.5ZM250,92.5c-86.85,0-157.5,70.65-157.5,157.5s70.65,157.5,157.5,157.5,157.5-70.65,157.5-157.5-70.65-157.5-157.5-157.5Z"/>
  <path d="M250,352.5c-13.83,0-27.26-2.71-39.9-8.06-12.21-5.16-23.17-12.55-32.58-21.96-9.41-9.41-16.8-20.37-21.96-32.58-2.69-6.36.29-13.69,6.64-16.38,6.36-2.69,13.69.29,16.38,6.64,3.9,9.23,9.49,17.52,16.61,24.64,7.12,7.12,15.41,12.71,24.64,16.62,9.54,4.04,19.69,6.08,30.16,6.08s20.62-2.05,30.16-6.08c9.23-3.9,17.52-9.49,24.64-16.61,7.12-7.12,12.71-15.41,16.61-24.64,2.69-6.36,10.03-9.33,16.38-6.64,6.36,2.69,9.33,10.02,6.64,16.38-5.17,12.21-12.55,23.17-21.96,32.58-9.41,9.41-20.37,16.8-32.58,21.96-12.64,5.35-26.07,8.06-39.9,8.06Z"/>
  <path d="M308.41,219.87c-6.9,0-12.5-5.6-12.5-12.5v-35.27c0-6.9,5.6-12.5,12.5-12.5s12.5,5.6,12.5,12.5v35.27c0,6.9-5.6,12.5-12.5,12.5Z"/>
  <path d="M194.86,219.87c-6.9,0-12.5-5.6-12.5-12.5v-35.27c0-6.9,5.6-12.5,12.5-12.5s12.5,5.6,12.5,12.5v35.27c0,6.9-5.6,12.5-12.5,12.5Z"/>
</svg>