<?xml version="1.0" encoding="UTF-8"?>
<svg id="a" data-name="layer1" xmlns="http://www.w3.org/2000/svg" viewBox="0 0 500 500">
  <path d="M146.65,416.34h-34.87l43.71-43.71c3.57-3.58,4.64-8.95,2.71-13.62-1.93-4.67-6.49-7.72-11.55-7.72h-65.05c-6.9,0-12.5,5.6-12.5,12.5s5.6,12.5,12.5,12.5h34.87l-43.71,43.71c-3.58,3.58-4.64,8.95-2.71,13.62,1.93,4.67,6.49,7.72,11.55,7.72h65.05c6.9,0,12.5-5.6,12.5-12.5s-5.6-12.5-12.5-12.5Z"/>
  <path d="M245.14,288.25h-67.4l76.24-76.24c3.58-3.58,4.64-8.95,2.71-13.62-1.94-4.67-6.49-7.72-11.55-7.72h-97.57c-6.9,0-12.5,5.6-12.5,12.5s5.6,12.5,12.5,12.5h67.4l-76.24,76.24c-3.58,3.58-4.64,8.95-2.71,13.62,1.94,4.67,6.49,7.72,11.55,7.72h97.57c6.9,0,12.5-5.6,12.5-12.5s-5.6-12.5-12.5-12.5Z"/>
  <path d="M442.12,228.33h-116.18l125.02-125.02c3.58-3.58,4.64-8.95,2.71-13.62-1.93-4.67-6.49-7.72-11.55-7.72h-146.36c-6.9,0-12.5,5.6-12.5,12.5s5.6,12.5,12.5,12.5h116.18l-125.02,125.02c-3.58,3.58-4.64,8.95-2.71,13.62s6.49,7.72,11.55,7.72h146.36c6.9,0,12.5-5.6,12.5-12.5s-5.6-12.5-12.5-12.5Z"/>
</svg>