<?xml version="1.0" encoding="UTF-8"?>
<svg id="c" data-name="レイヤー 4" xmlns="http://www.w3.org/2000/svg" viewBox="0 0 500 500">
  <path d="M434.611,246.037l-38.016,21.757c-18.058,10.334-46.347,10.334-64.404,0l-106.159-60.755c-25.854-14.797-63.385-14.797-89.239,0l-83.82,47.971c-5.992,3.429-8.069,11.065-4.64,17.058,3.429,5.991,11.066,8.069,17.058,4.64l83.82-47.971c18.057-10.334,46.346-10.334,64.404,0l106.159,60.755c12.929,7.399,28.771,11.099,44.62,11.098,15.845,0,31.694-3.7,44.62-11.098l38.017-21.757c5.992-3.429,8.069-11.065,4.64-17.058-3.429-5.991-11.066-8.07-17.058-4.64Z"/>
  <path d="M65.39,200.635l83.82-47.971c18.057-10.334,46.346-10.334,64.404,0l106.159,60.755c12.929,7.399,28.771,11.099,44.62,11.098,15.845,0,31.694-3.7,44.62-11.098l38.017-21.757c5.992-3.429,8.069-11.065,4.64-17.058-3.429-5.991-11.066-8.07-17.058-4.64l-38.016,21.757c-18.058,10.334-46.347,10.334-64.404,0l-106.159-60.755c-25.854-14.798-63.385-14.796-89.239,0l-83.82,47.971c-5.992,3.429-8.069,11.065-4.64,17.058,3.429,5.99,11.066,8.071,17.058,4.64Z"/>
  <path d="M434.611,325.579l-38.016,21.757c-18.058,10.334-46.347,10.334-64.404,0l-106.159-60.755c-25.854-14.797-63.385-14.797-89.239,0l-83.82,47.971c-5.992,3.429-8.069,11.065-4.64,17.058,3.429,5.991,11.066,8.07,17.058,4.64l83.82-47.971c18.057-10.334,46.346-10.334,64.404,0l106.159,60.755c12.929,7.399,28.771,11.099,44.62,11.098,15.845,0,31.694-3.7,44.62-11.098l38.017-21.757c5.992-3.429,8.069-11.065,4.64-17.058-3.429-5.99-11.066-8.071-17.058-4.64Z"/>
</svg>