<?xml version="1.0" encoding="UTF-8"?>
<svg id="a" data-name="layer1" xmlns="http://www.w3.org/2000/svg" viewBox="0 0 500 500">
  <path d="M58.95,112.31c22.14,0,35.08,24.82,52.3,62.68,16.49,36.24,35.17,77.32,75.06,77.32s58.58-41.08,75.06-77.32c17.22-37.86,30.17-62.68,52.31-62.68s35.08,24.82,52.31,62.68c16.49,36.24,35.17,77.32,75.06,77.32,6.9,0,12.5-5.6,12.5-12.5s-5.6-12.5-12.5-12.5c-22.14,0-35.08-24.82-52.31-62.68-16.49-36.24-35.17-77.32-75.06-77.32s-58.58,41.08-75.06,77.32c-17.22,37.86-30.17,62.68-52.31,62.68s-35.08-24.82-52.3-62.67c-16.49-36.25-35.17-77.33-75.06-77.33-6.9,0-12.5,5.6-12.5,12.5s5.6,12.5,12.5,12.5Z"/>
  <path d="M441.05,415.2c-27.52,0-40.7-10.35-55.97-22.33-16.52-12.97-35.24-27.67-71.4-27.67s-54.89,14.7-71.4,27.67c-15.26,11.98-28.44,22.33-55.96,22.33s-40.7-10.35-55.96-22.33c-16.52-12.97-35.24-27.67-71.4-27.67-6.9,0-12.5,5.6-12.5,12.5s5.6,12.5,12.5,12.5c27.52,0,40.7,10.35,55.96,22.33,16.52,12.97,35.24,27.67,71.4,27.67s54.88-14.7,71.4-27.67c15.26-11.98,28.44-22.33,55.97-22.33s40.7,10.35,55.96,22.33c16.52,12.97,35.24,27.67,71.4,27.67,6.9,0,12.5-5.6,12.5-12.5s-5.6-12.5-12.5-12.5Z"/>
  <path d="M441.05,322.97c-25.82,0-38.83-16.35-53.91-35.29-16.68-20.96-35.59-44.71-73.46-44.71s-56.78,23.76-73.46,44.71c-15.07,18.93-28.09,35.29-53.9,35.29s-38.83-16.35-53.9-35.29c-16.68-20.96-35.59-44.71-73.46-44.71-6.9,0-12.5,5.6-12.5,12.5s5.6,12.5,12.5,12.5c25.81,0,38.83,16.35,53.9,35.29,16.68,20.96,35.59,44.71,73.46,44.71s56.78-23.76,73.46-44.71c15.07-18.93,28.09-35.29,53.91-35.29s38.83,16.35,53.9,35.29c16.68,20.96,35.59,44.71,73.46,44.71,6.9,0,12.5-5.6,12.5-12.5s-5.6-12.5-12.5-12.5Z"/>
</svg>