<?xml version="1.0" encoding="UTF-8"?>
<svg id="a" data-name="layer1" xmlns="http://www.w3.org/2000/svg" viewBox="0 0 500 500">
  <path d="M413.93,106.65c-13.68-13.68-31.86-21.21-51.21-21.21s-37.53,7.53-51.21,21.21l-79.12,79.12c-3.41-.49-6.88-.74-10.39-.74-19.34,0-37.53,7.53-51.21,21.21l-84.73,84.73c-13.68,13.68-21.21,31.86-21.21,51.21s7.53,37.53,21.21,51.21c14.12,14.12,32.66,21.18,51.21,21.18s37.09-7.06,51.21-21.18l79.15-79.15c3.43.49,6.9.74,10.36.74,18.54,0,37.09-7.06,51.21-21.18l84.73-84.74c13.68-13.68,21.21-31.86,21.21-51.21s-7.53-37.53-21.21-51.21ZM259.61,286.32c-5.59-2.35-10.73-5.78-15.15-10.2h0c-8.96-8.96-13.89-20.86-13.89-33.53,0-10.59,3.46-20.63,9.82-28.88,5.59,2.35,10.73,5.79,15.15,10.2,8.96,8.96,13.89,20.86,13.89,33.53,0,10.58-3.46,20.63-9.82,28.88ZM170.8,375.71c-8.96,8.96-20.86,13.89-33.53,13.89s-24.57-4.93-33.53-13.89h0c-8.96-8.96-13.89-20.86-13.89-33.53s4.93-24.57,13.89-33.53l84.73-84.73c6.77-6.77,15.22-11.23,24.41-13.01-13.11,27-8.5,60.51,13.89,82.9,4.48,4.48,9.4,8.24,14.63,11.3l-70.61,70.61ZM396.25,191.38l-84.73,84.74c-6.76,6.76-15.19,11.22-24.37,13,4.75-9.75,7.27-20.52,7.27-31.68,0-19.34-7.53-37.53-21.21-51.21-4.44-4.44-9.35-8.21-14.62-11.31l70.6-70.6c8.96-8.96,20.86-13.89,33.53-13.89s24.57,4.93,33.53,13.89,13.89,20.86,13.89,33.53-4.93,24.57-13.89,33.53Z"/>
</svg>