<?xml version="1.0" encoding="UTF-8"?>
<svg id="a" data-name="layer1" xmlns="http://www.w3.org/2000/svg" viewBox="0 0 500 500">
  <path d="M447.92,52.08c-4.88-4.88-12.8-4.88-17.68,0L52.08,430.24c-4.88,4.88-4.88,12.8,0,17.68,2.44,2.44,5.64,3.66,8.84,3.66s6.4-1.22,8.84-3.66L447.92,69.76c4.88-4.88,4.88-12.8,0-17.68Z"/>
  <path d="M83.02,367.87c4.9,3.15,11.35,2.41,15.46-1.71l.19-.19c5.67-5.67,4.5-15.01-2.23-19.36-13.67-8.83-22.97-23.84-23.58-41.19-.43-12.07,3.29-23.53,10.68-33,6.74-8.64,16.23-15.03,26.77-18.04,4.62-1.32,8.91-3.73,12.15-7.27,6.19-6.76,8.11-16.13,5.42-24.55-2.01-6.29-3.03-12.8-3.03-19.35,0-35.17,28.61-63.78,63.78-63.78,12.98,0,25.46,3.9,36.11,11.28,10.44,7.24,18.44,17.28,23.12,29.03,3.03,7.6,9.58,13.23,17.54,15.09,1.27.3,2.54.48,3.82.58l13.34-13.34c7.43-7.43-3.28-18.88-11.13-11.9-.12.1-.23.21-.35.31-13.06-32.79-45.06-56.06-82.46-56.06-48.95,0-88.78,39.83-88.78,88.78,0,9.4,1.49,18.45,4.21,26.96-32.31,8.92-56.24,38.28-56.24,73.39,0,26.96,14.04,50.71,35.2,64.31Z"/>
  <path d="M398.25,229.03c.02-.66.2-1.28.2-1.94,0-21.72-9.12-41.35-23.72-55.27-3.19-3.04-8.24-2.94-11.35.17l-6.14,6.14c-3.27,3.27-3.12,8.55.23,11.74,9.56,9.11,15.63,21.85,15.97,35.99-.08.7-.15,1.56-.17,2.54-.3,11.95,7.9,22.45,19.58,25.04,11.25,2.5,21.49,8.83,28.83,17.83,7.53,9.23,11.51,20.4,11.51,32.29s-4.32,23.81-12.15,33.03c-7.77,9.15-18.52,15.34-30.26,17.44-1.27.23-2.52.55-3.73.97h-201.52c-3.3,0-6.46,1.31-8.79,3.64l-.12.12c-7.84,7.84-2.29,21.23,8.79,21.23h204.47c1.93,0,3.69-.55,5.31-1.36,35.74-6.39,63.01-37.54,63.01-75.08s-25.71-66.94-59.92-74.53Z"/>
</svg>