<?xml version="1.0" encoding="UTF-8"?>
<svg id="a" data-name="layer1" xmlns="http://www.w3.org/2000/svg" viewBox="0 0 500 500">
  <path d="M84.187,153.024c0-3.794,1.72-7.541,4.984-9.998,5.516-4.15,13.353-3.044,17.504,2.473l141.564,188.121c.407.54,1.064.866,1.751.866s1.345-.326,1.756-.873l141.579-188.115c4.151-5.516,11.988-6.622,17.504-2.471,5.516,4.15,6.623,11.986,2.471,17.504l-141.582,188.121c-5.113,6.786-13.233,10.834-21.727,10.834s-16.614-4.048-21.723-10.828L86.699,160.53c-1.694-2.251-2.513-4.89-2.513-7.506Z"/>
</svg>