<?xml version="1.0" encoding="UTF-8"?>
<svg id="c" data-name="レイヤー 4" xmlns="http://www.w3.org/2000/svg" viewBox="0 0 500 500">
  <path d="M447.917,52.083c-4.881-4.881-12.797-4.881-17.678,0L52.083,430.239c-4.882,4.882-4.882,12.796,0,17.678,2.44,2.44,5.64,3.661,8.839,3.661s6.398-1.221,8.839-3.661L447.917,69.76c4.882-4.882,4.882-12.796,0-17.678Z"/>
  <path d="M120.538,344.107l18.008-18.008c.656-.656,1.024-1.545,1.024-2.472V92.279h97.93v110.43c0,6.037,4.283,11.062,9.975,12.229,1.155.236,2.354-.123,3.188-.957l17.805-17.805c2.202-2.202.643-5.968-2.472-5.968-1.931,0-3.496-1.565-3.496-3.496v-68.316c0-3.115,3.766-4.674,5.968-2.472l37.654,37.654c1.365,1.365,3.579,1.365,4.944,0l12.734-12.734c1.365-1.365,1.365-3.578,0-4.943l-64.961-64.961c-.27-.27-.553-.521-.842-.762-.071-.059-.145-.115-.217-.173-.232-.185-.47-.361-.713-.528-.074-.051-.147-.103-.223-.151-.633-.415-1.297-.769-1.986-1.059-.072-.031-.145-.058-.218-.086-.283-.113-.568-.216-.858-.308-.082-.026-.163-.053-.245-.077-.721-.213-1.459-.36-2.207-.44-.082-.009-.164-.015-.246-.021-.312-.027-.625-.043-.94-.046-.048,0-.096-.007-.144-.007h-122.93c-6.904,0-12.5,5.596-12.5,12.5v261.856c0,3.114,3.766,4.674,5.968,2.472Z"/>
  <path d="M385.378,201.664c-.009-.104-.016-.206-.027-.309-.04-.366-.091-.731-.163-1.092-.002-.01-.005-.02-.007-.03-.071-.35-.161-.696-.261-1.039-.03-.101-.063-.2-.095-.3-.085-.267-.18-.53-.283-.79-.036-.091-.069-.182-.107-.271-.145-.341-.3-.678-.476-1.006-.005-.01-.011-.019-.017-.029-.168-.313-.354-.619-.55-.919-.057-.087-.116-.172-.175-.257-.158-.229-.324-.453-.498-.673-.066-.083-.13-.167-.198-.248-.238-.286-.486-.565-.753-.832l-17.67-17.669c-1.365-1.365-3.579-1.365-4.943,0l-33.041,33.041c-2.202,2.202-.643,5.968,2.472,5.968h28.348c1.931,0,3.496,1.565,3.496,3.496v189.017h-217.364c-1.931,0-3.496-1.565-3.496-3.496h0c0-3.115-3.766-4.675-5.968-2.473l-17.805,17.805c-.833.833-1.193,2.033-.956,3.188,1.167,5.691,6.192,9.975,12.229,9.975h245.86c6.903,0,12.5-5.596,12.5-12.5v-217.513c0-.063-.009-.125-.01-.188-.004-.286-.018-.572-.042-.856Z"/>
</svg>