<?xml version="1.0" encoding="UTF-8"?>
<svg id="a" data-name="layer1" xmlns="http://www.w3.org/2000/svg" viewBox="0 0 500 500">
  <path d="M188.632,139.435c12.975,0,25.462,3.901,36.11,11.281,10.443,7.239,18.439,17.278,23.121,29.034,3.027,7.598,9.578,13.235,17.543,15.094,1.883.439,3.789.655,5.681.655,6.113,0,12.09-2.244,16.731-6.423,9.614-8.658,21.755-13.426,34.186-13.426,27.952,0,50.768,22.408,51.425,50.205-.077.697-.149,1.562-.174,2.545-.302,11.954,7.903,22.448,19.577,25.038,11.25,2.496,21.489,8.829,28.83,17.832,7.527,9.231,11.505,20.396,11.505,32.29,0,12.082-4.316,23.813-12.152,33.034-7.773,9.146-18.519,15.339-30.258,17.437-1.268.226-2.515.551-3.73.968H124.849c-27.784,0-51.013-21.807-51.994-49.574-.427-12.073,3.29-23.526,10.679-32.997,6.83-8.753,16.483-15.201,27.182-18.156,6.557-1.811,12.094-6.216,15.331-12.199,3.238-5.983,3.898-13.027,1.827-19.507-2.008-6.286-3.026-12.796-3.026-19.348,0-35.171,28.613-63.784,63.784-63.784M188.632,114.435c-48.952,0-88.784,39.832-88.784,88.784,0,9.398,1.494,18.447,4.212,26.956-32.312,8.924-56.239,38.279-56.239,73.385,0,42.143,34.289,76.44,76.44,76.44h265.589c1.93,0,3.687-.552,5.306-1.358,35.742-6.388,63.011-37.538,63.011-75.081,0-36.457-25.707-66.938-59.92-74.529.017-.66.197-1.278.197-1.942,0-42.143-34.289-76.44-76.44-76.44-19.627,0-37.366,7.646-50.916,19.849-13.062-32.793-45.065-56.064-82.456-56.064h0Z"/>
</svg>