<?xml version="1.0" encoding="UTF-8"?>
<svg id="a" data-name="layer1" xmlns="http://www.w3.org/2000/svg" viewBox="0 0 1000 1000">
  <path d="M649.07,132.34h0,0M564.29,225.45l-59.21,133.29c-10.84,24.41-.58,53.04,23.3,65l167.96,84.14-307.76,272.22,79.56-150.56c6.79-12.85,7.65-28.03,2.36-41.56-5.29-13.54-16.22-24.1-29.92-28.94l-136.24-48.09,259.95-285.48M634,89c-8.1,0-16.1,3.32-21.9,9.69L246.69,499.97c-6.68,7.33-9.24,17.56-6.83,27.17,2.43,9.65,9.51,17.44,18.89,20.72l165.18,58.31-131.76,249.36c-6.7,12.66-3.38,28.29,7.89,37.16,5.38,4.24,11.85,6.33,18.31,6.33,7.02,0,14.05-2.51,19.64-7.45l414.02-366.21c7.37-6.52,11.02-16.28,9.74-26.01-1.27-9.76-7.31-18.25-16.11-22.69l-194.89-97.63,110.33-248.36c5.9-13.31,1.29-28.9-10.88-36.85-5-3.25-10.63-4.83-16.22-4.83h0Z"/>
</svg>