<?xml version="1.0" encoding="UTF-8"?>
<svg id="a" data-name="layer1" xmlns="http://www.w3.org/2000/svg" viewBox="0 0 500 500">
  <path d="M406.48,93.52c-20.84-20.84-62-14.15-116.22,18.77-12.78-3.74-26.29-5.76-40.27-5.76-79.11,0-143.47,64.37-143.47,143.48,0,13.97,2.02,27.48,5.76,40.26-32.91,54.21-39.6,95.37-18.76,116.21,7.96,7.96,18.88,11.91,32.37,11.91,21.82,0,50.34-10.33,83.84-30.67,12.78,3.74,26.29,5.76,40.26,5.76,79.12,0,143.48-64.36,143.48-143.47,0-13.98-2.02-27.49-5.76-40.28,32.91-54.22,39.61-95.37,18.76-116.21ZM388.8,111.2c8.13,8.13,6.36,32.21-13.27,69.39-13.07-23.55-32.58-43.05-56.12-56.12,37.18-19.63,61.27-21.4,69.4-13.28ZM250,131.53c49.99,0,92.84,31.11,110.22,74.99-18.07,27.82-41.96,56.84-69.4,84.29s-56.47,51.33-84.29,69.41c-43.88-17.37-75-60.22-75-110.2,0-65.33,53.15-118.48,118.47-118.48ZM111.2,388.8c-8.13-8.13-6.36-32.21,13.27-69.39,13.07,23.55,32.57,43.04,56.12,56.12-37.18,19.63-61.26,21.4-69.39,13.27ZM250,368.47c-3.61,0-7.17-.17-10.7-.49,23.21-16.85,46.74-37.06,69.19-59.5,22.45-22.45,42.66-45.98,59.5-69.19.32,3.53.49,7.1.49,10.72,0,65.32-53.15,118.47-118.48,118.47Z"/>
</svg>