<?xml version="1.0" encoding="UTF-8"?>
<svg id="a" data-name="layer1" xmlns="http://www.w3.org/2000/svg" viewBox="0 0 500 500">
  <path d="M324.66,120.93h0,0M394.84,191.11h0,0M316.78,99.19c-3.54,0-7.09,1.35-9.79,4.06l-121.81,121.81c-32.56,32.56-44.14,73.73-30.38,100.55l-51.54,51.54c-5.41,5.41-5.41,14.18,0,19.59,2.71,2.71,6.25,4.06,9.79,4.06s7.09-1.35,9.79-4.06l51.62-51.63c7.43,3.81,15.85,5.89,25,5.89,23.88-.02,51.94-12.64,75.48-36.18l121.8-121.81c5.41-5.41,5.41-14.18,0-19.59-2.71-2.71-6.25-4.06-9.79-4.06s-7.09,1.35-9.79,4.06l-121.8,121.81c-19.07,19.05-40.38,28.01-55.81,28.01-7.24,0-13.18-1.97-17-5.79-11.96-11.96-5.78-44.82,22.22-72.81l121.81-121.81c5.41-5.41,5.41-14.18,0-19.59-2.71-2.71-6.25-4.06-9.79-4.06h0Z"/>
</svg>