<?xml version="1.0" encoding="UTF-8"?>
<svg id="a" data-name="layer1" xmlns="http://www.w3.org/2000/svg" viewBox="0 0 500 500">
  <path d="M387.06,334.06c-23.2,0-42.76,15.92-48.32,37.41h-8.74c-37.22,0-67.5-30.28-67.5-67.5v-107.94c0-51-41.5-92.5-92.5-92.5h-8.74c-5.56-21.49-25.12-37.41-48.32-37.41-27.52,0-49.91,22.39-49.91,49.91s22.39,49.91,49.91,49.91c23.2,0,42.76-15.92,48.32-37.41h8.74c37.22,0,67.5,30.28,67.5,67.5v107.94c0,51,41.5,92.5,92.5,92.5h8.74c5.56,21.49,25.12,37.41,48.32,37.41,27.52,0,49.91-22.39,49.91-49.91s-22.39-49.91-49.91-49.91ZM112.94,145.97c-16.51,0-29.94-13.43-29.94-29.94s13.43-29.94,29.94-29.94c12.05,0,22.45,7.16,27.2,17.44h-27.2c-6.9,0-12.5,5.6-12.5,12.5s5.6,12.5,12.5,12.5h27.2c-4.75,10.28-15.15,17.44-27.2,17.44ZM387.06,413.91c-12.05,0-22.45-7.16-27.2-17.44h27.2c6.9,0,12.5-5.6,12.5-12.5s-5.6-12.5-12.5-12.5h-27.2c4.75-10.28,15.15-17.44,27.2-17.44,16.51,0,29.94,13.43,29.94,29.94s-13.43,29.94-29.94,29.94Z"/>
</svg>