<?xml version="1.0" encoding="UTF-8"?>
<svg id="a" data-name="layer1" xmlns="http://www.w3.org/2000/svg" viewBox="0 0 500 500">
  <path d="M410.229,392.303l-102.461-102.461c17.639-21.544,28.238-49.063,28.238-79.015,0-68.896-56.057-124.953-124.953-124.953s-124.944,56.058-124.944,124.953,56.048,124.935,124.944,124.935c29.964,0,57.497-10.604,79.049-28.252l104.001,104.022c1.712,1.712,5.083,2.881,7.48,2.533,12.68-1.842,15.563-14.846,8.647-21.762ZM211.054,310.762c-55.109,0-99.944-44.831-99.944-99.935s44.835-99.953,99.944-99.953,99.953,44.839,99.953,99.953-44.839,99.935-99.953,99.935Z"/>
</svg>