<?xml version="1.0" encoding="UTF-8"?>
<svg id="a" data-name="layer1" xmlns="http://www.w3.org/2000/svg" viewBox="0 0 500 500">
  <path d="M412.24,137c-21.28-31.92-50.09-49.5-81.11-49.5h-91.29c-31.03,0-59.83,17.58-81.11,49.5-20.24,30.36-31.39,70.49-31.39,113s11.15,82.64,31.39,113c6.3,9.46,13.27,17.64,20.76,24.5h-63.39c-6.9,0-12.5,5.6-12.5,12.5s5.6,12.5,12.5,12.5h110.39c1.31,0,2.57-.2,3.76-.58,3.17.38,6.37.58,9.59.58h91.29c31.03,0,59.83-17.58,81.11-49.5,20.24-30.36,31.39-70.49,31.39-113s-11.15-82.64-31.39-113ZM152.33,250c0-37.63,9.66-72.83,27.19-99.13,16.5-24.74,37.91-38.37,60.31-38.37s43.82,13.63,60.31,38.37c17.53,26.3,27.19,61.51,27.19,99.13s-9.66,72.83-27.19,99.13c-16.5,24.74-37.91,38.37-60.31,38.37-.28,0-.57-.01-.85-.02v-82.23c0-6.9-5.6-12.5-12.5-12.5s-12.5,5.6-12.5,12.5v76.01c-12.71-6.28-24.48-17.17-34.46-32.13-17.53-26.3-27.19-61.51-27.19-99.13ZM391.44,349.13c-16.5,24.74-37.91,38.37-60.31,38.37h-30.95c7.49-6.86,14.46-15.04,20.76-24.5,20.24-30.36,31.39-70.49,31.39-113s-11.15-82.64-31.39-113c-6.3-9.46-13.27-17.64-20.76-24.5h30.95c22.4,0,43.82,13.63,60.31,38.37,17.53,26.3,27.19,61.51,27.19,99.13s-9.66,72.83-27.19,99.13Z"/>
</svg>