<?xml version="1.0" encoding="UTF-8"?>
<svg id="a" data-name="layer1" xmlns="http://www.w3.org/2000/svg" viewBox="0 0 500 500">
  <path d="M250.277,451.591c-9.227,0-18.516-.631-27.61-1.877-12.352-1.692-21.667-12.351-21.667-24.792v-30.476c-6.387-2.165-12.622-4.754-18.663-7.747l-21.461,21.461c-8.816,8.818-22.96,9.753-32.899,2.174-14.537-11.087-27.512-24.092-38.565-38.654-7.539-9.932-6.592-24.057,2.206-32.855l21.515-21.515c-2.958-6.011-5.517-12.216-7.657-18.571h-30.418c-12.462,0-23.122-9.328-24.797-21.699-1.217-8.99-1.834-18.175-1.834-27.301s.617-18.311,1.834-27.301c1.675-12.371,12.335-21.699,24.797-21.699h30.608c2.146-6.29,4.703-12.433,7.653-18.386l-21.7-21.699c-8.798-8.799-9.746-22.924-2.206-32.856,11.053-14.561,24.028-27.566,38.564-38.652,9.94-7.579,24.083-6.645,32.9,2.174l21.83,21.83c5.924-2.915,12.036-5.442,18.294-7.563v-31.029c0-12.442,9.315-23.1,21.666-24.792,9.094-1.246,18.383-1.877,27.61-1.877,9.022,0,18.103.603,26.991,1.792,12.389,1.657,21.732,12.319,21.732,24.802v31.105c6.258,2.121,12.37,4.648,18.294,7.563l22.069-22.069c8.799-8.798,22.923-9.747,32.856-2.206,14.563,11.055,27.567,24.03,38.652,38.564,7.58,9.938,6.646,24.081-2.173,32.9l-22.015,22.015c2.95,5.953,5.507,12.096,7.653,18.386h31.162c12.462,0,23.122,9.328,24.797,21.699,1.217,8.99,1.834,18.176,1.834,27.301s-.617,18.311-1.835,27.301c-1.674,12.371-12.335,21.699-24.797,21.699h-30.973c-2.14,6.355-4.699,12.559-7.657,18.571l21.83,21.83c8.818,8.818,9.753,22.962,2.173,32.9-11.086,14.536-24.09,27.51-38.652,38.564-9.932,7.54-24.058,6.593-32.856-2.207l-21.699-21.699c-6.041,2.993-12.276,5.582-18.663,7.747v30.551c0,12.481-9.342,23.143-21.731,24.802-8.889,1.189-17.971,1.792-26.992,1.792ZM178.085,355.54l8.308,4.802c9.542,5.514,19.779,9.765,30.429,12.633l9.178,2.491v49.296c.077.004.097.007.119.01,7.967,1.091,16.11,1.645,24.201,1.645,7.912,0,23.18-1.57,23.18-1.57l.5-39.802v-9.579l9.265-2.491c10.649-2.869,20.887-7.119,30.429-12.633l8.308-4.802,35.032,35.031c.006-.001.026-.017.043-.03,12.76-9.686,24.154-21.055,33.868-33.791.014-.018.027-.036.021-.062l-35.115-35.103,4.764-8.297c5.466-9.521,9.677-19.736,12.516-30.362l2.478-9.187h49.833c.006-.087.009-.088.009-.088-.005-.004-.003-.018,0-.04,1.067-7.877,1.607-15.929,1.607-23.932s-.541-16.054-1.607-23.932c-.002-.021-.025-.508-.025-.508h-49.926l-2.505-8.756c-2.868-10.56-7.095-20.712-12.565-30.176l-4.802-8.309,35.347-35.347c-.001-.006-.015-.025-.029-.042-9.713-12.735-21.108-24.104-33.868-33.792-.017-.013-.038-.027-.064-.021l-35.34,35.353-8.297-4.764c-9.444-5.422-19.575-9.61-30.11-12.447l-9.266-2.491v-49.926c-7.807-1.05-15.768-1.579-23.68-1.579-8.091,0-16.234.553-24.202,1.645-.021.003-.042.006-.119.028v49.832l-9.178,2.491c-10.535,2.837-20.666,7.025-30.11,12.447l-8.297,4.764-35.123-35.122c-.007,0-.026.016-.043.029-12.735,9.713-24.104,21.108-33.79,33.867-.014.018-.028.038-.022.064l35.023,35.011-4.802,8.309c-5.47,9.464-9.698,19.617-12.565,30.176l-2.505,9.256h-49.389s-.006-.013-.009.008c-1.067,7.878-1.607,15.93-1.607,23.932s.541,16.054,1.607,23.931c.003.022.005.037.025.128h49.264l2.478,9.187c2.838,10.626,7.049,20.842,12.516,30.362l4.764,8.297-34.808,34.808c.002.006.017.026.03.043,9.686,12.76,21.055,24.154,33.791,33.869.016.012.036.027.062.021l34.773-34.785ZM250.044,324.084c-40.874,0-74.128-33.253-74.128-74.127s33.254-74.127,74.128-74.127,74.127,33.253,74.127,74.127-33.253,74.127-74.127,74.127ZM250.044,200.829c-27.089,0-49.128,22.039-49.128,49.127s22.039,49.127,49.128,49.127,49.127-22.039,49.127-49.127-22.039-49.127-49.127-49.127Z"/>
</svg>