<?xml version="1.0" encoding="UTF-8"?>
<svg id="a" data-name="layer1" xmlns="http://www.w3.org/2000/svg" viewBox="0 0 500 500">
  <path d="M450.83,200.9c4.35-4.99,3.85-12.58-.83-17.26l-88.16-88.16c-.26-.26-.53-.51-.81-.74-.14-.12-.39-.3-.54-.41-.18-.14-.36-.28-.55-.4-.18-.12-.36-.22-.54-.33-.17-.1-.33-.21-.51-.3-.19-.1-.38-.18-.56-.27-.18-.09-.36-.18-.54-.25-.18-.08-.37-.14-.56-.2-.2-.07-.39-.15-.6-.21-.19-.06-.38-.1-.57-.15-.21-.05-.41-.11-.62-.15-.22-.04-.44-.07-.67-.1-.18-.03-.48-.07-.67-.09-.74-.07-1.48-.07-2.22,0-.18.02-.48.06-.67.09-.22.03-.44.06-.67.1-.21.04-.41.1-.62.15-.19.05-.38.09-.57.15-.2.06-.4.14-.6.21-.19.07-.37.13-.56.2-.19.08-.36.17-.54.25-.19.09-.38.17-.56.27-.17.09-.34.2-.51.3-.18.11-.37.21-.54.33-.19.13-.37.27-.55.4-.15.11-.4.29-.54.41-.28.24-.55.48-.81.74l-88.14,88.14c-4.6,4.6-5.21,12.05-1.05,17.05,4.78,5.74,13.32,6.03,18.47.87l67.05-67.05v89c0,88.37-71.63,160-160,160H58.94c-6.51,0-12.2,4.84-12.8,11.32-.68,7.43,5.15,13.68,12.45,13.68h116.91c104.93,0,190-85.07,190-190v-84l67.05,67.05c2.44,2.44,5.64,3.66,8.84,3.66,3.47,0,6.94-1.44,9.44-4.31Z"/>
</svg>