<?xml version="1.0" encoding="UTF-8"?>
<svg id="a" data-name="layer1" xmlns="http://www.w3.org/2000/svg" viewBox="0 0 500 500">
  <path d="M315.09,182.54H113.25l1.84-1.85,67.05-67.05c5.1-5.1,4.87-13.5-.68-18.31-4.83-4.19-12.66-3.71-17.18.81l-88.21,88.21c-.26.26-.51.53-.74.81-.12.14-.3.39-.41.54-.14.18-.28.36-.4.55-.12.18-.22.36-.33.54-.1.17-.21.33-.3.51-.1.18-.18.38-.27.56-.09.18-.18.36-.25.54-.08.18-.14.37-.2.56-.07.2-.15.39-.21.6-.06.19-.1.38-.15.57-.05.21-.11.41-.15.62-.04.22-.07.44-.1.67-.03.18-.07.48-.09.67-.07.74-.07,1.48,0,2.22.02.18.06.48.09.67.03.22.06.44.1.67.04.21.1.41.15.62.05.19.09.38.15.57.06.2.14.4.21.6.07.19.13.37.2.56.08.19.17.36.25.54.09.19.17.38.27.56.09.17.2.34.3.51.11.18.21.37.33.54.13.19.27.37.4.55.11.15.29.4.41.54.24.28.48.55.74.81l88.2,88.2c4.68,4.68,12.26,5.13,17.24.77,2.86-2.5,4.28-5.96,4.28-9.42,0-3.2-1.22-6.4-3.66-8.84l-65.2-65.2h198.15c48.25,0,87.5,39.25,87.5,87.5s-39.25,87.5-87.5,87.5h-135.83c-6.9,0-12.5,5.6-12.5,12.5s5.6,12.5,12.5,12.5h135.83c62.03,0,112.5-50.47,112.5-112.5s-50.47-112.5-112.5-112.5Z"/>
</svg>