<?xml version="1.0" encoding="UTF-8"?>
<svg id="a" data-name="layer1" xmlns="http://www.w3.org/2000/svg" viewBox="0 0 500 500">
  <path d="M128.35,144.72H28.35c-6.9,0-12.5-5.6-12.5-12.5V32.22c0-6.9,5.6-12.5,12.5-12.5h100c6.9,0,12.5,5.6,12.5,12.5v100c0,6.9-5.6,12.5-12.5,12.5ZM40.85,119.72h75V44.72H40.85v75Z"/>
  <path d="M300,144.72h-100c-6.9,0-12.5-5.6-12.5-12.5V32.22c0-6.9,5.6-12.5,12.5-12.5h100c6.9,0,12.5,5.6,12.5,12.5v100c0,6.9-5.6,12.5-12.5,12.5ZM212.5,119.72h75V44.72h-75v75Z"/>
  <path d="M471.65,144.72h-100c-6.9,0-12.5-5.6-12.5-12.5V32.22c0-6.9,5.6-12.5,12.5-12.5h100c6.9,0,12.5,5.6,12.5,12.5v100c0,6.9-5.6,12.5-12.5,12.5ZM384.15,119.72h75V44.72h-75v75Z"/>
  <path d="M128.35,312.5H28.35c-6.9,0-12.5-5.6-12.5-12.5v-100c0-6.9,5.6-12.5,12.5-12.5h100c6.9,0,12.5,5.6,12.5,12.5v100c0,6.9-5.6,12.5-12.5,12.5ZM40.85,287.5h75v-75H40.85v75Z"/>
  <path d="M300,312.5h-100c-6.9,0-12.5-5.6-12.5-12.5v-100c0-6.9,5.6-12.5,12.5-12.5h100c6.9,0,12.5,5.6,12.5,12.5v100c0,6.9-5.6,12.5-12.5,12.5ZM212.5,287.5h75v-75h-75v75Z"/>
  <path d="M471.65,312.5h-100c-6.9,0-12.5-5.6-12.5-12.5v-100c0-6.9,5.6-12.5,12.5-12.5h100c6.9,0,12.5,5.6,12.5,12.5v100c0,6.9-5.6,12.5-12.5,12.5ZM384.15,287.5h75v-75h-75v75Z"/>
  <path d="M128.35,480.28H28.35c-6.9,0-12.5-5.6-12.5-12.5v-100c0-6.9,5.6-12.5,12.5-12.5h100c6.9,0,12.5,5.6,12.5,12.5v100c0,6.9-5.6,12.5-12.5,12.5ZM40.85,455.28h75v-75H40.85v75Z"/>
  <path d="M300,480.28h-100c-6.9,0-12.5-5.6-12.5-12.5v-100c0-6.9,5.6-12.5,12.5-12.5h100c6.9,0,12.5,5.6,12.5,12.5v100c0,6.9-5.6,12.5-12.5,12.5ZM212.5,455.28h75v-75h-75v75Z"/>
  <path d="M471.65,480.28h-100c-6.9,0-12.5-5.6-12.5-12.5v-100c0-6.9,5.6-12.5,12.5-12.5h100c6.9,0,12.5,5.6,12.5,12.5v100c0,6.9-5.6,12.5-12.5,12.5ZM384.15,455.28h75v-75h-75v75Z"/>
</svg>