<?xml version="1.0" encoding="UTF-8"?>
<svg id="c" data-name="レイヤー 4" xmlns="http://www.w3.org/2000/svg" viewBox="0 0 500 500">
  <path d="M104.57,97.88c-6.9,0-12.5,5.6-12.5,12.5v279.24c0,6.9,5.6,12.5,12.5,12.5s12.5-5.6,12.5-12.5V110.38c0-6.9-5.6-12.5-12.5-12.5Z"/>
  <path d="M201.52,97.88c-6.9,0-12.5,5.6-12.5,12.5v279.24c0,6.9,5.6,12.5,12.5,12.5s12.5-5.6,12.5-12.5V110.38c0-6.9-5.6-12.5-12.5-12.5Z"/>
  <path d="M298.48,97.88c-6.9,0-12.5,5.6-12.5,12.5v279.24c0,6.9,5.6,12.5,12.5,12.5s12.5-5.6,12.5-12.5V110.38c0-6.9-5.6-12.5-12.5-12.5Z"/>
  <path d="M395.43,97.88c-6.9,0-12.5,5.6-12.5,12.5v279.24c0,6.9,5.6,12.5,12.5,12.5s12.5-5.6,12.5-12.5V110.38c0-6.9-5.6-12.5-12.5-12.5Z"/>
</svg>