<?xml version="1.0" encoding="UTF-8"?>
<svg id="a" data-name="layer1" xmlns="http://www.w3.org/2000/svg" viewBox="0 0 500 500">
  <path d="M425,87.5H75c-20.68,0-37.5,16.82-37.5,37.5v164.17c0,20.68,16.82,37.5,37.5,37.5h37.85v87.5c0,5.06,3.05,9.61,7.72,11.55,1.55.64,3.17.95,4.78.95,3.25,0,6.45-1.27,8.84-3.66l96.34-96.34h194.48c20.68,0,37.5-16.82,37.5-37.5V125c0-20.68-16.82-37.5-37.5-37.5ZM437.5,289.17c0,6.89-5.61,12.5-12.5,12.5h-199.65c-3.32,0-6.49,1.32-8.84,3.66l-78.66,78.66v-69.82c0-6.9-5.6-12.5-12.5-12.5h-50.35c-6.89,0-12.5-5.61-12.5-12.5V125c0-6.89,5.61-12.5,12.5-12.5h350c6.89,0,12.5,5.61,12.5,12.5v164.17Z"/>
  <circle cx="252.83" cy="203.51" r="25"/>
  <circle cx="361.89" cy="203.51" r="25"/>
  <circle cx="143.78" cy="203.51" r="25"/>
</svg>