<?xml version="1.0" encoding="UTF-8"?>
<svg id="a" data-name="layer1" xmlns="http://www.w3.org/2000/svg" viewBox="0 0 500 500">
  <path d="M212.766,289.057c.259.259.53.506.811.741.144.12.391.301.541.413.181.136.359.276.547.402.177.119.361.221.542.33.168.101.333.206.506.299.185.099.375.183.564.272.181.085.359.176.544.252.184.076.371.137.558.204.198.071.394.147.597.209.187.056.376.098.565.145.207.052.411.11.621.152.221.044.443.069.666.102.184.026.483.074.667.09.738.065,1.481.065,2.219,0,.185-.016.484-.063.667-.09.222-.032.445-.058.666-.102.21-.042.414-.1.621-.152.188-.047.378-.089.565-.145.203-.062.398-.138.597-.209.187-.067.374-.128.558-.204.186-.077.364-.167.544-.252.189-.089.379-.173.564-.272.173-.093.338-.198.506-.299.182-.109.366-.211.543-.33.188-.126.366-.267.548-.402.15-.112.397-.293.542-.414.281-.235.551-.482.811-.741l74.024-74.024c4.682-4.682,5.134-12.263.771-17.245-2.5-2.855-5.961-4.283-9.421-4.283-3.199,0-6.398,1.22-8.839,3.661l-52.876,52.876V73.576c0-6.904-5.597-12.5-12.5-12.5h-.204c-6.903,0-12.5,5.596-12.5,12.5s.204,176.465.204,176.465l-52.876-52.876c-5.099-5.098-13.504-4.872-18.309.677-4.186,4.835-3.711,12.659.812,17.181l74.034,74.033Z"/>
  <path d="M384.154,330.558v-130c0-20.678-16.822-37.5-37.5-37.5-6.903,0-12.5,5.597-12.5,12.5s5.597,12.5,12.5,12.5,12.5,5.607,12.5,12.5v130c0,6.893-5.607,12.5-12.5,12.5H96.654c-6.893,0-12.5-5.607-12.5-12.5v-130c0-6.893,5.607-12.5,12.5-12.5s12.5-5.597,12.5-12.5-5.597-12.5-12.5-12.5c-20.678,0-37.5,16.822-37.5,37.5v130c0,20.678,16.822,37.5,37.5,37.5h250c20.678,0,37.5-16.822,37.5-37.5Z"/>
  <path d="M413.912,229.53c-6.962-.146-13.047,5.091-13.287,12.05-.246,7.122,5.471,12.971,12.545,12.941,6.941-.029,12.447,5.909,12.447,12.85v129.65c0,6.904-5.597,12.5-12.5,12.5h-250c-6.904,0-12.5-5.596-12.5-12.5v-2.291c0-6.904-5.597-12.5-12.5-12.5h0c-6.904,0-12.5,5.596-12.5,12.5v2.291c0,20.711,16.789,37.5,37.5,37.5h250c20.71,0,37.5-16.789,37.5-37.5v-130c0-20.412-16.393-37.067-36.705-37.492Z"/>
</svg>