<?xml version="1.0" encoding="UTF-8"?>
<svg id="a" data-name="layer1" xmlns="http://www.w3.org/2000/svg" viewBox="0 0 500 500">
  <path d="M335.707,19.723h-171.415c-24.177,0-43.846,19.669-43.846,43.846v367.378c0,27.201,22.13,49.331,49.331,49.331h160.445c27.201,0,49.331-22.13,49.331-49.331V63.568c0-24.177-19.67-43.846-43.847-43.846ZM145.447,63.568c0-10.392,8.454-18.846,18.846-18.846h171.415c9.742,0,17.782,7.43,18.749,16.921.064.633.097,1.275.097,1.924v59.142h-209.107v-59.142ZM279.836,286.699l1.696,3.198c7.312,13.796,11.178,29.34,11.178,44.953v57.967c0,6.083-4.949,11.032-11.032,11.032h-63.356c-6.083,0-11.032-4.949-11.032-11.032v-57.967c0-15.613,3.865-31.158,11.179-44.953l1.696-3.2c9.219-17.388,14.091-36.981,14.091-56.662v-82.325h31.49v82.325c0,19.68,4.872,39.273,14.091,56.664ZM330.223,455.277h-160.445c-13.416,0-24.331-10.915-24.331-24.331V147.71h63.809v82.325c0,15.613-3.865,31.158-11.179,44.953l-1.696,3.2c-9.219,17.388-14.091,36.981-14.091,56.662v57.967c0,19.868,16.164,36.032,36.032,36.032h63.356c19.868,0,36.032-16.164,36.032-36.032v-57.967c0-19.68-4.872-39.273-14.091-56.664l-1.696-3.198c-7.312-13.796-11.178-29.34-11.178-44.953v-82.325h63.809v283.236c0,13.416-10.915,24.331-24.331,24.331Z"/>
</svg>