<?xml version="1.0" encoding="UTF-8"?>
<svg id="a" data-name="layer1" xmlns="http://www.w3.org/2000/svg" viewBox="0 0 1000 1000">
  <path d="M748,413.59c0-71.36-25.85-138.54-72.78-189.17-47.42-51.15-110.62-79.32-177.96-79.32s-130.54,28.17-177.96,79.32c-46.94,50.63-72.78,117.81-72.78,189.17,0,5.34.17,10.92.49,16.61v43.93s.63,1.16,1,1.74v330.12h499v-331.21c.01-.22,1-.65,1-.65v-60.54ZM497.26,195.78c110.14,0,199.74,97.64,199.74,217.67v49.55h-399v-33.73c0-.51-.02-1.03-.05-1.54-.29-4.93-.44-9.74-.44-14.29,0-120.02,89.61-217.67,199.74-217.67Z"/>
</svg>