<?xml version="1.0" encoding="UTF-8"?>
<svg id="a" data-name="layer1" xmlns="http://www.w3.org/2000/svg" viewBox="0 0 500 500">
  <path d="M461.494,127.035H38.506c-6.903,0-12.5,5.597-12.5,12.5v220.931c0,6.903,5.597,12.5,12.5,12.5h422.987c6.903,0,12.5-5.597,12.5-12.5v-220.931c0-6.903-5.597-12.5-12.5-12.5ZM448.994,347.965H51.006v-195.931h397.987v195.931Z"/>
  <path d="M373.821,292.979H126.179c-6.903,0-12.5,5.597-12.5,12.5s5.597,12.5,12.5,12.5h247.643c6.903,0,12.5-5.597,12.5-12.5s-5.597-12.5-12.5-12.5Z"/>
  <path d="M86.535,213.9h27.348c6.903,0,12.5-5.597,12.5-12.5s-5.597-12.5-12.5-12.5h-27.348c-6.903,0-12.5,5.597-12.5,12.5s5.597,12.5,12.5,12.5Z"/>
  <path d="M185.105,213.9h27.348c6.903,0,12.5-5.597,12.5-12.5s-5.597-12.5-12.5-12.5h-27.348c-6.903,0-12.5,5.597-12.5,12.5s5.597,12.5,12.5,12.5Z"/>
  <path d="M283.676,213.9h27.348c6.903,0,12.5-5.597,12.5-12.5s-5.597-12.5-12.5-12.5h-27.348c-6.903,0-12.5,5.597-12.5,12.5s5.597,12.5,12.5,12.5Z"/>
  <path d="M382.246,213.9h27.349c6.903,0,12.5-5.597,12.5-12.5s-5.597-12.5-12.5-12.5h-27.349c-6.903,0-12.5,5.597-12.5,12.5s5.597,12.5,12.5,12.5Z"/>
  <path d="M135.477,262.842h27.349c6.903,0,12.5-5.597,12.5-12.5s-5.597-12.5-12.5-12.5h-27.349c-6.903,0-12.5,5.597-12.5,12.5s5.597,12.5,12.5,12.5Z"/>
  <path d="M234.048,262.842h27.349c6.903,0,12.5-5.597,12.5-12.5s-5.597-12.5-12.5-12.5h-27.349c-6.903,0-12.5,5.597-12.5,12.5s5.597,12.5,12.5,12.5Z"/>
  <path d="M332.619,262.842h27.348c6.903,0,12.5-5.597,12.5-12.5s-5.597-12.5-12.5-12.5h-27.348c-6.903,0-12.5,5.597-12.5,12.5s5.597,12.5,12.5,12.5Z"/>
</svg>