<?xml version="1.0" encoding="UTF-8"?>
<svg id="a" data-name="layer1" xmlns="http://www.w3.org/2000/svg" viewBox="0 0 500 500">
  <path d="M262.288,432.5c-100.631,0-182.5-81.869-182.5-182.5s81.869-182.5,182.5-182.5,182.5,81.869,182.5,182.5-81.869,182.5-182.5,182.5ZM262.288,92.5c-86.846,0-157.5,70.654-157.5,157.5s70.654,157.5,157.5,157.5,157.5-70.654,157.5-157.5-70.654-157.5-157.5-157.5Z"/>
  <path d="M345.22,352.503c-4.871,0-9.5-2.864-11.518-7.633-3.903-9.229-9.493-17.518-16.614-24.639-7.122-7.121-15.411-12.711-24.638-16.613-9.547-4.038-19.695-6.086-30.163-6.086s-20.616,2.048-30.163,6.086c-9.228,3.902-17.517,9.492-24.638,16.613-7.121,7.121-12.711,15.41-16.614,24.639-2.69,6.357-10.027,9.328-16.382,6.643-6.358-2.689-9.333-10.024-6.643-16.383,5.164-12.207,12.552-23.168,21.961-32.576,9.41-9.409,20.37-16.798,32.577-21.961,12.644-5.349,26.069-8.061,39.901-8.061s27.257,2.712,39.902,8.061c12.207,5.163,23.167,12.552,32.577,21.961,9.409,9.408,16.797,20.369,21.961,32.576,2.69,6.358-.284,13.693-6.643,16.383-1.589.672-3.24.99-4.864.99Z"/>
  <path d="M320.699,199.6c-5.197,0-10.254-.928-15.032-2.758-4.677-1.789-8.897-4.37-12.542-7.668-3.733-3.38-6.677-7.344-8.751-11.782-2.922-6.255-.221-13.694,6.033-16.616,6.254-2.925,13.694-.223,16.616,6.032.658,1.409,1.627,2.698,2.879,3.832,1.34,1.213,2.923,2.174,4.702,2.854,3.832,1.469,8.359,1.467,12.184.002,1.783-.683,3.366-1.644,4.708-2.858,1.25-1.132,2.219-2.421,2.877-3.83,2.922-6.253,10.364-8.956,16.616-6.032,6.254,2.922,8.956,10.361,6.033,16.616-2.074,4.439-5.018,8.403-8.75,11.781-3.646,3.3-7.867,5.88-12.546,7.671-4.774,1.828-9.832,2.756-15.028,2.756Z"/>
  <path d="M207.151,199.6c-5.197,0-10.254-.928-15.032-2.758-4.676-1.789-8.897-4.369-12.541-7.667-3.734-3.38-6.678-7.344-8.752-11.783-2.922-6.255-.221-13.694,6.033-16.616,6.254-2.925,13.694-.223,16.616,6.032.658,1.409,1.627,2.698,2.879,3.832,1.34,1.213,2.923,2.174,4.703,2.854,3.832,1.469,8.359,1.467,12.184.002,1.783-.683,3.365-1.644,4.707-2.857,1.251-1.133,2.22-2.422,2.878-3.831,2.922-6.253,10.363-8.956,16.616-6.032,6.254,2.922,8.956,10.361,6.033,16.616-2.074,4.438-5.018,8.402-8.75,11.781-3.645,3.299-7.866,5.88-12.546,7.671-4.774,1.828-9.832,2.756-15.028,2.756Z"/>
</svg>