<?xml version="1.0" encoding="UTF-8"?>
<svg id="a" data-name="layer1" xmlns="http://www.w3.org/2000/svg" viewBox="0 0 500 500">
  <path d="M452.92,245.93c.04-.12.08-.23.12-.35.02-.07.04-.15.06-.22.05-.19.09-.38.14-.57,0-.02,0-.04.01-.05.03-.12.06-.24.09-.36.01-.07.02-.14.03-.21.03-.18.05-.36.08-.54,0-.07.02-.14.03-.21,0-.08.03-.16.03-.24,0-.07,0-.13.01-.2.01-.19.02-.37.02-.56,0-.14.02-.28.02-.42,0-.01,0-.02,0-.04,0-.06,0-.13,0-.19,0-.21-.02-.42-.04-.63,0-.06,0-.12-.01-.17,0-.07,0-.15-.01-.22,0-.06-.02-.12-.02-.17-.03-.24-.07-.47-.11-.7-.02-.11-.03-.22-.05-.33-.01-.06-.02-.11-.04-.17-.05-.23-.12-.46-.18-.69-.03-.11-.06-.23-.09-.34-.01-.04-.02-.08-.03-.12-11.91-37.12-24.23-75.51-39.69-104.42-19.12-35.75-41.27-53.12-67.74-53.12s-48.62,17.38-67.74,53.12c-14.69,27.48-26.55,63.52-37.92,98.9-21.54,8.84-43.58,16.66-85.39,16.66-45.27,0-67.35-9.16-90.73-18.87-.03-.01-.06-.02-.09-.03-.08-.03-.15-.06-.23-.09-.18-.07-.37-.13-.55-.19-.13-.04-.26-.1-.39-.13-.07-.02-.15-.04-.22-.06-.17-.05-.34-.08-.51-.12-.16-.04-.31-.08-.47-.11-.07-.01-.14-.02-.21-.03-.16-.03-.32-.05-.48-.07-.17-.02-.35-.06-.52-.07-.06,0-.13,0-.19,0-.16-.01-.33-.02-.49-.02-.18,0-.36-.02-.53-.02-.06,0-.12,0-.18,0-.18,0-.36.02-.54.03-.17.01-.34.01-.5.03-.05,0-.1.02-.15.02-.2.02-.4.06-.59.09-.16.03-.32.05-.48.08-.04,0-.09.02-.13.03-.2.04-.39.1-.59.15-.16.04-.33.08-.49.13-.02,0-.05.01-.07.02-.02,0-.04.02-.07.02-.17.06-.34.12-.51.19-.17.06-.34.12-.5.19-.06.03-.13.05-.19.08-.13.06-.26.13-.39.19-.17.08-.34.16-.51.25-.09.05-.18.1-.26.14-.02.01-.04.02-.07.03-.08.05-.16.11-.24.16-.16.1-.32.19-.47.3-.1.06-.19.13-.28.2-.1.07-.19.14-.28.22-.14.11-.28.21-.41.32-.09.07-.17.15-.26.22-.1.09-.19.18-.28.26-.12.11-.24.23-.36.35-.07.07-.14.15-.21.22-.1.11-.19.21-.29.32-.11.12-.21.24-.31.37-.06.07-.12.15-.18.22-.1.13-.19.26-.28.39-.09.12-.17.24-.26.37-.05.08-.1.15-.15.23-.09.15-.18.3-.27.46-.07.12-.13.23-.2.35-.04.08-.09.17-.13.25-.09.17-.16.35-.24.52-.04.09-.09.17-.12.26,0,.02-.02.05-.03.07-.03.08-.07.17-.1.26-.07.18-.13.36-.19.54,0,0,0,.02,0,.03-.04.12-.08.23-.12.35-.02.08-.04.16-.06.24-.04.17-.08.33-.12.5,0,.04-.02.08-.03.13-.02.11-.06.22-.08.33-.01.07-.02.15-.03.23-.03.16-.05.33-.07.49,0,.06-.02.12-.02.17-.01.11-.04.22-.04.32,0,.07,0,.14-.01.21-.01.18-.02.35-.02.53,0,.02,0,.04,0,.06,0,.14-.02.28-.02.42,0,.06,0,.12,0,.18,0,.2.02.4.03.6.01.15.01.3.03.45,0,.05.02.1.02.15.03.22.06.43.1.65.02.14.04.28.07.42,0,.04.02.09.03.13.05.21.11.43.17.64.04.14.07.29.12.43,0,.03.01.05.02.08.02.05.04.11.05.16,0,.02,0,.03.02.05,11.89,37.06,24.19,75.35,39.62,104.21,19.12,35.75,41.27,53.12,67.74,53.12s48.62-17.38,67.74-53.13c14.69-27.48,26.55-63.52,37.91-98.9,21.54-8.84,43.58-16.66,85.39-16.66,45.27,0,67.35,9.16,90.73,18.86h0s.07.02.1.04c.07.03.15.06.22.08.17.06.34.12.51.18.15.05.29.11.44.15.07.02.14.03.21.05.16.04.33.08.49.12.17.04.34.09.51.12.02,0,.04,0,.06,0,.04,0,.09.01.13.02.16.03.31.05.47.07.25.03.49.06.74.08.16.01.32.01.48.02.24,0,.47.02.71.01.19,0,.37-.02.56-.03.17-.01.34-.01.51-.03.02,0,.05,0,.07-.01.02,0,.03,0,.05,0,.21-.02.42-.06.63-.1.16-.03.32-.05.47-.08.03,0,.06-.02.09-.02.21-.05.43-.11.64-.16.16-.04.31-.08.47-.13.02,0,.04-.01.06-.02.02,0,.03-.01.05-.02.19-.06.37-.13.56-.21.16-.06.32-.12.48-.19.06-.02.12-.05.17-.07.15-.07.29-.14.44-.21.16-.08.32-.16.48-.24.08-.04.16-.08.24-.13.03-.02.06-.03.09-.04.09-.06.18-.12.27-.18.15-.09.3-.18.44-.28.09-.06.17-.12.26-.18.11-.08.22-.17.33-.25.13-.1.26-.2.39-.31.08-.07.16-.13.24-.2.11-.1.22-.2.33-.3.12-.11.23-.22.34-.33.06-.07.13-.13.19-.2.11-.12.22-.24.33-.36.1-.11.2-.23.29-.35.05-.07.11-.13.16-.2.11-.14.21-.29.31-.43.08-.12.16-.23.24-.35.04-.07.09-.14.13-.2.1-.17.2-.33.3-.5.06-.11.13-.22.19-.34.04-.07.08-.15.11-.22.09-.19.18-.38.26-.57.04-.08.08-.16.11-.24.01-.03.02-.05.03-.08.03-.08.06-.15.09-.23.08-.2.14-.4.21-.6ZM345.52,105.68c23.66,0,41.41,26.72,56.69,63.25-16.89-14.06-35.53-20.93-56.69-20.93s-39.8,6.87-56.68,20.93c15.28-36.54,33.02-63.25,56.68-63.25ZM220.62,266.1c-5.76,8.61-11.77,16.51-18.37,23.27-14.46,14.81-29.64,21.71-47.77,21.71s-33.31-6.9-47.77-21.71c-6.6-6.77-12.61-14.67-18.37-23.27,16.96,4.84,37.53,8.26,66.14,8.26s49.19-3.43,66.14-8.26ZM154.48,378.41c-23.66,0-41.41-26.72-56.69-63.25,16.89,14.07,35.53,20.93,56.69,20.93s39.8-6.87,56.69-20.93c-15.28,36.54-33.02,63.25-56.69,63.25ZM279.38,217.99c5.76-8.61,11.77-16.51,18.37-23.27,14.46-14.81,29.64-21.71,47.77-21.71s33.31,6.9,47.77,21.71c6.6,6.77,12.61,14.67,18.37,23.27-16.96-4.83-37.53-8.26-66.15-8.26s-49.19,3.43-66.14,8.26Z"/>
</svg>