<?xml version="1.0" encoding="UTF-8"?>
<svg id="a" data-name="layer1" xmlns="http://www.w3.org/2000/svg" viewBox="0 0 500 500">
  <path d="M324.5,66h.036-.036M282.145,112.724l-29.605,66.645c-5.422,12.206-.292,26.519,11.65,32.502l83.98,42.069-153.878,136.108,39.778-75.282c3.396-6.427,3.827-14.013,1.18-20.782s-8.108-12.052-14.962-14.471l-68.119-24.046,129.976-142.742M316.998,44.499c-4.051,0-8.051,1.659-10.951,4.844L123.346,249.986c-3.338,3.666-4.621,8.779-3.415,13.583,1.216,4.824,4.756,8.721,9.445,10.361l82.59,29.154-65.881,124.681c-3.348,6.329-1.689,14.143,3.946,18.581,2.692,2.122,5.923,3.164,9.155,3.164,3.512,0,7.023-1.254,9.821-3.724l207.011-183.105c3.685-3.261,5.508-8.142,4.872-13.004-.637-4.882-3.656-9.126-8.055-11.345l-97.447-48.815,55.163-124.18c2.952-6.656.646-14.452-5.441-18.426-2.498-1.623-5.316-2.413-8.112-2.413h0Z"/>
</svg>