<?xml version="1.0" encoding="UTF-8"?>
<svg id="a" data-name="layer1" xmlns="http://www.w3.org/2000/svg" viewBox="0 0 1000 1000">
  <path d="M699.37,847.06c-12.66,0-25.3-4.09-36.3-12.27l-156.58-116.41c-3.88-2.88-9.09-2.88-12.97,0l-156.58,116.41c-21.81,16.21-50.11,16.37-72.09.39-21.99-15.97-30.58-42.93-21.9-68.69l62.32-184.89c1.54-4.58-.07-9.54-4.01-12.33l-159.1-112.95c-22.16-15.73-31.05-42.6-22.65-68.44,8.32-25.62,30.98-42.06,57.83-42.06.24,0,.48,0,.72,0l195.1,2.14c4.82.03,9.05-3.01,10.49-7.62l58.26-186.21c8.11-25.94,30.92-42.7,58.09-42.7s49.98,16.76,58.09,42.7l58.26,186.21c1.43,4.57,5.59,7.62,10.37,7.62h.12l195.1-2.14c.24,0,.48,0,.72,0,26.86,0,49.51,16.44,57.83,42.06,8.4,25.85-.49,52.71-22.65,68.44l-159.1,112.95c-3.94,2.8-5.55,7.75-4.01,12.33l62.32,184.89c8.68,25.75.08,52.71-21.9,68.69-10.9,7.92-23.35,11.87-35.79,11.87Z"/>
</svg>