<?xml version="1.0" encoding="UTF-8"?>
<svg id="a" data-name="layer1" xmlns="http://www.w3.org/2000/svg" viewBox="0 0 500 500">
  <path d="M324.5,66h.04-.04M282.15,112.72l-29.6,66.64c-5.42,12.21-.29,26.52,11.65,32.5l83.98,42.07-153.88,136.11,39.78-75.28c3.4-6.43,3.83-14.01,1.18-20.78s-8.11-12.05-14.96-14.47l-68.12-24.05,129.98-142.74M317,44.5c-4.05,0-8.05,1.66-10.95,4.84L123.35,249.99c-3.34,3.67-4.62,8.78-3.42,13.58,1.22,4.82,4.76,8.72,9.44,10.36l82.59,29.15-65.88,124.68c-3.35,6.33-1.69,14.14,3.95,18.58,2.69,2.12,5.92,3.16,9.16,3.16,3.51,0,7.02-1.25,9.82-3.72l207.01-183.11c3.68-3.26,5.51-8.14,4.87-13-.64-4.88-3.66-9.13-8.06-11.35l-97.45-48.82,55.16-124.18c2.95-6.66.65-14.45-5.44-18.43-2.5-1.62-5.32-2.41-8.11-2.41h0Z"/>
</svg>