<?xml version="1.0" encoding="UTF-8"?>
<svg id="a" data-name="layer1" xmlns="http://www.w3.org/2000/svg" viewBox="0 0 500 500">
  <path d="M276.094,401.739h-51.688c-12.651,0-22.906-10.255-22.906-22.906v-128.258l-111.19-114.3-.288-.343c-5.81-6.897-7.057-16.261-3.254-24.438,3.802-8.177,11.764-13.257,20.78-13.257h285.404c9.016,0,16.978,5.08,20.78,13.257,3.802,8.177,2.556,17.541-3.254,24.438l-.288.343-.312.321-110.878,113.978v128.258c0,12.651-10.255,22.906-22.906,22.906ZM226,376.739h47.5v-127.047c0-5.406,1.909-10.638,5.39-14.774l.293-.348.312-.321,108.035-111.01H111.969l108.347,111.331.293.348c3.481,4.136,5.39,9.368,5.39,14.774v127.047Z"/>
</svg>