<?xml version="1.0" encoding="UTF-8"?>
<svg id="c" data-name="レイヤー 4" xmlns="http://www.w3.org/2000/svg" viewBox="0 0 500 500">
  <path d="M390.64,56.11c-6.9,0-12.5,5.6-12.5,12.5,0,45.71-37.93,76.2-60.54,90.3-34.99,21.82-81.67,35.38-121.83,35.38h-86.42c-6.9,0-12.5,5.6-12.5,12.5v86.42c0,6.9,5.6,12.5,12.5,12.5h86.42c40.16,0,86.84,13.56,121.83,35.38,22.61,14.1,60.54,44.58,60.54,90.3,0,6.9,5.6,12.5,12.5,12.5s12.5-5.6,12.5-12.5V68.61c0-6.9-5.6-12.5-12.5-12.5ZM121.86,219.29h61.42v61.42h-61.42v-61.42ZM330.84,319.87c-35.73-22.29-80.69-36.41-122.56-38.8v-62.15c41.87-2.39,86.83-16.51,122.56-38.8,19.59-12.22,35.46-26.3,47.31-41.69v223.13c-11.84-15.39-27.72-29.47-47.31-41.69Z"/>
</svg>