<?xml version="1.0" encoding="UTF-8"?>
<svg id="a" data-name="layer1" xmlns="http://www.w3.org/2000/svg" viewBox="0 0 500 500">
  <path d="M477.11,147.963c-2.366-3.08-6.029-4.886-9.913-4.886h-249.628l-11.815-47.529c-1.385-5.572-6.389-9.484-12.131-9.484H46.976c-5.742,0-10.746,3.912-12.131,9.484l-14.173,57.014c-.016.062-.021.126-.036.189-.068.294-.122.593-.169.895-.025.156-.053.311-.072.468-.033.286-.049.576-.063.867-.008.167-.024.333-.025.5,0,.033-.005.064-.005.097v245.859c0,.223.022.441.033.661.009.161.01.322.024.482.037.412.096.816.172,1.216.006.032.009.065.015.098.092.459.209.908.35,1.348.011.035.027.069.039.105.129.39.276.771.44,1.144.048.107.102.211.153.317.142.297.292.589.457.874.073.126.15.25.228.375.164.261.336.515.518.762.056.076.1.157.158.232.036.047.079.088.116.135.201.254.415.498.636.735.085.092.166.189.254.279.312.316.637.618.981.9.041.034.085.062.127.095.307.246.625.477.954.693.105.069.215.13.323.196.276.17.557.331.847.479.121.062.244.119.367.177.288.135.581.26.88.373.127.048.253.096.381.14.306.104.617.194.933.276.127.033.252.069.38.098.331.074.668.129,1.009.176.116.016.23.04.346.053.453.05.912.08,1.378.08h368.789c.395,0,.786-.023,1.173-.059.137-.013.27-.034.406-.051.247-.031.492-.066.734-.112.159-.03.316-.064.472-.1.215-.049.428-.104.639-.165.161-.045.321-.091.479-.143.209-.069.414-.147.618-.227.147-.057.295-.109.439-.171.318-.137.629-.287.933-.45.106-.057.207-.121.311-.181.231-.132.46-.268.681-.414.119-.079.232-.164.348-.246.192-.136.381-.275.565-.422.112-.089.221-.182.329-.274.182-.156.358-.317.531-.483.097-.093.194-.186.288-.283.182-.187.355-.38.526-.578.074-.086.151-.169.222-.257.22-.271.431-.55.628-.84.014-.021.031-.041.045-.062.205-.304.394-.62.573-.943.074-.133.138-.272.207-.409.098-.193.195-.387.283-.587.074-.168.141-.339.208-.511.069-.176.135-.354.196-.534.062-.185.12-.37.174-.558.021-.074.048-.145.068-.219l65.606-245.859c1.001-3.753.201-7.757-2.165-10.837ZM45.303,168.077v-13.913l11.446-43.101h127.102l7.958,32.014h-93.4c-5.335,0-10.03,3.524-11.519,8.647l-4.754,16.353-36.832,138.031v-138.031ZM391.99,388.936H49.076l58.934-220.859h342.914l-58.935,220.859Z"/>
</svg>