<?xml version="1.0" encoding="UTF-8"?>
<svg id="a" data-name="layer1" xmlns="http://www.w3.org/2000/svg" viewBox="0 0 500 500">
  <path d="M425.54,156.54c3.38-3.64,4.28-8.94,2.29-13.5-1.99-4.56-6.49-7.5-11.46-7.5h-112.3l28.02-52.16c3.27-6.08.98-13.66-5.1-16.93-6.08-3.27-13.66-.98-16.93,5.1l-34.37,63.99H83.63c-4.97,0-9.47,2.95-11.46,7.5-1.99,4.56-1.09,9.86,2.29,13.5l162.91,175.54v77.96h-49c-6.9,0-12.5,5.6-12.5,12.5s5.6,12.5,12.5,12.5h123.5c6.9,0,12.5-5.6,12.5-12.5s-5.6-12.5-12.5-12.5h-49.5v-77.68l163.16-175.81ZM262.27,160.54l-17.46,32.5h-65.94c-6.9,0-12.5,5.6-12.5,12.5s5.6,12.5,12.5,12.5h52.51l-9.27,17.27c-3.27,6.08-.98,13.66,5.1,16.93,1.88,1.01,3.91,1.49,5.9,1.49,4.46,0,8.77-2.39,11.02-6.59l15.63-29.1h61.11c6.9,0,12.5-5.6,12.5-12.5s-5.6-12.5-12.5-12.5h-47.68l17.46-32.5h97.07l-137.72,148.4L112.28,160.54h149.99Z"/>
</svg>