<?xml version="1.0" encoding="UTF-8"?>
<svg id="a" data-name="layer1" xmlns="http://www.w3.org/2000/svg" viewBox="0 0 500 500">
  <path d="M374.5,206.8c0-35.68-12.92-69.27-36.39-94.58-23.71-25.58-55.31-39.66-88.98-39.66s-65.27,14.09-88.98,39.66c-23.47,25.31-36.39,58.9-36.39,94.58,0,2.67.08,5.46.25,8.3v21.97s.31.58.5.86v145.07c0,11.05,8.95,20,20,20h209.5c11.05,0,20-8.95,20-20v-145.6c0-.11.5-.33.5-.33v-30.27ZM249.13,97.89c55.07,0,99.87,48.82,99.87,108.83v24.78h-199.5v-16.86c0-.26,0-.51-.02-.77-.15-2.46-.22-4.87-.22-7.14,0-60.01,44.8-108.83,99.87-108.83ZM349,378h-199.5v-121.5h199.5v121.5Z"/>
</svg>