<?xml version="1.0" encoding="UTF-8"?>
<svg id="a" data-name="layer1" xmlns="http://www.w3.org/2000/svg" viewBox="0 0 500 500">
  <path d="M249.993,43.757c-113.725,0-206.243,92.533-206.243,206.258s92.518,206.228,206.243,206.228,206.257-92.503,206.257-206.228S363.717,43.757,249.993,43.757ZM249.993,431.243c-99.937,0-181.243-81.298-181.243-181.228S150.055,68.757,249.993,68.757s181.257,81.312,181.257,181.258-81.312,181.228-181.257,181.228Z"/>
  <path d="M262.5,244.822v-105.649c0-6.904-5.596-12.5-12.5-12.5s-12.5,5.596-12.5,12.5v110.827c0,3.315,1.317,6.495,3.661,8.839l60.042,60.042c2.441,2.441,5.64,3.661,8.839,3.661s6.398-1.22,8.839-3.661c4.882-4.882,4.882-12.796,0-17.678l-56.381-56.381Z"/>
</svg>