<?xml version="1.0" encoding="UTF-8"?>
<svg id="a" data-name="layer1" xmlns="http://www.w3.org/2000/svg" viewBox="0 0 500 500">
  <path d="M447.92,52.08c-4.88-4.88-12.8-4.88-17.68,0L52.08,430.24c-4.88,4.88-4.88,12.8,0,17.68,2.44,2.44,5.64,3.66,8.84,3.66s6.4-1.22,8.84-3.66L447.92,69.76c4.88-4.88,4.88-12.8,0-17.68Z"/>
  <path d="M395,229.03c.02-.66.2-1.28.2-1.94,0-20.36-8.01-38.89-21.04-52.61-3.56-3.75-9.56-3.73-13.21-.07l-184.36,184.36c-7.84,7.84-2.29,21.23,8.79,21.23h201.22c1.93,0,3.69-.55,5.31-1.36,35.74-6.39,63.01-37.54,63.01-75.08s-25.71-66.94-59.92-74.53Z"/>
  <path d="M82.07,369.3c4.89,2.91,11.14,2.13,15.17-1.9l183.68-183.68c8.48-8.48-3.74-21.53-12.7-13.56-.12.11-.25.22-.37.33-13.06-32.79-45.07-56.06-82.46-56.06-48.95,0-88.78,39.83-88.78,88.78,0,9.4,1.49,18.45,4.21,26.96-32.31,8.92-56.24,38.28-56.24,73.39,0,27.93,15.06,52.41,37.49,65.74Z"/>
</svg>