<?xml version="1.0" encoding="UTF-8"?>
<svg id="a" data-name="layer1" xmlns="http://www.w3.org/2000/svg" viewBox="0 0 1000 1000">
  <path d="M771.96,236.88c5.76-9.56,4.59-22.01-3.61-30.42-4.78-4.9-11.46-7.46-18.3-7.46h-113.26s90.31-89.98,90.31-89.98c10.47-10.43,10.32-27.36-.86-37.03-9.86-8.53-24.8-8.12-34.17,1.22l-126.25,125.8H248.96c-6.84,0-13.53,2.57-18.3,7.46-8.2,8.4-9.37,20.86-3.61,30.42l214.96,356.58v249.54h-123.26c-12.79,0-24.53,10.39-25.44,23.15-1.05,14.64,10.51,26.85,24.93,26.85h361.59c12.79,0,24.53-10.39,25.44-23.15,1.05-14.64-10.51-26.85-24.93-26.85h-123.34v-249.54l214.96-356.58ZM378,388h244.01l-103.91,173h-36.18l-103.91-173ZM705.77,249l-53.46,89h-154.54l89-89h119ZM516,249l-89,89h-79.31l-53.46-89h221.77ZM493,842v-231h15v231h-15Z"/>
</svg>