<?xml version="1.0" encoding="UTF-8"?>
<svg id="a" data-name="layer1" xmlns="http://www.w3.org/2000/svg" viewBox="0 0 500 500">
  <path d="M390,117.5c-12.59,0-24.43,4.32-35,12.08-10.57-7.77-22.41-12.08-35-12.08s-24.43,4.32-35,12.08c-10.57-7.77-22.41-12.08-35-12.08s-24.43,4.32-35,12.08c-10.57-7.77-22.41-12.08-35-12.08s-24.43,4.32-35,12.08c-10.57-7.77-22.41-12.08-35-12.08-46.26,0-82.5,58.2-82.5,132.5s36.24,132.5,82.5,132.5c12.59,0,24.43-4.32,35-12.08,10.57,7.77,22.41,12.08,35,12.08s24.43-4.32,35-12.08c10.57,7.77,22.41,12.08,35,12.08s24.43-4.32,35-12.08c10.57,7.77,22.41,12.08,35,12.08s24.43-4.32,35-12.08c10.57,7.77,22.41,12.08,35,12.08,46.26,0,82.5-58.2,82.5-132.5s-36.24-132.5-82.5-132.5ZM358.7,328.55c-1.2,2.06-2.43,4-3.7,5.85-1.27-1.85-2.5-3.8-3.7-5.85-12.12-20.78-18.8-48.68-18.8-78.55s6.68-57.77,18.8-78.55c1.2-2.06,2.44-4,3.7-5.85,1.27,1.85,2.5,3.8,3.7,5.85,12.12,20.78,18.8,48.68,18.8,78.55s-6.68,57.77-18.8,78.55ZM337.07,147.62c-6.68,8.87-12.45,19.43-17.07,31.31-4.62-11.88-10.38-22.44-17.07-31.31,5.52-3.37,11.26-5.12,17.07-5.12s11.55,1.75,17.07,5.12ZM288.7,328.55c-1.2,2.06-2.43,4-3.7,5.85-1.27-1.85-2.5-3.8-3.7-5.85-12.12-20.78-18.8-48.68-18.8-78.55s6.68-57.77,18.8-78.55c1.2-2.06,2.44-4,3.7-5.85,1.27,1.85,2.5,3.8,3.7,5.85,12.12,20.78,18.8,48.68,18.8,78.55s-6.68,57.77-18.8,78.55ZM267.07,147.62c-6.68,8.87-12.45,19.43-17.07,31.31-4.62-11.88-10.38-22.44-17.07-31.31,5.52-3.37,11.26-5.12,17.07-5.12s11.55,1.75,17.07,5.12ZM218.7,328.55c-1.2,2.06-2.43,4-3.7,5.85-1.27-1.85-2.5-3.8-3.7-5.85-12.12-20.78-18.8-48.68-18.8-78.55s6.68-57.77,18.8-78.55c1.2-2.06,2.44-4,3.7-5.85,1.27,1.85,2.5,3.8,3.7,5.85,12.12,20.78,18.8,48.68,18.8,78.55s-6.68,57.77-18.8,78.55ZM197.07,147.62c-6.68,8.87-12.45,19.43-17.07,31.31-4.62-11.88-10.38-22.44-17.07-31.31,5.52-3.37,11.26-5.12,17.07-5.12s11.55,1.75,17.07,5.12ZM148.7,328.55c-1.2,2.06-2.43,4-3.7,5.85-1.27-1.85-2.5-3.8-3.7-5.85-12.12-20.78-18.8-48.68-18.8-78.55s6.68-57.77,18.8-78.55c1.2-2.06,2.44-4,3.7-5.85,1.27,1.85,2.5,3.8,3.7,5.85,12.12,20.78,18.8,48.68,18.8,78.55s-6.68,57.77-18.8,78.55ZM71.3,328.55c-12.12-20.78-18.8-48.68-18.8-78.55s6.68-57.77,18.8-78.55c10.89-18.67,24.63-28.95,38.7-28.95,5.8,0,11.55,1.75,17.07,5.12-18.17,24.12-29.57,60.72-29.57,102.38s11.4,78.26,29.57,102.38c-5.52,3.37-11.26,5.12-17.07,5.12-14.07,0-27.81-10.28-38.7-28.95ZM162.93,352.38c6.68-8.87,12.45-19.43,17.07-31.31,4.62,11.88,10.38,22.44,17.07,31.31-5.52,3.37-11.26,5.12-17.07,5.12s-11.55-1.75-17.07-5.12ZM232.93,352.38c6.68-8.87,12.45-19.43,17.07-31.31,4.62,11.88,10.38,22.44,17.07,31.31-5.52,3.37-11.26,5.12-17.07,5.12s-11.55-1.75-17.07-5.12ZM302.93,352.38c6.68-8.87,12.45-19.43,17.07-31.31,4.62,11.88,10.38,22.44,17.07,31.31-5.52,3.37-11.26,5.12-17.07,5.12s-11.55-1.75-17.07-5.12ZM428.7,328.55c-10.89,18.67-24.63,28.95-38.7,28.95-5.8,0-11.55-1.75-17.07-5.12,18.17-24.12,29.57-60.72,29.57-102.38s-11.4-78.26-29.57-102.38c5.52-3.37,11.26-5.12,17.07-5.12,14.07,0,27.81,10.28,38.7,28.95,12.12,20.78,18.8,48.68,18.8,78.55s-6.68,57.77-18.8,78.55Z"/>
</svg>