<?xml version="1.0" encoding="UTF-8"?>
<svg id="a" data-name="layer1" xmlns="http://www.w3.org/2000/svg" viewBox="0 0 500 500">
  <path d="M422.09,331.88l-64.05-245.04c-1.44-5.5-6.41-9.34-12.09-9.34h-200c-5.83,0-10.89,4.03-12.19,9.72l-55.95,245.04c-.21.91-.31,1.85-.31,2.78v74.96c0,6.9,5.6,12.5,12.5,12.5h320c6.9,0,12.5-5.6,12.5-12.5v-74.96c0-1.07-.14-2.13-.41-3.16ZM397.5,397.5H102.5v-61.05l53.42-233.95h180.38l61.21,234.14v60.86Z"/>
  <path d="M155.17,248.07c-6.9,0-12.5,5.6-12.5,12.5v97.36c0,6.9,5.6,12.5,12.5,12.5s12.5-5.6,12.5-12.5v-97.36c0-6.9-5.6-12.5-12.5-12.5Z"/>
  <path d="M258.62,273.07c6.9,0,12.5-5.6,12.5-12.5s-5.6-12.5-12.5-12.5h-43.61c-6.9,0-12.5,5.6-12.5,12.5v97.36c0,6.9,5.6,12.5,12.5,12.5h43.61c6.9,0,12.5-5.6,12.5-12.5v-48.68c0-6.9-5.6-12.5-12.5-12.5h-31.11v-23.68h31.11ZM246.12,321.75v23.68h-18.61v-23.68h18.61Z"/>
  <path d="M318.97,260.57v36.18h-9.3c-6.9,0-12.5,5.6-12.5,12.5s5.6,12.5,12.5,12.5h9.3v36.18c0,6.9,5.6,12.5,12.5,12.5h21.8c6.9,0,12.5-5.6,12.5-12.5s-5.6-12.5-12.5-12.5h-9.3v-23.68h9.3c6.9,0,12.5-5.6,12.5-12.5s-5.6-12.5-12.5-12.5h-9.3v-36.18c0-6.9-5.6-12.5-12.5-12.5s-12.5,5.6-12.5,12.5Z"/>
</svg>