<?xml version="1.0" encoding="UTF-8"?>
<svg id="a" xmlns="http://www.w3.org/2000/svg" version="1.1" viewBox="0 0 1000 1000">
  <!-- Generator: Adobe Illustrator 30.0.0, SVG Export Plug-In . SVG Version: 2.1.1 Build 123)  -->
  <path d="M133.5,317.5c9.8-9.8,25.6-9.8,35.4,0l110.6,110.6,40.8-271.2c2.8-25.4,24.1-44.4,49.7-44.4h242c25.6,0,46.8,19,49.7,44.4l74.4,494.9.9,6.1,26.1,173.4.2,1.3c1.4,14-3.3,28-12.7,38.5-9.5,10.4-23,16.4-37,16.4h-444.9c-14.1,0-27.6-6-37-16.4-9.5-10.4-14.1-24.4-12.7-38.5v-.6c0,0,51.5-342.4,51.5-342.4l-136.8-136.8c-9.8-9.8-9.8-25.6,0-35.4h0ZM612.2,163.8l-.2-1.3h-242v.6c0,0-46.5,308.9-46.5,308.9l179.7,179.7h182.3l-73.3-488h0ZM713.4,837.5l-20.4-135.7h-404l-20.4,135.7h444.8ZM296.5,651.8h136l-118.2-118.2-17.8,118.2h0Z"/>
</svg>