<?xml version="1.0" encoding="UTF-8"?>
<svg id="c" data-name="レイヤー 4" xmlns="http://www.w3.org/2000/svg" viewBox="0 0 500 500">
  <path d="M376.55,190.62c0-24.54-19.96-44.5-44.5-44.5H76.05c-24.54,0-44.5,19.96-44.5,44.5s19.96,44.5,44.5,44.5h256c24.54,0,44.5-19.96,44.5-44.5ZM56.55,190.62c0-10.75,8.75-19.5,19.5-19.5h256c10.75,0,19.5,8.75,19.5,19.5s-8.75,19.5-19.5,19.5H76.05c-10.75,0-19.5-8.75-19.5-19.5Z"/>
  <path d="M423.95,264.88h-140.9c-24.54,0-44.5,19.96-44.5,44.5s19.96,44.5,44.5,44.5h140.9c24.54,0,44.5-19.96,44.5-44.5s-19.96-44.5-44.5-44.5ZM423.95,328.88h-140.9c-10.75,0-19.5-8.75-19.5-19.5s8.75-19.5,19.5-19.5h140.9c10.75,0,19.5,8.75,19.5,19.5s-8.75,19.5-19.5,19.5Z"/>
</svg>