<?xml version="1.0" encoding="UTF-8"?>
<svg id="a" data-name="layer1" xmlns="http://www.w3.org/2000/svg" viewBox="0 0 500 500">
  <path d="M460.93,423.93L260.93,63.93c-2.21-3.97-6.39-6.43-10.93-6.43s-8.72,2.46-10.93,6.43L39.07,423.93c-2.15,3.87-2.09,8.59.15,12.41,2.25,3.82,6.34,6.16,10.77,6.16h400c4.43,0,8.53-2.34,10.77-6.16,2.25-3.82,2.3-8.54.15-12.41ZM71.24,417.5L250,95.74l178.76,321.76H71.24Z"/>
  <path d="M234.21,200.36v113.77c0,6.9,5.6,12.5,12.5,12.5s12.5-5.6,12.5-12.5v-113.77c0-6.9-5.6-12.5-12.5-12.5s-12.5,5.6-12.5,12.5Z"/>
  <path d="M258.96,366.3c-.16-.8-.4-1.59-.71-2.34-.31-.76-.7-1.48-1.15-2.16-.23-.34-.47-.67-.73-.99-.26-.31-.54-.62-.83-.91-.28-.29-.59-.57-.91-.83-.31-.25-.64-.5-.98-.72-.68-.45-1.41-.84-2.16-1.15-.76-.32-1.54-.56-2.34-.72-.4-.08-.81-.14-1.21-.18-.82-.08-1.65-.08-2.46,0-.41.04-.82.1-1.22.18-.79.16-1.58.4-2.33.72-.76.31-1.48.7-2.16,1.15-.34.22-.67.47-.99.72-.32.26-.62.54-.91.83s-.57.6-.83.91c-.26.32-.5.65-.73.99-.45.68-.83,1.4-1.15,2.16-.31.75-.55,1.54-.71,2.34-.08.4-.14.81-.18,1.21-.04.41-.06.82-.06,1.23s.02.82.06,1.23c.04.4.1.81.18,1.21.16.8.4,1.59.71,2.34.32.75.7,1.48,1.15,2.16.23.34.47.67.73.98.26.32.54.63.83.92s.59.56.91.82c.32.26.65.51.99.73.68.45,1.4.84,2.16,1.15.75.31,1.54.55,2.33.71.4.09.81.15,1.22.19.41.04.82.06,1.23.06s.82-.02,1.23-.06c.4-.04.81-.1,1.21-.19.8-.16,1.58-.4,2.34-.71.75-.31,1.48-.7,2.16-1.15.34-.22.67-.47.98-.73.32-.26.63-.53.91-.82.29-.29.57-.6.83-.92.26-.31.5-.64.73-.98.45-.68.84-1.41,1.15-2.16.31-.75.55-1.54.71-2.34.08-.4.14-.81.18-1.21.05-.41.07-.82.07-1.23s-.02-.82-.07-1.23c-.04-.4-.1-.81-.18-1.21Z"/>
</svg>