<?xml version="1.0" encoding="UTF-8"?>
<svg id="a" data-name="layer1" xmlns="http://www.w3.org/2000/svg" viewBox="0 0 500 500">
  <path d="M250,432.5c-100.631,0-182.5-81.869-182.5-182.5S149.369,67.5,250,67.5s182.5,81.869,182.5,182.5-81.869,182.5-182.5,182.5ZM250,92.5c-86.846,0-157.5,70.654-157.5,157.5s70.654,157.5,157.5,157.5,157.5-70.654,157.5-157.5-70.654-157.5-157.5-157.5Z"/>
  <path d="M295.941,214.706c-3.199,0-6.398-1.221-8.839-3.661-4.881-4.882-4.881-12.796,0-17.678l24.94-24.94c4.882-4.881,12.796-4.881,17.678,0,4.881,4.882,4.881,12.796,0,17.678l-24.94,24.94c-2.441,2.44-5.64,3.661-8.839,3.661Z"/>
  <path d="M207.333,214.706c-3.199,0-6.398-1.221-8.839-3.661l-24.94-24.94c-4.881-4.882-4.881-12.796,0-17.678,4.882-4.881,12.796-4.881,17.678,0l24.94,24.94c4.881,4.882,4.881,12.796,0,17.678-2.441,2.44-5.64,3.661-8.839,3.661Z"/>
  <path d="M332.933,352.503c-4.871,0-9.5-2.864-11.518-7.633-3.903-9.229-9.493-17.518-16.614-24.639-7.122-7.121-15.411-12.711-24.638-16.613-9.547-4.038-19.695-6.086-30.163-6.086s-20.616,2.048-30.163,6.086c-9.228,3.902-17.517,9.492-24.638,16.613-7.121,7.121-12.711,15.41-16.614,24.639-2.69,6.357-10.027,9.328-16.382,6.643-6.358-2.689-9.333-10.024-6.643-16.383,5.164-12.207,12.552-23.168,21.961-32.576,9.41-9.409,20.37-16.798,32.577-21.961,12.644-5.349,26.069-8.061,39.901-8.061s27.257,2.712,39.902,8.061c12.207,5.163,23.167,12.552,32.577,21.961,9.409,9.408,16.797,20.369,21.961,32.576,2.69,6.358-.284,13.693-6.643,16.383-1.589.672-3.24.99-4.864.99Z"/>
</svg>