<?xml version="1.0" encoding="UTF-8"?>
<svg id="c" data-name="レイヤー 4" xmlns="http://www.w3.org/2000/svg" viewBox="0 0 500 500">
  <path d="M365.65,111.73h-78.5v-9.07c0-20.48-16.66-37.15-37.15-37.15s-37.15,16.66-37.15,37.15v9.07h-78.5c-6.9,0-12.5,5.6-12.5,12.5v56.91c0,6.9,5.6,12.5,12.5,12.5h7.79v222.7c0,6.9,5.6,12.5,12.5,12.5h190.71c6.9,0,12.5-5.6,12.5-12.5v-222.7h7.79c6.9,0,12.5-5.6,12.5-12.5v-56.91c0-6.9-5.6-12.5-12.5-12.5ZM237.85,102.66c0-6.7,5.45-12.15,12.15-12.15s12.15,5.45,12.15,12.15v9.02h-24.29v-9.02ZM146.85,136.73h206.29v31.91h-206.29v-31.91ZM332.86,403.84h-165.71v-210.2h165.71v210.2Z"/>
</svg>