<?xml version="1.0" encoding="UTF-8"?>
<svg id="a" data-name="layer1" xmlns="http://www.w3.org/2000/svg" width="1000" height="1000" viewBox="0 0 1000 1000">
  <path d="M340.943,285.994v110.789h-110.789v-110.789h110.789M370.943,245.994h-170.789c-5.523,0-10,4.477-10,10v170.789c0,5.523,4.477,10,10,10h170.789c5.523,0,10-4.477,10-10v-170.789c0-5.523-4.477-10-10-10h0Z" fill="#000" stroke-width="0"/>
  <path d="M497.147,445.5c39.611,0,71.838,32.227,71.838,71.838v8.661c0,39.611-32.227,71.838-71.838,71.838h-8.662c-39.611,0-71.838-32.227-71.838-71.838v-8.661c0-39.611,32.227-71.838,71.838-71.838h8.662M497.147,405.5h-8.662c-61.766,0-111.838,50.071-111.838,111.838v8.661c0,61.767,50.072,111.838,111.838,111.838h8.662c61.766,0,111.838-50.071,111.838-111.838v-8.661c0-61.767-50.072-111.838-111.838-111.838h0Z" fill="#000" stroke-width="0"/>
  <path d="M723.628,557.806h.005-.005M697.805,611.119l53.052,102.888h-102.888l49.836-102.888M696.98,534.51c-3.733,0-7.463,1.961-9.352,5.859l-96.255,198.722c-3.341,6.898,1.684,14.915,9.349,14.915h198.722c7.778,0,12.797-8.234,9.232-15.147l-102.466-198.722c-1.938-3.758-5.585-5.627-9.229-5.627h0Z" fill="#000" stroke-width="0"/>
</svg>