<?xml version="1.0" encoding="UTF-8"?>
<svg id="a" data-name="layer1" xmlns="http://www.w3.org/2000/svg" viewBox="0 0 500 500">
  <path d="M349.686,423.531c-6.329,0-12.652-2.046-18.151-6.134l-78.292-58.205c-1.939-1.442-4.545-1.442-6.484,0l-78.292,58.205c-10.905,8.106-25.054,8.184-36.047.197-10.993-7.987-15.292-21.467-10.951-34.343l31.162-92.447c.772-2.29-.033-4.769-2.004-6.167l-79.549-56.474c-11.08-7.866-15.526-21.298-11.327-34.222,4.162-12.808,15.488-21.029,28.917-21.029.121,0,.241,0,.362-.172h97.551c2.41,1.258,4.525-.261,5.246-2.568l29.128-93.107c4.057-12.968,15.458-21.348,29.046-21.348s24.989,8.379,29.046,21.348l29.128,93.107c.715,2.286,2.794,3.812,5.184,3.568h97.613c.12-.827.242-.828.362-.828,13.43,0,24.755,8.221,28.917,21.029,4.199,12.923-.247,26.356-11.327,34.222l-79.549,56.474c-1.97,1.398-2.776,3.877-2.004,6.167l31.162,92.447c4.34,12.876.042,26.356-10.951,34.343-5.449,3.959-11.675,5.937-17.896,5.937ZM250,333.073c6.365,0,12.727,2.018,18.158,6.056l78.292,58.204c2.789,2.074,5.229.911,6.437.036,1.207-.877,3.065-2.839,1.955-6.133l-31.162-92.447c-4.323-12.823.187-26.703,11.222-34.538l79.55-56.475c2.834-2.012,2.484-4.692,2.023-6.11-.457-1.407-1.733-3.755-5.146-3.927h-97.634c-.115,1.243-.231,1.244-.346,1.244-13.388,0-25.028-8.541-29.034-21.347l-29.128-93.108c-1.038-3.316-3.695-3.812-5.187-3.812s-4.149.495-5.187,3.812l-29.128,93.107c-4.006,12.806-15.647,21.348-29.034,21.348-.115,0-.23,0-.346-.244l-97.551-1h-.083c-3.413.172-4.688,2.52-5.146,3.927-.461,1.418-.811,4.099,2.022,6.11l79.55,56.474c11.035,7.835,15.545,21.715,11.222,34.539l-31.162,92.446c-1.11,3.293.749,5.256,1.955,6.133,1.207.875,3.647,2.038,6.437-.036l78.292-58.205c5.43-4.037,11.795-6.056,18.158-6.056Z"/>
</svg>