<?xml version="1.0" encoding="UTF-8"?>
<svg id="a" data-name="layer1" xmlns="http://www.w3.org/2000/svg" viewBox="0 0 500 500">
  <path d="M412.237,137c-21.28-31.921-50.086-49.5-81.111-49.5h-91.295c-31.025,0-59.831,17.579-81.111,49.5-20.241,30.362-31.389,70.493-31.389,113s11.147,82.638,31.389,113c6.305,9.458,13.275,17.645,20.763,24.5h-63.392c-6.903,0-12.5,5.597-12.5,12.5s5.597,12.5,12.5,12.5h110.392c1.31,0,2.571-.203,3.758-.577,3.17.376,6.368.577,9.592.577h91.295c31.025,0,59.831-17.579,81.111-49.5,20.241-30.362,31.389-70.493,31.389-113s-11.147-82.638-31.389-113ZM152.33,250c0-37.626,9.656-72.832,27.189-99.132,16.495-24.742,37.913-38.368,60.311-38.368s43.815,13.626,60.311,38.368c17.533,26.3,27.189,61.506,27.189,99.132s-9.656,72.832-27.189,99.132c-16.495,24.742-37.913,38.368-60.311,38.368-.284,0-.566-.012-.85-.016v-82.234c0-6.903-5.597-12.5-12.5-12.5s-12.5,5.597-12.5,12.5v76.012c-12.706-6.276-24.484-17.166-34.461-32.13-17.533-26.3-27.189-61.506-27.189-99.132ZM391.436,349.132c-16.495,24.742-37.913,38.368-60.311,38.368h-30.946c7.488-6.855,14.458-15.042,20.763-24.5,20.241-30.362,31.389-70.493,31.389-113s-11.147-82.638-31.389-113c-6.305-9.458-13.275-17.645-20.763-24.5h30.946c22.397,0,43.815,13.626,60.311,38.368,17.533,26.3,27.189,61.506,27.189,99.132s-9.656,72.832-27.189,99.132Z"/>
</svg>