<?xml version="1.0" encoding="UTF-8"?>
<svg id="a" data-name="layer1" xmlns="http://www.w3.org/2000/svg" viewBox="0 0 500 500">
  <path d="M153.024,415.813c-3.794,0-7.541-1.72-9.998-4.984-4.15-5.516-3.044-13.353,2.473-17.504l188.121-141.563c.54-.407.866-1.064.866-1.751s-.326-1.345-.873-1.756L145.497,106.675c-5.516-4.151-6.622-11.988-2.471-17.504,4.15-5.516,11.986-6.623,17.504-2.471l188.121,141.583c6.786,5.113,10.834,13.233,10.834,21.727s-4.048,16.614-10.828,21.723l-188.128,141.568c-2.251,1.694-4.89,2.513-7.506,2.513Z"/>
</svg>