<?xml version="1.0" encoding="UTF-8"?>
<svg id="a" data-name="layer1" xmlns="http://www.w3.org/2000/svg" viewBox="0 0 500 500">
  <path d="M424.285,210.332c-9.093-9.093-19.195-16.811-30.046-23.064,0-.085.003-.169.003-.254,0-38.393-14.951-74.487-42.098-101.635-27.148-27.148-63.242-42.098-101.635-42.098s-74.487,14.951-101.635,42.098c-26.928,26.928-41.848,62.661-42.087,100.706-11.125,6.349-21.472,14.225-30.774,23.527-27.34,27.34-42.397,63.69-42.397,102.355s15.057,75.015,42.397,102.355c27.34,27.34,63.69,42.397,102.355,42.397,26.132,0,51.201-6.887,73.152-19.786,21.433,12.245,45.78,18.768,71.131,18.768,38.393,0,74.487-14.951,101.635-42.098,27.148-27.148,42.098-63.242,42.098-101.635s-14.951-74.487-42.098-101.635ZM250.509,68.75c31.59,0,61.288,12.302,83.626,34.639,19.619,19.619,31.494,44.919,34.093,72.19-14.502-4.831-29.846-7.345-45.578-7.345-25.351,0-49.698,6.523-71.131,18.768-21.95-12.899-47.02-19.786-73.152-19.786-15.684,0-30.987,2.478-45.462,7.248,2.814-26.845,14.626-51.723,33.978-71.075,22.337-22.337,52.036-34.639,83.626-34.639ZM251.349,406.338c-4.311-3.271-8.432-6.852-12.325-10.744-19.619-19.619-31.494-44.919-34.093-72.19,14.502,4.831,29.846,7.345,45.578,7.345,16.113,0,31.818-2.643,46.631-7.707-2.532,27.681-14.528,53.373-34.426,73.271-3.605,3.605-7.402,6.947-11.364,10.025ZM250.509,305.28c-15.73,0-30.991-3.052-45.108-8.873,3.356-25.692,14.997-49.438,33.623-68.065,3.893-3.893,8.014-7.473,12.325-10.744,3.962,3.077,7.759,6.42,11.364,10.025,18.719,18.719,30.443,42.567,33.875,68.373-14.388,6.085-29.987,9.285-46.079,9.285ZM334.135,270.641c-4.389,4.389-9.066,8.385-13.983,11.982-5.627-27.473-19.143-52.723-39.43-73.01-1.993-1.993-4.04-3.913-6.127-5.775,14.93-6.642,31.224-10.135,48.055-10.135,15.73,0,30.991,3.052,45.108,8.873-3.356,25.692-14.997,49.439-33.623,68.065ZM228.268,203.563c-2.48,2.166-4.902,4.419-7.253,6.769-20.254,20.254-33.715,45.49-39.247,72.943-5.247-3.764-10.228-7.978-14.885-12.635-18.878-18.878-30.587-43.015-33.761-69.107,14.169-5.804,29.472-8.849,45.245-8.849,17.517,0,34.453,3.758,49.901,10.879ZM148.874,288.65c9.094,9.093,19.195,16.81,30.046,23.063,0,.085-.003.169-.003.254,0,38.393,14.951,74.487,42.099,101.635,2.35,2.35,4.772,4.603,7.253,6.769-15.447,7.121-32.384,10.879-49.901,10.879-31.862,0-61.816-12.408-84.346-34.937-22.53-22.53-34.937-52.484-34.937-84.346s12.408-61.816,34.937-84.345c4.809-4.809,9.958-9.152,15.39-13.016,5.391,27.879,18.938,53.52,39.462,74.044ZM280.722,414.322c27.34-27.34,42.397-63.69,42.397-102.355,0-.282-.009-.562-.01-.844,10.468-6.147,20.225-13.664,29.035-22.474,20.254-20.255,33.715-45.49,39.247-72.943,5.247,3.764,10.228,7.978,14.885,12.635,22.337,22.337,34.639,52.036,34.639,83.626s-12.302,61.289-34.639,83.626c-22.337,22.337-52.036,34.639-83.626,34.639-16.831,0-33.125-3.494-48.055-10.135,2.086-1.862,4.133-3.781,6.126-5.775Z"/>
</svg>