<?xml version="1.0" encoding="UTF-8"?>
<svg id="a" data-name="layer1" xmlns="http://www.w3.org/2000/svg" viewBox="0 0 500 500">
  <path d="M112.936,165.937c27.518,0,49.906-22.387,49.906-49.906s-22.387-49.906-49.906-49.906-49.906,22.387-49.906,49.906,22.387,49.906,49.906,49.906ZM112.936,86.088c16.511,0,29.943,13.432,29.943,29.943s-13.432,29.943-29.943,29.943-29.943-13.432-29.943-29.943,13.432-29.943,29.943-29.943Z"/>
  <path d="M250,165.937c27.518,0,49.906-22.387,49.906-49.906s-22.387-49.906-49.906-49.906-49.906,22.387-49.906,49.906,22.387,49.906,49.906,49.906ZM250,86.088c16.511,0,29.943,13.432,29.943,29.943s-13.432,29.943-29.943,29.943-29.943-13.432-29.943-29.943,13.432-29.943,29.943-29.943Z"/>
  <path d="M397.406,201.179c.575-11.391.861-23.572.857-36.525,22.141-5.098,38.707-24.956,38.707-48.623,0-27.518-22.387-49.906-49.906-49.906s-49.906,22.387-49.906,49.906c0,24.531,17.796,44.969,41.152,49.121.001,12.772-.284,24.743-.861,35.881-22.932,4.495-40.291,24.738-40.291,48.967,0,16.93,8.481,31.907,21.409,40.935-4.068,6.821-9.146,12.219-15.449,14.388-15.324,5.276-35.924-8.578-53.436-25.106,6.407-8.394,10.223-18.866,10.223-30.216,0-27.518-22.387-49.906-49.906-49.906s-49.906,22.387-49.906,49.906,22.387,49.906,49.906,49.906c8.916,0,17.287-2.362,24.539-6.475.505.485,1.012.971,1.525,1.455,22.231,20.989,42.347,31.551,60.006,31.551,4.685,0,9.197-.744,13.529-2.233,10.972-3.771,20.125-12.254,27.386-25.322,3.256.671,6.627,1.024,10.079,1.024,27.518,0,49.906-22.387,49.906-49.906,0-23.973-16.992-44.045-39.564-48.821ZM220.057,250c0-16.511,13.432-29.943,29.943-29.943s29.943,13.432,29.943,29.943c0,5.735-1.623,11.097-4.431,15.655-7.504-8.336-13.639-16.157-17.364-21.419-3.181-4.496-9.409-5.568-13.909-2.387-4.502,3.181-5.572,9.41-2.391,13.911.412.582,7.368,10.371,18.122,22.47-3.121,1.105-6.475,1.713-9.971,1.713-16.511,0-29.943-13.432-29.943-29.943ZM357.12,116.031c0-16.511,13.432-29.943,29.943-29.943s29.943,13.432,29.943,29.943c0,12.644-7.881,23.474-18.985,27.858-.203-9.11-.53-18.548-.988-28.325-.259-5.507-4.931-9.761-10.437-9.503-5.507.258-9.761,4.931-9.503,10.437.455,9.716.781,19.079.982,28.096-12.132-3.826-20.955-15.183-20.955-28.563ZM357.12,250c0-12.568,7.786-23.345,18.785-27.779-1.456,15.172-3.571,28.434-6.344,39.719-.795,3.236-1.728,6.628-2.812,10.032-5.916-5.474-9.629-13.296-9.629-21.973ZM387.064,279.944c-.639,0-1.272-.027-1.902-.067,1.374-4.12,2.638-8.502,3.783-13.158,3.154-12.834,5.51-27.959,7.064-45.296,12.155,3.813,20.999,15.181,20.999,28.578,0,16.511-13.432,29.943-29.943,29.943Z"/>
  <path d="M250,334.063c-27.518,0-49.906,22.387-49.906,49.906,0,1.904.118,3.78.326,5.628-12.557.962-23.57-1.471-32.949-7.328-1.701-1.062-3.328-2.237-4.9-3.491-1.717-16.535-11.544-30.69-25.419-38.425-4.31-11.34-7.237-23.149-9.214-33.657-.551-2.93-1.041-5.825-1.479-8.668,20.966-5.912,36.383-25.197,36.383-48.028,0-27.518-22.387-49.906-49.906-49.906s-49.906,22.387-49.906,49.906c0,25.319,18.957,46.28,43.421,49.471,1.645,10.99,4.046,22.864,7.545,34.619-.354-.007-.705-.027-1.061-.027-27.518,0-49.906,22.387-49.906,49.906s22.387,49.906,49.906,49.906c21.56,0,39.968-13.744,46.929-32.931,10.593,5.922,22.34,8.89,35.192,8.89,3.838,0,7.779-.28,11.811-.808,8.657,14.844,24.743,24.848,43.132,24.848,27.518,0,49.906-22.387,49.906-49.906s-22.387-49.906-49.906-49.906ZM82.993,250c0-16.511,13.432-29.943,29.943-29.943s29.943,13.432,29.943,29.943c0,12.585-7.808,23.373-18.83,27.796-1.383-16.086-1.139-27.376-1.135-27.548.137-5.508-4.216-10.086-9.725-10.226-.086-.002-.172-.003-.257-.003-5.394,0-9.836,4.304-9.973,9.728-.036,1.43-.259,12.788,1.076,28.845-12.177-3.799-21.041-15.18-21.041-28.592ZM112.936,413.912c-16.511,0-29.943-13.432-29.943-29.943s13.432-29.943,29.943-29.943c3.069,0,6.032.466,8.822,1.328,5.328,12.017,12.152,23.176,20.896,32.229-1.79,14.813-14.43,26.331-29.718,26.331ZM250,413.912c-8.735,0-16.607-3.761-22.085-9.747,8.538-2.768,17.433-6.539,26.681-11.337,4.893-2.538,6.802-8.563,4.264-13.456-2.538-4.892-8.564-6.8-13.456-4.264-8.905,4.619-17.339,8.144-25.294,10.586-.033-.572-.053-1.147-.053-1.726,0-16.511,13.432-29.943,29.943-29.943s29.943,13.432,29.943,29.943-13.432,29.943-29.943,29.943Z"/>
  <path d="M387.064,334.063c-27.518,0-49.906,22.387-49.906,49.906s22.387,49.906,49.906,49.906,49.906-22.387,49.906-49.906-22.387-49.906-49.906-49.906ZM387.064,413.912c-16.511,0-29.943-13.432-29.943-29.943s13.432-29.943,29.943-29.943,29.943,13.432,29.943,29.943-13.432,29.943-29.943,29.943Z"/>
</svg>