<?xml version="1.0" encoding="UTF-8"?>
<svg id="a" data-name="layer1" xmlns="http://www.w3.org/2000/svg" viewBox="0 0 1000 1000">
  <path d="M551.64,803.26h-103.27c-25.26,0-45.81-20.55-45.81-45.81v-256.28l-222.26-228.42-.58-.68c-11.61-13.78-14.11-32.5-6.5-48.84,7.6-16.34,23.52-26.49,41.54-26.49h570.5c18.02,0,33.94,10.15,41.54,26.49,7.6,16.34,5.11,35.05-6.5,48.84l-.58.68-.62.64-221.64,227.78v256.28c0,25.26-20.55,45.81-45.81,45.81ZM452.55,753.26h94.89v-253.87c0-10.79,3.83-21.27,10.78-29.52l.58-.68.62-.64,215.83-221.81H224.74l216.45,222.45.58.68c6.95,8.25,10.78,18.73,10.78,29.52v253.87Z"/>
</svg>