<?xml version="1.0" encoding="UTF-8"?>
<svg id="a" data-name="layer1" xmlns="http://www.w3.org/2000/svg" viewBox="0 0 500 500">
  <path d="M438.58,223.082l-62.143-60.728c-9.866-9.643-22.897-14.952-36.693-14.952H68.14c-6.903,0-12.5,5.597-12.5,12.5v180c0,6.903,5.597,12.5,12.5,12.5h271.604c13.796,0,26.827-5.31,36.693-14.951l62.143-60.729c7.281-7.115,11.291-16.641,11.291-26.82s-4.01-19.705-11.291-26.82ZM421.108,258.842l-62.143,60.729c-5.168,5.05-11.994,7.831-19.221,7.831H80.64v-155h259.104c7.227,0,14.053,2.781,19.221,7.831l62.143,60.729c2.427,2.371,3.764,5.546,3.764,8.939s-1.337,6.568-3.764,8.939Z"/>
  <circle cx="327.288" cy="249.902" r="25"/>
</svg>