<?xml version="1.0" encoding="UTF-8"?>
<svg id="a" data-name="layer1" xmlns="http://www.w3.org/2000/svg" viewBox="0 0 500 500">
  <path d="M422.094,331.876l-64.053-245.037c-1.438-5.501-6.408-9.339-12.094-9.339h-200c-5.832,0-10.889,4.032-12.187,9.718l-55.947,245.037c-.208.913-.313,1.846-.313,2.782v74.963c0,6.903,5.597,12.5,12.5,12.5h320c6.903,0,12.5-5.597,12.5-12.5v-74.963c0-1.066-.137-2.129-.406-3.161ZM397.5,397.5H102.5v-61.054l53.415-233.946h180.38l61.205,234.144v60.856Z"/>
  <path d="M155.175,248.073c-6.903,0-12.5,5.597-12.5,12.5v97.358c0,6.903,5.597,12.5,12.5,12.5s12.5-5.597,12.5-12.5v-97.358c0-6.903-5.597-12.5-12.5-12.5Z"/>
  <path d="M258.619,273.073c6.903,0,12.5-5.597,12.5-12.5s-5.597-12.5-12.5-12.5h-43.609c-6.903,0-12.5,5.597-12.5,12.5v97.358c0,6.903,5.597,12.5,12.5,12.5h43.609c6.903,0,12.5-5.597,12.5-12.5v-48.679c0-6.903-5.597-12.5-12.5-12.5h-31.109v-23.68h31.109ZM246.119,321.753v23.679h-18.609v-23.679h18.609Z"/>
  <path d="M318.969,260.573v36.18h-9.304c-6.903,0-12.5,5.597-12.5,12.5s5.597,12.5,12.5,12.5h9.304v36.179c0,6.903,5.597,12.5,12.5,12.5h21.805c6.903,0,12.5-5.597,12.5-12.5s-5.597-12.5-12.5-12.5h-9.305v-23.679h9.305c6.903,0,12.5-5.597,12.5-12.5s-5.597-12.5-12.5-12.5h-9.305v-36.18c0-6.903-5.597-12.5-12.5-12.5s-12.5,5.597-12.5,12.5Z"/>
</svg>