<?xml version="1.0" encoding="UTF-8"?>
<svg id="a" data-name="layer1" xmlns="http://www.w3.org/2000/svg" viewBox="0 0 500 500">
  <path d="M446.54,173.7c-11.67-23.34-28.2-36.2-46.54-36.2-8.87,0-17.32,3.02-25,8.77-7.68-5.75-16.13-8.77-25-8.77s-17.32,3.02-25,8.77c-7.68-5.75-16.13-8.77-25-8.77s-17.32,3.02-25,8.77c-7.68-5.75-16.13-8.77-25-8.77s-17.32,3.02-25,8.77c-7.68-5.75-16.13-8.77-25-8.77s-17.32,3.02-25,8.77c-7.68-5.75-16.13-8.77-25-8.77s-17.32,3.02-25,8.77c-7.68-5.75-16.13-8.77-25-8.77-18.34,0-34.86,12.86-46.54,36.2-10.29,20.59-15.96,47.69-15.96,76.3s5.67,55.71,15.96,76.3c11.67,23.34,28.2,36.2,46.54,36.2,8.87,0,17.32-3.02,25-8.77,7.68,5.75,16.13,8.77,25,8.77s17.32-3.02,25-8.77c7.68,5.75,16.13,8.77,25,8.77s17.32-3.02,25-8.77c7.68,5.75,16.13,8.77,25,8.77s17.32-3.02,25-8.77c7.68,5.75,16.13,8.77,25,8.77s17.32-3.02,25-8.77c7.68,5.75,16.13,8.77,25,8.77s17.32-3.02,25-8.77c7.68,5.75,16.13,8.77,25,8.77,18.34,0,34.86-12.86,46.54-36.2,10.29-20.59,15.96-47.69,15.96-76.3s-5.67-55.71-15.96-76.3ZM374.99,313.36c-8.06-16.99-12.49-39.38-12.49-63.36,0-25.5,5.14-47.7,12.51-63.36,8.06,16.99,12.49,39.38,12.49,63.36,0,25.5-5.14,47.7-12.51,63.36ZM358.24,165.16c-1.67,2.67-3.27,5.52-4.78,8.54-1.22,2.44-2.37,4.99-3.46,7.61-1.09-2.62-2.24-5.16-3.46-7.61-1.52-3.05-3.13-5.92-4.82-8.6,2.76-1.7,5.54-2.6,8.28-2.6s5.47.93,8.24,2.66ZM324.99,313.36c-8.06-16.99-12.49-39.38-12.49-63.36,0-25.5,5.14-47.7,12.51-63.36,8.06,16.99,12.49,39.38,12.49,63.36,0,25.5-5.14,47.7-12.51,63.36ZM308.24,165.16c-1.67,2.67-3.27,5.52-4.78,8.54-1.22,2.44-2.37,4.99-3.46,7.61-1.09-2.62-2.24-5.16-3.46-7.61-1.52-3.05-3.13-5.92-4.82-8.6,2.76-1.7,5.54-2.6,8.28-2.6s5.47.93,8.24,2.66ZM274.99,313.36c-8.06-16.99-12.49-39.38-12.49-63.36,0-25.5,5.14-47.7,12.51-63.36,8.06,16.99,12.49,39.38,12.49,63.36,0,25.5-5.14,47.7-12.51,63.36ZM258.24,165.16c-1.67,2.67-3.27,5.52-4.78,8.54-1.22,2.44-2.37,4.99-3.46,7.61-1.09-2.62-2.24-5.16-3.46-7.61-1.52-3.05-3.13-5.92-4.82-8.6,2.76-1.7,5.54-2.6,8.28-2.6s5.47.93,8.24,2.66ZM224.99,313.36c-8.06-16.99-12.49-39.38-12.49-63.36,0-25.5,5.14-47.7,12.51-63.36,8.06,16.99,12.49,39.38,12.49,63.36,0,25.5-5.14,47.7-12.51,63.36ZM208.24,165.16c-1.67,2.67-3.27,5.52-4.78,8.54-1.22,2.44-2.37,4.99-3.46,7.61-1.09-2.62-2.24-5.16-3.46-7.61-1.52-3.05-3.13-5.92-4.82-8.6,2.76-1.7,5.54-2.6,8.28-2.6s5.47.93,8.24,2.66ZM174.99,313.36c-8.06-16.99-12.49-39.38-12.49-63.36,0-25.5,5.14-47.7,12.51-63.36,8.06,16.99,12.49,39.38,12.49,63.36,0,25.5-5.14,47.7-12.51,63.36ZM158.24,165.16c-1.67,2.67-3.27,5.52-4.78,8.54-1.22,2.44-2.37,4.99-3.46,7.61-1.09-2.62-2.24-5.16-3.46-7.61-1.52-3.05-3.13-5.92-4.82-8.6,2.76-1.7,5.54-2.6,8.28-2.6s5.47.93,8.24,2.66ZM124.99,313.36c-8.06-16.99-12.49-39.38-12.49-63.36,0-25.5,5.14-47.7,12.51-63.36,8.06,16.99,12.49,39.38,12.49,63.36,0,25.5-5.14,47.7-12.51,63.36ZM75.83,315.12c-8.59-17.19-13.33-40.31-13.33-65.12,0-50.08,19.8-87.5,37.5-87.5,2.68,0,5.47.93,8.24,2.66-1.67,2.67-3.27,5.52-4.78,8.54-10.29,20.59-15.96,47.69-15.96,76.3s5.67,55.71,15.96,76.3c1.52,3.05,3.13,5.92,4.82,8.6-2.76,1.7-5.54,2.6-8.28,2.6-8.13,0-17.17-8.37-24.17-22.38ZM141.75,334.84c1.67-2.67,3.27-5.52,4.78-8.54,1.22-2.44,2.37-4.99,3.46-7.61,1.09,2.62,2.24,5.16,3.46,7.61,1.52,3.05,3.13,5.92,4.82,8.6-2.76,1.7-5.54,2.6-8.28,2.6s-5.47-.93-8.24-2.66ZM191.75,334.84c1.67-2.67,3.27-5.52,4.78-8.54,1.22-2.44,2.37-4.99,3.46-7.61,1.09,2.62,2.24,5.16,3.46,7.61,1.52,3.05,3.13,5.92,4.82,8.6-2.76,1.7-5.54,2.6-8.28,2.6s-5.47-.93-8.24-2.66ZM241.75,334.84c1.67-2.67,3.27-5.52,4.78-8.54,1.22-2.44,2.37-4.99,3.46-7.61,1.09,2.62,2.24,5.16,3.46,7.61,1.52,3.05,3.13,5.92,4.82,8.6-2.76,1.7-5.54,2.6-8.28,2.6s-5.47-.93-8.24-2.66ZM291.75,334.84c1.67-2.67,3.27-5.52,4.78-8.54,1.22-2.44,2.37-4.99,3.46-7.61,1.09,2.62,2.24,5.16,3.46,7.61,1.52,3.05,3.13,5.92,4.82,8.6-2.76,1.7-5.54,2.6-8.28,2.6s-5.47-.93-8.24-2.66ZM341.75,334.84c1.67-2.67,3.27-5.52,4.78-8.54,1.22-2.44,2.37-4.99,3.46-7.61,1.09,2.62,2.24,5.16,3.46,7.61,1.52,3.05,3.13,5.92,4.82,8.6-2.76,1.7-5.54,2.6-8.28,2.6s-5.47-.93-8.24-2.66ZM400,337.5c-2.68,0-5.47-.93-8.24-2.66,1.67-2.67,3.27-5.52,4.78-8.54,10.29-20.59,15.96-47.69,15.96-76.3s-5.67-55.71-15.96-76.3c-1.52-3.05-3.13-5.92-4.82-8.6,2.76-1.7,5.54-2.6,8.28-2.6,8.13,0,17.17,8.37,24.17,22.38,8.59,17.19,13.33,40.31,13.33,65.12,0,50.08-19.8,87.5-37.5,87.5Z"/>
</svg>