<?xml version="1.0" encoding="UTF-8"?>
<svg id="a" data-name="layer1" xmlns="http://www.w3.org/2000/svg" viewBox="0 0 500 500">
  <path d="M450.829,200.9c4.35-4.991,3.848-12.583-.833-17.264l-88.156-88.156c-.259-.259-.53-.506-.811-.741-.144-.12-.391-.301-.541-.414-.182-.136-.359-.276-.548-.403-.177-.119-.361-.221-.543-.33-.168-.101-.333-.206-.506-.299-.185-.099-.376-.183-.565-.272-.181-.085-.359-.176-.544-.253-.184-.076-.371-.137-.558-.204-.198-.071-.394-.147-.597-.209-.187-.056-.377-.098-.565-.145-.207-.052-.41-.11-.621-.152-.221-.044-.443-.069-.665-.101-.183-.026-.483-.074-.668-.09-.738-.065-1.481-.065-2.219,0-.185.016-.484.064-.668.09-.222.032-.445.058-.665.101-.21.042-.414.1-.621.152-.189.047-.378.089-.565.145-.203.061-.399.137-.597.209-.186.067-.374.128-.557.204-.186.077-.363.167-.544.253-.189.089-.379.173-.564.272-.173.093-.338.199-.506.299-.182.109-.366.211-.543.33-.188.126-.366.267-.547.402-.15.112-.397.293-.541.413-.281.235-.552.482-.811.741l-88.139,88.139c-4.605,4.605-5.21,12.048-1.045,17.053,4.775,5.739,13.317,6.03,18.474.873l67.05-67.05v89.005c0,88.366-71.634,160-160,160H58.942c-6.512,0-12.203,4.835-12.798,11.32-.682,7.435,5.153,13.68,12.446,13.68h116.91c104.934,0,190-85.066,190-190v-84.005l67.05,67.05c2.441,2.441,5.64,3.661,8.839,3.661,3.469,0,6.939-1.435,9.441-4.306Z"/>
</svg>