<?xml version="1.0" encoding="UTF-8"?>
<svg id="a" data-name="layer1" xmlns="http://www.w3.org/2000/svg" viewBox="0 0 500 500">
  <path d="M122.427,237.239h255.157c6.903,0,12.5,5.596,12.5,12.5h0c0,6.903-5.596,12.5-12.499,12.5l-257.352.016c-2.423,0-5.635-1.559-7.084-3.5-7.669-10.275-.507-21.515,9.279-21.515Z"/>
  <path d="M250,43.858c113.849,0,206.142,92.293,206.142,206.142s-92.293,206.142-206.142,206.142S43.858,363.849,43.858,250,136.151,43.858,250,43.858ZM121.913,378.087c16.644,16.644,36.019,29.708,57.586,38.831,22.316,9.439,46.036,14.225,70.501,14.225s48.185-4.786,70.501-14.225c21.567-9.122,40.942-22.187,57.586-38.831s29.708-36.019,38.831-57.586c9.439-22.316,14.225-46.036,14.225-70.501s-4.786-48.185-14.225-70.501c-9.122-21.567-22.187-40.942-38.831-57.586-16.644-16.644-36.019-29.708-57.586-38.831-22.316-9.439-46.036-14.225-70.501-14.225s-48.185,4.786-70.501,14.225c-21.567,9.122-40.942,22.187-57.586,38.831s-29.708,36.019-38.831,57.586c-9.439,22.316-14.225,46.036-14.225,70.501s4.786,48.185,14.225,70.501c9.122,21.567,22.187,40.942,38.831,57.586Z"/>
</svg>