<?xml version="1.0" encoding="UTF-8"?>
<svg id="a" data-name="layer1" xmlns="http://www.w3.org/2000/svg" viewBox="0 0 500 500">
  <path d="M122.435,237.239h115.065v-114.76c0-6.391,5.194-12.252,11.567-12.714,7.324-.531,13.432,5.252,13.433,12.461l.007,115.013h114.784c6.391,0,12.252,5.194,12.714,11.567.531,7.325-5.252,13.432-12.461,13.433l-115.044.007.007,117.294c0,2.423-1.558,5.635-3.499,7.084-10.272,7.669-21.508.508-21.508-9.279v-115.106l-117.261.007c-2.423,0-5.635-1.558-7.084-3.499-7.669-10.272-.508-21.508,9.279-21.508Z"/>
  <path d="M250,43.858c113.849,0,206.142,92.293,206.142,206.142s-92.293,206.142-206.142,206.142S43.858,363.849,43.858,250,136.151,43.858,250,43.858ZM121.913,378.087c16.644,16.644,36.018,29.708,57.586,38.831,22.316,9.439,46.036,14.225,70.501,14.225s48.185-4.786,70.501-14.225c21.567-9.122,40.942-22.187,57.586-38.831,16.644-16.644,29.708-36.019,38.831-57.586,9.439-22.316,14.225-46.036,14.225-70.501s-4.786-48.185-14.225-70.501c-9.122-21.567-22.187-40.942-38.831-57.586-16.644-16.644-36.018-29.708-57.586-38.831-22.316-9.439-46.036-14.225-70.501-14.225s-48.185,4.786-70.501,14.225c-21.567,9.122-40.942,22.187-57.586,38.831-16.644,16.644-29.708,36.019-38.831,57.586-9.439,22.316-14.225,46.036-14.225,70.501s4.786,48.185,14.225,70.501c9.122,21.567,22.187,40.942,38.831,57.586Z"/>
</svg>