<?xml version="1.0" encoding="UTF-8"?>
<svg id="a" data-name="layer1" xmlns="http://www.w3.org/2000/svg" viewBox="0 0 500 500">
  <path d="M349.686,423.531c-6.329,0-12.652-2.046-18.151-6.134l-78.292-58.205c-1.939-1.442-4.545-1.442-6.484,0l-78.292,58.205c-10.905,8.106-25.054,8.184-36.047.197-10.993-7.987-15.292-21.467-10.951-34.343l31.162-92.447c.772-2.29-.033-4.769-2.004-6.167l-79.549-56.474c-11.08-7.866-15.526-21.298-11.327-34.222,4.162-12.808,15.488-21.029,28.917-21.029.121,0,.241,0,.362-.172h97.551c2.41,1.258,4.525-.261,5.246-2.568l29.128-93.107c4.057-12.968,15.458-21.348,29.046-21.348s24.989,8.379,29.046,21.348l29.128,93.107c.715,2.286,2.794,3.812,5.184,3.568h97.613c.12-.827.242-.828.362-.828,13.43,0,24.755,8.221,28.917,21.029,4.199,12.923-.247,26.356-11.327,34.222l-79.549,56.474c-1.97,1.398-2.776,3.877-2.004,6.167l31.162,92.447c4.34,12.876.042,26.356-10.951,34.343-5.449,3.959-11.675,5.937-17.896,5.937Z"/>
</svg>