<?xml version="1.0" encoding="UTF-8"?>
<svg id="a" data-name="layer1" xmlns="http://www.w3.org/2000/svg" viewBox="0 0 500 500">
  <path d="M365.27,140.76c-33.86,0-64.17,15.48-84.22,39.74H38c-6.9,0-12.5,5.6-12.5,12.5s5.6,12.5,12.5,12.5h227.52c-4.66,10.4-7.73,21.65-8.92,33.44H124.97c-6.9,0-12.5,5.6-12.5,12.5s5.6,12.5,12.5,12.5h131.95c1.52,11.84,4.94,23.09,9.94,33.44h-60.38c-6.9,0-12.5,5.6-12.5,12.5s5.6,12.5,12.5,12.5h77.07c20.03,22.58,49.24,36.84,81.72,36.84,60.23,0,109.24-49,109.24-109.24s-49-109.24-109.24-109.24ZM365.27,334.24c-41.69,0-76.39-30.46-83.06-70.28h41.96c6.9,0,12.5-5.6,12.5-12.5s-5.6-12.5-12.5-12.5h-42.39c1.6-12.15,5.79-23.49,12.01-33.44h71.48c6.9,0,12.5-5.6,12.5-12.5s-5.6-12.5-12.5-12.5h-47.54c13.54-9.29,29.91-14.74,47.54-14.74,46.45,0,84.24,37.79,84.24,84.24s-37.79,84.24-84.24,84.24Z"/>
</svg>