<?xml version="1.0" encoding="UTF-8"?>
<svg id="c" data-name="レイヤー 4" xmlns="http://www.w3.org/2000/svg" viewBox="0 0 500 500">
  <path d="M385.421,202.52c-.004-.286-.018-.572-.042-.856-.009-.104-.016-.206-.027-.309-.04-.366-.091-.731-.163-1.092-.002-.01-.005-.02-.007-.03-.071-.35-.161-.696-.261-1.039-.03-.101-.063-.2-.095-.3-.085-.267-.18-.53-.283-.79-.036-.091-.07-.182-.108-.271-.144-.341-.3-.678-.475-1.006-.005-.01-.011-.019-.017-.029-.168-.313-.354-.619-.55-.919-.057-.087-.116-.172-.175-.257-.158-.229-.324-.453-.498-.673-.066-.083-.13-.167-.198-.248-.239-.286-.487-.565-.753-.832l-122.93-122.931c-.27-.27-.553-.521-.842-.762-.071-.059-.145-.115-.217-.173-.232-.185-.47-.361-.713-.528-.074-.051-.147-.103-.223-.151-.633-.415-1.297-.769-1.986-1.059-.072-.031-.145-.058-.218-.086-.283-.113-.569-.216-.858-.308-.082-.026-.163-.053-.245-.077-.721-.213-1.46-.36-2.207-.44-.082-.009-.163-.015-.245-.021-.312-.027-.626-.043-.94-.046-.048,0-.096-.007-.144-.007h-122.93c-6.903,0-12.5,5.597-12.5,12.5v340.442c0,6.903,5.597,12.5,12.5,12.5h245.86c6.903,0,12.5-5.597,12.5-12.5v-217.513c0-.063-.008-.125-.009-.188ZM262.5,109.957l80.252,80.252h-80.252v-80.252ZM139.57,407.721V92.279h97.93v110.43c0,6.903,5.596,12.5,12.5,12.5h110.43v192.513h-220.86Z"/>
</svg>