<?xml version="1.0" encoding="UTF-8"?>
<svg id="c" data-name="レイヤー 4" xmlns="http://www.w3.org/2000/svg" viewBox="0 0 500 500">
  <path d="M104.574,97.881c-6.903,0-12.5,5.597-12.5,12.5v279.237c0,6.903,5.597,12.5,12.5,12.5s12.5-5.597,12.5-12.5V110.381c0-6.903-5.596-12.5-12.5-12.5Z"/>
  <path d="M201.525,97.881c-6.904,0-12.5,5.597-12.5,12.5v279.237c0,6.903,5.596,12.5,12.5,12.5s12.5-5.597,12.5-12.5V110.381c0-6.903-5.597-12.5-12.5-12.5Z"/>
  <path d="M298.475,97.881c-6.904,0-12.5,5.597-12.5,12.5v279.237c0,6.903,5.596,12.5,12.5,12.5s12.5-5.597,12.5-12.5V110.381c0-6.903-5.596-12.5-12.5-12.5Z"/>
  <path d="M395.425,97.881c-6.904,0-12.5,5.597-12.5,12.5v279.237c0,6.903,5.596,12.5,12.5,12.5s12.5-5.597,12.5-12.5V110.381c0-6.903-5.596-12.5-12.5-12.5Z"/>
</svg>