<?xml version="1.0" encoding="UTF-8"?>
<svg id="a" data-name="layer1" xmlns="http://www.w3.org/2000/svg" viewBox="0 0 500 500">
  <path d="M115.847,44.723v75H40.847V44.723h75M128.347,19.723H28.347c-6.903,0-12.5,5.597-12.5,12.5v100c0,6.903,5.597,12.5,12.5,12.5h100c6.903,0,12.5-5.597,12.5-12.5V32.223c0-6.903-5.597-12.5-12.5-12.5h0Z"/>
  <path d="M287.5,44.723v75h-75V44.723h75M300,19.723h-100c-6.903,0-12.5,5.597-12.5,12.5v100c0,6.903,5.597,12.5,12.5,12.5h100c6.903,0,12.5-5.597,12.5-12.5V32.223c0-6.903-5.597-12.5-12.5-12.5h0Z"/>
  <path d="M459.153,44.723v75h-75V44.723h75M471.653,19.723h-100c-6.903,0-12.5,5.597-12.5,12.5v100c0,6.903,5.597,12.5,12.5,12.5h100c6.903,0,12.5-5.597,12.5-12.5V32.223c0-6.903-5.597-12.5-12.5-12.5h0Z"/>
  <path d="M115.847,212.5v75H40.847v-75h75M128.347,187.5H28.347c-6.903,0-12.5,5.597-12.5,12.5v100c0,6.903,5.597,12.5,12.5,12.5h100c6.903,0,12.5-5.597,12.5-12.5v-100c0-6.903-5.597-12.5-12.5-12.5h0Z"/>
  <path d="M287.5,212.5v75h-75v-75h75M300,187.5h-100c-6.903,0-12.5,5.597-12.5,12.5v100c0,6.903,5.597,12.5,12.5,12.5h100c6.903,0,12.5-5.597,12.5-12.5v-100c0-6.903-5.597-12.5-12.5-12.5h0Z"/>
  <path d="M459.153,212.5v75h-75v-75h75M471.653,187.5h-100c-6.903,0-12.5,5.597-12.5,12.5v100c0,6.903,5.597,12.5,12.5,12.5h100c6.903,0,12.5-5.597,12.5-12.5v-100c0-6.903-5.597-12.5-12.5-12.5h0Z"/>
  <path d="M115.847,380.277v75H40.847v-75h75M128.347,355.277H28.347c-6.903,0-12.5,5.597-12.5,12.5v100c0,6.903,5.597,12.5,12.5,12.5h100c6.903,0,12.5-5.597,12.5-12.5v-100c0-6.903-5.597-12.5-12.5-12.5h0Z"/>
  <path d="M287.5,380.277v75h-75v-75h75M300,355.277h-100c-6.903,0-12.5,5.597-12.5,12.5v100c0,6.903,5.597,12.5,12.5,12.5h100c6.903,0,12.5-5.597,12.5-12.5v-100c0-6.903-5.597-12.5-12.5-12.5h0Z"/>
  <path d="M459.153,380.277v75h-75v-75h75M471.653,355.277h-100c-6.903,0-12.5,5.597-12.5,12.5v100c0,6.903,5.597,12.5,12.5,12.5h100c6.903,0,12.5-5.597,12.5-12.5v-100c0-6.903-5.597-12.5-12.5-12.5h0Z"/>
</svg>