<?xml version="1.0" encoding="UTF-8"?>
<svg id="a" data-name="layer1" xmlns="http://www.w3.org/2000/svg" viewBox="0 0 500 500">
  <path d="M392.334,19.723H107.665c-6.903,0-12.5,5.597-12.5,12.5v435.555c0,6.903,5.597,12.5,12.5,12.5h284.669c6.903,0,12.5-5.597,12.5-12.5V32.223c0-6.903-5.597-12.5-12.5-12.5ZM379.834,44.723v164.548H120.165V44.723h259.669ZM379.834,455.277H120.165v-221.007h259.669v221.007Z"/>
  <path d="M154.02,411.428h191.961c6.903,0,12.5-5.597,12.5-12.5s-5.597-12.5-12.5-12.5h-191.961c-6.903,0-12.5,5.597-12.5,12.5s5.597,12.5,12.5,12.5Z"/>
  <path d="M154.02,357.275h191.961c6.903,0,12.5-5.597,12.5-12.5s-5.597-12.5-12.5-12.5h-191.961c-6.903,0-12.5,5.597-12.5,12.5s5.597,12.5,12.5,12.5Z"/>
  <path d="M154.02,303.12h191.961c6.903,0,12.5-5.597,12.5-12.5s-5.597-12.5-12.5-12.5h-191.961c-6.903,0-12.5,5.597-12.5,12.5s5.597,12.5,12.5,12.5Z"/>
  <path d="M153.533,131.6c.167.507.35,1.008.548,1.501,1.3,3.249,3.238,6.173,5.665,8.612.014.014.026.028.04.042,1.749,1.749,3.748,3.248,5.939,4.438,1.826.992,3.785,1.77,5.844,2.299s4.217.812,6.441.812h0c4.448,0,8.633-1.127,12.285-3.111.836-.454,1.64-.958,2.417-1.498.391-.272.772-.555,1.147-.848,6.038-4.717,9.924-12.061,9.924-20.316,0-6.672-2.535-12.752-6.695-17.329-.277-.306-.562-.604-.854-.896-4.664-4.664-11.107-7.548-18.224-7.548-5.338,0-10.296,1.623-14.41,4.401-.343.232-.68.471-1.01.719-1.323.989-2.548,2.103-3.657,3.324-.277.305-.547.617-.81.935-.525.636-1.021,1.298-1.484,1.984-.463.686-.894,1.395-1.291,2.125-.475.874-.894,1.783-1.267,2.714-.197.493-.38.994-.548,1.501-.705,2.139-1.143,4.398-1.262,6.743-.022.439-.033.881-.033,1.326s.011.887.033,1.326c.119,2.345.558,4.604,1.262,6.743Z"/>
  <path d="M322.126,149.303h0c1.334,0,2.645-.102,3.925-.297.853-.13,1.693-.303,2.516-.515,1.235-.318,2.435-.725,3.591-1.214.771-.326,1.522-.688,2.253-1.085,8.034-4.364,13.488-12.876,13.488-22.662,0-7.117-2.885-13.56-7.549-18.224-1.458-1.457-3.089-2.741-4.86-3.817-3.897-2.368-8.471-3.731-13.364-3.731s-9.467,1.363-13.364,3.731c-7.085,4.305-11.93,11.93-12.375,20.715-.022.439-.034.881-.034,1.326s.011.887.034,1.326c.69,13.618,11.95,24.446,25.739,24.446Z"/>
  <path d="M237.715,146.193c.73.397,1.482.759,2.253,1.085,1.156.489,2.356.896,3.591,1.214.823.212,1.663.384,2.516.515,1.28.195,2.59.297,3.925.297h0c13.789,0,25.049-10.829,25.739-24.446.022-.439.033-.881.033-1.326s-.011-.887-.033-1.326c-.445-8.786-5.29-16.41-12.375-20.715-3.897-2.368-8.471-3.731-13.364-3.731s-9.467,1.363-13.364,3.731c-1.771,1.076-3.402,2.36-4.86,3.817-4.664,4.664-7.549,11.107-7.549,18.224,0,9.786,5.454,18.297,13.488,22.662Z"/>
</svg>