<?xml version="1.0" encoding="UTF-8"?>
<svg id="a" data-name="layer1" xmlns="http://www.w3.org/2000/svg" viewBox="0 0 1000 1000">
  <path d="M245.01,474.98h509.99c13.8,0,24.98,11.19,24.98,24.98h0c0,13.8-11.19,24.98-24.98,24.98l-514.38.03c-4.84,0-11.26-3.12-14.16-7-15.33-20.54-1.01-43,18.55-43Z"/>
  <path d="M500,87.72c227.7,0,412.28,184.59,412.28,412.28s-184.59,412.28-412.28,412.28S87.72,727.7,87.72,500,272.3,87.72,500,87.72ZM243.83,756.17c33.29,33.29,72.04,59.42,115.17,77.66,44.63,18.88,92.07,28.45,141,28.45s96.37-9.57,141-28.45c43.13-18.24,81.88-44.37,115.17-77.66s59.42-72.04,77.66-115.17c18.88-44.63,28.45-92.07,28.45-141s-9.57-96.37-28.45-141c-18.24-43.13-44.37-81.88-77.66-115.17s-72.04-59.42-115.17-77.66c-44.63-18.88-92.07-28.45-141-28.45s-96.37,9.57-141,28.45c-43.13,18.24-81.88,44.37-115.17,77.66s-59.42,72.04-77.66,115.17c-18.88,44.63-28.45,92.07-28.45,141s9.57,96.37,28.45,141c18.24,43.13,44.37,81.88,77.66,115.17Z"/>
</svg>