<?xml version="1.0" encoding="UTF-8"?>
<svg id="a" data-name="layer1" xmlns="http://www.w3.org/2000/svg" viewBox="0 0 500 500">
  <path d="M249.99,43.76c-113.72,0-206.24,92.53-206.24,206.26s92.52,206.23,206.24,206.23,206.26-92.5,206.26-206.23S363.72,43.76,249.99,43.76ZM249.99,431.24c-99.94,0-181.24-81.3-181.24-181.23S150.06,68.76,249.99,68.76s181.26,81.31,181.26,181.26-81.31,181.23-181.26,181.23Z"/>
  <path d="M262.5,244.82v-119.82c0-6.9-5.6-12.5-12.5-12.5s-12.5,5.6-12.5,12.5v125c0,3.32,1.32,6.49,3.66,8.84l88.39,88.39c2.44,2.44,5.64,3.66,8.84,3.66s6.4-1.22,8.84-3.66c4.88-4.88,4.88-12.8,0-17.68l-84.73-84.73Z"/>
</svg>