<?xml version="1.0" encoding="UTF-8"?>
<svg id="a" data-name="layer1" xmlns="http://www.w3.org/2000/svg" viewBox="0 0 1000 1000">
  <path d="M500.55,903.18c-18.45,0-37.03-1.26-55.22-3.75-24.7-3.38-43.33-24.7-43.33-49.58v-60.95c-12.77-4.33-25.24-9.51-37.33-15.49l-42.92,42.92c-17.63,17.64-45.92,19.51-65.8,4.35-29.07-22.17-55.02-48.18-77.13-77.31-15.08-19.86-13.18-48.11,4.41-65.71l43.03-43.03c-5.92-12.02-11.03-24.43-15.31-37.14h-60.84c-24.92,0-46.24-18.66-49.59-43.4-2.43-17.98-3.67-36.35-3.67-54.6s1.23-36.62,3.67-54.6c3.35-24.74,24.67-43.4,49.59-43.4h61.22c4.29-12.58,9.41-24.87,15.31-36.77l-43.4-43.4c-17.6-17.6-19.49-45.85-4.41-65.71,22.11-29.12,48.06-55.13,77.13-77.3,19.88-15.16,48.17-13.29,65.8,4.35l43.66,43.66c11.85-5.83,24.07-10.88,36.59-15.13v-62.06c0-24.88,18.63-46.2,43.33-49.58,18.19-2.49,36.77-3.75,55.22-3.75s36.21,1.21,53.98,3.58c24.78,3.31,43.46,24.64,43.46,49.6v62.21c12.52,4.24,24.74,9.3,36.59,15.13l44.14-44.14c17.6-17.6,45.85-19.49,65.71-4.41,29.13,22.11,55.13,48.06,77.3,77.13,15.16,19.88,13.29,48.16-4.35,65.8l-44.03,44.03c5.9,11.91,11.01,24.19,15.31,36.77h62.32c24.92,0,46.24,18.66,49.59,43.4,2.43,17.98,3.67,36.35,3.67,54.6s-1.23,36.62-3.67,54.6c-3.35,24.74-24.67,43.4-49.59,43.4h-61.95c-4.28,12.71-9.4,25.12-15.31,37.14l43.66,43.66c17.64,17.64,19.51,45.92,4.35,65.8-22.17,29.07-48.18,55.02-77.3,77.13-19.86,15.08-48.12,13.19-65.71-4.41l-43.4-43.4c-12.08,5.99-24.55,11.16-37.33,15.49v61.1c0,24.96-18.68,46.29-43.46,49.6-17.78,2.38-35.94,3.58-53.98,3.58ZM356.17,711.08l16.62,9.6c19.08,11.03,39.56,19.53,60.86,25.27l18.36,4.98v98.59c.15,0,.19.01.24.02,15.93,2.18,32.22,3.29,48.4,3.29s46.36-3.14,46.36-3.14l1-79.6v-19.16l18.53-4.98c21.3-5.74,41.77-14.24,60.86-25.27l16.62-9.6,70.06,70.06s.05-.03.09-.06c25.52-19.37,48.31-42.11,67.74-67.58.03-.04.05-.07.04-.12l-70.23-70.21,9.53-16.59c10.93-19.04,19.35-39.47,25.03-60.72l4.96-18.37h99.67c.01-.17.02-.18.02-.18,0,0,0-.04,0-.08,2.13-15.75,3.21-31.86,3.21-47.86s-1.08-32.11-3.21-47.86c0-.04-.05-1.02-.05-1.02h-99.85l-5.01-17.51c-5.74-21.12-14.19-41.42-25.13-60.35l-9.6-16.62,70.69-70.69s-.03-.05-.06-.08c-19.43-25.47-42.22-48.21-67.74-67.58-.03-.03-.08-.05-.13-.04l-70.68,70.71-16.59-9.53c-18.89-10.84-39.15-19.22-60.22-24.89l-18.53-4.98v-99.85c-15.61-2.1-31.54-3.16-47.36-3.16s-32.47,1.11-48.4,3.29c-.04,0-.08.01-.24.06v99.66l-18.36,4.98c-21.07,5.67-41.33,14.05-60.22,24.89l-16.59,9.53-70.25-70.24s-.05.03-.09.06c-25.47,19.43-48.21,42.22-67.58,67.73-.03.04-.06.08-.04.13l70.05,70.02-9.6,16.62c-10.94,18.93-19.4,39.23-25.13,60.35l-5.01,18.51h-98.78s-.01-.03-.02.02c-2.13,15.76-3.21,31.86-3.21,47.86s1.08,32.11,3.21,47.86c0,.04,0,.07.05.26h98.53l4.96,18.37c5.68,21.25,14.1,41.68,25.03,60.72l9.53,16.59-69.62,69.62s.03.05.06.09c19.37,25.52,42.11,48.31,67.58,67.74.03.02.07.05.12.04l69.55-69.57ZM500.09,648.17c-81.75,0-148.26-66.51-148.26-148.25s66.51-148.25,148.26-148.25,148.25,66.51,148.25,148.25-66.51,148.25-148.25,148.25ZM500.09,401.66c-54.18,0-98.26,44.08-98.26,98.25s44.08,98.25,98.26,98.25,98.25-44.08,98.25-98.25-44.08-98.25-98.25-98.25Z"/>
</svg>