<?xml version="1.0" encoding="UTF-8"?>
<svg id="a" data-name="layer1" xmlns="http://www.w3.org/2000/svg" viewBox="0 0 500 500">
  <path d="M190.242,44.723v145.519H44.723V44.723h145.519M202.742,19.723H32.223c-6.903,0-12.5,5.597-12.5,12.5v170.519c0,6.903,5.597,12.5,12.5,12.5h170.519c6.903,0,12.5-5.597,12.5-12.5V32.223c0-6.903-5.597-12.5-12.5-12.5h0Z"/>
  <path d="M455.277,44.723v145.519h-145.519V44.723h145.519M467.777,19.723h-170.519c-6.903,0-12.5,5.597-12.5,12.5v170.519c0,6.903,5.597,12.5,12.5,12.5h170.519c6.903,0,12.5-5.597,12.5-12.5V32.223c0-6.903-5.597-12.5-12.5-12.5h0Z"/>
  <path d="M190.242,309.758v145.519H44.723v-145.519h145.519M202.742,284.758H32.223c-6.903,0-12.5,5.597-12.5,12.5v170.519c0,6.903,5.597,12.5,12.5,12.5h170.519c6.903,0,12.5-5.597,12.5-12.5v-170.519c0-6.903-5.597-12.5-12.5-12.5h0Z"/>
  <path d="M455.277,309.758v145.519h-145.519v-145.519h145.519M467.777,284.758h-170.519c-6.903,0-12.5,5.597-12.5,12.5v170.519c0,6.903,5.597,12.5,12.5,12.5h170.519c6.903,0,12.5-5.597,12.5-12.5v-170.519c0-6.903-5.597-12.5-12.5-12.5h0Z"/>
</svg>