<?xml version="1.0" encoding="UTF-8"?>
<svg id="a" data-name="layer1" xmlns="http://www.w3.org/2000/svg" viewBox="0 0 500 500">
  <path d="M216.92,19.72H32.22c-6.9,0-12.5,5.6-12.5,12.5v184.69c0,6.9,5.6,12.5,12.5,12.5h184.69c6.9,0,12.5-5.6,12.5-12.5V32.22c0-6.9-5.6-12.5-12.5-12.5ZM204.42,204.42H44.72V44.72h159.69v159.69Z"/>
  <path d="M467.78,19.72h-184.69c-6.9,0-12.5,5.6-12.5,12.5v184.69c0,6.9,5.6,12.5,12.5,12.5h184.69c6.9,0,12.5-5.6,12.5-12.5V32.22c0-6.9-5.6-12.5-12.5-12.5ZM455.28,204.42h-159.69V44.72h159.69v159.69Z"/>
  <path d="M216.92,270.59H32.22c-6.9,0-12.5,5.6-12.5,12.5v184.69c0,6.9,5.6,12.5,12.5,12.5h184.69c6.9,0,12.5-5.6,12.5-12.5v-184.69c0-6.9-5.6-12.5-12.5-12.5ZM204.42,455.28H44.72v-159.69h159.69v159.69Z"/>
  <path d="M467.78,270.59h-184.69c-6.9,0-12.5,5.6-12.5,12.5v184.69c0,6.9,5.6,12.5,12.5,12.5h184.69c6.9,0,12.5-5.6,12.5-12.5v-184.69c0-6.9-5.6-12.5-12.5-12.5ZM455.28,455.28h-159.69v-159.69h159.69v159.69Z"/>
</svg>