<?xml version="1.0" encoding="UTF-8"?>
<svg id="a" data-name="layer1" xmlns="http://www.w3.org/2000/svg" viewBox="0 0 500 500">
  <path d="M443.015,323.5c-3.978,0-12.66-8.255-19.209-30.496-12.757-43.365-33.712-49.824-45.063-49.824s-32.257,6.459-45.063,49.824c-6.548,22.241-15.231,30.496-17.85,30.739-.146-.049-11.448-7.43-20.179-58.662-9.216-54.437-24.059-80.903-45.402-80.903s-36.186,26.466-45.451,80.903c-6.306,37.246-14.018,51.281-17.317,56.137-4.172-7.721-13.097-31.419-20.227-99.842-11.545-111.351-29.492-126.356-45.548-126.356s-34.003,15.005-45.499,126.356c-8.004,77.455-18.433,97.608-21.634,102.124h-10.574v27h13.485c16.056,0,34.003-15.005,45.499-126.356,6.354-61.041,14.164-86.487,18.724-96.734,4.608,10.246,12.418,35.692,18.724,96.734,11.545,111.351,29.492,126.356,45.548,126.356,21.343,0,36.186-26.466,45.451-80.903,7.81-46.085,17.753-56.671,17.85-58.371,1.989,1.7,11.981,12.335,19.791,58.371,9.265,54.437,24.108,80.903,45.402,80.903,11.351,0,32.305-6.459,45.063-49.824,6.548-22.241,15.28-30.496,19.209-30.496,3.978,0,12.66,8.255,19.209,30.448,12.757,43.414,33.712,49.872,45.063,49.872h13.485v-27h-13.485Z"/>
  <rect x="44" y="377.5" width="412.5" height="27"/>
</svg>