<?xml version="1.0" encoding="UTF-8"?>
<svg id="a" data-name="layer1" xmlns="http://www.w3.org/2000/svg" viewBox="0 0 500 500">
  <path d="M450.82,394.14l-38.19-65.22c-3.49-5.96-11.15-7.96-17.1-4.47-5.96,3.49-7.96,11.15-4.47,17.1l23.72,40.52-185.72-48.56v-172.82l214.13-55.99c6.68-1.75,10.68-8.58,8.93-15.26-1.75-6.68-8.58-10.68-15.26-8.93l-207.81,54.33v-49.5c0-6.9-5.6-12.5-12.5-12.5h-63.94c-6.9,0-12.5,5.6-12.5,12.5v149.25h-65.98c-6.9,0-12.5,5.6-12.5,12.5s5.6,12.5,12.5,12.5h65.98v149.25c0,6.9,5.6,12.5,12.5,12.5h63.94c6.9,0,12.5-5.6,12.5-12.5v-49.5l177.27,46.35-37.84,22.15c-5.96,3.49-7.96,11.15-4.47,17.1,2.33,3.97,6.51,6.19,10.8,6.19,2.15,0,4.32-.55,6.3-1.71l60.56-35.45c4.88-.65,9.12-4.16,10.45-9.22.34-1.28.46-2.57.39-3.83.09-2.3-.44-4.65-1.69-6.78ZM165.12,97.85h38.94v298.5h-38.94V97.85Z"/>
</svg>