<?xml version="1.0" encoding="UTF-8"?>
<svg id="a" data-name="layer1" xmlns="http://www.w3.org/2000/svg" viewBox="0 0 500 500">
  <path d="M315.089,182.544H113.249l1.838-1.852,67.05-67.05c5.098-5.098,4.872-13.503-.678-18.308-4.834-4.186-12.659-3.711-17.181.811l-88.207,88.207c-.259.259-.506.53-.741.811-.12.144-.301.391-.413.541-.136.181-.276.359-.402.547-.119.177-.221.361-.33.543-.101.168-.207.333-.299.506-.099.185-.183.375-.271.564-.085.181-.176.359-.253.544-.076.184-.137.371-.204.557-.071.198-.147.394-.208.597-.057.187-.098.377-.146.565-.052.207-.11.41-.152.621-.043.221-.069.443-.101.665-.027.183-.074.483-.09.668-.065.738-.065,1.481,0,2.219.017.185.063.484.09.668.032.222.058.445.101.665.042.21.1.414.152.621.047.189.089.378.146.565.061.203.137.399.208.597.067.186.128.374.204.558.077.186.167.363.252.544.089.189.173.379.272.565.093.173.199.338.299.506.108.182.211.366.33.543.126.189.267.366.403.548.112.15.293.398.414.541.235.281.482.552.741.811l88.198,88.198c4.682,4.682,12.263,5.134,17.245.772,2.855-2.501,4.284-5.961,4.284-9.421,0-3.199-1.221-6.398-3.661-8.839l-65.198-65.198h198.15c48.248,0,87.5,39.252,87.5,87.5s-39.252,87.5-87.5,87.5h-135.827c-6.903,0-12.5,5.596-12.5,12.5s5.597,12.5,12.5,12.5h135.827c62.033,0,112.5-50.467,112.5-112.5s-50.467-112.5-112.5-112.5Z"/>
</svg>