<?xml version="1.0" encoding="UTF-8"?>
<svg id="c" data-name="レイヤー 4" xmlns="http://www.w3.org/2000/svg" viewBox="0 0 500 500">
  <path d="M398.55,422.49l-40.26-261.73c-.4-47.8-29.93-122.52-108.28-122.52s-107.88,74.72-108.28,122.52l-40.26,261.73c-.97,6.3,2.96,12.32,9.12,13.97l15.51,4.16c8.1,4.1,46.11,21.13,118.84,21.13h10.17c72.73,0,110.73-17.03,118.84-21.13l15.51-4.16c6.16-1.65,10.09-7.67,9.12-13.97ZM186.18,97.2c15.28-22.53,36.75-33.95,63.82-33.95s48.55,11.42,63.82,33.95c11.21,16.53,16.76,36.03,18.67,52.04h-29.32c-1.49-13.99-7.06-27.54-16.08-38.82-10.68-13.35-24.2-21-37.09-21s-26.4,7.65-37.09,21c-9.02,11.27-14.59,24.83-16.08,38.82h-29.32c1.9-16.01,7.46-35.51,18.67-52.04ZM250,149.24h-27.97c3.29-20.52,19.23-34.82,27.97-34.82s24.68,14.3,27.97,34.82h-27.97ZM366.1,416.84c-1.03.28-1.96.65-2.89,1.18-11.69,6.48-49.33,18.74-108.13,18.74h-10.17c-58.8,0-96.44-12.26-108.06-18.71-.93-.53-1.92-.94-2.95-1.21l-6.03-1.62,37.07-240.97h170.12l37.07,240.97-6.03,1.62Z"/>
</svg>