<?xml version="1.0" encoding="UTF-8"?>
<svg id="a" data-name="layer1" xmlns="http://www.w3.org/2000/svg" viewBox="0 0 1000 1000">
  <path d="M879.97,723.52c0-.18.03-.34.03-.52v-430.62c0-14.63-12.02-25.04-25.06-25.04-4.33,0-8.76,1.14-12.92,3.66l-342.52,207.47-342.52-207.47c-4.15-2.52-8.59-3.66-12.92-3.66-13.04,0-25.06,10.41-25.06,25.04v430.62c0,.18.02.34.03.52.01.33.03.65.05.98.23,3.87,1.32,7.5,3.11,10.7,3.65,6.7,10.31,11.81,19.21,12.67.03,0,.05,0,.07,0,.77.07,1.55.11,2.34.12.07,0,.13,0,.19,0h710.97c.07,0,.13,0,.19,0,.8,0,1.58-.05,2.34-.12.03,0,.05,0,.07,0,8.9-.86,15.56-5.96,19.21-12.67,1.79-3.2,2.88-6.83,3.11-10.7.02-.32.04-.65.05-.97ZM830,336.83v341.87l-282.04-170.94,282.04-170.94ZM452.04,507.77l-282.04,170.94v-341.87l282.04,170.94ZM234.25,698l265.75-161.06,265.75,161.06H234.25Z"/>
</svg>