<?xml version="1.0" encoding="UTF-8"?>
<svg id="c" data-name="レイヤー 4" xmlns="http://www.w3.org/2000/svg" viewBox="0 0 500 500">
  <path d="M447.92,52.08c-4.88-4.88-12.8-4.88-17.68,0L52.08,430.24c-4.88,4.88-4.88,12.8,0,17.68,2.44,2.44,5.64,3.66,8.84,3.66s6.4-1.22,8.84-3.66L447.92,69.76c4.88-4.88,4.88-12.8,0-17.68Z"/>
  <path d="M120.54,344.11l18.01-18.01c.66-.66,1.02-1.54,1.02-2.47V92.28h97.93v110.43c0,6.04,4.28,11.06,9.98,12.23,1.16.24,2.35-.12,3.19-.96l17.8-17.8c2.2-2.2.64-5.97-2.47-5.97-1.93,0-3.5-1.56-3.5-3.5v-68.32c0-3.11,3.77-4.67,5.97-2.47l37.65,37.65c1.37,1.37,3.58,1.37,4.94,0l12.73-12.73c1.37-1.37,1.37-3.58,0-4.94l-64.96-64.96c-.27-.27-.55-.52-.84-.76-.07-.06-.14-.12-.22-.17-.23-.19-.47-.36-.71-.53-.07-.05-.15-.1-.22-.15-.63-.42-1.3-.77-1.99-1.06-.07-.03-.15-.06-.22-.09-.28-.11-.57-.22-.86-.31-.08-.03-.16-.05-.25-.08-.72-.21-1.46-.36-2.21-.44-.08,0-.16-.01-.25-.02-.31-.03-.63-.04-.94-.05-.05,0-.1,0-.14,0h-122.93c-6.9,0-12.5,5.6-12.5,12.5v261.86c0,3.11,3.77,4.67,5.97,2.47Z"/>
  <path d="M385.38,201.66c0-.1-.02-.21-.03-.31-.04-.37-.09-.73-.16-1.09,0-.01,0-.02,0-.03-.07-.35-.16-.7-.26-1.04-.03-.1-.06-.2-.09-.3-.09-.27-.18-.53-.28-.79-.04-.09-.07-.18-.11-.27-.14-.34-.3-.68-.48-1.01,0,0-.01-.02-.02-.03-.17-.31-.35-.62-.55-.92-.06-.09-.12-.17-.18-.26-.16-.23-.32-.45-.5-.67-.07-.08-.13-.17-.2-.25-.24-.29-.49-.56-.75-.83l-17.67-17.67c-1.36-1.37-3.58-1.37-4.94,0l-33.04,33.04c-2.2,2.2-.64,5.97,2.47,5.97h28.35c1.93,0,3.5,1.56,3.5,3.5v189.02h-217.36c-1.93,0-3.5-1.56-3.5-3.5h0c0-3.12-3.77-4.67-5.97-2.47l-17.81,17.81c-.83.83-1.19,2.03-.96,3.19,1.17,5.69,6.19,9.98,12.23,9.98h245.86c6.9,0,12.5-5.6,12.5-12.5v-217.51c0-.06,0-.12,0-.19,0-.29-.02-.57-.04-.86Z"/>
</svg>