<?xml version="1.0" encoding="UTF-8"?>
<svg id="a" xmlns="http://www.w3.org/2000/svg" version="1.1" viewBox="0 0 1000 1000">
  <!-- Generator: Adobe Illustrator 30.0.0, SVG Export Plug-In . SVG Version: 2.1.1 Build 123)  -->
  <path d="M568.6,800c-5.7,0-11.3-1.9-15.9-5.7l-195.5-161h-211c-13.8,0-25-11.2-25-25v-216.6c0-13.8,11.2-25,25-25h211l195.5-161c7.5-6.1,17.8-7.4,26.6-3.3,8.7,4.1,14.3,12.9,14.3,22.6v550c0,9.7-5.6,18.5-14.3,22.6-3.4,1.6-7,2.4-10.7,2.4ZM171.1,583.3h195c5.8,0,11.4,2,15.9,5.7l161.5,133v-444.1l-161.5,133c-4.5,3.7-10.1,5.7-15.9,5.7h-195v166.6Z"/>
  <path d="M642.9,666.4c-6.4,0-12.8-2.4-17.7-7.3-9.8-9.8-9.8-25.6,0-35.4,16.1-16.1,28.7-34.8,37.5-55.6,9.1-21.6,13.7-44.5,13.7-68.1s-4.6-46.6-13.7-68.1c-8.8-20.8-21.4-39.6-37.5-55.6-9.8-9.8-9.8-25.6,0-35.4,9.8-9.8,25.6-9.8,35.4,0,20.7,20.7,36.9,44.7,48.2,71.5,11.7,27.8,17.7,57.2,17.7,87.6s-6,59.8-17.7,87.6c-11.3,26.8-27.6,50.9-48.2,71.5-4.9,4.9-11.3,7.3-17.7,7.3Z"/>
  <path d="M714.4,736.4c-6.4,0-12.8-2.4-17.7-7.3-9.8-9.8-9.8-25.6,0-35.4,25.3-25.3,45.1-54.7,58.9-87.4,14.3-33.9,21.6-69.9,21.6-107s-7.3-73.1-21.6-107c-13.8-32.7-33.7-62.2-58.9-87.4-9.8-9.8-9.8-25.6,0-35.4,9.8-9.8,25.6-9.8,35.4,0,29.8,29.8,53.3,64.6,69.6,103.3,17,40.1,25.5,82.6,25.5,126.5s-8.6,86.4-25.5,126.5c-16.4,38.7-39.8,73.5-69.6,103.3-4.9,4.9-11.3,7.3-17.7,7.3Z"/>
</svg>