<?xml version="1.0" encoding="UTF-8"?>
<svg id="a" data-name="layer1" xmlns="http://www.w3.org/2000/svg" viewBox="0 0 500 500">
  <path d="M250,432.5c-100.63,0-182.5-81.87-182.5-182.5S149.37,67.5,250,67.5s182.5,81.87,182.5,182.5-81.87,182.5-182.5,182.5ZM250,92.5c-86.85,0-157.5,70.65-157.5,157.5s70.65,157.5,157.5,157.5,157.5-70.65,157.5-157.5-70.65-157.5-157.5-157.5Z"/>
  <path d="M250,352.5c-13.83,0-27.26-2.71-39.9-8.06-12.21-5.16-23.17-12.55-32.58-21.96-9.41-9.41-16.8-20.37-21.96-32.58-2.69-6.36.29-13.69,6.64-16.38,6.36-2.69,13.69.28,16.38,6.64,3.9,9.23,9.49,17.52,16.61,24.64,7.12,7.12,15.41,12.71,24.64,16.62,9.54,4.04,19.69,6.08,30.16,6.08s20.62-2.05,30.16-6.08c9.23-3.9,17.52-9.49,24.64-16.61,7.12-7.12,12.71-15.41,16.61-24.64,2.69-6.36,10.03-9.33,16.38-6.64,6.36,2.69,9.33,10.02,6.64,16.38-5.16,12.21-12.55,23.17-21.96,32.58-9.41,9.41-20.37,16.8-32.58,21.96-12.64,5.35-26.07,8.06-39.9,8.06Z"/>
  <path d="M333.42,199.6c-4.7,0-9.21-2.67-11.33-7.21-.66-1.41-1.63-2.7-2.88-3.83-1.34-1.21-2.93-2.18-4.71-2.86-3.82-1.46-8.35-1.46-12.18,0-1.78.68-3.36,1.64-4.7,2.85-1.25,1.13-2.22,2.42-2.88,3.83-2.92,6.25-10.36,8.96-16.62,6.03-6.25-2.92-8.96-10.36-6.03-16.62,2.08-4.44,5.02-8.41,8.75-11.78,3.64-3.29,7.86-5.88,12.54-7.67,4.78-1.83,9.84-2.76,15.03-2.76s10.25.93,15.03,2.75c4.69,1.79,8.91,4.38,12.55,7.67,3.73,3.38,6.67,7.34,8.75,11.78,2.92,6.25.22,13.69-6.03,16.62-1.71.8-3.51,1.18-5.28,1.18Z"/>
  <path d="M219.87,199.6c-4.7,0-9.21-2.67-11.33-7.21-.66-1.41-1.63-2.7-2.88-3.83-1.34-1.22-2.92-2.18-4.71-2.86-3.82-1.46-8.35-1.46-12.18,0-1.78.68-3.36,1.64-4.7,2.86-1.25,1.13-2.22,2.42-2.88,3.83-2.92,6.25-10.36,8.96-16.62,6.03-6.25-2.92-8.96-10.36-6.03-16.62,2.08-4.44,5.02-8.41,8.75-11.78,3.64-3.29,7.86-5.88,12.54-7.67,4.78-1.83,9.84-2.76,15.03-2.76s10.25.93,15.03,2.75c4.69,1.79,8.91,4.38,12.55,7.67,3.73,3.38,6.67,7.34,8.75,11.78,2.92,6.25.22,13.69-6.03,16.62-1.71.8-3.51,1.18-5.28,1.18Z"/>
</svg>