<?xml version="1.0" encoding="UTF-8"?>
<svg id="a" data-name="layer1" xmlns="http://www.w3.org/2000/svg" viewBox="0 0 1000 1000">
  <path d="M700,855h-400c-13.81,0-25-11.19-25-25v-305h-105c-10.11,0-19.23-6.09-23.1-15.43-3.87-9.34-1.73-20.09,5.42-27.25L482.32,152.32c9.76-9.76,25.59-9.76,35.36,0l330,330c7.15,7.15,9.29,17.9,5.42,27.25-3.87,9.34-12.99,15.43-23.1,15.43h-105v305c0,13.81-11.19,25-25,25ZM325,805h350v-305c0-13.81,11.19-25,25-25h69.64L500,205.36,230.36,475h69.64c13.81,0,25,11.19,25,25v305Z"/>
</svg>