<?xml version="1.0" encoding="UTF-8"?>
<svg id="a" data-name="layer1" xmlns="http://www.w3.org/2000/svg" viewBox="0 0 500 500">
  <path d="M150.5,116.5v69h-69v-69h69M169.263,91.5H62.75c-3.452,0-6.25,2.798-6.25,6.25v106.5c0,3.452,2.798,6.25,6.25,6.25h106.5c3.452,0,6.25-2.798,6.25-6.25v-106.513c0-3.445-2.792-6.237-6.237-6.237h0Z"/>
  <path d="M248.201,216c24.702,0,44.799,20.097,44.799,44.799v5.302c0,24.797-20.102,44.899-44.899,44.899h-5.203c-24.797,0-44.899-20.102-44.899-44.899v-5.203c0-24.797,20.102-44.899,44.899-44.899h5.101M248.203,191h-5.304c-38.604,0-69.899,31.295-69.899,69.899v5.203c0,38.604,31.295,69.899,69.899,69.899h5.203c38.604,0,69.899-31.295,69.899-69.899v-5.304c0-38.548-31.249-69.797-69.797-69.797h0Z"/>
  <path d="M390,286h-.229.229M373.628,319.695l33.157,64.305h-64.305l31.147-64.305M373.113,271.815c-2.333,0-4.665,1.226-5.845,3.662l-60.16,124.201c-2.088,4.311,1.052,9.322,5.843,9.322h124.201c4.861,0,7.998-5.146,5.77-9.467l-64.041-124.201c-1.211-2.349-3.491-3.517-5.768-3.517h0Z"/>
</svg>