<?xml version="1.0" encoding="UTF-8"?>
<svg id="a" data-name="layer1" xmlns="http://www.w3.org/2000/svg" viewBox="0 0 500 500">
  <path d="M424.29,210.33c-9.09-9.09-19.19-16.81-30.05-23.06,0-.08,0-.17,0-.25,0-38.39-14.95-74.49-42.1-101.64-27.15-27.15-63.24-42.1-101.64-42.1s-74.49,14.95-101.64,42.1c-26.93,26.93-41.85,62.66-42.09,100.71-11.12,6.35-21.47,14.23-30.77,23.53-27.34,27.34-42.4,63.69-42.4,102.35s15.06,75.01,42.4,102.35c27.34,27.34,63.69,42.4,102.35,42.4,26.13,0,51.2-6.89,73.15-19.79,21.43,12.24,45.78,18.77,71.13,18.77,38.39,0,74.49-14.95,101.64-42.1,27.15-27.15,42.1-63.24,42.1-101.64s-14.95-74.49-42.1-101.63ZM250.51,68.75c31.59,0,61.29,12.3,83.63,34.64,19.62,19.62,31.49,44.92,34.09,72.19-14.5-4.83-29.85-7.35-45.58-7.35-25.35,0-49.7,6.52-71.13,18.77-21.95-12.9-47.02-19.79-73.15-19.79-15.68,0-30.99,2.48-45.46,7.25,2.81-26.84,14.63-51.72,33.98-71.08,22.34-22.34,52.04-34.64,83.63-34.64ZM251.35,406.34c-4.31-3.27-8.43-6.85-12.32-10.74-19.62-19.62-31.49-44.92-34.09-72.19,14.5,4.83,29.85,7.35,45.58,7.35s31.82-2.64,46.63-7.71c-2.53,27.68-14.53,53.37-34.43,73.27-3.61,3.61-7.4,6.95-11.36,10.02ZM250.51,305.28c-15.73,0-30.99-3.05-45.11-8.87,3.36-25.69,15-49.44,33.62-68.06,3.89-3.89,8.01-7.47,12.32-10.74,3.96,3.08,7.76,6.42,11.36,10.02,18.72,18.72,30.44,42.57,33.88,68.37-14.39,6.09-29.99,9.28-46.08,9.28ZM334.13,270.64c-4.39,4.39-9.07,8.38-13.98,11.98-5.63-27.47-19.14-52.72-39.43-73.01-1.99-1.99-4.04-3.91-6.13-5.77,14.93-6.64,31.22-10.14,48.05-10.14,15.73,0,30.99,3.05,45.11,8.87-3.36,25.69-15,49.44-33.62,68.07ZM228.27,203.56c-2.48,2.17-4.9,4.42-7.25,6.77-20.25,20.25-33.71,45.49-39.25,72.94-5.25-3.76-10.23-7.98-14.88-12.63-18.88-18.88-30.59-43.01-33.76-69.11,14.17-5.8,29.47-8.85,45.25-8.85,17.52,0,34.45,3.76,49.9,10.88ZM148.87,288.65c9.09,9.09,19.19,16.81,30.05,23.06,0,.08,0,.17,0,.25,0,38.39,14.95,74.49,42.1,101.64,2.35,2.35,4.77,4.6,7.25,6.77-15.45,7.12-32.38,10.88-49.9,10.88-31.86,0-61.82-12.41-84.35-34.94-22.53-22.53-34.94-52.48-34.94-84.35s12.41-61.82,34.94-84.35c4.81-4.81,9.96-9.15,15.39-13.02,5.39,27.88,18.94,53.52,39.46,74.04ZM280.72,414.32c27.34-27.34,42.4-63.69,42.4-102.35,0-.28,0-.56-.01-.84,10.47-6.15,20.22-13.66,29.04-22.47,20.25-20.25,33.71-45.49,39.25-72.94,5.25,3.76,10.23,7.98,14.89,12.63,22.34,22.34,34.64,52.04,34.64,83.63s-12.3,61.29-34.64,83.63c-22.34,22.34-52.04,34.64-83.63,34.64-16.83,0-33.12-3.49-48.05-10.14,2.09-1.86,4.13-3.78,6.13-5.77Z"/>
</svg>