<?xml version="1.0" encoding="UTF-8"?>
<svg id="a" data-name="layer1" xmlns="http://www.w3.org/2000/svg" viewBox="0 0 500 500">
  <path d="M454.92,303.56c0-36.46-25.71-66.94-59.92-74.53.02-.66.2-1.28.2-1.94,0-42.14-34.29-76.44-76.44-76.44-19.63,0-37.37,7.65-50.92,19.85-13.06-32.79-45.07-56.06-82.46-56.06-48.95,0-88.78,39.83-88.78,88.78,0,9.4,1.49,18.45,4.21,26.96-32.31,8.92-56.24,38.28-56.24,73.39,0,42.14,34.29,76.44,76.44,76.44h265.59c1.93,0,3.69-.55,5.31-1.36,35.74-6.39,63.01-37.54,63.01-75.08Z"/>
</svg>