<?xml version="1.0" encoding="UTF-8"?>
<svg id="a" data-name="layer1" xmlns="http://www.w3.org/2000/svg" viewBox="0 0 500 500">
  <path d="M150,231.5v-16.98s-.23-.5-.24-.74c-.07-1.21-.13-2.42-.16-3.59-.04-1.21-.06-2.41-.06-3.58,0-29.25,10.52-56.7,29.61-77.3,18.85-20.34,43.85-31.54,70.37-31.54s51.52,11.2,70.37,31.54c4.73,5.1,12.71,5.37,17.77.57s4.88-12.95.18-17.98c-23.6-25.24-54.94-39.13-88.33-39.13s-65.07,14.04-88.71,39.54c-23.4,25.23-36.28,58.72-36.28,94.29,0,1.43.02,2.9.07,4.37.04,1.28-.11,3.91-.11,3.91v22.19s.31.58.5.87v145.06c0,11.05,8.95,20,20,20h209.5c11.05,0,20-8.95,20-20v-131.5c0-11.05-8.95-20-20-20h-204.5Z"/>
</svg>