<?xml version="1.0" encoding="UTF-8"?>
<svg id="a" data-name="layer1" xmlns="http://www.w3.org/2000/svg" viewBox="0 0 500 500">
  <path d="M262.29,432.5c-100.63,0-182.5-81.87-182.5-182.5s81.87-182.5,182.5-182.5,182.5,81.87,182.5,182.5-81.87,182.5-182.5,182.5ZM262.29,92.5c-86.85,0-157.5,70.65-157.5,157.5s70.65,157.5,157.5,157.5,157.5-70.65,157.5-157.5-70.65-157.5-157.5-157.5Z"/>
  <path d="M345.22,352.5c-4.87,0-9.5-2.86-11.52-7.63-3.9-9.23-9.49-17.52-16.61-24.64-7.12-7.12-15.41-12.71-24.64-16.61-9.55-4.04-19.7-6.09-30.16-6.09s-20.62,2.05-30.16,6.09c-9.23,3.9-17.52,9.49-24.64,16.61-7.12,7.12-12.71,15.41-16.61,24.64-2.69,6.36-10.03,9.33-16.38,6.64-6.36-2.69-9.33-10.02-6.64-16.38,5.16-12.21,12.55-23.17,21.96-32.58,9.41-9.41,20.37-16.8,32.58-21.96,12.64-5.35,26.07-8.06,39.9-8.06s27.26,2.71,39.9,8.06c12.21,5.16,23.17,12.55,32.58,21.96,9.41,9.41,16.8,20.37,21.96,32.58,2.69,6.36-.28,13.69-6.64,16.38-1.59.67-3.24.99-4.86.99Z"/>
  <path d="M320.7,199.6c-5.2,0-10.25-.93-15.03-2.76-4.68-1.79-8.9-4.37-12.54-7.67-3.73-3.38-6.68-7.34-8.75-11.78-2.92-6.25-.22-13.69,6.03-16.62,6.25-2.92,13.69-.22,16.62,6.03.66,1.41,1.63,2.7,2.88,3.83,1.34,1.21,2.92,2.17,4.7,2.85,3.83,1.47,8.36,1.47,12.18,0,1.78-.68,3.37-1.64,4.71-2.86,1.25-1.13,2.22-2.42,2.88-3.83,2.92-6.25,10.36-8.96,16.62-6.03,6.25,2.92,8.96,10.36,6.03,16.62-2.07,4.44-5.02,8.4-8.75,11.78-3.65,3.3-7.87,5.88-12.55,7.67-4.77,1.83-9.83,2.76-15.03,2.76Z"/>
  <path d="M207.15,199.6c-5.2,0-10.25-.93-15.03-2.76-4.68-1.79-8.9-4.37-12.54-7.67-3.73-3.38-6.68-7.34-8.75-11.78-2.92-6.25-.22-13.69,6.03-16.62,6.25-2.92,13.69-.22,16.62,6.03.66,1.41,1.63,2.7,2.88,3.83,1.34,1.21,2.92,2.17,4.7,2.85,3.83,1.47,8.36,1.47,12.18,0,1.78-.68,3.37-1.64,4.71-2.86,1.25-1.13,2.22-2.42,2.88-3.83,2.92-6.25,10.36-8.96,16.62-6.03,6.25,2.92,8.96,10.36,6.03,16.62-2.07,4.44-5.02,8.4-8.75,11.78-3.65,3.3-7.87,5.88-12.55,7.67-4.77,1.83-9.83,2.76-15.03,2.76Z"/>
</svg>