<?xml version="1.0" encoding="UTF-8"?>
<svg id="a" data-name="layer1" xmlns="http://www.w3.org/2000/svg" viewBox="0 0 500 500">
  <path d="M392.33,19.72H107.67c-6.9,0-12.5,5.6-12.5,12.5v435.55c0,6.9,5.6,12.5,12.5,12.5h284.67c6.9,0,12.5-5.6,12.5-12.5V32.22c0-6.9-5.6-12.5-12.5-12.5ZM379.83,44.72v164.55H120.17V44.72h259.67ZM379.83,455.28H120.17v-221.01h259.67v221.01Z"/>
  <path d="M154.02,411.43h191.96c6.9,0,12.5-5.6,12.5-12.5s-5.6-12.5-12.5-12.5h-191.96c-6.9,0-12.5,5.6-12.5,12.5s5.6,12.5,12.5,12.5Z"/>
  <path d="M154.02,357.27h191.96c6.9,0,12.5-5.6,12.5-12.5s-5.6-12.5-12.5-12.5h-191.96c-6.9,0-12.5,5.6-12.5,12.5s5.6,12.5,12.5,12.5Z"/>
  <path d="M154.02,303.12h191.96c6.9,0,12.5-5.6,12.5-12.5s-5.6-12.5-12.5-12.5h-191.96c-6.9,0-12.5,5.6-12.5,12.5s5.6,12.5,12.5,12.5Z"/>
  <path d="M153.53,131.6c.17.51.35,1.01.55,1.5,1.3,3.25,3.24,6.17,5.67,8.61.01.01.03.03.04.04,1.75,1.75,3.75,3.25,5.94,4.44,1.83.99,3.79,1.77,5.84,2.3s4.22.81,6.44.81h0c4.45,0,8.63-1.13,12.28-3.11.84-.45,1.64-.96,2.42-1.5.39-.27.77-.56,1.15-.85,6.04-4.72,9.92-12.06,9.92-20.32,0-6.67-2.54-12.75-6.7-17.33-.28-.31-.56-.6-.85-.9-4.66-4.66-11.11-7.55-18.22-7.55-5.34,0-10.3,1.62-14.41,4.4-.34.23-.68.47-1.01.72-1.32.99-2.55,2.1-3.66,3.32-.28.3-.55.62-.81.94-.53.64-1.02,1.3-1.48,1.98-.46.69-.89,1.39-1.29,2.12-.47.87-.89,1.78-1.27,2.71-.2.49-.38.99-.55,1.5-.7,2.14-1.14,4.4-1.26,6.74-.02.44-.03.88-.03,1.33s.01.89.03,1.33c.12,2.35.56,4.6,1.26,6.74Z"/>
  <path d="M322.13,149.3h0c1.33,0,2.65-.1,3.92-.3.85-.13,1.69-.3,2.52-.51,1.24-.32,2.43-.72,3.59-1.21.77-.33,1.52-.69,2.25-1.09,8.03-4.36,13.49-12.88,13.49-22.66,0-7.12-2.88-13.56-7.55-18.22-1.46-1.46-3.09-2.74-4.86-3.82-3.9-2.37-8.47-3.73-13.36-3.73s-9.47,1.36-13.36,3.73c-7.08,4.31-11.93,11.93-12.38,20.72-.02.44-.03.88-.03,1.33s.01.89.03,1.33c.69,13.62,11.95,24.45,25.74,24.45Z"/>
  <path d="M237.72,146.19c.73.4,1.48.76,2.25,1.09,1.16.49,2.36.9,3.59,1.21.82.21,1.66.38,2.52.51,1.28.2,2.59.3,3.92.3h0c13.79,0,25.05-10.83,25.74-24.45.02-.44.03-.88.03-1.33s-.01-.89-.03-1.33c-.45-8.79-5.29-16.41-12.38-20.72-3.9-2.37-8.47-3.73-13.36-3.73s-9.47,1.36-13.36,3.73c-1.77,1.08-3.4,2.36-4.86,3.82-4.66,4.66-7.55,11.11-7.55,18.22,0,9.79,5.45,18.3,13.49,22.66Z"/>
</svg>