<?xml version="1.0" encoding="UTF-8"?>
<svg id="a" data-name="layer1" xmlns="http://www.w3.org/2000/svg" viewBox="0 0 500 500">
  <path d="M430.654,56.845H69.346c-6.903,0-12.5,5.597-12.5,12.5v361.31c0,6.903,5.597,12.5,12.5,12.5h361.309c6.903,0,12.5-5.597,12.5-12.5V69.345c0-6.903-5.597-12.5-12.5-12.5ZM81.846,81.845h336.309v155.655H81.846V81.845ZM217.336,262.5h65.328v37.827c0,15.163-12.337,27.5-27.5,27.5h-10.328c-15.163,0-27.5-12.337-27.5-27.5v-37.827ZM418.154,418.154H81.846v-155.654h110.49v37.827c0,28.948,23.552,52.5,52.5,52.5h10.328c28.948,0,52.5-23.552,52.5-52.5v-37.827h110.49v155.654Z"/>
  <path d="M375.409,189.6c0-6.903-5.597-12.5-12.5-12.5h-225.818c-6.903,0-12.5,5.597-12.5,12.5s5.597,12.5,12.5,12.5h225.818c6.903,0,12.5-5.597,12.5-12.5Z"/>
  <path d="M137.091,141.7h225.818c6.903,0,12.5-5.597,12.5-12.5s-5.597-12.5-12.5-12.5h-225.818c-6.903,0-12.5,5.597-12.5,12.5s5.597,12.5,12.5,12.5Z"/>
</svg>