<?xml version="1.0" encoding="UTF-8"?>
<svg id="a" data-name="layer1" xmlns="http://www.w3.org/2000/svg" viewBox="0 0 500 500">
  <path d="M460.927,423.93L260.927,63.93c-2.205-3.969-6.388-6.43-10.927-6.43s-8.722,2.461-10.927,6.43L39.073,423.93c-2.15,3.872-2.092,8.592.154,12.409,2.246,3.817,6.344,6.161,10.773,6.161h400c4.429,0,8.527-2.344,10.773-6.161,2.246-3.817,2.304-8.538.154-12.409ZM71.244,417.5L250,95.739l178.756,321.761H71.244Z"/>
  <path d="M234.21,200.357v113.774c0,6.903,5.596,12.5,12.5,12.5s12.5-5.597,12.5-12.5v-113.774c0-6.904-5.597-12.5-12.5-12.5s-12.5,5.596-12.5,12.5Z"/>
  <path d="M258.963,366.299c-.16-.8-.4-1.59-.71-2.34-.31-.76-.7-1.48-1.15-2.16-.23-.34-.47-.67-.73-.99-.26-.31-.54-.62-.83-.91-.28-.29-.59-.57-.91-.83-.31-.25-.64-.5-.979-.72-.68-.45-1.41-.84-2.16-1.15-.76-.32-1.54-.56-2.34-.72-.4-.08-.811-.14-1.21-.18-.82-.08-1.65-.08-2.46,0-.41.04-.82.1-1.221.18-.79.16-1.58.4-2.33.72-.76.31-1.48.7-2.16,1.15-.34.22-.67.47-.99.72-.32.26-.62.54-.91.83s-.57.6-.83.91c-.26.32-.5.65-.73.99-.45.68-.83,1.4-1.15,2.16-.31.75-.55,1.54-.71,2.34-.08.4-.14.81-.18,1.21-.04.41-.06.82-.06,1.23s.021.82.06,1.23c.04.4.1.81.18,1.21.16.8.4,1.59.71,2.34.32.75.7,1.48,1.15,2.16.23.34.47.67.73.98.26.32.54.63.83.92s.59.56.91.82c.32.26.65.51.99.73.68.45,1.4.84,2.16,1.15.75.31,1.54.55,2.33.71.4.09.811.15,1.221.19.41.04.819.06,1.229.06.4,0,.82-.02,1.23-.06.399-.04.81-.1,1.21-.19.8-.16,1.58-.4,2.34-.71.75-.31,1.48-.7,2.16-1.15.34-.22.67-.47.979-.73.32-.26.63-.53.91-.82.29-.29.57-.6.83-.92.26-.31.5-.64.73-.98.45-.68.84-1.41,1.15-2.16.31-.75.55-1.54.71-2.34.08-.4.14-.81.18-1.21.05-.41.07-.82.07-1.23s-.02-.82-.07-1.23c-.04-.4-.1-.81-.18-1.21Z"/>
</svg>