<?xml version="1.0" encoding="UTF-8"?>
<svg id="a" data-name="layer1" xmlns="http://www.w3.org/2000/svg" viewBox="0 0 500 500">
  <path d="M443.02,323.5c-3.98,0-12.66-8.26-19.21-30.5-12.76-43.37-33.71-49.82-45.06-49.82s-32.26,6.46-45.06,49.82c-6.55,22.24-15.23,30.5-17.85,30.74-.15-.05-11.45-7.43-20.18-58.66-9.22-54.44-24.06-80.9-45.4-80.9s-36.19,26.47-45.45,80.9c-6.31,37.25-14.02,51.28-17.32,56.14-4.17-7.72-13.1-31.42-20.23-99.84-11.54-111.35-29.49-126.36-45.55-126.36s-34,15.01-45.5,126.36c-8,77.46-18.43,97.61-21.63,102.12h-10.57v27h13.48c16.06,0,34-15.01,45.5-126.36,6.35-61.04,14.16-86.49,18.72-96.73,4.61,10.25,12.42,35.69,18.72,96.73,11.54,111.35,29.49,126.36,45.55,126.36,21.34,0,36.19-26.47,45.45-80.9,7.81-46.08,17.75-56.67,17.85-58.37,1.99,1.7,11.98,12.33,19.79,58.37,9.26,54.44,24.11,80.9,45.4,80.9,11.35,0,32.31-6.46,45.06-49.82,6.55-22.24,15.28-30.5,19.21-30.5s12.66,8.26,19.21,30.45c12.76,43.41,33.71,49.87,45.06,49.87h13.48v-27h-13.48Z"/>
  <rect x="44" y="377.5" width="412.5" height="27"/>
</svg>