<?xml version="1.0" encoding="UTF-8"?>
<svg id="a" data-name="layer1" xmlns="http://www.w3.org/2000/svg" viewBox="0 0 500 500">
  <path d="M406.19,250.01c0-57.58-31.33-107.98-77.83-135.07.06-.49.1-.99.1-1.49v-62.57c0-6.9-5.6-12.5-12.5-12.5h-131.9c-6.9,0-12.5,5.6-12.5,12.5v62.57c0,.5.04,1,.1,1.49-46.5,27.08-77.83,77.49-77.83,135.07s31.28,107.91,77.73,135v62.23c0,6.9,5.6,12.5,12.5,12.5h131.9c6.9,0,12.5-5.6,12.5-12.5v-62.24c46.45-27.09,77.74-77.45,77.74-134.99ZM196.55,63.39h106.9v39.86c-16.68-6.1-34.69-9.43-53.45-9.43s-36.77,3.33-53.45,9.42v-39.86ZM303.45,434.74h-106.9v-37.98c16.68,6.09,34.68,9.42,53.45,9.42s36.77-3.33,53.45-9.42v37.99ZM250,381.18c-72.33,0-131.18-58.84-131.18-131.17s58.85-131.19,131.18-131.19,131.19,58.85,131.19,131.19-58.85,131.17-131.19,131.17Z"/>
  <path d="M289.1,193.23l-47.94,47.94c-4.88,4.88-4.88,12.8,0,17.68,2.44,2.44,5.64,3.66,8.84,3.66s6.4-1.22,8.84-3.66l47.94-47.94c4.88-4.88,4.88-12.8,0-17.68-4.88-4.88-12.8-4.88-17.68,0Z"/>
</svg>