<?xml version="1.0" encoding="UTF-8"?>
<svg id="a" data-name="layer1" xmlns="http://www.w3.org/2000/svg" viewBox="0 0 500 500">
  <path d="M151.033,133.33l98.991,98.991,98.98-98.98c4.878-4.878,12.788-4.878,17.667,0h0c4.878,4.878,4.879,12.787,0,17.666l-98.975,98.985,99.003,99.003c4.879,4.879,4.879,12.788,0,17.667h0c-4.878,4.878-12.787,4.879-17.666,0l-99.007-98.997-100.56,100.571c-1.712,1.712-5.083,2.88-7.48,2.532-12.68-1.842-15.563-14.845-8.647-21.761l99.013-99.013-100.548-100.537c-1.713-1.713-2.881-5.083-2.533-7.48,1.842-12.68,14.845-15.563,21.761-8.647Z"/>
</svg>