<?xml version="1.0" encoding="UTF-8"?>
<svg id="a" data-name="layer1" xmlns="http://www.w3.org/2000/svg" viewBox="0 0 500 500">
  <path d="M400,362.5c-20.68,0-37.5-16.82-37.5-37.5v-62.5h-25v62.5c0,20.68-16.82,37.5-37.5,37.5s-37.5-16.82-37.5-37.5v-62.5h-25v62.5c0,20.68-16.82,37.5-37.5,37.5s-37.5-16.82-37.5-37.5v-62.5h-25v62.5c0,20.68-16.82,37.5-37.5,37.5s-37.5-16.82-37.5-37.5v-135c0-28.95,23.55-52.5,52.5-52.5h270c28.95,0,52.5,23.55,52.5,52.5v135c0,20.68-16.82,37.5-37.5,37.5ZM325,237.5h50c6.9,0,12.5,5.6,12.5,12.5v75c0,6.89,5.61,12.5,12.5,12.5s12.5-5.61,12.5-12.5v-135c0-15.16-12.34-27.5-27.5-27.5H115c-15.16,0-27.5,12.34-27.5,27.5v135c0,6.89,5.61,12.5,12.5,12.5s12.5-5.61,12.5-12.5v-75c0-6.9,5.6-12.5,12.5-12.5h50c6.9,0,12.5,5.6,12.5,12.5v75c0,6.89,5.61,12.5,12.5,12.5s12.5-5.61,12.5-12.5v-75c0-6.9,5.6-12.5,12.5-12.5h50c6.9,0,12.5,5.6,12.5,12.5v75c0,6.89,5.61,12.5,12.5,12.5s12.5-5.61,12.5-12.5v-75c0-6.9,5.6-12.5,12.5-12.5Z"/>
</svg>