<?xml version="1.0" encoding="UTF-8"?>
<svg id="a" data-name="layer1" xmlns="http://www.w3.org/2000/svg" viewBox="0 0 1000 1000">
  <path d="M848.57,420.66c-18.19-18.19-38.39-33.62-60.09-46.13,0-.17,0-.34,0-.51,0-76.79-29.9-148.97-84.2-203.27-54.3-54.3-126.48-84.2-203.27-84.2s-148.97,29.9-203.27,84.2c-53.86,53.86-83.7,125.32-84.17,201.41-22.25,12.7-42.94,28.45-61.55,47.05-54.68,54.68-84.79,127.38-84.79,204.71s30.11,150.03,84.79,204.71c54.68,54.68,127.38,84.79,204.71,84.79,52.26,0,102.4-13.77,146.3-39.57,42.87,24.49,91.56,37.54,142.26,37.54,76.79,0,148.97-29.9,203.27-84.2,54.3-54.3,84.2-126.48,84.2-203.27s-29.9-148.97-84.2-203.27ZM501.02,137.5c63.18,0,122.58,24.6,167.25,69.28,39.24,39.24,62.99,89.84,68.19,144.38-29-9.66-59.69-14.69-91.16-14.69-50.7,0-99.4,13.05-142.26,37.54-43.9-25.8-94.04-39.57-146.3-39.57-31.37,0-61.97,4.96-90.92,14.5,5.63-53.69,29.25-103.45,67.96-142.15,44.67-44.67,104.07-69.28,167.25-69.28ZM502.7,812.68c-8.62-6.54-16.86-13.7-24.65-21.49-39.24-39.24-62.99-89.84-68.19-144.38,29,9.66,59.69,14.69,91.16,14.69s63.64-5.29,93.26-15.41c-5.06,55.36-29.06,106.75-68.85,146.54-7.21,7.21-14.8,13.89-22.73,20.05ZM501.02,610.56c-31.46,0-61.98-6.1-90.22-17.75,6.71-51.38,29.99-98.88,67.25-136.13,7.79-7.79,16.03-14.95,24.65-21.49,7.92,6.15,15.52,12.84,22.73,20.05,37.44,37.44,60.89,85.13,67.75,136.75-28.78,12.17-59.97,18.57-92.16,18.57ZM668.27,541.28c-8.78,8.78-18.13,16.77-27.97,23.96-11.25-54.95-38.29-105.45-78.86-146.02-3.99-3.99-8.08-7.83-12.25-11.55,29.86-13.28,62.45-20.27,96.11-20.27,31.46,0,61.98,6.1,90.22,17.75-6.71,51.38-29.99,98.88-67.25,136.13ZM456.54,407.13c-4.96,4.33-9.8,8.84-14.51,13.54-40.51,40.51-67.43,90.98-78.49,145.89-10.49-7.53-20.46-15.96-29.77-25.27-37.76-37.76-61.17-86.03-67.52-138.21,28.34-11.61,58.94-17.7,90.49-17.7,35.03,0,68.91,7.52,99.8,21.76ZM297.75,577.3c18.19,18.19,38.39,33.62,60.09,46.13,0,.17,0,.34,0,.51,0,76.79,29.9,148.97,84.2,203.27,4.7,4.7,9.54,9.21,14.51,13.54-30.89,14.24-64.77,21.76-99.8,21.76-63.72,0-123.63-24.82-168.69-69.87-45.06-45.06-69.87-104.97-69.87-168.69s24.82-123.63,69.87-168.69c9.62-9.62,19.92-18.3,30.78-26.03,10.78,55.76,37.88,107.04,78.92,148.09ZM561.44,828.64c54.68-54.68,84.79-127.38,84.79-204.71,0-.56-.02-1.12-.02-1.69,20.94-12.29,40.45-27.33,58.07-44.95,40.51-40.51,67.43-90.98,78.49-145.89,10.49,7.53,20.46,15.96,29.77,25.27,44.67,44.67,69.28,104.07,69.28,167.25s-24.6,122.58-69.28,167.25c-44.67,44.67-104.07,69.28-167.25,69.28-33.66,0-66.25-6.99-96.11-20.27,4.17-3.72,8.27-7.56,12.25-11.55Z"/>
</svg>