<?xml version="1.0" encoding="UTF-8"?>
<svg id="a" data-name="layer1" xmlns="http://www.w3.org/2000/svg" viewBox="0 0 500 500">
  <path d="M447.917,52.083c-4.881-4.881-12.797-4.881-17.678,0L52.083,430.239c-4.882,4.882-4.882,12.796,0,17.678,2.44,2.44,5.64,3.661,8.839,3.661s6.398-1.221,8.839-3.661L447.917,69.761c4.882-4.882,4.882-12.796,0-17.678Z"/>
  <path d="M395.002,229.032c.017-.661.197-1.278.197-1.942,0-20.364-8.007-38.894-21.038-52.609-3.562-3.749-9.557-3.728-13.214-.071l-184.359,184.359c-7.835,7.835-2.286,21.232,8.795,21.232h201.222c1.93,0,3.688-.552,5.306-1.358,35.742-6.389,63.011-37.538,63.011-75.082,0-36.457-25.708-66.938-59.92-74.529Z"/>
  <path d="M82.071,369.304c4.894,2.91,11.141,2.13,15.167-1.896l183.682-183.683c8.48-8.48-3.742-21.53-12.703-13.561-.125.111-.249.222-.373.334-13.063-32.792-45.065-56.063-82.457-56.063-48.952,0-88.784,39.832-88.784,88.784,0,9.398,1.494,18.448,4.212,26.957-32.312,8.924-56.239,38.279-56.239,73.385,0,27.931,15.064,52.407,37.495,65.743Z"/>
</svg>