<?xml version="1.0" encoding="UTF-8"?>
<svg id="a" data-name="layer1" xmlns="http://www.w3.org/2000/svg" viewBox="0 0 500 500">
  <path d="M450.821,394.144l-38.187-65.224c-3.488-5.958-11.146-7.96-17.103-4.472-5.958,3.488-7.96,11.146-4.472,17.103l23.725,40.523-185.723-48.559v-172.821l214.133-55.987c6.679-1.747,10.678-8.576,8.932-15.256-1.747-6.68-8.577-10.682-15.255-8.932l-207.81,54.334v-49.5c0-6.903-5.596-12.5-12.5-12.5h-63.939c-6.903,0-12.5,5.597-12.5,12.5v149.251h-65.983c-6.903,0-12.5,5.597-12.5,12.5s5.597,12.5,12.5,12.5h65.983v149.25c0,6.903,5.597,12.5,12.5,12.5h63.939c6.904,0,12.5-5.597,12.5-12.5v-49.499l177.271,46.349-37.839,22.154c-5.958,3.488-7.959,11.146-4.472,17.103,2.326,3.973,6.505,6.187,10.799,6.187,2.145,0,4.319-.553,6.304-1.715l60.555-35.453c4.881-.651,9.124-4.163,10.447-9.222.335-1.284.455-2.573.388-3.83.089-2.3-.445-4.651-1.694-6.784ZM165.123,97.854h38.939v298.501h-38.939V97.854Z"/>
</svg>