<?xml version="1.0" encoding="UTF-8"?>
<svg id="a" data-name="layer1" xmlns="http://www.w3.org/2000/svg" viewBox="0 0 1000 1000">
  <path d="M301,233v138h-138v-138h138M338.53,183H125.5c-6.9,0-12.5,5.6-12.5,12.5v213c0,6.9,5.6,12.5,12.5,12.5h213c6.9,0,12.5-5.6,12.5-12.5v-213.03c0-6.89-5.58-12.47-12.47-12.47h0Z"/>
  <path d="M496.4,432c49.4,0,89.6,40.19,89.6,89.6v10.6c0,49.59-40.2,89.8-89.8,89.8h-10.41c-49.59,0-89.8-40.2-89.8-89.8v-10.41c0-49.59,40.2-89.8,89.8-89.8h10.2M496.41,382h-10.61c-77.21,0-139.8,62.59-139.8,139.8v10.41c0,77.21,62.59,139.8,139.8,139.8h10.41c77.21,0,139.8-62.59,139.8-139.8v-10.61c0-77.1-62.5-139.59-139.59-139.59h0Z"/>
  <path d="M780,572h-.46.46M747.26,639.39l66.31,128.61h-128.61l62.29-128.61M746.23,543.63c-4.67,0-9.33,2.45-11.69,7.32l-120.32,248.4c-4.18,8.62,2.1,18.64,11.69,18.64h248.4c9.72,0,16-10.29,11.54-18.93l-128.08-248.4c-2.42-4.7-6.98-7.03-11.54-7.03h0Z"/>
</svg>