<?xml version="1.0" encoding="UTF-8"?>
<svg id="a" data-name="layer1" xmlns="http://www.w3.org/2000/svg" width="1000" height="1000" viewBox="0 0 1000 1000">
  <path d="M403.009,321.558c20.76,0,40.739,6.242,57.776,18.05,16.709,11.582,29.502,27.646,36.994,46.454,4.843,12.157,15.325,21.176,28.069,24.151,3.013.703,6.062,1.047,9.09,1.047,9.78,0,19.344-3.591,26.769-10.277,15.382-13.853,34.808-21.482,54.698-21.482,44.723,0,81.229,35.853,82.28,80.328-.123,1.115-.238,2.5-.278,4.072-.483,19.126,12.645,35.917,31.323,40.062,18,3.994,34.382,14.126,46.128,28.532,12.043,14.769,18.409,32.634,18.409,51.665,0,19.331-6.905,38.101-19.443,52.854-12.437,14.634-29.63,24.542-48.413,27.899-2.029.362-4.024.881-5.968,1.549h-420.426c-45.382,0-82.303-36.921-82.303-82.303,0-18.216,5.927-35.44,17.14-49.811,10.928-14.004,26.373-24.321,43.491-29.049,10.492-2.897,19.35-9.945,24.53-19.518,5.181-9.573,6.236-20.843,2.924-31.211-3.213-10.058-4.842-20.473-4.842-30.957,0-56.273,45.781-102.054,102.054-102.054M403.009,281.558c-78.323,0-142.054,63.73-142.054,142.054,0,15.036,2.39,29.516,6.74,43.13-51.699,14.279-89.982,61.246-89.982,117.417,0,67.429,54.862,122.303,122.303,122.303h424.942c3.088,0,5.9-.884,8.49-2.173,57.188-10.221,100.818-60.06,100.818-120.13,0-58.331-41.132-107.101-95.873-119.247.027-1.057.314-2.044.314-3.107,0-67.429-54.862-122.303-122.303-122.303-31.403,0-59.786,12.234-81.466,31.758-20.9-52.468-72.104-89.702-131.93-89.702h0Z" fill="#000" stroke-width="0"/>
</svg>