<?xml version="1.0" encoding="UTF-8"?>
<svg id="a" data-name="layer1" xmlns="http://www.w3.org/2000/svg" viewBox="0 0 500 500">
  <path d="M395.58,189.47l7.67-2.07c6.67-1.8,10.61-8.66,8.82-15.32-1.8-6.67-8.65-10.62-15.32-8.82l-20.46,5.51c-4.11-3.49-8.54-6.83-13.29-10-9.39-6.26-19.72-11.65-30.76-16.11l6.09-11.52c3.23-6.1.9-13.67-5.21-16.89-6.1-3.22-13.67-.9-16.89,5.21l-8.07,15.25c-18.33-4.81-37.98-7.33-58.17-7.33-42.51,0-82.64,11.15-113,31.39-31.92,21.28-49.5,50.09-49.5,81.11v77.12c0,31.03,17.58,59.83,49.5,81.11,30.36,20.24,70.49,31.39,113,31.39s82.64-11.15,113-31.39c31.92-21.28,49.5-50.09,49.5-81.11v-77.12c0-17.88-5.85-35.03-16.92-50.42ZM320.48,164.91c8.85,3.42,17.16,7.5,24.79,12.22l-36.46,9.82,11.66-22.05ZM387.5,317.01c0,22.4-13.63,43.82-38.37,60.31-26.3,17.53-61.51,27.19-99.13,27.19s-72.83-9.66-99.13-27.19c-24.74-16.5-38.37-37.91-38.37-60.31v-16.77c6.86,7.49,15.04,14.46,24.5,20.76,30.36,20.24,70.49,31.39,113,31.39s82.64-11.15,113-31.39c9.46-6.3,17.64-13.27,24.5-20.76v16.77ZM349.13,300.2c-26.3,17.53-61.51,27.19-99.13,27.19s-72.83-9.66-99.13-27.19c-24.74-16.5-38.37-37.91-38.37-60.31s13.63-43.82,38.37-60.31c26.3-17.53,61.51-27.19,99.13-27.19,15.98,0,31.51,1.76,46.12,5.11l-20.29,38.35-117.19,31.58c-6.67,1.8-10.61,8.66-8.82,15.32,1.5,5.58,6.55,9.25,12.06,9.25,1.08,0,2.17-.14,3.26-.43l94.71-25.52-20.62,38.97c-3.23,6.1-.9,13.67,5.2,16.89,1.86.99,3.86,1.45,5.83,1.45,4.48,0,8.82-2.42,11.06-6.66l31.5-59.55,76.34-20.57c11.94,13.14,18.31,27.99,18.31,43.31,0,22.4-13.63,43.82-38.37,60.31Z"/>
</svg>