<?xml version="1.0" encoding="UTF-8"?>
<svg id="a" data-name="layer1" xmlns="http://www.w3.org/2000/svg" viewBox="0 0 500 500">
  <path d="M250.28,451.59c-9.23,0-18.52-.63-27.61-1.88-12.35-1.69-21.67-12.35-21.67-24.79v-30.48c-6.39-2.17-12.62-4.75-18.66-7.75l-21.46,21.46c-8.82,8.82-22.96,9.75-32.9,2.17-14.54-11.09-27.51-24.09-38.57-38.65-7.54-9.93-6.59-24.06,2.21-32.85l21.52-21.52c-2.96-6.01-5.52-12.22-7.66-18.57h-30.42c-12.46,0-23.12-9.33-24.8-21.7-1.22-8.99-1.83-18.18-1.83-27.3s.62-18.31,1.83-27.3c1.67-12.37,12.34-21.7,24.8-21.7h30.61c2.15-6.29,4.7-12.43,7.65-18.39l-21.7-21.7c-8.8-8.8-9.75-22.92-2.21-32.86,11.05-14.56,24.03-27.57,38.56-38.65,9.94-7.58,24.08-6.64,32.9,2.17l21.83,21.83c5.92-2.92,12.04-5.44,18.29-7.56v-31.03c0-12.44,9.31-23.1,21.67-24.79,9.09-1.25,18.38-1.88,27.61-1.88s18.1.6,26.99,1.79c12.39,1.66,21.73,12.32,21.73,24.8v31.1c6.26,2.12,12.37,4.65,18.29,7.56l22.07-22.07c8.8-8.8,22.92-9.75,32.86-2.21,14.56,11.06,27.57,24.03,38.65,38.56,7.58,9.94,6.65,24.08-2.17,32.9l-22.02,22.01c2.95,5.95,5.51,12.1,7.65,18.39h31.16c12.46,0,23.12,9.33,24.8,21.7,1.22,8.99,1.83,18.18,1.83,27.3s-.62,18.31-1.83,27.3c-1.67,12.37-12.33,21.7-24.8,21.7h-30.97c-2.14,6.35-4.7,12.56-7.66,18.57l21.83,21.83c8.82,8.82,9.75,22.96,2.17,32.9-11.09,14.54-24.09,27.51-38.65,38.56-9.93,7.54-24.06,6.59-32.86-2.21l-21.7-21.7c-6.04,2.99-12.28,5.58-18.66,7.75v30.55c0,12.48-9.34,23.14-21.73,24.8-8.89,1.19-17.97,1.79-26.99,1.79ZM178.09,355.54l8.31,4.8c9.54,5.51,19.78,9.76,30.43,12.63l9.18,2.49v49.3c.08,0,.1,0,.12,0,7.97,1.09,16.11,1.64,24.2,1.64s23.18-1.57,23.18-1.57l.5-39.8v-9.58l9.27-2.49c10.65-2.87,20.89-7.12,30.43-12.63l8.31-4.8,35.03,35.03s.03-.02.04-.03c12.76-9.69,24.15-21.05,33.87-33.79.01-.02.03-.04.02-.06l-35.12-35.1,4.76-8.3c5.47-9.52,9.68-19.74,12.52-30.36l2.48-9.19h49.83c0-.09,0-.09,0-.09,0,0,0-.02,0-.04,1.07-7.88,1.61-15.93,1.61-23.93s-.54-16.05-1.61-23.93c0-.02-.02-.51-.02-.51h-49.93l-2.5-8.76c-2.87-10.56-7.1-20.71-12.57-30.18l-4.8-8.31,35.35-35.35s-.02-.02-.03-.04c-9.71-12.74-21.11-24.1-33.87-33.79-.02-.01-.04-.03-.06-.02l-35.34,35.35-8.3-4.76c-9.44-5.42-19.57-9.61-30.11-12.45l-9.27-2.49v-49.93c-7.81-1.05-15.77-1.58-23.68-1.58s-16.23.55-24.2,1.64c-.02,0-.04,0-.12.03v49.83l-9.18,2.49c-10.54,2.84-20.67,7.03-30.11,12.45l-8.3,4.76-35.12-35.12s-.03.02-.04.03c-12.74,9.71-24.1,21.11-33.79,33.87-.01.02-.03.04-.02.06l35.02,35.01-4.8,8.31c-5.47,9.46-9.7,19.62-12.57,30.18l-2.5,9.26h-49.39s0-.01,0,0c-1.07,7.88-1.61,15.93-1.61,23.93s.54,16.05,1.61,23.93c0,.02,0,.04.02.13h49.26l2.48,9.19c2.84,10.63,7.05,20.84,12.52,30.36l4.76,8.3-34.81,34.81s.02.03.03.04c9.69,12.76,21.05,24.15,33.79,33.87.02.01.04.03.06.02l34.77-34.78ZM250.04,324.08c-40.87,0-74.13-33.25-74.13-74.13s33.25-74.13,74.13-74.13,74.13,33.25,74.13,74.13-33.25,74.13-74.13,74.13ZM250.04,200.83c-27.09,0-49.13,22.04-49.13,49.13s22.04,49.13,49.13,49.13,49.13-22.04,49.13-49.13-22.04-49.13-49.13-49.13Z"/>
</svg>