<?xml version="1.0" encoding="UTF-8"?>
<svg id="a" data-name="layer1" xmlns="http://www.w3.org/2000/svg" viewBox="0 0 1000 1000">
  <path d="M872.45,304.72c-9.76-9.76-25.59-9.76-35.36,0l-267.85,267.85c-17.68,17.68-39.25,28.97-60.75,31.8-19.04,2.51-35.54-2.12-46.45-13.03l-28.6-28.6c-10.91-10.91-15.54-27.41-13.03-46.45,2.83-21.5,14.12-43.08,31.8-60.75l267.85-267.85c9.76-9.76,9.76-25.59,0-35.36s-25.59-9.76-35.36,0l-267.85,267.85c-25.42,25.42-41.76,57.23-46.02,89.58-4.35,33.03,4.15,62.96,23.96,84.87l-217.7,217.7c-9.76,9.76-9.76,25.59,0,35.36,4.88,4.88,11.28,7.32,17.68,7.32s12.8-2.44,17.68-7.32l217.69-217.69c18.16,16.42,41.83,25.07,68.22,25.07,5.44,0,11.01-.37,16.66-1.11,32.35-4.26,64.17-20.6,89.58-46.02l267.85-267.85c9.76-9.76,9.76-25.59,0-35.36Z"/>
</svg>