<?xml version="1.0" encoding="UTF-8"?>
<svg id="a" data-name="layer1" xmlns="http://www.w3.org/2000/svg" viewBox="0 0 500 500">
  <path d="M374,206.797c0-35.68-12.924-69.271-36.392-94.584-23.711-25.576-55.312-39.661-88.981-39.661s-65.269,14.085-88.981,39.661c-23.468,25.313-36.392,58.904-36.392,94.584,0,2.668.083,5.46.246,8.305v21.967s.313.581.5.869v145.062c0,11.046,8.954,20,20,20h209.5c11.046,0,20-8.954,20-20v-145.607c.005-.109.5-.324.5-.324v-30.272ZM248.628,97.89c55.07,0,99.872,48.822,99.872,108.833v24.777h-199.5v-16.863c0-.256-.008-.514-.023-.77-.147-2.464-.221-4.868-.221-7.144,0-60.011,44.803-108.833,99.872-108.833Z"/>
</svg>