<?xml version="1.0" encoding="UTF-8"?>
<svg id="a" data-name="layer1" xmlns="http://www.w3.org/2000/svg" width="1000" height="1000" viewBox="0 0 1000 1000">
  <path d="M785.953,353.997c-7.811-7.811-20.474-7.811-28.284,0l-88.501,88.501-32.6-216.979c-2.284-20.285-19.266-35.508-39.747-35.508h-193.641c-20.481,0-37.463,15.223-39.747,35.508l-59.483,395.902h-.736v4.899l-20.847,138.75-.127,1.026c-1.096,11.209,2.616,22.422,10.182,30.765,7.567,8.343,18.366,13.127,29.628,13.127h355.899c11.263,0,22.062-4.784,29.628-13.127,7.566-8.342,11.278-19.556,10.182-30.765l-.05-.515-41.153-273.905,109.396-109.396c7.811-7.81,7.811-20.474,0-28.284ZM403.052,231.038l.127-1.026h193.641l.05.515,37.131,247.137-143.758,143.758h-145.845l58.654-390.384ZM322.077,769.988l16.312-108.567h323.222l16.312,108.567h-355.846ZM655.601,621.421h-108.789l94.579-94.579,14.21,94.579Z" fill="#000" stroke-width="0"/>
</svg>