<?xml version="1.0" encoding="UTF-8"?>
<svg id="a" data-name="layer1" xmlns="http://www.w3.org/2000/svg" viewBox="0 0 500 500">
  <path d="M395.584,189.467l7.668-2.066c6.666-1.796,10.613-8.656,8.817-15.321-1.796-6.666-8.654-10.618-15.321-8.817l-20.456,5.512c-4.108-3.487-8.537-6.828-13.292-9.998-9.39-6.26-19.716-11.647-30.755-16.106l6.092-11.517c3.228-6.103.897-13.666-5.205-16.895-6.1-3.224-13.666-.896-16.895,5.205l-8.069,15.254c-18.326-4.81-37.978-7.33-58.169-7.33-42.507,0-82.638,11.147-113,31.389-31.92,21.281-49.5,50.087-49.5,81.111v77.122c0,31.025,17.58,59.831,49.5,81.111,30.362,20.241,70.493,31.389,113,31.389s82.638-11.147,113-31.389c31.921-21.28,49.5-50.086,49.5-81.111v-77.122c0-17.884-5.853-35.028-16.916-50.421ZM320.482,164.907c8.849,3.419,17.16,7.505,24.794,12.224l-36.457,9.824,11.663-22.048ZM387.5,317.01c0,22.397-13.626,43.815-38.368,60.311-26.3,17.533-61.506,27.189-99.132,27.189s-72.832-9.656-99.132-27.189c-24.742-16.495-38.368-37.913-38.368-60.311v-16.773c6.855,7.488,15.043,14.458,24.5,20.763,30.362,20.241,70.493,31.389,113,31.389s82.638-11.147,113-31.389c9.457-6.305,17.645-13.274,24.5-20.763v16.773ZM349.132,300.198c-26.3,17.533-61.506,27.189-99.132,27.189s-72.832-9.656-99.132-27.189c-24.742-16.495-38.368-37.913-38.368-60.311s13.626-43.815,38.368-60.31c26.301-17.534,61.506-27.19,99.132-27.19,15.979,0,31.512,1.759,46.121,5.105l-20.286,38.35-117.187,31.577c-6.666,1.796-10.613,8.656-8.817,15.321,1.502,5.577,6.549,9.251,12.062,9.251,1.076,0,2.171-.14,3.26-.434l94.709-25.521-20.615,38.973c-3.228,6.103-.898,13.666,5.205,16.895,1.864.985,3.863,1.453,5.834,1.453,4.483,0,8.818-2.42,11.06-6.658l31.5-59.55,76.34-20.571c11.939,13.138,18.313,27.994,18.313,43.308,0,22.397-13.626,43.815-38.368,60.311Z"/>
</svg>