<?xml version="1.0" encoding="UTF-8"?>
<svg id="a" data-name="layer1" xmlns="http://www.w3.org/2000/svg" width="1000" height="1000" viewBox="0 0 1000 1000">
  <path d="M827.775,584.159c0-58.331-41.132-107.1-95.873-119.246.027-1.057.315-2.044.315-3.107,0-67.429-54.862-122.303-122.303-122.303-31.403,0-59.785,12.234-81.465,31.758-20.9-52.468-72.104-89.702-131.93-89.702-78.324,0-142.054,63.731-142.054,142.054,0,15.036,2.39,29.516,6.74,43.131-51.699,14.278-89.982,61.246-89.982,117.416,0,67.429,54.862,122.303,122.303,122.303h424.942c3.088,0,5.9-.884,8.49-2.173,57.187-10.221,100.818-60.06,100.818-120.13Z" fill="#000" stroke-width="0"/>
</svg>