<?xml version="1.0" encoding="UTF-8"?>
<svg id="a" data-name="layer1" xmlns="http://www.w3.org/2000/svg" viewBox="0 0 500 500">
  <path d="M451.526,123.177c-2.999-17.089-12.317-34.167-26.237-48.087s-30.998-23.238-48.087-26.237c-18.711-3.285-35.33,1.222-46.796,12.688-1.603,1.603-3.055,3.316-4.383,5.112l-212.149,212.149c-.173.173-.325.357-.485.537-.091.102-.188.199-.275.304-.317.38-.611.771-.875,1.177-.014.022-.025.045-.04.067-.253.394-.478.8-.683,1.214-.051.102-.096.207-.144.311-.168.364-.317.733-.448,1.108-.023.066-.056.127-.078.194l-44.517,134.541c-1.484,4.486-.312,9.425,3.028,12.766,2.382,2.382,5.577,3.662,8.841,3.662,1.312,0,2.638-.208,3.925-.633l134.541-44.517c.067-.022.128-.056.195-.079.375-.131.745-.28,1.108-.448.103-.047.207-.093.308-.143.417-.206.827-.432,1.224-.688.019-.012.039-.022.057-.034.407-.266.801-.561,1.181-.879.102-.085.196-.178.295-.267.183-.162.369-.317.544-.492l212.092-212.092c1.819-1.341,3.548-2.818,5.169-4.439,11.466-11.466,15.972-28.085,12.688-46.796ZM372.881,73.477c11.9,2.088,24.56,9.12,34.73,19.291,18.77,18.77,25.312,44.227,15.339,57.446-.764.484-1.49,1.051-2.156,1.717l-3.162,3.161c-3.926,2.459-8.751,3.646-14.071,3.645-13.056-.001-29.067-7.127-41.931-19.99-18.12-18.12-24.844-42.471-16.317-56.03l3.133-3.134c.661-.661,1.225-1.381,1.707-2.138,7.359-5.555,17.207-4.938,22.726-3.97ZM318.045,109.987c3.294,16.535,12.437,32.965,25.909,46.438,13.473,13.472,29.902,22.615,46.438,25.909l-177.654,177.654-72.347-72.347,177.654-177.655ZM97.873,402.505l30.338-91.688,61.351,61.351-91.688,30.337Z"/>
</svg>