<?xml version="1.0" encoding="UTF-8"?>
<svg id="a" data-name="layer1" xmlns="http://www.w3.org/2000/svg" viewBox="0 0 500 500">
  <path d="M249.82,437.92c-.41,0-.81-.02-1.21-.06-49.85-2.5-94.95-71.76-117.46-112.97-32.22-58.98-53.92-124.72-52.77-159.87,0-.14.01-.27.02-.41,2.2-33.38,23.58-61.95,60.21-80.43,30.63-15.46,71.21-23.42,111.4-21.91,40.21-1.52,80.77,6.45,111.4,21.91,36.63,18.49,58.01,47.05,60.21,80.43,0,.14.02.27.02.41,1.15,35.15-20.55,100.89-52.77,159.87-22.51,41.21-67.62,110.47-117.48,112.97-.46.04-.91.07-1.38.06-.06,0-.12,0-.18,0ZM103.35,166.04c-.88,30.23,20.46,93.29,49.73,146.86,15.97,29.24,33.19,53.89,49.79,71.3,17.32,18.16,33.6,28.07,47.12,28.69,13.52-.62,29.81-10.53,47.12-28.69,16.6-17.4,33.82-42.06,49.79-71.3,29.27-53.58,50.62-116.64,49.73-146.86-2.14-30.89-26.46-49.43-46.51-59.55-27.08-13.67-63.38-20.68-99.64-19.23-.33.01-.66.01-1,0-36.25-1.44-72.56,5.56-99.64,19.23-20.05,10.12-44.38,28.66-46.51,59.55Z"/>
</svg>