<?xml version="1.0" encoding="UTF-8"?>
<svg id="a" data-name="layer1" xmlns="http://www.w3.org/2000/svg" viewBox="0 0 500 500">
  <path d="M155.94,449.51c-3.23,0-6.46-1.04-9.16-3.16-5.63-4.44-7.29-12.25-3.95-18.58l65.88-124.68-82.59-29.15c-4.69-1.64-8.23-5.54-9.44-10.36-1.21-4.8.08-9.92,3.42-13.58L302.8,49.34c4.9-5.38,12.95-6.41,19.06-2.43,6.09,3.97,8.39,11.77,5.44,18.43l-55.16,124.18,97.45,48.82c4.4,2.22,7.42,6.46,8.06,11.35.64,4.86-1.19,9.74-4.87,13l-207.01,183.11c-2.8,2.47-6.31,3.72-9.82,3.72Z"/>
</svg>