<?xml version="1.0" encoding="UTF-8"?>
<svg id="a" data-name="layer1" xmlns="http://www.w3.org/2000/svg" viewBox="0 0 500 500">
  <path d="M415.813,346.976c0,3.794-1.72,7.541-4.984,9.998-5.516,4.15-13.353,3.044-17.504-2.473l-141.563-188.121c-.407-.54-1.064-.866-1.751-.866s-1.345.326-1.756.873l-141.579,188.115c-4.151,5.516-11.988,6.622-17.504,2.471-5.516-4.15-6.623-11.986-2.471-17.504l141.583-188.121c5.113-6.786,13.233-10.834,21.727-10.834s16.614,4.048,21.723,10.828l141.568,188.128c1.694,2.251,2.513,4.89,2.513,7.506Z"/>
</svg>