<?xml version="1.0" encoding="UTF-8"?>
<svg id="a" data-name="layer1" xmlns="http://www.w3.org/2000/svg" viewBox="0 0 500 500">
  <path d="M151.85,449.56c-1.52,0-3.03-.05-4.55-.16-20.66-1.49-39.88-13.31-57.11-35.15-12.55-15.72-22.69-45.29-22.69-59.25V125c0-5.75,3.92-10.75,9.5-12.13,5.58-1.38,11.38,1.22,14.06,6.3,17.58,33.35,35.96,51.82,54.64,54.89,29.32,4.83,63.06-27.18,95.7-58.13,35.33-33.51,71.88-68.15,111.3-65.33,20.66,1.49,39.88,13.31,57.11,35.15,12.54,15.7,22.69,45.28,22.69,59.25v230c0,5.75-3.92,10.75-9.5,12.13-5.58,1.38-11.38-1.22-14.06-6.3-17.58-33.35-35.96-51.82-54.64-54.9-29.32-4.84-63.06,27.18-95.7,58.13-33.97,32.22-69.05,65.49-106.75,65.5ZM92.5,167.09v187.91c0,7.36,7.46,31.43,17.27,43.71,12.93,16.38,25.78,24.78,39.33,25.76,28.46,2.06,60.9-28.75,92.3-58.54,37.07-35.16,75.41-71.51,116.97-64.66,17.7,2.92,33.95,13.35,49.13,31.64v-187.91c0-7.37-7.47-31.44-17.27-43.71-12.93-16.38-25.78-24.79-39.33-25.76-28.45-2.06-60.9,28.75-92.3,58.54-37.07,35.16-75.39,71.51-116.97,64.66-17.7-2.92-33.95-13.35-49.13-31.64Z"/>
</svg>