<?xml version="1.0" encoding="UTF-8"?>
<svg id="a" data-name="layer1" xmlns="http://www.w3.org/2000/svg" viewBox="0 0 500 500">
  <path d="M399.76,85.37c-13.68-13.68-31.86-21.21-51.21-21.21s-37.53,7.53-51.21,21.21l-84.73,84.73c-13.68,13.68-21.21,31.86-21.21,51.21s7.53,37.53,21.21,51.21c2.44,2.44,5.64,3.66,8.84,3.66s6.4-1.22,8.84-3.66c4.88-4.88,4.88-12.8,0-17.68-8.96-8.96-13.89-20.86-13.89-33.53s4.93-24.57,13.89-33.53l84.73-84.73c8.96-8.96,20.86-13.89,33.53-13.89s24.57,4.93,33.53,13.89c8.96,8.96,13.89,20.86,13.89,33.53s-4.93,24.57-13.89,33.53l-42.22,42.22c-4.88,4.88-4.88,12.8,0,17.68,4.88,4.88,12.8,4.88,17.68,0l42.22-42.22c28.23-28.23,28.23-74.18,0-102.41Z"/>
  <path d="M269.71,227.48c-4.88,4.88-4.88,12.8,0,17.68,8.96,8.96,13.89,20.86,13.89,33.53s-4.93,24.57-13.89,33.53l-84.73,84.73c-18.49,18.49-48.57,18.49-67.06,0-18.49-18.49-18.49-48.57,0-67.06l42.22-42.22c4.88-4.88,4.88-12.8,0-17.68-4.88-4.88-12.8-4.88-17.68,0l-42.22,42.22c-28.23,28.23-28.23,74.18,0,102.41,13.68,13.68,31.86,21.21,51.21,21.21s37.53-7.53,51.21-21.21l84.73-84.73c13.68-13.68,21.21-31.86,21.21-51.21s-7.53-37.53-21.21-51.21c-4.88-4.88-12.8-4.88-17.68,0Z"/>
</svg>