<?xml version="1.0" encoding="UTF-8"?>
<svg id="a" xmlns="http://www.w3.org/2000/svg" version="1.1" viewBox="0 0 1000 1000">
  <!-- Generator: Adobe Illustrator 30.0.0, SVG Export Plug-In . SVG Version: 2.1.1 Build 123)  -->
  <path d="M500,313.1c53.4,0,103.6,20.8,141.4,58.6,37.8,37.8,58.6,88,58.6,141.4s-20.8,103.6-58.6,141.4-88,58.6-141.4,58.6-103.6-20.8-141.4-58.6c-37.8-37.8-58.6-88-58.6-141.4s20.8-103.6,58.6-141.4,88-58.6,141.4-58.6M500,263.1c-138.1,0-250,111.9-250,250s111.9,250,250,250,250-111.9,250-250-111.9-250-250-250h0Z"/>
  <path d="M500,219.3c-.4,0-.8,0-1.2,0-.4,0-.8,0-1.2,0-.8,0-1.6-.2-2.4-.4-.8-.2-1.6-.4-2.4-.6-.8-.2-1.5-.5-2.3-.8-.8-.3-1.5-.7-2.2-1.1-.7-.4-1.4-.8-2.1-1.2-.7-.5-1.3-.9-2-1.5-.3-.3-.6-.5-.9-.8-.3-.3-.6-.6-.9-.9s-.6-.6-.9-.9c-.3-.3-.5-.6-.8-.9-.5-.6-1-1.3-1.5-2-.4-.7-.9-1.4-1.3-2.1-.4-.7-.7-1.5-1-2.2-.3-.8-.6-1.5-.8-2.3-.2-.8-.4-1.6-.6-2.4-.2-.8-.3-1.6-.4-2.4,0-.4,0-.8,0-1.2,0-.4,0-.8,0-1.2s0-.8,0-1.2c0-.4,0-.8,0-1.2,0-.8.2-1.6.4-2.4s.4-1.6.6-2.4c.2-.8.5-1.6.8-2.3.3-.8.7-1.5,1-2.2.4-.7.8-1.4,1.3-2.1.5-.7.9-1.3,1.5-2,.3-.3.5-.6.8-.9.3-.3.6-.6.9-.9s.6-.6.9-.9c.3-.3.6-.5.9-.8.6-.5,1.3-1,2-1.4.7-.5,1.4-.9,2.1-1.3.7-.4,1.5-.7,2.2-1,.8-.3,1.5-.6,2.3-.8.8-.2,1.6-.4,2.4-.6.8-.2,1.6-.3,2.4-.4.4,0,.8,0,1.2,0,.8,0,1.6,0,2.5,0,.4,0,.8,0,1.2,0,.8,0,1.6.2,2.4.4.8.2,1.6.4,2.4.6.8.2,1.5.5,2.3.8.8.3,1.5.7,2.2,1,.7.4,1.4.8,2.1,1.3.7.4,1.3.9,2,1.4.3.3.6.5.9.8.3.3.6.6.9.9s.6.6.9.9c.3.3.5.6.8.9.5.6,1,1.3,1.5,2,.4.7.9,1.4,1.2,2.1.4.7.7,1.5,1,2.2.3.8.6,1.5.8,2.3.2.8.4,1.6.6,2.4s.3,1.6.4,2.4c0,.4,0,.8,0,1.2,0,.4,0,.8,0,1.2s0,.8,0,1.2c0,.4,0,.8,0,1.2,0,.8-.2,1.6-.4,2.4-.2.8-.4,1.6-.6,2.4-.2.8-.5,1.5-.8,2.3-.3.8-.7,1.5-1,2.2-.4.7-.8,1.4-1.2,2.1-.5.7-1,1.3-1.5,2-.3.3-.5.6-.8.9-.3.3-.6.6-.9.9s-.6.6-.9.9c-.3.3-.6.5-.9.8-.6.5-1.3,1-2,1.5-.7.5-1.4.9-2.1,1.2-.7.4-1.5.7-2.2,1.1-.8.3-1.5.6-2.3.8-.8.2-1.6.4-2.4.6-.8.2-1.6.3-2.4.4-.4,0-.8,0-1.2,0s-.8,0-1.2,0Z"/>
  <path d="M340.6,262c-.4,0-.8,0-1.2,0-.4,0-.8,0-1.2,0-.8,0-1.6-.2-2.4-.4-.8-.2-1.6-.4-2.4-.6-.8-.2-1.5-.5-2.3-.8s-1.5-.7-2.2-1.1c-.7-.4-1.4-.8-2.1-1.2-.7-.4-1.3-.9-2-1.5-.3-.3-.6-.5-.9-.8-.3-.3-.6-.6-.9-.9-.3-.3-.6-.6-.8-.9-.3-.3-.5-.6-.8-.9-.5-.6-1-1.3-1.5-2-.5-.7-.9-1.4-1.3-2.1-.4-.7-.7-1.5-1-2.2-.3-.8-.6-1.5-.8-2.3-.2-.8-.4-1.6-.6-2.4-.2-.8-.3-1.6-.4-2.4,0-.4,0-.8-.1-1.2,0-.4,0-.8,0-1.2s0-.8,0-1.2c0-.4,0-.8.1-1.2,0-.8.2-1.6.4-2.4s.4-1.6.6-2.4c.2-.8.5-1.6.8-2.3.3-.8.7-1.5,1-2.2.4-.7.8-1.4,1.3-2.1s.9-1.3,1.5-2c.3-.3.5-.6.8-.9.3-.3.6-.6.8-.9.3-.3.6-.6.9-.9.3-.3.6-.5.9-.8.6-.5,1.3-1,2-1.4.7-.5,1.4-.9,2.1-1.3.7-.4,1.5-.7,2.2-1,.8-.3,1.5-.6,2.3-.8.8-.2,1.6-.4,2.4-.6.8-.2,1.6-.3,2.4-.4.4,0,.8,0,1.2,0,.8,0,1.6,0,2.5,0,.4,0,.8,0,1.2,0,.8,0,1.6.2,2.4.4.8.2,1.6.4,2.4.6.8.2,1.5.5,2.3.8.8.3,1.5.7,2.2,1,.7.4,1.4.8,2.1,1.3.7.4,1.3.9,2,1.4.3.3.6.5.9.8.3.3.6.6.9.9s.6.6.9.9c.3.3.5.6.8.9.5.6,1,1.3,1.5,2,.5.7.9,1.4,1.2,2.1.4.7.7,1.5,1.1,2.2s.6,1.5.8,2.3c.2.8.4,1.6.6,2.4s.3,1.6.4,2.4c0,.4,0,.8,0,1.2,0,.4,0,.8,0,1.2s0,.8,0,1.2c0,.4,0,.8,0,1.2,0,.8-.2,1.6-.4,2.4-.2.8-.4,1.6-.6,2.4-.2.8-.5,1.5-.8,2.3s-.7,1.5-1.1,2.2c-.4.7-.8,1.4-1.2,2.1-.4.7-.9,1.3-1.5,2-.3.3-.5.6-.8.9-.3.3-.6.6-.9.9s-.6.6-.9.9c-.3.3-.6.5-.9.8-.6.5-1.3,1-2,1.5-.7.5-1.4.9-2.1,1.2-.7.4-1.5.7-2.2,1.1s-1.5.6-2.3.8c-.8.2-1.6.4-2.4.6-.8.2-1.6.3-2.4.4-.4,0-.8,0-1.2,0-.4,0-.8,0-1.2,0Z"/>
  <path d="M223.9,378.7c-.4,0-.8,0-1.2,0-.4,0-.8,0-1.2,0-.8,0-1.6-.2-2.4-.4s-1.6-.4-2.4-.6c-.8-.2-1.6-.5-2.3-.8-.8-.3-1.5-.7-2.2-1-.7-.4-1.4-.8-2.1-1.2-.7-.5-1.4-.9-2-1.5-.3-.3-.6-.5-.9-.8-.3-.3-.6-.6-.9-.9s-.6-.6-.9-.9c-.3-.3-.5-.6-.8-.9-.5-.6-1-1.3-1.5-2-.5-.7-.9-1.4-1.3-2.1-.4-.7-.7-1.5-1-2.2-.3-.8-.6-1.5-.8-2.3-.2-.8-.4-1.6-.6-2.4-.2-.8-.3-1.6-.4-2.4,0-.4,0-.8,0-1.2,0-.4,0-.8,0-1.2s0-.8,0-1.2c0-.4,0-.8,0-1.2,0-.8.2-1.6.4-2.4.2-.8.4-1.6.6-2.4.2-.8.5-1.5.8-2.3.3-.8.7-1.5,1-2.2.4-.7.8-1.4,1.3-2.1.4-.7.9-1.3,1.5-2,.2-.3.5-.6.8-.9.3-.3.6-.6.9-.9s.6-.6.9-.9c.3-.3.6-.5.9-.8.6-.5,1.3-1,2-1.5.7-.5,1.4-.9,2.1-1.2.7-.4,1.5-.7,2.2-1,.8-.3,1.5-.6,2.3-.8.8-.2,1.6-.4,2.4-.6s1.6-.3,2.4-.4c.4,0,.8,0,1.2,0,.8,0,1.6,0,2.5,0,.4,0,.8,0,1.2,0,.8,0,1.6.2,2.4.4s1.6.4,2.4.6c.8.2,1.5.5,2.3.8.8.3,1.5.7,2.2,1,.7.4,1.4.8,2.1,1.2.7.5,1.3.9,2,1.5.3.3.6.5.9.8.3.3.6.6.9.9s.6.6.9.9c.3.3.5.6.8.9.5.6,1,1.3,1.5,2,.5.7.9,1.4,1.2,2.1.4.7.7,1.5,1.1,2.2s.6,1.5.8,2.3c.2.8.4,1.6.6,2.4.2.8.3,1.6.4,2.4,0,.4,0,.8,0,1.2,0,.4,0,.8,0,1.2s0,.8,0,1.2c0,.4,0,.8,0,1.2,0,.8-.2,1.6-.4,2.4-.2.8-.4,1.6-.6,2.4-.2.8-.5,1.5-.8,2.3s-.7,1.5-1.1,2.2c-.4.7-.8,1.4-1.2,2.1-.4.7-.9,1.3-1.5,2-.3.3-.5.6-.8.9-.3.3-.6.6-.9.9s-.6.6-.9.9c-.3.3-.6.5-.9.8-.6.5-1.3,1-2,1.5-.7.4-1.4.9-2.1,1.2-.7.4-1.5.7-2.2,1-.8.3-1.5.6-2.3.8-.8.2-1.6.4-2.4.6s-1.6.3-2.4.4c-.4,0-.8,0-1.2,0-.4,0-.8,0-1.2,0Z"/>
  <path d="M181.2,538.1c-.4,0-.8,0-1.2,0-.4,0-.8,0-1.2,0-.8,0-1.6-.2-2.4-.4s-1.6-.4-2.4-.6c-.8-.2-1.6-.5-2.3-.8-.8-.3-1.5-.7-2.2-1-.7-.4-1.4-.8-2.1-1.3-.7-.5-1.3-.9-2-1.5-.3-.3-.6-.5-.9-.8-.3-.3-.6-.6-.9-.8-.3-.3-.6-.6-.9-.9-.3-.3-.5-.6-.8-.9-.5-.6-1-1.3-1.4-2-.5-.7-.9-1.4-1.3-2.1-.4-.7-.7-1.5-1-2.2-.3-.8-.6-1.5-.8-2.3-.2-.8-.4-1.6-.6-2.4-.2-.8-.3-1.6-.4-2.4,0-.4,0-.8,0-1.2,0-.4,0-.8,0-1.2s0-.8,0-1.2c0-.4,0-.8,0-1.2,0-.8.2-1.6.4-2.4.2-.8.4-1.6.6-2.4.2-.8.5-1.6.8-2.3.3-.8.7-1.5,1-2.2.4-.7.8-1.4,1.3-2.1.4-.7.9-1.3,1.4-2,.3-.3.5-.6.8-.9.3-.3.6-.6.9-.9.3-.3.6-.6.9-.9.3-.3.6-.5.9-.8.6-.5,1.3-1,2-1.5.7-.5,1.4-.9,2.1-1.2.7-.4,1.5-.7,2.2-1.1s1.5-.6,2.3-.8c.8-.2,1.6-.4,2.4-.6s1.6-.3,2.4-.4c.4,0,.8,0,1.2,0,.8,0,1.6,0,2.5,0,.4,0,.8,0,1.2,0,.8,0,1.6.2,2.4.4.8.2,1.6.4,2.4.6.8.2,1.5.5,2.3.8.8.3,1.5.7,2.2,1.1.7.4,1.4.8,2.1,1.2.7.4,1.3.9,2,1.5.3.3.6.5.9.8.3.3.6.6.9.9s.6.6.9.9c.3.3.5.6.8.9.5.6,1,1.3,1.5,2,.5.7.9,1.4,1.2,2.1.4.7.7,1.5,1.1,2.2.3.8.6,1.5.8,2.3.2.8.4,1.6.6,2.4.2.8.3,1.6.4,2.4,0,.4,0,.8,0,1.2,0,.4,0,.8,0,1.2s0,.8,0,1.2,0,.8,0,1.2c0,.8-.2,1.6-.4,2.4-.2.8-.4,1.6-.6,2.4-.2.8-.5,1.5-.8,2.3-.3.8-.7,1.5-1.1,2.2-.4.7-.8,1.4-1.2,2.1-.4.7-.9,1.3-1.5,2-.3.3-.5.6-.8.9-.3.3-.6.6-.9.9-.3.3-.6.6-.9.8-.3.3-.6.5-.9.8-.6.5-1.3,1-2,1.5-.7.4-1.4.9-2.1,1.3-.7.4-1.5.7-2.2,1-.8.3-1.5.6-2.3.8-.8.2-1.6.4-2.4.6-.8.2-1.6.3-2.4.4-.4,0-.8,0-1.2,0-.4,0-.8,0-1.2,0Z"/>
  <path d="M223.9,697.5c-.4,0-.8,0-1.2,0-.4,0-.8,0-1.2-.1-.8,0-1.6-.2-2.4-.4-.8-.2-1.6-.4-2.4-.6-.8-.2-1.6-.5-2.3-.8-.8-.3-1.5-.7-2.2-1-.7-.4-1.4-.8-2.1-1.3-.7-.5-1.4-.9-2-1.5-.3-.3-.6-.5-.9-.8-.3-.3-.6-.6-.9-.9-.3-.3-.6-.6-.9-.9-.3-.3-.5-.6-.8-.9-.5-.6-1-1.3-1.4-2-.5-.7-.9-1.4-1.3-2.1-.4-.7-.7-1.5-1-2.2-.3-.8-.6-1.5-.8-2.3-.2-.8-.4-1.6-.6-2.4-.2-.8-.3-1.6-.4-2.4,0-.4,0-.8-.1-1.2s0-.8,0-1.2,0-.8,0-1.2c0-.4,0-.8.1-1.2,0-.8.2-1.6.4-2.4.2-.8.4-1.6.6-2.4.2-.8.5-1.5.8-2.3.3-.8.7-1.5,1-2.2.4-.7.8-1.4,1.3-2.1.4-.7.9-1.3,1.4-2,.3-.3.5-.6.8-.9.3-.3.6-.6.9-.9s.6-.6.9-.8c.3-.3.6-.5.9-.8.6-.5,1.3-1,2-1.5.7-.4,1.4-.9,2.1-1.2.7-.4,1.5-.7,2.2-1,.8-.3,1.5-.6,2.3-.8.8-.2,1.6-.4,2.4-.6s1.6-.3,2.4-.4c.4,0,.8,0,1.2,0,.8,0,1.6,0,2.5,0,.4,0,.8,0,1.2,0,.8,0,1.6.2,2.4.4.8.2,1.6.4,2.4.6.8.2,1.5.5,2.3.8.8.3,1.5.7,2.2,1,.7.4,1.4.8,2.1,1.2.7.5,1.3.9,2,1.5.3.3.6.5.9.8.3.3.6.6.9.8s.6.6.9.9c.3.3.5.6.8.9.5.6,1,1.3,1.5,2,.5.7.9,1.4,1.2,2.1.4.7.7,1.5,1.1,2.2.3.8.6,1.5.8,2.3.2.8.4,1.6.6,2.4.2.8.3,1.6.4,2.4,0,.4,0,.8,0,1.2,0,.4,0,.8,0,1.2s0,.8,0,1.2,0,.8,0,1.2c0,.8-.2,1.6-.4,2.4-.2.8-.4,1.6-.6,2.4-.2.8-.5,1.5-.8,2.3s-.7,1.5-1.1,2.2c-.4.7-.8,1.4-1.2,2.1-.4.7-.9,1.4-1.5,2-.3.3-.5.6-.8.9s-.6.6-.9.9c-.3.3-.6.6-.9.9-.3.3-.6.5-.9.8-.6.5-1.3,1-2,1.5-.7.5-1.4.9-2.1,1.3-.7.4-1.5.7-2.2,1-.8.3-1.5.6-2.3.8-.8.2-1.6.4-2.4.6-.8.2-1.6.3-2.4.4-.4,0-.8,0-1.2.1-.4,0-.8,0-1.2,0Z"/>
  <path d="M340.6,814.2c-.4,0-.8,0-1.2,0-.4,0-.8,0-1.2,0-.8,0-1.6-.2-2.4-.4-.8-.2-1.6-.4-2.4-.6-.8-.2-1.5-.5-2.3-.8-.8-.3-1.5-.7-2.2-1-.7-.4-1.4-.8-2.1-1.3-.7-.5-1.3-.9-2-1.5-.3-.2-.6-.5-.9-.8-.3-.3-.6-.6-.9-.8-.3-.3-.6-.6-.8-.9-.3-.3-.5-.6-.8-.9-.5-.6-1-1.3-1.5-2-.5-.7-.9-1.4-1.3-2.1-.4-.7-.7-1.5-1-2.2-.3-.8-.6-1.5-.8-2.3-.2-.8-.4-1.6-.6-2.4s-.3-1.6-.4-2.4c0-.4,0-.8-.1-1.2,0-.4,0-.8,0-1.2s0-.8,0-1.2c0-.4,0-.8.1-1.2,0-.8.2-1.6.4-2.4.2-.8.4-1.6.6-2.4.2-.8.5-1.6.8-2.3.3-.8.7-1.5,1-2.2.4-.7.8-1.4,1.3-2.1.5-.7.9-1.4,1.5-2,.3-.3.5-.6.8-.9.3-.3.6-.6.8-.9.3-.3.6-.6.9-.9.3-.3.6-.5.9-.8.6-.5,1.3-1,2-1.5.7-.5,1.4-.9,2.1-1.2.7-.4,1.5-.7,2.2-1,.8-.3,1.5-.6,2.3-.8.8-.2,1.6-.4,2.4-.6.8-.2,1.6-.3,2.4-.4.4,0,.8,0,1.2,0,.8,0,1.7,0,2.5,0,.4,0,.8,0,1.2,0,.8,0,1.6.2,2.4.4.8.2,1.6.4,2.4.6.8.2,1.5.5,2.3.8.8.3,1.5.7,2.2,1,.7.4,1.4.8,2.1,1.2.7.5,1.3.9,2,1.5.3.3.6.5.9.8.3.3.6.6.9.9s.6.6.9.9c.3.3.5.6.8.9.5.6,1,1.3,1.5,2,.5.7.9,1.4,1.2,2.1.4.7.7,1.5,1.1,2.2s.6,1.5.8,2.3c.2.8.4,1.6.6,2.4.2.8.3,1.6.4,2.4,0,.4,0,.8,0,1.2,0,.4,0,.8,0,1.2s0,.8,0,1.2c0,.4,0,.8,0,1.2,0,.8-.2,1.6-.4,2.4s-.4,1.6-.6,2.4c-.2.8-.5,1.6-.8,2.3s-.7,1.5-1.1,2.2c-.4.7-.8,1.4-1.2,2.1-.4.7-.9,1.3-1.5,2-.3.3-.5.6-.8.9-.3.3-.6.6-.9.9s-.6.6-.9.8c-.3.3-.6.6-.9.8-.6.5-1.3,1-2,1.5-.7.4-1.4.9-2.1,1.3-.7.4-1.5.7-2.2,1-.8.3-1.5.6-2.3.8-.8.2-1.6.4-2.4.6-.8.2-1.6.3-2.4.4-.4,0-.8,0-1.2,0-.4,0-.8,0-1.2,0Z"/>
  <path d="M500,856.9c-.4,0-.8,0-1.2,0-.4,0-.8,0-1.2,0-.8,0-1.6-.2-2.4-.4-.8-.2-1.6-.4-2.4-.6-.8-.2-1.5-.5-2.3-.8-.8-.3-1.5-.7-2.2-1-.7-.4-1.4-.8-2.1-1.3-.7-.5-1.3-.9-2-1.5-.3-.3-.6-.5-.9-.8-.3-.3-.6-.6-.9-.8-.3-.3-.6-.6-.9-.9-.3-.3-.5-.6-.8-.9-.5-.6-1-1.3-1.5-2-.4-.7-.9-1.4-1.3-2.1-.4-.7-.7-1.5-1-2.2-.3-.8-.6-1.5-.8-2.3-.2-.8-.4-1.6-.6-2.4s-.3-1.6-.4-2.4c0-.4,0-.8,0-1.2,0-.4,0-.8,0-1.2s0-.8,0-1.2c0-.4,0-.8,0-1.2,0-.8.2-1.6.4-2.4.2-.8.4-1.6.6-2.4.2-.8.5-1.5.8-2.3.3-.8.7-1.5,1-2.2.4-.7.8-1.4,1.3-2.1.5-.7.9-1.3,1.5-2,.3-.3.5-.6.8-.9.3-.3.6-.6.9-.9s.6-.6.9-.9c.3-.3.6-.5.9-.8.6-.5,1.3-1,2-1.5.7-.5,1.4-.9,2.1-1.2.7-.4,1.5-.7,2.2-1,.8-.3,1.5-.6,2.3-.8.8-.2,1.6-.4,2.4-.6.8-.2,1.6-.3,2.4-.4.4,0,.8,0,1.2,0,.8,0,1.6,0,2.5,0,.4,0,.8,0,1.2,0,.8,0,1.6.2,2.4.4.8.2,1.6.4,2.4.6.8.2,1.5.5,2.3.8.8.3,1.5.7,2.2,1,.7.4,1.4.8,2.1,1.2s1.3.9,2,1.5c.3.3.6.5.9.8.3.3.6.6.9.9s.6.6.9.9c.3.3.5.6.8.9.5.6,1,1.3,1.5,2,.4.7.9,1.4,1.2,2.1.4.7.7,1.5,1,2.2.3.8.6,1.5.8,2.3.2.8.4,1.6.6,2.4.2.8.3,1.6.4,2.4,0,.4,0,.8,0,1.2,0,.4,0,.8,0,1.2s0,.8,0,1.2c0,.4,0,.8,0,1.2,0,.8-.2,1.6-.4,2.4s-.4,1.6-.6,2.4c-.2.8-.5,1.5-.8,2.3-.3.8-.7,1.5-1,2.2-.4.7-.8,1.4-1.2,2.1-.5.7-1,1.3-1.5,2-.3.3-.5.6-.8.9-.3.3-.6.6-.9.9-.3.3-.6.6-.9.8-.3.3-.6.6-.9.8-.6.5-1.3,1-2,1.5s-1.4.9-2.1,1.3c-.7.4-1.5.7-2.2,1-.8.3-1.5.6-2.3.8-.8.2-1.6.4-2.4.6s-1.6.3-2.4.4c-.4,0-.8,0-1.2,0-.4,0-.8,0-1.2,0Z"/>
  <path d="M659.4,814.2c-.4,0-.8,0-1.2,0s-.8,0-1.2,0c-.8,0-1.6-.2-2.4-.4-.8-.2-1.6-.4-2.4-.6-.8-.2-1.5-.5-2.3-.8-.8-.3-1.5-.7-2.2-1-.7-.4-1.4-.8-2.1-1.3-.7-.5-1.3-.9-2-1.5-.3-.2-.6-.5-.9-.8-.3-.3-.6-.6-.9-.8s-.6-.6-.8-.9c-.3-.3-.5-.6-.8-.9-.5-.6-1-1.3-1.5-2-.4-.7-.9-1.4-1.2-2.1-.4-.7-.7-1.5-1-2.2-.3-.8-.6-1.5-.8-2.3-.2-.8-.4-1.6-.6-2.4s-.3-1.6-.4-2.4c0-.4,0-.8,0-1.2,0-.4,0-.8,0-1.2s0-.8,0-1.2c0-.4,0-.8,0-1.2,0-.8.2-1.6.4-2.4.2-.8.4-1.6.6-2.4.2-.8.5-1.6.8-2.3.3-.8.7-1.5,1-2.2.4-.7.8-1.4,1.2-2.1.5-.7,1-1.4,1.5-2,.3-.3.5-.6.8-.9.3-.3.6-.6.8-.9s.6-.6.9-.9c.3-.3.6-.5.9-.8.6-.5,1.3-1,2-1.5.7-.5,1.4-.9,2.1-1.2.7-.4,1.5-.7,2.2-1,.8-.3,1.5-.6,2.3-.8.8-.2,1.6-.4,2.4-.6.8-.2,1.6-.3,2.4-.4.4,0,.8,0,1.2,0,.8,0,1.6,0,2.5,0,.4,0,.8,0,1.2,0,.8,0,1.6.2,2.4.4.8.2,1.6.4,2.4.6.8.2,1.5.5,2.3.8.8.3,1.5.7,2.2,1,.7.4,1.4.8,2.1,1.2.7.5,1.3.9,2,1.5.3.3.6.5.9.8.3.3.6.6.9.9.3.3.6.6.9.9.3.3.5.6.8.9.5.6,1,1.3,1.5,2,.5.7.9,1.4,1.3,2.1.4.7.7,1.5,1,2.2.3.8.6,1.5.8,2.3.2.8.4,1.6.6,2.4.2.8.3,1.6.4,2.4,0,.4,0,.8,0,1.2,0,.4,0,.8,0,1.2s0,.8,0,1.2c0,.4,0,.8,0,1.2,0,.8-.2,1.6-.4,2.4-.2.8-.4,1.6-.6,2.4s-.5,1.6-.8,2.3c-.3.8-.7,1.5-1,2.2-.4.7-.8,1.4-1.3,2.1-.5.7-.9,1.3-1.5,2-.3.3-.5.6-.8.9-.3.3-.6.6-.9.9-.3.3-.6.6-.9.8-.3.3-.6.6-.9.8-.6.5-1.3,1-2,1.5-.7.4-1.4.9-2.1,1.3-.7.4-1.5.7-2.2,1-.8.3-1.5.6-2.3.8-.8.2-1.6.4-2.4.6-.8.2-1.6.3-2.4.4-.4,0-.8,0-1.2,0s-.8,0-1.2,0Z"/>
  <path d="M776.1,697.5c-.4,0-.8,0-1.2,0-.4,0-.8,0-1.2-.1-.8,0-1.6-.2-2.4-.4-.8-.2-1.6-.4-2.4-.6-.8-.2-1.5-.5-2.3-.8-.8-.3-1.5-.7-2.2-1-.7-.4-1.4-.8-2.1-1.3s-1.3-.9-2-1.5c-.3-.3-.6-.5-.9-.8-.3-.3-.6-.6-.9-.9-.3-.3-.6-.6-.9-.9-.3-.3-.5-.6-.8-.9-.5-.6-1-1.3-1.5-2-.5-.7-.9-1.4-1.2-2.1s-.7-1.5-1-2.2c-.3-.8-.6-1.5-.8-2.3-.2-.8-.4-1.6-.6-2.4-.2-.8-.3-1.6-.4-2.4,0-.4,0-.8,0-1.2,0-.4,0-.8,0-1.2s0-.8,0-1.2c0-.4,0-.8,0-1.2,0-.8.2-1.6.4-2.4.2-.8.4-1.6.6-2.4.2-.8.5-1.5.8-2.3.3-.8.7-1.5,1-2.2.4-.7.8-1.4,1.2-2.1.5-.7.9-1.3,1.5-2,.3-.3.5-.6.8-.9.3-.3.6-.6.9-.9s.6-.6.9-.8c.3-.3.6-.5.9-.8.6-.5,1.3-1,2-1.5.7-.4,1.4-.9,2.1-1.2.7-.4,1.5-.7,2.2-1,.8-.3,1.5-.6,2.3-.8.8-.2,1.6-.4,2.4-.6.8-.2,1.6-.3,2.4-.4.4,0,.8,0,1.2,0,.8,0,1.6,0,2.5,0,.4,0,.8,0,1.2,0,.8,0,1.6.2,2.4.4s1.6.4,2.4.6c.8.2,1.5.5,2.3.8.8.3,1.5.7,2.2,1,.7.4,1.4.8,2.1,1.2.7.5,1.3,1,2,1.5.3.3.6.5.9.8.3.3.6.6.9.8.3.3.6.6.8.9.3.3.6.6.8.9.5.6,1,1.3,1.5,2,.4.7.9,1.4,1.3,2.1.4.7.7,1.5,1,2.2.3.8.6,1.5.8,2.3s.4,1.6.6,2.4c.2.8.3,1.6.4,2.4,0,.4,0,.8,0,1.2,0,.4,0,.8,0,1.2s0,.8,0,1.2c0,.4,0,.8,0,1.2,0,.8-.2,1.6-.4,2.4-.2.8-.4,1.6-.6,2.4-.2.8-.5,1.5-.8,2.3-.3.8-.7,1.5-1,2.2-.4.7-.8,1.4-1.3,2.1-.5.7-.9,1.4-1.5,2-.3.3-.5.6-.8.9-.3.3-.6.6-.8.9-.3.3-.6.6-.9.9-.3.3-.6.5-.9.8-.6.5-1.3,1-2,1.5s-1.4.9-2.1,1.3c-.7.4-1.5.7-2.2,1-.8.3-1.5.6-2.3.8-.8.2-1.6.4-2.4.6-.8.2-1.6.3-2.4.4-.4,0-.8,0-1.2.1-.4,0-.8,0-1.2,0Z"/>
  <path d="M818.8,538.1c-.4,0-.8,0-1.2,0-.4,0-.8,0-1.2,0-.8,0-1.6-.2-2.4-.4-.8-.2-1.6-.4-2.4-.6-.8-.2-1.5-.5-2.3-.8-.8-.3-1.5-.7-2.2-1-.7-.4-1.4-.8-2.1-1.3-.7-.5-1.3-.9-2-1.5-.3-.3-.6-.5-.9-.8-.3-.3-.6-.6-.9-.8-.3-.3-.6-.6-.9-.9-.3-.3-.5-.6-.8-.9-.5-.6-1-1.3-1.5-2s-.9-1.4-1.2-2.1c-.4-.7-.7-1.5-1-2.2-.3-.8-.6-1.5-.8-2.3s-.4-1.6-.6-2.4-.3-1.6-.4-2.4c0-.4,0-.8,0-1.2,0-.4,0-.8,0-1.2s0-.8,0-1.2c0-.4,0-.8,0-1.2,0-.8.2-1.6.4-2.4.2-.8.4-1.6.6-2.4.2-.8.5-1.6.8-2.3.3-.8.7-1.5,1-2.2.4-.7.8-1.4,1.2-2.1.5-.7.9-1.3,1.5-2,.3-.3.5-.6.8-.9.3-.3.6-.6.9-.9s.6-.6.9-.9c.3-.3.6-.5.9-.8.6-.5,1.3-1,2-1.5.7-.5,1.4-.9,2.1-1.2.7-.4,1.5-.7,2.2-1,.8-.3,1.5-.6,2.3-.8.8-.2,1.6-.4,2.4-.6.8-.2,1.6-.3,2.4-.4.4,0,.8,0,1.2,0,.8,0,1.6,0,2.5,0,.4,0,.8,0,1.2,0,.8,0,1.6.2,2.4.4s1.6.4,2.4.6c.8.2,1.5.5,2.3.8.8.3,1.5.7,2.2,1,.7.4,1.4.8,2.1,1.2.7.5,1.3.9,2,1.5.3.3.6.5.9.8.3.3.6.6.9.9s.6.6.9.9c.3.3.5.6.8.9.5.6,1,1.3,1.5,2,.5.7.9,1.4,1.3,2.1.4.7.7,1.5,1,2.2.3.8.6,1.5.8,2.3.2.8.4,1.6.6,2.4.2.8.3,1.6.4,2.4,0,.4,0,.8,0,1.2,0,.4,0,.8,0,1.2s0,.8,0,1.2c0,.4,0,.8,0,1.2,0,.8-.2,1.6-.4,2.4s-.4,1.6-.6,2.4-.5,1.5-.8,2.3c-.3.8-.7,1.5-1,2.2-.4.7-.8,1.4-1.3,2.1s-.9,1.3-1.5,2c-.3.3-.5.6-.8.9-.3.3-.6.6-.9.9-.3.3-.6.6-.9.8-.3.3-.6.5-.9.8-.6.5-1.3,1-2,1.5-.7.4-1.4.9-2.1,1.3-.7.4-1.5.7-2.2,1-.8.3-1.5.6-2.3.8-.8.2-1.6.4-2.4.6s-1.6.3-2.4.4c-.4,0-.8,0-1.2,0-.4,0-.8,0-1.2,0Z"/>
  <path d="M776.1,378.7c-.4,0-.8,0-1.2,0-.4,0-.8,0-1.2,0-.8,0-1.6-.2-2.4-.4-.8-.2-1.6-.4-2.4-.6-.8-.2-1.5-.5-2.3-.8-.8-.3-1.5-.7-2.2-1-.7-.4-1.4-.8-2.1-1.2-.7-.5-1.3-.9-2-1.5-.3-.3-.6-.5-.9-.8-.3-.3-.6-.6-.9-.9s-.6-.6-.9-.9c-.3-.3-.5-.6-.8-.9-.5-.6-1-1.3-1.5-2-.5-.7-.9-1.4-1.2-2.1-.4-.7-.7-1.5-1-2.2-.3-.8-.6-1.5-.8-2.3-.2-.8-.4-1.6-.6-2.4-.2-.8-.3-1.6-.4-2.4,0-.4,0-.8,0-1.2,0-.4,0-.8,0-1.2s0-.8,0-1.2c0-.4,0-.8,0-1.2,0-.8.2-1.6.4-2.4.2-.8.4-1.6.6-2.4.2-.8.5-1.5.8-2.3.3-.8.7-1.5,1-2.2.4-.7.8-1.4,1.2-2.1.5-.7.9-1.3,1.5-2,.3-.3.5-.6.8-.9.3-.3.6-.6.9-.9s.6-.6.9-.9c.3-.3.6-.5.9-.8.6-.5,1.3-1,2-1.5.7-.5,1.4-.9,2.1-1.2.7-.4,1.5-.7,2.2-1.1.8-.3,1.5-.6,2.3-.8.8-.2,1.6-.4,2.4-.6.8-.2,1.6-.3,2.4-.4.4,0,.8,0,1.2,0,.8,0,1.6,0,2.5,0,.4,0,.8,0,1.2,0,.8,0,1.6.2,2.4.4s1.6.4,2.4.6c.8.2,1.5.5,2.3.8.8.3,1.5.7,2.2,1.1.7.4,1.4.8,2.1,1.2.7.5,1.3.9,2,1.5.3.3.6.5.9.8.3.3.6.6.9.9.3.3.6.6.8.9.3.3.6.6.8.9.5.6,1,1.3,1.5,2,.4.7.9,1.4,1.3,2.1.4.7.7,1.5,1,2.2.3.8.6,1.5.8,2.3s.4,1.6.6,2.4c.2.8.3,1.6.4,2.4,0,.4,0,.8,0,1.2,0,.4,0,.8,0,1.2s0,.8,0,1.2c0,.4,0,.8,0,1.2,0,.8-.2,1.6-.4,2.4-.2.8-.4,1.6-.6,2.4-.2.8-.5,1.5-.8,2.3-.3.8-.7,1.5-1,2.2-.4.7-.8,1.4-1.3,2.1-.5.7-.9,1.3-1.5,2-.3.3-.5.6-.8.9-.3.3-.6.6-.8.9-.3.3-.6.6-.9.9-.3.3-.6.5-.9.8-.6.5-1.3,1-2,1.5-.7.4-1.4.9-2.1,1.2-.7.4-1.5.7-2.2,1-.8.3-1.5.6-2.3.8-.8.2-1.6.4-2.4.6s-1.6.3-2.4.4c-.4,0-.8,0-1.2,0-.4,0-.8,0-1.2,0Z"/>
  <path d="M659.4,262c-.4,0-.8,0-1.2,0s-.8,0-1.2,0c-.8,0-1.6-.2-2.4-.4-.8-.2-1.6-.4-2.4-.6-.8-.2-1.5-.5-2.3-.8s-1.5-.7-2.2-1.1c-.7-.4-1.4-.8-2.1-1.2-.7-.4-1.3-.9-2-1.5-.3-.3-.6-.5-.9-.8-.3-.3-.6-.6-.9-.9s-.6-.6-.8-.9c-.3-.3-.5-.6-.8-.9-.5-.6-1-1.3-1.5-2-.4-.7-.9-1.4-1.2-2.1-.4-.7-.7-1.5-1-2.2-.3-.8-.6-1.5-.8-2.3-.2-.8-.4-1.6-.6-2.4-.2-.8-.3-1.6-.4-2.4,0-.4,0-.8,0-1.2,0-.4,0-.8,0-1.2s0-.8,0-1.2c0-.4,0-.8,0-1.2,0-.8.2-1.6.4-2.4s.4-1.6.6-2.4c.2-.8.5-1.6.8-2.3.3-.8.7-1.5,1-2.2.4-.7.8-1.4,1.2-2.1.5-.7.9-1.3,1.5-2,.3-.3.5-.6.8-.9.3-.3.6-.6.8-.9.3-.3.6-.6.9-.9.3-.3.6-.5.9-.8.6-.5,1.3-1,2-1.4.7-.5,1.4-.9,2.1-1.3.7-.4,1.5-.7,2.2-1,.8-.3,1.5-.6,2.3-.8.8-.2,1.6-.4,2.4-.6.8-.2,1.6-.3,2.4-.4.4,0,.8,0,1.2-.1.8,0,1.6,0,2.5,0s.8,0,1.2.1c.8,0,1.6.2,2.4.4.8.2,1.6.4,2.4.6.8.2,1.5.5,2.3.8.8.3,1.5.7,2.2,1,.7.4,1.4.8,2.1,1.3.7.4,1.3.9,2,1.4.3.3.6.5.9.8.3.3.6.6.9.9.3.3.6.6.8.9.3.3.5.6.8.9.5.6,1,1.3,1.5,2,.4.7.9,1.4,1.2,2.1.4.7.7,1.5,1,2.2.3.8.6,1.5.8,2.3.2.8.4,1.6.6,2.4.2.8.3,1.6.4,2.4,0,.4,0,.8,0,1.2,0,.4,0,.8,0,1.2s0,.8,0,1.2c0,.4,0,.8,0,1.2,0,.8-.2,1.6-.4,2.4-.2.8-.4,1.6-.6,2.4-.2.8-.5,1.5-.8,2.3-.3.8-.7,1.5-1,2.2-.4.7-.8,1.4-1.2,2.1-.5.7-.9,1.3-1.5,2-.3.3-.5.6-.8.9-.3.3-.6.6-.8.9s-.6.6-.9.9c-.3.3-.6.5-.9.8-.6.5-1.3,1-2,1.5-.7.5-1.4.9-2.1,1.2-.7.4-1.5.7-2.2,1.1s-1.5.6-2.3.8c-.8.2-1.6.4-2.4.6-.8.2-1.6.3-2.4.4-.4,0-.8,0-1.2,0s-.8,0-1.2,0Z"/>
</svg>