<?xml version="1.0" encoding="UTF-8"?>
<svg id="c" data-name="レイヤー 4" xmlns="http://www.w3.org/2000/svg" viewBox="0 0 500 500">
  <path d="M446.5,97.54l-41-41c-6.21-6.21-14.46-9.62-23.24-9.62s-17.03,3.42-23.24,9.62l-77.86,77.86c-3.87,3.87-7.52,8.04-10.85,12.39l-121.75,159.17-48.79,48.79-2.47-2.47c-4.88-4.88-12.8-4.88-17.68,0l-4.01,4.01c-2.34,2.34-3.66,5.52-3.66,8.84s1.32,6.49,3.66,8.84l53.44,53.44c2.44,2.44,5.64,3.66,8.84,3.66s6.4-1.22,8.84-3.66l4.01-4.01c4.88-4.88,4.88-12.8,0-17.68l-2.47-2.47,48.79-48.79,159.17-121.75c4.35-3.32,8.52-6.98,12.39-10.85l77.86-77.86c12.81-12.81,12.81-33.66,0-46.47ZM428.82,126.33l-77.86,77.86c-3.1,3.1-6.43,6.02-9.9,8.67l-159.83,122.25c-.44.34-.85.7-1.24,1.09l-53.39,53.39-13.15-13.15,53.39-53.39c.39-.39.75-.81,1.09-1.24l122.25-159.83c2.66-3.48,5.58-6.81,8.67-9.9l77.86-77.86c3.06-3.06,8.05-3.06,11.12,0l41,41c1.48,1.48,2.3,3.46,2.3,5.56s-.82,4.07-2.3,5.56Z"/>
</svg>