<?xml version="1.0" encoding="UTF-8"?>
<svg id="a" data-name="layer1" xmlns="http://www.w3.org/2000/svg" width="1000" height="1000" viewBox="0 0 1000 1000">
  <path d="M717.145,285.168c3.711-6.179,3.811-13.875.261-20.148s-10.199-10.15-17.406-10.15h-90.589l72.336-72.336c7.811-7.811,7.811-20.474,0-28.284-7.811-7.811-20.474-7.811-28.284,0l-100.62,100.621h-252.843c-7.207,0-13.857,3.877-17.406,10.15s-3.45,13.969.261,20.148l171.318,285.222v199.599h-99.016c-11.046,0-20,8.954-20,20s8.954,20,20,20h289.685c11.046,0,20-8.954,20-20s-8.954-20-20-20h-99.016v-199.599l171.318-285.222ZM402.156,406.103h195.688l-83.335,138.742h-29.019l-83.335-138.742ZM664.656,294.87l-42.786,71.233h-123.692l71.233-71.233h95.245ZM512.843,294.87l-71.233,71.233h-63.48l-42.786-71.233h177.499ZM494.173,769.988v-185.144h11.653v185.144h-11.653Z" fill="#000" stroke-width="0"/>
</svg>