<?xml version="1.0" encoding="UTF-8"?>
<svg id="a" data-name="layer1" xmlns="http://www.w3.org/2000/svg" viewBox="0 0 500 500">
  <path d="M451.53,123.18c-3-17.09-12.32-34.17-26.24-48.09s-31-23.24-48.09-26.24c-18.71-3.29-35.33,1.22-46.8,12.69-1.6,1.6-3.05,3.32-4.38,5.11l-212.15,212.15c-.17.17-.33.36-.49.54-.09.1-.19.2-.27.3-.32.38-.61.77-.88,1.18-.01.02-.03.05-.04.07-.25.39-.48.8-.68,1.21-.05.1-.1.21-.14.31-.17.36-.32.73-.45,1.11-.02.07-.06.13-.08.19l-44.52,134.54c-1.48,4.49-.31,9.42,3.03,12.77,2.38,2.38,5.58,3.66,8.84,3.66,1.31,0,2.64-.21,3.92-.63l134.54-44.52c.07-.02.13-.06.2-.08.38-.13.74-.28,1.11-.45.1-.05.21-.09.31-.14.42-.21.83-.43,1.22-.69.02-.01.04-.02.06-.03.41-.27.8-.56,1.18-.88.1-.09.2-.18.29-.27.18-.16.37-.32.54-.49l212.09-212.09c1.82-1.34,3.55-2.82,5.17-4.44,11.47-11.47,15.97-28.09,12.69-46.8ZM372.88,73.48c11.9,2.09,24.56,9.12,34.73,19.29,18.77,18.77,25.31,44.23,15.34,57.45-.76.48-1.49,1.05-2.16,1.72l-3.16,3.16c-3.93,2.46-8.75,3.65-14.07,3.65-13.06,0-29.07-7.13-41.93-19.99-18.12-18.12-24.84-42.47-16.32-56.03l3.13-3.13c.66-.66,1.22-1.38,1.71-2.14,7.36-5.56,17.21-4.94,22.73-3.97ZM318.04,109.99c3.29,16.54,12.44,32.97,25.91,46.44,13.47,13.47,29.9,22.62,46.44,25.91l-177.65,177.65-72.35-72.35,177.65-177.65ZM97.87,402.51l30.34-91.69,61.35,61.35-91.69,30.34Z"/>
</svg>