<?xml version="1.0" encoding="UTF-8"?>
<svg id="a" data-name="layer1" xmlns="http://www.w3.org/2000/svg" viewBox="0 0 500 500">
  <path d="M423.55,158.36c-4.83-4.19-12.66-3.71-17.18.81l-55.13,55.14-20.38-135.62c-1.43-12.68-12.04-22.19-24.84-22.19h-121.06c-12.79,0-23.4,9.51-24.83,22.18l-37.16,247.32h-.46v3.2l-13.03,86.72-.08.64c-.68,7.01,1.63,14.01,6.36,19.23,4.73,5.21,11.48,8.2,18.52,8.2h222.45c7.04,0,13.79-2.99,18.52-8.2,4.73-5.21,7.05-12.22,6.36-19.23l-.03-.32-25.72-171.2,68.38-68.38c5.1-5.1,4.87-13.5-.68-18.31ZM184.82,82.14l.08-.64h120.96l.03.32,23.19,154.38-89.8,89.8h-91.1l36.64-243.86ZM133.94,419l10.22-68h202.45l10.22,68h-222.88ZM342.63,326h-67.99l59.11-59.11,8.88,59.11Z"/>
</svg>