<?xml version="1.0" encoding="UTF-8"?>
<svg id="c" data-name="レイヤー 4" xmlns="http://www.w3.org/2000/svg" xmlns:xlink="http://www.w3.org/1999/xlink" viewBox="0 0 500 500">
  <defs>
    <clipPath id="d">
      <rect width="500" height="500" fill="none"/>
    </clipPath>
    <clipPath id="e">
      <path d="M402.895,132.812c-4.981,0-6.88.398-8.536,1.284-1.096.586-1.864,1.354-2.45,2.45-.886,1.656-1.284,3.555-1.284,8.536v209.835c0,4.981.398,6.88,1.284,8.536.586,1.097,1.354,1.864,2.45,2.45,1.656.886,3.555,1.284,8.536,1.284h6.71c4.981,0,6.88-.398,8.536-1.284,1.096-.586,1.864-1.354,2.45-2.45.886-1.656,1.284-3.555,1.284-8.536v-209.835c0-4.981-.398-6.88-1.284-8.536-.586-1.097-1.354-1.864-2.45-2.45-1.656-.886-3.555-1.284-8.536-1.284h-6.71ZM402.895,117.188h6.71c7.867,0,12.086,1.088,15.905,3.13,3.82,2.043,6.817,5.04,8.86,8.86,2.043,3.819,3.13,8.038,3.13,15.905v209.835c0,7.867-1.088,12.085-3.13,15.905-2.043,3.819-5.04,6.817-8.86,8.86-3.819,2.043-8.038,3.13-15.905,3.13h-6.71c-7.867,0-12.086-1.088-15.905-3.13-3.819-2.043-6.817-5.04-8.86-8.86-2.043-3.819-3.13-8.038-3.13-15.905v-209.835c0-7.867,1.088-12.085,3.13-15.905,2.043-3.819,5.04-6.817,8.86-8.86,3.819-2.043,8.038-3.13,15.905-3.13ZM199.77,281.25h6.71c7.867,0,12.085,1.088,15.905,3.13,3.819,2.043,6.817,5.04,8.86,8.86,2.043,3.819,3.13,8.038,3.13,15.905v45.773c0,7.867-1.088,12.085-3.13,15.905-2.043,3.819-5.04,6.817-8.86,8.86-3.819,2.043-8.038,3.13-15.905,3.13h-6.71c-7.867,0-12.085-1.088-15.905-3.13-3.819-2.043-6.817-5.04-8.86-8.86-2.043-3.819-3.13-8.038-3.13-15.905v-45.773c0-7.867,1.088-12.085,3.13-15.905,2.043-3.819,5.04-6.817,8.86-8.86,3.819-2.043,8.038-3.13,15.905-3.13ZM301.332,234.375c-4.981,0-6.88.398-8.536,1.284-1.097.586-1.864,1.354-2.45,2.45-.886,1.656-1.284,3.555-1.284,8.536v108.273c0,4.981.398,6.88,1.284,8.536.586,1.097,1.354,1.864,2.45,2.45,1.656.886,3.555,1.284,8.536,1.284h6.71c4.981,0,6.88-.398,8.536-1.284,1.097-.586,1.864-1.354,2.45-2.45.886-1.656,1.284-3.555,1.284-8.536v-108.273c0-4.981-.398-6.88-1.284-8.536-.586-1.097-1.354-1.864-2.45-2.45-1.656-.886-3.555-1.284-8.536-1.284h-6.71ZM301.332,218.75h6.71c7.867,0,12.085,1.088,15.905,3.13,3.819,2.043,6.817,5.04,8.86,8.86,2.043,3.819,3.13,8.038,3.13,15.905v108.273c0,7.867-1.088,12.085-3.13,15.905-2.043,3.819-5.04,6.817-8.86,8.86-3.819,2.043-8.038,3.13-15.905,3.13h-6.71c-7.867,0-12.085-1.088-15.905-3.13-3.819-2.043-6.817-5.04-8.86-8.86-2.043-3.819-3.13-8.038-3.13-15.905v-108.273c0-7.867,1.088-12.085,3.13-15.905,2.043-3.819,5.04-6.817,8.86-8.86,3.819-2.043,8.038-3.13,15.905-3.13ZM98.207,320.312h6.71c7.867,0,12.085,1.088,15.905,3.13,3.819,2.043,6.817,5.04,8.86,8.86,2.043,3.819,3.13,8.038,3.13,15.905v6.71c0,7.867-1.088,12.085-3.13,15.905-2.043,3.819-5.04,6.817-8.86,8.86-3.819,2.043-8.038,3.13-15.905,3.13h-6.71c-7.867,0-12.085-1.088-15.905-3.13-3.819-2.043-6.817-5.04-8.86-8.86-2.043-3.819-3.13-8.038-3.13-15.905v-6.71c0-7.867,1.088-12.085,3.13-15.905,2.043-3.819,5.04-6.817,8.86-8.86,3.819-2.043,8.038-3.13,15.905-3.13Z" clip-rule="evenodd" fill="none"/>
    </clipPath>
  </defs>
  <g clip-path="url(#d)">
    <g clip-path="url(#e)">
      <rect x="66.406" y="113.281" width="375" height="273.438"/>
    </g>
  </g>
</svg>