<?xml version="1.0" encoding="UTF-8"?>
<svg id="c" data-name="レイヤー 4" xmlns="http://www.w3.org/2000/svg" xmlns:xlink="http://www.w3.org/1999/xlink" viewBox="0 0 500 500">
  <defs>
    <clipPath id="d">
      <rect width="500" height="500" fill="none"/>
    </clipPath>
    <clipPath id="e">
      <path d="M265.625,148.438h-31.25l2.298,138.849h26.654l2.298-138.849ZM250,312.5c-4.395,0-8.097,1.544-11.108,4.631s-4.517,6.806-4.517,11.155,1.506,8.014,4.517,10.994,6.714,4.47,11.108,4.47c4.232,0,7.894-1.49,10.986-4.47s4.639-6.645,4.639-10.994-1.546-8.068-4.639-11.155-6.755-4.631-10.986-4.631ZM473.726,185.587c.953.953,1.898,1.911,2.837,2.873l-223.956,223.691L31.25,184.638c122.525-121.499,320.344-121.183,442.476.95Z" fill="none"/>
    </clipPath>
  </defs>
  <g clip-path="url(#d)">
    <g clip-path="url(#e)">
      <rect x="27.344" y="59.232" width="453.125" height="356.825"/>
    </g>
  </g>
</svg>