<?xml version="1.0" encoding="UTF-8"?>
<svg id="c" data-name="レイヤー 4" xmlns="http://www.w3.org/2000/svg" viewBox="0 0 500 500">
  <path d="M191.234,365.904c1.656.886,3.555,1.284,8.536,1.284h6.71c4.981,0,6.88-.398,8.536-1.284,1.097-.586,1.864-1.354,2.45-2.45.886-1.656,1.284-3.555,1.284-8.536v-45.772c0-4.981-.398-6.88-1.284-8.536-.586-1.097-1.354-1.864-2.45-2.45-1.656-.886-3.555-1.284-8.536-1.284h-6.71c-4.981,0-6.88.398-8.536,1.284-1.097.586-1.864,1.354-2.45,2.45-.886,1.656-1.284,3.555-1.284,8.536v45.772c0,4.981.398,6.88,1.284,8.536.586,1.097,1.354,1.864,2.45,2.45Z" fill="none"/>
  <path d="M292.796,365.904c1.656.886,3.555,1.284,8.536,1.284h6.71c4.981,0,6.88-.398,8.536-1.284,1.097-.586,1.864-1.354,2.45-2.45.886-1.656,1.284-3.555,1.284-8.536v-108.272c0-4.981-.398-6.88-1.284-8.536-.586-1.097-1.354-1.864-2.45-2.45-1.656-.886-3.555-1.284-8.536-1.284h-6.71c-4.981,0-6.88.398-8.536,1.284-1.097.586-1.864,1.354-2.45,2.45-.886,1.656-1.284,3.555-1.284,8.536v108.272c0,4.981.398,6.88,1.284,8.536.586,1.097,1.354,1.864,2.45,2.45Z" fill="none"/>
  <path d="M418.141,134.096c-1.656-.886-3.555-1.284-8.536-1.284h-6.71c-4.981,0-6.88.398-8.536,1.284-1.097.586-1.864,1.354-2.45,2.45-.886,1.656-1.284,3.555-1.284,8.536v209.835c0,4.981.398,6.88,1.284,8.536.586,1.097,1.354,1.864,2.45,2.45,1.656.886,3.555,1.284,8.536,1.284h6.71c4.981,0,6.88-.398,8.536-1.284,1.096-.586,1.864-1.354,2.45-2.45.886-1.656,1.284-3.555,1.284-8.536v-209.835c0-4.981-.398-6.88-1.284-8.536-.586-1.097-1.354-1.864-2.45-2.45Z" fill="none"/>
  <path d="M82.303,379.682c3.819,2.042,8.038,3.13,15.905,3.13h6.71c7.867,0,12.085-1.088,15.905-3.13,3.819-2.043,6.817-5.04,8.86-8.86,2.042-3.819,3.13-8.038,3.13-15.905v-6.71c0-7.867-1.088-12.085-3.13-15.905-2.043-3.82-5.04-6.817-8.86-8.86-3.82-2.042-8.038-3.13-15.905-3.13h-6.71c-7.867,0-12.085,1.088-15.905,3.13-3.819,2.043-6.817,5.04-8.86,8.86-2.043,3.819-3.13,8.038-3.13,15.905v6.71c0,7.867,1.088,12.085,3.13,15.905,2.043,3.82,5.04,6.817,8.86,8.86Z"/>
  <path d="M183.865,379.682c3.819,2.042,8.038,3.13,15.905,3.13h6.71c7.867,0,12.085-1.088,15.905-3.13,3.819-2.043,6.817-5.04,8.86-8.86,2.042-3.819,3.13-8.038,3.13-15.905v-45.772c0-7.867-1.088-12.085-3.13-15.905-2.043-3.82-5.04-6.817-8.86-8.86-3.82-2.042-8.038-3.13-15.905-3.13h-6.71c-7.867,0-12.085,1.088-15.905,3.13-3.819,2.043-6.817,5.04-8.86,8.86-2.043,3.819-3.13,8.038-3.13,15.905v45.772c0,7.867,1.088,12.085,3.13,15.905,2.043,3.82,5.04,6.817,8.86,8.86ZM187.5,309.145c0-4.981.398-6.88,1.284-8.536.586-1.097,1.354-1.864,2.45-2.45,1.656-.886,3.555-1.284,8.536-1.284h6.71c4.981,0,6.88.398,8.536,1.284,1.097.586,1.864,1.354,2.45,2.45.886,1.656,1.284,3.555,1.284,8.536v45.772c0,4.981-.398,6.88-1.284,8.536-.586,1.097-1.354,1.864-2.45,2.45-1.656.886-3.555,1.284-8.536,1.284h-6.71c-4.981,0-6.88-.398-8.536-1.284-1.097-.586-1.864-1.354-2.45-2.45-.886-1.656-1.284-3.555-1.284-8.536v-45.772Z"/>
  <path d="M425.51,120.318c-3.819-2.042-8.038-3.13-15.905-3.13h-6.71c-7.867,0-12.086,1.088-15.905,3.13-3.819,2.043-6.817,5.04-8.86,8.86-2.043,3.819-3.13,8.038-3.13,15.905v209.835c0,7.867,1.088,12.085,3.13,15.905,2.043,3.82,5.04,6.817,8.86,8.86,3.819,2.042,8.038,3.13,15.905,3.13h6.71c7.867,0,12.086-1.088,15.905-3.13,3.82-2.043,6.817-5.04,8.86-8.86,2.042-3.819,3.13-8.038,3.13-15.905v-209.835c0-7.867-1.088-12.085-3.13-15.905-2.043-3.82-5.04-6.817-8.86-8.86ZM421.875,354.917c0,4.981-.398,6.88-1.284,8.536-.586,1.097-1.354,1.864-2.45,2.45-1.656.886-3.555,1.284-8.536,1.284h-6.71c-4.981,0-6.88-.398-8.536-1.284-1.097-.586-1.864-1.354-2.45-2.45-.886-1.656-1.284-3.555-1.284-8.536v-209.835c0-4.981.398-6.88,1.284-8.536.586-1.097,1.354-1.864,2.45-2.45,1.656-.886,3.555-1.284,8.536-1.284h6.71c4.981,0,6.88.398,8.536,1.284,1.096.586,1.864,1.354,2.45,2.45.886,1.656,1.284,3.555,1.284,8.536v209.835Z"/>
  <path d="M285.428,379.682c3.819,2.042,8.038,3.13,15.905,3.13h6.71c7.867,0,12.085-1.088,15.905-3.13,3.819-2.043,6.817-5.04,8.86-8.86,2.042-3.819,3.13-8.038,3.13-15.905v-108.272c0-7.867-1.088-12.085-3.13-15.905-2.043-3.82-5.04-6.817-8.86-8.86-3.82-2.042-8.038-3.13-15.905-3.13h-6.71c-7.867,0-12.085,1.088-15.905,3.13-3.819,2.043-6.817,5.04-8.86,8.86-2.043,3.819-3.13,8.038-3.13,15.905v108.272c0,7.867,1.088,12.085,3.13,15.905,2.043,3.82,5.04,6.817,8.86,8.86ZM289.062,246.645c0-4.981.398-6.88,1.284-8.536.586-1.097,1.354-1.864,2.45-2.45,1.656-.886,3.555-1.284,8.536-1.284h6.71c4.981,0,6.88.398,8.536,1.284,1.097.586,1.864,1.354,2.45,2.45.886,1.656,1.284,3.555,1.284,8.536v108.272c0,4.981-.398,6.88-1.284,8.536-.586,1.097-1.354,1.864-2.45,2.45-1.656.886-3.555,1.284-8.536,1.284h-6.71c-4.981,0-6.88-.398-8.536-1.284-1.097-.586-1.864-1.354-2.45-2.45-.886-1.656-1.284-3.555-1.284-8.536v-108.272Z"/>
</svg>