<?xml version="1.0" encoding="UTF-8"?>
<svg id="c" data-name="レイヤー 4" xmlns="http://www.w3.org/2000/svg" viewBox="0 0 500 500">
  <path d="M183.865,379.682c3.819,2.042,8.038,3.13,15.905,3.13h6.71c7.867,0,12.085-1.088,15.905-3.13,3.819-2.043,6.817-5.04,8.86-8.86,2.043-3.819,3.13-8.038,3.13-15.905v-45.772c0-7.867-1.088-12.085-3.13-15.905-2.043-3.82-5.04-6.817-8.86-8.86-3.819-2.042-8.038-3.13-15.905-3.13h-6.71c-7.867,0-12.085,1.088-15.905,3.13-3.819,2.043-6.817,5.04-8.86,8.86-2.043,3.819-3.13,8.038-3.13,15.905v45.772c0,7.867,1.088,12.085,3.13,15.905,2.043,3.82,5.04,6.817,8.86,8.86Z"/>
  <path d="M425.51,120.318c-3.819-2.042-8.038-3.13-15.905-3.13h-6.71c-7.867,0-12.086,1.088-15.905,3.13-3.819,2.043-6.817,5.04-8.86,8.86-2.043,3.819-3.13,8.038-3.13,15.905v209.835c0,7.867,1.088,12.085,3.13,15.905,2.043,3.82,5.04,6.817,8.86,8.86,3.819,2.042,8.038,3.13,15.905,3.13h6.71c7.867,0,12.086-1.088,15.905-3.13,3.82-2.043,6.817-5.04,8.86-8.86,2.043-3.819,3.13-8.038,3.13-15.905v-209.835c0-7.867-1.088-12.085-3.13-15.905-2.043-3.82-5.04-6.817-8.86-8.86Z"/>
  <path d="M82.303,379.682c3.819,2.042,8.038,3.13,15.905,3.13h6.71c7.867,0,12.085-1.088,15.905-3.13,3.819-2.043,6.817-5.04,8.86-8.86,2.043-3.819,3.13-8.038,3.13-15.905v-6.71c0-7.867-1.088-12.085-3.13-15.905-2.043-3.82-5.04-6.817-8.86-8.86-3.819-2.042-8.038-3.13-15.905-3.13h-6.71c-7.867,0-12.085,1.088-15.905,3.13-3.819,2.043-6.817,5.04-8.86,8.86-2.043,3.819-3.13,8.038-3.13,15.905v6.71c0,7.867,1.088,12.085,3.13,15.905,2.043,3.82,5.04,6.817,8.86,8.86Z"/>
  <path d="M285.428,379.682c3.819,2.042,8.038,3.13,15.905,3.13h6.71c7.867,0,12.085-1.088,15.905-3.13,3.819-2.043,6.817-5.04,8.86-8.86,2.043-3.819,3.13-8.038,3.13-15.905v-108.272c0-7.867-1.088-12.085-3.13-15.905-2.043-3.82-5.04-6.817-8.86-8.86-3.819-2.042-8.038-3.13-15.905-3.13h-6.71c-7.867,0-12.085,1.088-15.905,3.13-3.819,2.043-6.817,5.04-8.86,8.86-2.043,3.819-3.13,8.038-3.13,15.905v108.272c0,7.867,1.088,12.085,3.13,15.905,2.043,3.82,5.04,6.817,8.86,8.86Z"/>
</svg>