<?xml version="1.0" encoding="UTF-8"?>
<svg id="c" data-name="レイヤー 4" xmlns="http://www.w3.org/2000/svg" viewBox="0 0 500 500">
  <path d="M250,312.5c-4.395,0-8.097,1.543-11.108,4.631-3.011,3.087-4.517,6.806-4.517,11.155s1.506,8.014,4.517,10.994c3.011,2.98,6.714,4.47,11.108,4.47,4.232,0,7.894-1.49,10.986-4.47,3.092-2.98,4.639-6.645,4.639-10.994s-1.546-8.068-4.639-11.155c-3.092-3.088-6.755-4.631-10.986-4.631Z" fill="none"/>
  <polygon points="236.673 287.287 263.327 287.287 265.625 148.438 234.375 148.438 236.673 287.287" fill="none"/>
  <path d="M31.25,184.638l221.356,227.513,223.956-223.691c-.938-.962-1.884-1.92-2.837-2.873-122.132-122.132-319.951-122.449-442.476-.95ZM260.986,339.28c-3.092,2.98-6.755,4.47-10.986,4.47-4.395,0-8.097-1.49-11.108-4.47-3.011-2.98-4.517-6.645-4.517-10.994s1.506-8.068,4.517-11.155c3.011-3.088,6.714-4.631,11.108-4.631,4.232,0,7.894,1.543,10.986,4.631,3.092,3.087,4.639,6.806,4.639,11.155s-1.546,8.014-4.639,10.994ZM263.327,287.287h-26.654l-2.298-138.849h31.25l-2.298,138.849Z"/>
</svg>