<?xml version="1.0" encoding="UTF-8"?>
<svg id="c" data-name="レイヤー 4" xmlns="http://www.w3.org/2000/svg" xmlns:xlink="http://www.w3.org/1999/xlink" viewBox="0 0 500 500">
  <defs>
    <clipPath id="d">
      <rect width="500" height="500" fill="none"/>
    </clipPath>
    <clipPath id="e">
      <path d="M473.726,185.587c.953.953,1.898,1.911,2.837,2.873l-44.538,44.538c-.935-.965-1.878-1.924-2.832-2.877-97.537-97.537-255.48-97.854-353.409-.949l-44.534-44.534c122.525-121.499,320.344-121.183,442.476.95ZM139.785,273.644l22.552,22.552c51.687-41.242,126.071-40.091,176.491,3.453l22.486-22.486c-62.907-55.853-157.299-57.026-221.529-3.52ZM379.819,273.143c1.273,1.273,2.524,2.56,3.752,3.86l-44.561,44.561c-1.208-1.316-2.449-2.613-3.724-3.888-47.929-47.929-125.637-47.929-173.565,0l-44.533-44.533c72.524-72.524,190.108-72.524,262.632,0ZM294.475,362.669c1.282,1.282,2.498,2.604,3.65,3.963l-45.519,45.519-49.481-49.481c25.226-25.226,66.125-25.226,91.35,0ZM76.158,207.448c101.716-89.676,255.463-88.409,355.714,3.605l22.455-22.455c-112.681-104.378-286.49-105.646-400.646-3.627l22.477,22.477Z" fill="none"/>
    </clipPath>
  </defs>
  <g clip-path="url(#d)">
    <g clip-path="url(#e)">
      <rect x="27.344" y="59.232" width="453.125" height="356.825"/>
    </g>
  </g>
</svg>