<?xml version="1.0" encoding="UTF-8"?>
<svg id="c" data-name="レイヤー 4" xmlns="http://www.w3.org/2000/svg" viewBox="0 0 500 500">
  <path d="M53.681,184.972l22.476,22.477c101.716-89.676,255.463-88.409,355.714,3.605l22.455-22.455c-112.681-104.378-286.49-105.646-400.646-3.626Z" fill="none"/>
  <path d="M31.25,184.638l44.534,44.534c97.929-96.904,255.872-96.588,353.409.949.953.953,1.897,1.912,2.832,2.877l44.538-44.538c-.938-.962-1.884-1.92-2.837-2.873-122.132-122.132-319.951-122.449-442.476-.95ZM431.872,211.053c-100.251-92.014-253.998-93.281-355.714-3.605l-22.476-22.477c114.156-102.02,287.964-100.751,400.646,3.626l-22.455,22.455Z"/>
  <path d="M203.125,362.669l49.481,49.481,45.519-45.519c-1.152-1.358-2.368-2.681-3.65-3.962-25.226-25.226-66.125-25.226-91.35,0Z"/>
  <path d="M339.01,321.564l44.561-44.561c-1.228-1.301-2.479-2.587-3.752-3.86-72.524-72.524-190.108-72.524-262.632,0l44.533,44.533c47.929-47.929,125.637-47.929,173.565,0,1.275,1.275,2.517,2.572,3.724,3.888Z"/>
</svg>