<?xml version="1.0" encoding="UTF-8"?>
<svg id="c" data-name="レイヤー 4" xmlns="http://www.w3.org/2000/svg" viewBox="0 0 500 500">
  <path d="M74.046,319.029c1.768.945,3.52,1.284,10.687,1.284h299.284c7.166,0,8.919-.338,10.687-1.284,1.097-.586,1.864-1.354,2.45-2.45.946-1.768,1.284-3.521,1.284-10.687v-111.784c0-7.167-.338-8.919-1.284-10.687-.586-1.097-1.354-1.864-2.45-2.45-1.768-.945-3.52-1.284-10.687-1.284H84.733c-7.166,0-8.919.338-10.687,1.284-1.097.586-1.864,1.354-2.45,2.45-.945,1.768-1.284,3.52-1.284,10.687v111.784c0,7.166.339,8.919,1.284,10.687.586,1.097,1.354,1.864,2.45,2.45ZM85.938,203.125c0-4.315,3.498-7.812,7.812-7.812h54.688c4.315,0,7.812,3.498,7.812,7.812v93.75c0,4.315-3.498,7.812-7.812,7.812h-54.688c-4.315,0-7.812-3.498-7.812-7.812v-93.75Z" fill="none"/>
  <rect x="85.938" y="195.313" width="70.312" height="109.375" rx="7.812" ry="7.812"/>
  <path d="M66.678,332.807c3.819,2.042,7.608,3.13,18.055,3.13h299.284c10.448,0,14.236-1.088,18.055-3.13,3.82-2.043,6.817-5.041,8.86-8.86s3.13-7.608,3.13-18.055v-111.784c0-10.447-1.088-14.236-3.13-18.055-2.043-3.82-5.04-6.817-8.86-8.86-3.819-2.042-7.608-3.13-18.055-3.13H84.733c-10.448,0-14.236,1.088-18.055,3.13-3.819,2.043-6.817,5.04-8.86,8.86-2.043,3.819-3.13,7.608-3.13,18.055v111.784c0,10.447,1.088,14.236,3.13,18.055,2.043,3.819,5.04,6.817,8.86,8.86ZM70.312,194.108c0-7.167.339-8.919,1.284-10.687.586-1.097,1.354-1.864,2.45-2.45,1.768-.945,3.52-1.284,10.687-1.284h299.284c7.166,0,8.919.338,10.687,1.284,1.097.586,1.864,1.354,2.45,2.45.946,1.768,1.284,3.52,1.284,10.687v111.784c0,7.166-.338,8.919-1.284,10.687-.586,1.097-1.354,1.864-2.45,2.45-1.768.945-3.52,1.284-10.687,1.284H84.733c-7.166,0-8.919-.338-10.687-1.284-1.097-.586-1.864-1.354-2.45-2.45-.945-1.768-1.284-3.521-1.284-10.687v-111.784Z"/>
  <path d="M433.594,218.75c-6.472,0-11.719,5.247-11.719,11.719v39.062c0,6.472,5.246,11.719,11.719,11.719s11.719-5.247,11.719-11.719v-39.062c0-6.472-5.246-11.719-11.719-11.719Z"/>
</svg>