<?xml version="1.0" encoding="UTF-8"?>
<svg id="c" data-name="レイヤー 4" xmlns="http://www.w3.org/2000/svg" xmlns:xlink="http://www.w3.org/1999/xlink" viewBox="0 0 500 500">
  <defs>
    <clipPath id="d">
      <rect width="500" height="500" fill="none"/>
    </clipPath>
    <clipPath id="e">
      <path d="M84.733,179.688c-7.166,0-8.919.338-10.687,1.284-1.097.586-1.864,1.354-2.45,2.45-.945,1.768-1.284,3.52-1.284,10.687v111.784c0,7.166.338,8.919,1.284,10.687.586,1.097,1.354,1.864,2.45,2.45,1.768.945,3.52,1.284,10.687,1.284h299.284c7.166,0,8.919-.338,10.687-1.284,1.096-.586,1.864-1.354,2.45-2.45.946-1.768,1.284-3.52,1.284-10.687v-111.784c0-7.166-.338-8.919-1.284-10.687-.586-1.097-1.354-1.864-2.45-2.45-1.768-.945-3.52-1.284-10.687-1.284H84.733ZM433.594,218.75c6.472,0,11.719,5.247,11.719,11.719v39.062c0,6.472-5.246,11.719-11.719,11.719s-11.719-5.247-11.719-11.719v-39.062c0-6.472,5.246-11.719,11.719-11.719ZM84.733,164.062h299.284c10.448,0,14.236,1.088,18.055,3.13,3.82,2.043,6.817,5.04,8.86,8.86,2.043,3.819,3.13,7.608,3.13,18.055v111.784c0,10.448-1.088,14.236-3.13,18.055-2.043,3.819-5.04,6.817-8.86,8.86-3.819,2.043-7.608,3.13-18.055,3.13H84.733c-10.448,0-14.236-1.088-18.055-3.13-3.819-2.043-6.817-5.04-8.86-8.86-2.043-3.819-3.13-7.608-3.13-18.055v-111.784c0-10.448,1.088-14.236,3.13-18.055,2.043-3.819,5.04-6.817,8.86-8.86,3.819-2.043,7.608-3.13,18.055-3.13Z" fill="none"/>
    </clipPath>
  </defs>
  <g clip-path="url(#d)">
    <g clip-path="url(#e)">
      <rect x="50.781" y="160.156" width="398.438" height="179.688"/>
    </g>
  </g>
</svg>