<?xml version="1.0" encoding="UTF-8"?>
<svg id="a" data-name="layer1" xmlns="http://www.w3.org/2000/svg" viewBox="0 0 500 500">
  <path d="M150,362.5c-30.05,0-58.3-11.7-79.55-32.95-21.25-21.25-32.95-49.5-32.95-79.55s11.7-58.3,32.95-79.55c21.25-21.25,49.5-32.95,79.55-32.95s58.3,11.7,79.55,32.95c21.25,21.25,32.95,49.5,32.95,79.55s-11.7,58.3-32.95,79.55c-21.25,21.25-49.5,32.95-79.55,32.95ZM150,162.5c-48.25,0-87.5,39.25-87.5,87.5s39.25,87.5,87.5,87.5,87.5-39.25,87.5-87.5-39.25-87.5-87.5-87.5Z"/>
  <path d="M350,362.5h-200c-30.05,0-58.3-11.7-79.55-32.95-21.25-21.25-32.95-49.5-32.95-79.55s11.7-58.3,32.95-79.55c21.25-21.25,49.5-32.95,79.55-32.95h200c30.05,0,58.3,11.7,79.55,32.95,21.25,21.25,32.95,49.5,32.95,79.55s-11.7,58.3-32.95,79.55c-21.25,21.25-49.5,32.95-79.55,32.95ZM150,162.5c-48.25,0-87.5,39.25-87.5,87.5s39.25,87.5,87.5,87.5h200c48.25,0,87.5-39.25,87.5-87.5s-39.25-87.5-87.5-87.5h-200Z"/>
</svg>