<?xml version="1.0" encoding="UTF-8"?>
<svg id="a" data-name="layer1" xmlns="http://www.w3.org/2000/svg" viewBox="0 0 500 500">
  <path d="M119,341.5c-25.64,0-46.5-20.86-46.5-46.5s20.86-46.5,46.5-46.5,46.5,20.86,46.5,46.5-20.86,46.5-46.5,46.5ZM119,273.5c-11.855,0-21.5,9.645-21.5,21.5s9.645,21.5,21.5,21.5,21.5-9.645,21.5-21.5-9.645-21.5-21.5-21.5Z"/>
  <path d="M381,341.5c-25.64,0-46.5-20.86-46.5-46.5s20.86-46.5,46.5-46.5,46.5,20.86,46.5,46.5-20.86,46.5-46.5,46.5ZM381,273.5c-11.855,0-21.5,9.645-21.5,21.5s9.645,21.5,21.5,21.5,21.5-9.645,21.5-21.5-9.645-21.5-21.5-21.5Z"/>
  <path d="M415,220H85c-6.904,0-12.5-5.596-12.5-12.5s5.596-12.5,12.5-12.5h330c6.904,0,12.5,5.596,12.5,12.5s-5.596,12.5-12.5,12.5Z"/>
  <path d="M365.5,220h-234.5c-6.904,0-12.5-5.596-12.5-12.5v-54c0-6.904,5.596-12.5,12.5-12.5h234.5c6.904,0,12.5,5.596,12.5,12.5v54c0,6.904-5.596,12.5-12.5,12.5ZM143.5,195h209.5v-29h-209.5v29Z"/>
</svg>