<?xml version="1.0" encoding="UTF-8"?>
<svg id="a" data-name="layer1" xmlns="http://www.w3.org/2000/svg" viewBox="0 0 1000 1000">
  <path d="M238,683c-51.28,0-93-41.72-93-93s41.72-93,93-93,93,41.72,93,93-41.72,93-93,93ZM238,547c-23.71,0-43,19.29-43,43s19.29,43,43,43,43-19.29,43-43-19.29-43-43-43Z"/>
  <path d="M762,683c-51.28,0-93-41.72-93-93s41.72-93,93-93,93,41.72,93,93-41.72,93-93,93ZM762,547c-23.71,0-43,19.29-43,43s19.29,43,43,43,43-19.29,43-43-19.29-43-43-43Z"/>
  <path d="M830,440H170c-13.81,0-25-11.19-25-25s11.19-25,25-25h660c13.81,0,25,11.19,25,25s-11.19,25-25,25Z"/>
  <path d="M731,440h-469c-13.81,0-25-11.19-25-25v-108c0-13.81,11.19-25,25-25h469c13.81,0,25,11.19,25,25v108c0,13.81-11.19,25-25,25ZM287,390h419v-58h-419v58Z"/>
</svg>