<?xml version="1.0" encoding="UTF-8"?>
<svg id="a" data-name="layer1" xmlns="http://www.w3.org/2000/svg" viewBox="0 0 1000 1000">
  <path d="M238,683c-51.28,0-93-41.72-93-93s41.72-93,93-93,93,41.72,93,93-41.72,93-93,93ZM238,547c-23.71,0-43,19.29-43,43s19.29,43,43,43,43-19.29,43-43-19.29-43-43-43Z"/>
  <path d="M762,683c-51.28,0-93-41.72-93-93s41.72-93,93-93,93,41.72,93,93-41.72,93-93,93ZM762,547c-23.71,0-43,19.29-43,43s19.29,43,43,43,43-19.29,43-43-19.29-43-43-43Z"/>
  <path d="M830,440H170c-13.81,0-25-11.19-25-25s11.19-25,25-25h660c13.81,0,25,11.19,25,25s-11.19,25-25,25Z"/>
  <path d="M731.17,440h-468.88c-13.81,0-25-11.19-25-25v-107.84c0-13.81,11.19-25,25-25h468.88c13.81,0,25,11.19,25,25v107.84c0,13.81-11.19,25-25,25ZM287.3,390h418.88v-57.84h-418.88v57.84Z"/>
</svg>