<?xml version="1.0" encoding="UTF-8"?>
<svg id="a" data-name="layer1" xmlns="http://www.w3.org/2000/svg" viewBox="0 0 1000 1000">
  <path d="M300,725c-60.1,0-116.6-23.4-159.1-65.9-42.5-42.5-65.9-99-65.9-159.1s23.4-116.6,65.9-159.1c42.5-42.5,99-65.9,159.1-65.9s116.6,23.4,159.1,65.9c42.5,42.5,65.9,99,65.9,159.1s-23.4,116.6-65.9,159.1c-42.5,42.5-99,65.9-159.1,65.9ZM300,325c-96.5,0-175,78.5-175,175s78.5,175,175,175,175-78.5,175-175-78.5-175-175-175Z"/>
  <path d="M700,725h-400c-60.1,0-116.6-23.4-159.1-65.9-42.5-42.5-65.9-99-65.9-159.1s23.4-116.6,65.9-159.1c42.5-42.5,99-65.9,159.1-65.9h400c60.1,0,116.6,23.4,159.1,65.9,42.5,42.5,65.9,99,65.9,159.1s-23.4,116.6-65.9,159.1c-42.5,42.5-99,65.9-159.1,65.9ZM300,325c-96.5,0-175,78.5-175,175s78.5,175,175,175h400c96.5,0,175-78.5,175-175s-78.5-175-175-175h-400Z"/>
</svg>