<?xml version="1.0" encoding="UTF-8"?>
<svg id="a" data-name="layer1" xmlns="http://www.w3.org/2000/svg" viewBox="0 0 500 500">
  <path d="M150,362.5c-30.05,0-58.301-11.702-79.549-32.951-21.248-21.248-32.951-49.5-32.951-79.549s11.702-58.301,32.951-79.549c21.248-21.249,49.5-32.951,79.549-32.951s58.301,11.702,79.55,32.951c21.248,21.248,32.95,49.5,32.95,79.549s-11.702,58.301-32.95,79.549c-21.248,21.249-49.5,32.951-79.55,32.951ZM150,162.5c-48.248,0-87.5,39.252-87.5,87.5s39.252,87.5,87.5,87.5,87.5-39.252,87.5-87.5-39.252-87.5-87.5-87.5Z"/>
  <path d="M350,362.5h-200c-30.05,0-58.301-11.702-79.549-32.951-21.248-21.248-32.95-49.5-32.95-79.549s11.702-58.301,32.95-79.549c21.248-21.249,49.5-32.951,79.549-32.951h200c30.05,0,58.301,11.702,79.549,32.951,21.248,21.248,32.95,49.5,32.95,79.549s-11.702,58.301-32.95,79.549c-21.248,21.249-49.5,32.951-79.549,32.951ZM150,162.5c-48.248,0-87.5,39.252-87.5,87.5s39.252,87.5,87.5,87.5h200c48.248,0,87.5-39.252,87.5-87.5s-39.252-87.5-87.5-87.5h-200Z"/>
</svg>