<?xml version="1.0" encoding="UTF-8"?>
<svg id="a" data-name="layer1" xmlns="http://www.w3.org/2000/svg" viewBox="0 0 500 500">
  <path d="M323.69,149.81l-64.87,64.85h0c-3.12,3.12-4.92,8.5-4.3,12.8,1.18,8.11,6.11,14.35,13.19,16.7,1.96.65,3.97.97,5.96.97,4.88,0,9.63-1.92,13.22-5.5l63.31-63.31c3.54-3.54,5.49-8.25,5.49-13.25s-1.95-9.71-5.49-13.25c-7.31-7.31-19.2-7.31-26.5,0Z"/>
  <path d="M250,43.86c-113.85,0-206.14,92.29-206.14,206.14s92.29,206.14,206.14,206.14,206.14-92.29,206.14-206.14S363.85,43.86,250,43.86ZM378.09,378.09c-16.64,16.64-36.02,29.71-57.59,38.83-22.32,9.44-46.04,14.22-70.5,14.22s-48.19-4.79-70.5-14.22c-21.57-9.12-40.94-22.19-57.59-38.83-16.64-16.64-29.71-36.02-38.83-57.59-9.44-22.32-14.22-46.04-14.22-70.5s4.79-48.18,14.22-70.5c9.12-21.57,22.19-40.94,38.83-57.59,16.64-16.64,36.02-29.71,57.59-38.83,22.32-9.44,46.04-14.22,70.5-14.22s48.19,4.79,70.5,14.22c21.57,9.12,40.94,22.19,57.59,38.83,16.64,16.64,29.71,36.02,38.83,57.59,9.44,22.32,14.22,46.04,14.22,70.5s-4.79,48.18-14.22,70.5c-9.12,21.57-22.19,40.94-38.83,57.59Z"/>
</svg>