<?xml version="1.0" encoding="UTF-8"?>
<svg id="a" data-name="layer1" xmlns="http://www.w3.org/2000/svg" viewBox="0 0 500 500">
  <path d="M277.41,204.91l64.87-64.85c4.88-4.88,12.79-4.88,17.67,0h0c4.88,4.88,4.88,12.79,0,17.67l-63.31,63.31c-6.92,6.92-19.92,4.03-21.76-8.65-.35-2.4.82-5.77,2.53-7.48Z"/>
  <path d="M250,68.86c24.47,0,48.19,4.79,70.5,14.22,21.57,9.12,40.94,22.19,57.59,38.83,16.64,16.64,29.71,36.02,38.83,57.59,9.44,22.32,14.22,46.04,14.22,70.5s-4.79,48.18-14.22,70.5c-9.12,21.57-22.19,40.94-38.83,57.59-16.64,16.64-36.02,29.71-57.59,38.83-22.32,9.44-46.04,14.22-70.5,14.22s-48.19-4.79-70.5-14.22c-21.57-9.12-40.94-22.19-57.59-38.83-16.64-16.64-29.71-36.02-38.83-57.59-9.44-22.32-14.22-46.04-14.22-70.5s4.79-48.18,14.22-70.5c9.12-21.57,22.19-40.94,38.83-57.59,16.64-16.64,36.02-29.71,57.59-38.83,22.32-9.44,46.04-14.22,70.5-14.22M250,43.86c-113.85,0-206.14,92.29-206.14,206.14s92.29,206.14,206.14,206.14,206.14-92.29,206.14-206.14S363.85,43.86,250,43.86h0Z"/>
</svg>