<?xml version="1.0" encoding="UTF-8"?>
<svg id="a" data-name="layer1" xmlns="http://www.w3.org/2000/svg" viewBox="0 0 1000 1000">
  <g>
    <path d="M298.06,462.78c-12.75,0-25.59-1.4-38.34-4.24-45.63-10.15-84.58-37.46-109.66-76.9-25.09-39.44-33.32-86.29-23.17-131.92,20.95-94.19,114.63-153.77,208.82-132.83,45.63,10.15,84.58,37.46,109.66,76.9,25.09,39.44,33.31,86.29,23.17,131.92-10.15,45.63-37.46,84.58-76.9,109.66-28.42,18.08-60.7,27.4-93.58,27.4ZM297.47,162.67c-23.49,0-46.54,6.66-66.84,19.57-28.17,17.92-47.68,45.74-54.93,78.33-7.25,32.59-1.37,66.06,16.55,94.23,17.92,28.17,45.74,47.68,78.33,54.93h0c32.6,7.25,66.06,1.37,94.23-16.55s47.68-45.74,54.93-78.33c7.25-32.59,1.37-66.06-16.55-94.23-17.92-28.17-45.74-47.68-78.33-54.93-9.1-2.02-18.28-3.03-27.38-3.03Z"/>
    <path d="M231.33,365.82c-.41,0-.82,0-1.23-.03-.41-.02-.82-.05-1.23-.09-.81-.08-1.62-.21-2.43-.37-.79-.16-1.59-.36-2.37-.6-.78-.24-1.55-.51-2.3-.82-.75-.32-1.5-.67-2.21-1.05-.72-.38-1.43-.8-2.11-1.25-.68-.46-1.34-.95-1.97-1.46-.32-.26-.63-.53-.93-.8-.31-.28-.61-.56-.89-.85-.29-.29-.58-.59-.86-.9-.27-.3-.54-.61-.8-.93-.51-.63-1-1.29-1.46-1.97-.45-.68-.87-1.39-1.25-2.11-.38-.71-.73-1.46-1.04-2.21-.32-.75-.59-1.53-.83-2.3-.24-.78-.44-1.58-.6-2.38s-.29-1.61-.37-2.42c-.04-.41-.07-.82-.09-1.23-.02-.41-.03-.82-.03-1.23s0-.82.03-1.23c.02-.41.05-.82.09-1.23.08-.81.21-1.63.37-2.42.16-.8.36-1.6.6-2.38.24-.78.51-1.55.83-2.3.31-.75.66-1.5,1.04-2.21.38-.72.8-1.43,1.25-2.11.46-.68.95-1.34,1.46-1.97.26-.32.53-.63.8-.93.28-.31.57-.61.86-.9.28-.29.58-.57.89-.85.3-.27.61-.54.93-.8.63-.51,1.29-1,1.97-1.46.68-.44,1.39-.87,2.11-1.25.71-.38,1.46-.73,2.21-1.04.75-.31,1.52-.59,2.3-.83.78-.24,1.58-.44,2.37-.6.81-.16,1.62-.28,2.43-.37.41-.04.82-.07,1.23-.09.82-.04,1.64-.04,2.46,0,.41.02.82.05,1.23.09.81.09,1.63.21,2.42.37.8.16,1.6.36,2.38.6s1.55.52,2.3.83c.75.31,1.5.66,2.21,1.04.72.38,1.43.81,2.11,1.25.68.46,1.34.95,1.97,1.46.32.26.63.53.93.8.31.28.61.56.9.85.29.29.57.59.85.9.27.3.54.61.8.93.51.63,1,1.29,1.46,1.97.44.68.87,1.39,1.25,2.11.38.71.73,1.46,1.04,2.21.31.75.59,1.52.83,2.3.24.78.44,1.58.6,2.38.16.79.28,1.61.37,2.42.04.41.07.82.09,1.23.02.41.03.82.03,1.23s-.01.82-.03,1.23c-.02.41-.05.82-.09,1.23-.09.81-.21,1.62-.37,2.42s-.36,1.6-.6,2.38c-.24.77-.52,1.55-.83,2.3-.31.75-.66,1.5-1.04,2.21-.38.72-.81,1.43-1.25,2.11-.46.68-.95,1.34-1.46,1.97-.26.32-.53.63-.8.93-.28.31-.56.61-.85.9s-.59.57-.9.85c-.3.27-.61.54-.93.8-.63.51-1.29,1-1.97,1.46-.68.45-1.39.87-2.11,1.25-.71.38-1.46.73-2.21,1.05-.75.31-1.52.58-2.3.82-.78.24-1.58.44-2.38.6-.79.16-1.61.29-2.42.37-.41.04-.82.07-1.23.09-.41.02-.82.03-1.23.03Z"/>
  </g>
  <g>
    <path d="M722.65,462.77c-10.78,0-21.63-1-32.46-3.02-94.86-17.69-157.64-109.26-139.95-204.12h0c17.69-94.86,109.26-157.64,204.12-139.95,45.95,8.57,85.82,34.52,112.25,73.08,26.43,38.55,36.27,85.09,27.7,131.04-8.57,45.95-34.52,85.82-73.08,112.25-29.47,20.21-63.61,30.71-98.59,30.71ZM599.4,264.8h0c-6.12,32.82.9,66.07,19.79,93.6,18.88,27.54,47.35,46.08,80.18,52.2,32.82,6.12,66.06-.9,93.6-19.78,27.54-18.88,46.08-47.35,52.2-80.18,12.64-67.76-32.2-133.16-99.96-145.8-67.76-12.64-133.16,32.21-145.8,99.96Z"/>
    <path d="M666.93,248.2c-.41,0-.82,0-1.23-.03-.41-.02-.82-.05-1.23-.09-.81-.08-1.63-.21-2.43-.37-.79-.16-1.59-.36-2.37-.6-.78-.24-1.55-.51-2.3-.82-.75-.32-1.5-.67-2.22-1.05-.72-.38-1.42-.8-2.1-1.25-.68-.46-1.34-.95-1.97-1.46-.32-.26-.63-.53-.94-.8-.3-.28-.6-.56-.89-.85s-.57-.59-.85-.9c-.27-.3-.54-.61-.8-.93-.52-.63-1.01-1.29-1.46-1.97s-.87-1.39-1.25-2.1c-.38-.72-.74-1.47-1.05-2.22-.31-.75-.59-1.52-.82-2.3-.24-.78-.44-1.58-.6-2.37-.16-.8-.29-1.62-.37-2.43-.04-.41-.07-.82-.09-1.23-.02-.41-.03-.82-.03-1.23s0-.82.03-1.23c.02-.41.05-.82.09-1.23.08-.81.21-1.62.37-2.42s.36-1.6.6-2.38c.23-.77.51-1.55.82-2.3.31-.75.67-1.5,1.05-2.21.38-.72.8-1.43,1.25-2.11.45-.68.94-1.34,1.46-1.97.26-.32.53-.63.8-.93.28-.31.56-.61.85-.9s.59-.57.89-.85c.31-.27.62-.54.94-.8.63-.51,1.29-1,1.97-1.46.68-.44,1.38-.87,2.1-1.25.72-.38,1.47-.73,2.22-1.04s1.52-.59,2.3-.83c.78-.24,1.58-.44,2.37-.6.8-.16,1.62-.28,2.43-.36.41-.05.82-.08,1.23-.1.82-.04,1.64-.04,2.46,0,.41.02.82.05,1.23.1.81.08,1.62.2,2.43.36.79.16,1.59.36,2.37.6s1.55.52,2.3.83,1.5.66,2.21,1.04c.72.38,1.43.81,2.11,1.25.68.46,1.34.95,1.97,1.46.32.26.63.53.93.8.31.28.61.56.9.85s.57.59.85.9c.27.3.54.61.8.93.51.63,1,1.29,1.45,1.97.45.68.88,1.39,1.26,2.11.38.71.73,1.46,1.04,2.21.32.75.59,1.53.83,2.3.24.78.44,1.58.6,2.38s.28,1.61.37,2.42c.04.41.07.82.09,1.23.02.41.03.82.03,1.23s0,.82-.03,1.23c-.02.41-.05.82-.09,1.23-.09.81-.21,1.63-.37,2.43-.16.79-.36,1.59-.6,2.37s-.51,1.55-.83,2.3c-.31.75-.66,1.5-1.04,2.22-.38.71-.81,1.42-1.26,2.1-.45.68-.94,1.34-1.45,1.97-.26.32-.53.63-.8.93-.28.31-.56.61-.85.9s-.59.57-.9.85c-.3.27-.61.54-.93.8-.63.51-1.29,1-1.97,1.46-.68.45-1.39.87-2.11,1.25-.71.38-1.46.73-2.21,1.05-.75.31-1.52.58-2.3.82s-1.58.44-2.37.6c-.81.16-1.62.29-2.43.37-.41.04-.82.07-1.23.09-.41.02-.82.03-1.23.03Z"/>
  </g>
  <g>
    <path d="M288.08,897.34c-10.95,0-21.98-1.03-32.98-3.12-94.8-17.98-157.3-109.74-139.32-204.55,17.98-94.8,109.74-157.29,204.55-139.32,94.81,17.98,157.31,109.74,139.32,204.55h0c-8.71,45.93-34.79,85.71-73.42,112.02-29.38,20.01-63.36,30.42-98.15,30.42ZM287.67,597.27c-58.84,0-111.4,41.83-122.76,101.72-6.22,32.8.7,66.07,19.5,93.66,18.8,27.6,47.21,46.22,80.02,52.44,32.81,6.23,66.07-.7,93.66-19.5,27.59-18.79,46.22-47.22,52.44-80.02h0c12.84-67.72-31.8-133.26-99.52-146.1-7.83-1.49-15.65-2.2-23.34-2.2ZM435.09,750.48h0,0Z"/>
    <path d="M342.87,811.98c-.4,0-.82-.02-1.23-.04-.4-.02-.82-.05-1.22-.09-.81-.08-1.63-.2-2.43-.37-.8-.16-1.59-.36-2.37-.59-.78-.24-1.55-.52-2.31-.83-.75-.31-1.49-.66-2.21-1.05-.72-.38-1.43-.8-2.1-1.25-.68-.45-1.35-.94-1.98-1.46-.31-.26-.63-.53-.93-.8-.3-.28-.6-.56-.89-.85s-.58-.59-.85-.89c-.27-.31-.55-.62-.8-.94-.52-.63-1.01-1.29-1.46-1.97-.45-.68-.87-1.38-1.25-2.1-.39-.72-.74-1.46-1.05-2.22-.31-.75-.59-1.52-.82-2.3-.24-.78-.44-1.58-.6-2.37-.16-.8-.29-1.62-.37-2.43-.04-.41-.07-.82-.09-1.23-.02-.41-.03-.82-.03-1.23s0-.82.03-1.23c.02-.41.05-.82.09-1.23.08-.81.21-1.62.37-2.42.16-.8.36-1.6.6-2.38.23-.77.51-1.55.82-2.3.31-.75.66-1.49,1.05-2.21.38-.72.8-1.43,1.25-2.1.45-.68.94-1.35,1.46-1.98.25-.31.53-.63.8-.93.27-.3.56-.6.85-.89s.59-.58.89-.85c.3-.28.62-.55.93-.8.63-.52,1.3-1.01,1.98-1.46.67-.45,1.38-.87,2.1-1.26.72-.38,1.46-.73,2.21-1.04.76-.31,1.53-.59,2.31-.83.78-.24,1.57-.44,2.37-.6.8-.16,1.62-.28,2.43-.36.4-.04.82-.08,1.22-.1.82-.04,1.65-.04,2.47,0,.4.02.82.06,1.22.1.81.08,1.63.2,2.43.36s1.6.36,2.38.6c.77.24,1.55.52,2.3.83.75.31,1.49.66,2.21,1.04.72.39,1.43.81,2.1,1.26.68.45,1.35.94,1.98,1.46.31.25.63.52.93.8.3.27.6.56.89.85s.58.59.85.89c.28.3.55.62.81.93.51.63,1,1.3,1.45,1.98.45.67.87,1.38,1.26,2.1.38.72.73,1.46,1.04,2.21.31.75.59,1.53.83,2.3.24.78.44,1.58.6,2.38s.28,1.61.36,2.42c.05.41.08.82.1,1.23.02.41.03.82.03,1.23s0,.82-.03,1.23c-.02.41-.05.82-.1,1.23-.08.81-.2,1.63-.36,2.43-.16.79-.36,1.59-.6,2.37-.24.78-.52,1.55-.83,2.3-.31.76-.66,1.5-1.04,2.22-.39.72-.81,1.42-1.26,2.1-.45.68-.94,1.34-1.45,1.97-.26.32-.53.63-.81.94-.27.3-.56.6-.85.89s-.59.57-.89.85c-.3.27-.62.54-.93.8-.63.52-1.3,1.01-1.98,1.46-.67.45-1.38.87-2.1,1.25-.72.39-1.46.74-2.21,1.05-.75.31-1.53.59-2.3.83-.78.23-1.58.43-2.38.59-.8.17-1.62.29-2.43.37-.4.04-.82.07-1.22.09-.41.02-.83.04-1.24.04Z"/>
  </g>
  <g>
    <path d="M722.64,907.34c-12.22,0-24.53-1.29-36.76-3.89-94.38-20.08-154.83-113.2-134.76-207.58,9.73-45.72,36.68-84.92,75.88-110.37,39.21-25.45,85.98-34.11,131.7-24.39,45.72,9.73,84.92,36.68,110.37,75.88s34.11,85.98,24.39,131.7-36.68,84.92-75.88,110.37c-28.71,18.64-61.49,28.27-94.94,28.28ZM722.03,607.24c-23.89,0-47.3,6.88-67.81,20.2-28.01,18.18-47.25,46.18-54.2,78.84-14.34,67.42,28.84,133.93,96.25,148.27,32.66,6.95,66.07.76,94.07-17.42,28-18.18,47.25-46.18,54.2-78.84,6.95-32.66.76-66.07-17.42-94.07s-46.18-47.25-78.84-54.2h0c-8.74-1.86-17.53-2.78-26.26-2.78Z"/>
    <path d="M788.18,703.57c-6.58,0-13.03-2.67-17.68-7.32-4.65-4.65-7.32-11.1-7.32-17.68,0-.4,0-.82.03-1.23.02-.4.05-.82.09-1.22.08-.81.21-1.63.37-2.43.16-.8.36-1.6.6-2.38.23-.77.51-1.55.82-2.3.32-.75.67-1.49,1.05-2.21.38-.72.8-1.43,1.25-2.1.46-.68.94-1.35,1.46-1.98.26-.32.53-.63.8-.93.28-.31.56-.61.85-.89.29-.29.59-.58.89-.85.31-.28.62-.55.94-.81.63-.51,1.29-1,1.97-1.45s1.38-.87,2.1-1.26c.72-.38,1.46-.73,2.22-1.04.75-.31,1.52-.59,2.3-.83.78-.23,1.58-.43,2.37-.6.8-.16,1.62-.28,2.43-.36.4-.04.82-.07,1.22-.09.82-.05,1.65-.05,2.47,0,.41.02.82.05,1.23.09.81.08,1.62.2,2.42.36.8.17,1.6.37,2.38.6.77.24,1.55.52,2.3.83.75.31,1.49.66,2.21,1.04.72.39,1.43.81,2.1,1.26.68.45,1.35.94,1.98,1.45.31.26.63.53.93.81.3.27.6.56.89.85.29.28.58.58.85.89.28.3.55.61.8.93.52.63,1.01,1.3,1.46,1.98.45.67.87,1.38,1.26,2.1.38.72.73,1.46,1.04,2.21.31.75.59,1.53.83,2.3.24.78.44,1.58.6,2.38.16.8.28,1.62.36,2.43.04.4.08.82.1,1.22.02.41.03.83.03,1.23s0,.83-.03,1.24c-.02.4-.06.82-.1,1.22-.08.81-.2,1.63-.36,2.43s-.36,1.59-.6,2.37-.52,1.56-.83,2.31c-.31.75-.66,1.49-1.04,2.21-.39.72-.81,1.42-1.26,2.1-.45.68-.94,1.35-1.46,1.98-.25.31-.52.63-.8.93-.27.3-.56.6-.85.89s-.59.58-.89.85c-.3.27-.62.54-.93.8-.63.52-1.3,1.01-1.98,1.46-.67.45-1.38.87-2.1,1.25-.72.38-1.46.74-2.21,1.05s-1.53.59-2.3.82c-.78.24-1.58.44-2.38.6-.8.17-1.61.29-2.42.37-.41.04-.82.07-1.23.09-.41.02-.83.03-1.23.03Z"/>
  </g>
</svg>