<?xml version="1.0" encoding="UTF-8"?>
<svg id="a" data-name="layer1" xmlns="http://www.w3.org/2000/svg" viewBox="0 0 500 500">
  <g>
    <path d="M149.03,231.39c-6.38,0-12.79-.7-19.17-2.12-22.81-5.07-42.29-18.73-54.83-38.45-12.54-19.72-16.66-43.15-11.58-65.96,10.48-47.1,57.31-76.89,104.41-66.41,22.81,5.07,42.29,18.73,54.83,38.45,12.54,19.72,16.66,43.15,11.58,65.96-5.07,22.81-18.73,42.29-38.45,54.83-14.21,9.04-30.35,13.7-46.79,13.7ZM148.74,81.34c-11.75,0-23.27,3.33-33.42,9.79-14.09,8.96-23.84,22.87-27.46,39.17-3.62,16.3-.69,33.03,8.27,47.11,8.96,14.09,22.87,23.84,39.17,27.46h0c16.3,3.63,33.03.69,47.11-8.27s23.84-22.87,27.46-39.17c3.62-16.3.69-33.03-8.27-47.11-8.96-14.09-22.87-23.84-39.17-27.46-4.55-1.01-9.14-1.51-13.69-1.51Z"/>
    <path d="M129.84,171.86c-.26,0-.51,0-.77-.02-.26-.01-.51-.03-.77-.06-.51-.05-1.01-.13-1.52-.23-.49-.1-.99-.23-1.48-.37-.49-.15-.97-.32-1.44-.51-.47-.2-.94-.42-1.38-.66-.45-.24-.89-.5-1.32-.78-.42-.29-.84-.59-1.23-.91-.2-.16-.39-.33-.58-.5-.19-.18-.38-.35-.56-.53-.18-.18-.36-.37-.54-.56-.17-.19-.34-.38-.5-.58-.32-.39-.62-.81-.91-1.23-.28-.42-.54-.87-.78-1.32-.24-.44-.46-.91-.65-1.38-.2-.47-.37-.96-.52-1.44-.15-.49-.28-.99-.38-1.49s-.18-1.01-.23-1.51c-.03-.26-.04-.51-.06-.77-.01-.26-.02-.51-.02-.77s0-.51.02-.77c.01-.26.03-.51.06-.77.05-.51.13-1.02.23-1.51.1-.5.23-1,.38-1.49.15-.49.32-.97.52-1.44.19-.47.41-.94.65-1.38.24-.45.5-.89.78-1.32.29-.43.59-.84.91-1.23.16-.2.33-.39.5-.58.18-.19.36-.38.54-.56.18-.18.36-.36.56-.53.19-.17.38-.34.58-.5.39-.32.81-.62,1.23-.91.43-.28.87-.54,1.32-.78.44-.24.91-.46,1.38-.65.47-.19.95-.37,1.44-.52.49-.15.99-.28,1.48-.37.51-.1,1.01-.18,1.52-.23.26-.03.51-.04.77-.06.51-.03,1.02-.03,1.54,0,.26.01.51.03.77.06.51.06,1.02.13,1.51.23.5.1,1,.22,1.49.37s.97.32,1.44.52c.47.19.94.41,1.38.65.45.24.89.51,1.32.78.42.29.84.59,1.23.91.2.16.39.33.58.5.19.18.38.35.56.53.18.18.36.37.53.56.17.19.34.38.5.58.32.39.62.81.91,1.23.27.42.54.87.78,1.32.24.44.46.91.65,1.38.19.47.37.95.52,1.44.15.49.28.99.38,1.49.1.49.18,1.01.23,1.51.03.26.04.51.06.77.01.26.02.51.02.77s0,.51-.02.77c-.01.26-.03.51-.06.77-.06.51-.13,1.01-.23,1.51s-.23,1-.38,1.49c-.15.48-.32.97-.52,1.44-.19.47-.41.94-.65,1.38-.24.45-.51.89-.78,1.32-.29.42-.59.84-.91,1.23-.16.2-.33.39-.5.58-.17.19-.35.38-.53.56s-.37.36-.56.53c-.19.17-.38.34-.58.5-.39.32-.81.62-1.23.91-.43.28-.87.54-1.32.78-.44.24-.91.46-1.38.66-.47.19-.95.36-1.44.51-.49.15-.99.27-1.49.37-.49.1-1.01.18-1.51.23-.26.03-.51.04-.77.06-.26.01-.51.02-.77.02Z"/>
  </g>
  <g>
    <path d="M361.33,231.38c-5.39,0-10.82-.5-16.23-1.51-47.43-8.85-78.82-54.63-69.97-102.06h0c8.85-47.43,54.63-78.82,102.06-69.97,22.98,4.29,42.91,17.26,56.12,36.54,13.22,19.28,18.13,42.55,13.85,65.52-4.29,22.98-17.26,42.91-36.54,56.12-14.74,10.1-31.81,15.36-49.29,15.36ZM299.7,132.4h0c-3.06,16.41.45,33.03,9.89,46.8,9.44,13.77,23.68,23.04,40.09,26.1,16.41,3.06,33.03-.45,46.8-9.89,13.77-9.44,23.04-23.68,26.1-40.09,6.32-33.88-16.1-66.58-49.98-72.9-33.88-6.32-66.58,16.11-72.9,49.98Z"/>
    <path d="M347.64,141.4c-.26,0-.51,0-.77-.02-.26-.01-.51-.03-.77-.06-.51-.05-1.02-.13-1.52-.23-.49-.1-.99-.22-1.48-.37-.49-.15-.97-.32-1.44-.51-.47-.2-.94-.42-1.39-.66-.45-.24-.89-.5-1.31-.78-.42-.29-.84-.59-1.23-.91-.2-.16-.39-.33-.59-.5-.19-.18-.37-.35-.56-.53s-.36-.37-.53-.56c-.17-.19-.34-.38-.5-.58-.32-.39-.63-.81-.91-1.23s-.54-.87-.78-1.31c-.24-.45-.46-.92-.66-1.39-.19-.47-.37-.95-.51-1.44-.15-.49-.27-.99-.37-1.48-.1-.5-.18-1.01-.23-1.52-.03-.26-.04-.51-.06-.77-.01-.26-.02-.51-.02-.77s0-.51.02-.77c.01-.26.03-.51.06-.77.05-.51.13-1.01.23-1.51s.22-1,.37-1.49c.14-.48.32-.97.51-1.44.19-.47.42-.94.66-1.38.24-.45.5-.89.78-1.32.28-.43.59-.84.91-1.23.16-.2.33-.39.5-.58.18-.19.35-.38.53-.56s.37-.36.56-.53c.19-.17.39-.34.59-.5.39-.32.81-.62,1.23-.91.42-.28.86-.54,1.31-.78.45-.24.92-.46,1.39-.65s.95-.37,1.44-.52c.49-.15.99-.27,1.48-.37.5-.1,1.01-.18,1.52-.23.26-.03.51-.05.77-.06.51-.03,1.03-.03,1.54,0,.26.01.51.03.77.06.51.05,1.01.13,1.52.23.49.1.99.22,1.48.37s.97.33,1.44.52.94.41,1.38.65c.45.24.89.51,1.32.78.42.29.84.59,1.23.91.2.16.39.33.58.5.19.18.38.35.56.53s.36.37.53.56c.17.19.34.38.5.58.32.39.62.81.91,1.23.28.42.55.87.79,1.32.24.44.46.91.65,1.38.2.47.37.96.52,1.44.15.49.27.99.37,1.49s.18,1.01.23,1.51c.03.26.04.51.06.77.01.26.02.51.02.77s0,.51-.02.77c-.01.26-.03.51-.06.77-.06.51-.13,1.02-.23,1.52-.1.49-.22.99-.37,1.48s-.32.97-.52,1.44c-.19.47-.41.94-.65,1.39-.24.44-.51.89-.79,1.31-.28.42-.59.84-.91,1.23-.16.2-.33.39-.5.58-.18.19-.35.38-.53.56s-.37.36-.56.53c-.19.17-.38.34-.58.5-.39.32-.81.62-1.23.91-.42.28-.87.54-1.32.78-.44.24-.91.46-1.38.66-.47.19-.95.36-1.44.51s-.99.27-1.48.37c-.51.1-1.01.18-1.52.23-.26.03-.51.04-.77.06-.26.01-.51.02-.77.02Z"/>
  </g>
  <g>
    <path d="M144.04,448.67c-5.48,0-10.99-.52-16.49-1.56-47.4-8.99-78.65-54.87-69.66-102.27,8.99-47.4,54.87-78.65,102.27-69.66,47.4,8.99,78.65,54.87,69.66,102.27h0c-4.36,22.96-17.39,42.85-36.71,56.01-14.69,10.01-31.68,15.21-49.07,15.21ZM143.83,298.64c-29.42,0-55.7,20.92-61.38,50.86-3.11,16.4.35,33.03,9.75,46.83,9.4,13.8,23.61,23.11,40.01,26.22,16.4,3.11,33.03-.35,46.83-9.75,13.8-9.4,23.11-23.61,26.22-40.01h0c6.42-33.86-15.9-66.63-49.76-73.05-3.92-.74-7.82-1.1-11.67-1.1ZM217.54,375.24h0,0Z"/>
    <path d="M157.26,394.94c-.25,0-.51-.01-.77-.03-.25-.01-.51-.03-.76-.06-.51-.05-1.02-.13-1.52-.23-.5-.1-.99-.23-1.48-.37-.49-.15-.97-.32-1.44-.52-.47-.19-.93-.41-1.38-.66-.45-.24-.89-.5-1.31-.78-.43-.28-.84-.59-1.24-.91-.19-.16-.39-.33-.58-.5-.19-.18-.38-.35-.56-.53s-.36-.37-.53-.56c-.17-.19-.34-.39-.5-.59-.33-.39-.63-.81-.91-1.23-.28-.43-.54-.86-.78-1.31-.24-.45-.46-.91-.66-1.39-.19-.47-.37-.95-.51-1.44-.15-.49-.28-.99-.37-1.48-.1-.5-.18-1.01-.23-1.52-.03-.26-.04-.51-.06-.77-.01-.26-.02-.51-.02-.77s0-.51.02-.77c.01-.26.03-.51.06-.77.05-.51.13-1.01.23-1.51.1-.5.22-1,.37-1.49.14-.48.32-.97.51-1.44.19-.47.41-.93.66-1.38.24-.45.5-.89.78-1.31.28-.43.59-.84.91-1.24.16-.19.33-.39.5-.58.17-.19.35-.38.53-.56s.37-.36.56-.53c.19-.18.39-.34.58-.5.39-.33.81-.63,1.24-.91.42-.28.86-.54,1.31-.79.45-.24.91-.46,1.38-.65.47-.19.96-.37,1.44-.52.49-.15.98-.28,1.48-.38.5-.1,1.01-.18,1.52-.22.25-.03.51-.05.76-.06.51-.03,1.03-.03,1.54,0,.25.01.51.04.76.06.51.05,1.02.12,1.52.22s1,.23,1.49.38c.48.15.97.32,1.44.52.47.19.93.41,1.38.65.45.24.89.51,1.31.79.42.28.84.59,1.24.91.19.16.39.32.58.5.19.17.38.35.56.53s.36.37.53.56c.18.19.34.39.51.58.32.39.62.81.91,1.24.28.42.54.86.79,1.31.24.45.46.91.65,1.38.19.47.37.96.52,1.44.15.49.27.99.37,1.49s.18,1.01.23,1.51c.03.26.05.51.06.77.01.26.02.51.02.77s0,.51-.02.77c-.01.26-.03.51-.06.77-.05.51-.13,1.02-.23,1.52-.1.49-.23.99-.37,1.48-.15.49-.33.97-.52,1.44-.19.47-.41.94-.65,1.39-.24.45-.51.89-.79,1.31-.28.42-.59.84-.91,1.23-.16.2-.33.39-.51.59-.17.19-.35.38-.53.56s-.37.36-.56.53c-.19.17-.39.34-.58.5-.39.33-.81.63-1.24.91-.42.28-.86.54-1.31.78-.45.24-.91.46-1.38.66-.47.19-.96.37-1.44.52-.49.14-.99.27-1.49.37-.5.11-1.01.18-1.52.23-.25.02-.51.04-.76.06-.26.01-.52.03-.77.03Z"/>
  </g>
  <g>
    <path d="M361.32,453.67c-6.11,0-12.26-.64-18.38-1.94-47.19-10.04-77.42-56.6-67.38-103.79,4.86-22.86,18.34-42.46,37.94-55.19,19.6-12.73,42.99-17.06,65.85-12.19,22.86,4.86,42.46,18.34,55.19,37.94s17.06,42.99,12.19,65.85-18.34,42.46-37.94,55.19c-14.36,9.32-30.75,14.14-47.47,14.14ZM361.02,303.62c-11.95,0-23.65,3.44-33.9,10.1-14,9.09-23.63,23.09-27.1,39.42-7.17,33.71,14.42,66.97,48.13,74.14,16.33,3.47,33.03.38,47.04-8.71,14-9.09,23.63-23.09,27.1-39.42,3.47-16.33.38-33.03-8.71-47.04s-23.09-23.63-39.42-27.1h0c-4.37-.93-8.77-1.39-13.13-1.39Z"/>
    <path d="M379.92,369.08c-4.11,0-8.14-1.67-11.05-4.58-2.91-2.91-4.58-6.94-4.58-11.05,0-.25,0-.51.02-.77.01-.25.03-.51.06-.76.05-.51.13-1.02.23-1.52.1-.5.22-1,.37-1.49.14-.48.32-.97.51-1.44.2-.47.42-.93.66-1.38.24-.45.5-.89.78-1.31.29-.42.59-.84.91-1.24.16-.2.33-.39.5-.58.18-.19.35-.38.53-.56.18-.18.37-.36.56-.53.19-.17.39-.34.59-.51.39-.32.81-.62,1.23-.91s.86-.54,1.31-.79c.45-.24.91-.46,1.39-.65.47-.19.95-.37,1.44-.52.49-.14.99-.27,1.48-.37.5-.1,1.01-.18,1.52-.23.25-.03.51-.04.76-.06.51-.03,1.03-.03,1.54,0,.26.01.51.03.77.06.51.05,1.01.13,1.51.23.5.11,1,.23,1.49.37.48.15.97.32,1.44.52.47.19.93.41,1.38.65.45.24.89.51,1.31.79.42.28.84.59,1.24.91.19.16.39.33.58.51.19.17.37.35.56.53.18.17.36.36.53.56.18.19.34.38.5.58.32.39.63.81.91,1.24.28.42.54.86.79,1.31.24.45.46.91.65,1.38.19.47.37.96.52,1.44.15.49.27.99.37,1.49.1.5.18,1.01.23,1.52.03.25.05.51.06.76.01.26.02.52.02.77s0,.52-.02.78c-.01.25-.04.51-.06.76-.05.51-.13,1.02-.23,1.52s-.22.99-.37,1.48-.33.97-.52,1.44c-.19.47-.41.93-.65,1.38-.24.45-.51.89-.79,1.31-.28.42-.59.84-.91,1.24-.16.19-.33.39-.5.58-.17.19-.35.37-.53.56s-.37.36-.56.53c-.19.17-.39.34-.58.5-.39.32-.81.63-1.24.91-.42.28-.86.54-1.31.78-.45.24-.91.46-1.38.66s-.96.37-1.44.51c-.49.15-.99.27-1.49.37-.5.11-1.01.18-1.51.23-.26.03-.51.04-.77.06-.26.01-.52.02-.77.02Z"/>
  </g>
</svg>