<?xml version="1.0" encoding="UTF-8"?>
<svg id="a" data-name="layer1" xmlns="http://www.w3.org/2000/svg" viewBox="0 0 500 500">
  <g>
    <path d="M149.03,231.39c-6.38,0-12.79-.7-19.17-2.12-22.81-5.07-42.29-18.73-54.83-38.45-12.54-19.72-16.66-43.15-11.58-65.96,10.48-47.1,57.31-76.89,104.41-66.41,22.81,5.07,42.29,18.73,54.83,38.45,12.54,19.72,16.66,43.15,11.58,65.96-5.07,22.81-18.73,42.29-38.45,54.83-14.21,9.04-30.35,13.7-46.79,13.7ZM148.74,81.34c-11.75,0-23.27,3.33-33.42,9.79-14.09,8.96-23.84,22.87-27.46,39.17-3.62,16.3-.69,33.03,8.27,47.11,8.96,14.09,22.87,23.84,39.17,27.46h0c16.3,3.63,33.03.69,47.11-8.27s23.84-22.87,27.46-39.17c3.62-16.3.69-33.03-8.27-47.11-8.96-14.09-22.87-23.84-39.17-27.46-4.55-1.01-9.14-1.51-13.69-1.51Z"/>
    <path d="M115.67,182.91c-.21,0-.41,0-.62-.02-.21,0-.41-.02-.61-.04-.41-.04-.81-.1-1.22-.19-.4-.08-.79-.18-1.19-.3-.39-.12-.77-.26-1.15-.41-.38-.16-.75-.33-1.1-.52-.36-.19-.71-.4-1.06-.62-.34-.23-.67-.48-.98-.73-.16-.13-.31-.27-.46-.4-.16-.14-.31-.28-.45-.43-.14-.15-.29-.29-.43-.45-.14-.15-.27-.31-.4-.47-.26-.31-.5-.65-.73-.98-.23-.34-.44-.69-.62-1.06-.19-.35-.37-.73-.52-1.1-.16-.38-.3-.76-.42-1.15-.12-.39-.22-.79-.3-1.19s-.15-.81-.19-1.21c-.02-.21-.03-.41-.04-.62,0-.21-.01-.41-.01-.61s0-.41.01-.62c.01-.21.02-.41.04-.61.04-.41.1-.81.19-1.21.08-.4.18-.8.3-1.19.12-.39.25-.78.42-1.15.15-.38.33-.75.52-1.1.19-.36.4-.71.62-1.05.23-.34.47-.67.73-.99.13-.16.26-.31.4-.46.14-.15.29-.31.43-.45.14-.14.29-.28.45-.42.15-.13.3-.27.46-.4.31-.25.65-.5.98-.73.34-.22.7-.44,1.06-.62.35-.19.73-.37,1.1-.52.38-.16.76-.29,1.15-.42.39-.12.79-.22,1.19-.3.41-.08.81-.14,1.22-.19.2-.02.41-.04.61-.04.41-.02.82-.02,1.23,0,.21,0,.41.02.62.04.4.04.81.1,1.21.19.4.08.8.18,1.19.3s.77.26,1.15.42c.38.15.75.33,1.1.52.36.19.71.4,1.06.62.34.23.67.48.98.73.16.13.31.27.46.4.16.14.31.28.45.42.15.15.29.3.42.45.14.15.27.31.4.46.26.32.5.65.73.99.22.34.43.69.62,1.05.19.35.36.73.52,1.1.16.38.3.76.42,1.15.12.39.22.79.3,1.19.08.4.14.8.19,1.21.02.21.03.41.04.61,0,.21.02.41.02.62s0,.41-.02.61c-.01.21-.02.41-.04.62-.04.4-.1.81-.19,1.21s-.18.8-.3,1.19c-.12.39-.26.77-.42,1.15-.15.38-.33.75-.52,1.1-.19.36-.41.72-.62,1.06-.23.34-.48.67-.73.98-.13.16-.26.31-.4.47-.14.15-.28.3-.42.45s-.29.29-.45.43c-.15.13-.3.27-.46.4-.31.25-.65.5-.98.73-.34.23-.7.44-1.06.62-.35.19-.73.36-1.1.52-.38.15-.76.29-1.15.41-.39.12-.79.22-1.19.3-.4.08-.81.15-1.21.19-.21.02-.41.04-.62.04-.21.01-.41.02-.61.02Z"/>
  </g>
  <g>
    <path d="M361.33,231.38c-5.39,0-10.82-.5-16.23-1.51-47.43-8.85-78.82-54.63-69.97-102.06h0c8.85-47.43,54.63-78.82,102.06-69.97,22.98,4.29,42.91,17.26,56.12,36.54,13.22,19.28,18.13,42.55,13.85,65.52-4.29,22.98-17.26,42.91-36.54,56.12-14.74,10.1-31.81,15.36-49.29,15.36ZM299.7,132.4h0c-3.06,16.41.45,33.03,9.89,46.8,9.44,13.77,23.68,23.04,40.09,26.1,16.41,3.06,33.03-.45,46.8-9.89,13.77-9.44,23.04-23.68,26.1-40.09,6.32-33.88-16.1-66.58-49.98-72.9-33.88-6.32-66.58,16.11-72.9,49.98Z"/>
    <path d="M333.46,124.1c-.21,0-.41,0-.62-.02-.2,0-.41-.02-.61-.04-.41-.04-.81-.1-1.21-.19-.4-.08-.8-.18-1.19-.3-.39-.12-.77-.25-1.15-.41-.38-.16-.75-.33-1.11-.52-.36-.19-.71-.4-1.05-.62-.34-.23-.67-.48-.98-.73-.16-.13-.32-.27-.47-.4-.15-.14-.3-.28-.44-.43s-.29-.29-.43-.45c-.13-.15-.27-.31-.4-.47-.26-.31-.5-.65-.73-.98s-.44-.69-.62-1.05c-.19-.36-.37-.74-.52-1.11-.16-.38-.29-.76-.41-1.15-.12-.39-.22-.79-.3-1.19-.08-.4-.15-.81-.19-1.21-.02-.21-.04-.41-.04-.62-.01-.2-.02-.41-.02-.61s0-.41.02-.62c0-.2.02-.41.04-.61.04-.41.1-.81.19-1.21s.18-.8.3-1.19c.12-.39.25-.78.41-1.15.15-.38.33-.75.52-1.1.19-.36.4-.71.62-1.05.23-.34.47-.67.73-.98.13-.16.27-.32.4-.47.14-.15.28-.3.43-.45s.29-.29.44-.43c.15-.13.31-.27.47-.4.31-.25.65-.5.98-.73.34-.22.69-.44,1.05-.62.36-.19.74-.37,1.11-.52s.76-.29,1.15-.42c.39-.12.79-.22,1.19-.3.4-.08.81-.14,1.21-.18.21-.02.41-.04.61-.05.41-.02.82-.02,1.23,0,.21,0,.41.02.62.05.4.04.81.1,1.21.18.4.08.79.18,1.19.3s.77.26,1.15.42.75.33,1.1.52c.36.19.72.4,1.06.62.34.23.67.48.98.73.16.13.31.27.47.4.15.14.3.28.45.43s.29.29.43.45c.13.15.27.31.4.47.25.31.5.64.73.98.22.34.44.69.63,1.05.19.35.36.73.52,1.1.16.38.29.77.42,1.15.12.39.22.79.3,1.19s.14.8.19,1.21c.02.21.04.41.04.61.01.21.02.41.02.62s0,.41-.02.61c0,.21-.02.41-.04.62-.04.4-.1.81-.19,1.21-.08.4-.18.79-.3,1.19s-.25.77-.42,1.15c-.16.38-.33.75-.52,1.11-.19.35-.41.71-.63,1.05-.23.34-.47.67-.73.98-.13.16-.27.31-.4.47-.14.15-.28.3-.43.45s-.29.29-.45.43c-.15.13-.31.27-.47.4-.31.25-.65.5-.98.73-.34.23-.69.44-1.06.62-.35.19-.73.36-1.1.52-.38.16-.76.29-1.15.41s-.79.22-1.19.3c-.4.08-.81.15-1.21.19-.21.02-.41.04-.62.04-.2.01-.41.02-.61.02Z"/>
  </g>
  <g>
    <path d="M144.04,448.67c-5.48,0-10.99-.52-16.49-1.56-47.4-8.99-78.65-54.87-69.66-102.27,8.99-47.4,54.87-78.65,102.27-69.66,47.4,8.99,78.65,54.87,69.66,102.27h0c-4.36,22.96-17.39,42.85-36.71,56.01-14.69,10.01-31.68,15.21-49.07,15.21ZM143.83,298.64c-29.42,0-55.7,20.92-61.38,50.86-3.11,16.4.35,33.03,9.75,46.83,9.4,13.8,23.61,23.11,40.01,26.22,16.4,3.11,33.03-.35,46.83-9.75,13.8-9.4,23.11-23.61,26.22-40.01h0c6.42-33.86-15.9-66.63-49.76-73.05-3.92-.74-7.82-1.1-11.67-1.1ZM217.54,375.24h0,0Z"/>
    <path d="M171.44,405.99c-.2,0-.41-.01-.62-.02-.2-.01-.41-.03-.61-.04-.41-.04-.81-.1-1.22-.19-.4-.08-.79-.18-1.18-.3-.39-.12-.78-.26-1.16-.41-.38-.16-.75-.33-1.1-.53-.36-.19-.71-.4-1.05-.62-.34-.22-.68-.47-.99-.73-.15-.13-.31-.26-.46-.4-.15-.14-.3-.28-.45-.42s-.29-.29-.42-.45c-.13-.15-.27-.31-.4-.47-.26-.31-.5-.65-.73-.98-.23-.34-.44-.69-.62-1.05-.2-.36-.37-.73-.52-1.11-.16-.38-.3-.76-.41-1.15-.12-.39-.22-.79-.3-1.19-.08-.4-.15-.81-.19-1.22-.02-.2-.04-.41-.05-.61,0-.21-.01-.41-.01-.62s0-.41.01-.61c.01-.21.03-.41.05-.62.04-.4.1-.81.19-1.21.08-.4.18-.8.3-1.19.11-.38.25-.77.41-1.15.15-.38.33-.75.52-1.1.19-.36.4-.71.62-1.05.23-.34.47-.68.73-.99.12-.15.27-.31.4-.46.14-.15.28-.3.42-.45s.3-.29.45-.42c.15-.14.31-.27.46-.4.31-.26.65-.51.99-.73.33-.23.69-.44,1.05-.63.36-.19.73-.36,1.1-.52.38-.15.77-.29,1.16-.41.39-.12.78-.22,1.18-.3.4-.08.81-.14,1.22-.18.2-.02.41-.04.61-.05.41-.02.83-.02,1.23,0,.2.01.41.03.61.05.4.04.81.1,1.21.18s.8.18,1.19.3c.38.12.77.26,1.15.41.38.16.75.33,1.1.52.36.2.72.41,1.05.63.34.22.67.47.99.73.16.12.31.26.46.4.15.13.3.28.45.42s.29.29.42.45c.14.15.27.31.41.46.25.31.5.65.72.99.23.33.44.69.63,1.05.19.36.36.73.52,1.1.15.38.29.77.42,1.15.12.39.22.79.3,1.19s.14.81.18,1.21c.02.21.04.41.05.62.01.21.02.41.02.61s0,.41-.02.62c0,.21-.02.41-.05.61-.04.41-.1.82-.18,1.22-.08.4-.18.79-.3,1.19-.12.39-.26.77-.42,1.15-.16.38-.33.75-.52,1.11-.2.36-.41.71-.63,1.05-.22.34-.47.67-.72.98-.13.16-.27.31-.41.47-.13.15-.28.3-.42.45s-.29.28-.45.42c-.15.14-.31.27-.46.4-.31.26-.65.51-.99.73-.33.23-.69.44-1.05.62-.36.2-.73.37-1.1.53-.38.15-.77.29-1.15.41-.39.12-.79.22-1.19.3-.4.08-.81.15-1.21.19-.2.02-.41.03-.61.04-.21,0-.42.02-.62.02Z"/>
  </g>
  <g>
    <path d="M361.32,453.67c-6.11,0-12.26-.64-18.38-1.94-47.19-10.04-77.42-56.6-67.38-103.79,4.86-22.86,18.34-42.46,37.94-55.19,19.6-12.73,42.99-17.06,65.85-12.19,22.86,4.86,42.46,18.34,55.19,37.94s17.06,42.99,12.19,65.85-18.34,42.46-37.94,55.19c-14.36,9.32-30.75,14.14-47.47,14.14ZM361.02,303.62c-11.95,0-23.65,3.44-33.9,10.1-14,9.09-23.63,23.09-27.1,39.42-7.17,33.71,14.42,66.97,48.13,74.14,16.33,3.47,33.03.38,47.04-8.71,14-9.09,23.63-23.09,27.1-39.42,3.47-16.33.38-33.03-8.71-47.04s-23.09-23.63-39.42-27.1h0c-4.37-.93-8.77-1.39-13.13-1.39Z"/>
    <path d="M394.09,351.78c-3.29,0-6.52-1.33-8.84-3.66-2.33-2.32-3.66-5.55-3.66-8.84,0-.2,0-.41.02-.62,0-.2.02-.41.04-.61.04-.4.1-.81.19-1.21.08-.4.18-.8.3-1.19.12-.39.25-.78.41-1.15.16-.38.33-.74.52-1.1.19-.36.4-.71.62-1.05.23-.34.47-.67.73-.99.13-.16.27-.31.4-.46.14-.15.28-.31.43-.44.15-.15.29-.29.44-.43.15-.14.31-.27.47-.4.31-.25.65-.5.98-.73s.69-.44,1.05-.63c.36-.19.73-.37,1.11-.52.38-.16.76-.29,1.15-.42.39-.12.79-.21,1.19-.3.4-.08.81-.14,1.21-.18.2-.02.41-.04.61-.04.41-.02.83-.02,1.23,0,.21,0,.41.02.62.04.4.04.81.1,1.21.18.4.08.8.18,1.19.3.39.12.77.26,1.15.42.38.15.75.33,1.1.52.36.19.72.4,1.05.63.34.23.67.47.99.73.16.13.31.27.47.4.15.14.3.28.44.43.15.14.29.29.42.44.14.15.28.31.4.46.26.32.5.65.73.99.22.33.44.69.63,1.05.19.36.36.73.52,1.1.15.38.29.77.42,1.15.12.39.22.79.3,1.19.08.4.14.81.18,1.21.02.2.04.41.05.61.01.21.02.42.02.62s0,.42-.02.62c0,.2-.03.41-.05.61-.04.4-.1.81-.18,1.21s-.18.79-.3,1.19-.26.78-.42,1.15c-.16.38-.33.75-.52,1.11-.19.36-.41.71-.63,1.05-.23.34-.47.67-.73.99-.12.16-.26.32-.4.47-.13.15-.28.3-.42.44s-.29.29-.44.43c-.15.13-.31.27-.47.4-.31.26-.65.5-.99.73-.33.23-.69.44-1.05.62-.36.19-.73.37-1.1.52s-.76.29-1.15.41c-.39.12-.79.22-1.19.3-.4.08-.81.15-1.21.19-.21.02-.41.04-.62.04-.2.01-.41.02-.61.02Z"/>
  </g>
</svg>