<?xml version="1.0" encoding="UTF-8"?>
<svg id="a" xmlns="http://www.w3.org/2000/svg" version="1.1" viewBox="0 0 1000 1000">
  <!-- Generator: Adobe Illustrator 30.0.0, SVG Export Plug-In . SVG Version: 2.1.1 Build 123)  -->
  <path d="M500,137.7c48.9,0,96.4,9.6,141,28.4,43.1,18.2,81.9,44.4,115.2,77.7,33.3,33.3,59.4,72,77.7,115.2,18.9,44.6,28.5,92.1,28.5,141s-9.6,96.4-28.5,141c-18.2,43.1-44.4,81.9-77.7,115.2-33.3,33.3-72,59.4-115.2,77.7-44.6,18.9-92.1,28.5-141,28.5s-96.4-9.6-141-28.5c-43.1-18.2-81.9-44.4-115.2-77.7-33.3-33.3-59.4-72-77.7-115.2-18.9-44.6-28.4-92.1-28.4-141s9.6-96.4,28.4-141c18.2-43.1,44.4-81.9,77.7-115.2,33.3-33.3,72-59.4,115.2-77.7,44.6-18.9,92.1-28.4,141-28.4M500,87.7c-227.7,0-412.3,184.6-412.3,412.3s184.6,412.3,412.3,412.3,412.3-184.6,412.3-412.3S727.7,87.7,500,87.7h0Z"/>
  <circle cx="650" cy="350" r="74.9"/>
</svg>