<?xml version="1.0" encoding="UTF-8"?>
<svg id="a" data-name="layer1" xmlns="http://www.w3.org/2000/svg" viewBox="0 0 500 500">
  <g>
    <path d="M149.029,231.389c-6.376,0-12.795-.701-19.169-2.119-22.814-5.074-42.288-18.729-54.832-38.45-12.544-19.721-16.658-43.146-11.583-65.96,10.475-47.097,57.314-76.887,104.41-66.415,22.815,5.075,42.288,18.73,54.832,38.451,12.544,19.721,16.657,43.146,11.583,65.96-5.074,22.814-18.729,42.288-38.45,54.832-14.21,9.039-30.348,13.701-46.791,13.702ZM148.735,81.336c-11.747,0-23.27,3.329-33.422,9.787-14.086,8.96-23.84,22.869-27.464,39.165-3.625,16.296-.687,33.029,8.274,47.115,8.96,14.086,22.869,23.84,39.165,27.465h0c16.298,3.626,33.029.686,47.115-8.274s23.84-22.869,27.464-39.165c3.625-16.296.687-33.028-8.273-47.115-8.96-14.086-22.87-23.84-39.166-27.465-4.552-1.012-9.14-1.513-13.692-1.513Z"/>
    <path d="M129.838,171.861c-.256,0-.513-.006-.769-.019-.256-.012-.513-.031-.768-.056-.507-.05-1.013-.131-1.519-.231-.494-.1-.994-.225-1.481-.375-.487-.15-.969-.319-1.437-.513-.469-.2-.938-.419-1.381-.656-.45-.237-.894-.5-1.319-.781-.425-.287-.837-.594-1.231-.912-.2-.163-.394-.331-.581-.5-.194-.175-.381-.35-.557-.532-.181-.181-.362-.369-.537-.562-.169-.188-.338-.381-.5-.582-.319-.394-.625-.806-.912-1.231-.281-.425-.544-.869-.781-1.319-.238-.444-.457-.912-.65-1.381-.2-.469-.369-.956-.519-1.437-.15-.488-.275-.988-.375-1.487s-.181-1.006-.231-1.512c-.025-.256-.043-.513-.056-.769-.012-.256-.018-.512-.018-.768s.006-.513.018-.769c.013-.256.031-.512.056-.768.05-.507.131-1.019.231-1.512.1-.5.225-1,.375-1.487.15-.488.319-.969.519-1.438.193-.469.412-.938.65-1.381.237-.45.5-.894.781-1.318.287-.425.593-.837.912-1.232.162-.2.331-.394.5-.581.175-.193.356-.381.537-.563.175-.181.363-.356.557-.531.187-.168.381-.338.581-.5.394-.319.806-.625,1.231-.912.425-.275.869-.544,1.319-.781.444-.237.912-.457,1.381-.65.469-.194.95-.369,1.437-.519.488-.15.988-.275,1.481-.375.507-.1,1.013-.175,1.519-.231.256-.025.512-.044.768-.056.513-.025,1.025-.025,1.537,0,.256.012.513.031.769.056.506.056,1.019.131,1.512.231.5.099,1,.225,1.487.375s.969.325,1.437.519c.469.193.938.413,1.381.65.45.237.894.506,1.319.781.425.287.837.594,1.231.912.2.162.394.331.581.5.194.175.381.35.563.531.181.181.356.369.531.563.169.187.338.381.5.581.319.394.625.806.913,1.232.275.425.543.869.781,1.318.237.444.456.912.649,1.381.194.469.369.95.519,1.438.15.487.275.987.375,1.487.1.494.175,1.006.231,1.512.025.256.043.512.056.768.012.256.019.513.019.769s-.007.512-.019.768c-.013.256-.031.513-.056.769-.056.506-.131,1.013-.231,1.512s-.225,1-.375,1.487c-.15.482-.325.969-.519,1.437-.193.469-.412.938-.649,1.381-.238.45-.507.894-.781,1.319-.288.425-.594.837-.913,1.231-.162.2-.331.394-.5.582-.175.193-.35.381-.531.562s-.369.356-.563.532c-.187.168-.381.337-.581.5-.394.319-.806.625-1.231.912-.425.281-.869.544-1.319.781-.444.237-.912.456-1.381.656-.469.193-.95.363-1.437.513-.488.15-.988.275-1.487.375-.494.1-1.006.181-1.512.231-.256.025-.513.044-.769.056-.256.013-.513.019-.768.019Z"/>
  </g>
  <g>
    <path d="M361.327,231.383c-5.39,0-10.815-.499-16.229-1.508-47.43-8.846-78.819-54.63-69.973-102.061h0c8.847-47.43,54.628-78.819,102.061-69.973,22.976,4.286,42.908,17.262,56.124,36.539,13.216,19.277,18.134,42.546,13.849,65.522-4.285,22.976-17.262,42.908-36.538,56.124-14.735,10.103-31.807,15.357-49.293,15.357ZM299.702,132.398h0c-3.061,16.411.452,33.033,9.893,46.802,9.44,13.769,23.677,23.038,40.088,26.099,16.41,3.062,33.032-.452,46.801-9.892,13.769-9.44,23.038-23.677,26.099-40.088,6.319-33.878-16.102-66.581-49.98-72.9-33.881-6.318-66.578,16.106-72.9,49.98Z"/>
    <path d="M347.638,141.397c-.256,0-.513-.006-.769-.019-.256-.012-.512-.031-.768-.056-.507-.05-1.019-.131-1.519-.231-.494-.1-.994-.225-1.481-.375-.488-.15-.969-.319-1.437-.513-.469-.2-.938-.419-1.388-.656-.45-.237-.887-.5-1.312-.781-.425-.287-.837-.594-1.231-.912-.2-.162-.394-.331-.588-.5-.187-.175-.375-.35-.556-.532s-.356-.369-.532-.562c-.168-.188-.338-.381-.5-.582-.325-.394-.631-.806-.912-1.231s-.544-.869-.781-1.312c-.237-.45-.463-.919-.656-1.388-.194-.469-.369-.95-.513-1.437-.15-.488-.275-.988-.375-1.481-.1-.5-.181-1.013-.231-1.519-.025-.256-.044-.513-.056-.769-.013-.256-.019-.512-.019-.768s.006-.513.019-.769c.012-.256.031-.512.056-.768.05-.507.131-1.013.231-1.512s.225-1,.375-1.487c.144-.482.319-.969.513-1.438.193-.469.419-.938.656-1.381.237-.45.5-.894.781-1.318.281-.425.588-.837.912-1.231.162-.2.331-.394.5-.582.175-.193.35-.381.532-.562s.369-.356.556-.532c.193-.168.388-.338.588-.5.394-.319.806-.625,1.231-.912.425-.275.862-.544,1.312-.781.45-.237.919-.457,1.388-.65s.95-.369,1.437-.519c.487-.15.988-.275,1.481-.375.5-.1,1.012-.175,1.519-.225.256-.031.513-.05.768-.062.513-.025,1.025-.025,1.537,0,.256.012.513.031.769.062.506.05,1.013.125,1.519.225.494.1.994.225,1.481.375s.969.325,1.437.519.938.413,1.381.65c.45.237.894.506,1.319.781.425.287.837.594,1.231.912.2.162.394.331.582.5.193.175.381.35.562.532s.356.369.532.562c.168.187.338.381.5.582.319.394.625.806.906,1.231.281.425.55.869.787,1.318.237.444.456.912.65,1.381.2.469.369.956.519,1.438.15.487.275.988.375,1.487s.175,1.006.231,1.512c.025.256.044.513.056.768.013.256.019.513.019.769s-.006.513-.019.768c-.012.256-.031.513-.056.769-.056.506-.131,1.019-.231,1.519-.1.494-.225.994-.375,1.481s-.319.969-.519,1.437c-.194.469-.413.938-.65,1.388-.237.444-.507.887-.787,1.312-.281.425-.588.837-.906,1.231-.162.2-.331.394-.5.582-.175.193-.35.381-.532.562s-.369.356-.562.532c-.188.168-.381.338-.582.5-.394.319-.806.625-1.231.912-.425.281-.869.544-1.319.781-.444.237-.912.456-1.381.656-.469.194-.95.363-1.437.513s-.988.275-1.481.375c-.506.1-1.013.181-1.519.231-.256.025-.513.044-.769.056-.256.013-.512.019-.768.019Z"/>
  </g>
  <g>
    <path d="M144.042,448.668c-5.476,0-10.991-.516-16.49-1.558-47.402-8.991-78.652-54.871-69.662-102.273,8.992-47.402,54.87-78.647,102.273-69.662,47.403,8.992,78.653,54.871,69.662,102.273h0c-4.355,22.963-17.393,42.855-36.709,56.012-14.691,10.007-31.679,15.208-49.074,15.208ZM143.833,298.636c-29.421,0-55.701,20.917-61.38,50.86-3.111,16.402.352,33.034,9.75,46.831,9.398,13.798,23.606,23.11,40.008,26.221,16.404,3.114,33.034-.351,46.832-9.749,13.797-9.397,23.109-23.608,26.221-40.009h0c6.422-33.859-15.899-66.63-49.758-73.052-3.916-.743-7.823-1.102-11.671-1.102ZM217.544,375.239h.005-.005Z"/>
    <path d="M157.261,394.941c-.25,0-.513-.013-.769-.025-.25-.013-.513-.032-.762-.056-.507-.05-1.019-.125-1.519-.231-.5-.1-.994-.225-1.481-.369-.488-.15-.969-.325-1.444-.518-.469-.194-.931-.413-1.381-.657-.45-.237-.894-.5-1.312-.781-.425-.281-.844-.587-1.238-.912-.193-.162-.394-.331-.581-.5-.187-.175-.375-.35-.557-.531s-.362-.369-.531-.557c-.168-.193-.344-.388-.5-.587-.325-.394-.631-.806-.912-1.231-.281-.425-.544-.863-.781-1.313-.244-.45-.463-.912-.656-1.387-.194-.469-.369-.95-.513-1.437-.15-.488-.275-.988-.375-1.481-.1-.5-.181-1.013-.231-1.519-.025-.256-.044-.512-.057-.768-.012-.256-.018-.513-.018-.769s.006-.512.018-.768c.013-.256.032-.513.057-.769.05-.506.131-1.013.231-1.512.099-.5.225-1,.375-1.487.143-.481.319-.969.513-1.437.193-.469.412-.931.656-1.381.237-.45.5-.894.781-1.312.281-.425.587-.844.912-1.238.156-.193.331-.394.5-.581.169-.188.35-.375.531-.557s.369-.363.557-.531c.187-.175.388-.344.581-.5.394-.325.812-.632,1.238-.912.419-.281.862-.544,1.312-.788.45-.237.912-.456,1.381-.65.475-.193.956-.369,1.444-.518.487-.15.981-.275,1.481-.375.5-.1,1.013-.175,1.519-.225.25-.025.512-.05.762-.063.513-.025,1.031-.025,1.544,0,.25.013.513.038.763.063.506.049,1.019.125,1.519.225s1,.225,1.487.375c.481.15.969.325,1.437.518.469.194.931.413,1.381.65.45.244.894.507,1.313.788.425.281.844.587,1.237.912.194.156.394.325.581.5.188.168.375.35.557.531s.363.369.531.557c.175.187.344.388.507.581.319.394.625.812.906,1.238.281.419.544.862.788,1.312.237.45.456.912.65,1.381.193.469.369.956.519,1.437.15.488.275.988.375,1.487s.175,1.006.225,1.512c.031.256.05.513.062.769.013.256.019.513.019.768s-.006.513-.019.769c-.012.256-.031.513-.062.768-.05.507-.125,1.019-.225,1.519-.1.494-.225.994-.375,1.481-.15.487-.325.969-.519,1.437-.194.475-.413.938-.65,1.387-.244.45-.507.887-.788,1.313-.281.425-.587.837-.906,1.231-.163.2-.331.394-.507.587-.168.188-.35.375-.531.557s-.369.356-.557.531c-.187.169-.387.338-.581.5-.394.325-.812.632-1.237.912-.419.281-.862.544-1.313.781-.45.244-.912.463-1.381.657-.469.193-.956.369-1.437.518-.488.144-.988.269-1.487.369-.5.106-1.013.181-1.519.231-.25.024-.513.043-.763.056-.256.012-.519.025-.775.025Z"/>
  </g>
  <g>
    <path d="M361.318,453.672c-6.111,0-12.264-.643-18.382-1.944-47.191-10.04-77.417-56.601-67.378-103.792,4.864-22.86,18.338-42.459,37.942-55.185,19.604-12.726,42.991-17.055,65.85-12.193,22.86,4.863,42.459,18.338,55.185,37.941s17.056,42.99,12.193,65.85-18.338,42.459-37.941,55.185c-14.357,9.32-30.746,14.137-47.468,14.138ZM361.016,303.621c-11.945,0-23.649,3.44-33.905,10.098-14.003,9.09-23.627,23.089-27.101,39.418-7.171,33.708,14.419,66.966,48.127,74.137,16.329,3.474,33.034.381,47.036-8.709,14.002-9.09,23.627-23.089,27.101-39.418,3.474-16.329.381-33.033-8.709-47.036s-23.089-23.627-39.418-27.101h0c-4.369-.93-8.767-1.389-13.131-1.389Z"/>
    <path d="M379.917,369.082c-4.113,0-8.144-1.669-11.05-4.575-2.906-2.906-4.575-6.937-4.575-11.05,0-.25.006-.513.019-.769.012-.25.031-.512.056-.762.05-.506.131-1.019.231-1.519.1-.5.225-1,.375-1.487.144-.482.319-.969.513-1.438.2-.469.419-.931.656-1.381.237-.45.5-.894.781-1.312.287-.425.588-.844.912-1.238.162-.2.331-.394.5-.581.175-.193.35-.381.532-.556.181-.181.369-.363.556-.532.193-.175.388-.344.588-.506.394-.319.806-.625,1.231-.906s.862-.544,1.312-.787c.45-.237.912-.457,1.388-.65.469-.194.95-.369,1.437-.519.487-.144.988-.269,1.481-.375.5-.1,1.012-.175,1.519-.225.25-.025.513-.044.762-.056.513-.031,1.031-.031,1.544,0,.256.012.513.031.769.056.506.05,1.013.125,1.512.225.5.106,1,.231,1.487.375.482.15.969.325,1.437.519.469.193.931.413,1.381.65.45.244.894.506,1.313.787.425.281.844.588,1.237.906.194.162.394.331.582.506.187.169.375.35.556.532.181.175.363.363.531.556.175.187.344.381.5.581.325.394.631.813.912,1.238.281.419.544.862.787,1.312.237.45.456.912.65,1.381.193.469.369.956.519,1.438.15.487.275.987.375,1.487.1.5.175,1.013.225,1.519.025.25.05.513.062.762.013.256.019.519.019.769,0,.256-.006.519-.019.775-.012.25-.037.512-.062.762-.05.506-.125,1.019-.225,1.519s-.225.994-.375,1.481-.325.975-.519,1.443c-.194.469-.413.931-.65,1.382-.244.45-.507.887-.787,1.312-.281.425-.588.844-.912,1.237-.156.194-.325.394-.5.582-.168.187-.35.375-.531.556s-.369.363-.556.532c-.188.168-.388.337-.582.5-.394.325-.812.631-1.237.912-.419.281-.862.544-1.313.781-.45.237-.912.463-1.381.656s-.956.369-1.437.513c-.488.15-.988.275-1.487.375-.5.106-1.006.181-1.512.231-.256.025-.513.044-.769.056-.256.013-.518.019-.768.019Z"/>
  </g>
</svg>