<?xml version="1.0" encoding="UTF-8"?>
<svg id="a" data-name="layer1" xmlns="http://www.w3.org/2000/svg" viewBox="0 0 500 500">
  <path d="M323.69,149.814l-64.874,64.853h0c-3.116,3.116-4.924,8.499-4.299,12.798,1.178,8.108,6.108,14.353,13.188,16.703,1.962.651,3.97.969,5.957.969,4.882,0,9.632-1.916,13.222-5.505l63.31-63.311c3.54-3.54,5.49-8.246,5.49-13.253s-1.95-9.713-5.489-13.252c-7.306-7.308-19.195-7.309-26.505-.002Z"/>
  <path d="M250,43.858c-113.849,0-206.142,92.293-206.142,206.142s92.293,206.142,206.142,206.142,206.142-92.293,206.142-206.142S363.849,43.858,250,43.858ZM378.087,378.087c-16.644,16.644-36.019,29.708-57.586,38.831-22.316,9.439-46.036,14.225-70.501,14.225s-48.185-4.786-70.501-14.225c-21.567-9.122-40.942-22.187-57.586-38.831-16.644-16.644-29.708-36.019-38.831-57.586-9.439-22.316-14.225-46.036-14.225-70.501s4.786-48.185,14.225-70.501c9.122-21.567,22.187-40.942,38.831-57.586,16.644-16.644,36.019-29.708,57.586-38.831,22.316-9.439,46.036-14.225,70.501-14.225s48.185,4.786,70.501,14.225c21.567,9.122,40.942,22.187,57.586,38.831,16.644,16.644,29.708,36.018,38.831,57.586,9.439,22.316,14.225,46.036,14.225,70.501s-4.786,48.185-14.225,70.501c-9.122,21.567-22.187,40.942-38.831,57.586Z"/>
</svg>