<?xml version="1.0" encoding="UTF-8"?>
<svg id="a" xmlns="http://www.w3.org/2000/svg" version="1.1" viewBox="0 0 1000 1000">
  <!-- Generator: Adobe Illustrator 30.0.0, SVG Export Plug-In . SVG Version: 2.1.1 Build 123)  -->
  <path d="M298.1,462.8c-12.8,0-25.6-1.4-38.3-4.2-45.6-10.1-84.6-37.5-109.7-76.9-25.1-39.4-33.3-86.3-23.2-131.9,20.9-94.2,114.6-153.8,208.8-132.8,45.6,10.2,84.6,37.5,109.7,76.9,25.1,39.4,33.3,86.3,23.2,131.9-10.1,45.6-37.5,84.6-76.9,109.7-28.4,18.1-60.7,27.4-93.6,27.4h0ZM297.5,162.7c-23.5,0-46.5,6.7-66.8,19.6-28.2,17.9-47.7,45.7-54.9,78.3-7.2,32.6-1.4,66.1,16.6,94.2s45.7,47.7,78.3,54.9h0c32.6,7.2,66.1,1.4,94.2-16.5s47.7-45.7,54.9-78.3,1.4-66.1-16.5-94.2c-17.9-28.2-45.7-47.7-78.3-54.9-9.1-2-18.3-3-27.4-3h0Z"/>
  <path d="M722.7,462.8c-10.8,0-21.6-1-32.5-3-94.9-17.7-157.6-109.3-140-204.1h0c17.7-94.9,109.3-157.6,204.1-139.9,46,8.6,85.8,34.5,112.2,73.1,26.4,38.6,36.3,85.1,27.7,131-8.6,46-34.5,85.8-73.1,112.2-29.5,20.2-63.6,30.7-98.6,30.7h0ZM599.4,264.8h0c-6.1,32.8.9,66.1,19.8,93.6,18.9,27.5,47.3,46.1,80.2,52.2,32.8,6.1,66.1-.9,93.6-19.8s46.1-47.4,52.2-80.2c12.6-67.8-32.2-133.2-100-145.8s-133.2,32.2-145.8,100h0Z"/>
  <path d="M288.1,897.3c-11,0-22-1-33-3.1-94.8-18-157.3-109.7-139.3-204.5,18-94.8,109.7-157.3,204.6-139.3,94.8,18,157.3,109.7,139.3,204.5h0c-8.7,45.9-34.8,85.7-73.4,112-29.4,20-63.4,30.4-98.1,30.4ZM287.7,597.3c-58.8,0-111.4,41.8-122.8,101.7-6.2,32.8.7,66.1,19.5,93.7,18.8,27.6,47.2,46.2,80,52.4,32.8,6.2,66.1-.7,93.7-19.5,27.6-18.8,46.2-47.2,52.4-80h0c12.8-67.7-31.8-133.3-99.5-146.1-7.8-1.5-15.6-2.2-23.3-2.2h0ZM435.1,750.2h0Z"/>
  <path d="M722.6,907.3c-12.2,0-24.5-1.3-36.8-3.9-94.4-20.1-154.8-113.2-134.8-207.6,9.7-45.7,36.7-84.9,75.9-110.4,39.2-25.5,86-34.1,131.7-24.4,45.7,9.7,84.9,36.7,110.4,75.9s34.1,86,24.4,131.7-36.7,84.9-75.9,110.4c-28.7,18.6-61.5,28.3-94.9,28.3ZM722,607.2c-23.9,0-47.3,6.9-67.8,20.2-28,18.2-47.2,46.2-54.2,78.8-14.3,67.4,28.8,133.9,96.2,148.3,32.7,7,66.1.8,94.1-17.4s47.2-46.2,54.2-78.8c7-32.7.8-66.1-17.4-94.1s-46.2-47.2-78.8-54.2h0c-8.7-1.9-17.5-2.8-26.3-2.8h0Z"/>
  <circle cx="297.7" cy="231.9" r="37.1"/>
  <circle cx="685.1" cy="241.4" r="37.1"/>
  <circle cx="768.3" cy="778.3" r="37.1"/>
  <circle cx="334.9" cy="685.2" r="37.1"/>
</svg>