<?xml version="1.0" encoding="UTF-8"?>
<svg id="a" data-name="layer1" xmlns="http://www.w3.org/2000/svg" viewBox="0 0 1000 1000">
  <path d="M550.05,425h-25.05v-234.38c.01-4.84-3.1-11.26-6.99-14.16-20.54-15.33-43.01-1.01-43.01,18.55v229.99h-24.13c-40.5,0-74.41,31.75-75.88,72.22-1.55,42.62,32.69,77.78,75,77.78h25.02v229.49c0,12.78,10.39,24.51,23.14,25.43,14.65,1.06,26.86-10.5,26.86-24.92v-230.01s24.16,0,24.16,0c40.5,0,74.41-31.75,75.88-72.22,1.55-42.62-32.69-77.78-75-77.78ZM550,525h-100c-13.79,0-25-11.21-25-25s11.21-25,25-25h100c13.79,0,25,11.21,25,25s-11.21,25-25,25Z"/>
  <path d="M250.05,275h-25.05v-84.38c0-4.84-3.11-11.26-6.99-14.16-20.54-15.33-43.01-1.01-43.01,18.55v79.99h-24.13c-40.5,0-74.41,31.75-75.88,72.22-1.55,42.62,32.69,77.78,75,77.78h25.02v379.49c0,12.78,10.39,24.51,23.14,25.43,14.65,1.06,26.86-10.5,26.86-24.92l.02-380.01h24.14c40.5,0,74.41-31.75,75.88-72.22,1.55-42.62-32.69-77.78-75-77.78ZM250,375h-100c-13.79,0-25-11.21-25-25s11.21-25,25-25h100c13.79,0,25,11.21,25,25s-11.21,25-25,25Z"/>
  <path d="M850.05,592h-25.05l.02-400.89c0-4.84-3.12-11.26-7-14.16-20.55-15.33-43.02-1.01-43.02,18.55v396.51h-24.13c-40.5,0-74.41,31.75-75.88,72.22-1.55,42.62,32.69,77.78,75,77.78h25.02v62.98c0,12.78,10.39,24.51,23.14,25.43,14.65,1.06,26.86-10.5,26.86-24.92v-63.49s24.16,0,24.16,0c40.5,0,74.41-31.75,75.88-72.22,1.55-42.62-32.69-77.78-75-77.78ZM850,692h-99.48c-12.76,0-24.49-10.36-25.44-23.08-1.1-14.65,10.51-26.92,24.93-26.92h99.48c12.76,0,24.49,10.36,25.44,23.08,1.1,14.65-10.51,26.92-24.93,26.92Z"/>
</svg>