<?xml version="1.0" encoding="UTF-8"?>
<svg id="a" data-name="layer1" xmlns="http://www.w3.org/2000/svg" viewBox="0 0 500 500">
  <path d="M362.5,187.52v-12.52h42.19c2.42,0,5.63-1.56,7.08-3.5,7.66-10.27.51-21.5-9.27-21.5h-40v-12.07c0-20.25-15.87-37.2-36.11-37.94-21.31-.77-38.89,16.35-38.89,37.5v12.51H97.75c-6.39,0-12.25,5.19-12.71,11.57-.53,7.32,5.25,13.43,12.46,13.43h190s0,12.08,0,12.08c0,20.25,15.87,37.2,36.11,37.94,21.31.77,38.89-16.35,38.89-37.5ZM312.5,187.5v-50c0-6.89,5.61-12.5,12.5-12.5s12.5,5.61,12.5,12.5v50c0,6.89-5.61,12.5-12.5,12.5s-12.5-5.61-12.5-12.5Z"/>
  <path d="M204,362.52v-12.52h200.53c2.42.01,5.63-1.55,7.08-3.49,7.67-10.27.51-21.51-9.28-21.51h-198.33v-12.07c0-20.25-15.87-37.2-36.11-37.94-21.31-.77-38.89,16.35-38.89,37.5v12.51h-31.49c-6.39,0-12.25,5.19-12.71,11.57-.53,7.32,5.25,13.43,12.46,13.43h31.74s0,12.08,0,12.08c0,20.25,15.87,37.2,36.11,37.94,21.31.77,38.89-16.35,38.89-37.5ZM154,362.5v-49.74c0-6.38,5.18-12.25,11.54-12.72,7.32-.55,13.46,5.25,13.46,12.46v49.74c0,6.38-5.18,12.25-11.54,12.72-7.32.55-13.46-5.25-13.46-12.46Z"/>
</svg>