<?xml version="1.0" encoding="UTF-8"?>
<svg id="a" data-name="layer1" xmlns="http://www.w3.org/2000/svg" viewBox="0 0 500 500">
  <path d="M275.02,212.5h-12.52v-117.19c0-2.42-1.55-5.63-3.49-7.08-10.27-7.66-21.51-.51-21.51,9.27v114.99h-12.07c-20.25,0-37.2,15.87-37.94,36.11-.77,21.31,16.35,38.89,37.5,38.89h12.51v114.75c0,6.39,5.19,12.25,11.57,12.71,7.32.53,13.43-5.25,13.43-12.46v-115s12.08,0,12.08,0c20.25,0,37.2-15.87,37.94-36.11.77-21.31-16.35-38.89-37.5-38.89ZM275,262.5h-50c-6.89,0-12.5-5.61-12.5-12.5s5.61-12.5,12.5-12.5h50c6.89,0,12.5,5.61,12.5,12.5s-5.61,12.5-12.5,12.5Z"/>
  <path d="M125.02,137.5h-12.52v-42.19c0-2.42-1.56-5.63-3.5-7.08-10.27-7.66-21.5-.51-21.5,9.27v39.99h-12.07c-20.25,0-37.2,15.87-37.94,36.11-.77,21.31,16.35,38.89,37.5,38.89h12.51v189.75c0,6.39,5.19,12.25,11.57,12.71,7.32.53,13.43-5.25,13.43-12.46v-190s12.08,0,12.08,0c20.25,0,37.2-15.87,37.94-36.11.77-21.31-16.35-38.89-37.5-38.89ZM125,187.5h-50c-6.89,0-12.5-5.61-12.5-12.5s5.61-12.5,12.5-12.5h50c6.89,0,12.5,5.61,12.5,12.5s-5.61,12.5-12.5,12.5Z"/>
  <path d="M425.02,296h-12.52V95.55c.01-2.42-1.55-5.63-3.49-7.08-10.27-7.66-21.51-.51-21.51,9.27v198.25h-12.07c-20.25,0-37.2,15.87-37.94,36.11-.77,21.31,16.35,38.89,37.5,38.89h12.51v31.49c0,6.39,5.19,12.25,11.57,12.71,7.32.53,13.43-5.25,13.43-12.46v-31.74s12.08,0,12.08,0c20.25,0,37.2-15.87,37.94-36.11.77-21.31-16.35-38.89-37.5-38.89ZM425,346h-49.74c-6.38,0-12.25-5.18-12.72-11.54-.55-7.32,5.25-13.46,12.46-13.46h49.74c6.38,0,12.25,5.18,12.72,11.54.55,7.32-5.25,13.46-12.46,13.46Z"/>
</svg>