<?xml version="1.0" encoding="UTF-8"?>
<svg id="a" data-name="layer1" xmlns="http://www.w3.org/2000/svg" viewBox="0 0 500 500">
  <path d="M362.5,187.523v-12.523l70.538.002c2.422,0,5.632-1.557,7.08-3.498,7.665-10.27.507-21.504-9.274-21.504h-68.344v-12.066c0-20.25-15.874-37.204-36.111-37.94-21.308-.774-38.889,16.346-38.889,37.498v12.508H69.408c-6.391,0-12.253,5.194-12.715,11.568-.531,7.324,5.251,13.431,12.458,13.432l218.349.01v12.072c0,20.25,15.874,37.204,36.111,37.94,21.308.774,38.889-16.346,38.889-37.498ZM312.5,187.5v-50c0-6.893,5.607-12.5,12.5-12.5s12.5,5.607,12.5,12.5v50c0,6.893-5.607,12.5-12.5,12.5s-12.5-5.607-12.5-12.5Z"/>
  <path d="M175.654,362.523v-12.523l257.219.01c2.423,0,5.633-1.558,7.083-3.499,7.667-10.273.507-21.511-9.277-21.511h-255.024v-12.066c0-20.25-15.874-37.204-36.111-37.94-21.308-.774-38.889,16.346-38.889,37.498v12.508h-31.488c-6.391,0-12.253,5.194-12.715,11.568-.531,7.324,5.251,13.431,12.458,13.432l31.745.002v12.08c0,20.25,15.874,37.204,36.111,37.94,21.308.774,38.889-16.346,38.889-37.498ZM125.654,362.5v-49.742c0-6.378,5.181-12.245,11.541-12.722,7.324-.549,13.459,5.254,13.459,12.464v49.742c0,6.378-5.181,12.245-11.541,12.722-7.324.549-13.459-5.254-13.459-12.464Z"/>
</svg>