<?xml version="1.0" encoding="UTF-8"?>
<svg id="a" data-name="layer1" xmlns="http://www.w3.org/2000/svg" viewBox="0 0 1000 1000">
  <path d="M550,425h-25.01v-234.38c.01-4.84-3.1-11.26-6.98-14.16-20.54-15.33-43-1.01-43,18.55v229.99h-25c-41.36,0-75,33.64-75,75s33.64,75,75,75h25v230c0,13.8,11.19,24.98,24.98,24.98s24.98-11.19,24.98-24.98v-230.01h25.03c41.36,0,75-33.64,75-75s-33.64-75-75-75ZM550,525h-100c-13.79,0-25-11.21-25-25s11.21-25,25-25h100c13.79,0,25,11.21,25,25s-11.21,25-25,25Z"/>
  <path d="M250,275h-25v-84.38c0-4.84-3.11-11.26-6.99-14.16-20.54-15.33-43-1.01-43,18.55v79.99h-25c-41.36,0-75,33.64-75,75s33.64,75,75,75h25v380c0,13.8,11.19,24.98,24.98,24.98s24.98-11.19,24.98-24.98l.02-380.01h25.01c41.36,0,75-33.64,75-75s-33.64-75-75-75ZM250,375h-100c-13.79,0-25-11.21-25-25s11.21-25,25-25h100c13.79,0,25,11.21,25,25s-11.21,25-25,25Z"/>
  <path d="M850,591.52h-25.02l.02-400.89c0-4.84-3.11-11.26-7-14.16-20.54-15.33-43-1.01-43,18.55v396.51h-25c-41.36,0-75,33.64-75,75s33.64,75,75,75h25v63.49c0,13.8,11.19,24.98,24.98,24.98s24.98-11.19,24.98-24.98v-63.49h25.03c41.36,0,75-33.64,75-75s-33.64-75-75-75ZM850,691.52h-100c-13.79,0-25-11.21-25-25s11.21-25,25-25h100c13.79,0,25,11.21,25,25s-11.21,25-25,25Z"/>
</svg>