<?xml version="1.0" encoding="UTF-8"?>
<svg id="a" data-name="layer1" xmlns="http://www.w3.org/2000/svg" viewBox="0 0 500 500">
  <path d="M275.023,212.5h-12.523l.006-145.534c0-2.422-1.558-5.631-3.499-7.08-10.271-7.664-21.507-.507-21.507,9.274v143.341h-12.066c-20.25,0-37.204,15.874-37.94,36.111-.774,21.308,16.346,38.889,37.498,38.889h12.508v143.092c0,6.391,5.194,12.253,11.569,12.714,7.324.53,13.431-5.251,13.431-12.458l.006-143.349h12.076c20.25,0,37.204-15.874,37.94-36.111.774-21.308-16.346-38.889-37.498-38.889ZM275,262.5h-50c-6.893,0-12.5-5.607-12.5-12.5s5.607-12.5,12.5-12.5h50c6.893,0,12.5,5.607,12.5,12.5s-5.607,12.5-12.5,12.5Z"/>
  <path d="M125.023,137.5h-12.523l.002-70.534c0-2.422-1.557-5.631-3.498-7.08-10.27-7.664-21.504-.507-21.504,9.274v68.341h-12.066c-20.25,0-37.204,15.874-37.94,36.111-.774,21.308,16.346,38.889,37.498,38.889h12.508v218.092c0,6.391,5.194,12.253,11.568,12.715,7.324.531,13.431-5.251,13.432-12.458l.01-218.349h12.072c20.25,0,37.204-15.874,37.94-36.111.774-21.308-16.346-38.889-37.498-38.889ZM125,187.5h-50c-6.893,0-12.5-5.607-12.5-12.5s5.607-12.5,12.5-12.5h50c6.893,0,12.5,5.607,12.5,12.5s-5.607,12.5-12.5,12.5Z"/>
  <path d="M425.023,296h-12.523l.01-228.793c0-2.422-1.558-5.631-3.499-7.08-10.273-7.664-21.511-.507-21.511,9.274v226.599h-12.066c-20.25,0-37.204,15.874-37.94,36.111-.774,21.308,16.346,38.889,37.498,38.889h12.508v59.834c0,6.391,5.194,12.253,11.568,12.715,7.324.531,13.431-5.251,13.432-12.458l.002-60.091h12.08c20.25,0,37.204-15.874,37.94-36.111.774-21.308-16.346-38.889-37.498-38.889ZM425,346h-49.742c-6.378,0-12.245-5.181-12.722-11.541-.549-7.324,5.254-13.459,12.464-13.459h49.742c6.378,0,12.245,5.181,12.722,11.541.549,7.324-5.254,13.459-12.464,13.459Z"/>
</svg>