<?xml version="1.0" encoding="UTF-8"?>
<svg id="a" data-name="layer1" xmlns="http://www.w3.org/2000/svg" viewBox="0 0 1000 1000">
  <path d="M725,375.05v-25.05h84.38c4.84,0,11.26-3.11,14.16-6.99,15.33-20.54,1.01-43.01-18.55-43.01h-80v-24.13c0-40.5-31.75-74.41-72.22-75.88-42.62-1.55-77.78,32.69-77.78,75v25.02H195.51c-12.78,0-24.51,10.39-25.43,23.14-1.06,14.65,10.5,26.86,24.92,26.86l380.01.02v24.14c0,40.5,31.75,74.41,72.22,75.88,42.62,1.55,77.78-32.69,77.78-75ZM625,375v-100c0-13.79,11.21-25,25-25s25,11.21,25,25v100c0,13.79-11.21,25-25,25s-25-11.21-25-25Z"/>
  <path d="M408,725.05v-25.05l401.05.02c4.85,0,11.27-3.12,14.17-7,15.33-20.55,1.01-43.02-18.55-43.02h-396.66v-24.13c0-40.5-31.75-74.41-72.22-75.88-42.62-1.55-77.78,32.69-77.78,75v25.02h-62.98c-12.78,0-24.51,10.39-25.43,23.14-1.06,14.65,10.5,26.86,24.92,26.86h63.49s0,24.16,0,24.16c0,40.5,31.75,74.41,72.22,75.88,42.62,1.55,77.78-32.69,77.78-75ZM308,725v-99.48c0-12.76,10.36-24.49,23.08-25.44,14.65-1.1,26.92,10.51,26.92,24.93v99.48c0,12.76-10.36,24.49-23.08,25.44-14.65,1.1-26.92-10.51-26.92-24.93Z"/>
</svg>