<?xml version="1.0" encoding="UTF-8"?>
<svg id="a" data-name="layer1" xmlns="http://www.w3.org/2000/svg" viewBox="0 0 500 500">
  <path d="M119,341.5c-25.64,0-46.5-20.86-46.5-46.5s20.86-46.5,46.5-46.5,46.5,20.86,46.5,46.5-20.86,46.5-46.5,46.5ZM119,273.5c-11.86,0-21.5,9.65-21.5,21.5s9.64,21.5,21.5,21.5,21.5-9.65,21.5-21.5-9.64-21.5-21.5-21.5Z"/>
  <path d="M381,341.5c-25.64,0-46.5-20.86-46.5-46.5s20.86-46.5,46.5-46.5,46.5,20.86,46.5,46.5-20.86,46.5-46.5,46.5ZM381,273.5c-11.86,0-21.5,9.65-21.5,21.5s9.64,21.5,21.5,21.5,21.5-9.65,21.5-21.5-9.64-21.5-21.5-21.5Z"/>
  <path d="M151.27,291.62c-4.51,0-8.86-2.44-11.09-6.71-3.2-6.12-.83-13.67,5.29-16.87l240.17-125.54c6.12-3.2,13.67-.83,16.87,5.29,3.2,6.12.83,13.67-5.29,16.87l-240.17,125.54c-1.85.97-3.83,1.42-5.78,1.42Z"/>
</svg>