<?xml version="1.0" encoding="UTF-8"?>
<svg id="a" data-name="layer1" xmlns="http://www.w3.org/2000/svg" viewBox="0 0 1000 1000">
  <path d="M238,683c-51.28,0-93-41.72-93-93s41.72-93,93-93,93,41.72,93,93-41.72,93-93,93ZM238,547c-23.71,0-43,19.29-43,43s19.29,43,43,43,43-19.29,43-43-19.29-43-43-43Z"/>
  <path d="M762,683c-51.28,0-93-41.72-93-93s41.72-93,93-93,93,41.72,93,93-41.72,93-93,93ZM762,547c-23.71,0-43,19.29-43,43s19.29,43,43,43,43-19.29,43-43-19.29-43-43-43Z"/>
  <path d="M302.53,583.23c-9.01,0-17.71-4.88-22.18-13.42-6.4-12.24-1.66-27.34,10.57-33.74l480.33-251.07c12.24-6.39,27.34-1.66,33.74,10.58,6.4,12.24,1.66,27.34-10.57,33.74l-480.33,251.07c-3.7,1.93-7.66,2.85-11.56,2.85Z"/>
</svg>