<?xml version="1.0" encoding="UTF-8"?>
<svg id="a" data-name="layer1" xmlns="http://www.w3.org/2000/svg" viewBox="0 0 500 500">
  <path d="M119,341.5c-25.64,0-46.5-20.86-46.5-46.5s20.86-46.5,46.5-46.5,46.5,20.86,46.5,46.5-20.86,46.5-46.5,46.5ZM119,273.5c-11.855,0-21.5,9.645-21.5,21.5s9.645,21.5,21.5,21.5,21.5-9.645,21.5-21.5-9.645-21.5-21.5-21.5Z"/>
  <path d="M381,341.5c-25.64,0-46.5-20.86-46.5-46.5s20.86-46.5,46.5-46.5,46.5,20.86,46.5,46.5-20.86,46.5-46.5,46.5ZM381,273.5c-11.855,0-21.5,9.645-21.5,21.5s9.645,21.5,21.5,21.5,21.5-9.645,21.5-21.5-9.645-21.5-21.5-21.5Z"/>
  <path d="M151.265,291.617c-4.505,0-8.857-2.442-11.088-6.712-3.198-6.118-.831-13.67,5.287-16.869l240.167-125.536c6.119-3.197,13.671-.831,16.868,5.288,3.198,6.118.831,13.67-5.287,16.869l-240.167,125.536c-1.849.966-3.829,1.424-5.78,1.424Z"/>
</svg>