<?xml version="1.0" encoding="UTF-8"?>
<svg id="a" data-name="layer1" xmlns="http://www.w3.org/2000/svg" viewBox="0 0 500 500">
  <path d="M132.351,176.173c0,4.816,2.768,9.205,7.114,11.28,4.347,2.075,9.499,1.469,13.245-1.561l124.963-101.039c5.368-4.34,6.202-12.211,1.861-17.579-4.341-5.368-12.211-6.204-17.58-1.86l-104.604,84.577v-74.593c0-4.816-2.768-9.205-7.114-11.28-4.347-2.073-9.499-1.468-13.245,1.561L12.355,166.452c-5.368,4.341-6.201,12.212-1.86,17.58,2.47,3.055,6.083,4.641,9.728,4.641,2.76,0,5.538-.909,7.852-2.779l104.277-84.313v74.593Z"/>
  <path d="M260.938,300.243v-74.723h92.092v46.376c0,6.903,5.597,12.5,12.5,12.5s12.5-5.597,12.5-12.5v-58.876c0-6.903-5.596-12.5-12.5-12.5h-117.092c-6.903,0-12.5,5.597-12.5,12.5v74.723h-77.919v-60.55c0-6.903-5.597-12.5-12.5-12.5s-12.5,5.597-12.5,12.5v73.05c0,6.903,5.597,12.5,12.5,12.5h102.919c6.903,0,12.5-5.597,12.5-12.5Z"/>
  <path d="M488.924,351.142l-60.834-65.195c-2.292-2.455-5.476-3.886-8.834-3.968-3.357-.112-6.607,1.19-9.017,3.531l-67.089,65.195c-.146.143-.289.288-.428.437l-52.132,55.869-57.94-56.306c-4.951-4.812-12.865-4.698-17.676.253-4.812,4.951-4.698,12.865.253,17.677l67.088,65.195c2.335,2.27,5.462,3.535,8.711,3.535.102,0,.204,0,.306-.004,3.358-.082,6.542-1.513,8.833-3.968l60.625-64.972,57.722-56.093,52.132,55.869c4.709,5.047,12.62,5.321,17.667.611,5.048-4.71,5.321-12.62.611-17.668Z"/>
</svg>