<?xml version="1.0" encoding="UTF-8"?>
<svg id="a" data-name="layer1" xmlns="http://www.w3.org/2000/svg" viewBox="0 0 500 500">
  <path d="M250,408.341c-2.149,0-4.298-.553-6.226-1.661-3.881-2.229-6.274-6.363-6.274-10.839V125.923L6.299,260.796c-5.963,3.479-13.617,1.465-17.096-4.498-3.479-5.963-1.465-13.617,4.499-17.096L243.701,93.362c3.866-2.255,8.643-2.271,12.524-.042,3.881,2.229,6.274,6.363,6.274,10.839v269.918l231.201-134.875c5.963-3.479,13.617-1.465,17.096,4.498,3.479,5.963,1.465,13.617-4.498,17.096l-250,145.842c-1.946,1.135-4.122,1.703-6.299,1.703Z"/>
</svg>