<?xml version="1.0" encoding="UTF-8"?>
<svg id="a" data-name="layer1" xmlns="http://www.w3.org/2000/svg" viewBox="0 0 1000 1000">
  <path d="M1000.85,812.39c-14.64,1.05-26.85-10.51-26.85-24.93V240h-47v547c0,13.81-11.19,25-25,25h-128c-13.81,0-25-11.19-25-25V240h-140v547c0,13.81-11.19,25-25,25h-173c-13.81,0-25-11.19-25-25V240h-52v547c0,13.81-11.19,25-25,25h-164c-13.81,0-25-11.19-25-25V240H25v539.68c0,12.79-10.39,24.53-23.15,25.44-14.64,1.05-26.85-10.51-26.85-24.93V215c0-13.81,11.19-25,25-25h145c13.81,0,25,11.19,25,25v547h114V215c0-13.81,11.19-25,25-25h102c13.81,0,25,11.19,25,25v547h123V215c0-13.81,11.19-25,25-25h190c13.81,0,25,11.19,25,25v547h78V215c0-13.81,11.19-25,25-25h97c13.81,0,25,11.19,25,25v571.94c0,12.79-10.39,24.53-23.15,25.44Z"/>
</svg>