<?xml version="1.0" encoding="UTF-8"?>
<svg id="a" data-name="layer1" xmlns="http://www.w3.org/2000/svg" viewBox="0 0 500 500">
  <path d="M250,408.341c-2.177,0-4.353-.568-6.299-1.703L-6.299,260.798c-5.963-3.479-7.977-11.133-4.499-17.096,3.479-5.963,11.133-7.977,17.096-4.498l231.201,134.874V104.159c0-4.476,2.393-8.61,6.274-10.839,3.881-2.229,8.658-2.213,12.524.042l250,145.842c5.963,3.479,7.977,11.133,4.498,17.096-3.479,5.963-11.133,7.977-17.096,4.498l-231.201-134.875v269.918c0,4.476-2.393,8.61-6.274,10.839-1.928,1.107-4.077,1.661-6.226,1.661Z"/>
</svg>