<?xml version="1.0" encoding="UTF-8"?>
<svg id="a" data-name="layer1" xmlns="http://www.w3.org/2000/svg" viewBox="0 0 500 500">
  <path d="M289.903,407.656c-5.295,0-10.129-3.326-11.898-8.44-11.351-32.809-20.319-68.489-28.232-99.969-4.179-16.627-8.127-32.332-11.934-45.624-.01-.032-.019-.064-.028-.097-3.886-13.58-7.859-29.38-12.064-46.107-1.062-4.226-2.143-8.526-3.247-12.886v200.581c0,6.102-4.41,11.311-10.429,12.316-6.022,1.003-11.883-2.486-13.867-8.256-10.465-30.435-21.219-53.024-32.879-69.057-12.492-17.178-25.441-26.087-39.561-27.21-27.257,2.22-50.97,33.725-72.468,96.267-1.984,5.771-7.849,9.263-13.867,8.257-6.019-1.006-10.429-6.214-10.429-12.316v-200.531c-1.078,4.292-2.135,8.525-3.173,12.686-4.161,16.675-8.094,32.431-11.944,46-1.752,6.172-8.361,10.402-14.639,9.084-7.173-1.506-11.451-8.731-9.482-15.658,3.763-13.238,7.672-28.899,11.81-45.479,7.874-31.552,16.799-67.313,28.108-100.214,1.985-5.777,7.851-9.272,13.881-8.266,6.025,1.007,10.44,6.22,10.44,12.329v229.306c3.883-7,7.87-13.305,11.981-18.958,17.127-23.549,36.98-36.175,59.006-37.529.503-.03,1.007-.031,1.51-.001,22.019,1.315,41.87,13.929,59.005,37.491,4.117,5.662,8.109,11.976,11.998,18.991V105.221c0-5.402,3.338-10.35,8.459-12.07,6.69-2.248,13.675,1.359,15.88,7.773,11.34,32.983,20.288,68.822,28.182,100.442,4.119,16.5,8.01,32.087,11.754,45.27.009.031.018.062.027.093,3.903,13.714,7.882,29.658,12.096,46.539,1.015,4.068,2.049,8.207,3.102,12.401V103.886c0-6.118,4.422-11.339,10.456-12.347,6.031-1.008,11.913,2.494,13.901,8.28,21.526,62.659,45.296,94.243,72.647,96.509,27.339-2.24,51.108-33.824,72.639-96.508,1.987-5.786,7.86-9.288,13.901-8.281,6.034,1.008,10.456,6.229,10.456,12.347v201.699c1.049-4.176,2.078-8.3,3.09-12.351,4.216-16.887,8.197-32.838,12.101-46.544,1.891-6.639,8.804-10.489,15.446-8.598,6.639,1.891,10.489,8.806,8.598,15.446-3.792,13.312-7.725,29.069-11.889,45.751-7.854,31.465-16.757,67.127-28.024,99.928-2.142,6.234-8.812,9.812-15.309,7.945-5.4-1.552-9.013-6.645-9.013-12.263v-230.144c-3.878,6.991-7.858,13.287-11.965,18.933-17.124,23.546-36.981,36.173-59.02,37.529-.515.031-1.031.031-1.545,0-22.036-1.377-41.889-14.01-59.008-37.548-4.106-5.644-8.085-11.937-11.962-18.925v230.178c0,4.979-2.831,9.611-7.385,11.626-1.711.757-3.491,1.11-5.212,1.11Z"/>
</svg>