<?xml version="1.0" encoding="UTF-8"?>
<svg id="a" data-name="layer1" xmlns="http://www.w3.org/2000/svg" viewBox="0 0 500 500">
  <path d="M465.328,412.263h-51.954c-6.903,0-12.5-5.596-12.5-12.5v-223.787h-63.328v169.862c0,6.903-5.597,12.5-12.5,12.5h-72.442c-6.903,0-12.5-5.597-12.5-12.5v-71.328h-34.379c-6.903,0-12.5-5.597-12.5-12.5V112.737h-68.522v263.985c0,6.903-5.597,12.5-12.5,12.5H40.549c-6.903,0-12.5-5.597-12.5-12.5v-121.331H-7.119c-6.903,0-12.5-5.596-12.5-12.5s5.597-12.5,12.5-12.5h47.668c6.903,0,12.5,5.596,12.5,12.5v121.331h46.653V100.237c0-6.904,5.597-12.5,12.5-12.5h93.522c6.903,0,12.5,5.596,12.5,12.5v149.273h34.379c6.903,0,12.5,5.597,12.5,12.5v71.328h47.442v-169.862c0-6.904,5.597-12.5,12.5-12.5h88.328c6.903,0,12.5,5.596,12.5,12.5v223.787h26.954v-144.371c0-6.904,5.597-12.5,12.5-12.5h34.672c6.903,0,12.5,5.596,12.5,12.5s-5.597,12.5-12.5,12.5h-22.172v144.371c0,6.904-5.597,12.5-12.5,12.5Z"/>
</svg>