<?xml version="1.0" encoding="UTF-8"?>
<svg id="a" data-name="layer1" xmlns="http://www.w3.org/2000/svg" viewBox="0 0 1000 1000">
  <path d="M998.99,811.87c-13.81,0-25-11.19-25-25V239.41h-47.13v547.45c0,13.81-11.19,25-25,25h-128.03c-13.81,0-25-11.19-25-25V239.41h-139.84v547.45c0,13.81-11.19,25-25,25h-173.36c-13.81,0-25-11.19-25-25V239.41h-51.54v547.45c0,13.81-11.19,25-25,25h-164.25c-13.81,0-25-11.19-25-25V239.41H25.11v540.19c0,13.81-11.19,25-25,25s-25-11.19-25-25V214.41c0-13.81,11.19-25,25-25h144.72c13.81,0,25,11.19,25,25v547.45h114.25V214.41c0-13.81,11.19-25,25-25h101.54c13.81,0,25,11.19,25,25v547.45h123.36V214.41c0-13.81,11.19-25,25-25h189.84c13.81,0,25,11.19,25,25v547.45h78.03V214.41c0-13.81,11.19-25,25-25h97.13c13.81,0,25,11.19,25,25v572.45c0,13.81-11.19,25-25,25Z"/>
</svg>