<?xml version="1.0" encoding="UTF-8"?>
<svg id="a" data-name="layer1" xmlns="http://www.w3.org/2000/svg" viewBox="0 0 500 500">
  <path d="M178.39,408.35c-.36,0-.72-.01-1.08-.04-12.03-.79-16.22-14.35-17.8-19.46-2.55-8.25-4.98-20.42-7.41-37.21-2.25-11.79-3.92-34.38-5.86-60.5-1.73-23.28-3.69-49.67-6.32-71.32-.68-5.62-1.36-10.47-2.02-14.65-.99,3.7-2,7.54-3.05,11.54-5.25,19.99-11.2,42.65-18.2,60.04-.01.03-.02.05-.03.08-1.7,4.14-6.87,16.75-18.24,19-3.41.67-10.03.86-16.37-5.35-6.3-5.74-10.99-15.52-16.42-26.82-3.67-7.65-9.51-19.81-14.04-24.46-2.58,2.11-9.27,9.64-18.92,35.3-7.83,20.81-14.57,45.45-19.02,61.76-1.16,4.25-2.16,7.92-3.05,11.04-1.89,6.64-8.8,10.5-15.44,8.61-6.64-1.89-10.49-8.8-8.61-15.44.85-3,1.84-6.61,2.98-10.8,4.48-16.4,11.26-41.19,19.31-62.81,10.93-29.36,21.06-45.04,32.83-50.84,6.2-3.05,12.74-3.33,18.92-.79.46.19.92.41,1.35.65,11.58,6.47,19.02,21.97,26.22,36.96,1.78,3.71,4.06,8.46,6.2,12.37,6.06-15.71,11.51-36.45,16.34-54.85,1.55-5.9,3.01-11.47,4.47-16.79.02-.07.04-.14.06-.21.61-2.07,1.17-4.07,1.7-5.96,1.78-6.31,3.33-11.76,5.27-16.16,3.51-7.93,8.66-12.45,15.33-13.46,2.7-.41,5.46.08,7.85,1.39,14.51,7.93,18.97,37.91,25.81,130.11,1.82,24.5,3.53,47.63,5.53,57.89.04.2.07.4.1.6.97,6.73,1.89,12.31,2.74,16.93,1.22-4.14,2.4-8.3,3.41-11.9,9.63-34.1,15.73-53.63,29.29-58.58,4.86-1.77,10.14-1.29,14.73,1.31,4.41,1.98,7.99,5.26,11.47,8.45.48.44,1.05.96,1.64,1.49,1.21-3.38,2.24-7.46,3.13-10.96,2.34-9.52,4.91-22.16,7.64-35.53,3.47-17.05,7.06-34.67,10.56-47.72,2.08-8.12,7.58-29.42,23.89-30.05,12.72-.49,19.99,12.36,22.38,16.58,3.5,6.19,7.06,14.59,10.59,24.96,5.08,14.25,10.11,32.63,14.53,49.55.54-5.68,1.14-12.22,1.73-18.68,2.49-27.41,5.9-64.95,10.35-95.95,2.51-17.51,5.02-30.74,7.68-40.45,2.16-7.88,6.65-24.29,19.85-25.51,3.91-.36,11.32.51,17.06,10.38,2.36,4.07,4.57,9.79,6.73,17.47,0,.02.01.05.02.07,3.46,12.55,6.92,27.89,10.27,42.71,2.52,11.15,4.9,21.68,7.26,31.06.65,2.36,1.29,4.75,1.93,7.15,1.59,5.98,3.98,14.91,6.25,20.36,2-2.57,4.24-5.85,5.85-8.19,8.31-12.14,17.73-25.91,32.53-24.73.38.03.75.08,1.13.14,14.72,2.53,24.91,18.71,34.05,54.1,6.34,24.54,10.86,53.36,14.17,74.4,1.01,6.46,1.89,12.04,2.65,16.42,1.18,6.8-3.37,13.27-10.17,14.46-6.8,1.18-13.27-3.37-14.46-10.17-.8-4.58-1.69-10.25-2.72-16.82-3-19.13-7.11-45.33-12.62-67.82-6.29-25.69-11.7-35.16-14.32-38.49-2.95,2.92-7.14,9.03-9.62,12.65-6.02,8.8-11.71,17.12-19.66,20.63-.25.11-.51.21-.76.31-5.37,1.96-11.03,1.64-15.93-.91-11.48-5.97-15.67-21.68-20.52-39.87-.63-2.36-1.26-4.73-1.91-7.05-.03-.1-.05-.19-.08-.29-2.45-9.71-4.99-20.94-7.44-31.8-2.6-11.49-5.26-23.28-7.89-33.64-1.69,8.14-3.63,19.46-5.72,35.18-3.81,28.65-6.85,62.07-9.07,86.48-2.38,26.15-3.2,34.56-4.23,38.7-1.03,7.28-2.11,12.93-3.27,17.26-1.12,4.14-4.51,16.74-16.03,17.4-3.73.21-10.72-.89-15.63-10.68-1.86-3.7-3.64-8.91-5.45-15.94-.84-3.23-1.75-6.78-2.72-10.53-5.03-19.56-11.28-43.91-17.39-61.03-.02-.06-.04-.12-.06-.19-3.01-8.85-5.55-14.73-7.52-18.59-.47,1.47-.97,3.2-1.49,5.23-.01.05-.02.09-.04.14-3.31,12.32-6.83,29.6-10.23,46.31-2.78,13.65-5.4,26.54-7.86,36.54,0,.03-.01.05-.02.08-1.67,6.61-3.74,14.83-7.46,21.38-.04.08-.09.15-.13.23-4.71,7.89-10.71,10.29-14.92,10.9-10.12,1.48-17.79-5.55-23.4-10.68-.5-.46-1.08-.99-1.67-1.52-1.09,2.17-2.51,5.43-4.23,10.27-2.97,8.36-5.85,18.56-8.64,28.43-3.04,10.76-5.9,20.92-8.88,28.78-2.29,6.04-7.56,19.97-19.74,19.97ZM418.37,224.76s0,0,0,0c0,0,0,0,0,0Z"/>
</svg>