<?xml version="1.0" encoding="UTF-8"?>
<svg id="a" data-name="layer1" xmlns="http://www.w3.org/2000/svg" viewBox="0 0 500 500">
  <path d="M442.131,408.586c-.24,0-.48-.007-.72-.021-.681-.029-3.641-.135-3.645-.135-1.036-.037-2.064-.203-3.06-.494l-4.079-1.192c-.92-.269-1.807-.643-2.641-1.115l-4.166-2.355c-.645-.364-1.256-.785-1.826-1.258l-4.282-3.55c-.494-.41-.954-.855-1.375-1.331-.452-.503-4.281-4.737-4.281-4.737-.282-.312-.549-.638-.798-.978l-4.525-6.152c-.219-.298-.424-.604-.614-.916-.393-.639-4.597-7.467-4.597-7.467l.046-.028c-.514-.794-.901-1.525-1.197-2.083l-4.036-7.631c-.132-.251-.256-.506-.37-.763-.366-.777-2.22-4.641-3.887-8.102l.046-.022c-.597-1.205-1.277-2.757-2.199-4.858l-1.961-4.475.005-.002c-.078-.171-.152-.345-.224-.522l-7.621-18.809c-.046-.115-.092-.23-.134-.346-.43-1.119-4.767-12.214-7.654-19.591l-8.173-19.801c-.538-1.197-3.832-8.521-4.297-9.556-.432-.893-2.991-6.122-4.583-9.37-.22-.38-.408-.726-.569-1.024l-4.113-7.603c-.855-1.408-5.226-8.58-5.226-8.581h.001c-.715-.977-1.53-2.151-2.521-3.58l-2.678-3.863c-.822-1.023-3.682-4.564-5.66-7.01-.236-.239-.463-.475-.682-.704l-5.328-5.56-6.382-5.499c-.242-.158-.463-.308-.663-.445-.239-.154-.75-.481-1.022-.654-.393-.212-.742-.413-1.041-.587l-.886-.461c-.119-.054-.239-.109-.36-.166l-.732-.35c-.019-.009-.038-.018-.057-.027-.252-.113-.637-.282-.811-.357-.139-.052-.278-.105-.418-.161l-.342-.137c-.251-.081-.517-.168-.8-.262l-.889-.252-.893-.218c-.239-.047-.543-.107-.941-.185-.196-.031-.48-.073-.696-.106-.125-.01-.251-.021-.378-.033l-.477-.047c-.221-.013-.51-.03-.896-.054-.234-.001-.554-.002-.76-.002l-1.83.081c-.099.015-.198.029-.299.042l-.749.098v-.004c-.165.029-.332.056-.502.081l-.368.054c-.247.05-.51.102-.787.152-.327.08-.688.166-1.078.25v.002s-1.152.306-1.152.306c-.262.085-.629.203-.844.274-.034.012-.069.024-.103.036-.346.119-.731.252-1.151.384-.413.159-.793.305-1.153.437-.228.097-.66.282-.919.395-.003.002-.007.003-.01.005l-2.585,1.21c-.047.022-.094.044-.141.065-.913.495-1.689.914-2.375,1.268l.004.006s-1.406.824-2.308,1.354c-3.001,2.429-6.137,4.971-6.946,5.632l-7.283,6.607c-.038.034-.076.069-.114.102-5.794,5.782-14.335,14.307-14.988,14.963,0,0-.001,0-.002.002l-12.631,12.85c-.989,1.005-1.852,1.883-2.68,2.636l.037.038-7.115,6.752c-.25.235-.502.458-.756.669l.011.013s-6.52,5.607-7.259,6.248c-.273.242-.558.472-.854.691l-7.094,5.235c-.358.263-.716.504-1.071.721l.01.016s-2.858,1.8-3.466,2.188c-.297.196-.605.381-.921.552l-1.86,1.007c-.763.413-1.656.896-2.662,1.33l.026.057c-2.198.998-3.631,1.649-4.746,2.07l.007.021-1.869.659c-.896.316-1.921.677-3.051.948l.014.057s-2.895.712-3.56.876c-.486.127-.986.225-1.495.294-4.374.588-4.584.616-5.333.618l-3.654.068c-.526.01-1.053-.014-1.576-.071l-3.217-.349c-.764-.083-1.481-.211-2.155-.377l-.01.039s-2.856-.687-3.56-.851c-.579-.125-1.154-.291-1.719-.501l-3.269-1.213c-.702-.261-1.352-.553-1.952-.872l-.021.041s-2.962-1.528-3.641-1.872c-.466-.227-.92-.484-1.361-.772-.002-.001-3.202-2.091-3.781-2.464-.421-.264-.826-.555-1.215-.87l-3.956-3.208c-.265-.215-.521-.44-.767-.676l-2.013-1.93c-1.283-1.232-2.495-2.395-3.479-3.704l-.035.026c-5.265-7.359-13.154-18.385-13.942-19.482-.255-.346-.493-.708-.715-1.086-4.794-8.177-11.993-20.451-12.621-21.517-.154-.255-.299-.518-.436-.787-4.327-8.523-10.87-21.404-11.445-22.521-.099-.188-.193-.38-.284-.574l-10.429-22.562c-.051-.113-.101-.225-.15-.337h-.003c-6.146-13.653-17.69-39.3-18.84-41.845l-8.258-16.45c-.038-.076-.075-.151-.112-.227-1.292-2.075-6.353-10.203-7.806-12.532-.782-.961-2.308-2.836-3.141-3.86l-2.619-2.387c-.432-.255-.934-.552-1.402-.828l-.143-.032c-.396.212-.804.431-1.174.629-.837.773-1.943,1.795-2.675,2.471-.997,1.306-2.866,3.754-3.689,4.835-.954,1.61-3.508,5.921-4.326,7.301l-4.715,9.724c-1.371,3.548-9.434,24.409-10.631,27.508-3.925,12.638-11.055,35.6-11.832,38.109l-13.215,49.806c-1.771,6.672-8.616,10.647-15.287,8.876-6.673-1.771-10.647-8.615-8.876-15.288l13.281-50.051.032.009c.341-1.25.94-3.179,1.992-6.57l10.156-32.707.042.013c.239-.82.506-1.51.708-2.033l10.511-27.197c.154-.397.326-.784.516-1.158.416-.848,3.281-6.761,5.045-10.405l.023.011c.203-.431.43-.862.685-1.293l4.749-8.015.043.026c.768-1.234,1.809-2.598,3.172-4.384l2.401-3.146.049.038c1.04-1.299,2.323-2.484,3.723-3.777l2.319-2.142.039.043c.882-.802,1.948-1.563,3.233-2.253l3.826-2.05c1.29-.69,2.687-1.147,4.127-1.353.445-.066,4.326-.649,4.327-.649,1.583-.238,3.179-.167,4.701.189.365.082,2.077.464,3.201.714,2.266.243,3.843,1.175,8.911,4.172.844.499,1.61,1.084,2.292,1.738.75.688,4.001,3.648,4.002,3.649l-.049.054c1.183,1.117,2.267,2.451,3.441,3.892l2.111,2.594-.038.031c.453.546.894,1.154,1.315,1.83l8.172,13.119c.24.385.457.779.65,1.18.579,1.161,5.421,10.805,8.644,17.223l-.025.013c.362.704.701,1.457,1.069,2.273l18.145,40.302c.01.023.02.046.03.068.523,1.148,6.488,14.045,10.433,22.57.103.187.203.378.303.572l10.861,21.376,12.216,20.828,13.062,18.252c.831.799,2.134,2.049,2.77,2.658l3.176,2.575c.781.488,1.672,1.066,2.719,1.749.016.009.033.017.049.025l2.654,1.365c.681.253,1.747.649,2.443.907.41.091.806.185,1.185.276l1.162.279c.644.07,1.566.17,2.219.241l2.27-.042c.671-.09,1.708-.229,2.385-.32l2.501-.616c.728-.256,2.005-.706,2.689-.947.715-.322,2.158-.976,2.823-1.278.721-.387,2.448-1.324,3.052-1.652.467-.313.921-.6,1.345-.867l1.484-.936c1.207-.887,5.45-4.021,6.664-4.918.264-.235.516-.453.75-.655l6.061-5.215c.826-.777,4.579-4.341,6.99-6.633,1.071-1.084,9.306-9.463,14.798-15.051l.037.036c.726-.802,1.544-1.618,2.436-2.509l12.909-12.885c.179-.179.363-.352.551-.518.756-.68,7.691-6.976,7.692-6.977l.026.029c.618-.582,1.222-1.073,1.742-1.495l6.756-5.475.025.031c.588-.48,1.246-.941,1.985-1.376l2.67-1.568c.179-.105.359-.205.543-.3.499-.267,2.883-1.561,2.885-1.562.278-.151.558-.29.842-.417.544-.253,2.859-1.338,2.86-1.339l.016.034c.721-.37,1.372-.647,1.88-.863.203-.087.408-.167.615-.243.322-.122,1.299-.498,1.302-.499.252-.097.506-.185.761-.265.355-.119,1.115-.381,1.121-.384l.007.02c.308-.119.626-.232.956-.34l.767-.248c.21-.068.423-.13.636-.187l1.468-.39c.202-.054.405-.102.608-.145.347-.081,1.065-.257,1.072-.259.265-.065.531-.12.798-.167.306-.061.894-.183,1.057-.217.251-.052.508-.097.768-.134v-.002s.915-.134,1.23-.181c.132-.021.264-.041.397-.058.007,0,.703-.091,1.06-.14.408-.065.823-.111,1.245-.136l1.437-.085c.126-.007.204-.011.33-.015,0,0,1.819-.053,1.82-.053h.75c.497.002.978.024,1.443.065l.002-.034,1.351.082c.182.01.366.024.547.042.006,0,.721.072,1.064.104.312.023.626.058.939.105l.734.111c.43.065.845.144,1.245.235l.005-.028,1.313.259c.203.039.405.083.605.131l.703.171c.393.096.772.201,1.137.316l.008-.027.693.196c.419.119.821.249,1.205.388l.01-.03s.922.306,1.226.405c.308.097.612.205.912.326.004.002.801.322,1.122.449.195.074.39.153.583.237l.742.326c.364.161.712.328,1.044.502l.01-.02c.009.004.623.3.961.458.28.122.556.254.829.398.519.273,1.161.611,1.854,1.04l.017-.029c.01.006.579.338.913.528.308.162.61.338.906.527.844.539,1.353.865,1.71,1.105h.001s.752.514,1.086.739c.482.311.947.658,1.39,1.039l7.359,6.34c.303.261.594.537.87.826.001,0,5.985,6.252,6.672,6.96.287.291.562.598.821.919l6.057,7.501c.281.35.54.702.778,1.055l.017-.012c2.444,3.528,5.203,7.504,5.666,8.162.198.273.386.555.563.845l5.184,8.51c.19.313.366.626.527.939l.018-.01c1.717,3.176,4.512,8.344,4.926,9.099.12.213.236.431.344.653l3.989,8.152c.253.519.563,1.154.863,1.887l.039-.017,3.741,8.319c.246.547.535,1.19.809,1.913l.038-.016,8.29,20.085c.029.071.058.143.086.215l7.709,19.731c.019.049.037.098.056.147.595,1.469,6.924,17.094,7.585,18.719.457,1.044,3.264,7.449,3.752,8.553l1.959,4.073c.51,1.063,1.021,2.127,1.403,2.926.135.284.294.615.46.989,1.521,2.879,3.881,7.343,4.503,8.512l3.721,6.044c.121.197.262.425.413.683l3.887,5.284,3.345,3.701,2.725,2.26,1.933,1.092,1.196.35.762.028.772-.174,1.358-.666,1.926-1.432c.612-.612,1.524-1.525,2.137-2.14,1.287-1.782,4.379-6.064,5.543-7.679,1.979-3.685,4.76-8.867,5.561-10.367l5.341-12.519c.034-.08.069-.16.104-.238l5.043-14.005c.035-.097.071-.193.107-.288l9.372-31.434c.01-.032.02-.064.029-.097l14.601-58.073c1.684-6.695,8.472-10.759,15.171-9.075,6.695,1.683,10.758,8.475,9.075,15.171l-14.668,58.337c-.053.21-.111.417-.174.623-.499,1.667-9.545,32.017-9.545,32.018-.087.293-.185.581-.292.863-.362.991-3.352,9.3-5.32,14.772-.109.301-.227.595-.356.883-.421.975-3.682,8.623-5.696,13.351l-.06-.025c-.447,1.082-.959,2.038-1.392,2.847l-5.261,9.804-.026-.014c-.318.595-.692,1.196-1.126,1.799l-6.336,8.779-.029-.021c-.853,1.132-1.884,2.164-3.011,3.293l-1.755,1.757-.035-.035c-.561.565-1.195,1.116-1.909,1.646l-3.024,2.249c-.611.454-1.263.852-1.946,1.187l-3.721,1.826c-.96.471-1.957.809-2.966,1.018-.73.164-3.601.81-3.601.81-.909.205-1.83.305-2.745.305ZM429.631,396.059c.023,6.631,5.157,12.066,11.73,12.431-2.542-.157-5.005-1.089-7.038-2.715-2.954-2.363-4.678-5.935-4.692-9.716ZM429.5,396.039v.019-.019ZM429.5,396.014v.021-.021ZM394.917,362.076c.092,1.424.427,2.831,1.012,4.148-.579-1.33-.915-2.733-1.01-4.146,0,0-.001-.001-.002-.002ZM178.973,301.758c.573.122,1.152.201,1.733.239-.004-.002-.008-.003-.013-.005-.575-.038-1.149-.116-1.72-.234ZM182.5,301.972h0c.159-.013.318-.031.477-.051-.159.02-.317.037-.477.051ZM189.308,299.292c-.009.007-.018.014-.026.021.009-.007.018-.014.026-.021ZM172.289,298.499c.176.02.352.037.527.05-.176-.013-.352-.031-.527-.051h0ZM168.372,297.364c.601.291,1.223.53,1.857.717-.003-.002-.007-.005-.01-.007-.629-.186-1.247-.422-1.848-.709ZM220.098,293.551c-.475.437-.986.84-1.531,1.204.547-.361,1.06-.765,1.538-1.206l-.007.003ZM224,284.4v.005-.005ZM224,284.355v.025-.025ZM202.753,275.623c-1.16.135-2.144.413-2.909.699.127-.045.201-.071.201-.071.878-.309,1.786-.519,2.707-.627,0,0,0,0,0,0ZM204.117,274.445c-.53.169-1.05.376-1.556.619.123-.056.195-.088.195-.088.442-.201.892-.375,1.349-.521.004-.003.008-.006.012-.009ZM206.013,274l.002.003c.551-.085,1.105-.133,1.66-.144-.556.01-1.111.057-1.662.142ZM171.799,268.877l.215.3c.466.65.865,1.34,1.195,2.06l.002-.002c-.382-.836-.855-1.628-1.412-2.357ZM230.079,257.712c-2.974,0-5.93,1.054-8.251,3.123l.115-.099c2.603-2.238,5.916-3.243,9.158-2.982-.341-.028-.681-.042-1.022-.042ZM338.146,242.04c.386,1.42,1.029,2.783,1.927,4.017l-.131-.188c-.823-1.188-1.417-2.481-1.783-3.821-.005-.002-.01-.005-.014-.008ZM362.5,236.442c1.405.848,2.634,1.967,3.613,3.297-.64-.878-1.808-2.209-3.613-3.298h0ZM340.063,231.461c-.928,1.293-1.581,2.716-1.96,4.193l.005-.004c.378-1.478,1.03-2.901,1.956-4.189ZM285.697,232.947c-.502.693-1.077,1.337-1.721,1.921l-.117.106c.688-.604,1.304-1.286,1.838-2.027ZM340.081,231.437c-.005.008-.012.016-.017.023.005-.008.012-.016.017-.023ZM340.099,231.412c-.005.007-.01.014-.015.021l.015-.021ZM340.117,231.387c-.004.006-.009.012-.013.018.004-.006.009-.012.013-.018ZM340.136,231.362c-.004.005-.008.01-.012.015.004-.005.008-.01.012-.015ZM340.154,231.336s-.006.009-.009.013c.003-.005.006-.008.009-.013ZM340.174,231.31s-.005.007-.008.011c.002-.004.005-.007.008-.011ZM340.193,231.284s-.004.005-.005.007c.002-.002.004-.005.005-.007ZM318.936,225.47c.109.069.218.134.327.197-.107-.063-.212-.127-.316-.193-.004-.002-.007-.003-.01-.004ZM298.599,225.285c-.117.061-.234.12-.352.177.121-.058.244-.118.367-.182l-.015.005ZM318.066,224.866c.126.096.252.188.378.277v-.002c-.126-.089-.252-.181-.376-.275h-.002ZM316.918,224.515c.1.053.2.105.301.154-.098-.049-.194-.099-.29-.151-.004-.001-.007-.002-.011-.004ZM300.168,224.241v.002c.109-.079.215-.159.322-.243h-.002c-.105.082-.212.162-.32.241ZM301.981,224.065c-.146.06-.295.117-.445.171.15-.053.298-.109.446-.168v-.003ZM311.823,223.081c.125.027.25.051.375.074-.035-.007-.07-.014-.106-.021-.084-.016-.167-.034-.25-.052-.007,0-.013,0-.02-.001ZM309.5,222.897c.151.011.303.02.455.026-.059-.004-.118-.007-.181-.011-.092-.005-.182-.012-.274-.02v.005ZM308.526,222.798c.157.023.316.044.474.061v-.007c-.15-.017-.3-.037-.449-.06-.009.002-.017.004-.026.006ZM309.749,222.435c.245.101.495.195.748.281v-.007c-.249-.085-.495-.177-.737-.276-.003.001-.007.002-.01.003ZM305.425,221.964c.21.089.424.172.639.25l-.002-.015c-.212-.076-.42-.157-.626-.244-.004.003-.007.006-.011.009ZM305.408,221.957s.007.003.011.005c.004-.003.007-.006.011-.009-.009-.004-.017-.007-.025-.011l.003.015ZM304.644,218.239l.002.013c.256-.756.448-1.564.561-2.425-.109.829-.299,1.637-.563,2.412ZM305.211,215.802s-.001.01-.002.015c0-.005.001-.01.002-.015ZM336.101,206.74c.107.063.214.128.319.194-.109-.069-.219-.137-.329-.202.004.003.007.006.01.008ZM334.142,205.806c.422.158.837.339,1.243.543l.002-.003c-.406-.205-.823-.387-1.249-.544.002.001.003.002.004.004ZM332.187,204.319c.165.076.33.155.492.238-.165-.086-.336-.17-.511-.25.007.004.013.008.02.013ZM330.493,203.689c.466.135.925.299,1.376.49l.002-.004c-.437-.186-.901-.353-1.389-.494.004.003.007.006.011.008ZM327.662,203.209c.04.002.079.004.119.007l.005-.009c-.045-.003-.089-.006-.134-.008.003.003.007.007.01.01ZM303.314,202.877v.007c.743-.935,1.611-1.752,2.572-2.432-.004-.002-.009-.005-.013-.007-.957.681-1.82,1.499-2.559,2.433ZM328.589,202.444c.175.065.349.135.522.208-.183-.08-.367-.155-.553-.226.01.006.021.011.031.017ZM325.978,201.78c.756.107,1.505.284,2.239.531l.003-.007c-.742-.256-1.502-.436-2.269-.544l.027.02ZM308.005,201.805c.009.007.018.014.026.021-.009-.007-.017-.014-.026-.021ZM291.796,201.311c-.69.141-1.277.321-1.738.489.566-.204,1.147-.367,1.735-.488.001,0,.002,0,.002-.001ZM324.072,200.662c.579.124,1.154.291,1.722.501-.58-.218-1.167-.39-1.757-.518.012.005.023.011.035.017ZM293.35,201.094h0c.08-.006.16-.011.24-.016-.081.005-.161.01-.24.016ZM293.608,201.077s-.01,0-.015,0c.005,0,.01,0,.015,0ZM293.625,201.076s-.009,0-.013,0c.004,0,.009,0,.013,0ZM293.644,201.075s-.006,0-.01,0c.004,0,.007,0,.01,0ZM293.663,201.074s-.005,0-.009,0c.003,0,.005,0,.009,0ZM293.683,201.073s-.004,0-.006,0c.002,0,.004,0,.006,0ZM293.703,201.072s-.004,0-.006,0c.002,0,.004,0,.006,0ZM293.723,201.071s-.003,0-.005,0c.002,0,.004,0,.005,0ZM293.744,201.07s-.003,0-.005,0c.002,0,.003,0,.005,0ZM293.764,201s-.002,0-.003,0c.001,0,.002,0,.003,0ZM293.785,201s-.001,0-.002,0c0,0,.002,0,.002,0ZM293.913,201h-.002.002ZM293.936,201.063s-.002,0-.004,0c.001,0,.002,0,.004,0ZM293.958,201.063s-.004,0-.005,0c.001,0,.003,0,.005,0ZM293.978,201s-.002,0-.004,0c.001,0,.002,0,.004,0ZM293.999,201s-.002,0-.004,0c.002,0,.003,0,.004,0ZM294.02,201h-.003.003ZM294.041,201h-.004.004ZM294.062,201h0,0ZM294.131,201h-.005.005ZM294.152,201h-.005.005ZM294.175,201s-.005,0-.007,0c.002,0,.005,0,.007,0ZM294.196,201h-.008.008ZM294.217,201h-.008.008ZM294.238,201h-.008.008ZM294.259,201.058s-.005,0-.007,0c.002,0,.005,0,.007,0ZM294.28,201h-.005.005ZM292.839,200.835c-.227.057-.453.12-.677.191.215-.066.432-.125.648-.179.009-.004.02-.008.029-.012ZM293.229,200.744l.002.006c1.353-.285,2.734-.342,4.088-.177.004-.002.007-.005.01-.007-1.363-.17-2.75-.113-4.101.178ZM298.284,200.729s.004,0,.006.001c.002-.002.004-.003.007-.005-.002,0-.004,0-.006-.001-.002.002-.004.004-.007.005ZM305.874,200.443l.014.007c.296-.209.601-.405.913-.588-.006-.003-.012-.005-.018-.008-.311.183-.615.38-.909.589ZM306.787,199.852c.006.003.012.005.018.008,1.295-.756,2.725-1.28,4.225-1.533v-.014c-1.508.249-2.944.777-4.243,1.54ZM303.149,199.445c.04.009.079.019.118.029-.039-.01-.079-.02-.118-.029h0ZM300.054,199.098c-.782.011-1.565.098-2.334.263.768-.158,1.544-.243,2.316-.256.006-.002.012-.005.018-.007ZM300.939,199.122c.007,0,.015,0,.021.001.004-.002.007-.003.011-.005-.007,0-.014,0-.021-.001-.004.002-.007.003-.011.005ZM303,198.847c.292.035.583.079.872.134-.289-.056-.58-.102-.872-.137v.002ZM301.003,198.773c-.47.026-.939.08-1.404.162.459-.078.92-.129,1.381-.155.008-.002.015-.005.023-.007ZM303.873,198.243c-.361.06-.717.136-1.066.227.008,0,.016,0,.025,0,.341-.09.689-.165,1.041-.226ZM313.101,198.153c.267,0,.536.009.805.026-.504-.036-1.006-.04-1.5-.015v.007s.002,0,.004,0c.229-.013.46-.019.69-.019ZM64.084,117.5h.02-.02ZM64.065,117.5h.013-.013ZM64.045,117.452s.008,0,.012,0c-.004,0-.008,0-.012,0ZM64.024,117.5s.009,0,.013,0c-.004,0-.009,0-.013,0ZM64.001,117.5s.005,0,.008,0c-.003,0-.005,0-.008,0ZM63.984,117.451s.003,0,.004,0c-.001,0-.003,0-.004,0ZM78.657,100.361s.003.002.004.002c-.408-.594-.87-1.154-1.385-1.674.511.52.973,1.079,1.381,1.671Z" fill="#212121"/>
</svg>