<?xml version="1.0" encoding="UTF-8"?>
<svg id="a" data-name="layer1" xmlns="http://www.w3.org/2000/svg" viewBox="0 0 500 500">
  <path d="M375,408.34c-32.37,0-59.97-16.62-84.39-50.81-20.32-28.44-36.47-66.15-52.1-102.61-15.1-35.24-30.72-71.68-49.46-97.92-19.66-27.52-40.01-40.34-64.05-40.34s-44.39,12.82-64.05,40.34c-18.75,26.25-34.36,62.68-49.46,97.92-2.72,6.34-10.06,9.29-16.41,6.57-6.35-2.72-9.29-10.07-6.57-16.41,15.62-36.46,31.78-74.16,52.1-102.61,24.42-34.19,52.02-50.81,84.39-50.81s59.97,16.62,84.39,50.81c20.32,28.44,36.47,66.15,52.1,102.61,15.1,35.24,30.72,71.68,49.46,97.92,19.66,27.52,40.01,40.34,64.05,40.34s44.39-12.82,64.05-40.34c18.75-26.25,34.36-62.68,49.46-97.92,2.72-6.34,10.07-9.29,16.41-6.57,6.35,2.72,9.29,10.07,6.57,16.41-15.62,36.46-31.78,74.16-52.1,102.61-24.42,34.19-52.02,50.81-84.39,50.81Z"/>
</svg>