<?xml version="1.0" encoding="UTF-8"?>
<svg id="a" data-name="layer1" xmlns="http://www.w3.org/2000/svg" viewBox="0 0 500 500">
  <path d="M132.35,176.17c0,4.82,2.77,9.21,7.11,11.28,4.35,2.08,9.5,1.47,13.25-1.56l124.96-101.04c5.37-4.34,6.2-12.21,1.86-17.58-4.34-5.37-12.21-6.2-17.58-1.86l-104.6,84.58v-74.59c0-4.82-2.77-9.21-7.11-11.28-4.35-2.07-9.5-1.47-13.25,1.56L12.36,166.45c-5.37,4.34-6.2,12.21-1.86,17.58,2.47,3.05,6.08,4.64,9.73,4.64,2.76,0,5.54-.91,7.85-2.78l104.28-84.31v74.59Z"/>
  <path d="M260.94,300.24v-74.72h92.09v74.72c0,6.9,5.6,12.5,12.5,12.5s12.5-5.6,12.5-12.5v-87.22c0-6.9-5.6-12.5-12.5-12.5h-117.09c-6.9,0-12.5,5.6-12.5,12.5v74.72h-92.09v-74.72c0-6.9-5.6-12.5-12.5-12.5s-12.5,5.6-12.5,12.5v87.22c0,6.9,5.6,12.5,12.5,12.5h117.09c6.9,0,12.5-5.6,12.5-12.5Z"/>
  <path d="M488.92,351.14l-60.83-65.2c-2.29-2.46-5.48-3.89-8.83-3.97-3.36-.11-6.61,1.19-9.02,3.53l-67.09,65.2c-.15.14-.29.29-.43.44l-52.13,55.87-57.94-56.31c-4.95-4.81-12.87-4.7-17.68.25-4.81,4.95-4.7,12.87.25,17.68l67.09,65.2c2.34,2.27,5.46,3.54,8.71,3.54.1,0,.2,0,.31,0,3.36-.08,6.54-1.51,8.83-3.97l60.63-64.97,57.72-56.09,52.13,55.87c4.71,5.05,12.62,5.32,17.67.61,5.05-4.71,5.32-12.62.61-17.67Z"/>
</svg>