<?xml version="1.0" encoding="UTF-8"?>
<svg id="a" data-name="layer1" xmlns="http://www.w3.org/2000/svg" viewBox="0 0 500 500">
  <path d="M465.33,412.26h-51.95c-6.9,0-12.5-5.6-12.5-12.5v-223.79h-63.33v169.86c0,6.9-5.6,12.5-12.5,12.5h-72.44c-6.9,0-12.5-5.6-12.5-12.5v-71.33h-34.38c-6.9,0-12.5-5.6-12.5-12.5V112.74h-68.52v263.98c0,6.9-5.6,12.5-12.5,12.5H40.55c-6.9,0-12.5-5.6-12.5-12.5v-121.33H-7.12c-6.9,0-12.5-5.6-12.5-12.5s5.6-12.5,12.5-12.5h47.67c6.9,0,12.5,5.6,12.5,12.5v121.33h46.65V100.24c0-6.9,5.6-12.5,12.5-12.5h93.52c6.9,0,12.5,5.6,12.5,12.5v149.27h34.38c6.9,0,12.5,5.6,12.5,12.5v71.33h47.44v-169.86c0-6.9,5.6-12.5,12.5-12.5h88.33c6.9,0,12.5,5.6,12.5,12.5v223.79h26.95v-144.37c0-6.9,5.6-12.5,12.5-12.5h34.67c6.9,0,12.5,5.6,12.5,12.5s-5.6,12.5-12.5,12.5h-22.17v144.37c0,6.9-5.6,12.5-12.5,12.5Z"/>
</svg>