<?xml version="1.0" encoding="UTF-8"?>
<svg id="a" data-name="layer1" xmlns="http://www.w3.org/2000/svg" viewBox="0 0 500 500">
  <path d="M500.42,406.19c-7.32.53-13.42-5.26-13.42-12.47V120h-23.5v273.5c0,6.9-5.6,12.5-12.5,12.5h-64c-6.9,0-12.5-5.6-12.5-12.5V120h-70v273.5c0,6.9-5.6,12.5-12.5,12.5h-86.5c-6.9,0-12.5-5.6-12.5-12.5V120h-26v273.5c0,6.9-5.6,12.5-12.5,12.5h-82c-6.9,0-12.5-5.6-12.5-12.5V120H12.5v269.84c0,6.39-5.2,12.26-11.58,12.72-7.32.53-13.42-5.26-13.42-12.47V107.5c0-6.9,5.6-12.5,12.5-12.5h72.5c6.9,0,12.5,5.6,12.5,12.5v273.5h57V107.5c0-6.9,5.6-12.5,12.5-12.5h51c6.9,0,12.5,5.6,12.5,12.5v273.5h61.5V107.5c0-6.9,5.6-12.5,12.5-12.5h95c6.9,0,12.5,5.6,12.5,12.5v273.5h39V107.5c0-6.9,5.6-12.5,12.5-12.5h48.5c6.9,0,12.5,5.6,12.5,12.5v285.97c0,6.39-5.2,12.26-11.58,12.72Z"/>
</svg>