<?xml version="1.0" encoding="UTF-8"?>
<svg id="a" data-name="layer1" xmlns="http://www.w3.org/2000/svg" viewBox="0 0 500 500">
  <path d="M374.592,408.5h-.003c-3.643,0-7.105-1.591-9.479-4.355L124.081,123.557,9.527,258.258c-4.472,5.259-12.361,5.897-17.62,1.424-5.259-4.472-5.897-12.361-1.424-17.62L114.512,96.22c2.368-2.784,5.836-4.393,9.491-4.402,3.651.005,7.131,1.582,9.513,4.355l241.082,280.649,115.93-134.813c4.501-5.235,12.393-5.829,17.628-1.327,5.234,4.501,5.829,12.393,1.327,17.628l-125.413,145.84c-2.375,2.761-5.836,4.35-9.478,4.35Z"/>
</svg>