<?xml version="1.0" encoding="UTF-8"?>
<svg id="a" data-name="layer1" xmlns="http://www.w3.org/2000/svg" width="1000" height="1000" viewBox="0 0 1000 1000">
  <path d="M443.71,748.349c-7.7,0-15.277-2.735-21.885-7.994-.5-.397-.979-.818-1.438-1.261-28.322-27.347-42.051-110.537-61.298-244.295-10.101-70.201-21.324-148.199-35.128-188.177-3.354,9.912-6.331,21.263-8.957,31.282-1.337,5.1-2.602,9.925-3.775,13.995-2.427,9.548-4.842,19.467-7.398,29.963-5.776,23.721-11.75,48.249-18.207,69.73-4.776,15.893-10.576,34.058-18.973,48.45-15.107,25.893-33.732,30.335-46.897,29.389-12.505-.472-23.94-5.834-35.005-11.022-8.181-3.836-16.641-7.802-24.201-8.987-.218-.034-.435-.072-.651-.113-14.391-2.745-30.578,2.673-47.712,8.409-1.979.662-3.957,1.324-5.932,1.974-10.488,3.452-21.796-2.253-25.25-12.746-3.453-10.492,2.253-21.797,12.746-25.25,1.911-.629,3.823-1.269,5.738-1.91,20.178-6.754,43.033-14.407,67.578-9.83,13.055,2.104,24.53,7.485,34.665,12.236,7.507,3.52,15.271,7.16,19.626,7.27.398.01.796.032,1.193.066,3.484.298,8.19-7.307,9.553-9.644,6.19-10.609,11.1-26.11,15.215-39.806,6.152-20.464,11.997-44.467,17.65-67.68,2.608-10.712,5.072-20.83,7.577-30.673.054-.213.111-.425.173-.636,1.056-3.644,2.289-8.349,3.595-13.329,11.136-42.473,20.083-70.674,42.107-75.486,4.995-1.092,17.834-2.147,29.101,11.597.458.558.885,1.141,1.28,1.746,22.737,34.829,35.317,122.255,49.883,223.485,7.293,50.684,14.834,103.093,23.516,144.678,9.39,44.979,17.538,63.988,22.491,71.976,1.721-1.909,4.1-4.961,7.127-9.783,5.211-8.299,10.403-18.728,14.984-27.929,2.354-4.729,4.582-9.203,6.758-13.31l1.653-3.409c12.434-25.644,25.291-52.159,39.647-74.71,32.002-52.491,63.857-56.983,105.219-57.186,17.929-1.626,31.955-7.182,46.062-28.983,9.78-15.99,13.563-46.505,17.223-76.017,3.023-24.384,6.149-49.599,13.082-69.413,4.334-12.387,9.831-21.878,16.802-29.015,8.954-9.166,20.429-14.282,33.184-14.795,29.443-1.18,46.542,32.243,52.164,43.228,9.298,18.167,18.396,42.894,27.043,73.495,10.491,37.13,40.026,62.077,73.493,62.077h.871c11.046,0,20,8.954,20,20s-8.954,20-20,20h-.871c-51.569,0-96.573-36.651-111.986-91.2-21.123-74.758-37.419-86.268-39.804-87.592-2.671.222-7.797,1.744-13.14,17.013-5.519,15.773-8.377,38.828-11.142,61.124-4.2,33.87-8.542,68.892-22.982,92.271-.067.109-.136.218-.206.325-24.716,38.344-54.242,45.478-77.203,47.408-.534.045-1.069.068-1.605.07-34.877.123-49.916,1.629-72.14,38.16-.073.12-.147.239-.223.357-13.153,20.629-25.528,46.151-37.496,70.834l-1.815,3.742c-.107.222-.219.442-.335.66-1.981,3.725-4.149,8.081-6.445,12.693-13.814,27.748-28.099,56.44-51.762,61.69-2.374.527-4.76.787-7.135.787Z" fill="#000" stroke-width="0"/>
</svg>