<?xml version="1.0" encoding="UTF-8"?>
<svg id="a" data-name="layer1" xmlns="http://www.w3.org/2000/svg" viewBox="0 0 500 500">
  <path d="M250,408.34c-32.33,0-59.91-16.62-84.3-50.82-20.29-28.44-36.43-66.15-52.03-102.61-15.08-35.24-30.68-71.68-49.4-97.92C44.63,129.48,24.31,116.66.31,116.66c-6.9,0-12.5-5.6-12.5-12.5s5.6-12.5,12.5-12.5c32.33,0,59.91,16.62,84.3,50.82,20.29,28.44,36.43,66.15,52.03,102.61,15.08,35.24,30.68,71.68,49.4,97.92,19.63,27.52,39.95,40.33,63.95,40.33s44.32-12.82,63.95-40.33c18.72-26.25,34.32-62.69,49.4-97.92,15.61-36.46,31.74-74.16,52.03-102.61,24.39-34.19,51.97-50.82,84.3-50.82,6.9,0,12.5,5.6,12.5,12.5s-5.6,12.5-12.5,12.5c-24,0-44.32,12.82-63.95,40.33-18.72,26.25-34.32,62.69-49.4,97.92-15.61,36.46-31.74,74.16-52.03,102.61-24.39,34.19-51.97,50.82-84.3,50.82Z"/>
</svg>