<?xml version="1.0" encoding="UTF-8"?>
<svg id="a" data-name="layer1" xmlns="http://www.w3.org/2000/svg" viewBox="0 0 500 500">
  <path d="M31.246,408.029c-16.815,0-24.054-22.21-29.373-46.212-5.232-23.609-9.7-56.681-13.303-98.43-.596-6.909,4.558-12.982,11.47-13.528h0c6.847-.541,12.847,4.551,13.438,11.393,5.979,69.228,13.182,100.064,17.767,113.478,4.849-14.188,12.628-47.867,18.789-125.852,3.769-47.709,8.593-85.044,14.338-110.971,5.319-24.002,12.559-46.213,29.373-46.213s24.054,22.211,29.373,46.212c5.739,25.899,10.559,63.181,14.327,110.818,6.401,61.955,14.365,86.442,18.801,95.764,4.439-9.329,12.413-33.847,18.816-95.91,3.8-36.832,8.682-65.716,14.508-85.852,4.973-17.186,12.784-36.912,29.176-36.912s24.203,19.726,29.176,36.912c5.793,20.021,10.652,48.691,14.443,85.224,7.692,37.071,17.194,44.372,18.881,45.391,1.696-1.024,11.292-8.4,19.005-45.992,3.993-19.459,9.205-34.866,15.493-45.791,5.326-9.256,14.507-20.288,28.002-20.288s22.676,11.033,28.002,20.288c6.127,10.646,11.233,25.548,15.184,44.308,5.087,10.429,12.245,16.611,19.313,16.611,7.338,0,14.772-6.663,19.886-17.823,9.299-20.293,25.229-32.408,42.614-32.408,17.205,0,32.987,11.867,42.324,31.784,2.964,6.321.553,14.188-5.769,17.15-6.297,2.95-13.778.198-16.669-6.111-5.114-11.16-12.548-17.823-19.886-17.823s-14.772,6.663-19.886,17.823c-9.299,20.293-25.229,32.408-42.614,32.408s-33.386-12.17-42.676-32.544c-.372-.816-.64-1.686-.82-2.565-7.713-37.588-17.308-44.962-19.004-45.987-1.696,1.024-11.292,8.4-19.005,45.993-3.993,19.46-9.205,34.866-15.493,45.791-5.326,9.256-14.507,20.288-28.002,20.288s-22.676-11.033-28.002-20.288c-6.289-10.928-11.502-26.34-15.496-45.806-.082-.4-.145-.814-.187-1.22-6.403-62.059-14.376-86.576-18.815-95.905-4.439,9.329-12.413,33.847-18.816,95.91-3.8,36.832-8.682,65.717-14.508,85.852-4.973,17.185-12.784,36.912-29.176,36.912s-24.203-19.726-29.176-36.912c-5.826-20.135-10.708-49.02-14.508-85.851-.01-.099-.019-.199-.027-.298-6.161-77.985-13.94-111.665-18.789-125.852-4.849,14.188-12.628,47.867-18.789,125.852-3.769,47.708-8.593,85.044-14.338,110.971-5.319,24.002-12.559,46.212-29.373,46.212Z"/>
</svg>