<?xml version="1.0" encoding="UTF-8"?>
<svg id="a" data-name="layer1" xmlns="http://www.w3.org/2000/svg" viewBox="0 0 500 500">
  <path d="M191.28,385.55c-1.29,0-2.59-.25-3.82-.76-3.74-1.55-6.17-5.19-6.17-9.24v-109.53l-116.6,116.6c-3.91,3.91-10.24,3.91-14.14,0-3.91-3.91-3.91-10.24,0-14.14l133.67-133.67c2.86-2.86,7.16-3.72,10.9-2.17,3.74,1.55,6.17,5.19,6.17,9.24v109.53l234.03-234.03c2.86-2.86,7.16-3.72,10.9-2.17,3.74,1.55,6.17,5.19,6.17,9.24v251.1c0,5.52-4.48,10-10,10s-10-4.48-10-10v-226.96l-234.03,234.03c-1.91,1.91-4.47,2.93-7.07,2.93Z"/>
</svg>