<?xml version="1.0" encoding="UTF-8"?>
<svg id="a" data-name="layer1" xmlns="http://www.w3.org/2000/svg" viewBox="0 0 500 500">
  <path d="M500.425,406.194c-7.322.527-13.425-5.257-13.425-12.467V120h-80.193v273.5c0,6.904-5.596,12.5-12.5,12.5h-78.173c-6.904,0-12.5-5.596-12.5-12.5V120h-136.634v273.5c0,6.904-5.596,12.5-12.5,12.5h-82c-6.904,0-12.5-5.596-12.5-12.5V120H12.5v269.839c0,6.395-5.197,12.264-11.575,12.722-7.322.527-13.425-5.257-13.425-12.467V107.5c0-6.904,5.596-12.5,12.5-12.5h72.5c6.904,0,12.5,5.596,12.5,12.5v273.5h57V107.5c0-6.904,5.596-12.5,12.5-12.5h161.634c6.904,0,12.5,5.596,12.5,12.5v273.5h53.173V107.5c0-6.904,5.596-12.5,12.5-12.5h105.193c6.904,0,12.5,5.596,12.5,12.5v285.972c0,6.395-5.197,12.264-11.575,12.722Z"/>
</svg>