<?xml version="1.0" encoding="UTF-8"?>
<svg id="a" data-name="layer1" xmlns="http://www.w3.org/2000/svg" width="1000" height="1000" viewBox="0 0 1000 1000">
  <path d="M180.645,749.624h-80.645c-11.046,0-20-8.954-20-20s8.954-20,20-20h60.645v-197.794c0-11.046,8.955-20,20-20h145.162c11.046,0,20,8.954,20,20v144.858h130.968v-385.028c0-11.046,8.955-20,20-20h175.736c11.046,0,20,8.954,20,20v196.381h88.134c11.046,0,20,8.954,20,20v101.674h99.355c11.046,0,20,8.954,20,20s-8.954,20-20,20h-119.355c-11.045,0-20-8.954-20-20v-101.674h-88.134c-11.046,0-20-8.954-20-20v-196.381h-135.736v385.028c0,11.046-8.954,20-20,20h-170.968c-11.046,0-20-8.954-20-20v-144.858h-105.162v197.794c0,11.046-8.954,20-20,20Z" fill="#000" stroke-width="0"/>
</svg>