<?xml version="1.0" encoding="UTF-8"?>
<svg id="a" data-name="layer1" xmlns="http://www.w3.org/2000/svg" viewBox="0 0 1000 1000">
  <path d="M248.2,816h-.06c-7.31-.02-14.24-3.23-18.97-8.8L-18.75,515.69c-8.94-10.51-7.67-26.28,2.85-35.22,10.51-8.94,26.28-7.66,35.22,2.85l228.98,269.25L730.08,191.7c4.74-5.52,11.66-8.7,18.95-8.7h0c7.28,0,14.2,3.17,18.94,8.69l250.68,291.51c9,10.46,7.81,26.24-2.65,35.24-10.46,9-26.24,7.81-35.24-2.65l-231.73-269.47-481.89,560.98c-4.75,5.53-11.67,8.7-18.95,8.7Z"/>
</svg>