<?xml version="1.0" encoding="UTF-8"?>
<svg id="a" data-name="layer1" xmlns="http://www.w3.org/2000/svg" viewBox="0 0 500 500">
  <path d="M124.101,408h-.031c-3.653-.009-7.119-1.617-9.486-4.399L-9.374,257.843c-4.47-5.256-3.833-13.14,1.423-17.61,5.255-4.47,13.14-3.832,17.61,1.423l114.488,134.624L365.039,95.852c2.372-2.762,5.832-4.351,9.473-4.352h.003c3.64,0,7.099,1.587,9.472,4.347l125.341,145.756c4.499,5.231,3.905,13.119-1.326,17.618-5.232,4.498-13.119,3.905-17.618-1.327l-115.864-134.736-240.943,280.488c-2.374,2.763-5.835,4.352-9.476,4.352Z"/>
</svg>