<?xml version="1.0" encoding="UTF-8"?>
<svg id="a" data-name="layer1" xmlns="http://www.w3.org/2000/svg" viewBox="0 0 500 500">
  <path d="M191.284,385.552c-1.288,0-2.587-.249-3.825-.762-3.737-1.548-6.173-5.194-6.173-9.239v-109.532l-116.603,116.603c-3.905,3.905-10.237,3.905-14.142,0-3.905-3.905-3.905-10.237,0-14.142l133.674-133.674c2.86-2.86,7.161-3.716,10.898-2.168,3.737,1.548,6.173,5.194,6.173,9.239v109.532l234.032-234.032c2.86-2.86,7.161-3.715,10.898-2.168,3.737,1.548,6.173,5.194,6.173,9.239v251.103c0,5.523-4.477,10-10,10s-10-4.477-10-10v-226.961l-234.032,234.032c-1.913,1.913-4.471,2.929-7.073,2.929Z"/>
</svg>