<?xml version="1.0" encoding="UTF-8"?>
<svg id="a" data-name="layer1" xmlns="http://www.w3.org/2000/svg" viewBox="0 0 500 500">
  <path d="M444.44,408.03c-9.09,0-17.52-4.57-25.08-13.57-6.01-7.17-11.69-17.53-16.88-30.79-10.28-26.27-18.9-63.98-25.61-112.08-6.35-45.51-14.69-82.32-24.13-106.42-9.09-23.24-16.72-28.47-18.68-28.47s-9.58,5.23-18.68,28.47c-9.42,24.07-17.75,60.8-24.1,106.22-5.09,47.8-11.6,85.24-19.37,111.3-3.96,13.3-8.13,23.27-12.73,30.47-6.31,9.87-13.82,14.87-22.34,14.87-19.32,0-29.27-25.88-35.07-45.35-7.78-26.09-14.3-63.61-19.39-111.5-10.59-99.62-24.68-126.39-29.61-132.94-4.93,6.54-19,33.28-29.58,132.71-3.32,47.54-7.57,84.73-12.62,110.55-2.55,13.01-5.21,22.74-8.15,29.75-4.67,11.13-11.15,16.77-19.28,16.77s-14.61-5.64-19.28-16.77c-2.94-7.01-5.6-16.74-8.15-29.75-5.06-25.87-9.31-63.14-12.64-110.78-4.83-69.23-10.82-103.69-15.12-120.58-4.04,15.85-9.56,47.17-14.22,108.18-.52,6.85-6.48,12-13.33,11.53h0c-6.91-.48-12.12-6.5-11.6-13.41,3.18-41.68,7.11-74.69,11.72-98.24,2.55-13.01,5.21-22.74,8.15-29.75,4.67-11.13,11.15-16.77,19.28-16.77s14.61,5.64,19.28,16.77c2.94,7.01,5.6,16.74,8.15,29.75,5.06,25.87,9.31,63.14,12.64,110.78,4.83,69.23,10.82,103.69,15.12,120.58,4.3-16.89,10.29-51.35,15.12-120.58.01-.15.02-.3.04-.45,5.09-47.89,11.61-85.41,19.39-111.5,3.96-13.3,8.13-23.27,12.73-30.47,6.31-9.87,13.82-14.87,22.34-14.87,19.32,0,29.27,25.88,35.07,45.35,7.78,26.09,14.3,63.61,19.39,111.5,10.59,99.62,24.68,126.39,29.61,132.94,4.93-6.54,19.02-33.32,29.61-132.94.01-.14.03-.27.05-.41,6.71-48.1,15.33-85.81,25.61-112.08,5.19-13.26,10.87-23.62,16.88-30.79,7.55-9.01,15.99-13.57,25.08-13.57s17.52,4.57,25.08,13.57c6.01,7.17,11.69,17.53,16.88,30.79,10.28,26.27,18.9,63.98,25.61,112.08,6.35,45.51,14.69,82.32,24.13,106.42,9.09,23.24,16.72,28.47,18.68,28.47s9.58-5.23,18.68-28.47c9.41-24.04,17.73-60.69,24.07-106.01.95-6.81,7.09-11.91,13.92-11.09s11.86,7.22,10.9,14.14c-6.71,48.1-15.33,85.81-25.61,112.08-5.19,13.26-10.87,23.62-16.88,30.79-7.55,9.01-15.99,13.57-25.08,13.57Z"/>
</svg>