<?xml version="1.0" encoding="UTF-8"?>
<svg id="a" data-name="layer1" xmlns="http://www.w3.org/2000/svg" width="1000" height="1000" viewBox="0 0 1000 1000">
  <path d="M500,753.345c-3.483,0-6.965-.908-10.078-2.725l-400-233.344c-9.541-5.566-12.764-17.812-7.198-27.353,5.566-9.541,17.812-12.763,27.353-7.198l369.922,215.798v-431.869c0-7.161,3.829-13.776,10.039-17.343,6.21-3.567,13.853-3.541,20.039.068l400,233.346c9.541,5.566,12.763,17.812,7.198,27.353-5.566,9.541-17.812,12.763-27.353,7.198l-369.922-215.8v431.869c0,7.161-3.829,13.776-10.039,17.343-3.084,1.772-6.523,2.657-9.961,2.657Z" fill="#000" stroke-width="0"/>
</svg>