<?xml version="1.0" encoding="UTF-8"?>
<svg id="a" data-name="layer1" xmlns="http://www.w3.org/2000/svg" viewBox="0 0 500 500">
  <path d="M31.25,408.03c-16.81,0-24.05-22.21-29.37-46.21-5.23-23.61-9.7-56.68-13.3-98.43-.6-6.91,4.56-12.98,11.47-13.53h0c6.85-.54,12.85,4.55,13.44,11.39,5.98,69.23,13.18,100.06,17.77,113.48,4.85-14.19,12.63-47.87,18.79-125.85,3.77-47.71,8.59-85.04,14.34-110.97,5.32-24,12.56-46.21,29.37-46.21s24.05,22.21,29.37,46.21c5.74,25.9,10.56,63.18,14.33,110.82,6.4,61.95,14.37,86.44,18.8,95.76,4.44-9.33,12.41-33.85,18.82-95.91,3.8-36.83,8.68-65.72,14.51-85.85,4.97-17.19,12.78-36.91,29.18-36.91s24.2,19.73,29.18,36.91c5.79,20.02,10.65,48.69,14.44,85.22,7.69,37.07,17.19,44.37,18.88,45.39,1.7-1.02,11.29-8.4,19.01-45.99,3.99-19.46,9.21-34.87,15.49-45.79,5.33-9.26,14.51-20.29,28-20.29s22.68,11.03,28,20.29c6.13,10.65,11.23,25.55,15.18,44.31,5.09,10.43,12.24,16.61,19.31,16.61s14.77-6.66,19.89-17.82c9.3-20.29,25.23-32.41,42.61-32.41s32.99,11.87,42.32,31.78c2.96,6.32.55,14.19-5.77,17.15-6.3,2.95-13.78.2-16.67-6.11-5.11-11.16-12.55-17.82-19.89-17.82s-14.77,6.66-19.89,17.82c-9.3,20.29-25.23,32.41-42.61,32.41s-33.39-12.17-42.68-32.54c-.37-.82-.64-1.69-.82-2.56-7.71-37.59-17.31-44.96-19-45.99-1.7,1.02-11.29,8.4-19.01,45.99-3.99,19.46-9.21,34.87-15.49,45.79-5.33,9.26-14.51,20.29-28,20.29s-22.68-11.03-28-20.29c-6.29-10.93-11.5-26.34-15.5-45.81-.08-.4-.14-.81-.19-1.22-6.4-62.06-14.38-86.58-18.82-95.9-4.44,9.33-12.41,33.85-18.82,95.91-3.8,36.83-8.68,65.72-14.51,85.85-4.97,17.19-12.78,36.91-29.18,36.91s-24.2-19.73-29.18-36.91c-5.83-20.14-10.71-49.02-14.51-85.85-.01-.1-.02-.2-.03-.3-6.16-77.99-13.94-111.66-18.79-125.85-4.85,14.19-12.63,47.87-18.79,125.85-3.77,47.71-8.59,85.04-14.34,110.97-5.32,24-12.56,46.21-29.37,46.21Z"/>
</svg>