<?xml version="1.0" encoding="UTF-8"?>
<svg id="a" data-name="layer1" xmlns="http://www.w3.org/2000/svg" viewBox="0 0 1000 1000">
  <path d="M382.57,771.1c-2.58,0-5.17-.5-7.65-1.52-7.47-3.1-12.35-10.39-12.35-18.48v-219.06l-233.21,233.21c-7.81,7.81-20.47,7.81-28.28,0-7.81-7.81-7.81-20.47,0-28.28l267.35-267.35c5.72-5.72,14.32-7.43,21.8-4.34,7.47,3.1,12.35,10.39,12.35,18.48v219.06l468.06-468.06c5.72-5.72,14.32-7.43,21.8-4.34,7.47,3.1,12.35,10.39,12.35,18.48v502.21c0,11.05-8.95,20-20,20s-20-8.95-20-20v-453.92l-468.06,468.06c-3.83,3.83-8.94,5.86-14.15,5.86Z"/>
</svg>