<?xml version="1.0" encoding="UTF-8"?>
<svg id="a" data-name="layer1" xmlns="http://www.w3.org/2000/svg" width="1000" height="1000" viewBox="0 0 1000 1000">
  <path d="M298.445,753.345h-.05c-5.848-.015-11.397-2.588-15.186-7.043l-198.445-233.346c-7.156-8.414-6.136-21.036,2.279-28.192,8.414-7.156,21.036-6.135,28.192,2.279l183.286,215.521,385.646-448.94c3.798-4.422,9.336-6.966,15.166-6.968h.005c5.828,0,11.365,2.541,15.164,6.96l200.661,233.344c7.202,8.375,6.251,21.002-2.124,28.204-8.376,7.202-21.003,6.251-28.205-2.124l-185.489-215.7-385.73,449.039c-3.8,4.424-9.341,6.968-15.171,6.968Z" fill="#231815" stroke-width="0"/>
</svg>