<?xml version="1.0" encoding="UTF-8"?>
<svg id="a" data-name="layer1" xmlns="http://www.w3.org/2000/svg" viewBox="0 0 1000 1000">
  <path d="M500,816.68c-4.3,0-8.6-1.11-12.45-3.32-7.76-4.46-12.55-12.73-12.55-21.68V251.85L12.6,521.59c-11.93,6.96-27.23,2.93-34.19-9-6.96-11.93-2.93-27.23,9-34.19L487.4,186.72c7.73-4.51,17.29-4.54,25.05-.08,7.76,4.46,12.55,12.73,12.55,21.68v539.84l462.4-269.75c11.93-6.96,27.23-2.93,34.19,9,6.96,11.93,2.93,27.23-9,34.19l-500,291.68c-3.89,2.27-8.24,3.41-12.6,3.41Z"/>
</svg>