<?xml version="1.0" encoding="UTF-8"?>
<svg id="a" data-name="layer1" xmlns="http://www.w3.org/2000/svg" width="1000" height="1000" viewBox="0 0 1000 1000">
  <path d="M385.132,753.36c-.568,0-1.145-.019-1.732-.058-19.241-1.268-25.953-22.967-28.479-31.135-4.083-13.199-7.96-32.677-11.854-59.541-3.593-18.868-6.275-55.01-9.376-96.8-2.765-37.252-5.897-79.473-10.108-114.107-1.094-8.994-2.176-16.752-3.226-23.439-1.583,5.917-3.198,12.068-4.877,18.46-8.399,31.985-17.919,68.237-29.114,96.065-.017.042-.034.084-.051.126-2.72,6.629-10.996,26.802-29.183,30.394-5.461,1.078-16.052,1.369-26.195-8.552-10.077-9.191-17.589-24.837-26.266-42.906-5.875-12.236-15.216-31.69-22.461-39.14-4.134,3.381-14.829,15.43-30.28,56.487-12.533,33.303-23.306,72.723-30.434,98.809-1.858,6.799-3.463,12.671-4.881,17.663-3.019,10.625-14.077,16.793-24.704,13.773-10.625-3.018-16.792-14.079-13.773-24.704,1.363-4.799,2.943-10.582,4.773-17.277,7.172-26.245,18.011-65.906,30.89-100.501,17.489-46.979,33.691-72.065,52.533-81.34,9.921-4.883,20.392-5.321,30.28-1.265.743.305,1.466.654,2.167,1.045,18.527,10.354,30.435,35.153,41.95,59.135,2.847,5.931,6.5,13.539,9.917,19.791,9.697-25.129,18.413-58.321,26.145-87.764,2.477-9.434,4.817-18.345,7.147-26.868.031-.111.062-.222.094-.333.97-3.319,1.871-6.506,2.728-9.536,2.855-10.099,5.322-18.821,8.437-25.86,5.612-12.684,13.864-19.928,24.526-21.529,4.32-.65,8.732.134,12.564,2.229,23.222,12.694,30.345,60.659,41.292,208.182,2.908,39.193,5.655,76.212,8.846,92.62.062.318.116.637.162.958,1.556,10.768,3.026,19.694,4.387,27.088,1.956-6.631,3.834-13.287,5.458-19.039,15.401-54.559,25.171-85.812,46.86-93.732,7.769-2.836,16.23-2.057,23.571,2.099,7.051,3.162,12.79,8.422,18.356,13.523.764.7,1.674,1.535,2.629,2.389,1.942-5.408,3.592-11.937,5.005-17.541,3.739-15.23,7.857-35.45,12.217-56.855,5.555-27.272,11.298-55.47,16.897-76.356,3.324-12.985,12.122-47.075,38.223-48.076,20.355-.783,31.983,19.778,35.804,26.534,5.599,9.9,11.299,23.337,16.943,39.94,8.134,22.804,16.181,52.211,23.243,79.282.872-9.085,1.823-19.555,2.761-29.883,3.985-43.858,9.441-103.924,16.554-153.519,4.018-28.014,8.039-49.183,12.292-64.715,3.455-12.614,10.643-38.861,31.758-40.814,6.26-.577,18.118.811,27.289,16.614,3.782,6.517,7.306,15.659,10.774,27.947.011.039.022.079.033.118,5.535,20.085,11.078,44.618,16.439,68.343,4.031,17.84,7.839,34.695,11.616,49.69,1.046,3.769,2.07,7.608,3.093,11.441,2.551,9.567,6.362,23.855,9.996,32.583,3.195-4.115,6.781-9.355,9.352-13.111,13.297-19.429,28.371-41.449,52.049-39.573.604.048,1.207.123,1.804.226,23.558,4.044,39.853,29.932,54.487,86.563,10.148,39.27,17.382,85.373,22.665,119.035,1.623,10.341,3.024,19.272,4.24,26.268,1.892,10.883-5.397,21.238-16.279,23.13-10.884,1.893-21.238-5.397-23.13-16.279-1.272-7.321-2.698-16.402-4.348-26.918-4.803-30.606-11.38-72.524-20.189-108.517-10.059-41.102-18.723-56.25-22.906-61.58-4.727,4.664-11.427,14.454-15.385,20.237-9.639,14.084-18.743,27.387-31.458,33.01-.402.178-.81.342-1.223.493-8.594,3.141-17.647,2.623-25.493-1.459-18.367-9.559-25.07-34.694-32.833-63.799-1.008-3.778-2.017-7.562-3.048-11.273-.043-.155-.084-.31-.124-.466-3.917-15.533-7.978-33.505-11.905-50.884-4.152-18.378-8.417-37.251-12.63-53.823-2.696,13.016-5.805,31.131-9.153,56.29-6.1,45.847-10.958,99.318-14.504,138.361-3.801,41.835-5.127,55.301-6.768,61.918-1.656,11.648-3.371,20.693-5.235,27.617-1.784,6.625-7.213,26.786-25.641,27.837-5.966.34-17.156-1.426-25.015-17.088-2.969-5.917-5.822-14.259-8.723-25.501-1.348-5.168-2.808-10.851-4.351-16.855-8.041-31.298-18.049-70.25-27.831-97.641-.035-.099-.069-.198-.103-.297-4.81-14.166-8.882-23.565-12.037-29.744-.75,2.348-1.551,5.114-2.384,8.367-.019.075-.039.15-.059.224-5.291,19.713-10.921,47.356-16.366,74.088-4.447,21.835-8.648,42.459-12.582,58.471-.01.04-.02.081-.03.121-2.666,10.569-5.984,23.723-11.941,34.203-.07.123-.142.246-.214.367-7.539,12.631-17.144,16.458-23.873,17.443-16.197,2.372-28.47-8.878-37.433-17.092-.8-.733-1.731-1.586-2.678-2.434-1.742,3.473-4.014,8.686-6.769,16.434-4.754,13.371-9.363,29.699-13.82,45.489-4.858,17.21-9.447,33.466-14.21,46.049-3.661,9.671-12.096,31.952-31.588,31.952ZM769.098,459.62s0,0,0,0c0,0,0,0,0,0Z" fill="#000" stroke-width="0"/>
</svg>