<?xml version="1.0" encoding="UTF-8"?>
<svg id="a" data-name="layer1" xmlns="http://www.w3.org/2000/svg" viewBox="0 0 1000 1000">
  <path d="M500,816.68c-64.67,0-119.82-33.24-168.6-101.63-40.58-56.89-72.86-132.29-104.07-205.21-30.17-70.48-61.36-143.36-98.8-195.85C89.27,258.95,48.63,233.32.63,233.32c-13.81,0-25-11.19-25-25s11.19-25,25-25c64.67,0,119.82,33.24,168.6,101.63,40.58,56.89,72.86,132.29,104.07,205.21,30.17,70.48,61.36,143.36,98.8,195.85,39.26,55.04,79.9,80.67,127.9,80.67s88.64-25.63,127.9-80.67c37.45-52.49,68.64-125.37,98.8-195.85,31.21-72.92,63.48-148.32,104.07-205.21,48.79-68.39,103.94-101.63,168.6-101.63,13.81,0,25,11.19,25,25s-11.19,25-25,25c-48,0-88.64,25.63-127.9,80.67-37.45,52.49-68.64,125.37-98.8,195.85-31.21,72.92-63.48,148.32-104.07,205.21-48.78,68.39-103.94,101.63-168.6,101.63Z"/>
</svg>