<?xml version="1.0" encoding="UTF-8"?>
<svg id="a" data-name="layer1" xmlns="http://www.w3.org/2000/svg" viewBox="0 0 1000 1000">
  <path d="M749.18,816.68h0c-7.29,0-14.21-3.18-18.96-8.71L248.16,246.8,19.05,516.2c-8.94,10.52-24.72,11.79-35.24,2.85-10.52-8.94-11.79-24.72-2.85-35.24L229.02,192.12c4.74-5.57,11.67-8.79,18.98-8.8,7.3.01,14.26,3.16,19.03,8.71l482.16,561.3,231.86-269.63c9-10.47,24.79-11.66,35.26-2.65,10.47,9,11.66,24.79,2.65,35.26l-250.83,291.68c-4.75,5.52-11.67,8.7-18.96,8.7Z"/>
</svg>