<?xml version="1.0" encoding="UTF-8"?>
<svg id="a" data-name="layer1" xmlns="http://www.w3.org/2000/svg" viewBox="0 0 500 500">
  <path d="M444.445,408.029c-9.086,0-17.524-4.566-25.077-13.571-6.011-7.167-11.691-17.527-16.882-30.79-10.28-26.271-18.896-63.979-25.607-112.078-6.35-45.515-14.693-82.315-24.127-106.423-9.095-23.241-16.722-28.472-18.678-28.472s-9.583,5.231-18.677,28.472c-9.42,24.073-17.752,60.799-24.099,106.221-5.087,47.796-11.604,85.238-19.371,111.295-3.964,13.298-8.129,23.266-12.733,30.472-6.306,9.87-13.823,14.874-22.341,14.874-19.323,0-29.271-25.88-35.074-45.346-7.778-26.094-14.303-63.608-19.393-111.5-10.588-99.62-24.677-126.393-29.607-132.938-4.926,6.54-18.997,33.276-29.582,132.712-3.322,47.535-7.568,84.73-12.62,110.555-2.546,13.011-5.211,22.742-8.149,29.747-4.667,11.128-11.152,16.77-19.277,16.77s-14.61-5.642-19.277-16.77c-2.938-7.005-5.604-16.735-8.149-29.747-5.061-25.865-9.312-63.137-12.635-110.781-4.83-69.229-10.82-103.691-15.123-120.578-4.038,15.847-9.562,47.172-14.218,108.184-.523,6.852-6.479,12.004-13.334,11.526h0c-6.914-.482-12.122-6.502-11.596-13.413,3.176-41.682,7.114-74.69,11.721-98.24,2.546-13.011,5.212-22.742,8.149-29.747,4.667-11.128,11.152-16.77,19.277-16.77s14.611,5.642,19.277,16.77c2.938,7.005,5.603,16.735,8.149,29.747,5.061,25.865,9.312,63.137,12.635,110.781,4.83,69.229,10.821,103.691,15.123,120.578,4.302-16.887,10.293-51.349,15.123-120.578.01-.15.024-.301.04-.451,5.09-47.892,11.614-85.406,19.393-111.501,3.964-13.298,8.129-23.266,12.733-30.472,6.306-9.87,13.823-14.874,22.341-14.874,19.322,0,29.271,25.88,35.073,45.346,7.778,26.094,14.303,63.608,19.393,111.5,10.588,99.62,24.677,126.393,29.607,132.938,4.93-6.545,19.019-33.317,29.606-132.937.014-.136.031-.271.05-.406,6.711-48.099,15.326-85.808,25.606-112.079,5.191-13.264,10.87-23.624,16.882-30.791,7.554-9.005,15.991-13.571,25.077-13.571s17.524,4.566,25.078,13.571c6.011,7.167,11.691,17.526,16.881,30.79,10.28,26.271,18.895,63.979,25.607,112.078,6.35,45.515,14.693,82.315,24.127,106.423,9.095,23.241,16.723,28.472,18.678,28.472s9.583-5.231,18.678-28.472c9.405-24.036,17.726-60.687,24.069-106.013.953-6.809,7.094-11.913,13.921-11.094,6.967.836,11.862,7.221,10.897,14.139-6.711,48.099-15.327,85.807-25.607,112.078-5.19,13.264-10.87,23.623-16.882,30.79-7.553,9.005-15.991,13.571-25.077,13.571Z"/>
</svg>