<?xml version="1.0" encoding="UTF-8"?>
<svg id="a" data-name="layer1" xmlns="http://www.w3.org/2000/svg" viewBox="0 0 500 500">
  <path d="M289.9,407.66c-5.3,0-10.13-3.33-11.9-8.44-11.35-32.81-20.32-68.49-28.23-99.97-4.18-16.63-8.13-32.33-11.93-45.62,0-.03-.02-.06-.03-.1-3.89-13.58-7.86-29.38-12.06-46.11-1.06-4.23-2.14-8.53-3.25-12.89v200.58c0,6.1-4.41,11.31-10.43,12.32-6.02,1-11.88-2.49-13.87-8.26-10.46-30.43-21.22-53.02-32.88-69.06-12.49-17.18-25.44-26.09-39.56-27.21-27.26,2.22-50.97,33.73-72.47,96.27-1.98,5.77-7.85,9.26-13.87,8.26-6.02-1.01-10.43-6.21-10.43-12.32v-200.53c-1.08,4.29-2.14,8.52-3.17,12.69-4.16,16.67-8.09,32.43-11.94,46-1.75,6.17-8.36,10.4-14.64,9.08-7.17-1.51-11.45-8.73-9.48-15.66,3.76-13.24,7.67-28.9,11.81-45.48,7.87-31.55,16.8-67.31,28.11-100.21,1.99-5.78,7.85-9.27,13.88-8.27,6.02,1.01,10.44,6.22,10.44,12.33v229.31c3.88-7,7.87-13.3,11.98-18.96,17.13-23.55,36.98-36.18,59.01-37.53.5-.03,1.01-.03,1.51,0,22.02,1.31,41.87,13.93,59.01,37.49,4.12,5.66,8.11,11.98,12,18.99V105.22c0-5.4,3.34-10.35,8.46-12.07,6.69-2.25,13.68,1.36,15.88,7.77,11.34,32.98,20.29,68.82,28.18,100.44,4.12,16.5,8.01,32.09,11.75,45.27,0,.03.02.06.03.09,3.9,13.71,7.88,29.66,12.1,46.54,1.02,4.07,2.05,8.21,3.1,12.4V103.89c0-6.12,4.42-11.34,10.46-12.35,6.03-1.01,11.91,2.49,13.9,8.28,21.53,62.66,45.3,94.24,72.65,96.51,27.34-2.24,51.11-33.82,72.64-96.51,1.99-5.79,7.86-9.29,13.9-8.28,6.03,1.01,10.46,6.23,10.46,12.35v201.7c1.05-4.18,2.08-8.3,3.09-12.35,4.22-16.89,8.2-32.84,12.1-46.54,1.89-6.64,8.8-10.49,15.45-8.6,6.64,1.89,10.49,8.81,8.6,15.45-3.79,13.31-7.72,29.07-11.89,45.75-7.85,31.46-16.76,67.13-28.02,99.93-2.14,6.23-8.81,9.81-15.31,7.94-5.4-1.55-9.01-6.64-9.01-12.26v-230.14c-3.88,6.99-7.86,13.29-11.96,18.93-17.12,23.55-36.98,36.17-59.02,37.53-.51.03-1.03.03-1.54,0-22.04-1.38-41.89-14.01-59.01-37.55-4.11-5.64-8.09-11.94-11.96-18.92v230.18c0,4.98-2.83,9.61-7.38,11.63-1.71.76-3.49,1.11-5.21,1.11Z"/>
</svg>