<?xml version="1.0" encoding="UTF-8"?>
<svg id="a" data-name="layer1" xmlns="http://www.w3.org/2000/svg" width="1000" height="1000" viewBox="0 0 1000 1000">
  <path d="M700,753.345c-51.786,0-95.953-26.592-135.025-81.296-32.506-45.511-58.357-105.834-83.357-164.171-24.163-56.383-49.148-114.685-79.143-156.679-31.452-44.035-64.014-64.545-102.475-64.545s-71.022,20.51-102.475,64.545c-29.994,41.993-54.979,100.296-79.143,156.679-4.35,10.152-16.104,14.857-26.261,10.505-10.153-4.351-14.856-16.108-10.505-26.261,25-58.337,50.852-118.66,83.357-164.171,39.072-54.704,83.239-81.296,135.025-81.296s95.953,26.592,135.025,81.296c32.506,45.512,58.357,105.834,83.357,164.171,24.163,56.383,49.148,114.685,79.143,156.678,31.452,44.035,64.014,64.545,102.475,64.545s71.022-20.51,102.475-64.545c29.994-41.993,54.979-100.296,79.143-156.678,4.352-10.152,16.107-14.857,26.261-10.505,10.153,4.351,14.856,16.108,10.505,26.261-25,58.337-50.852,118.66-83.357,164.171-39.072,54.704-83.239,81.296-135.025,81.296Z" fill="#000" stroke-width="0"/>
</svg>