<?xml version="1.0" encoding="UTF-8"?>
<svg id="a" data-name="layer1" xmlns="http://www.w3.org/2000/svg" viewBox="0 0 500 500">
  <path d="M375,408.341c-32.366,0-59.971-16.62-84.391-50.81-20.316-28.445-36.473-66.147-52.098-102.607-15.102-35.239-30.718-71.678-49.464-97.924-19.658-27.522-40.009-40.34-64.047-40.34s-44.389,12.818-64.047,40.34c-18.746,26.246-34.362,62.685-49.464,97.924-2.719,6.345-10.065,9.286-16.413,6.566-6.346-2.719-9.285-10.068-6.566-16.413,15.625-36.46,31.782-74.162,52.098-102.607,24.42-34.19,52.025-50.81,84.391-50.81s59.971,16.62,84.391,50.81c20.316,28.445,36.473,66.147,52.098,102.607,15.102,35.239,30.718,71.678,49.464,97.924,19.658,27.522,40.009,40.34,64.047,40.34s44.389-12.818,64.047-40.34c18.746-26.246,34.362-62.685,49.464-97.924,2.72-6.345,10.067-9.286,16.413-6.566,6.346,2.719,9.285,10.068,6.566,16.413-15.625,36.46-31.782,74.162-52.098,102.607-24.42,34.19-52.025,50.81-84.391,50.81Z"/>
</svg>