<?xml version="1.0" encoding="UTF-8"?>
<svg id="a" data-name="layer1" xmlns="http://www.w3.org/2000/svg" width="1000" height="1000" viewBox="0 0 1000 1000">
  <path d="M899.106,749.624c-11.046,0-20-8.954-20-20v-437.964h-37.702v437.964c0,11.046-8.954,20-20,20h-102.425c-11.046,0-20-8.954-20-20v-437.964h-111.873v437.964c0,11.046-8.954,20-20,20h-138.692c-11.046,0-20-8.954-20-20v-437.964h-41.234v437.964c0,11.046-8.955,20-20,20h-131.403c-11.046,0-20-8.954-20-20v-437.964h-75.776v432.151c0,11.046-8.954,20-20,20s-20-8.954-20-20v-452.151c0-11.046,8.954-20,20-20h115.776c11.046,0,20,8.954,20,20v437.964h91.403v-437.964c0-11.046,8.955-20,20-20h81.234c11.046,0,20,8.954,20,20v437.964h98.692v-437.964c0-11.046,8.954-20,20-20h151.873c11.046,0,20,8.954,20,20v437.964h62.425v-437.964c0-11.046,8.954-20,20-20h77.702c11.046,0,20,8.954,20,20v457.964c0,11.046-8.954,20-20,20Z" fill="#000" stroke-width="0"/>
</svg>