<?xml version="1.0" encoding="UTF-8"?>
<svg id="a" data-name="layer1" xmlns="http://www.w3.org/2000/svg" viewBox="0 0 1000 1000">
  <path d="M101,812H.51c-12.79,0-24.53-10.39-25.44-23.15-1.05-14.64,10.51-26.85,24.93-26.85h76v-247c0-13.81,11.19-25,25-25h181c13.81,0,25,11.19,25,25v181h164V215c0-13.81,11.19-25,25-25h220c13.81,0,25,11.19,25,25v245h110c13.81,0,25,11.19,25,25v127h123.68c12.79,0,24.53,10.39,25.44,23.15,1.05,14.64-10.51,26.85-24.93,26.85h-149.19c-13.81,0-25-11.19-25-25v-127h-110c-13.81,0-25-11.19-25-25v-245h-170v481c0,13.81-11.19,25-25,25h-214c-13.81,0-25-11.19-25-25v-181H126v247c0,13.81-11.19,25-25,25Z"/>
</svg>