<?xml version="1.0" encoding="UTF-8"?>
<svg id="a" data-name="layer1" xmlns="http://www.w3.org/2000/svg" viewBox="0 0 500 500">
  <path d="M184.951,54.867c-29.819,0-41.759,37.215-53.307,73.205-7.561,23.565-17.915,55.84-29.5,55.84s-21.938-32.274-29.499-55.84c-2.109-6.573-9.146-10.193-15.722-8.084-6.573,2.109-10.192,9.148-8.084,15.722,11.547,35.988,23.486,73.202,53.305,73.202s41.759-37.214,53.306-73.204c7.561-23.565,17.916-55.841,29.501-55.841s21.94,32.275,29.501,55.841c2.108,6.574,9.146,10.193,15.721,8.084,6.574-2.109,10.193-9.147,8.084-15.721-11.547-35.989-23.486-73.204-53.306-73.204Z"/>
  <path d="M180.535,280.928c-2.299-3.583-6.264-5.749-10.521-5.749s-8.222,2.166-10.521,5.749l-72.286,112.65-30.882-48.128c-3.729-5.81-11.461-7.498-17.271-3.77-5.81,3.729-7.498,11.461-3.77,17.271l41.402,64.522c2.299,3.582,6.264,5.749,10.521,5.749s8.222-2.166,10.521-5.749l72.286-112.65,30.883,48.128c3.728,5.81,11.46,7.498,17.271,3.77,5.81-3.729,7.498-11.461,3.77-17.271l-41.403-64.522Z"/>
  <path d="M280.899,151.75l82.807,64.521c2.238,1.744,4.951,2.64,7.685,2.64,1.867,0,3.743-.418,5.485-1.269,4.291-2.097,7.013-6.455,7.013-11.231v-103.457l62.624,48.796c5.445,4.241,13.3,3.268,17.543-2.178s3.269-13.3-2.178-17.543l-82.807-64.522c-3.768-2.936-8.877-3.468-13.17-1.371-4.291,2.097-7.013,6.455-7.013,11.231v103.458l-62.624-48.796c-5.445-4.243-13.299-3.268-17.543,2.178-4.243,5.445-3.269,13.3,2.178,17.543Z"/>
  <path d="M454.195,275.179h-82.807c-6.903,0-12.5,5.597-12.5,12.5v116.545h-57.807v-52.022c0-6.903-5.597-12.5-12.5-12.5s-12.5,5.597-12.5,12.5v64.522c0,6.903,5.597,12.5,12.5,12.5h82.807c6.903,0,12.5-5.597,12.5-12.5v-116.545h57.807v52.022c0,6.903,5.597,12.5,12.5,12.5s12.5-5.597,12.5-12.5v-64.522c0-6.903-5.597-12.5-12.5-12.5Z"/>
</svg>