<?xml version="1.0" encoding="UTF-8"?>
<svg id="a" data-name="layer1" xmlns="http://www.w3.org/2000/svg" viewBox="0 0 500 500">
  <path d="M214.82,405.21c-4.81,0-9.55-1.71-13.68-5-.31-.25-.61-.51-.9-.79-17.7-17.09-26.28-69.09-38.31-152.68-6.31-43.88-13.33-92.62-21.96-117.61-2.1,6.19-3.96,13.29-5.6,19.55-.84,3.19-1.63,6.2-2.36,8.75-1.52,5.97-3.03,12.17-4.62,18.73-3.61,14.83-7.34,30.16-11.38,43.58-2.99,9.93-6.61,21.29-11.86,30.28-9.44,16.18-21.08,18.96-29.31,18.37-7.82-.29-14.96-3.65-21.88-6.89-5.11-2.4-10.4-4.88-15.13-5.62-.14-.02-.27-.04-.41-.07-8.99-1.72-19.11,1.67-29.82,5.26-1.15.38-2.3.77-3.45,1.15-6.28,2.07-13.24-.92-15.74-7.05-2.76-6.78.83-14.36,7.66-16.61,1.19-.39,2.39-.79,3.59-1.19,12.61-4.22,26.9-9,42.24-6.14,8.16,1.32,15.33,4.68,21.67,7.65,4.69,2.2,9.54,4.47,12.27,4.54.25,0,.5.02.75.04,2.18.19,5.12-4.57,5.97-6.03,3.87-6.63,6.94-16.32,9.51-24.88,3.85-12.79,7.5-27.79,11.03-42.3,1.63-6.7,3.17-13.02,4.74-19.17.03-.13.07-.27.11-.4.66-2.28,1.43-5.22,2.25-8.33,6.96-26.55,12.55-44.17,26.32-47.18,3.12-.68,11.15-1.34,18.19,7.25.3.37.58.76.84,1.16,14.18,21.81,22.04,76.41,31.13,139.61,4.56,31.68,9.27,64.43,14.7,90.42,5.87,28.11,10.96,39.99,14.06,44.99,1.08-1.19,2.56-3.1,4.45-6.11,3.26-5.19,6.5-11.71,9.36-17.46,1.47-2.96,2.86-5.75,4.22-8.32l1.03-2.13c7.77-16.03,15.81-32.6,24.78-46.69,20-32.81,39.91-35.61,65.76-35.74,11.21-1.02,19.97-4.49,28.79-18.11,6.11-9.99,8.48-29.07,10.76-47.51,1.89-15.24,3.84-31,8.18-43.38,2.71-7.74,6.14-13.67,10.5-18.13,5.6-5.73,12.77-8.93,20.74-9.25,18.4-.74,29.09,20.15,32.6,27.02,5.81,11.35,11.5,26.81,16.9,45.93,6.56,23.21,25.02,38.8,45.93,38.8h.29c6.39,0,12.26,5.2,12.72,11.57.53,7.32-5.26,13.43-12.47,13.43h-.54c-32.23,0-60.36-22.91-69.99-57-13.2-46.72-23.39-53.92-24.88-54.75-1.67.14-4.87,1.09-8.21,10.63-3.45,9.86-5.24,24.27-6.96,38.2-2.62,21.17-5.34,43.06-14.36,57.67-.04.07-.08.14-.13.2-15.46,23.98-33.93,28.43-48.29,29.63-.32.03-.65.04-.97.04-21.8.08-31.19,1.02-45.08,23.85-.05.07-.09.15-.14.22-8.22,12.89-15.95,28.84-23.43,44.27l-1.13,2.34c-.07.14-.14.28-.21.41-1.24,2.33-2.59,5.05-4.03,7.93-8.63,17.34-17.56,35.27-32.35,38.56-1.48.33-2.98.49-4.46.49Z"/>
</svg>