<?xml version="1.0" encoding="UTF-8"?>
<svg id="a" data-name="layer1" xmlns="http://www.w3.org/2000/svg" viewBox="0 0 1000 1000">
  <path d="M100.81,811.87H0c-13.81,0-25-11.19-25-25s11.19-25,25-25h75.81v-247.24c0-13.81,11.19-25,25-25h181.45c13.81,0,25,11.19,25,25v181.07h163.71V214.41c0-13.81,11.19-25,25-25h219.67c13.81,0,25,11.19,25,25v245.48h110.17c13.81,0,25,11.19,25,25v127.09h124.19c13.81,0,25,11.19,25,25s-11.19,25-25,25h-149.19c-13.81,0-25-11.19-25-25v-127.09h-110.17c-13.81,0-25-11.19-25-25v-245.48h-169.67v481.29c0,13.81-11.19,25-25,25h-213.71c-13.81,0-25-11.19-25-25v-181.07H125.81v247.24c0,13.81-11.19,25-25,25Z"/>
</svg>