<?xml version="1.0" encoding="UTF-8"?>
<svg id="a" data-name="layer1" xmlns="http://www.w3.org/2000/svg" viewBox="0 0 500 500">
  <path d="M442.13,408.59c-.24,0-.48,0-.72-.02-.68-.03-3.64-.13-3.65-.13-1.04-.04-2.06-.2-3.06-.49l-4.08-1.19c-.92-.27-1.81-.64-2.64-1.11l-4.17-2.35c-.64-.36-1.26-.79-1.83-1.26l-4.28-3.55c-.49-.41-.95-.86-1.38-1.33-.45-.5-4.28-4.74-4.28-4.74-.28-.31-.55-.64-.8-.98l-4.52-6.15c-.22-.3-.42-.6-.61-.92-.39-.64-4.6-7.47-4.6-7.47l.05-.03c-.51-.79-.9-1.52-1.2-2.08l-4.04-7.63c-.13-.25-.26-.51-.37-.76-.37-.78-2.22-4.64-3.89-8.1l.05-.02c-.6-1.21-1.28-2.76-2.2-4.86l-1.96-4.48h0c-.08-.17-.15-.35-.22-.52l-7.62-18.81c-.05-.12-.09-.23-.13-.35-.43-1.12-4.77-12.21-7.65-19.59l-8.17-19.8c-.54-1.2-3.83-8.52-4.3-9.56-.43-.89-2.99-6.12-4.58-9.37-.22-.38-.41-.73-.57-1.02l-4.11-7.6c-.86-1.41-5.23-8.58-5.23-8.58h0c-.72-.98-1.53-2.15-2.52-3.58l-2.68-3.86c-.82-1.02-3.68-4.56-5.66-7.01-.24-.24-.46-.48-.68-.7l-5.33-5.56-6.38-5.5c-.24-.16-.46-.31-.66-.44-.24-.15-.75-.48-1.02-.65-.39-.21-.74-.41-1.04-.59l-.89-.46c-.12-.05-.24-.11-.36-.17l-.73-.35s-.04-.02-.06-.03c-.25-.11-.64-.28-.81-.36-.14-.05-.28-.11-.42-.16l-.34-.14c-.25-.08-.52-.17-.8-.26l-.89-.25-.89-.22c-.24-.05-.54-.11-.94-.19-.2-.03-.48-.07-.7-.11-.12,0-.25-.02-.38-.03l-.48-.05c-.22-.01-.51-.03-.9-.05-.23,0-.55,0-.76,0l-1.83.08c-.1.01-.2.03-.3.04l-.75.1h0c-.16.03-.33.05-.5.08l-.37.05c-.25.05-.51.1-.79.15-.33.08-.69.17-1.08.25h0s-1.15.31-1.15.31c-.26.08-.63.2-.84.27-.03.01-.07.02-.1.04-.35.12-.73.25-1.15.38-.41.16-.79.3-1.15.44-.23.1-.66.28-.92.4,0,0,0,0-.01,0l-2.59,1.21s-.09.04-.14.07c-.91.5-1.69.91-2.37,1.27h0s-1.41.83-2.31,1.36c-3,2.43-6.14,4.97-6.95,5.63l-7.28,6.61s-.08.07-.11.1c-5.79,5.78-14.34,14.31-14.99,14.96,0,0,0,0,0,0l-12.63,12.85c-.99,1.01-1.85,1.88-2.68,2.64l.04.04-7.12,6.75c-.25.24-.5.46-.76.67h.01s-6.52,5.62-7.26,6.26c-.27.24-.56.47-.85.69l-7.09,5.24c-.36.26-.72.5-1.07.72v.02s-2.85,1.8-3.46,2.19c-.3.2-.6.38-.92.55l-1.86,1.01c-.76.41-1.66.9-2.66,1.33l.03.06c-2.2,1-3.63,1.65-4.75,2.07v.02s-1.86.66-1.86.66c-.9.32-1.92.68-3.05.95v.06s-2.88.71-3.55.88c-.49.13-.99.23-1.49.29-4.37.59-4.58.62-5.33.62l-3.65.07c-.53,0-1.05-.01-1.58-.07l-3.22-.35c-.76-.08-1.48-.21-2.15-.38v.04s-2.87-.69-3.57-.85c-.58-.12-1.15-.29-1.72-.5l-3.27-1.21c-.7-.26-1.35-.55-1.95-.87l-.02.04s-2.96-1.53-3.64-1.87c-.47-.23-.92-.48-1.36-.77,0,0-3.2-2.09-3.78-2.46-.42-.26-.83-.55-1.22-.87l-3.96-3.21c-.26-.21-.52-.44-.77-.68l-2.01-1.93c-1.28-1.23-2.5-2.39-3.48-3.7l-.04.03c-5.26-7.36-13.15-18.39-13.94-19.48-.26-.35-.49-.71-.71-1.09-4.79-8.18-11.99-20.45-12.62-21.52-.15-.26-.3-.52-.44-.79-4.33-8.52-10.87-21.4-11.44-22.52-.1-.19-.19-.38-.28-.57l-10.43-22.56c-.05-.11-.1-.22-.15-.34h0c-6.15-13.65-17.69-39.3-18.84-41.84l-8.26-16.45c-.04-.08-.08-.15-.11-.23-1.29-2.08-6.35-10.2-7.81-12.53-.78-.96-2.31-2.84-3.14-3.86l-2.62-2.39c-.43-.26-.93-.55-1.4-.83l-.14-.03c-.4.21-.8.43-1.17.63-.84.77-1.94,1.8-2.67,2.47-1,1.31-2.87,3.75-3.69,4.84-.95,1.61-3.51,5.92-4.33,7.3l-4.71,9.72c-1.37,3.55-9.43,24.41-10.63,27.51-3.92,12.64-11.05,35.6-11.83,38.11l-13.22,49.81c-1.77,6.67-8.62,10.65-15.29,8.88-6.67-1.77-10.65-8.62-8.88-15.29l13.28-50.05h.03c.34-1.24.94-3.17,1.99-6.56l10.16-32.71h.04c.24-.81.51-1.5.71-2.02l10.51-27.2c.15-.4.33-.78.52-1.16.42-.85,3.28-6.76,5.04-10.4h.02c.2-.42.43-.85.69-1.28l4.75-8.02.04.03c.77-1.23,1.81-2.6,3.17-4.38l2.4-3.15.05.04c1.04-1.3,2.32-2.48,3.72-3.78l2.32-2.14.04.04c.88-.8,1.95-1.56,3.23-2.25l3.83-2.05c1.29-.69,2.69-1.15,4.13-1.35.44-.07,4.33-.65,4.33-.65,1.58-.24,3.18-.17,4.7.19.36.08,2.08.46,3.2.71,2.27.24,3.84,1.18,8.91,4.17.84.5,1.61,1.08,2.29,1.74.75.69,4,3.65,4,3.65l-.05.05c1.18,1.12,2.27,2.45,3.44,3.89l2.11,2.59-.04.03c.45.55.89,1.15,1.32,1.83l8.17,13.12c.24.39.46.78.65,1.18.58,1.16,5.42,10.8,8.64,17.22h-.03c.36.72.7,1.47,1.07,2.29l18.14,40.3s.02.05.03.07c.52,1.15,6.49,14.05,10.43,22.57.1.19.2.38.3.57l10.86,21.38,12.22,20.83,13.06,18.25c.83.8,2.13,2.05,2.77,2.66l3.18,2.57c.78.49,1.67,1.07,2.72,1.75.02,0,.03.02.05.03l2.65,1.37c.68.25,1.75.65,2.44.91.41.09.81.19,1.19.28l1.16.28c.64.07,1.57.17,2.22.24l2.27-.04c.67-.09,1.71-.23,2.39-.32l2.5-.62c.73-.26,2.01-.71,2.69-.95.72-.32,2.16-.98,2.82-1.28.72-.39,2.45-1.32,3.05-1.65.47-.31.92-.6,1.34-.87l1.48-.94c1.21-.89,5.45-4.02,6.66-4.92.26-.24.52-.45.75-.65l6.06-5.22c.83-.78,4.58-4.34,6.99-6.63,1.07-1.08,9.31-9.46,14.8-15.05l.04.04c.73-.8,1.54-1.62,2.44-2.51l12.91-12.88c.18-.18.36-.35.55-.52.76-.68,7.69-6.98,7.69-6.98l.03.03c.62-.58,1.22-1.07,1.74-1.49l6.76-5.47.03.03c.59-.48,1.25-.94,1.99-1.38l2.67-1.57c.18-.1.36-.2.54-.3.5-.27,2.88-1.56,2.88-1.56.28-.15.56-.29.84-.42.54-.25,2.86-1.34,2.86-1.34l.02.03c.72-.37,1.37-.65,1.88-.86.2-.09.41-.17.61-.24.32-.12,1.3-.5,1.3-.5.25-.1.51-.19.76-.27.35-.12,1.11-.38,1.12-.38v.02c.31-.12.63-.23.96-.34l.77-.25c.21-.07.42-.13.64-.19l1.47-.39c.2-.05.4-.1.61-.15.35-.08,1.07-.26,1.07-.26.26-.06.53-.12.8-.17.31-.06.89-.18,1.06-.22.25-.05.51-.1.77-.13h0s.92-.14,1.23-.18c.13-.02.26-.04.4-.06,0,0,.7-.09,1.06-.14.41-.07.82-.11,1.24-.14l1.44-.09c.13,0,.2-.01.33-.02,0,0,1.82-.05,1.82-.05h.75c.5,0,.98.02,1.44.06v-.03s1.35.08,1.35.08c.18.01.37.02.55.04,0,0,.72.07,1.06.1.31.02.63.06.94.1l.73.11c.43.07.84.14,1.24.23v-.03s1.32.26,1.32.26c.2.04.4.08.6.13l.7.17c.39.1.77.2,1.14.32v-.03s.7.2.7.2c.42.12.82.25,1.2.39v-.03s.93.31,1.24.4c.31.1.61.21.91.33,0,0,.8.32,1.12.45.2.07.39.15.58.24l.74.33c.36.16.71.33,1.04.5v-.02s.63.3.97.46c.28.12.56.25.83.4.52.27,1.16.61,1.85,1.04l.02-.03s.58.34.91.53c.31.16.61.34.91.53.84.54,1.35.87,1.71,1.11h0s.75.51,1.09.74c.48.31.95.66,1.39,1.04l7.36,6.34c.3.26.59.54.87.83,0,0,5.99,6.25,6.67,6.96.29.29.56.6.82.92l6.06,7.5c.28.35.54.7.78,1.05h.02c2.44,3.52,5.2,7.49,5.67,8.15.2.27.39.56.56.85l5.18,8.51c.19.31.37.63.53.94h.02c1.72,3.17,4.51,8.33,4.93,9.09.12.21.24.43.34.65l3.99,8.15c.25.52.56,1.15.86,1.89l.04-.02,3.74,8.32c.25.55.53,1.19.81,1.91l.04-.02,8.29,20.08c.03.07.06.14.09.21l7.71,19.73s.04.1.06.15c.6,1.47,6.92,17.09,7.59,18.72.46,1.04,3.26,7.45,3.75,8.55l1.96,4.07c.51,1.06,1.02,2.13,1.4,2.93.14.28.29.61.46.99,1.52,2.88,3.88,7.34,4.5,8.51l3.72,6.04c.12.2.26.43.41.68l3.89,5.28,3.34,3.7,2.73,2.26,1.93,1.09,1.2.35.76.03.77-.17,1.36-.67,1.93-1.43c.61-.61,1.52-1.53,2.14-2.14,1.29-1.78,4.38-6.06,5.54-7.68,1.98-3.68,4.76-8.87,5.56-10.37l5.34-12.52c.03-.08.07-.16.1-.24l5.04-14.01c.04-.1.07-.19.11-.29l9.37-31.43s.02-.06.03-.1l14.6-58.07c1.68-6.69,8.47-10.76,15.17-9.07,6.69,1.68,10.76,8.48,9.07,15.17l-14.67,58.34c-.05.21-.11.42-.17.62-.5,1.67-9.55,32.02-9.55,32.02-.09.29-.18.58-.29.86-.36.99-3.35,9.3-5.32,14.77-.11.3-.23.6-.36.88-.42.98-3.68,8.62-5.7,13.35l-.06-.03c-.45,1.08-.96,2.04-1.39,2.85l-5.26,9.8h-.03c-.32.58-.69,1.18-1.13,1.79l-6.34,8.78-.03-.02c-.85,1.13-1.88,2.16-3.01,3.29l-1.76,1.76-.03-.03c-.56.57-1.2,1.12-1.91,1.65l-3.02,2.25c-.61.45-1.26.85-1.95,1.19l-3.72,1.83c-.96.47-1.96.81-2.97,1.02-.73.16-3.6.81-3.6.81-.91.2-1.83.31-2.74.31ZM429.63,396.06c.02,6.63,5.16,12.07,11.73,12.43-2.54-.16-5.01-1.09-7.04-2.71-2.95-2.36-4.68-5.94-4.69-9.72ZM429.5,396.04v.02-.02ZM429.5,396.01v.02-.02ZM394.92,362.08c.09,1.42.43,2.83,1.01,4.15-.58-1.33-.91-2.73-1.01-4.15,0,0,0,0,0,0ZM178.97,301.76c.57.12,1.15.2,1.73.24,0,0,0,0-.01,0-.57-.04-1.15-.12-1.72-.23ZM182.5,301.97h0c.16-.01.32-.03.48-.05-.16.02-.32.04-.48.05ZM189.31,299.29s-.02.01-.03.02c0,0,.02-.01.03-.02ZM172.29,298.5c.18.02.35.04.53.05-.18-.01-.35-.03-.53-.05h0ZM168.37,297.36c.6.29,1.22.53,1.86.72,0,0,0,0,0,0-.63-.19-1.25-.42-1.85-.71ZM220.1,293.55c-.47.44-.99.84-1.53,1.2.55-.36,1.06-.77,1.54-1.21h0ZM224,284.4h0s0,0,0,0ZM224,284.36v.03-.03ZM202.75,275.62c-1.16.13-2.14.41-2.91.7.13-.04.2-.07.2-.07.88-.31,1.79-.52,2.71-.63,0,0,0,0,0,0ZM204.12,274.44c-.53.17-1.05.38-1.56.62.12-.06.19-.09.19-.09.44-.2.89-.37,1.35-.52,0,0,0,0,.01,0ZM206.01,274h0c.55-.08,1.11-.13,1.66-.14-.56.01-1.11.06-1.66.14ZM171.8,268.88l.21.3c.47.65.86,1.34,1.2,2.06h0c-.38-.84-.86-1.63-1.41-2.36ZM230.08,257.71c-2.97,0-5.93,1.05-8.25,3.12l.12-.1c2.6-2.24,5.92-3.24,9.16-2.98-.34-.03-.68-.04-1.02-.04ZM338.15,242.04c.39,1.42,1.03,2.78,1.93,4.02l-.13-.19c-.82-1.19-1.42-2.48-1.78-3.82,0,0,0,0-.01,0ZM362.5,236.44c1.41.85,2.63,1.97,3.61,3.3-.64-.88-1.81-2.21-3.61-3.3h0ZM340.06,231.46c-.93,1.29-1.58,2.72-1.96,4.19h0c.38-1.48,1.03-2.9,1.96-4.19ZM285.7,232.95c-.5.69-1.08,1.34-1.72,1.92l-.12.11c.69-.6,1.3-1.29,1.84-2.03ZM340.08,231.44s-.01.02-.02.02c0,0,.01-.02.02-.02ZM340.1,231.41s0,.01-.01.02v-.02ZM340.12,231.39s0,.01-.01.02c0,0,0-.01.01-.02ZM340.14,231.36s0,.01-.01.02c0,0,0-.01.01-.02ZM340.15,231.34s0,0,0,.01c0,0,0,0,0-.01ZM340.17,231.31s0,0,0,.01c0,0,0,0,0-.01ZM340.19,231.28s0,0,0,0c0,0,0,0,0,0ZM318.94,225.47c.11.07.22.13.33.2-.11-.06-.21-.13-.32-.19,0,0,0,0-.01,0ZM298.6,225.28c-.12.06-.23.12-.35.18.12-.06.24-.12.37-.18h-.01ZM318.07,224.87c.13.1.25.19.38.28h0c-.13-.09-.25-.18-.38-.28h0ZM316.92,224.52c.1.05.2.1.3.15-.1-.05-.19-.1-.29-.15,0,0,0,0-.01,0ZM300.17,224.24h0c.11-.08.21-.16.32-.24h0c-.1.08-.21.16-.32.24ZM301.98,224.07c-.15.06-.29.12-.44.17.15-.05.3-.11.45-.17h0ZM311.82,223.08c.12.03.25.05.38.07-.03,0-.07-.01-.11-.02-.08-.02-.17-.03-.25-.05,0,0-.01,0-.02,0ZM309.5,222.9c.15.01.3.02.46.03-.06,0-.12,0-.18-.01-.09,0-.18-.01-.27-.02h0ZM308.53,222.8c.16.02.32.04.47.06h0c-.15-.02-.3-.04-.45-.07,0,0-.02,0-.03,0ZM309.75,222.44c.25.1.49.2.75.28h0c-.25-.09-.5-.18-.74-.28,0,0,0,0-.01,0ZM305.42,221.96c.21.09.42.17.64.25h0c-.21-.09-.42-.17-.63-.26,0,0,0,0-.01,0ZM305.41,221.96s0,0,.01,0c0,0,0,0,.01,0,0,0-.02,0-.03-.01v.02ZM304.64,218.24h0c.26-.74.45-1.55.56-2.41-.11.83-.3,1.64-.56,2.41ZM305.21,215.8s0,.01,0,.01c0,0,0,0,0-.01ZM336.1,206.74c.11.06.21.13.32.19-.11-.07-.22-.14-.33-.2,0,0,0,0,.01,0ZM334.14,205.81c.42.16.84.34,1.24.54h0c-.41-.21-.82-.39-1.25-.55,0,0,0,0,0,0ZM332.19,204.32c.17.08.33.15.49.24-.17-.09-.34-.17-.51-.25,0,0,.01,0,.02.01ZM330.49,203.69c.47.14.93.3,1.38.49h0c-.44-.19-.9-.36-1.39-.5,0,0,0,0,.01,0ZM327.66,203.21s.08,0,.12,0h0s-.09-.01-.13-.02c0,0,0,0,.01.01ZM303.31,202.88h0c.74-.93,1.61-1.75,2.57-2.43,0,0,0,0-.01,0-.96.68-1.82,1.5-2.56,2.43ZM328.59,202.44c.18.07.35.13.52.21-.18-.08-.37-.16-.55-.23.01,0,.02.01.03.02ZM325.98,201.78c.76.11,1.51.28,2.24.53h0c-.74-.26-1.5-.44-2.27-.55l.03.02ZM308,201.8s.02.01.03.02c0,0-.02-.01-.03-.02ZM291.8,201.31c-.69.14-1.28.32-1.74.49.57-.2,1.15-.37,1.74-.49,0,0,0,0,0,0ZM324.07,200.66c.58.12,1.15.29,1.72.5-.58-.22-1.17-.39-1.76-.52.01,0,.02.01.03.02ZM293.35,201.09h0c.08,0,.16-.01.24-.02-.08,0-.16,0-.24.02ZM293.61,201.08s0,0-.02,0c0,0,.01,0,.02,0ZM293.63,201.08s0,0-.01,0c0,0,0,0,.01,0ZM293.64,201.08s0,0,0,0c0,0,0,0,0,0ZM293.66,201.07s0,0,0,0c0,0,0,0,0,0ZM293.68,201.07s0,0,0,0c0,0,0,0,0,0ZM293.7,201.07s0,0,0,0c0,0,0,0,0,0ZM293.72,201.07s0,0,0,0c0,0,0,0,0,0ZM293.74,201.07s0,0,0,0c0,0,0,0,0,0ZM293.76,201s0,0,0,0c0,0,0,0,0,0ZM293.78,201s0,0,0,0c0,0,0,0,0,0ZM293.91,201h0,0ZM293.94,201.06s0,0,0,0c0,0,0,0,0,0ZM293.96,201.06s0,0,0,0c0,0,0,0,0,0ZM293.98,201s0,0,0,0c0,0,0,0,0,0ZM294,201s0,0,0,0c0,0,0,0,0,0ZM294.02,201h0,0ZM294.04,201h0,0ZM294.06,201h0,0ZM294.13,201h0,0ZM294.15,201h0,0ZM294.17,201s0,0,0,0c0,0,0,0,0,0ZM294.2,201h0,0ZM294.22,201h0,0ZM294.24,201h0,0ZM294.26,201.06s0,0,0,0c0,0,0,0,0,0ZM294.28,201h0,0ZM292.84,200.83c-.23.06-.45.12-.68.19.22-.07.43-.13.65-.18,0,0,.02,0,.03-.01ZM293.23,200.74h0c1.35-.28,2.73-.34,4.09-.17,0,0,0,0,.01,0-1.36-.17-2.75-.11-4.1.18ZM298.28,200.73s0,0,0,0c0,0,0,0,0,0,0,0,0,0,0,0,0,0,0,0,0,0ZM305.87,200.44h.01c.3-.2.6-.4.91-.58,0,0-.01,0-.02,0-.31.18-.61.38-.91.59ZM306.79,199.85s.01,0,.02,0c1.29-.76,2.73-1.28,4.23-1.53h0c-1.51.24-2.94.76-4.24,1.53ZM303.15,199.45s.08.02.12.03c-.04,0-.08-.02-.12-.03h0ZM300.05,199.1c-.78.01-1.56.1-2.33.26.77-.16,1.54-.24,2.32-.26,0,0,.01,0,.02,0ZM300.94,199.12s.01,0,.02,0c0,0,0,0,.01,0,0,0-.01,0-.02,0,0,0,0,0-.01,0ZM303,198.85c.29.03.58.08.87.13-.29-.06-.58-.1-.87-.14h0ZM301,198.77c-.47.03-.94.08-1.4.16.46-.08.92-.13,1.38-.15,0,0,.02,0,.02,0ZM303.87,198.24c-.36.06-.72.14-1.07.23,0,0,.02,0,.03,0,.34-.09.69-.17,1.04-.23ZM313.1,198.15c.27,0,.54,0,.81.03-.5-.04-1.01-.04-1.5-.02h0s0,0,0,0c.23-.01.46-.02.69-.02ZM64.08,117.5h.02-.02ZM64.06,117.5h.01-.01ZM64.05,117.45s0,0,.01,0c0,0,0,0-.01,0ZM64.02,117.5s0,0,.01,0c0,0,0,0-.01,0ZM64,117.5s0,0,0,0c0,0,0,0,0,0ZM63.98,117.45s0,0,0,0c0,0,0,0,0,0ZM78.66,100.36s0,0,0,0c-.41-.59-.87-1.15-1.38-1.67.51.52.97,1.08,1.38,1.67Z" fill="#212121"/>
</svg>