<?xml version="1.0" encoding="UTF-8"?>
<svg id="a" data-name="layer1" xmlns="http://www.w3.org/2000/svg" width="1000" height="1000" viewBox="0 0 1000 1000">
  <path d="M898.997,753.345c-51.734,0-95.854-26.595-134.883-81.306-32.465-45.511-58.284-105.833-83.253-164.17-24.133-56.383-49.087-114.687-79.043-156.68-31.408-44.029-63.922-64.535-102.32-64.535s-70.911,20.506-102.319,64.535c-29.956,41.993-54.91,100.297-79.043,156.68-24.969,58.336-50.787,118.659-83.253,164.17-39.028,54.71-83.148,81.306-134.883,81.306-11.046,0-20-8.954-20-20s8.954-20,20-20c38.398,0,70.911-20.506,102.319-64.535,29.956-41.993,54.91-100.297,79.043-156.68,24.969-58.336,50.787-118.659,83.253-164.17,39.027-54.71,83.148-81.306,134.883-81.306s95.855,26.595,134.884,81.306c32.465,45.511,58.284,105.834,83.253,164.17,24.133,56.383,49.087,114.686,79.043,156.68,31.408,44.028,63.921,64.535,102.319,64.535,11.046,0,20,8.954,20,20s-8.954,20-20,20Z" fill="#000" stroke-width="0"/>
</svg>