<?xml version="1.0" encoding="UTF-8"?>
<svg id="a" data-name="layer1" xmlns="http://www.w3.org/2000/svg" width="1000" height="1000" viewBox="0 0 1000 1000">
  <path d="M500,753.345c-3.438,0-6.876-.885-9.961-2.657-6.21-3.567-10.039-10.182-10.039-17.343v-431.869l-369.922,215.798c-9.541,5.566-21.787,2.343-27.353-7.198-5.566-9.541-2.343-21.787,7.198-27.353l400-233.344c6.186-3.608,13.829-3.634,20.039-.068,6.21,3.567,10.039,10.182,10.039,17.343v431.869l369.922-215.8c9.541-5.566,21.787-2.343,27.353,7.198,5.566,9.541,2.343,21.787-7.198,27.353l-400,233.346c-3.113,1.816-6.595,2.725-10.078,2.725Z" fill="#000" stroke-width="0"/>
</svg>