<?xml version="1.0" encoding="UTF-8"?>
<svg id="a" data-name="layer1" xmlns="http://www.w3.org/2000/svg" viewBox="0 0 500 500">
  <path d="M214.819,405.213c-4.812,0-9.548-1.709-13.678-4.996-.312-.248-.612-.511-.899-.788-17.701-17.092-26.282-69.085-38.311-152.684-6.313-43.875-13.328-92.625-21.955-117.611-2.097,6.195-3.957,13.289-5.598,19.551-.836,3.188-1.626,6.203-2.359,8.747-1.517,5.967-3.026,12.167-4.624,18.727-3.61,14.825-7.343,30.155-11.379,43.581-2.985,9.933-6.61,21.286-11.858,30.281-9.442,16.183-21.083,18.959-29.311,18.368-7.816-.295-14.963-3.646-21.878-6.889-5.113-2.397-10.401-4.876-15.125-5.617-.136-.021-.272-.045-.407-.071-8.994-1.716-19.111,1.671-29.82,5.255-1.15.385-2.3.77-3.448,1.148-6.282,2.073-13.241-.924-15.735-7.051-2.76-6.78.826-14.362,7.661-16.611,1.194-.393,2.39-.793,3.586-1.194,12.611-4.221,26.896-9.004,42.236-6.144,8.159,1.315,15.331,4.678,21.666,7.648,4.692,2.2,9.544,4.475,12.266,4.544.249.006.497.02.746.041,2.178.186,5.119-4.567,5.971-6.028,3.869-6.631,6.937-16.319,9.51-24.879,3.845-12.79,7.498-27.792,11.031-42.3,1.63-6.695,3.17-13.019,4.735-19.17.034-.133.07-.266.108-.397.66-2.277,1.431-5.218,2.247-8.331,6.96-26.546,12.552-44.171,26.317-47.179,3.122-.683,11.145-1.342,18.187,7.247.303.37.583.757.843,1.158,14.184,21.812,22.04,76.407,31.134,139.613,4.558,31.677,9.271,64.433,14.697,90.424,5.869,28.112,10.961,39.992,14.057,44.985,1.075-1.193,2.562-3.101,4.455-6.114,3.257-5.187,6.502-11.705,9.365-17.456,1.472-2.956,2.864-5.752,4.224-8.319l1.033-2.13c7.771-16.027,15.807-32.599,24.78-46.694,20.001-32.807,39.911-35.615,65.762-35.741,11.205-1.016,19.972-4.489,28.788-18.114,6.112-9.994,8.477-29.066,10.764-47.511,1.89-15.24,3.843-30.999,8.176-43.383,2.709-7.742,6.144-13.674,10.501-18.134,5.596-5.729,12.768-8.926,20.74-9.247,18.402-.737,29.088,20.152,32.602,27.017,5.811,11.354,11.498,26.809,16.902,45.935,6.557,23.206,25.016,38.798,45.933,38.798h.289c6.395,0,12.263,5.197,12.722,11.575.527,7.322-5.257,13.425-12.467,13.425h-.544c-32.231,0-60.358-22.907-69.991-57-13.202-46.724-23.387-53.918-24.877-54.745-1.669.139-4.873,1.09-8.212,10.633-3.449,9.858-5.236,24.268-6.964,38.202-2.625,21.169-5.338,43.058-14.364,57.669-.042.068-.085.136-.128.203-15.46,23.984-33.93,28.431-48.286,29.633-.323.027-.649.04-.973.041-21.795.077-31.195,1.02-45.084,23.85-.045.075-.092.15-.139.223-8.221,12.893-15.955,28.845-23.435,44.271l-1.134,2.339c-.067.139-.137.276-.209.412-1.238,2.328-2.593,5.051-4.028,7.933-8.634,17.342-17.562,35.275-32.351,38.556-1.483.329-2.975.492-4.46.492Z"/>
</svg>