<?xml version="1.0" encoding="UTF-8"?>
<svg id="a" data-name="layer1" xmlns="http://www.w3.org/2000/svg" viewBox="0 0 500 500">
  <path d="M50.5,406H.26c-6.39,0-12.26-5.2-12.72-11.57-.53-7.32,5.26-13.43,12.47-13.43h38v-123.5c0-6.9,5.6-12.5,12.5-12.5h90.5c6.9,0,12.5,5.6,12.5,12.5v90.5h82V107.5c0-6.9,5.6-12.5,12.5-12.5h110c6.9,0,12.5,5.6,12.5,12.5v122.5h55c6.9,0,12.5,5.6,12.5,12.5v63.5h61.84c6.39,0,12.26,5.2,12.72,11.57.53,7.32-5.26,13.43-12.47,13.43h-74.6c-6.9,0-12.5-5.6-12.5-12.5v-63.5h-55c-6.9,0-12.5-5.6-12.5-12.5v-122.5h-85v240.5c0,6.9-5.6,12.5-12.5,12.5h-107c-6.9,0-12.5-5.6-12.5-12.5v-90.5H63v123.5c0,6.9-5.6,12.5-12.5,12.5Z"/>
</svg>