<?xml version="1.0" encoding="UTF-8"?>
<svg id="a" data-name="layer1" xmlns="http://www.w3.org/2000/svg" viewBox="0 0 500 500">
  <path d="M499.436,408.341c-32.334,0-59.909-16.622-84.302-50.816-20.291-28.444-36.428-66.146-52.033-102.606-15.083-35.24-30.679-71.679-49.402-97.925-19.63-27.518-39.951-40.335-63.95-40.335s-44.319,12.817-63.95,40.334c-18.723,26.246-34.319,62.685-49.402,97.925-15.605,36.46-31.742,74.162-52.033,102.606-24.393,34.194-51.968,50.816-84.302,50.816-6.904,0-12.5-5.596-12.5-12.5s5.596-12.5,12.5-12.5c23.999,0,44.319-12.817,63.95-40.334,18.723-26.246,34.319-62.685,49.402-97.925,15.605-36.46,31.742-74.162,52.033-102.606,24.392-34.194,51.968-50.816,84.302-50.816s59.91,16.622,84.302,50.816c20.291,28.444,36.428,66.146,52.033,102.606,15.083,35.24,30.679,71.679,49.402,97.925,19.63,27.518,39.951,40.334,63.95,40.334,6.904,0,12.5,5.596,12.5,12.5s-5.596,12.5-12.5,12.5Z"/>
</svg>