<?xml version="1.0" encoding="UTF-8"?>
<svg id="a" data-name="layer1" xmlns="http://www.w3.org/2000/svg" width="1000" height="1000" viewBox="0 0 1000 1000">
  <path d="M699.349,753.345h-.005c-5.829-.001-11.368-2.546-15.166-6.968l-385.646-448.941-183.287,215.521c-7.155,8.414-19.778,9.435-28.192,2.279-8.415-7.156-9.435-19.778-2.279-28.192l198.446-233.346c3.789-4.455,9.337-7.029,15.186-7.043,5.842.008,11.41,2.531,15.221,6.968l385.73,449.039,185.489-215.7c7.202-8.375,19.829-9.326,28.205-2.124,8.375,7.202,9.326,19.829,2.124,28.204l-200.661,233.344c-3.799,4.418-9.337,6.96-15.164,6.96Z" fill="#231815" stroke-width="0"/>
</svg>