<?xml version="1.0" encoding="UTF-8"?>
<svg id="a" data-name="layer1" xmlns="http://www.w3.org/2000/svg" viewBox="0 0 500 500">
  <path d="M178.392,408.348c-.355,0-.716-.012-1.082-.036-12.026-.793-16.221-14.354-17.8-19.46-2.552-8.249-4.975-20.423-7.409-37.213-2.246-11.793-3.922-34.381-5.86-60.5-1.728-23.282-3.686-49.671-6.317-71.317-.684-5.621-1.36-10.47-2.016-14.65-.989,3.698-1.999,7.542-3.048,11.538-5.249,19.991-11.199,42.648-18.196,60.041-.011.026-.021.053-.032.079-1.7,4.143-6.873,16.751-18.239,18.996-3.413.674-10.032.856-16.372-5.345-6.298-5.744-10.993-15.523-16.416-26.816-3.672-7.647-9.51-19.806-14.038-24.462-2.584,2.113-9.268,9.644-18.925,35.304-7.833,20.814-14.566,45.452-19.021,61.755-1.161,4.249-2.164,7.919-3.051,11.039-1.887,6.641-8.798,10.495-15.44,8.608-6.641-1.886-10.495-8.799-8.608-15.44.852-2.999,1.84-6.613,2.983-10.798,4.483-16.403,11.257-41.191,19.306-62.813,10.931-29.362,21.057-45.041,32.833-50.837,6.201-3.052,12.745-3.325,18.925-.791.464.19.916.409,1.354.653,11.58,6.471,19.022,21.971,26.219,36.96,1.779,3.707,4.063,8.462,6.198,12.369,6.061-15.705,11.508-36.451,16.341-54.853,1.548-5.896,3.011-11.466,4.467-16.792.019-.069.039-.139.059-.208.606-2.075,1.169-4.066,1.705-5.96,1.785-6.312,3.326-11.763,5.273-16.162,3.507-7.928,8.665-12.455,15.329-13.456,2.7-.406,5.458.084,7.852,1.393,14.514,7.934,18.966,37.912,25.808,130.114,1.818,24.495,3.535,47.632,5.529,57.887.039.199.072.398.101.598.972,6.73,1.891,12.309,2.742,16.93,1.222-4.145,2.397-8.304,3.412-11.9,9.626-34.099,15.732-53.633,29.288-58.583,4.855-1.773,10.144-1.286,14.732,1.312,4.407,1.976,7.994,5.264,11.473,8.452.477.437,1.046.959,1.643,1.493,1.214-3.38,2.245-7.46,3.128-10.963,2.337-9.519,4.911-22.157,7.636-35.535,3.472-17.045,7.061-34.669,10.561-47.722,2.078-8.115,7.576-29.422,23.889-30.048,12.722-.489,19.989,12.361,22.377,16.584,3.499,6.188,7.062,14.586,10.589,24.963,5.084,14.253,10.113,32.632,14.527,49.551.545-5.678,1.139-12.222,1.725-18.677,2.491-27.411,5.901-64.953,10.346-95.949,2.511-17.509,5.024-30.739,7.683-40.447,2.159-7.884,6.652-24.288,19.849-25.509,3.912-.361,11.324.507,17.056,10.384,2.364,4.073,4.566,9.787,6.734,17.467.007.025.014.049.02.074,3.459,12.553,6.924,27.886,10.274,42.714,2.519,11.15,4.9,21.684,7.26,31.056.654,2.355,1.294,4.755,1.933,7.151,1.595,5.979,3.976,14.909,6.247,20.365,1.997-2.572,4.238-5.847,5.845-8.195,8.311-12.143,17.732-25.906,32.531-24.733.378.03.754.077,1.128.141,14.724,2.528,24.908,18.708,34.055,54.102,6.342,24.544,10.864,53.358,14.166,74.397,1.014,6.463,1.89,12.045,2.65,16.418,1.182,6.802-3.373,13.274-10.175,14.456-6.803,1.183-13.274-3.373-14.456-10.175-.795-4.576-1.686-10.251-2.717-16.824-3.002-19.129-7.113-45.327-12.618-67.823-6.287-25.689-11.702-35.156-14.316-38.488-2.954,2.915-7.142,9.034-9.615,12.648-6.024,8.803-11.714,17.117-19.662,20.631-.251.111-.506.214-.764.308-5.371,1.963-11.029,1.639-15.933-.912-11.479-5.974-15.669-21.684-20.52-39.874-.63-2.361-1.26-4.726-1.905-7.045-.027-.097-.052-.194-.077-.291-2.448-9.708-4.986-20.94-7.44-31.803-2.595-11.486-5.261-23.282-7.894-33.639-1.685,8.135-3.628,19.457-5.721,35.181-3.812,28.654-6.848,62.074-9.065,86.476-2.375,26.147-3.204,34.563-4.23,38.699-1.035,7.28-2.107,12.933-3.272,17.261-1.115,4.141-4.508,16.741-16.026,17.398-3.729.213-10.723-.891-15.634-10.68-1.855-3.698-3.639-8.912-5.452-15.938-.842-3.23-1.755-6.782-2.719-10.535-5.026-19.561-11.281-43.906-17.394-61.025-.022-.062-.043-.123-.064-.185-3.006-8.854-5.551-14.728-7.523-18.59-.469,1.467-.969,3.196-1.49,5.229-.012.047-.024.093-.037.14-3.307,12.321-6.826,29.597-10.229,46.305-2.78,13.647-5.405,26.537-7.863,36.544-.006.025-.012.051-.019.076-1.666,6.606-3.74,14.827-7.463,21.377-.044.077-.089.154-.134.229-4.712,7.894-10.715,10.286-14.921,10.902-10.123,1.482-17.794-5.549-23.395-10.683-.5-.458-1.082-.992-1.674-1.521-1.089,2.17-2.509,5.429-4.231,10.271-2.971,8.357-5.852,18.562-8.638,28.43-3.036,10.756-5.904,20.916-8.881,28.781-2.288,6.044-7.56,19.97-19.742,19.97ZM418.37,224.761s0,0,0,0c0,0,0,0,0,0Z"/>
</svg>