<?xml version="1.0" encoding="UTF-8"?>
<svg id="a" data-name="layer1" xmlns="http://www.w3.org/2000/svg" viewBox="0 0 500 500">
  <path d="M184.95,54.87c-29.82,0-41.76,37.21-53.31,73.21-7.56,23.57-17.92,55.84-29.5,55.84s-21.94-32.27-29.5-55.84c-2.11-6.57-9.15-10.19-15.72-8.08-6.57,2.11-10.19,9.15-8.08,15.72,11.55,35.99,23.49,73.2,53.3,73.2s41.76-37.21,53.31-73.2c7.56-23.57,17.92-55.84,29.5-55.84s21.94,32.28,29.5,55.84c2.11,6.57,9.15,10.19,15.72,8.08,6.57-2.11,10.19-9.15,8.08-15.72-11.55-35.99-23.49-73.2-53.31-73.2Z"/>
  <path d="M180.54,280.93c-2.3-3.58-6.26-5.75-10.52-5.75s-8.22,2.17-10.52,5.75l-72.29,112.65-30.88-48.13c-3.73-5.81-11.46-7.5-17.27-3.77-5.81,3.73-7.5,11.46-3.77,17.27l41.4,64.52c2.3,3.58,6.26,5.75,10.52,5.75s8.22-2.17,10.52-5.75l72.29-112.65,30.88,48.13c3.73,5.81,11.46,7.5,17.27,3.77,5.81-3.73,7.5-11.46,3.77-17.27l-41.4-64.52Z"/>
  <path d="M280.9,151.75l82.81,64.52c2.24,1.74,4.95,2.64,7.68,2.64,1.87,0,3.74-.42,5.49-1.27,4.29-2.1,7.01-6.46,7.01-11.23v-103.46l62.62,48.8c5.45,4.24,13.3,3.27,17.54-2.18s3.27-13.3-2.18-17.54l-82.81-64.52c-3.77-2.94-8.88-3.47-13.17-1.37-4.29,2.1-7.01,6.46-7.01,11.23v103.46l-62.62-48.8c-5.45-4.24-13.3-3.27-17.54,2.18-4.24,5.45-3.27,13.3,2.18,17.54Z"/>
  <path d="M454.2,275.18h-82.81c-6.9,0-12.5,5.6-12.5,12.5v116.54h-57.81v-52.02c0-6.9-5.6-12.5-12.5-12.5s-12.5,5.6-12.5,12.5v64.52c0,6.9,5.6,12.5,12.5,12.5h82.81c6.9,0,12.5-5.6,12.5-12.5v-116.54h57.81v52.02c0,6.9,5.6,12.5,12.5,12.5s12.5-5.6,12.5-12.5v-64.52c0-6.9-5.6-12.5-12.5-12.5Z"/>
</svg>