<?xml version="1.0" standalone="no"?>
<!DOCTYPE svg PUBLIC "-//W3C//DTD SVG 1.1//EN" "http://www.w3.org/Graphics/SVG/1.1/DTD/svg11.dtd" >
<svg xmlns="http://www.w3.org/2000/svg">
<defs>
  <font id="Fukiai" horiz-adv-x="2048">
    <font-face font-family="Fukiai"
      units-per-em="2048" ascent="2048"
      descent="0" />
    <missing-glyph horiz-adv-x="0" />
    <glyph glyph-name="control_eject_f"
      unicode="&#xEA01;"
      horiz-adv-x="2048" d="M632.0005774293875 774.144H1399.8367374293875A41.04192 41.04192 0 0 0 1440.8786574293877 733.1020800000001V553.0419200000001A41.04192 41.04192 0 0 0 1399.8367374293875 512.0000000000002H632.0005774293875A41.04192 41.04192 0 0 0 590.9586574293875 553.0419200000001V733.1020800000001A41.04192 41.04192 0 0 0 632.0005774293875 774.144zM1452.4498574293875 993.46432L1056.7967374293876 1519.2268800000002C1049.0552974293873 1529.5078400000002 1036.8696974293873 1535.5699200000001 1023.9877774293874 1535.5699200000001S998.9202574293874 1529.5078400000002 991.1788174293874 1519.2268800000002L595.4847374293875 993.46432C586.1868174293875 980.992 584.6917774293876 964.34176 591.5935374293875 950.45632C598.5362574293875 936.5299200000002 612.7493774293876 927.744 628.3141774293875 927.744H1419.6613774293878C1435.2056974293878 927.744 1449.4188174293877 936.52992 1456.3820174293874 950.45632C1459.2696974293876 956.2521600000002 1460.7032974293875 962.53952 1460.7032974293875 968.78592C1460.7032974293875 977.53088 1457.9180174293874 986.2144 1452.4703374293877 993.46432z" />
    <glyph glyph-name="control_eject_o"
      unicode="&#xEA02;"
      horiz-adv-x="2048" d="M1341.0796174293873 747.52V690.1759999999999H695.9596174293874V747.52H1341.0796174293873M1402.4172174293876 849.9200000000001H634.6015374293875C611.9301774293874 849.9200000000001 593.5596174293875 831.54944 593.5596174293875 808.87808V628.8179200000002C593.5596174293875 606.1465600000001 611.9301774293874 587.7760000000003 634.6015374293875 587.7760000000003H1402.4376974293873C1425.1090574293876 587.7760000000003 1443.4796174293874 606.1465600000004 1443.4796174293874 628.8179200000002V808.7961600000001C1443.4796174293874 831.5084800000002 1425.0885774293874 849.9200000000003 1402.4172174293876 849.9200000000003H1402.4172174293876zM1072.7916174293873 1417.216H1072.9759374293876H1072.7916174293873M1023.9877774293874 1351.5776L1296.6994574293876 989.184H751.2556174293875L1023.9877774293876 1351.5776M1023.9877774293874 1494.6304C1011.1058574293874 1494.6304 998.9202574293874 1488.56832 991.1788174293874 1478.2873599999998L595.4847374293876 952.5247999999996C586.1868174293875 940.0524799999998 584.6917774293876 923.4022399999996 591.5935374293875 909.5167999999998C598.5362574293875 895.5903999999998 612.7493774293876 886.8044799999998 628.3141774293875 886.8044799999998H1419.6613774293878C1435.2056974293878 886.8044799999998 1449.4188174293877 895.5903999999996 1456.3820174293874 909.5167999999998C1459.2696974293876 915.3126399999998 1460.7032974293875 921.5999999999996 1460.7032974293875 927.8464C1460.7032974293875 936.5913599999998 1457.9180174293874 945.27488 1452.4703374293877 952.5247999999996L1056.8172174293877 1478.2873599999998C1049.0757774293875 1488.5683199999999 1036.8901774293877 1494.6304 1024.0082574293874 1494.6304H1024.0082574293874z" />
    <glyph glyph-name="control_forward_f"
      unicode="&#xEA03;"
      horiz-adv-x="2048" d="M1701.12 1533.19424C1684.77696 1541.28384 1665.28 1539.5225599999999 1650.6368 1528.6272L1033.4924800000001 1064.32512V1490.1248C1033.4924800000001 1508.37248 1023.17056 1525.0432 1006.848 1533.19424C990.50496 1541.28384 971.008 1539.52256 956.3648 1528.6272L339.44576 1064.32512C327.38304 1055.232 320.256 1040.93696 320.256 1025.8227200000001S327.36256 996.4134400000002 339.44576 987.32032L956.3648 523.07968C964.8844800000002 516.68992 975.08352 513.4336000000001 985.32352 513.4336000000001C992.65536 513.4336000000001 1000.02816 515.1334400000001 1006.82752 518.5126400000001C1023.17056 526.6636800000001 1033.472 543.3344000000002 1033.472 561.5820800000001V987.5046400000002S1033.63584 987.3817600000002 1033.71776 987.32032L1650.6368000000002 523.07968C1659.15648 516.68992 1669.3555200000003 513.4336000000001 1679.59552 513.4336000000001C1686.9273600000004 513.4336000000001 1694.30016 515.1334400000001 1701.0995200000002 518.5126400000001C1717.4425600000002 526.6636800000001 1727.7440000000001 543.3344000000002 1727.7440000000001 561.5820800000001V1490.10432C1727.7440000000001 1508.352 1717.4220800000003 1525.02272 1701.0995200000002 1533.1737600000001z" />
    <glyph glyph-name="control_forward_o"
      unicode="&#xEA04;"
      horiz-adv-x="2048" d="M1625.36448 1378.304V668.8768L1153.34144 1024.08192L1625.36448 1379.20512M933.1404799999998 1378.304V1062.46144C933.1404799999998 1049.0675199999998 935.7619199999996 1036.0832 940.5951999999997 1024.0819199999999C935.7414399999998 1012.1011199999998 933.1404799999998 999.0963199999998 933.1404799999998 985.7023999999998V668.8563199999999L461.2198399999998 1023.9795199999998L933.1404799999998 1379.1436799999997M1679.616 1536.38912C1669.376 1536.38912 1659.17696 1533.1327999999999 1650.6368 1526.784L1033.4924800000001 1062.48192V1488.2815999999998C1033.4924800000001 1506.5292799999997 1023.17056 1523.1999999999998 1006.848 1531.35104C1000.02816 1534.7302399999999 992.6758399999998 1536.3891199999998 985.344 1536.3891199999998C975.104 1536.3891199999998 964.9049599999998 1533.1327999999999 956.3648 1526.7839999999999L339.44576 1062.48192C327.38304 1053.3888 320.256 1039.0937599999997 320.256 1023.9795199999998S327.36256 994.57024 339.44576 985.4771199999998L956.3648 521.23648C964.8844800000002 514.84672 975.08352 511.5903999999998 985.32352 511.5903999999998C992.65536 511.5903999999998 1000.02816 513.29024 1006.82752 516.6694399999999C1023.17056 524.8204799999999 1033.472 541.4911999999999 1033.472 559.7388799999999V985.6614399999999S1033.63584 985.53856 1033.71776 985.4771199999998L1650.6368000000002 521.23648C1659.15648 514.84672 1669.3555200000003 511.5903999999998 1679.59552 511.5903999999998C1686.9273600000004 511.5903999999998 1694.30016 513.29024 1701.0995200000002 516.6694399999999C1717.4425600000002 524.8204799999999 1727.7440000000001 541.4911999999999 1727.7440000000001 559.7388799999999V1488.26112C1727.7440000000001 1506.5088 1717.4220800000003 1523.17952 1701.0995200000002 1531.3305599999999C1694.27968 1534.7097599999997 1686.9273600000004 1536.36864 1679.59552 1536.36864H1679.59552z" />
    <glyph glyph-name="control_pause_f"
      unicode="&#xEA05;"
      horiz-adv-x="2048" d="M881.4796800000001 1536H634.0403200000002C602.8288000000002 1536 577.5360000000003 1510.7071999999998 577.5360000000003 1479.49568V568.50432C577.5360000000003 537.2927999999999 602.8288000000003 512 634.0403200000002 512H881.4796800000001C912.6912000000002 512 937.9840000000002 537.2927999999999 937.9840000000002 568.50432V1479.49568C937.9840000000002 1510.7072 912.6912 1536 881.4796800000001 1536zM1413.95968 1536H1166.52032C1135.3087999999998 1536 1110.016 1510.7071999999998 1110.016 1479.49568V568.50432C1110.016 537.2927999999999 1135.3087999999998 512 1166.52032 512H1413.95968C1445.1711999999998 512 1470.464 537.2927999999999 1470.464 568.50432V1479.49568C1470.464 1510.7072 1445.1711999999998 1536 1413.95968 1536z" />
    <glyph glyph-name="control_pause_o"
      unicode="&#xEA06;"
      horiz-adv-x="2048" d="M835.584 1433.6V614.3999999999999H679.9359999999999V1433.6H835.584M881.4387199999999 1536H634.0403199999998C602.8287999999998 1536 577.536 1510.7071999999998 577.536 1479.49568V568.50432C577.536 537.2927999999999 602.8288 512 634.0403199999998 512H881.4796799999998C912.6911999999998 512 937.9839999999998 537.2927999999999 937.9839999999998 568.50432V1479.49568C937.9839999999998 1510.6867200000002 912.6502399999998 1536 881.4387199999998 1536H881.4387199999998zM1368.0639999999999 1433.6V614.3999999999999H1212.4159999999997V1433.6H1368.0639999999999M1413.9187199999997 1536H1166.52032C1135.3087999999998 1536 1110.016 1510.7071999999998 1110.016 1479.49568V568.50432C1110.016 537.2927999999999 1135.3087999999998 512 1166.52032 512H1413.95968C1445.1712000000002 512 1470.464 537.2927999999999 1470.464 568.50432V1479.49568C1470.464 1510.6867200000002 1445.13024 1536 1413.9187200000001 1536H1413.9187200000001z" />
    <glyph glyph-name="control_play_f"
      unicode="&#xEA07;"
      horiz-adv-x="2048" d="M694.28224 1530.96192C710.6048000000001 1539.05152 730.08128 1537.29024 744.72448 1526.3948799999998L1361.152 1062.46144C1373.21472 1053.36832 1380.3212800000001 1039.0937599999997 1380.3212800000001 1024S1373.21472 994.6111999999998 1361.152 985.53856L744.72448 521.6665600000001C736.2047999999999 515.2768000000001 726.0262399999999 512.0204799999999 715.78624 512.0204799999999C708.4544 512.0204799999999 701.1020799999999 513.7203200000001 694.3027199999999 517.09952C677.9801599999998 525.25056 667.67872 541.9008000000001 667.67872 560.1484800000001V1487.95392C667.67872 1506.1811199999997 677.9801599999998 1522.8518399999998 694.3027199999999 1531.00288z" />
    <glyph glyph-name="control_play_o"
      unicode="&#xEA08;"
      horiz-adv-x="2048" d="M770.0787199999999 1379.16416L1241.9993599999998 1024L770.07872 668.8768V1378.304M715.7862399999999 1536C708.4544 1536 701.1020799999999 1534.34112 694.3027199999999 1530.96192C677.9801599999998 1522.81088 667.6787199999999 1506.16064 667.6787199999999 1487.91296V560.10752C667.6787199999999 541.88032 677.9801599999998 525.2096000000001 694.3027199999999 517.0585599999999C701.1020799999999 513.6793600000001 708.4544 511.9795200000001 715.7862399999999 511.9795200000001C726.0262399999999 511.9795200000001 736.2048 515.23584 744.7244799999999 521.6256000000001L1361.152 985.4976000000001C1373.21472 994.5907200000001 1380.3212800000001 1008.8652800000002 1380.3212800000001 1023.95904S1373.21472 1053.34784 1361.152 1062.42048L744.7244799999999 1526.35392C736.1843199999998 1532.70272 726.0057599999999 1535.95904 715.7657599999999 1535.95904H715.7657599999999z" />
    <glyph glyph-name="control_rec_f"
      unicode="&#xEA09;"
      horiz-adv-x="2048" d="M1023.97952 1535.77472C741.7856 1535.77472 512.2048 1306.17344 512.2048 1023.95904S741.7856 512.2252799999999 1023.97952 512.2252799999999S1535.7952 741.76512 1535.7952 1023.95904S1306.1939199999997 1535.77472 1023.97952 1535.77472z" />
    <glyph glyph-name="control_rec_o"
      unicode="&#xEA0A;"
      horiz-adv-x="2048" d="M1023.97952 1433.3747199999998C1249.73056 1433.3747199999998 1433.3952 1249.7100799999998 1433.3952 1023.95904S1249.73056 614.62528 1023.97952 614.62528S614.6048 798.2489599999999 614.6048 1023.95904S798.24896 1433.3747199999998 1023.97952 1433.3747199999998M1023.97952 1535.77472C741.7856 1535.77472 512.2048 1306.17344 512.2048 1023.95904S741.7856 512.2252799999999 1023.97952 512.2252799999999S1535.7952 741.76512 1535.7952 1023.95904S1306.1939199999997 1535.77472 1023.97952 1535.77472H1023.97952z" />
    <glyph glyph-name="control_reverse_f"
      unicode="&#xEA0B;"
      horiz-adv-x="2048" d="M1353.71776 1532.80512C1337.3952 1540.89472 1317.9187200000001 1539.13344 1303.2755200000001 1528.23808L686.8480000000001 1064.3046399999998C674.7852800000001 1055.2115199999998 667.67872 1040.93696 667.67872 1025.8431999999998S674.7852800000001 996.4543999999999 686.8480000000001 987.38176L1303.2755200000001 523.5097599999999C1311.7952 517.1199999999999 1321.9737599999999 513.8636799999999 1332.21376 513.8636799999999C1339.5456000000004 513.8636799999999 1346.8979199999999 515.5635199999999 1353.6972800000003 518.94272C1370.01984 527.09376 1380.3212800000001 543.7439999999999 1380.3212800000001 561.9916799999999V1489.7971199999997C1380.3212800000001 1508.02432 1370.01984 1524.6950399999998 1353.6972800000003 1532.8460799999998z" />
    <glyph glyph-name="control_reverse_o"
      unicode="&#xEA0C;"
      horiz-adv-x="2048" d="M1277.9417600000002 1380.3519999999999V670.6995199999999L806.02112 1025.8227200000001L1277.9417600000002 1380.98688M1332.2342400000002 1537.82272C1321.99424 1537.82272 1311.8156800000002 1534.5664 1303.2755200000001 1528.2176L686.8480000000001 1064.28416C674.7852800000001 1055.19104 667.67872 1040.9164799999999 667.67872 1025.8227200000001S674.7852800000001 996.43392 686.8480000000001 987.36128L1303.2755200000001 523.48928C1311.7952 517.09952 1321.9737599999999 513.8432 1332.21376 513.8432C1339.5456000000004 513.8432 1346.8979199999999 515.54304 1353.6972800000003 518.9222399999999C1370.01984 527.0732800000001 1380.3212800000001 543.72352 1380.3212800000001 561.9712V1489.77664C1380.3212800000001 1508.0038399999999 1370.01984 1524.67456 1353.6972800000003 1532.8256C1346.8979199999999 1536.2048 1339.5456000000004 1537.86368 1332.21376 1537.86368H1332.21376z" />
    <glyph glyph-name="control_skip_f"
      unicode="&#xEA0D;"
      horiz-adv-x="2048" d="M346.88 1531.3715200000001C363.22304 1539.46112 382.72 1537.69984 397.3632 1526.80448L1014.50752 1062.5023999999999V1488.30208C1014.50752 1506.54976 1024.82944 1523.22048 1041.152 1531.3715200000001C1057.4950400000002 1539.46112 1076.9920000000002 1537.69984 1091.6352000000002 1526.8044800000002L1708.55424 1062.5024C1720.6169599999998 1053.40928 1727.7440000000001 1039.11424 1727.7440000000001 1024S1720.63744 994.5907200000001 1708.55424 985.4976000000001L1091.6352000000002 521.2569599999999C1083.1155199999998 514.8671999999999 1072.9164799999999 511.61088 1062.67648 511.61088C1055.3446399999998 511.61088 1047.9718400000002 513.31072 1041.1724800000002 516.6899199999998C1024.82944 524.84096 1014.528 541.5116799999998 1014.528 559.7593599999998V985.68192S1014.36416 985.55904 1014.28224 985.4976L397.3632 521.2569599999999C388.84352 514.8671999999999 378.64448 511.61088 368.40448 511.61088C361.07264 511.61088 353.69984 513.31072 346.90048 516.6899199999998C330.55744 524.84096 320.256 541.5116799999998 320.256 559.7593599999998V1488.2815999999998C320.256 1506.5292799999997 330.57792 1523.1999999999998 346.90048 1531.35104z" />
    <glyph glyph-name="control_skip_o"
      unicode="&#xEA0E;"
      horiz-adv-x="2048" d="M422.656 1379.20512L894.67904 1024.0819199999999L422.6560000000001 668.8767999999998V1378.3039999999996M1114.88 1379.16416L1586.8006400000002 1024L1114.88 668.8768V985.72288C1114.88 999.1168 1112.2585600000002 1012.10112 1107.4252800000002 1024.1024000000002C1112.2790400000001 1036.0832 1114.88 1049.0880000000002 1114.88 1062.4819200000002V1378.3244800000002M1062.67648 1536.4096C1055.34464 1536.4096 1047.99232 1534.75072 1041.17248 1531.37152C1024.82944 1523.22048 1014.528 1506.5497599999999 1014.528 1488.30208V1062.5023999999999L397.38368 1526.784C388.84352 1533.15328 378.66496 1536.38912 368.40448 1536.38912C361.0726399999999 1536.38912 353.72032 1534.7302399999999 346.90048 1531.35104C330.55744 1523.2 320.256 1506.52928 320.256 1488.2815999999998V559.7593599999998C320.256 541.5116799999998 330.57792 524.84096 346.90048 516.6899199999998C353.69984 513.31072 361.0726399999999 511.61088 368.40448 511.61088C378.66496 511.61088 388.84352 514.8671999999999 397.3632 521.2569599999999L1014.28224 985.4976000000001S1014.44608 985.62048 1014.528 985.6819200000002V559.75936C1014.528 541.5116800000001 1024.84992 524.8409600000002 1041.17248 516.68992C1047.9718400000002 513.3107200000002 1055.34464 511.6108800000002 1062.67648 511.6108800000002C1072.93696 511.6108800000002 1083.11552 514.8672000000001 1091.6352 521.2569600000002L1708.5542400000002 985.4976000000001C1720.61696 994.5907200000001 1727.7440000000001 1008.8857600000002 1727.7440000000001 1024S1720.63744 1053.40928 1708.5542400000002 1062.5024L1091.6352 1526.8044800000002C1083.0950400000002 1533.1737600000001 1072.91648 1536.4096000000002 1062.656 1536.4096000000002H1062.656z" />
    <glyph glyph-name="control_stop_f"
      unicode="&#xEA0F;"
      horiz-adv-x="2048" d="M1479.49568 1536H568.50432C537.2927999999999 1536 512 1510.7071999999998 512 1479.49568V568.50432C512 537.2927999999999 537.2927999999999 512 568.50432 512H1479.49568C1510.7072 512 1536 537.2927999999999 1536 568.50432V1479.49568C1536 1510.7072 1510.7072 1536 1479.49568 1536z" />
    <glyph glyph-name="control_stop_o"
      unicode="&#xEA10;"
      horiz-adv-x="2048" d="M1433.6000000000001 1433.6V614.3999999999999H614.4000000000001V1433.6H1433.6000000000001M1479.49568 1536H568.50432C537.2927999999999 1536 512 1510.7071999999998 512 1479.49568V568.50432C512 537.2927999999999 537.2927999999999 512 568.50432 512H1479.49568C1510.7072 512 1536 537.2927999999999 1536 568.50432V1479.49568C1536 1510.6867200000002 1510.68672 1536 1479.49568 1536H1479.49568z" />
    <glyph glyph-name="function_cross"
      unicode="&#xEA11;"
      horiz-adv-x="2048" d="M1759.31392 1418.07616C1653.4528000000003 1523.93728 1512.7142400000002 1582.22336 1363.02592 1582.22336C1238.9376 1582.22336 1121.01376 1542.12352 1024.0000000000002 1468.12928C926.9862400000002 1542.12352 809.0828800000002 1582.22336 684.9740800000002 1582.22336C535.2652800000002 1582.22336 394.5267200000003 1523.93728 288.6860800000003 1418.07616C182.8249600000002 1312.21504 124.5388800000002 1171.4764799999998 124.5388800000002 1021.78816S182.8249600000002 731.3408 288.6860800000003 625.50016C394.5472000000002 519.63904 535.2857600000001 461.3529600000002 684.9740800000002 461.3529600000002C809.0624000000003 461.3529600000002 926.9862400000002 501.4528000000003 1024.0000000000002 575.4470400000002C1121.01376 501.4528000000003 1238.91712 461.3529600000002 1363.02592 461.3529600000002C1512.7347200000002 461.3529600000002 1653.4732800000002 519.6390400000003 1759.31392 625.50016C1865.17504 731.3612800000003 1923.46112 872.0998400000001 1923.46112 1021.78816S1865.17504 1312.2355200000002 1759.31392 1418.07616zM1363.02592 563.75296C1265.6640000000002 563.75296 1175.32672 594.3091199999999 1101.0457600000002 646.2873599999998C1194.3731200000002 749.4451199999999 1245.4297600000002 881.6844799999999 1245.4297600000002 1021.7881599999998S1194.3731200000002 1294.1311999999998 1101.0457600000002 1397.2889599999999C1175.32672 1449.2671999999998 1265.6640000000002 1479.8233599999999 1363.02592 1479.8233599999999C1615.5852800000002 1479.8233599999999 1821.06112 1274.34752 1821.06112 1021.7881599999998S1615.58528 563.75296 1363.02592 563.75296zM684.9945600000001 1479.8233599999999C782.3564800000001 1479.8233599999999 872.6937600000001 1449.2671999999998 946.9747200000002 1397.2889599999999C853.6473600000002 1294.1311999999998 802.5907200000001 1161.89184 802.5907200000001 1021.7881599999998S853.6473600000002 749.4451199999999 946.9747200000002 646.2873599999998C872.6937600000001 594.3091199999999 782.3564800000001 563.75296 684.9945600000001 563.75296C432.4352000000001 563.75296 226.9593600000001 769.2288000000001 226.9593600000001 1021.7881599999998S432.4352000000001 1479.8233599999999 684.9945600000001 1479.8233599999999zM904.9702400000002 1021.78816C904.9702400000002 1140.1216 950.0672 1248.1126399999998 1024.0000000000002 1329.47968C1097.9123200000001 1248.1126399999998 1143.0297600000001 1140.1216 1143.0297600000001 1021.78816S1097.9328000000003 795.4636799999998 1024.0000000000002 714.0966400000002C950.08768 795.4636800000001 904.9702400000002 903.4547200000002 904.9702400000002 1021.78816z" />
    <glyph glyph-name="function_env_adsr_exp"
      unicode="&#xEA12;"
      horiz-adv-x="2048" d="M2100.5268314433733 436.67456C2099.5028314433735 443.9859200000001 2074.6401114433734 617.92256 1996.6522714433731 794.58304C1888.394991443373 1039.7900800000002 1729.7364314433732 1169.408 1537.8183514433736 1169.408H836.8084314433734C826.8141914433734 1219.44064 806.0884314433735 1305.12896 768.5485914433734 1391.6569599999998C687.9393114433734 1577.4105599999998 568.7661914433734 1675.5711999999999 423.8701914433734 1675.53024C395.6077914433734 1675.53024 372.7725914433734 1652.57216 372.7725914433734 1624.33024C372.7725914433734 1430.2617599999999 351.3709914433735 1248.74752 309.1617114433734 1084.86656C275.5130714433734 954.20416 228.6138714433734 834.3552 169.7953114433734 728.6783999999998C89.8004314433734 584.9292799999998 2.4941914433734 497.0291199999999 -32.5061285566266 470.6303999999998C-55.0955685566266 453.7343999999998 -59.7650085566266 421.7446399999999 -42.9304485566266 399.09376C-32.8747685566266 385.5769599999999 -17.4328485566266 378.4294399999999 -1.7861285566266 378.4294399999999C8.8225114433734 378.4294399999999 19.5335514433734 381.7267199999999 28.7085914433734 388.5260799999999C33.4189914433734 392.0281599999999 145.1578714433734 476.3443199999997 255.6884314433734 672.4607999999998C319.6679514433735 785.9609599999997 370.5812314433735 914.4115199999997 407.0151514433734 1054.2079999999996C447.9751514433734 1211.4124799999997 470.6055514433734 1383.5673599999998 474.5172314433735 1566.6585599999999C553.9591514433735 1545.7279999999998 620.8673114433734 1474.0479999999998 673.8900314433733 1352.6835199999998C725.7249114433733 1234.0019199999997 742.9690714433734 1112.4735999999998 743.1329114433734 1111.2857599999998C746.6145114433734 1085.9315199999996 768.2618714433734 1067.0284799999997 793.8618714433734 1067.0284799999997H1537.8388314433735C1904.3079514433737 1067.0284799999997 1998.2292314433737 428.9740799999995 1999.1303514433737 422.5228799999998C2002.7143514433735 396.9228799999999 2024.6279514433736 378.40896 2049.7773914433733 378.40896C2052.1325914433733 378.40896 2054.5082714433734 378.5727999999999 2056.9044314433736 378.90048C2084.9005914433733 382.81216 2104.4385114433735 408.6783999999998 2100.547311443373 436.67456z" />
    <glyph glyph-name="function_env_adsr_lin"
      unicode="&#xEA13;"
      horiz-adv-x="2048" d="M-1.8153681010619 376.3404799999999C-7.5292881010619 376.3404799999999 -13.3251281010619 377.30304 -18.9980881010619 379.3305600000001C-45.6425681010619 388.8332800000001 -59.5280081010619 418.1196800000003 -50.0457681010619 444.7436800000001L375.7743918989382 1639.46496C382.1436718989382 1657.32352 397.8723118989382 1670.20544 416.6319918989381 1672.94976C435.4121518989382 1675.6736 454.1513518989381 1667.80928 465.3334318989382 1652.49024L819.842231898938 1167.3600000000001H1537.8300718989378C1554.0297518989378 1167.3600000000001 1569.266871898938 1159.70048 1578.9129518989378 1146.71616L2090.9129518989375 458.0966400000002C2107.7884718989376 435.4048 2103.0575918989375 403.33312 2080.3657518989376 386.4576C2057.6739118989376 369.5820800000002 2025.602231898938 374.3129600000002 2008.7267118989375 397.0048L1512.086711898938 1064.96H793.8326318989378C777.4895918989379 1064.96 762.1295918989379 1072.76288 752.5039918989379 1085.952L439.7334318989379 1513.96352L46.4150318989381 410.3577599999999C38.9398318989382 389.40672 19.2175918989382 376.3404799999999 -1.8153681010619 376.3404799999999z" />
    <glyph glyph-name="function_env_adsr_log"
      unicode="&#xEA14;"
      horiz-adv-x="2048" d="M2100.8989776859676 434.176C2098.6052176859675 460.5747199999998 2075.8724176859673 480.72704 2049.391777685967 480.7884799999999C1982.0535376859673 480.9523200000001 1916.7837776859672 511.9385600000001 1855.3847376859671 572.9279999999999C1802.2391376859673 625.70496 1752.1040976859672 700.3136000000002 1706.3517776859671 794.6649599999998C1626.3978576859672 959.54944 1588.2640976859673 1127.69024 1587.8954576859671 1129.3491199999999C1582.6730576859673 1152.75776 1561.906337685967 1169.408 1537.9242576859672 1169.408H793.9472976859672C735.1082576859671 1169.408 646.5732176859672 1207.9923199999998 558.8778576859672 1391.7798399999997C503.9095376859673 1506.97984 476.5277776859673 1624.59648 474.2544976859673 1634.6316799999997C474.2544976859673 1634.6726399999998 474.2544976859673 1634.69312 474.2340176859673 1634.7340799999997C474.1520976859674 1635.0822399999997 474.1111376859673 1635.28704 474.0906576859674 1635.3279999999997C474.0087376859673 1635.7376 473.8653776859673 1636.1062399999998 473.7629776859673 1636.5158399999998C473.4762576859674 1637.7241599999998 473.1690576859673 1638.93248 472.7799376859674 1640.0998399999999C472.5956176859673 1640.67328 472.3703376859674 1641.2057599999998 472.1655376859674 1641.7792C471.7968976859673 1642.78272 471.4282576859673 1643.8067199999998 471.0186576859674 1644.76928C470.7114576859673 1645.48608 470.3428176859673 1646.1824 470.0151376859673 1646.87872C469.6260176859673 1647.6569599999998 469.2573776859673 1648.4352 468.8477776859673 1649.1929599999999C468.3972176859673 1649.9916799999999 467.9056976859673 1650.7699199999997 467.4346576859674 1651.5276799999997C467.0455376859674 1652.1420799999999 466.6768976859673 1652.7564799999998 466.2672976859673 1653.3503999999998C465.7143376859673 1654.1491199999998 465.1204176859674 1654.9068799999998 464.5264976859673 1655.6646399999997C464.1168976859674 1656.1971199999998 463.7072976859673 1656.7500799999998 463.2772176859673 1657.2620799999997C462.6628176859673 1657.9788799999997 462.0279376859673 1658.6751999999997 461.3725776859673 1659.3510399999998C460.8810576859673 1659.8630399999997 460.4100176859673 1660.3955199999998 459.8980176859673 1660.8870399999998C459.2836176859673 1661.5014399999998 458.6282576859673 1662.07488 457.9728976859673 1662.6483199999998C457.3789776859674 1663.1807999999999 456.7850576859673 1663.71328 456.1706576859673 1664.2047999999998C455.5767376859674 1664.6963199999998 454.9418576859674 1665.1468799999998 454.3069776859674 1665.5974399999998C453.5901776859674 1666.1299199999999 452.8733776859673 1666.6623999999997 452.1360976859673 1667.1539199999997C451.5626576859673 1667.5225599999999 450.9687376859674 1667.87072 450.3748176859673 1668.21888C449.5556176859673 1668.7104 448.7159376859673 1669.2019199999997 447.8557776859674 1669.6524799999997C447.2823376859673 1669.95968 446.6679376859673 1670.2259199999999 446.0740176859673 1670.5126399999997C445.1933776859673 1670.9427199999998 444.2922576859673 1671.3523199999997 443.3706576859674 1671.7414399999998C442.7152976859674 1672.0076799999997 442.0394576859673 1672.2329599999998 441.3840976859674 1672.4582399999997C440.5034576859673 1672.7654399999997 439.6432976859674 1673.0931199999998 438.7421776859674 1673.3593599999997C437.9229776859674 1673.6051199999997 437.1037776859673 1673.7894399999998 436.2845776859674 1673.9942399999998C435.5063376859674 1674.1785599999998 434.7485776859674 1674.3833599999998 433.9703376859674 1674.5471999999997C432.9258576859674 1674.7519999999997 431.8813776859674 1674.8953599999998 430.8164176859674 1675.0182399999999C430.2224976859675 1675.1001599999997 429.6285776859674 1675.2025599999997 429.0346576859674 1675.2639999999997C427.8058576859674 1675.3868799999998 426.5770576859674 1675.4278399999998 425.3277776859674 1675.4483199999997C424.9181776859674 1675.4483199999997 424.5085776859674 1675.5097599999997 424.0989776859674 1675.5097599999997C423.9760976859674 1675.5097599999997 423.8532176859674 1675.5097599999997 423.7303376859674 1675.5097599999997C423.5460176859674 1675.5097599999997 423.3616976859674 1675.5097599999997 423.1773776859674 1675.5097599999997C343.6125776859674 1675.2639999999997 272.1988176859674 1643.6019199999996 210.9226576859674 1581.3427199999999C93.940897685967 1462.62016 14.130337685967 1231.27808 -26.399582314033 893.7267199999999C-55.972702314033 647.45472 -53.105502314033 437.61664 -52.962142314033 428.7897599999999C-52.532062314033 400.7936 -29.6968623140331 378.3884799999999 -1.7826223140331 378.3884799999999C-1.5163823140331 378.3884799999999 -1.2501423140331 378.3884799999999 -0.9634223140331 378.3884799999999C27.298977685967 378.81856 49.8679376859669 402.1043200000002 49.4378576859669 430.36672C49.3968976859669 432.4556799999998 46.5296976859669 642.048 75.2836176859669 881.5001599999998C112.5162576859669 1191.56736 184.626337685967 1408.7168 283.8314576859669 1509.4784C315.2068176859669 1541.34528 348.6506576859669 1561.0060799999999 385.2279376859669 1568.9728C398.8266576859669 1519.32928 425.0615376859669 1434.7264 465.6528976859669 1349.26336C503.0084176859669 1270.5996799999998 545.0128976859669 1207.3574399999998 590.458017685967 1161.29792C652.205217685967 1098.71104 720.649377685967 1066.96704 793.906337685967 1066.96704H1497.906337685967C1514.4541776859671 1004.6873599999998 1551.891617685967 878.85824 1613.413537685967 751.57504C1664.244897685967 646.4102399999999 1721.158817685967 562.0736000000002 1782.578337685967 500.8793600000001C1864.1911376859673 419.57376 1954.118817685967 378.3475200000001 2049.9037776859673 378.3475200000001C2079.702177685967 378.3475200000001 2103.540897685967 403.78368 2100.8989776859676 434.1350400000001z" />
    <glyph glyph-name="function_env_ar_exp"
      unicode="&#xEA15;"
      horiz-adv-x="2048" d="M-0.0633950450809 377.856C-23.9021150450809 377.856 -45.2627550450809 394.6086399999999 -50.1779550450809 418.87744C-55.8099550450809 446.5868799999999 -37.9104350450809 473.62048 -10.2009950450809 479.2524799999999C-7.7638750450809 479.7439999999999 241.2934049549191 532.1523200000001 485.8860449549192 700.5798399999999C627.7510049549192 798.26944 740.5958049549191 915.53792 821.2665249549191 1049.1084799999999C921.8233249549191 1215.6108799999997 972.7980449549192 1408.96256 972.7980449549192 1623.79776C972.7980449549192 1652.08064 995.7151649549191 1674.9977599999997 1023.9980449549192 1674.9977599999997C1229.1257249549192 1674.9977599999997 1413.978204954919 1608.25344 1573.4150049549191 1476.6079999999997C1698.936924954919 1372.9587199999999 1808.4434849549193 1229.25056 1898.9036449549192 1049.4566399999999C2051.131484954919 746.9260799999997 2096.760924954919 449.1673599999999 2098.645084954919 436.6335999999999C2102.823004954919 408.6579199999999 2083.530844954919 382.6073599999998 2055.555164954919 378.4294399999999C2027.5590049549191 374.272 2001.5494049549193 393.54368 1997.3714849549197 421.4988799999999H1997.3714849549197C1996.941404954919 424.4275199999998 1951.7625249549192 717.5577599999997 1806.3545249549193 1005.5679999999998C1722.3046049549193 1172.04992 1621.6658849549194 1304.2278399999998 1507.2646049549194 1398.41536C1380.0428449549195 1503.15008 1234.5938849549195 1561.1084799999999 1074.2354849549195 1571.04128C1066.3711649549195 1357.3734399999998 1010.4812449549196 1163.5711999999999 907.7740449549196 994.2425600000003C819.0342049549197 847.9539199999999 695.6217249549195 720.0563200000001 540.9362849549196 614.11328C279.3862049549196 434.97472 21.0514849549196 381.0713600000002 10.1970849549196 378.85952C6.7564449549196 378.1632 3.3362849549196 377.8355200000001 -0.0429150450804 377.8355200000001z" />
    <glyph glyph-name="function_env_ar_lin"
      unicode="&#xEA16;"
      horiz-adv-x="2048" d="M2048.024663470336 377.8764799999999C2033.586263470336 377.8764799999999 2019.250263470336 383.9385600000001 2009.133143470336 395.75552L1024.0041834703359 1545.13408L38.8752234703358 395.75552C20.4637034703358 374.2924799999999 -11.8537365296642 371.7939199999999 -33.3167765296642 390.20544C-54.7798165296642 408.6169599999999 -57.2783765296642 440.9343999999999 -38.8668565296642 462.39744L985.1331434703358 1657.11872C994.8611434703358 1668.46464 1009.0537834703358 1674.99776 1024.0041834703359 1674.99776S1053.147223470336 1668.46464 1062.8752234703359 1657.11872L2086.8752234703356 462.39744C2105.2662634703356 440.9343999999999 2102.7881834703358 408.59648 2081.3251434703357 390.20544C2071.6790634703357 381.9315200000001 2059.8211434703358 377.8764799999999 2048.024663470336 377.8764799999999z" />
    <glyph glyph-name="function_env_ar_log"
      unicode="&#xEA17;"
      horiz-adv-x="2048" d="M2049.935875599963 380.8870400000001C2046.5566755999628 380.8870400000001 2043.1365155999629 381.21472 2039.6958755999628 381.91104C2028.8209955999628 384.1228800000001 1770.5067555999626 438.0262399999999 1508.9566755999626 617.1648C1354.2712355999627 723.1078400000001 1230.8587555999627 851.0054399999999 1142.1189155999627 997.2940800000002C1041.4801955999626 1163.18208 985.7950755999628 1352.58112 976.1899555999626 1561.1494400000001C887.1019555999627 1535.34464 711.4449955999628 1474.2528 538.0408355999627 1355.30496C395.6229155999627 1257.59488 282.3480355999628 1140.3264000000001 201.3905955999628 1006.75584C100.4856355999627 840.2739200000001 49.3061155999627 646.9222400000001 49.3061155999627 432.128C49.3061155999627 403.8451200000002 26.3889955999627 380.9279999999999 -1.8938844000373 380.9279999999999S-53.0938844000373 403.8451200000002 -53.0938844000373 432.128C-53.0938844000373 666.7468799999999 3.4513955999627 878.57152 114.9649955999628 1061.72416C204.0325155999627 1208.0128 327.8955555999628 1335.88992 483.1544355999627 1441.83296C745.6465955999626 1620.95104 1004.8414755999626 1674.83392 1015.7573155999626 1677.04576C1030.8101155999627 1680.0767999999998 1046.4363555999628 1676.22656 1058.3147555999628 1666.49856C1070.2136355999626 1656.77056 1077.0949155999626 1642.22976 1077.0949155999626 1626.86976C1077.0949155999626 1412.03456 1128.0696355999626 1218.6828799999998 1228.6264355999626 1052.18048C1309.2971555999627 918.6099199999998 1422.1214755999627 801.3414399999999 1564.0069155999627 703.6518399999998C1808.5995555999627 535.2243199999998 2057.656835599963 482.8364799999999 2060.134915599963 482.32448C2087.823875599963 476.6515199999999 2105.702915599963 449.6179199999999 2100.050435599963 421.92896C2095.094275599963 397.6806399999998 2073.774595599963 380.94848 2049.956355599963 380.94848z" />
    <glyph glyph-name="function_even"
      unicode="&#xEA18;"
      horiz-adv-x="2048" d="M1036.09344 1320.96H1014.36416C856.2380800000001 1320.96 728.05376 1192.77568 728.05376 1034.6496V1013.32992C728.05376 855.2038399999999 856.2380800000001 727.01952 1014.36416 727.01952H1035.6838400000001C1193.8099200000001 727.01952 1321.99424 855.2038400000001 1321.99424 1013.3299200000002V1035.0592000000001C1321.99424 1192.96 1193.99424 1320.93952 1036.11392 1320.93952H1036.11392zM1564.45696 1218.56C1665.62816 1218.56 1747.95776 1136.25088 1747.95776 1035.0592V1013.3503999999998C1747.95776 911.7900799999998 1665.62816 829.44 1564.0473600000003 829.44H1542.7276800000002C1441.1673600000001 829.44 1358.8172800000002 911.7696 1358.8172800000002 1013.3504V1034.67008C1358.8172800000002 1136.2304000000001 1441.1468800000005 1218.58048 1542.7276800000002 1218.58048H1563.6172800000004M1564.4774400000001 1320.96H1542.7481599999999C1384.6220799999999 1320.96 1256.43776 1192.77568 1256.43776 1034.6496V1013.32992C1256.43776 855.2038399999999 1384.62208 727.01952 1542.7481599999999 727.01952H1564.06784C1722.19392 727.01952 1850.37824 855.2038400000001 1850.37824 1013.3299200000002V1035.0592000000001C1850.37824 1192.96 1722.37824 1320.93952 1564.49792 1320.93952H1564.49792zM505.64096 1218.56C606.81216 1218.56 689.14176 1136.25088 689.14176 1035.0592V1013.3503999999998C689.14176 911.7900799999998 606.81216 829.44 505.2313599999999 829.44H483.91168C382.35136 829.44 300.00128 911.7696 300.00128 1013.3504V1034.67008C300.00128 1136.2304000000001 382.33088 1218.58048 483.91168 1218.58048H504.80128M505.66144 1320.96H483.93216C325.8060800000001 1320.96 197.62176 1192.77568 197.62176 1034.6496V1013.32992C197.62176 855.2038399999999 325.80608 727.01952 483.93216 727.01952H505.25184C663.3779200000001 727.01952 791.56224 855.2038400000001 791.56224 1013.3299200000002V1035.0592000000001C791.56224 1192.96 663.56224 1320.93952 505.6819199999999 1320.93952H505.6819199999999z" />
    <glyph glyph-name="function_impulse"
      unicode="&#xEA19;"
      horiz-adv-x="2048" d="M2048.02048 374.8863999999999C1738.7315200000003 374.8863999999999 1436.1190400000003 439.1935999999999 1148.55936 566.0057599999998C919.12192 667.1974399999997 698.8390399999998 808.1612799999998 493.85472 984.9855999999997C286.98624 1163.4278399999998 138.9567999999999 1340.4979199999998 51.2 1457.5820799999997V426.0863999999999C51.2 397.80352 28.28288 374.8863999999999 0 374.8863999999999S-51.2 397.80352 -51.2 426.0863999999999V1621.42208C-51.2 1644.40064 -35.90144 1664.55296 -13.76256 1670.73792C8.37632 1676.9024 31.90784 1667.584 43.80672 1647.9232000000002C45.568 1644.99456 226.0992 1350.4921600000002 563.28192 1060.31104C760.4223999999999 890.6751999999999 971.85792 755.6096 1191.7312000000002 658.8620800000001C1465.6102400000002 538.3577599999999 1753.7024000000001 477.2659200000001 2048 477.2659200000001C2076.28288 477.2659200000001 2099.2000000000003 454.3488 2099.2000000000003 426.0659200000003S2076.28288 374.8659200000002 2048 374.8659200000002z" />
    <glyph glyph-name="function_multiply"
      unicode="&#xEA1A;"
      horiz-adv-x="2048" d="M1422.2336 1422.2336C1315.86048 1528.60672 1174.4256 1587.2 1024.0000000000002 1587.2S732.1395200000002 1528.6272 625.7664000000002 1422.2336C519.39328 1315.8604799999998 460.8000000000001 1174.4256 460.8000000000001 1024S519.3728000000001 732.13952 625.7664000000002 625.7664C732.1395200000002 519.3932799999998 873.5744000000002 460.8 1024.0000000000002 460.8S1315.86048 519.3728000000001 1422.2336 625.7664C1528.6067200000002 732.13952 1587.2 873.5744 1587.2 1023.9999999999998S1528.6272 1315.8604799999998 1422.2336 1422.2335999999998zM1096.4172800000001 1023.97952L1383.87456 1311.4368C1446.9939200000001 1232.56832 1484.8 1132.62592 1484.8 1024S1446.99392 815.4112 1383.87456 736.5427199999999L1096.43776 1023.97952zM1024.02048 1096.3968L736.5427199999999 1383.8745600000002C815.4112 1446.99392 915.3536 1484.8 1024 1484.8S1232.6092800000001 1446.97344 1311.47776 1383.85408L1024.02048 1096.3968zM664.1254399999998 1311.45728L951.6032 1023.97952L664.1459199999999 736.52224C601.0060799999999 815.3907199999999 563.1999999999998 915.3536000000003 563.1999999999998 1024S601.0060799999999 1232.5888 664.1254399999998 1311.45728zM1024.02048 951.5827199999998L1311.45728 664.1459199999999C1232.5888 601.0265599999998 1132.6463999999999 563.22048 1024 563.22048S815.4112 601.02656 736.5631999999998 664.1459199999999L1024.02048 951.6032z" />
    <glyph glyph-name="function_odd"
      unicode="&#xEA1B;"
      horiz-adv-x="2048" d="M1036.07296 1218.56C1137.24416 1218.56 1219.57376 1136.25088 1219.57376 1035.0592V1013.3503999999998C1219.57376 911.7900799999998 1137.24416 829.44 1035.66336 829.44H1014.34368C912.78336 829.44 830.43328 911.7696 830.43328 1013.3504V1034.67008C830.43328 1136.2304000000001 912.76288 1218.58048 1014.34368 1218.58048H1035.23328M1036.09344 1320.96H1014.36416C856.2380800000001 1320.96 728.05376 1192.77568 728.05376 1034.6496V1013.32992C728.05376 855.2038399999999 856.2380800000001 727.01952 1014.36416 727.01952H1035.6838400000001C1193.8099200000001 727.01952 1321.99424 855.2038400000001 1321.99424 1013.3299200000002V1035.0592000000001C1321.99424 1192.96 1193.99424 1320.93952 1036.11392 1320.93952H1036.11392zM1564.4774400000001 1320.96H1542.74816C1384.6220799999999 1320.96 1256.43776 1192.77568 1256.43776 1034.6496V1013.32992C1256.43776 855.2038399999999 1384.62208 727.01952 1542.74816 727.01952H1564.06784C1722.19392 727.01952 1850.37824 855.2038400000001 1850.37824 1013.3299200000002V1035.0592000000001C1850.37824 1192.96 1722.37824 1320.93952 1564.49792 1320.93952H1564.49792zM505.66144 1320.96H483.93216C325.8060800000001 1320.96 197.62176 1192.77568 197.62176 1034.6496V1013.32992C197.62176 855.2038399999999 325.80608 727.01952 483.93216 727.01952H505.25184C663.3779200000001 727.01952 791.56224 855.2038400000001 791.56224 1013.3299200000002V1035.0592000000001C791.56224 1192.96 663.56224 1320.93952 505.68192 1320.93952H505.68192z" />
    <glyph glyph-name="function_phase"
      unicode="&#xEA1C;"
      horiz-adv-x="2048" d="M1420.2880000000002 1418.07616C1396.9408000000003 1441.42336 1371.8937600000002 1462.45632 1345.4131200000002 1481.0521600000002L1534.11584 1811.27168C1548.14464 1835.8272 1539.62496 1867.10016 1515.0694400000002 1881.12896C1490.5344 1895.15776 1459.24096 1886.6176 1445.21216 1862.08256L1256.57088 1531.96544C1184.50176 1564.85632 1105.59232 1582.22336 1024 1582.22336C874.2912000000001 1582.22336 733.5526400000001 1523.93728 627.712 1418.07616C521.85088 1312.21504 463.5648 1171.4764799999998 463.5648 1021.78816S521.85088 731.3408 627.712 625.50016C651.0591999999999 602.1529600000001 676.1062400000001 581.1200000000001 702.5868800000001 562.5241600000002L513.8841600000001 232.3046400000001C499.85536 207.7491200000002 508.37504 176.4761600000002 532.93056 162.4473600000001C540.9382400000002 157.8598400000001 549.6831999999999 155.6889600000002 558.2848000000001 155.6889600000002C576.06144 155.6889600000002 593.32608 164.9664 602.78784 181.4937600000003L791.42912 511.6108800000004C863.4982400000001 478.7200000000005 942.40768 461.3529600000004 1024.0000000000002 461.3529600000004C1173.7088 461.3529600000004 1314.4473600000003 519.6390400000005 1420.2880000000002 625.5001600000003C1526.14912 731.3612800000003 1584.4352000000001 872.0998400000003 1584.4352000000001 1021.7881600000002S1526.14912 1312.2355200000004 1420.2880000000002 1418.0761600000005zM1024 563.75296C959.61088 563.75296 898.29376 577.1468799999998 842.6291200000001 601.2313599999998L1294.19264 1391.4111999999998C1408.0000000000002 1307.9961599999997 1482.0352 1173.38112 1482.0352 1021.7881599999998C1482.0352 769.2287999999999 1276.55936 563.75296 1024.0000000000002 563.75296zM1024 1479.8233599999999C1088.38912 1479.8233599999999 1149.7267200000001 1466.4294399999999 1205.3708800000002 1442.34496L753.80736 652.1651200000001C640 735.5801600000002 565.9648 870.1952000000001 565.9648 1021.78816C565.9648 1274.3475200000003 771.4406399999998 1479.82336 1024 1479.82336z" />
    <glyph glyph-name="function_signal_bipolar"
      unicode="&#xEA1D;"
      horiz-adv-x="2048" d="M2068.183040000001 1071.06304C2042.19392 1082.20416 2012.0883200000007 1070.16192 2000.9472000000003 1044.1728C1939.0976000000005 899.8297600000001 1875.11808 750.57152 1798.3385600000001 643.0719999999999C1717.8112 530.3500799999999 1634.4576000000002 477.8393599999999 1536.01024 477.8393599999999S1354.1888000000004 530.3500799999997 1273.68192 643.0719999999999C1196.9024 750.57152 1132.9433600000002 899.8297600000001 1071.07328 1044.1728C1007.07328 1193.51296 940.9024 1347.93216 857.67168 1464.44288C757.64736 1604.48512 644.57728 1672.5606400000001 512.0102400000001 1672.5606400000001S266.3731200000001 1604.48512 166.3488 1464.44288C83.13856 1347.9321600000003 16.9472 1193.51296 -47.0528 1044.1728C-58.19392 1018.18368 -46.15168 988.07808 -20.16256 976.93696C5.84704 965.7958399999998 35.93216 977.83808 47.07328 1003.8272C108.92288 1148.17024 172.9024 1297.42848 249.68192 1404.9279999999999C330.20928 1517.64992 413.56288 1570.16064 512.0102400000001 1570.16064S693.83168 1517.64992 774.33856 1404.9279999999999C850.2784 1298.59584 913.6844800000002 1151.44704 974.8992 1008.57856C976.16896 1003.8272 978.09408 999.3420800000002 980.61312 995.2460800000002C1043.4662400000002 848.5888 1108.7155200000002 697.8355200000001 1190.32832 583.5571200000002C1290.35264 443.5148800000002 1403.42272 375.4393600000001 1535.98976 375.4393600000001S1781.6268800000003 443.5148800000002 1881.6511999999996 583.5571200000002C1964.86144 700.0678400000002 2031.0528 854.48704 2095.0528 1003.8272000000002C2106.19392 1029.8163200000001 2094.15168 1059.9219200000002 2068.16256 1071.06304zM204.8921600000004 1021.56288A50.4832 50.4832 0 0 1 305.8585600000004 1021.56288A50.4832 50.4832 0 0 1 204.8921600000004 1021.56288M460.9740800000004 1021.56288A50.4832 50.4832 0 0 1 561.9404800000004 1021.56288A50.4832 50.4832 0 0 1 460.9740800000004 1021.56288M767.5596800000004 1072.04608C739.6864000000004 1072.04608 717.0764800000004 1049.4566399999999 717.0764800000004 1021.56288S739.6864000000005 971.0796799999998 767.5596800000004 971.0796799999998S818.0428800000003 993.6691199999998 818.0428800000003 1021.56288S795.4329600000003 1072.0460799999998 767.5596800000004 1072.0460799999998zM1229.2608000000005 1021.56288A50.4832 50.4832 0 0 1 1330.2272000000003 1021.56288A50.4832 50.4832 0 0 1 1229.2608000000005 1021.56288M1485.3427200000006 1021.56288A50.4832 50.4832 0 0 1 1586.3091200000003 1021.56288A50.4832 50.4832 0 0 1 1485.3427200000006 1021.56288M1791.9078400000008 971.10016C1819.7811200000003 971.10016 1842.3910400000004 993.6896 1842.3910400000004 1021.5833599999997S1819.7811200000003 1072.0665599999998 1791.9078400000008 1072.0665599999998S1741.4246400000006 1049.47712 1741.4246400000006 1021.5833599999997S1764.0140800000004 971.10016 1791.9078400000008 971.10016z" />
    <glyph glyph-name="function_signal_both"
      unicode="&#xEA1E;"
      horiz-adv-x="2048" d="M1482.10688 1483.89888C1472.11264 1493.9135999999999 1458.98496 1498.9107199999999 1445.8777599999999 1498.9107199999999H934.4102399999998S883.2102399999999 1474.6624000000002 883.2102399999999 1446.4S906.1273599999998 1395.1999999999998 934.4102399999998 1394.46272H1322.81344L653.3222399999999 725.1967999999997V1113.8867199999997C653.3222399999999 1128.0179199999998 647.5878399999998 1140.8179199999995 638.3308799999999 1150.0953599999998C628.3161599999999 1160.1100799999997 614.1439999999999 1166.0083199999997 598.6406399999998 1164.9843199999996C571.58656 1163.1820799999996 550.9222399999999 1139.9167999999995 550.9222399999999 1112.8012799999997V601.9071999999996S550.9222399999999 601.9071999999996 550.9222399999999 601.9071999999996C550.9222399999999 588.7999999999997 555.9193599999999 575.6927999999998 565.9135999999999 565.6985599999998C575.9078399999999 555.7043199999998 589.0355199999999 550.7071999999996 602.1427199999998 550.7071999999996H1113.07776C1139.2716799999998 550.7071999999996 1163.3151999999998 571.9859199999996 1165.17888 598.1183999999996C1167.32928 628.1011199999996 1143.6544 653.1071999999997 1114.1222400000001 653.1071999999997H724.6950400000002L1394.6982400000002 1323.9091199999998V935.0553599999998C1394.6982400000002 920.9036799999998 1400.43264 908.0832 1409.6896000000002 898.8057599999997C1419.7043200000003 888.7705599999997 1433.8764800000001 882.8723199999997 1449.3798400000003 883.9167999999997C1476.4339200000002 885.7190399999997 1497.0777600000001 908.9843199999998 1497.0777600000001 936.0998399999997V1447.6697599999998S1497.0777600000001 1447.6697599999998 1497.0777600000001 1447.6697599999998C1497.0777600000001 1460.7974399999998 1492.08064 1473.9046399999997 1482.0864 1483.9193599999999z" />
    <glyph glyph-name="function_signal_clip"
      unicode="&#xEA1F;"
      horiz-adv-x="2048" d="M1877.7489537177175 378.8799999999999H1186.6103937177174C1164.7582337177175 378.8799999999999 1145.3022337177176 392.7654399999999 1138.1956737177175 413.42976C1092.0337537177177 547.77856 1055.5793537177174 693.8828799999999 1023.4052737177174 822.7839999999999C1006.3659137177174 891.0028799999998 990.2891137177174 955.45344 974.7857537177174 1009.95072C974.7652737177174 1010.03264 974.7447937177174 1010.11456 974.7038337177174 1010.21696C958.9137537177174 1065.7792 942.7959937177174 1130.3935999999999 925.7156737177174 1198.7968C896.6955137177173 1315.04128 864.1323137177174 1445.43744 824.5035137177173 1566.7199999999998H207.1339137177174C167.5665537177175 1445.6012799999999 135.0647937177174 1315.38944 106.0855937177174 1199.2883199999999C88.9233537177174 1130.53696 72.7236737177174 1065.61536 56.8516737177174 1009.80736C49.1102337177174 982.6099199999998 20.8068737177174 966.8198400000002 -6.3905662822826 974.5612799999998C-33.5880062822826 982.30272 -49.3780862822826 1010.60608 -41.6366462822826 1037.80352C-26.2152062822826 1092.03456 -10.2203262822826 1156.17792 6.7371137177174 1224.0895999999998C38.9931137177174 1353.3184 75.5499137177174 1499.8118399999998 121.8756737177174 1634.57024C128.9822337177174 1655.25504 148.4382337177175 1669.12 170.2903937177174 1669.12H861.3470337177174C883.1991937177174 1669.12 902.6347137177174 1655.2345599999999 909.7412737177174 1634.57024C956.1489537177174 1499.62752 992.7467137177176 1352.99072 1025.0436737177176 1223.61856C1041.9396737177176 1155.95264 1057.8935937177175 1092.03456 1073.2535937177174 1038.00832C1073.2740737177176 1037.9264 1073.2945537177175 1037.86496 1073.3150337177174 1037.78304C1089.2689537177173 981.72928 1105.5300737177174 916.5824 1122.7332737177173 847.6057599999999C1151.6305537177175 731.83232 1184.0299137177174 601.9891200000002 1223.4539137177173 481.28H1840.8849537177173C1880.2884737177171 601.9891200000002 1912.7083137177171 731.8118400000001 1941.5851137177171 847.54432C1958.8497537177172 916.72576 1975.172313717717 982.0569599999998 1991.1467137177171 1038.1926400000002C1998.8881537177172 1065.3900800000001 2027.2119937177176 1081.1596800000002 2054.4094337177175 1073.41824C2081.6068737177175 1065.6768000000002 2097.3764737177175 1037.3529600000002 2089.6350337177173 1010.15552C2074.1111937177175 955.6377600000002 2057.9934337177174 891.0848000000001 2040.9335937177177 822.7430400000001C2008.7595137177177 693.8624000000002 1972.3051137177176 547.7990400000001 1926.1636737177175 413.4502399999999C1919.0571137177176 392.7654399999999 1899.6011137177177 378.8799999999999 1877.7489537177175 378.8799999999999z" />
    <glyph glyph-name="function_signal_double"
      unicode="&#xEA20;"
      horiz-adv-x="2048" d="M2063.2279848899307 1073.00864C2036.4811048899307 1082.18368 2007.3585448899307 1067.9296 1998.1835048899309 1041.1827199999998C1903.3611048899309 764.5183999999999 1805.3028648899303 478.4127999999998 1637.1415848899308 478.4127999999998C1583.4225448899308 478.4127999999998 1536.8715048899307 507.6377599999998 1495.2971048899308 556.3801599999999C1501.8302248899308 566.6611199999998 1508.3019048899307 577.3311999999999 1514.6916648899307 588.4927999999998C1581.0878248899307 704.7167999999997 1633.9262248899308 858.8902399999997 1685.0238248899307 1007.9846399999998C1694.1988648899307 1034.7315199999998 1679.9447848899306 1063.8540799999998 1653.197904889931 1073.0291199999997C1626.451024889931 1082.2041599999998 1597.328464889931 1067.9500799999998 1588.1534248899309 1041.2032C1539.923024889931 900.4646399999999 1490.8324648899309 757.3299199999999 1432.1367848899308 650.6086399999999C1373.420624889931 757.3299199999999 1324.350544889931 900.4851199999998 1276.0996648899309 1041.22368C1225.0020648899308 1190.31808 1172.1636648899307 1344.49152 1105.767504889931 1460.69504C1024.0932648899309 1603.66592 930.0286248899308 1673.1750399999999 818.187344889931 1673.1750399999999C742.2065448899309 1673.1750399999999 674.4177448899311 1641.0623999999998 613.1620648899309 1575.6492799999999C551.9063848899309 1641.0623999999998 484.117584889931 1673.1750399999999 408.136784889931 1673.1750399999999C296.2955048899309 1673.1750399999999 202.2308648899309 1603.66592 120.556624889931 1460.69504C54.1399848899306 1344.45056 1.3015848899305 1190.27712 -49.7960151100694 1041.1827199999998L47.0743848899306 1007.9846399999998C141.8967848899305 1284.64896 239.9550248899306 1570.73408 408.1163048899306 1570.73408C461.8353448899305 1570.73408 508.3863848899306 1541.50912 549.9607848899307 1492.76672C543.4276648899306 1482.48576 536.9559848899305 1471.81568 530.5662248899305 1460.6540799999998C464.1700648899305 1344.43008 411.3316648899306 1190.2566399999998 360.2340648899305 1041.16224C351.0590248899306 1014.41536 365.3131048899305 985.2928 392.0599848899305 976.13824C418.8273448899305 966.9632 447.9294248899305 981.21728 457.1044648899305 1007.96416C505.3348648899305 1148.70272 554.4254248899306 1291.85792 613.1211048899306 1398.55872C671.8372648899306 1291.8374399999998 720.9073448899305 1148.70272 769.1377448899307 1007.96416C820.2353448899305 858.86976 873.0737448899306 704.6963199999998 939.4699048899306 588.4723199999999C1021.1441448899305 445.50144 1115.2087848899305 375.9923199999999 1227.0500648899306 375.9923199999999C1303.0308648899306 375.9923199999999 1370.8196648899307 408.1049599999997 1432.0753448899304 473.5180799999998C1493.3310248899304 408.1049599999997 1561.1198248899304 375.9923199999999 1637.1006248899305 375.9923199999999C1748.9419048899306 375.9923199999999 1843.0065448899304 445.50144 1924.6807848899305 588.4723199999999C1991.0769448899305 704.6963199999998 2043.9153448899303 858.8697599999998 2095.0129448899306 1007.96416C2104.1879848899302 1034.71104 2089.9339048899305 1063.8336 2063.187024889931 1073.00864zM1227.0910248899304 478.4128000000001C1058.9297448899304 478.4128000000001 960.8715048899306 764.4979199999998 866.0286248899304 1041.18272C814.9310248899305 1190.2771200000002 762.0926248899304 1344.45056 695.6964648899304 1460.67456C689.3067048899304 1471.85664 682.8555048899304 1482.52672 676.3019048899303 1492.7872000000002C717.8967848899304 1541.5296 764.4478248899304 1570.75456 818.1463848899305 1570.75456C986.3076648899304 1570.75456 1084.3659048899303 1284.6694400000001 1179.2087848899305 1007.9846399999998C1230.3063848899305 858.89024 1283.1447848899304 704.7167999999999 1349.5409448899304 588.5132799999999C1355.9307048899304 577.35168 1362.3819048899304 566.6816000000001 1368.9150248899305 556.4006400000001C1327.3201448899306 507.6582400000002 1280.7691048899305 478.43328 1227.0705448899305 478.43328z" />
    <glyph glyph-name="function_signal_fade"
      unicode="&#xEA21;"
      horiz-adv-x="2048" d="M127.9200884233173 376.70912C59.0458484233173 376.70912 29.3908084233173 467.68128 7.6000884233173 565.9852800000001C-15.9314315766827 672.17408 -35.6946315766827 825.09824 -51.1365515766827 1020.5184L50.9357684233173 1028.58752C76.1671284233173 709.1609599999999 108.0340084233173 571.20768 127.8996084233173 513.0854399999998C147.7652084233174 571.20768 179.6320884233173 709.14048 204.8634484233173 1028.56704C220.3053684233174 1223.9872 240.0685684233174 1376.9113599999998 263.6000884233174 1483.10016C285.3908084233173 1581.40416 315.0458484233174 1672.3968 383.9200884233174 1672.3968S482.4493684233174 1581.42464 504.2400884233173 1483.1206399999999C527.7511284233175 1377.03424 547.4938484233174 1224.3353599999998 562.9152884233173 1029.20192C589.1296884233174 775.43424 621.7543284233174 675.1436799999999 639.9200884233173 636.94848C658.1063284233173 675.1641599999998 690.7719284233174 775.5776000000001 716.9863284233173 1029.79584C732.5511284233174 1180.65152 752.5396084233174 1298.96448 776.4192884233173 1381.43744C796.7968884233173 1451.8272 828.7866484233174 1532.6208 895.9200884233175 1532.6208S995.0637684233174 1451.8272 1015.4208884233174 1381.43744C1039.1572084233173 1299.43552 1059.0432884233173 1182.0031999999999 1074.5876084233173 1032.35584C1106.0858484233172 880.5171199999997 1145.0183284233174 850.6163200000001 1151.9200884233173 846.4383999999998C1158.8628084233173 850.6367999999998 1198.1639284233174 880.8447999999999 1229.7645684233173 1034.81344C1246.1280884233172 1114.5216 1267.4682484233172 1177.62048 1293.2320884233172 1222.36928C1315.0432884233173 1260.27776 1352.6445684233172 1305.47712 1407.9200884233173 1305.47712S1500.7968884233173 1260.27776 1522.6080884233172 1222.36928C1547.6960884233174 1178.7673599999998 1568.6266484233174 1117.7164799999998 1584.8058484233172 1040.87552C1605.6340084233173 998.15424 1634.9613684233173 972.84096 1663.9200884233173 972.84096S1724.4180084233171 1000.1407999999998 1745.3690484233173 1045.85216C1783.4618484233174 1128.98048 1848.7111284233176 1178.60352 1919.920088423317 1178.60352S2056.3783284233177 1128.9804799999997 2094.4711284233176 1045.85216C2106.2471284233175 1020.1497599999998 2094.9626484233177 989.7574399999997 2069.2602484233175 977.98144C2043.5578484233176 966.20544 2013.1655284233177 977.48992 2001.3895284233176 1003.1923199999998C1980.4384884233175 1048.90368 1949.9847284233172 1076.20352 1919.9405684233177 1076.20352S1859.4426484233177 1048.90368 1838.4916084233175 1003.1923199999998C1800.3988084233174 920.064 1735.1495284233174 870.4409599999999 1663.9405684233175 870.4409599999999S1527.4823284233175 920.064 1489.3895284233174 1003.1923199999998C1487.7716084233175 1006.71488 1486.5632884233175 1010.42176 1485.7850484233174 1014.2310399999998C1454.1844084233176 1168.2201599999999 1414.8832884233175 1198.42816 1407.9405684233175 1202.62656C1400.9978484233175 1198.42816 1361.6967284233174 1168.2201599999999 1330.0960884233175 1014.2310399999998C1313.7325684233176 934.5228799999998 1292.3924084233176 871.424 1266.6285684233176 826.6751999999999C1244.8173684233175 788.7667199999999 1207.2160884233176 743.5673599999998 1151.9405684233175 743.5673599999998S1059.0637684233175 788.7667199999999 1037.2525684233176 826.6751999999999C1011.5092084233175 871.424 990.1485684233176 934.5228799999998 973.7850484233176 1014.2310399999998C973.4368884233176 1015.8899199999998 973.1911284233177 1017.56928 973.0068084233176 1019.26912C946.7719284233176 1273.4873599999999 914.1268084233176 1373.9008 895.9405684233176 1412.1164799999997C877.7543284233176 1373.9008 845.0887284233177 1273.4873599999999 818.8743284233176 1019.26912C803.3095284233176 868.4134399999998 783.3210484233176 750.1004800000001 759.4413684233176 667.62752C739.0637684233177 597.23776 707.0740084233177 516.44416 639.9405684233176 516.44416S540.7968884233177 597.2377600000002 520.4397684233176 667.62752C496.5805684233176 750.1004800000001 476.5716084233176 868.4134399999998 461.0068084233175 1019.26912C460.9658484233175 1019.6787199999998 460.9248884233176 1020.0883199999998 460.9044084233175 1020.49792C435.6730484233176 1339.9244800000001 403.8061684233175 1477.8777599999999 383.9405684233176 1535.9795199999999C364.0749684233176 1477.8572800000002 332.2080884233176 1339.9244800000001 306.9767284233176 1020.49792C291.5348084233176 825.0777599999999 271.7716084233176 672.1536000000001 248.2400884233176 565.9648C226.4493684233176 467.6608000000001 196.7943284233176 376.6886400000001 127.9200884233176 376.6886400000001z" />
    <glyph glyph-name="function_signal_fold"
      unicode="&#xEA22;"
      horiz-adv-x="2048" d="M1877.7182337177176 378.6956799999998C1855.8455937177175 378.6956799999998 1836.3895937177176 392.5811199999999 1829.3035137177176 413.2659199999998C1741.2395137177175 669.6550400000001 1644.0209537177175 798.8223999999998 1532.2001537177177 807.9974399999999C1420.3383937177177 798.7404799999999 1323.1198337177177 669.5526399999999 1235.0763137177175 413.2659199999998C1227.9697537177176 392.5811199999999 1208.5137537177175 378.6956799999998 1186.6615937177176 378.6956799999998S1145.3534337177177 392.5811199999999 1138.2468737177176 413.2659199999998C1092.0849537177178 547.6556799999998 1055.6100737177176 693.80096 1023.4155137177175 822.7430400000001C1006.4171137177174 890.8390400000001 990.3607937177176 955.16672 974.8779137177175 1009.60256C974.8369537177176 1009.74592 974.7959937177176 1009.8688 974.7550337177177 1010.01216C958.9444737177176 1065.63584 942.7857537177176 1130.35264 925.6849537177176 1198.85824C904.7953537177176 1282.5190400000001 882.0830337177175 1373.4912 856.2167937177176 1463.15264C826.0087937177176 1394.33984 794.4491137177175 1337.5488 760.8619137177176 1291.3663999999999C690.5745537177175 1194.72128 609.1460737177176 1142.9888 518.8292737177176 1137.5820800000001C516.7607937177175 1137.4592 514.6923137177175 1137.4592 512.6443137177176 1137.5820800000001C422.3070337177176 1143.13216 340.8580737177176 1194.9260800000002 270.6116737177176 1291.50976C237.0654337177176 1337.6511999999998 205.5262337177176 1394.3808 175.3387137177176 1463.0911999999998C149.5543937177176 1373.6550399999999 126.9035137177176 1282.90816 106.0753537177176 1199.4521599999998C88.9131137177176 1130.7008 72.7134337177176 1065.7792 56.8414337177176 1009.9712C49.1204737177176 982.77376 20.7761537177176 966.9836799999998 -6.4008062822824 974.7251199999998C-33.5982462822824 982.4665599999998 -49.3883262822824 1010.76992 -41.6468862822824 1037.9673599999999C-26.2254462822824 1092.1983999999998 -10.2305662822824 1156.3417599999998 6.7268737177176 1224.25344C38.9828737177176 1353.4822399999998 75.5396737177176 1499.9756799999998 121.8654337177176 1634.7340799999997C128.9719937177176 1655.4188799999997 148.4279937177176 1669.2838399999998 170.2801537177176 1669.2838399999998S211.5883137177176 1655.3983999999998 218.6948737177176 1634.7340799999997C306.8407937177176 1378.3039999999999 404.0798337177176 1249.11616 515.8391937177175 1240.0230399999998C573.7361537177176 1244.6310399999998 626.8407937177176 1281.1673599999997 678.0612737177175 1351.5980799999998C725.8615937177175 1417.3388799999998 769.9755137177175 1509.9699199999998 812.8811137177175 1634.7545599999999C819.9876737177176 1655.4188799999997 839.4436737177176 1669.3043199999997 861.2958337177175 1669.3043199999997S902.6039937177176 1655.4188799999997 909.7105537177176 1634.7545599999999C956.1182337177175 1499.77088 992.7364737177176 1353.0726399999999 1025.0539137177175 1223.6595199999997C1041.9089537177174 1156.1164799999997 1057.8423937177176 1092.3212799999997 1073.1614337177175 1038.3769599999996C1073.2023937177175 1038.2540799999997 1073.2433537177174 1038.1311999999998 1073.2638337177173 1038.0083199999997C1089.2382337177173 981.8726399999996 1105.5198337177173 916.6233599999996 1122.7639937177173 847.5443199999997C1143.5102337177173 764.4159999999997 1166.0791937177173 674.0172799999998 1191.7406337177172 584.9497599999997C1221.8871937177173 653.5987199999997 1253.3854337177172 710.2873599999998 1286.9316737177173 756.3878399999999C1357.1575937177172 852.9510399999997 1438.6065537177171 904.7654399999998 1529.0052737177173 910.4179199999998C1531.1147137177172 910.5407999999998 1533.2241537177172 910.5407999999998 1535.3335937177173 910.4179199999998C1625.7527937177174 904.8473599999998 1707.2017537177173 853.0534399999999 1777.4481537177176 756.46976C1810.9943937177177 710.3488 1842.4926337177171 653.63968 1872.6596737177172 584.9702399999999C1898.3006337177171 673.97632 1920.8491137177175 764.29312 1941.5953537177177 847.38048C1958.859993717717 916.54144 1975.1620737177177 981.8931200000002 1991.1569537177177 1038.0288C1998.8983937177177 1065.22624 2027.2222337177177 1080.99584 2054.4196737177176 1073.2544C2081.6171137177175 1065.51296 2097.386713717717 1037.18912 2089.6452737177174 1009.99168C2074.121433717717 955.4739200000002 2058.0036737177174 890.9209599999999 2040.9438337177176 822.59968C2008.769753717717 693.7190400000002 1972.3153537177177 547.6556800000001 1926.1534337177177 413.2864000000002C1919.0468737177175 392.6016 1899.5908737177172 378.7161600000002 1877.7387137177177 378.7161600000002z" />
    <glyph glyph-name="function_signal_gate_fall"
      unicode="&#xEA23;"
      horiz-adv-x="2048" d="M1771.0635162644203 824.7910400000001L1497.1639962644203 550.8915199999999V1622.016C1497.1639962644203 1650.29888 1474.2468762644203 1673.216 1445.96399626442 1673.216H241.1051162644203C214.9111962644203 1673.216 190.8676762644203 1651.93728 189.0039962644203 1625.8048C186.8535962644203 1595.82208 210.5284762644203 1570.816 240.0606362644203 1570.816H1394.7639962644203V550.8915199999999L1120.8644762644203 824.7910400000001C1102.3505562644204 843.3049599999999 1070.29935626442 845.25056 1050.4951962644204 828.1088C1027.7623962644202 808.42752 1026.84079626442 774.0006400000002 1047.7099162644204 753.11104L1409.7553562644202 391.0656000000002C1410.9431962644203 389.8777600000001 1412.2129562644204 388.7308800000001 1413.5236762644204 387.6659200000002C1414.09711626442 387.19488 1414.7115162644204 386.7852800000003 1415.3054362644202 386.3347200000001C1416.04271626442 385.7817600000003 1416.7799962644203 385.2083200000002 1417.5377562644203 384.6963200000003C1418.2545562644204 384.2048000000002 1419.0123162644204 383.7952000000003 1419.7495962644202 383.3446400000003C1420.4459162644202 382.9350400000003 1421.1217562644201 382.5049600000005 1421.8180762644206 382.1158400000004C1422.5758362644206 381.7062400000002 1423.3540762644202 381.3580800000002 1424.1323162644203 381.0099200000004C1424.8695962644206 380.6617600000004 1425.6068762644204 380.2931200000003 1426.3646362644204 379.9654400000004C1427.1223962644203 379.6582400000005 1427.8801562644203 379.4124800000004 1428.6379162644203 379.1257600000004C1429.4571162644206 378.8390400000005 1430.2558362644204 378.5318400000006 1431.0750362644208 378.2656000000007C1431.8327962644207 378.0403200000005 1432.6110362644204 377.8560000000005 1433.3892762644205 377.6716800000006C1434.2289562644205 377.4668800000007 1435.0686362644205 377.2211200000006 1435.9287962644207 377.0572800000007C1436.8299162644207 376.8729600000006 1437.7515162644204 376.7705600000006 1438.6526362644208 376.6476800000005C1439.4103962644208 376.5452800000008 1440.6391962644207 376.3404800000008 1441.3969562644206 376.2790400000008C1442.9124762644205 376.1356800000006 1444.4075162644208 376.0742400000006 1445.9230362644207 376.0742400000006S1448.954076264421 376.1561600000007 1450.4491162644208 376.2790400000008C1451.2068762644208 376.3404800000008 1452.435676264421 376.5452800000008 1453.193436264421 376.6476800000005C1454.1150362644212 376.7705600000004 1455.0161562644207 376.8934400000005 1455.9172762644212 377.0572800000007C1456.7774362644209 377.2211200000009 1457.617116264421 377.4668800000009 1458.456796264421 377.6716800000006C1459.235036264421 377.8560000000007 1460.0132762644212 378.0403200000005 1460.7710362644211 378.2656000000007C1461.6107162644212 378.5113600000004 1462.409436264421 378.8185600000004 1463.2081562644212 379.1257600000004C1463.9659162644211 379.3920000000005 1464.7441562644212 379.6582400000005 1465.5019162644212 379.9654400000004C1466.2596762644212 380.2726400000004 1466.996956264421 380.6412800000005 1467.7342362644213 381.0099200000004C1468.5124762644214 381.3785600000004 1469.290716264421 381.7267200000004 1470.0484762644214 382.1158400000004C1470.7652762644211 382.5049600000005 1471.441116264421 382.9350400000003 1472.1169562644213 383.3446400000003C1472.8542362644212 383.7952000000005 1473.6119962644211 384.2048000000002 1474.3287962644213 384.6963200000003C1475.1070362644214 385.2083200000002 1475.8238362644215 385.7817600000003 1476.5611162644213 386.3347200000001C1477.1550362644211 386.7852800000003 1477.7694362644215 387.19488 1478.3428762644212 387.6659200000002C1479.6535962644211 388.7308800000001 1480.9028762644211 389.8777600000003 1482.1111962644213 391.0656000000002L1844.1361562644215 753.0905600000001C1865.0257562644215 773.9801600000001 1864.0836762644212 808.40704 1841.3508762644217 828.0883200000001C1821.546716264421 845.23008 1789.4955162644214 843.28448 1770.9815962644211 824.7705599999999z" />
    <glyph glyph-name="function_signal_gate_rise"
      unicode="&#xEA24;"
      horiz-adv-x="2048" d="M1846.676958628344 1225.0112C1864.535518628344 1245.4092799999999 1862.692318628344 1276.47744 1843.5230386283445 1295.64672L1482.255838628344 1656.91392C1481.1908786283443 1657.9788800000001 1480.0849586283443 1658.9823999999999 1478.938078628344 1659.94496C1478.3441586283443 1660.4364799999998 1477.340638628344 1661.17376 1476.7262386283442 1661.6448C1475.9889586283439 1662.19776 1475.251678628344 1662.7712000000001 1474.473438628344 1663.30368C1473.7566386283438 1663.7952 1472.9988786283438 1664.2048 1472.2411186283439 1664.65536C1471.5447986283439 1665.06496 1470.868958628344 1665.49504 1470.172638628344 1665.88416C1469.414878628344 1666.29376 1468.636638628344 1666.64192 1467.8583986283438 1666.99008C1467.121118628344 1667.33824 1466.3838386283437 1667.70688 1465.6260786283437 1668.03456C1464.8683186283438 1668.34176 1464.1105586283438 1668.58752 1463.3323186283437 1668.8742399999999C1462.5131186283438 1669.16096 1461.714398628344 1669.46816 1460.8951986283437 1669.7343999999998C1460.1374386283437 1669.95968 1459.3591986283436 1670.1439999999998 1458.5809586283435 1670.3283199999998C1457.741278628344 1670.5331199999998 1456.9015986283434 1670.7788799999998 1456.0414386283437 1670.94272C1455.1403186283437 1671.1270399999999 1454.2187186283436 1671.2294399999998 1453.3175986283436 1671.35232C1452.5598386283436 1671.45472 1451.3310386283438 1671.65952 1450.5732786283434 1671.7209599999999C1447.5422386283435 1671.9871999999998 1444.5111986283437 1671.9871999999998 1441.4801586283434 1671.7209599999999C1440.7223986283434 1671.65952 1439.4935986283435 1671.45472 1438.7358386283436 1671.35232C1437.8347186283431 1671.2294399999998 1436.9131186283435 1671.10656 1436.0119986283435 1670.94272C1435.1518386283433 1670.7788799999998 1434.3121586283432 1670.53312 1433.4724786283432 1670.3283199999998C1432.694238628343 1670.1439999999998 1431.9159986283435 1669.95968 1431.1582386283435 1669.7343999999998C1430.3185586283435 1669.4886399999998 1429.5198386283432 1669.1814399999998 1428.721118628343 1668.8742399999999C1427.963358628343 1668.608 1427.1851186283434 1668.34176 1426.447838628343 1668.03456C1425.6900786283431 1667.7273599999999 1424.9527986283433 1667.35872 1424.215518628343 1666.99008C1423.437278628343 1666.62144 1422.6590386283433 1666.2732799999999 1421.9012786283429 1665.88416C1421.1844786283432 1665.49504 1420.5086386283433 1665.06496 1419.832798628343 1664.65536C1419.0955186283431 1664.2048 1418.3377586283432 1663.7952 1417.600478628343 1663.30368C1416.8222386283433 1662.79168 1416.105438628343 1662.21824 1415.3681586283428 1661.66528C1414.753758628343 1661.21472 1413.7502386283431 1660.45696 1413.156318628343 1659.96544C1412.009438628343 1659.00288 1410.9035186283427 1657.9993599999998 1409.838558628343 1656.9344L1048.550878628343 1295.64672C1030.0369586283427 1277.1327999999999 1028.0913586283427 1245.0816 1045.2331186283427 1225.2774399999998C1064.914398628343 1202.5446399999998 1099.341278628343 1201.62304 1120.230878628343 1222.4921599999998L1394.8676786283431 1497.12896V477.2044799999999H241.1883186283439C214.9943986283439 477.2044799999999 190.9508786283439 455.9257600000001 189.0871986283439 429.7932800000001C186.9367986283439 399.8105600000001 210.6116786283439 374.80448 240.143838628344 374.80448H1446.0471986283437C1474.330078628344 374.80448 1497.247198628344 397.7216000000001 1497.247198628344 426.0044800000001V1497.1084799999999L1771.8839986283442 1222.4716799999999C1781.8782386283442 1212.47744 1794.9854386283441 1207.48032 1808.092638628344 1207.48032C1822.2647986283437 1207.48032 1836.4369586283435 1213.3375999999998 1846.676958628344 1225.03168z" />
    </font>
</defs>
</svg>
