<?xml version="1.0" encoding="UTF-8"?><svg id="layer1" xmlns="http://www.w3.org/2000/svg" viewBox="0 0 1000 1000"><path d="M407.58,300v399.97h-75.89v-399.97h75.89M429.99,250h-120.71c-15.23,0-27.59,12.36-27.59,27.59v444.79c0,15.23,12.36,27.59,27.59,27.59h120.71c15.23,0,27.59-12.36,27.59-27.59v-444.79c0-15.23-12.36-27.59-27.59-27.59h0Z"/><path d="M668.36,300v399.97h-75.89v-399.97h75.89M690.77,250h-120.71c-15.23,0-27.59,12.36-27.59,27.59v444.79c0,15.23,12.36,27.59,27.59,27.59h120.71c15.23,0,27.59-12.36,27.59-27.59v-444.79c0-15.23-12.36-27.59-27.59-27.59h0Z"/></svg>