<?xml version="1.0" encoding="UTF-8"?><svg id="layer1" xmlns="http://www.w3.org/2000/svg" viewBox="0 0 1000 1000"><path d="M793.36,326.57v346.84l-230.48-173.44,230.48-173.4M454.62,326.58v154.64c0,6.54,1.28,12.88,3.64,18.74-2.37,5.85-3.64,12.2-3.64,18.74v154.71l-230.43-173.4,230.43-173.42M819.87,250c-5,0-9.97,1.59-14.14,4.69l-301.11,226.53v-207.75c0-8.9-5.03-17.04-13-21.02-3.32-1.65-6.91-2.46-10.49-2.46-5,0-9.97,1.59-14.14,4.69l-300.99,226.53c-5.89,4.44-9.36,11.41-9.36,18.78s3.47,14.35,9.36,18.78l300.99,226.5c4.16,3.12,9.13,4.71,14.13,4.71,3.58,0,7.17-.83,10.49-2.48,7.97-3.98,13-12.11,13-21.02v-207.81s.08.06.12.09l300.99,226.5c4.16,3.12,9.13,4.71,14.13,4.71,3.58,0,7.17-.83,10.49-2.48,7.97-3.98,13-12.11,13-21.02v-453.03c0-8.9-5.03-17.04-13-21.02-3.32-1.65-6.91-2.46-10.49-2.46h0Z"/></svg>