<?xml version="1.0" encoding="UTF-8"?><svg id="layer1" xmlns="http://www.w3.org/2000/svg" viewBox="0 0 1000 1000"><path d="M694.58,307.58c-11.4-11.4-23.63-21.67-36.56-30.75l92.14-161.24c6.85-11.99,2.69-27.26-9.3-34.11-11.98-6.85-27.26-2.68-34.11,9.3l-92.11,161.19c-35.19-16.06-73.72-24.54-113.56-24.54-73.1,0-141.82,28.46-193.5,80.15-51.69,51.69-80.15,120.41-80.15,193.5s28.46,141.82,80.15,193.5c11.4,11.4,23.63,21.67,36.56,30.75l-92.14,161.24c-6.85,11.99-2.69,27.26,9.3,34.11,3.91,2.24,8.18,3.3,12.38,3.3,8.68,0,17.11-4.53,21.73-12.6l92.11-161.19c35.19,16.06,73.72,24.54,113.56,24.54,73.1,0,141.82-28.46,193.5-80.15,51.69-51.69,80.15-120.41,80.15-193.5s-28.46-141.82-80.15-193.5ZM501.08,724.73c-31.44,0-61.38-6.54-88.56-18.3l220.49-385.83c55.57,40.73,91.72,106.46,91.72,180.48,0,123.32-100.33,223.65-223.65,223.65ZM501.08,277.43c31.44,0,61.39,6.54,88.56,18.3l-220.49,385.83c-55.57-40.73-91.72-106.46-91.72-180.48,0-123.32,100.33-223.65,223.65-223.65Z"/></svg>