<?xml version="1.0" encoding="UTF-8"?><svg id="layer1" xmlns="http://www.w3.org/2000/svg" viewBox="0 0 1000 1000"><path d="M62.49,816.06c-33.63,0-48.11-44.42-58.75-92.42-11.49-51.85-21.14-126.52-28.68-221.94l49.84-3.94c12.32,155.97,27.88,223.33,37.58,251.71,9.7-28.38,25.26-95.73,37.58-251.7,7.54-95.42,17.19-170.09,28.68-221.94,10.64-48,25.12-92.43,58.75-92.43s48.11,44.42,58.75,92.42c11.48,51.8,21.12,126.36,28.65,221.64,12.8,123.91,28.73,172.88,37.6,191.53,8.88-18.66,24.83-67.69,37.63-191.82,7.6-73.66,17.36-131.43,29.02-171.7,9.95-34.37,25.57-73.82,58.35-73.82s48.41,39.45,58.35,73.82c11.59,40.04,21.3,97.38,28.89,170.45,15.38,74.14,34.39,88.74,37.76,90.78,3.39-2.05,22.58-16.8,38.01-91.98,7.99-38.92,18.41-69.73,30.99-91.58,10.65-18.51,29.01-40.58,56-40.58s45.35,22.07,56,40.58c12.25,21.29,22.47,51.1,30.37,88.62,10.17,20.86,24.49,33.22,38.63,33.22s29.54-13.33,39.77-35.65c18.6-40.59,50.46-64.82,85.23-64.82s66.63,24.23,85.23,64.82c5.75,12.55.24,27.39-12.31,33.14-12.55,5.75-27.39.24-33.14-12.31-10.23-22.32-25.1-35.65-39.77-35.65s-29.54,13.33-39.77,35.65c-18.6,40.59-50.46,64.82-85.23,64.82s-66.63-24.23-85.23-64.82c-.79-1.72-1.38-3.53-1.76-5.39-15.43-75.19-34.62-89.94-38.01-91.99-3.39,2.05-22.58,16.8-38.01,91.99-7.99,38.92-18.41,69.73-30.99,91.58-10.65,18.51-29.01,40.58-56,40.58s-45.35-22.07-56-40.58c-12.57-21.85-23-52.66-30.99-91.58-.17-.81-.29-1.63-.38-2.46-12.81-124.13-28.75-173.16-37.63-191.82-8.88,18.66-24.83,67.69-37.63,191.82-7.6,73.66-17.36,131.43-29.02,171.7-9.95,34.37-25.57,73.82-58.35,73.82s-48.41-39.45-58.35-73.82c-11.65-40.27-21.42-98.04-29.02-171.7-.02-.2-.04-.4-.05-.6-12.32-155.97-27.88-223.33-37.58-251.7-9.7,28.38-25.26,95.73-37.58,251.7-7.54,95.42-17.19,170.09-28.68,221.94-10.64,48-25.12,92.42-58.75,92.42Z"/></svg>