<?xml version="1.0" encoding="UTF-8"?><svg id="layer1" xmlns="http://www.w3.org/2000/svg" viewBox="0 0 1000 1000"><path d="M918.78,715.06c40.63-56.89,72.95-132.29,104.2-205.21,5.44-12.69-.44-27.39-13.13-32.83-12.69-5.44-27.39.44-32.83,13.13-30.2,70.48-61.44,143.36-98.93,195.85-39.32,55.04-80.02,80.68-128.09,80.68s-88.78-25.64-128.09-80.68c-37.49-52.49-68.72-125.37-98.93-195.85-31.25-72.92-63.56-148.32-104.2-205.21-48.84-68.38-104.05-101.62-168.78-101.62s-119.94,33.24-168.78,101.62c-40.63,56.89-72.95,132.29-104.2,205.21-5.44,12.69.44,27.39,13.13,32.83,12.7,5.44,27.39-.44,32.83-13.13,30.2-70.48,61.44-143.36,98.93-195.85,39.32-55.04,80.02-80.68,128.09-80.68s88.78,25.64,128.09,80.68c37.49,52.49,68.72,125.37,98.93,195.85,31.25,72.92,63.56,148.32,104.2,205.21,14.64,20.5,29.87,37.82,45.74,52.06-.57-.04-1.14-.09-1.72-.09-13.61,0-24.65,11.03-24.65,24.65s11.04,24.65,24.65,24.65,24.65-11.03,24.65-24.65c0-2.51-.38-4.92-1.07-7.2,31.07,21.58,64.61,32.2,101.19,32.2s70.66-10.8,101.93-32.73c-.8,2.43-1.25,5.03-1.25,7.73,0,13.61,11.03,24.65,24.65,24.65s24.65-11.03,24.65-24.65-11.03-24.65-24.65-24.65c-.78,0-1.56.05-2.32.12,15.89-14.24,31.12-31.57,45.78-52.09Z"/><circle cx="0" cy="791.68" r="24.65"/><circle cx="125.05" cy="791.68" r="24.65"/><path d="M250.1,767.03c-13.61,0-24.65,11.03-24.65,24.65s11.04,24.65,24.65,24.65,24.65-11.03,24.65-24.65-11.04-24.65-24.65-24.65Z"/><circle cx="375.14" cy="791.68" r="24.65"/><circle cx="500.19" cy="791.68" r="24.65"/><circle cx="1000.37" cy="791.68" r="24.65"/></svg>