<?xml version="1.0" encoding="UTF-8"?><svg id="layer1" xmlns="http://www.w3.org/2000/svg" viewBox="0 0 1000 1000"><path d="M888.89,816.06c-18.17,0-35.05-9.13-50.15-27.14-12.02-14.33-23.38-35.05-33.76-61.58-20.56-52.54-37.79-127.96-51.21-224.16-12.7-91.03-29.39-164.63-48.25-212.85-18.19-46.48-33.44-56.94-37.36-56.94s-19.17,10.46-37.35,56.94c-18.84,48.15-35.5,121.6-48.2,212.44-10.17,95.59-23.21,170.48-38.74,222.59-7.93,26.6-16.26,46.53-25.47,60.94-12.61,19.74-27.65,29.75-44.68,29.75-38.65,0-58.54-51.76-70.15-90.69-15.56-52.19-28.61-127.22-38.79-223-21.18-199.24-49.35-252.79-59.21-265.88-9.85,13.08-37.99,66.55-59.16,265.42-6.64,95.07-15.14,169.46-25.24,221.11-5.09,26.02-10.42,45.48-16.3,59.49-9.33,22.26-22.3,33.54-38.55,33.54s-29.22-11.28-38.55-33.54c-5.88-14.01-11.21-33.47-16.3-59.49-10.12-51.73-18.62-126.27-25.27-221.56-9.66-138.46-21.64-207.38-30.25-241.16-8.6,33.77-20.59,102.7-30.25,241.15l-49.88-3.48c6.65-95.29,15.15-169.83,25.27-221.56,5.09-26.02,10.42-45.48,16.3-59.49,9.33-22.26,22.3-33.54,38.55-33.54s29.22,11.28,38.55,33.54c5.88,14.01,11.21,33.47,16.3,59.49,10.12,51.73,18.62,126.27,25.27,221.56,9.66,138.46,21.64,207.38,30.25,241.16,8.6-33.77,20.59-102.7,30.25-241.16.02-.3.05-.6.08-.9,10.18-95.78,23.23-170.81,38.79-223,7.93-26.6,16.26-46.53,25.47-60.94,12.61-19.74,27.65-29.75,44.68-29.75,38.64,0,58.54,51.76,70.15,90.69,15.56,52.19,28.61,127.22,38.79,223,21.18,199.24,49.35,252.79,59.21,265.88,9.86-13.09,38.04-66.63,59.21-265.87.03-.27.06-.54.1-.81,13.42-96.2,30.65-171.62,51.21-224.16,10.38-26.53,21.74-47.25,33.76-61.58,15.11-18.01,31.98-27.14,50.15-27.14s35.05,9.13,50.16,27.14c12.02,14.33,23.38,35.05,33.76,61.58,20.56,52.54,37.79,127.96,51.21,224.16,12.7,91.03,29.39,164.63,48.25,212.85,18.19,46.48,33.45,56.94,37.36,56.94s19.17-10.46,37.36-56.94c18.87-48.22,35.55-121.82,48.25-212.84,1.91-13.68,14.55-23.21,28.22-21.31,13.67,1.91,23.21,14.54,21.31,28.21-13.42,96.2-30.65,171.61-51.21,224.16-10.38,26.53-21.74,47.25-33.76,61.58-15.11,18.01-31.98,27.14-50.15,27.14Z"/></svg>