<?xml version="1.0" encoding="UTF-8"?><svg id="layer1" xmlns="http://www.w3.org/2000/svg" viewBox="0 0 1000 1000"><path d="M860.39,307.58c-51.69-51.69-120.41-80.15-193.5-80.15-60.59,0-118.17,19.58-165.54,55.71-47.37-36.13-104.94-55.71-165.54-55.71-73.1,0-141.82,28.46-193.5,80.15-51.69,51.69-80.15,120.41-80.15,193.5s28.46,141.82,80.15,193.5c51.69,51.69,120.41,80.15,193.5,80.15,60.59,0,118.17-19.58,165.54-55.71,47.37,36.13,104.94,55.71,165.54,55.71,73.1,0,141.82-28.46,193.5-80.15,51.69-51.69,80.15-120.41,80.15-193.5s-28.46-141.82-80.15-193.5ZM666.89,724.73c-47.54,0-91.65-14.92-127.92-40.3,45.57-50.37,70.5-114.94,70.5-183.35s-24.93-132.98-70.5-183.35c36.27-25.38,80.38-40.3,127.92-40.3,123.32,0,223.65,100.33,223.65,223.65s-100.33,223.65-223.65,223.65ZM335.82,277.43c47.54,0,91.65,14.92,127.92,40.3-45.57,50.37-70.5,114.94-70.5,183.35s24.93,132.98,70.5,183.35c-36.27,25.38-80.38,40.3-127.92,40.3-123.32,0-223.65-100.33-223.65-223.65s100.33-223.65,223.65-223.65ZM443.23,501.08c0-57.78,22.02-110.51,58.12-150.24,36.09,39.73,58.12,92.46,58.12,150.24s-22.02,110.51-58.12,150.24c-36.09-39.73-58.12-92.46-58.12-150.24Z"/></svg>