<?xml version="1.0" encoding="UTF-8"?><svg id="layer1" xmlns="http://www.w3.org/2000/svg" viewBox="0 0 1000 1000"><path d="M1007.69,476.07c-13.06-4.48-27.28,2.48-31.76,15.54-46.3,135.09-94.18,274.79-176.29,274.79-26.23,0-48.96-14.27-69.26-38.07,3.19-5.02,6.35-10.23,9.47-15.68,32.42-56.75,58.22-132.03,83.17-204.83,4.48-13.06-2.48-27.28-15.54-31.76-13.06-4.48-27.28,2.48-31.76,15.54-23.55,68.72-47.52,138.61-76.18,190.72-28.67-52.11-52.63-122.01-76.19-190.73-24.95-72.8-50.75-148.08-83.17-204.82-39.88-69.81-85.81-103.75-140.42-103.75-37.1,0-70.2,15.68-100.11,47.62-29.91-31.94-63.01-47.62-100.11-47.62-54.61,0-100.54,33.94-140.42,103.75C26.69,343.53.89,418.81-24.06,491.61l47.3,16.21c46.3-135.09,94.18-274.78,176.29-274.78,26.23,0,48.96,14.27,69.26,38.07-3.19,5.02-6.35,10.23-9.47,15.68-32.42,56.75-58.22,132.03-83.17,204.83-4.48,13.06,2.48,27.28,15.54,31.75,13.07,4.48,27.28-2.48,31.76-15.54,23.55-68.72,47.52-138.62,76.18-190.72,28.67,52.11,52.63,122,76.18,190.72,24.95,72.8,50.75,148.08,83.17,204.83,39.88,69.81,85.81,103.75,140.42,103.75,37.1,0,70.2-15.68,100.11-47.62,29.91,31.94,63.01,47.62,100.11,47.62,54.61,0,100.54-33.94,140.42-103.75,32.42-56.75,58.22-132.03,83.17-204.83,4.48-13.06-2.48-27.28-15.54-31.76ZM599.42,766.4c-82.11,0-129.99-139.69-176.3-274.79-24.95-72.8-50.75-148.08-83.17-204.83-3.12-5.46-6.27-10.67-9.47-15.68,20.31-23.8,43.04-38.07,69.26-38.07,82.11,0,129.99,139.69,176.3,274.79,24.95,72.8,50.75,148.08,83.17,204.82,3.12,5.45,6.27,10.66,9.46,15.68-20.31,23.8-43.04,38.07-69.26,38.07Z"/></svg>