<?xml version="1.0" encoding="UTF-8"?><svg id="layer1" xmlns="http://www.w3.org/2000/svg" viewBox="0 0 1000 1000"><path d="M770.87,358.37H229.13c-78.22,0-141.63,63.41-141.63,141.63h0c0,78.22,63.41,141.63,141.63,141.63h541.74c78.22,0,141.63-63.41,141.63-141.63h0c0-78.22-63.41-141.63-141.63-141.63ZM770.87,591.63H229.13c-50.52,0-91.63-41.11-91.63-91.63s41.11-91.63,91.63-91.63h541.74c50.52,0,91.63,41.11,91.63,91.63s-41.11,91.63-91.63,91.63Z"/><path d="M750,475H250c-13.81,0-25,11.19-25,25s11.19,25,25,25h500c13.81,0,25-11.19,25-25s-11.19-25-25-25Z"/></svg>