<?xml version="1.0" encoding="UTF-8"?><svg id="layer1" xmlns="http://www.w3.org/2000/svg" viewBox="0 0 1000 1000"><path d="M651.08,811.15V282.15c0-34.41-18.12-64.58-45.33-81.53.35-1.16.67-2.33.94-3.53l30.73-137.12c7-31.25-16.76-60.94-48.79-60.94h-177.28c-32.02,0-55.79,29.69-48.79,60.94l30.73,137.12c.27,1.2.59,2.37.94,3.53-27.21,16.95-45.33,47.11-45.33,81.53v529h-140.59v188.84h583.36v-188.84h-140.59ZM444.9,236.15h110.18c25.36,0,46,20.63,46,46v34.55h-202.18v-34.55c0-25.36,20.63-46,46-46ZM601.08,417v93.06h-202.18v-93.06h202.18ZM442.08,186.15l-30.73-137.12h0s177.28,0,177.28,0h0s-30.73,137.12-30.73,137.12h-113s0,0,0,0h-2.81ZM398.9,610.37h202.18v200.78h-202.18v-200.78ZM741.67,950h-483.36v-88.84h483.36v88.84Z"/></svg>