<?xml version="1.0" encoding="UTF-8"?><svg id="layer1" xmlns="http://www.w3.org/2000/svg" viewBox="0 0 1000 1000"><path d="M771.43,236.66c4.64-7.72,4.76-17.34.33-25.18-4.44-7.84-12.75-12.69-21.76-12.69h-113.24l90.42-90.42c9.76-9.76,9.76-25.59,0-35.36-9.76-9.76-25.59-9.76-35.36,0l-125.78,125.78H250c-9.01,0-17.32,4.85-21.76,12.69-4.44,7.84-4.31,17.46.33,25.18l214.15,356.53v249.5h-123.77c-13.81,0-25,11.19-25,25s11.19,25,25,25h362.11c13.81,0,25-11.19,25-25s-11.19-25-25-25h-123.77v-249.5l214.15-356.53ZM377.69,387.83h244.61l-104.17,173.43h-36.27l-104.17-173.43ZM705.82,248.79l-53.48,89.04h-154.61l89.04-89.04h119.06ZM516.05,248.79l-89.04,89.04h-79.35l-53.48-89.04h221.87ZM492.72,842.69v-231.43h14.57v231.43h-14.57Z"/></svg>