<?xml version="1.0" encoding="UTF-8"?><svg id="layer1" xmlns="http://www.w3.org/2000/svg" viewBox="0 0 1000 1000"><defs><style>.cls-1 {
        fill: none;
        stroke: #000;
        stroke-miterlimit: 10;
        stroke-width: 50px;
      }</style></defs><path class="cls-1" d="M850.88,572.3c12.54,0,23.11-9.3,24.79-21.73,2.27-16.75,3.44-33.85,3.44-51.22s-1.17-34.47-3.44-51.22c-1.68-12.43-12.25-21.73-24.79-21.73h-80.77c-6.37-23.47-15.71-45.72-27.61-66.31l57.12-57.12c8.88-8.88,9.76-22.94,2.14-32.92-20.79-27.26-45.19-51.61-72.5-72.33-9.99-7.58-24.02-6.69-32.88,2.18l-57.19,57.19c-20.55-11.8-42.76-21.05-66.17-27.35v-80.69c0-12.55-9.31-23.13-21.75-24.8-16.56-2.22-33.47-3.36-50.64-3.36s-34.86,1.2-51.8,3.52c-12.42,1.7-21.7,12.25-21.7,24.79v80.54c-23.41,6.3-45.61,15.55-66.17,27.35l-56.71-56.71c-8.88-8.88-22.94-9.76-32.92-2.14-27.26,20.79-51.61,45.19-72.33,72.5-7.58,9.99-6.69,24.02,2.18,32.88l56.49,56.49c-11.9,20.59-21.24,42.84-27.61,66.31h-79.66c-12.54,0-23.11,9.3-24.79,21.73-2.27,16.75-3.44,33.85-3.44,51.22s1.17,34.47,3.44,51.22c1.68,12.43,12.25,21.73,24.79,21.73h79.36c6.31,23.61,15.61,46,27.5,66.72l-56.08,56.08c-8.86,8.86-9.76,22.9-2.18,32.88,20.73,27.31,45.08,51.71,72.33,72.5,9.98,7.61,24.04,6.74,32.92-2.14l56.02-56.02c20.75,11.99,43.19,21.39,66.87,27.76v79.44c0,12.53,9.28,23.09,21.7,24.79,16.93,2.32,34.23,3.52,51.8,3.52s34.07-1.15,50.64-3.36c12.44-1.66,21.75-12.24,21.75-24.8v-79.59c23.68-6.38,46.11-15.77,66.87-27.76l56.49,56.49c8.86,8.86,22.9,9.76,32.88,2.18,27.31-20.73,51.71-45.08,72.5-72.33,7.61-9.98,6.74-24.04-2.14-32.92l-56.71-56.71c11.89-20.72,21.2-43.11,27.5-66.72h80.47ZM500.09,623.17c-68.07,0-123.26-55.18-123.26-123.25s55.18-123.25,123.26-123.25,123.26,55.18,123.26,123.25-55.18,123.25-123.26,123.25Z"/></svg>