<?xml version="1.0" encoding="UTF-8"?><svg id="layer1" xmlns="http://www.w3.org/2000/svg" viewBox="0 0 1000 1000"><path d="M245.01,474.98h229.99v-229.96c0-13.8,11.19-24.98,24.98-24.98s24.98,11.18,24.98,24.98v229.96h230.04c13.8,0,24.98,11.19,24.98,24.98s-11.18,24.98-24.98,24.98h-230.02s.01,234.46.01,234.46c0,4.84-3.12,11.26-7,14.16-20.54,15.33-43,1.01-43-18.55v-230.05h-234.38c-4.84.01-11.26-3.1-14.16-6.98-15.33-20.54-1.01-43,18.55-43Z"/><path d="M500,87.72c227.7,0,412.28,184.59,412.28,412.28s-184.59,412.28-412.28,412.28S87.72,727.7,87.72,500,272.3,87.72,500,87.72ZM243.83,756.17c33.29,33.29,72.04,59.42,115.17,77.66,44.63,18.88,92.07,28.45,141,28.45s96.37-9.57,141-28.45c43.13-18.24,81.88-44.37,115.17-77.66,33.29-33.29,59.42-72.04,77.66-115.17,18.88-44.63,28.45-92.07,28.45-141s-9.57-96.37-28.45-141c-18.24-43.13-44.37-81.88-77.66-115.17-33.29-33.29-72.04-59.42-115.17-77.66-44.63-18.88-92.07-28.45-141-28.45s-96.37,9.57-141,28.45c-43.13,18.24-81.88,44.37-115.17,77.66-33.29,33.29-59.42,72.04-77.66,115.17-18.88,44.63-28.45,92.07-28.45,141s9.57,96.37,28.45,141c18.24,43.13,44.37,81.88,77.66,115.17Z"/></svg>