<?xml version="1.0" encoding="UTF-8"?><svg id="layer1" xmlns="http://www.w3.org/2000/svg" viewBox="0 0 1000 1000"><path d="M300.55,512.76v-83.72c0-.5-.01-.99-.04-1.49-.15-2.43-.26-4.84-.33-7.18-.08-2.42-.11-4.83-.11-7.16,0-58.49,21.03-113.4,59.23-154.59,37.71-40.67,87.69-63.07,140.75-63.07s103.04,22.4,140.75,63.07c9.39,10.12,25.21,10.72,35.33,1.34,10.12-9.39,10.72-25.21,1.34-35.33-47.28-50.99-110.28-79.08-177.41-79.08s-130.14,28.08-177.42,79.08c-46.79,50.47-72.56,117.45-72.56,188.59,0,2.86.05,5.8.14,8.73.08,2.56.2,5.19.35,7.83v94.37c0,.59.05,1.16.09,1.74v280.08h499.34v-293.2h-449.43ZM699.98,755.96h-399.34v-193.2h399.34v193.2Z"/></svg>