<?xml version="1.0" encoding="UTF-8"?><svg id="layer1" xmlns="http://www.w3.org/2000/svg" viewBox="0 0 1000 1000"><path d="M880.25,723.59c0-.18.03-.34.03-.52v-430.62c0-14.63-12.01-25.04-25.05-25.04-4.32,0-8.76,1.14-12.91,3.66l-342.32,207.47-342.32-207.47c-4.15-2.52-8.58-3.66-12.91-3.66-13.04,0-25.05,10.41-25.05,25.04v430.62c0,.18.02.34.03.52.01.33.03.65.05.98.23,3.87,1.32,7.5,3.11,10.7,3.65,6.7,10.3,11.81,19.2,12.67.03,0,.05,0,.07,0,.76.07,1.55.11,2.34.12.07,0,.13,0,.19,0h710.56c.07,0,.13,0,.19,0,.8,0,1.58-.05,2.34-.12.03,0,.05,0,.07,0,8.9-.86,15.55-5.96,19.2-12.67,1.79-3.2,2.88-6.83,3.11-10.7.02-.32.04-.65.05-.97ZM830.28,336.83v341.87l-282.04-170.94,282.04-170.94ZM451.77,507.77l-282.04,170.94v-341.87l282.04,170.94ZM234.25,698.07l265.75-161.06,265.75,161.06H234.25Z"/></svg>