<?xml version="1.0" encoding="UTF-8"?><svg id="layer1" xmlns="http://www.w3.org/2000/svg" viewBox="0 0 1000 1000"><path d="M848.21,317.5c-9.76-9.76-25.59-9.76-35.36,0l-110.63,110.63-40.75-271.22c-2.85-25.36-24.08-44.38-49.68-44.38h-242.05c-25.6,0-46.83,19.03-49.68,44.38l-74.35,494.88h-.92v6.12l-26.06,173.44-.16,1.28c-1.37,14.01,3.27,28.03,12.73,38.46,9.46,10.43,22.96,16.41,37.04,16.41h444.87c14.08,0,27.58-5.98,37.04-16.41,9.46-10.43,14.1-24.44,12.73-38.46l-.06-.64-51.44-342.38,136.75-136.75c9.76-9.76,9.76-25.59,0-35.36ZM369.58,163.8l.16-1.28h242.05l.06.64,46.41,308.92-179.7,179.7h-182.31l73.32-487.98ZM268.36,837.49l20.39-135.71h404.03l20.39,135.71h-444.81ZM685.27,651.78h-135.99l118.22-118.22,17.76,118.22Z"/></svg>