<?xml version="1.0" encoding="UTF-8"?><svg id="layer1" xmlns="http://www.w3.org/2000/svg" viewBox="0 0 1000 1000"><path d="M747.04,413.21c0-71.14-25.77-138.12-72.56-188.59-47.28-50.99-110.28-79.08-177.41-79.08s-130.14,28.08-177.41,79.08c-46.79,50.47-72.56,117.45-72.56,188.59,0,5.32.16,10.89.49,16.56v94.37c0,.59.05,1.16.09,1.74v280.09h499.34v-281.18c0-.22.03-.43.03-.65v-110.93ZM497.06,195.54c110.27,0,199.97,97.64,199.97,217.67v99.55h-399.46v-83.72c0-.5-.01-.99-.04-1.49-.3-4.95-.45-9.77-.45-14.34,0-120.02,89.71-217.67,199.97-217.67Z"/></svg>