<?xml version="1.0" encoding="UTF-8"?><svg id="layer1" xmlns="http://www.w3.org/2000/svg" viewBox="0 0 1000 1000"><path d="M820.46,784.61l-204.92-204.92c35.28-43.09,56.48-98.13,56.48-158.03,0-137.79-112.11-249.91-249.91-249.91s-249.89,112.12-249.89,249.91,112.1,249.87,249.89,249.87c59.93,0,114.99-21.21,158.1-56.5l208,208.04c3.42,3.42,10.17,5.76,14.96,5.07,25.36-3.68,31.13-29.69,17.29-43.52ZM422.11,621.52c-110.22,0-199.89-89.66-199.89-199.87s89.67-199.91,199.89-199.91,199.91,89.68,199.91,199.91-89.68,199.87-199.91,199.87Z"/></svg>