<?xml version="1.0" encoding="UTF-8"?><svg id="layer1" xmlns="http://www.w3.org/2000/svg" viewBox="0 0 1000 1000"><path d="M499.99,87.51c-227.45,0-412.49,185.07-412.49,412.52s185.04,412.46,412.49,412.46,412.51-185.01,412.51-412.46S727.43,87.51,499.99,87.51ZM499.99,862.49c-199.87,0-362.49-162.6-362.49-362.46S300.11,137.51,499.99,137.51s362.51,162.62,362.51,362.52-162.62,362.46-362.51,362.46Z"/><path d="M525,489.64v-239.64c0-13.81-11.19-25-25-25s-25,11.19-25,25v250c0,6.63,2.63,12.99,7.32,17.68l176.78,176.78c4.88,4.88,11.28,7.32,17.68,7.32s12.8-2.44,17.68-7.32c9.76-9.76,9.76-25.59,0-35.36l-169.45-169.45Z"/></svg>