<?xml version="1.0" encoding="UTF-8"?><svg id="layer1" xmlns="http://www.w3.org/2000/svg" viewBox="0 0 1000 1000"><path d="M301.18,232.49v138.49h-138.49v-138.49h138.49M338.68,182.49H125.19c-6.9,0-12.5,5.6-12.5,12.5v213.49c0,6.9,5.6,12.5,12.5,12.5h213.49c6.9,0,12.5-5.6,12.5-12.5v-213.49c0-6.9-5.6-12.5-12.5-12.5h0Z"/><path d="M496.43,431.88c49.51,0,89.8,40.28,89.8,89.8v10.83c0,49.51-40.28,89.8-89.8,89.8h-10.83c-49.51,0-89.8-40.28-89.8-89.8v-10.83c0-49.51,40.28-89.8,89.8-89.8h10.83M496.43,381.88h-10.83c-77.21,0-139.8,62.59-139.8,139.8v10.83c0,77.21,62.59,139.8,139.8,139.8h10.83c77.21,0,139.8-62.59,139.8-139.8v-10.83c0-77.21-62.59-139.8-139.8-139.8h0Z"/><path d="M779.54,572.26h0,0M747.26,638.9l66.31,128.61h-128.61l62.29-128.61M746.23,543.14c-4.67,0-9.33,2.45-11.69,7.32l-120.32,248.4c-4.18,8.62,2.1,18.64,11.69,18.64h248.4c9.72,0,16-10.29,11.54-18.93l-128.08-248.4c-2.42-4.7-6.98-7.03-11.54-7.03h0Z"/></svg>