<?xml version="1.0" encoding="UTF-8"?><svg id="layer1" xmlns="http://www.w3.org/2000/svg" viewBox="0 0 1000 1000"><path d="M725,375v-25h84.38c4.84,0,11.26-3.11,14.16-6.99,15.33-20.54,1.01-43-18.55-43h-79.99v-25c0-41.36-33.64-75-75-75s-75,33.64-75,75v25H195c-13.8,0-24.98,11.19-24.98,24.98s11.19,24.98,24.98,24.98l380.01.02v25.01c0,41.36,33.64,75,75,75s75-33.64,75-75ZM625,375v-100c0-13.79,11.21-25,25-25s25,11.21,25,25v100c0,13.79-11.21,25-25,25s-25-11.21-25-25Z"/><path d="M408.48,725v-25.02l400.89.02c4.84,0,11.26-3.11,14.16-7,15.33-20.54,1.01-43-18.55-43h-396.51v-25c0-41.36-33.64-75-75-75s-75,33.64-75,75v25h-63.49c-13.8,0-24.98,11.19-24.98,24.98s11.19,24.98,24.98,24.98h63.49v25.03c0,41.36,33.64,75,75,75s75-33.64,75-75ZM308.48,725v-100c0-13.79,11.21-25,25-25s25,11.21,25,25v100c0,13.79-11.21,25-25,25s-25-11.21-25-25Z"/></svg>