<?xml version="1.0" encoding="UTF-8"?><svg id="layer1" xmlns="http://www.w3.org/2000/svg" viewBox="0 0 1000 1000"><path d="M356.78,816.7c-.71,0-1.43-.02-2.16-.07-24.05-1.59-32.44-28.71-35.6-38.92-5.1-16.5-9.95-40.85-14.82-74.43-4.49-23.59-7.84-68.76-11.72-121-3.46-46.56-7.37-99.34-12.63-142.63-1.37-11.24-2.72-20.94-4.03-29.3-1.98,7.4-4,15.08-6.1,23.08-10.5,39.98-22.4,85.3-36.39,120.08-.02.05-.04.11-.06.16-3.4,8.29-13.75,33.5-36.48,37.99-6.83,1.35-20.06,1.71-32.74-10.69-12.6-11.49-21.99-31.05-32.83-53.63-7.34-15.29-19.02-39.61-28.08-48.92-5.17,4.23-18.54,19.29-37.85,70.61-15.67,41.63-29.13,90.9-38.04,123.51-2.32,8.5-4.33,15.84-6.1,22.08-3.77,13.28-17.6,20.99-30.88,17.22-13.28-3.77-20.99-17.6-17.22-30.88,1.7-6,3.68-13.23,5.97-21.6,8.97-32.81,22.51-82.38,38.61-125.63,21.86-58.72,42.11-90.08,65.67-101.67,12.4-6.1,25.49-6.65,37.85-1.58.93.38,1.83.82,2.71,1.31,23.16,12.94,38.04,43.94,52.44,73.92,3.56,7.41,8.13,16.92,12.4,24.74,12.12-31.41,23.02-72.9,32.68-109.71,3.1-11.79,6.02-22.93,8.93-33.58.04-.14.08-.28.12-.42,1.21-4.15,2.34-8.13,3.41-11.92,3.57-12.62,6.65-23.53,10.55-32.32,7.01-15.86,17.33-24.91,30.66-26.91,5.4-.81,10.92.17,15.7,2.79,29.03,15.87,37.93,75.82,51.62,260.23,3.64,48.99,7.07,95.26,11.06,115.77.08.4.14.8.2,1.2,1.94,13.46,3.78,24.62,5.48,33.86,2.44-8.29,4.79-16.61,6.82-23.8,19.25-68.2,31.46-107.27,58.58-117.17,9.71-3.55,20.29-2.57,29.46,2.62,8.81,3.95,15.99,10.53,22.95,16.9.95.87,2.09,1.92,3.29,2.99,2.43-6.76,4.49-14.92,6.26-21.93,4.67-19.04,9.82-44.31,15.27-71.07,6.94-34.09,14.12-69.34,21.12-95.44,4.16-16.23,15.15-58.84,47.78-60.1,25.44-.98,39.98,24.72,44.75,33.17,7,12.38,14.12,29.17,21.18,49.93,10.17,28.51,20.23,65.26,29.05,99.1,1.09-11.36,2.28-24.44,3.45-37.35,4.98-54.82,11.8-129.91,20.69-191.9,5.02-35.02,10.05-61.48,15.37-80.89,4.32-15.77,13.3-48.58,39.7-51.02,7.82-.72,22.65,1.01,34.11,20.77,4.73,8.15,9.13,19.57,13.47,34.93.01.05.03.1.04.15,6.92,25.11,13.85,55.77,20.55,85.43,5.04,22.3,9.8,43.37,14.52,62.11,1.31,4.71,2.59,9.51,3.87,14.3,3.19,11.96,7.95,29.82,12.49,40.73,3.99-5.14,8.48-11.69,11.69-16.39,16.62-24.29,35.46-51.81,65.06-49.47.76.06,1.51.15,2.26.28,29.45,5.06,49.82,37.42,68.11,108.2,12.68,49.09,21.73,106.72,28.33,148.79,2.03,12.93,3.78,24.09,5.3,32.84,2.36,13.6-6.75,26.55-20.35,28.91-13.61,2.37-26.55-6.75-28.91-20.35-1.59-9.15-3.37-20.5-5.43-33.65-6-38.26-14.23-90.65-25.24-135.65-12.57-51.38-23.4-70.31-28.63-76.98-5.91,5.83-14.28,18.07-19.23,25.3-12.05,17.61-23.43,34.23-39.32,41.26-.5.22-1.01.43-1.53.62-10.74,3.93-22.06,3.28-31.87-1.82-22.96-11.95-31.34-43.37-41.04-79.75-1.26-4.72-2.52-9.45-3.81-14.09-.05-.19-.1-.39-.15-.58-4.9-19.42-9.97-41.88-14.88-63.61-5.19-22.97-10.52-46.56-15.79-67.28-3.37,16.27-7.26,38.91-11.44,70.36-7.62,57.31-13.7,124.15-18.13,172.95-4.75,52.29-6.41,69.13-8.46,77.4-2.07,14.56-4.21,25.87-6.54,34.52-2.23,8.28-9.02,33.48-32.05,34.8-7.46.43-21.45-1.78-31.27-21.36-3.71-7.4-7.28-17.82-10.9-31.88-1.68-6.46-3.51-13.56-5.44-21.07-10.05-39.12-22.56-87.81-34.79-122.05-.04-.12-.09-.25-.13-.37-6.01-17.71-11.1-29.46-15.05-37.18-.94,2.93-1.94,6.39-2.98,10.46-.02.09-.05.19-.07.28-6.61,24.64-13.65,59.19-20.46,92.61-5.56,27.29-10.81,53.07-15.73,73.09-.01.05-.02.1-.04.15-3.33,13.21-7.48,29.65-14.93,42.75-.09.15-.18.31-.27.46-9.42,15.79-21.43,20.57-29.84,21.8-20.25,2.96-35.59-11.1-46.79-21.37-1-.92-2.16-1.98-3.35-3.04-2.18,4.34-5.02,10.86-8.46,20.54-5.94,16.71-11.7,37.12-17.28,56.86-6.07,21.51-11.81,41.83-17.76,57.56-4.58,12.09-15.12,39.94-39.48,39.94ZM836.74,449.52s0,0,0,0c0,0,0,0,0,0Z"/></svg>