<?xml version="1.0" encoding="UTF-8"?><svg id="layer1" xmlns="http://www.w3.org/2000/svg" viewBox="0 0 1000 1000"><path d="M429.64,810.43c-9.62,0-19.1-3.42-27.36-9.99-.62-.5-1.22-1.02-1.8-1.58-35.4-34.18-52.56-138.17-76.62-305.37-12.63-87.75-26.66-185.25-43.91-235.22-4.19,12.39-7.91,26.58-11.2,39.1-1.67,6.38-3.25,12.41-4.72,17.49-3.03,11.93-6.05,24.33-9.25,37.45-7.22,29.65-14.69,60.31-22.76,87.16-5.97,19.87-13.22,42.57-23.72,60.56-18.88,32.37-42.17,37.92-58.62,36.74-15.63-.59-29.93-7.29-43.76-13.78-10.23-4.79-20.8-9.75-30.25-11.23-.27-.04-.54-.09-.81-.14-17.99-3.43-38.22,3.34-59.64,10.51-2.47.83-4.95,1.66-7.41,2.47-13.11,4.31-27.25-2.82-31.56-15.93-4.32-13.12,2.82-27.25,15.93-31.56,2.39-.79,4.78-1.59,7.17-2.39,25.22-8.44,53.79-18.01,84.47-12.29,16.32,2.63,30.66,9.36,43.33,15.3,9.38,4.4,19.09,8.95,24.53,9.09.5.01.99.04,1.49.08,4.36.37,10.24-9.13,11.94-12.06,7.74-13.26,13.87-32.64,19.02-49.76,7.69-25.58,15-55.58,22.06-84.6,3.26-13.39,6.34-26.04,9.47-38.34.07-.27.14-.53.22-.79,1.32-4.55,2.86-10.44,4.49-16.66,13.92-53.09,25.1-88.34,52.63-94.36,6.24-1.37,22.29-2.68,36.38,14.5.57.7,1.11,1.43,1.6,2.18,28.42,43.54,44.15,152.82,62.35,279.36,9.12,63.35,18.54,128.87,29.39,180.85,11.74,56.22,21.92,79.98,28.11,89.97,2.15-2.39,5.12-6.2,8.91-12.23,6.51-10.37,13-23.41,18.73-34.91,2.94-5.91,5.73-11.5,8.45-16.64l2.07-4.26c15.54-32.05,31.61-65.2,49.56-93.39,40-65.61,79.82-71.23,131.52-71.48,22.41-2.03,39.94-8.98,57.58-36.23,12.22-19.99,16.95-58.13,21.53-95.02,3.78-30.48,7.69-62,16.35-86.77,5.42-15.48,12.29-27.35,21-36.27,11.19-11.46,25.54-17.85,41.48-18.49,36.8-1.47,58.18,40.3,65.2,54.03,11.62,22.71,23,53.62,33.8,91.87,13.11,46.41,50.03,77.6,91.87,77.6h1.09c13.81,0,25,11.19,25,25s-11.19,25-25,25h-1.09c-64.46,0-120.72-45.81-139.98-114-26.4-93.45-46.77-107.84-49.75-109.49-3.34.28-9.75,2.18-16.42,21.27-6.9,19.72-10.47,48.54-13.93,76.4-5.25,42.34-10.68,86.12-28.73,115.34-.08.14-.17.27-.26.41-30.89,47.93-67.8,56.85-96.5,59.26-.67.06-1.34.09-2.01.09-43.6.15-62.4,2.04-90.18,47.7-.09.15-.18.3-.28.45-16.44,25.79-31.91,57.69-46.87,88.54l-2.27,4.68c-.13.28-.27.55-.42.82-2.48,4.66-5.19,10.1-8.06,15.87-17.27,34.68-35.12,70.55-64.7,77.11-2.97.66-5.95.98-8.92.98Z"/></svg>